%TF.GenerationSoftware,KiCad,Pcbnew,(6.0.0-rc1-dev-882-gdbc9130da)*%
%TF.CreationDate,2019-08-28T17:07:57+08:00*%
%TF.ProjectId,AntennaSwitch_6x2_RelayBoard,416E74656E6E615377697463685F3678,rev?*%
%TF.SameCoordinates,Original*%
%TF.FileFunction,Paste,Bot*%
%TF.FilePolarity,Positive*%
%FSLAX46Y46*%
G04 Gerber Fmt 4.6, Leading zero omitted, Abs format (unit mm)*
G04 Created by KiCad (PCBNEW (6.0.0-rc1-dev-882-gdbc9130da)) date 2019/8/28 17:07:57*
%MOMM*%
%LPD*%
G01*
G04 APERTURE LIST*
%ADD10R,1.500000X0.550000*%
%ADD11R,0.600000X1.550000*%
G04 APERTURE END LIST*
D10*
X182735200Y-153289000D03*
X182735200Y-152019000D03*
X182735200Y-150749000D03*
X182735200Y-149479000D03*
X182735200Y-148209000D03*
X182735200Y-146939000D03*
X182735200Y-145669000D03*
X177335200Y-145669000D03*
X177335200Y-146939000D03*
X177335200Y-148209000D03*
X177335200Y-149479000D03*
X177335200Y-150749000D03*
X177335200Y-152019000D03*
X177335200Y-153289000D03*
X144696200Y-145669000D03*
X144696200Y-146939000D03*
X144696200Y-148209000D03*
X144696200Y-149479000D03*
X144696200Y-150749000D03*
X144696200Y-152019000D03*
X144696200Y-153289000D03*
X150096200Y-153289000D03*
X150096200Y-152019000D03*
X150096200Y-150749000D03*
X150096200Y-149479000D03*
X150096200Y-148209000D03*
X150096200Y-146939000D03*
X150096200Y-145669000D03*
D11*
X173812200Y-146779000D03*
X172542200Y-146779000D03*
X171272200Y-146779000D03*
X170002200Y-146779000D03*
X168732200Y-146779000D03*
X167462200Y-146779000D03*
X166192200Y-146779000D03*
X164922200Y-146779000D03*
X164922200Y-152179000D03*
X166192200Y-152179000D03*
X167462200Y-152179000D03*
X168732200Y-152179000D03*
X170002200Y-152179000D03*
X171272200Y-152179000D03*
X172542200Y-152179000D03*
X173812200Y-152179000D03*
X162636200Y-146779000D03*
X161366200Y-146779000D03*
X160096200Y-146779000D03*
X158826200Y-146779000D03*
X157556200Y-146779000D03*
X156286200Y-146779000D03*
X155016200Y-146779000D03*
X153746200Y-146779000D03*
X153746200Y-152179000D03*
X155016200Y-152179000D03*
X156286200Y-152179000D03*
X157556200Y-152179000D03*
X158826200Y-152179000D03*
X160096200Y-152179000D03*
X161366200Y-152179000D03*
X162636200Y-152179000D03*
M02*
