%TF.GenerationSoftware,KiCad,Pcbnew,(6.0.0-rc1-dev-882-gdbc9130da)*%
%TF.CreationDate,2019-08-28T17:07:57+08:00*%
%TF.ProjectId,AntennaSwitch_6x2_RelayBoard,416E74656E6E615377697463685F3678,rev?*%
%TF.SameCoordinates,Original*%
%TF.FileFunction,Legend,Top*%
%TF.FilePolarity,Positive*%
%FSLAX46Y46*%
G04 Gerber Fmt 4.6, Leading zero omitted, Abs format (unit mm)*
G04 Created by KiCad (PCBNEW (6.0.0-rc1-dev-882-gdbc9130da)) date 2019/8/28 17:07:57*
%MOMM*%
%LPD*%
G01*
G04 APERTURE LIST*
%ADD10C,0.150000*%
%ADD11C,0.300000*%
%ADD12C,1.000000*%
G04 APERTURE END LIST*
D10*
X216099714Y-143914571D02*
X215814000Y-143914571D01*
X215671142Y-143986000D01*
X215599714Y-144057428D01*
X215456857Y-144271714D01*
X215385428Y-144557428D01*
X215385428Y-145128857D01*
X215456857Y-145271714D01*
X215528285Y-145343142D01*
X215671142Y-145414571D01*
X215956857Y-145414571D01*
X216099714Y-145343142D01*
X216171142Y-145271714D01*
X216242571Y-145128857D01*
X216242571Y-144771714D01*
X216171142Y-144628857D01*
X216099714Y-144557428D01*
X215956857Y-144486000D01*
X215671142Y-144486000D01*
X215528285Y-144557428D01*
X215456857Y-144628857D01*
X215385428Y-144771714D01*
X216742571Y-145414571D02*
X217528285Y-144414571D01*
X216742571Y-144414571D02*
X217528285Y-145414571D01*
X218028285Y-144057428D02*
X218099714Y-143986000D01*
X218242571Y-143914571D01*
X218599714Y-143914571D01*
X218742571Y-143986000D01*
X218814000Y-144057428D01*
X218885428Y-144200285D01*
X218885428Y-144343142D01*
X218814000Y-144557428D01*
X217956857Y-145414571D01*
X218885428Y-145414571D01*
X220599714Y-144986000D02*
X221314000Y-144986000D01*
X220456857Y-145414571D02*
X220956857Y-143914571D01*
X221456857Y-145414571D01*
X221956857Y-144414571D02*
X221956857Y-145414571D01*
X221956857Y-144557428D02*
X222028285Y-144486000D01*
X222171142Y-144414571D01*
X222385428Y-144414571D01*
X222528285Y-144486000D01*
X222599714Y-144628857D01*
X222599714Y-145414571D01*
X223099714Y-144414571D02*
X223671142Y-144414571D01*
X223314000Y-143914571D02*
X223314000Y-145200285D01*
X223385428Y-145343142D01*
X223528285Y-145414571D01*
X223671142Y-145414571D01*
X224742571Y-145343142D02*
X224599714Y-145414571D01*
X224314000Y-145414571D01*
X224171142Y-145343142D01*
X224099714Y-145200285D01*
X224099714Y-144628857D01*
X224171142Y-144486000D01*
X224314000Y-144414571D01*
X224599714Y-144414571D01*
X224742571Y-144486000D01*
X224814000Y-144628857D01*
X224814000Y-144771714D01*
X224099714Y-144914571D01*
X225456857Y-144414571D02*
X225456857Y-145414571D01*
X225456857Y-144557428D02*
X225528285Y-144486000D01*
X225671142Y-144414571D01*
X225885428Y-144414571D01*
X226028285Y-144486000D01*
X226099714Y-144628857D01*
X226099714Y-145414571D01*
X226814000Y-144414571D02*
X226814000Y-145414571D01*
X226814000Y-144557428D02*
X226885428Y-144486000D01*
X227028285Y-144414571D01*
X227242571Y-144414571D01*
X227385428Y-144486000D01*
X227456857Y-144628857D01*
X227456857Y-145414571D01*
X228814000Y-145414571D02*
X228814000Y-144628857D01*
X228742571Y-144486000D01*
X228599714Y-144414571D01*
X228314000Y-144414571D01*
X228171142Y-144486000D01*
X228814000Y-145343142D02*
X228671142Y-145414571D01*
X228314000Y-145414571D01*
X228171142Y-145343142D01*
X228099714Y-145200285D01*
X228099714Y-145057428D01*
X228171142Y-144914571D01*
X228314000Y-144843142D01*
X228671142Y-144843142D01*
X228814000Y-144771714D01*
X230599714Y-145343142D02*
X230814000Y-145414571D01*
X231171142Y-145414571D01*
X231314000Y-145343142D01*
X231385428Y-145271714D01*
X231456857Y-145128857D01*
X231456857Y-144986000D01*
X231385428Y-144843142D01*
X231314000Y-144771714D01*
X231171142Y-144700285D01*
X230885428Y-144628857D01*
X230742571Y-144557428D01*
X230671142Y-144486000D01*
X230599714Y-144343142D01*
X230599714Y-144200285D01*
X230671142Y-144057428D01*
X230742571Y-143986000D01*
X230885428Y-143914571D01*
X231242571Y-143914571D01*
X231456857Y-143986000D01*
X231956857Y-144414571D02*
X232242571Y-145414571D01*
X232528285Y-144700285D01*
X232814000Y-145414571D01*
X233099714Y-144414571D01*
X233671142Y-145414571D02*
X233671142Y-144414571D01*
X233671142Y-143914571D02*
X233599714Y-143986000D01*
X233671142Y-144057428D01*
X233742571Y-143986000D01*
X233671142Y-143914571D01*
X233671142Y-144057428D01*
X234171142Y-144414571D02*
X234742571Y-144414571D01*
X234385428Y-143914571D02*
X234385428Y-145200285D01*
X234456857Y-145343142D01*
X234599714Y-145414571D01*
X234742571Y-145414571D01*
X235885428Y-145343142D02*
X235742571Y-145414571D01*
X235456857Y-145414571D01*
X235314000Y-145343142D01*
X235242571Y-145271714D01*
X235171142Y-145128857D01*
X235171142Y-144700285D01*
X235242571Y-144557428D01*
X235314000Y-144486000D01*
X235456857Y-144414571D01*
X235742571Y-144414571D01*
X235885428Y-144486000D01*
X236528285Y-145414571D02*
X236528285Y-143914571D01*
X237171142Y-145414571D02*
X237171142Y-144628857D01*
X237099714Y-144486000D01*
X236956857Y-144414571D01*
X236742571Y-144414571D01*
X236599714Y-144486000D01*
X236528285Y-144557428D01*
X215992571Y-147814571D02*
X215492571Y-147100285D01*
X215135428Y-147814571D02*
X215135428Y-146314571D01*
X215706857Y-146314571D01*
X215849714Y-146386000D01*
X215921142Y-146457428D01*
X215992571Y-146600285D01*
X215992571Y-146814571D01*
X215921142Y-146957428D01*
X215849714Y-147028857D01*
X215706857Y-147100285D01*
X215135428Y-147100285D01*
X217206857Y-147743142D02*
X217064000Y-147814571D01*
X216778285Y-147814571D01*
X216635428Y-147743142D01*
X216564000Y-147600285D01*
X216564000Y-147028857D01*
X216635428Y-146886000D01*
X216778285Y-146814571D01*
X217064000Y-146814571D01*
X217206857Y-146886000D01*
X217278285Y-147028857D01*
X217278285Y-147171714D01*
X216564000Y-147314571D01*
X218135428Y-147814571D02*
X217992571Y-147743142D01*
X217921142Y-147600285D01*
X217921142Y-146314571D01*
X219349714Y-147814571D02*
X219349714Y-147028857D01*
X219278285Y-146886000D01*
X219135428Y-146814571D01*
X218849714Y-146814571D01*
X218706857Y-146886000D01*
X219349714Y-147743142D02*
X219206857Y-147814571D01*
X218849714Y-147814571D01*
X218706857Y-147743142D01*
X218635428Y-147600285D01*
X218635428Y-147457428D01*
X218706857Y-147314571D01*
X218849714Y-147243142D01*
X219206857Y-147243142D01*
X219349714Y-147171714D01*
X219921142Y-146814571D02*
X220278285Y-147814571D01*
X220635428Y-146814571D02*
X220278285Y-147814571D01*
X220135428Y-148171714D01*
X220064000Y-148243142D01*
X219921142Y-148314571D01*
X222849714Y-147028857D02*
X223064000Y-147100285D01*
X223135428Y-147171714D01*
X223206857Y-147314571D01*
X223206857Y-147528857D01*
X223135428Y-147671714D01*
X223064000Y-147743142D01*
X222921142Y-147814571D01*
X222349714Y-147814571D01*
X222349714Y-146314571D01*
X222849714Y-146314571D01*
X222992571Y-146386000D01*
X223064000Y-146457428D01*
X223135428Y-146600285D01*
X223135428Y-146743142D01*
X223064000Y-146886000D01*
X222992571Y-146957428D01*
X222849714Y-147028857D01*
X222349714Y-147028857D01*
X224064000Y-147814571D02*
X223921142Y-147743142D01*
X223849714Y-147671714D01*
X223778285Y-147528857D01*
X223778285Y-147100285D01*
X223849714Y-146957428D01*
X223921142Y-146886000D01*
X224064000Y-146814571D01*
X224278285Y-146814571D01*
X224421142Y-146886000D01*
X224492571Y-146957428D01*
X224564000Y-147100285D01*
X224564000Y-147528857D01*
X224492571Y-147671714D01*
X224421142Y-147743142D01*
X224278285Y-147814571D01*
X224064000Y-147814571D01*
X225849714Y-147814571D02*
X225849714Y-147028857D01*
X225778285Y-146886000D01*
X225635428Y-146814571D01*
X225349714Y-146814571D01*
X225206857Y-146886000D01*
X225849714Y-147743142D02*
X225706857Y-147814571D01*
X225349714Y-147814571D01*
X225206857Y-147743142D01*
X225135428Y-147600285D01*
X225135428Y-147457428D01*
X225206857Y-147314571D01*
X225349714Y-147243142D01*
X225706857Y-147243142D01*
X225849714Y-147171714D01*
X226563999Y-147814571D02*
X226563999Y-146814571D01*
X226563999Y-147100285D02*
X226635428Y-146957428D01*
X226706857Y-146886000D01*
X226849714Y-146814571D01*
X226992571Y-146814571D01*
X228135428Y-147814571D02*
X228135428Y-146314571D01*
X228135428Y-147743142D02*
X227992571Y-147814571D01*
X227706857Y-147814571D01*
X227564000Y-147743142D01*
X227492571Y-147671714D01*
X227421142Y-147528857D01*
X227421142Y-147100285D01*
X227492571Y-146957428D01*
X227564000Y-146886000D01*
X227706857Y-146814571D01*
X227992571Y-146814571D01*
X228135428Y-146886000D01*
X229778285Y-146314571D02*
X230278285Y-147814571D01*
X230778285Y-146314571D01*
X231849714Y-147743142D02*
X231706857Y-147814571D01*
X231421142Y-147814571D01*
X231278285Y-147743142D01*
X231206857Y-147600285D01*
X231206857Y-147028857D01*
X231278285Y-146886000D01*
X231421142Y-146814571D01*
X231706857Y-146814571D01*
X231849714Y-146886000D01*
X231921142Y-147028857D01*
X231921142Y-147171714D01*
X231206857Y-147314571D01*
X232564000Y-147814571D02*
X232564000Y-146814571D01*
X232564000Y-147100285D02*
X232635428Y-146957428D01*
X232706857Y-146886000D01*
X232849714Y-146814571D01*
X232992571Y-146814571D01*
X234921142Y-146314571D02*
X235064000Y-146314571D01*
X235206857Y-146386000D01*
X235278285Y-146457428D01*
X235349714Y-146600285D01*
X235421142Y-146886000D01*
X235421142Y-147243142D01*
X235349714Y-147528857D01*
X235278285Y-147671714D01*
X235206857Y-147743142D01*
X235064000Y-147814571D01*
X234921142Y-147814571D01*
X234778285Y-147743142D01*
X234706857Y-147671714D01*
X234635428Y-147528857D01*
X234564000Y-147243142D01*
X234564000Y-146886000D01*
X234635428Y-146600285D01*
X234706857Y-146457428D01*
X234778285Y-146386000D01*
X234921142Y-146314571D01*
X236064000Y-147671714D02*
X236135428Y-147743142D01*
X236064000Y-147814571D01*
X235992571Y-147743142D01*
X236064000Y-147671714D01*
X236064000Y-147814571D01*
X237563999Y-147814571D02*
X236706857Y-147814571D01*
X237135428Y-147814571D02*
X237135428Y-146314571D01*
X236992571Y-146528857D01*
X236849714Y-146671714D01*
X236706857Y-146743142D01*
X214528285Y-149428857D02*
X214742571Y-149500285D01*
X214814000Y-149571714D01*
X214885428Y-149714571D01*
X214885428Y-149928857D01*
X214814000Y-150071714D01*
X214742571Y-150143142D01*
X214599714Y-150214571D01*
X214028285Y-150214571D01*
X214028285Y-148714571D01*
X214528285Y-148714571D01*
X214671142Y-148786000D01*
X214742571Y-148857428D01*
X214814000Y-149000285D01*
X214814000Y-149143142D01*
X214742571Y-149286000D01*
X214671142Y-149357428D01*
X214528285Y-149428857D01*
X214028285Y-149428857D01*
X215385428Y-149214571D02*
X215742571Y-150214571D01*
X216099714Y-149214571D02*
X215742571Y-150214571D01*
X215599714Y-150571714D01*
X215528285Y-150643142D01*
X215385428Y-150714571D01*
X218528285Y-150214571D02*
X217814000Y-150214571D01*
X217814000Y-148714571D01*
X219671142Y-149214571D02*
X219671142Y-150214571D01*
X219028285Y-149214571D02*
X219028285Y-150000285D01*
X219099714Y-150143142D01*
X219242571Y-150214571D01*
X219456857Y-150214571D01*
X219599714Y-150143142D01*
X219671142Y-150071714D01*
X220456857Y-150143142D02*
X220456857Y-150214571D01*
X220385428Y-150357428D01*
X220314000Y-150428857D01*
X222099714Y-148714571D02*
X223099714Y-148714571D01*
X222099714Y-150214571D01*
X223099714Y-150214571D01*
X224242571Y-150143142D02*
X224099714Y-150214571D01*
X223814000Y-150214571D01*
X223671142Y-150143142D01*
X223599714Y-150000285D01*
X223599714Y-149428857D01*
X223671142Y-149286000D01*
X223814000Y-149214571D01*
X224099714Y-149214571D01*
X224242571Y-149286000D01*
X224314000Y-149428857D01*
X224314000Y-149571714D01*
X223599714Y-149714571D01*
X224956857Y-149214571D02*
X224956857Y-150214571D01*
X224956857Y-149357428D02*
X225028285Y-149286000D01*
X225171142Y-149214571D01*
X225385428Y-149214571D01*
X225528285Y-149286000D01*
X225599714Y-149428857D01*
X225599714Y-150214571D01*
X226314000Y-150214571D02*
X226314000Y-149214571D01*
X226314000Y-148714571D02*
X226242571Y-148786000D01*
X226314000Y-148857428D01*
X226385428Y-148786000D01*
X226314000Y-148714571D01*
X226314000Y-148857428D01*
X227028285Y-149214571D02*
X227028285Y-150214571D01*
X227028285Y-149357428D02*
X227099714Y-149286000D01*
X227242571Y-149214571D01*
X227456857Y-149214571D01*
X227599714Y-149286000D01*
X227671142Y-149428857D01*
X227671142Y-150214571D01*
X229028285Y-149214571D02*
X229028285Y-150428857D01*
X228956857Y-150571714D01*
X228885428Y-150643142D01*
X228742571Y-150714571D01*
X228528285Y-150714571D01*
X228385428Y-150643142D01*
X229028285Y-150143142D02*
X228885428Y-150214571D01*
X228599714Y-150214571D01*
X228456857Y-150143142D01*
X228385428Y-150071714D01*
X228314000Y-149928857D01*
X228314000Y-149500285D01*
X228385428Y-149357428D01*
X228456857Y-149286000D01*
X228599714Y-149214571D01*
X228885428Y-149214571D01*
X229028285Y-149286000D01*
X231385428Y-149428857D02*
X231599714Y-149500285D01*
X231671142Y-149571714D01*
X231742571Y-149714571D01*
X231742571Y-149928857D01*
X231671142Y-150071714D01*
X231599714Y-150143142D01*
X231456857Y-150214571D01*
X230885428Y-150214571D01*
X230885428Y-148714571D01*
X231385428Y-148714571D01*
X231528285Y-148786000D01*
X231599714Y-148857428D01*
X231671142Y-149000285D01*
X231671142Y-149143142D01*
X231599714Y-149286000D01*
X231528285Y-149357428D01*
X231385428Y-149428857D01*
X230885428Y-149428857D01*
X232385428Y-150214571D02*
X232385428Y-148714571D01*
X233742571Y-149214571D02*
X233742571Y-150214571D01*
X233385428Y-148643142D02*
X233028285Y-149714571D01*
X233956857Y-149714571D01*
X234385428Y-148714571D02*
X234742571Y-150214571D01*
X235028285Y-149143142D01*
X235314000Y-150214571D01*
X235671142Y-148714571D01*
X236528285Y-148714571D02*
X236814000Y-148714571D01*
X236956857Y-148786000D01*
X237099714Y-148928857D01*
X237171142Y-149214571D01*
X237171142Y-149714571D01*
X237099714Y-150000285D01*
X236956857Y-150143142D01*
X236814000Y-150214571D01*
X236528285Y-150214571D01*
X236385428Y-150143142D01*
X236242571Y-150000285D01*
X236171142Y-149714571D01*
X236171142Y-149214571D01*
X236242571Y-148928857D01*
X236385428Y-148786000D01*
X236528285Y-148714571D01*
X237814000Y-150214571D02*
X237814000Y-148714571D01*
X238385428Y-148714571D01*
X238528285Y-148786000D01*
X238599714Y-148857428D01*
X238671142Y-149000285D01*
X238671142Y-149214571D01*
X238599714Y-149357428D01*
X238528285Y-149428857D01*
X238385428Y-149500285D01*
X237814000Y-149500285D01*
X219492571Y-152614571D02*
X219492571Y-151114571D01*
X219992571Y-152186000D01*
X220492571Y-151114571D01*
X220492571Y-152614571D01*
X221849714Y-152614571D02*
X221849714Y-151828857D01*
X221778285Y-151686000D01*
X221635428Y-151614571D01*
X221349714Y-151614571D01*
X221206857Y-151686000D01*
X221849714Y-152543142D02*
X221706857Y-152614571D01*
X221349714Y-152614571D01*
X221206857Y-152543142D01*
X221135428Y-152400285D01*
X221135428Y-152257428D01*
X221206857Y-152114571D01*
X221349714Y-152043142D01*
X221706857Y-152043142D01*
X221849714Y-151971714D01*
X222421142Y-151614571D02*
X222778285Y-152614571D01*
X223135428Y-151614571D02*
X222778285Y-152614571D01*
X222635428Y-152971714D01*
X222564000Y-153043142D01*
X222421142Y-153114571D01*
X225635428Y-152614571D02*
X224778285Y-152614571D01*
X225206857Y-152614571D02*
X225206857Y-151114571D01*
X225064000Y-151328857D01*
X224921142Y-151471714D01*
X224778285Y-151543142D01*
X226349714Y-152543142D02*
X226349714Y-152614571D01*
X226278285Y-152757428D01*
X226206857Y-152828857D01*
X228064000Y-151257428D02*
X228135428Y-151186000D01*
X228278285Y-151114571D01*
X228635428Y-151114571D01*
X228778285Y-151186000D01*
X228849714Y-151257428D01*
X228921142Y-151400285D01*
X228921142Y-151543142D01*
X228849714Y-151757428D01*
X227992571Y-152614571D01*
X228921142Y-152614571D01*
X229849714Y-151114571D02*
X229992571Y-151114571D01*
X230135428Y-151186000D01*
X230206857Y-151257428D01*
X230278285Y-151400285D01*
X230349714Y-151686000D01*
X230349714Y-152043142D01*
X230278285Y-152328857D01*
X230206857Y-152471714D01*
X230135428Y-152543142D01*
X229992571Y-152614571D01*
X229849714Y-152614571D01*
X229706857Y-152543142D01*
X229635428Y-152471714D01*
X229564000Y-152328857D01*
X229492571Y-152043142D01*
X229492571Y-151686000D01*
X229564000Y-151400285D01*
X229635428Y-151257428D01*
X229706857Y-151186000D01*
X229849714Y-151114571D01*
X231778285Y-152614571D02*
X230921142Y-152614571D01*
X231349714Y-152614571D02*
X231349714Y-151114571D01*
X231206857Y-151328857D01*
X231064000Y-151471714D01*
X230921142Y-151543142D01*
X232492571Y-152614571D02*
X232778285Y-152614571D01*
X232921142Y-152543142D01*
X232992571Y-152471714D01*
X233135428Y-152257428D01*
X233206857Y-151971714D01*
X233206857Y-151400285D01*
X233135428Y-151257428D01*
X233064000Y-151186000D01*
X232921142Y-151114571D01*
X232635428Y-151114571D01*
X232492571Y-151186000D01*
X232421142Y-151257428D01*
X232349714Y-151400285D01*
X232349714Y-151757428D01*
X232421142Y-151900285D01*
X232492571Y-151971714D01*
X232635428Y-152043142D01*
X232921142Y-152043142D01*
X233064000Y-151971714D01*
X233135428Y-151900285D01*
X233206857Y-151757428D01*
D11*
X73821000Y-96520000D02*
G75*
G03X73821000Y-96520000I-7400000J0D01*
G01*
X59051000Y-105640000D02*
G75*
G03X59051000Y-105640000I-1750000J0D01*
G01*
X77291000Y-105640000D02*
G75*
G03X77291000Y-105640000I-1750000J0D01*
G01*
X77291000Y-87400000D02*
G75*
G03X77291000Y-87400000I-1750000J0D01*
G01*
D12*
X53921000Y-109020000D02*
X78921000Y-109020000D01*
X78921000Y-109020000D02*
X78921000Y-84020000D01*
X53921000Y-84020000D02*
X78921000Y-84020000D01*
X53921000Y-109020000D02*
X53921000Y-84020000D01*
D11*
X71344500Y-127762000D02*
G75*
G03X71344500Y-127762000I-7400000J0D01*
G01*
X74814500Y-136882000D02*
G75*
G03X74814500Y-136882000I-1750000J0D01*
G01*
X74814500Y-118642000D02*
G75*
G03X74814500Y-118642000I-1750000J0D01*
G01*
X56574500Y-118642000D02*
G75*
G03X56574500Y-118642000I-1750000J0D01*
G01*
D12*
X76444500Y-140262000D02*
X76444500Y-115262000D01*
X76444500Y-115262000D02*
X51444500Y-115262000D01*
X51444500Y-140262000D02*
X51444500Y-115262000D01*
X76444500Y-140262000D02*
X51444500Y-140262000D01*
D11*
X237143000Y-96520000D02*
G75*
G03X237143000Y-96520000I-7400000J0D01*
G01*
X222373000Y-105640000D02*
G75*
G03X222373000Y-105640000I-1750000J0D01*
G01*
X240613000Y-105640000D02*
G75*
G03X240613000Y-105640000I-1750000J0D01*
G01*
X240613000Y-87400000D02*
G75*
G03X240613000Y-87400000I-1750000J0D01*
G01*
D12*
X217243000Y-109020000D02*
X242243000Y-109020000D01*
X242243000Y-109020000D02*
X242243000Y-84020000D01*
X217243000Y-84020000D02*
X242243000Y-84020000D01*
X217243000Y-109020000D02*
X217243000Y-84020000D01*
D11*
X204478600Y-96520000D02*
G75*
G03X204478600Y-96520000I-7400000J0D01*
G01*
X189708600Y-105640000D02*
G75*
G03X189708600Y-105640000I-1750000J0D01*
G01*
X207948600Y-105640000D02*
G75*
G03X207948600Y-105640000I-1750000J0D01*
G01*
X207948600Y-87400000D02*
G75*
G03X207948600Y-87400000I-1750000J0D01*
G01*
D12*
X184578600Y-109020000D02*
X209578600Y-109020000D01*
X209578600Y-109020000D02*
X209578600Y-84020000D01*
X184578600Y-84020000D02*
X209578600Y-84020000D01*
X184578600Y-109020000D02*
X184578600Y-84020000D01*
D11*
X171814200Y-96520000D02*
G75*
G03X171814200Y-96520000I-7400000J0D01*
G01*
X157044200Y-105640000D02*
G75*
G03X157044200Y-105640000I-1750000J0D01*
G01*
X175284200Y-105640000D02*
G75*
G03X175284200Y-105640000I-1750000J0D01*
G01*
X175284200Y-87400000D02*
G75*
G03X175284200Y-87400000I-1750000J0D01*
G01*
D12*
X151914200Y-109020000D02*
X176914200Y-109020000D01*
X176914200Y-109020000D02*
X176914200Y-84020000D01*
X151914200Y-84020000D02*
X176914200Y-84020000D01*
X151914200Y-109020000D02*
X151914200Y-84020000D01*
D11*
X139149800Y-96520000D02*
G75*
G03X139149800Y-96520000I-7400000J0D01*
G01*
X124379800Y-105640000D02*
G75*
G03X124379800Y-105640000I-1750000J0D01*
G01*
X142619800Y-105640000D02*
G75*
G03X142619800Y-105640000I-1750000J0D01*
G01*
X142619800Y-87400000D02*
G75*
G03X142619800Y-87400000I-1750000J0D01*
G01*
D12*
X119249800Y-109020000D02*
X144249800Y-109020000D01*
X144249800Y-109020000D02*
X144249800Y-84020000D01*
X119249800Y-84020000D02*
X144249800Y-84020000D01*
X119249800Y-109020000D02*
X119249800Y-84020000D01*
D11*
X106485400Y-96520000D02*
G75*
G03X106485400Y-96520000I-7400000J0D01*
G01*
X91715400Y-105640000D02*
G75*
G03X91715400Y-105640000I-1750000J0D01*
G01*
X109955400Y-105640000D02*
G75*
G03X109955400Y-105640000I-1750000J0D01*
G01*
X109955400Y-87400000D02*
G75*
G03X109955400Y-87400000I-1750000J0D01*
G01*
D12*
X86585400Y-109020000D02*
X111585400Y-109020000D01*
X111585400Y-109020000D02*
X111585400Y-84020000D01*
X86585400Y-84020000D02*
X111585400Y-84020000D01*
X86585400Y-109020000D02*
X86585400Y-84020000D01*
D11*
X243620000Y-63500000D02*
G75*
G03X243620000Y-63500000I-7400000J0D01*
G01*
X247090000Y-54380000D02*
G75*
G03X247090000Y-54380000I-1750000J0D01*
G01*
X228850000Y-54380000D02*
G75*
G03X228850000Y-54380000I-1750000J0D01*
G01*
X228850000Y-72620000D02*
G75*
G03X228850000Y-72620000I-1750000J0D01*
G01*
D12*
X248720000Y-51000000D02*
X223720000Y-51000000D01*
X223720000Y-51000000D02*
X223720000Y-76000000D01*
X248720000Y-76000000D02*
X223720000Y-76000000D01*
X248720000Y-51000000D02*
X248720000Y-76000000D01*
D10*
X51649380Y-96853333D02*
X52363666Y-96853333D01*
X52506523Y-96900952D01*
X52601761Y-96996190D01*
X52649380Y-97139047D01*
X52649380Y-97234285D01*
X51744619Y-96424761D02*
X51697000Y-96377142D01*
X51649380Y-96281904D01*
X51649380Y-96043809D01*
X51697000Y-95948571D01*
X51744619Y-95900952D01*
X51839857Y-95853333D01*
X51935095Y-95853333D01*
X52077952Y-95900952D01*
X52649380Y-96472380D01*
X52649380Y-95853333D01*
X63611166Y-141438380D02*
X63611166Y-142152666D01*
X63563547Y-142295523D01*
X63468309Y-142390761D01*
X63325452Y-142438380D01*
X63230214Y-142438380D01*
X64230214Y-141866952D02*
X64134976Y-141819333D01*
X64087357Y-141771714D01*
X64039738Y-141676476D01*
X64039738Y-141628857D01*
X64087357Y-141533619D01*
X64134976Y-141486000D01*
X64230214Y-141438380D01*
X64420690Y-141438380D01*
X64515928Y-141486000D01*
X64563547Y-141533619D01*
X64611166Y-141628857D01*
X64611166Y-141676476D01*
X64563547Y-141771714D01*
X64515928Y-141819333D01*
X64420690Y-141866952D01*
X64230214Y-141866952D01*
X64134976Y-141914571D01*
X64087357Y-141962190D01*
X64039738Y-142057428D01*
X64039738Y-142247904D01*
X64087357Y-142343142D01*
X64134976Y-142390761D01*
X64230214Y-142438380D01*
X64420690Y-142438380D01*
X64515928Y-142390761D01*
X64563547Y-142343142D01*
X64611166Y-142247904D01*
X64611166Y-142057428D01*
X64563547Y-141962190D01*
X64515928Y-141914571D01*
X64420690Y-141866952D01*
X214971380Y-96853333D02*
X215685666Y-96853333D01*
X215828523Y-96900952D01*
X215923761Y-96996190D01*
X215971380Y-97139047D01*
X215971380Y-97234285D01*
X214971380Y-96472380D02*
X214971380Y-95805714D01*
X215971380Y-96234285D01*
X182306980Y-96853333D02*
X183021266Y-96853333D01*
X183164123Y-96900952D01*
X183259361Y-96996190D01*
X183306980Y-97139047D01*
X183306980Y-97234285D01*
X182306980Y-95948571D02*
X182306980Y-96139047D01*
X182354600Y-96234285D01*
X182402219Y-96281904D01*
X182545076Y-96377142D01*
X182735552Y-96424761D01*
X183116504Y-96424761D01*
X183211742Y-96377142D01*
X183259361Y-96329523D01*
X183306980Y-96234285D01*
X183306980Y-96043809D01*
X183259361Y-95948571D01*
X183211742Y-95900952D01*
X183116504Y-95853333D01*
X182878409Y-95853333D01*
X182783171Y-95900952D01*
X182735552Y-95948571D01*
X182687933Y-96043809D01*
X182687933Y-96234285D01*
X182735552Y-96329523D01*
X182783171Y-96377142D01*
X182878409Y-96424761D01*
X149642580Y-96853333D02*
X150356866Y-96853333D01*
X150499723Y-96900952D01*
X150594961Y-96996190D01*
X150642580Y-97139047D01*
X150642580Y-97234285D01*
X149642580Y-95900952D02*
X149642580Y-96377142D01*
X150118771Y-96424761D01*
X150071152Y-96377142D01*
X150023533Y-96281904D01*
X150023533Y-96043809D01*
X150071152Y-95948571D01*
X150118771Y-95900952D01*
X150214009Y-95853333D01*
X150452104Y-95853333D01*
X150547342Y-95900952D01*
X150594961Y-95948571D01*
X150642580Y-96043809D01*
X150642580Y-96281904D01*
X150594961Y-96377142D01*
X150547342Y-96424761D01*
X116978180Y-96853333D02*
X117692466Y-96853333D01*
X117835323Y-96900952D01*
X117930561Y-96996190D01*
X117978180Y-97139047D01*
X117978180Y-97234285D01*
X117311514Y-95948571D02*
X117978180Y-95948571D01*
X116930561Y-96186666D02*
X117644847Y-96424761D01*
X117644847Y-95805714D01*
X84313780Y-96853333D02*
X85028066Y-96853333D01*
X85170923Y-96900952D01*
X85266161Y-96996190D01*
X85313780Y-97139047D01*
X85313780Y-97234285D01*
X84313780Y-96472380D02*
X84313780Y-95853333D01*
X84694733Y-96186666D01*
X84694733Y-96043809D01*
X84742352Y-95948571D01*
X84789971Y-95900952D01*
X84885209Y-95853333D01*
X85123304Y-95853333D01*
X85218542Y-95900952D01*
X85266161Y-95948571D01*
X85313780Y-96043809D01*
X85313780Y-96329523D01*
X85266161Y-96424761D01*
X85218542Y-96472380D01*
X249896380Y-63833333D02*
X250610666Y-63833333D01*
X250753523Y-63880952D01*
X250848761Y-63976190D01*
X250896380Y-64119047D01*
X250896380Y-64214285D01*
X250896380Y-62833333D02*
X250896380Y-63404761D01*
X250896380Y-63119047D02*
X249896380Y-63119047D01*
X250039238Y-63214285D01*
X250134476Y-63309523D01*
X250182095Y-63404761D01*
M02*
