%TF.GenerationSoftware,KiCad,Pcbnew,(6.0.0-rc1-dev-882-gdbc9130da)*%
%TF.CreationDate,2019-08-28T17:07:57+08:00*%
%TF.ProjectId,AntennaSwitch_6x2_RelayBoard,416E74656E6E615377697463685F3678,rev?*%
%TF.SameCoordinates,Original*%
%TF.FileFunction,Copper,L2,Bot,Signal*%
%TF.FilePolarity,Positive*%
%FSLAX46Y46*%
G04 Gerber Fmt 4.6, Leading zero omitted, Abs format (unit mm)*
G04 Created by KiCad (PCBNEW (6.0.0-rc1-dev-882-gdbc9130da)) date 2019/8/28 17:07:57*
%MOMM*%
%LPD*%
G01*
G04 APERTURE LIST*
%ADD10C,0.254000*%
%ADD11C,3.000000*%
%ADD12C,0.800000*%
%ADD13C,7.500000*%
%ADD14C,6.000000*%
%ADD15R,1.500000X0.550000*%
%ADD16R,0.600000X1.550000*%
%ADD17R,2.000000X2.600000*%
%ADD18O,1.800000X2.600000*%
%ADD19O,2.000000X2.600000*%
%ADD20R,1.600000X1.600000*%
%ADD21C,1.600000*%
%ADD22C,1.000000*%
%ADD23C,1.200000*%
%ADD24C,0.508000*%
%ADD25C,1.016000*%
%ADD26C,0.381000*%
%ADD27C,0.203200*%
%ADD28C,4.000000*%
%ADD29C,0.350000*%
G04 APERTURE END LIST*
D10*
X72409142Y-53256571D02*
X72409142Y-51756571D01*
X71837714Y-51756571D01*
X71694857Y-51828000D01*
X71623428Y-51899428D01*
X71552000Y-52042285D01*
X71552000Y-52256571D01*
X71623428Y-52399428D01*
X71694857Y-52470857D01*
X71837714Y-52542285D01*
X72409142Y-52542285D01*
X70623428Y-51756571D02*
X70480571Y-51756571D01*
X70337714Y-51828000D01*
X70266285Y-51899428D01*
X70194857Y-52042285D01*
X70123428Y-52328000D01*
X70123428Y-52685142D01*
X70194857Y-52970857D01*
X70266285Y-53113714D01*
X70337714Y-53185142D01*
X70480571Y-53256571D01*
X70623428Y-53256571D01*
X70766285Y-53185142D01*
X70837714Y-53113714D01*
X70909142Y-52970857D01*
X70980571Y-52685142D01*
X70980571Y-52328000D01*
X70909142Y-52042285D01*
X70837714Y-51899428D01*
X70766285Y-51828000D01*
X70623428Y-51756571D01*
X69194857Y-51756571D02*
X69052000Y-51756571D01*
X68909142Y-51828000D01*
X68837714Y-51899428D01*
X68766285Y-52042285D01*
X68694857Y-52328000D01*
X68694857Y-52685142D01*
X68766285Y-52970857D01*
X68837714Y-53113714D01*
X68909142Y-53185142D01*
X69052000Y-53256571D01*
X69194857Y-53256571D01*
X69337714Y-53185142D01*
X69409142Y-53113714D01*
X69480571Y-52970857D01*
X69552000Y-52685142D01*
X69552000Y-52328000D01*
X69480571Y-52042285D01*
X69409142Y-51899428D01*
X69337714Y-51828000D01*
X69194857Y-51756571D01*
X67766285Y-51756571D02*
X67623428Y-51756571D01*
X67480571Y-51828000D01*
X67409142Y-51899428D01*
X67337714Y-52042285D01*
X67266285Y-52328000D01*
X67266285Y-52685142D01*
X67337714Y-52970857D01*
X67409142Y-53113714D01*
X67480571Y-53185142D01*
X67623428Y-53256571D01*
X67766285Y-53256571D01*
X67909142Y-53185142D01*
X67980571Y-53113714D01*
X68052000Y-52970857D01*
X68123428Y-52685142D01*
X68123428Y-52328000D01*
X68052000Y-52042285D01*
X67980571Y-51899428D01*
X67909142Y-51828000D01*
X67766285Y-51756571D01*
X65837714Y-53256571D02*
X66694857Y-53256571D01*
X66266285Y-53256571D02*
X66266285Y-51756571D01*
X66409142Y-51970857D01*
X66552000Y-52113714D01*
X66694857Y-52185142D01*
X65194857Y-52685142D02*
X64052000Y-52685142D01*
X63052000Y-51756571D02*
X62909142Y-51756571D01*
X62766285Y-51828000D01*
X62694857Y-51899428D01*
X62623428Y-52042285D01*
X62552000Y-52328000D01*
X62552000Y-52685142D01*
X62623428Y-52970857D01*
X62694857Y-53113714D01*
X62766285Y-53185142D01*
X62909142Y-53256571D01*
X63052000Y-53256571D01*
X63194857Y-53185142D01*
X63266285Y-53113714D01*
X63337714Y-52970857D01*
X63409142Y-52685142D01*
X63409142Y-52328000D01*
X63337714Y-52042285D01*
X63266285Y-51899428D01*
X63194857Y-51828000D01*
X63052000Y-51756571D01*
X61123428Y-53256571D02*
X61980571Y-53256571D01*
X61552000Y-53256571D02*
X61552000Y-51756571D01*
X61694857Y-51970857D01*
X61837714Y-52113714D01*
X61980571Y-52185142D01*
D11*
X180200300Y-89109500D03*
X180200300Y-99109500D03*
X172700300Y-94109500D03*
X180200300Y-114109500D03*
X172700300Y-114109500D03*
X180200300Y-94109500D03*
X172700300Y-89109500D03*
X172700300Y-99109500D03*
D12*
X55926000Y-85018430D03*
X58676000Y-85018430D03*
X60051000Y-87400000D03*
X58676000Y-89781570D03*
X55926000Y-89781570D03*
X54551000Y-87400000D03*
D13*
X57301000Y-87400000D03*
X66421000Y-96520000D03*
D12*
X52442930Y-138257000D03*
X52442930Y-135507000D03*
X54824500Y-134132000D03*
X57206070Y-135507000D03*
X57206070Y-138257000D03*
X54824500Y-139632000D03*
D13*
X54824500Y-136882000D03*
X63944500Y-127762000D03*
D12*
X219248000Y-85018430D03*
X221998000Y-85018430D03*
X223373000Y-87400000D03*
X221998000Y-89781570D03*
X219248000Y-89781570D03*
X217873000Y-87400000D03*
D13*
X220623000Y-87400000D03*
X229743000Y-96520000D03*
D12*
X186583600Y-85018430D03*
X189333600Y-85018430D03*
X190708600Y-87400000D03*
X189333600Y-89781570D03*
X186583600Y-89781570D03*
X185208600Y-87400000D03*
D13*
X187958600Y-87400000D03*
X197078600Y-96520000D03*
D12*
X153919200Y-85018430D03*
X156669200Y-85018430D03*
X158044200Y-87400000D03*
X156669200Y-89781570D03*
X153919200Y-89781570D03*
X152544200Y-87400000D03*
D13*
X155294200Y-87400000D03*
X164414200Y-96520000D03*
D12*
X121254800Y-85018430D03*
X124004800Y-85018430D03*
X125379800Y-87400000D03*
X124004800Y-89781570D03*
X121254800Y-89781570D03*
X119879800Y-87400000D03*
D13*
X122629800Y-87400000D03*
X131749800Y-96520000D03*
D12*
X88590400Y-85018430D03*
X91340400Y-85018430D03*
X92715400Y-87400000D03*
X91340400Y-89781570D03*
X88590400Y-89781570D03*
X87215400Y-87400000D03*
D13*
X89965400Y-87400000D03*
X99085400Y-96520000D03*
D12*
X246715000Y-75001570D03*
X243965000Y-75001570D03*
X242590000Y-72620000D03*
X243965000Y-70238430D03*
X246715000Y-70238430D03*
X248090000Y-72620000D03*
D13*
X245340000Y-72620000D03*
X236220000Y-63500000D03*
D12*
X247056810Y-148812500D03*
X247056810Y-151187500D03*
X245000000Y-152375000D03*
X242943190Y-151187500D03*
X242943190Y-148812500D03*
X245000000Y-147625000D03*
D14*
X245000000Y-150000000D03*
D12*
X57056810Y-53812500D03*
X57056810Y-56187500D03*
X55000000Y-57375000D03*
X52943190Y-56187500D03*
X52943190Y-53812500D03*
X55000000Y-52625000D03*
D14*
X55000000Y-55000000D03*
D11*
X242170000Y-132334000D03*
X232170000Y-132334000D03*
X237170000Y-124834000D03*
X217170000Y-132334000D03*
X217170000Y-124834000D03*
X237170000Y-132334000D03*
X242170000Y-124834000D03*
X232170000Y-124834000D03*
X110344000Y-132334000D03*
X100344000Y-132334000D03*
X105344000Y-124834000D03*
X85344000Y-132334000D03*
X85344000Y-124834000D03*
X105344000Y-132334000D03*
X110344000Y-124834000D03*
X100344000Y-124834000D03*
X144380000Y-69029924D03*
X134380000Y-69029924D03*
X139380000Y-61529924D03*
X119380000Y-69029924D03*
X119380000Y-61529924D03*
X139380000Y-69029924D03*
X144380000Y-61529924D03*
X134380000Y-61529924D03*
D15*
X182735200Y-153289000D03*
X182735200Y-152019000D03*
X182735200Y-150749000D03*
X182735200Y-149479000D03*
X182735200Y-148209000D03*
X182735200Y-146939000D03*
X182735200Y-145669000D03*
X177335200Y-145669000D03*
X177335200Y-146939000D03*
X177335200Y-148209000D03*
X177335200Y-149479000D03*
X177335200Y-150749000D03*
X177335200Y-152019000D03*
X177335200Y-153289000D03*
X144696200Y-145669000D03*
X144696200Y-146939000D03*
X144696200Y-148209000D03*
X144696200Y-149479000D03*
X144696200Y-150749000D03*
X144696200Y-152019000D03*
X144696200Y-153289000D03*
X150096200Y-153289000D03*
X150096200Y-152019000D03*
X150096200Y-150749000D03*
X150096200Y-149479000D03*
X150096200Y-148209000D03*
X150096200Y-146939000D03*
X150096200Y-145669000D03*
D16*
X173812200Y-146779000D03*
X172542200Y-146779000D03*
X171272200Y-146779000D03*
X170002200Y-146779000D03*
X168732200Y-146779000D03*
X167462200Y-146779000D03*
X166192200Y-146779000D03*
X164922200Y-146779000D03*
X164922200Y-152179000D03*
X166192200Y-152179000D03*
X167462200Y-152179000D03*
X168732200Y-152179000D03*
X170002200Y-152179000D03*
X171272200Y-152179000D03*
X172542200Y-152179000D03*
X173812200Y-152179000D03*
X162636200Y-146779000D03*
X161366200Y-146779000D03*
X160096200Y-146779000D03*
X158826200Y-146779000D03*
X157556200Y-146779000D03*
X156286200Y-146779000D03*
X155016200Y-146779000D03*
X153746200Y-146779000D03*
X153746200Y-152179000D03*
X155016200Y-152179000D03*
X156286200Y-152179000D03*
X157556200Y-152179000D03*
X158826200Y-152179000D03*
X160096200Y-152179000D03*
X161366200Y-152179000D03*
X162636200Y-152179000D03*
D11*
X209213500Y-132334000D03*
X199213500Y-132334000D03*
X204213500Y-124834000D03*
X184213500Y-132334000D03*
X184213500Y-124834000D03*
X204213500Y-132334000D03*
X209213500Y-124834000D03*
X199213500Y-124834000D03*
X176257000Y-132334000D03*
X166257000Y-132334000D03*
X171257000Y-124834000D03*
X151257000Y-132334000D03*
X151257000Y-124834000D03*
X171257000Y-132334000D03*
X176257000Y-124834000D03*
X166257000Y-124834000D03*
X143300500Y-132334000D03*
X133300500Y-132334000D03*
X138300500Y-124834000D03*
X118300500Y-132334000D03*
X118300500Y-124834000D03*
X138300500Y-132334000D03*
X143300500Y-124834000D03*
X133300500Y-124834000D03*
X71628000Y-145396000D03*
X71628000Y-135396000D03*
X79128000Y-140396000D03*
X71628000Y-120396000D03*
X79128000Y-120396000D03*
X71628000Y-140396000D03*
X79128000Y-145396000D03*
X79128000Y-135396000D03*
X245935500Y-89109500D03*
X245935500Y-99109500D03*
X238435500Y-94109500D03*
X245935500Y-114109500D03*
X238435500Y-114109500D03*
X245935500Y-94109500D03*
X238435500Y-89109500D03*
X238435500Y-99109500D03*
X213067900Y-89109500D03*
X213067900Y-99109500D03*
X205567900Y-94109500D03*
X213067900Y-114109500D03*
X205567900Y-114109500D03*
X213067900Y-94109500D03*
X205567900Y-89109500D03*
X205567900Y-99109500D03*
X147332700Y-89109500D03*
X147332700Y-99109500D03*
X139832700Y-94109500D03*
X147332700Y-114109500D03*
X139832700Y-114109500D03*
X147332700Y-94109500D03*
X139832700Y-89109500D03*
X139832700Y-99109500D03*
X114465100Y-89109500D03*
X114465100Y-99109500D03*
X106965100Y-94109500D03*
X114465100Y-114109500D03*
X106965100Y-114109500D03*
X114465100Y-94109500D03*
X106965100Y-89109500D03*
X106965100Y-99109500D03*
X81597500Y-89109500D03*
X81597500Y-99109500D03*
X74097500Y-94109500D03*
X81597500Y-114109500D03*
X74097500Y-114109500D03*
X81597500Y-94109500D03*
X74097500Y-89109500D03*
X74097500Y-99109500D03*
X223393000Y-53740000D03*
X223393000Y-63740000D03*
X215893000Y-58740000D03*
X223393000Y-78740000D03*
X215893000Y-78740000D03*
X223393000Y-58740000D03*
X215893000Y-53740000D03*
X215893000Y-63740000D03*
X208769000Y-69029924D03*
X198769000Y-69029924D03*
X203769000Y-61529924D03*
X183769000Y-69029924D03*
X183769000Y-61529924D03*
X203769000Y-69029924D03*
X208769000Y-61529924D03*
X198769000Y-61529924D03*
X176574500Y-69029924D03*
X166574500Y-69029924D03*
X171574500Y-61529924D03*
X151574500Y-69029924D03*
X151574500Y-61529924D03*
X171574500Y-69029924D03*
X176574500Y-61529924D03*
X166574500Y-61529924D03*
X112185500Y-69029924D03*
X102185500Y-69029924D03*
X107185500Y-61529924D03*
X87185500Y-69029924D03*
X87185500Y-61529924D03*
X107185500Y-69029924D03*
X112185500Y-61529924D03*
X102185500Y-61529924D03*
X79991000Y-69029924D03*
X69991000Y-69029924D03*
X74991000Y-61529924D03*
X54991000Y-69029924D03*
X54991000Y-61529924D03*
X74991000Y-69029924D03*
X79991000Y-61529924D03*
X69991000Y-61529924D03*
D17*
X188163200Y-149860000D03*
D18*
X190703200Y-149860000D03*
X193243200Y-149860000D03*
D19*
X195783200Y-149860000D03*
X198323200Y-149860000D03*
X200863200Y-149860000D03*
X203403200Y-149860000D03*
X205943200Y-149860000D03*
D17*
X121869200Y-149860000D03*
D19*
X124409200Y-149860000D03*
D18*
X126949200Y-149860000D03*
X129489200Y-149860000D03*
D19*
X132029200Y-149860000D03*
X134569200Y-149860000D03*
X137109200Y-149860000D03*
X139649200Y-149860000D03*
D20*
X116459000Y-151663400D03*
D21*
X116459000Y-149163400D03*
D20*
X110236000Y-151663400D03*
D21*
X110236000Y-149163400D03*
D22*
X96372310Y-128778000D03*
X163392646Y-148973556D03*
X152273000Y-151384000D03*
X148336000Y-152273000D03*
X163830000Y-151003000D03*
D12*
X175260000Y-146557990D03*
D23*
X54864000Y-152146000D03*
X80264000Y-125476000D03*
D11*
X214630000Y-107950000D03*
X96520000Y-68968000D03*
X96520000Y-62738000D03*
X64262000Y-68968000D03*
X64262000Y-61468000D03*
X226252076Y-124652076D03*
X193486076Y-124906076D03*
X160020000Y-124652076D03*
X96774000Y-121158000D03*
X75692000Y-129794000D03*
X219964000Y-73660000D03*
X128270000Y-68968000D03*
X128524000Y-62738000D03*
X160782000Y-68968000D03*
X160782000Y-61468000D03*
X193141600Y-61529924D03*
X193141600Y-69029924D03*
X216662000Y-69735514D03*
X129286002Y-121158000D03*
D23*
X245872000Y-106426000D03*
X228092000Y-88138000D03*
X225044000Y-114300000D03*
X222504000Y-119888000D03*
X217170000Y-119888000D03*
X220980000Y-104902000D03*
X183896000Y-119888000D03*
X186690000Y-105156000D03*
X153416000Y-119888000D03*
X121412000Y-105156000D03*
X120650000Y-120142000D03*
X54102000Y-105156000D03*
X54102000Y-110744000D03*
X59436000Y-110744000D03*
X83820000Y-119380000D03*
X95250000Y-103378000D03*
X62738000Y-148844000D03*
D11*
X54864000Y-145288000D03*
X247142000Y-57404000D03*
X181356000Y-76708000D03*
X196850000Y-87122000D03*
X150114000Y-77978000D03*
X164592000Y-86868000D03*
X122174000Y-76454000D03*
X132080000Y-86614000D03*
X89916000Y-79502000D03*
X99568000Y-86106000D03*
X67310000Y-78994000D03*
X84836000Y-75692000D03*
X75184000Y-108204000D03*
X64008000Y-118618000D03*
X155194000Y-105156000D03*
D23*
X153416000Y-119888000D03*
D11*
X153416000Y-119888000D03*
D23*
X186690000Y-105156000D03*
D11*
X186690000Y-105156000D03*
D23*
X183896000Y-119888000D03*
D11*
X183896000Y-119888000D03*
D23*
X220980000Y-104902000D03*
D11*
X220980000Y-104902000D03*
D23*
X217170000Y-119888000D03*
D11*
X217170000Y-119888000D03*
D23*
X222504000Y-119888000D03*
D11*
X222504000Y-119888000D03*
X225044000Y-114300000D03*
D23*
X245872000Y-106426000D03*
D11*
X245872000Y-106426000D03*
D23*
X121412000Y-105156000D03*
D11*
X121412000Y-105156000D03*
D23*
X120650000Y-120142000D03*
D11*
X120650000Y-120142000D03*
X180340000Y-106172000D03*
D23*
X75184000Y-120396000D03*
X59182000Y-148590000D03*
X54610000Y-129794000D03*
X56896000Y-129794000D03*
X54102000Y-116586000D03*
X59436000Y-116586000D03*
X58166000Y-101092000D03*
X63500000Y-106172000D03*
X67564000Y-109474000D03*
X71374000Y-109474000D03*
X67564000Y-116586000D03*
X56896000Y-125476000D03*
X59690000Y-121666000D03*
X68072000Y-121666000D03*
X71120000Y-125476000D03*
X71374000Y-129794000D03*
X247904000Y-119888000D03*
X247904000Y-130556000D03*
X247904000Y-142748000D03*
X214884000Y-152908000D03*
X239014000Y-152908000D03*
X74422000Y-42672000D03*
X88138000Y-42672000D03*
X110236000Y-42672000D03*
X129794000Y-42672000D03*
X157226000Y-42672000D03*
X182626000Y-42418000D03*
X215900000Y-42672000D03*
X246380000Y-42672000D03*
D22*
X81788000Y-135382000D03*
D12*
X95427800Y-133629400D03*
X98769612Y-147263369D03*
X98277597Y-148763431D03*
D22*
X107442000Y-109728000D03*
X95758000Y-107950000D03*
D12*
X128549400Y-133883400D03*
X128524000Y-129692400D03*
X128549400Y-127685800D03*
D22*
X128016000Y-106934000D03*
X140208000Y-107950000D03*
D12*
X162306000Y-127635000D03*
X162306000Y-129794000D03*
X161296390Y-133945345D03*
D22*
X176276000Y-108712000D03*
X161544008Y-107442000D03*
D12*
X187198000Y-127635000D03*
X187198000Y-129794000D03*
X180594000Y-133731000D03*
D22*
X208534000Y-109220000D03*
X194056000Y-106934000D03*
D12*
X219964000Y-127762000D03*
X219964000Y-129794000D03*
X213487000Y-133858000D03*
D22*
X240284001Y-108458001D03*
X226822000Y-106934000D03*
D12*
X82219800Y-132486400D03*
X127406400Y-132410200D03*
X160762990Y-132334000D03*
X148463000Y-149987000D03*
X153593800Y-149885400D03*
X148463000Y-148983797D03*
X152565327Y-149034169D03*
X173482000Y-148590000D03*
X175387000Y-149352000D03*
D24*
X89288000Y-128778000D02*
X95665204Y-128778000D01*
X95665204Y-128778000D02*
X96372310Y-128778000D01*
X85344000Y-124834000D02*
X89288000Y-128778000D01*
D25*
X114298001Y-147601399D02*
X110236000Y-151663400D01*
X117594599Y-147601399D02*
X114298001Y-147601399D01*
X119853200Y-149860000D02*
X117594599Y-147601399D01*
X121869200Y-149860000D02*
X119853200Y-149860000D01*
D26*
X153746200Y-147254000D02*
X155465756Y-148973556D01*
X164922200Y-146779000D02*
X164922200Y-147254000D01*
X155465756Y-148973556D02*
X162685540Y-148973556D01*
X164922200Y-147254000D02*
X163392646Y-148783554D01*
X153746200Y-146779000D02*
X153746200Y-147254000D01*
X162685540Y-148973556D02*
X163392646Y-148973556D01*
X163392646Y-148783554D02*
X163392646Y-148973556D01*
D25*
X54991000Y-61529924D02*
X51262010Y-65258914D01*
X53375999Y-132369999D02*
X57439999Y-132369999D01*
X51262010Y-130256010D02*
X53375999Y-132369999D01*
X61121999Y-136051999D02*
X61121999Y-149513999D01*
X57439999Y-132369999D02*
X61121999Y-136051999D01*
X63271400Y-151663400D02*
X110236000Y-151663400D01*
X61121999Y-149513999D02*
X63271400Y-151663400D01*
X51325510Y-114109500D02*
X51262010Y-114046000D01*
X74097500Y-114109500D02*
X51325510Y-114109500D01*
X51262010Y-65258914D02*
X51262010Y-114046000D01*
X51262010Y-114046000D02*
X51262010Y-130256010D01*
D26*
X155016200Y-152179000D02*
X153195000Y-152179000D01*
X153195000Y-152179000D02*
X152654000Y-151638000D01*
D24*
X155016200Y-152179000D02*
X153068000Y-152179000D01*
X153068000Y-152179000D02*
X152273000Y-151384000D01*
D27*
X148605200Y-152273000D02*
X148336000Y-152273000D01*
X149621200Y-153289000D02*
X148605200Y-152273000D01*
X150096200Y-153289000D02*
X149621200Y-153289000D01*
D24*
X166192200Y-152179000D02*
X164922200Y-152179000D01*
X164922200Y-152179000D02*
X164922200Y-152095200D01*
X164922200Y-152095200D02*
X163830000Y-151003000D01*
D10*
X175659999Y-146157991D02*
X175260000Y-146557990D01*
X177335200Y-145669000D02*
X176148990Y-145669000D01*
X176148990Y-145669000D02*
X175659999Y-146157991D01*
D27*
X127448248Y-151464810D02*
X128284390Y-150628668D01*
X125714010Y-151464810D02*
X127448248Y-151464810D01*
X124409200Y-149860000D02*
X124409200Y-150160000D01*
X124409200Y-150160000D02*
X125714010Y-151464810D01*
X144696200Y-145669000D02*
X131546600Y-145669000D01*
X128284390Y-148931210D02*
X128284390Y-150628668D01*
X131546600Y-145669000D02*
X128284390Y-148931210D01*
D25*
X124409200Y-150991602D02*
X124409200Y-149860000D01*
X123478801Y-151922001D02*
X124409200Y-150991602D01*
X118533601Y-151922001D02*
X123478801Y-151922001D01*
X118275000Y-151663400D02*
X118533601Y-151922001D01*
X116459000Y-151663400D02*
X118275000Y-151663400D01*
D27*
X181020000Y-154051000D02*
X181782000Y-153289000D01*
X167640000Y-154051000D02*
X181020000Y-154051000D01*
X166857399Y-150443565D02*
X166857399Y-153268399D01*
X144696200Y-145669000D02*
X148336000Y-145669000D01*
X148336000Y-145669000D02*
X148915801Y-146248801D01*
X181782000Y-153289000D02*
X182735200Y-153289000D01*
X166857399Y-153268399D02*
X167640000Y-154051000D01*
X148915801Y-146248801D02*
X151582801Y-146248801D01*
X151582801Y-146248801D02*
X155163166Y-149829166D01*
X155163166Y-149829166D02*
X166243000Y-149829166D01*
X166243000Y-149829166D02*
X166857399Y-150443565D01*
D28*
X208769000Y-69029924D02*
X208769000Y-61529924D01*
X176574500Y-69029924D02*
X176574500Y-61529924D01*
X144380000Y-69029924D02*
X144380000Y-61529924D01*
X112185500Y-69029924D02*
X112185500Y-61529924D01*
X79991000Y-69029924D02*
X79991000Y-61529924D01*
X110344000Y-132334000D02*
X110344000Y-124834000D01*
X143300500Y-132334000D02*
X143300500Y-124834000D01*
X176257000Y-132334000D02*
X176257000Y-124834000D01*
X209213500Y-132334000D02*
X209213500Y-124834000D01*
X242170000Y-132334000D02*
X242170000Y-124834000D01*
D10*
X143615999Y-145237190D02*
X143789390Y-145063799D01*
X148486999Y-145063799D02*
X149092200Y-145669000D01*
X149092200Y-145669000D02*
X150096200Y-145669000D01*
X143789390Y-145063799D02*
X148486999Y-145063799D01*
X131172010Y-145237190D02*
X143615999Y-145237190D01*
X126949200Y-149460000D02*
X131172010Y-145237190D01*
X126949200Y-149860000D02*
X126949200Y-149460000D01*
X129489200Y-149560000D02*
X129489200Y-149860000D01*
X132715401Y-146333799D02*
X129489200Y-149560000D01*
X147216999Y-146333799D02*
X132715401Y-146333799D01*
X149092200Y-148209000D02*
X147216999Y-146333799D01*
X150096200Y-148209000D02*
X149092200Y-148209000D01*
X134493401Y-152624201D02*
X132029200Y-150160000D01*
X132029200Y-150160000D02*
X132029200Y-149860000D01*
X146680915Y-152624201D02*
X134493401Y-152624201D01*
X148556116Y-150749000D02*
X146680915Y-152624201D01*
X150096200Y-150749000D02*
X148556116Y-150749000D01*
X134569200Y-150160000D02*
X134569200Y-149860000D01*
X136428200Y-152019000D02*
X134569200Y-150160000D01*
X144696200Y-152019000D02*
X136428200Y-152019000D01*
X137109200Y-150160000D02*
X137109200Y-149860000D01*
X138439410Y-151490210D02*
X137109200Y-150160000D01*
X140200191Y-151490210D02*
X138439410Y-151490210D01*
X142211401Y-149479000D02*
X140200191Y-151490210D01*
X144696200Y-149479000D02*
X142211401Y-149479000D01*
X143692200Y-146939000D02*
X144696200Y-146939000D01*
X142270200Y-146939000D02*
X143692200Y-146939000D01*
X139649200Y-149560000D02*
X142270200Y-146939000D01*
X139649200Y-149860000D02*
X139649200Y-149560000D01*
D27*
X188163200Y-150160000D02*
X186939200Y-151384000D01*
X188163200Y-149860000D02*
X188163200Y-150160000D01*
X186939200Y-151384000D02*
X180467000Y-151384000D01*
X178562000Y-153289000D02*
X177335200Y-153289000D01*
X180467000Y-151384000D02*
X178562000Y-153289000D01*
X178288400Y-150749000D02*
X177335200Y-150749000D01*
X190703200Y-149860000D02*
X190703200Y-149460000D01*
X186964551Y-148255199D02*
X185050551Y-150169199D01*
X190703200Y-149460000D02*
X189498399Y-148255199D01*
X179952498Y-150749000D02*
X178288400Y-150749000D01*
X180532299Y-150169199D02*
X179952498Y-150749000D01*
X189498399Y-148255199D02*
X186964551Y-148255199D01*
X185050551Y-150169199D02*
X180532299Y-150169199D01*
X193243200Y-149460000D02*
X191204789Y-147421589D01*
X193243200Y-149860000D02*
X193243200Y-149460000D01*
X185425050Y-147629199D02*
X180157801Y-147629199D01*
X185632660Y-147421589D02*
X185425050Y-147629199D01*
X178288400Y-148209000D02*
X177335200Y-148209000D01*
X180157801Y-147629199D02*
X179578000Y-148209000D01*
X179578000Y-148209000D02*
X178288400Y-148209000D01*
X191204789Y-147421589D02*
X185632660Y-147421589D01*
X183688400Y-146939000D02*
X182735200Y-146939000D01*
X194365400Y-146939000D02*
X183688400Y-146939000D01*
X195783200Y-148356800D02*
X194365400Y-146939000D01*
X195783200Y-149860000D02*
X195783200Y-148356800D01*
X185120807Y-149479000D02*
X182735200Y-149479000D01*
X186771807Y-147828000D02*
X185120807Y-149479000D01*
X190775058Y-147828000D02*
X186771807Y-147828000D01*
X198323200Y-149860000D02*
X198323200Y-150160000D01*
X198323200Y-150160000D02*
X197018390Y-151464810D01*
X197018390Y-151464810D02*
X192358810Y-151464810D01*
X192358810Y-151464810D02*
X192024000Y-151130000D01*
X192024000Y-151130000D02*
X192024000Y-149076942D01*
X192024000Y-149076942D02*
X190775058Y-147828000D01*
X183688400Y-152019000D02*
X182735200Y-152019000D01*
X200207400Y-152019000D02*
X183688400Y-152019000D01*
X200863200Y-151363200D02*
X200207400Y-152019000D01*
X200863200Y-149860000D02*
X200863200Y-151363200D01*
D28*
X74991000Y-61529924D02*
X74991000Y-69029924D01*
D27*
X96382244Y-149976244D02*
X82287999Y-135881999D01*
X99186650Y-149976244D02*
X96382244Y-149976244D01*
X103043471Y-146119423D02*
X99186650Y-149976244D01*
X156286200Y-146779000D02*
X156286200Y-146304000D01*
X156286200Y-146304000D02*
X154508255Y-144526055D01*
X82287999Y-135881999D02*
X81788000Y-135382000D01*
X154508255Y-144526055D02*
X130082723Y-144526055D01*
X130082723Y-144526055D02*
X128489356Y-146119423D01*
X128489356Y-146119423D02*
X103043471Y-146119423D01*
D28*
X107185500Y-61529924D02*
X107185500Y-69029924D01*
D27*
X156133833Y-143611633D02*
X158826200Y-146304000D01*
X128624062Y-144691531D02*
X129703959Y-143611633D01*
X129703959Y-143611633D02*
X156133833Y-143611633D01*
X158826200Y-146304000D02*
X158826200Y-146779000D01*
X111733061Y-144691531D02*
X111517990Y-144906602D01*
X112649000Y-144691531D02*
X111733061Y-144691531D01*
X112649000Y-144691531D02*
X128624062Y-144691531D01*
D10*
X102927184Y-144906602D02*
X99070355Y-148763431D01*
D26*
X98369613Y-146863370D02*
X98769612Y-147263369D01*
D10*
X98843282Y-148763431D02*
X98277597Y-148763431D01*
D26*
X95427800Y-143921557D02*
X98369613Y-146863370D01*
D10*
X99070355Y-148763431D02*
X98843282Y-148763431D01*
D26*
X95427800Y-133629400D02*
X95427800Y-143921557D01*
D10*
X111517990Y-144906602D02*
X102927184Y-144906602D01*
D24*
X107442000Y-109728000D02*
X105664000Y-107950000D01*
X96465106Y-107950000D02*
X95758000Y-107950000D01*
X105664000Y-107950000D02*
X96465106Y-107950000D01*
D28*
X139380000Y-61529924D02*
X139380000Y-69029924D01*
D27*
X128549400Y-129667000D02*
X128524000Y-129692400D01*
X128549400Y-127685800D02*
X128549400Y-129667000D01*
X128549400Y-141122400D02*
X128549400Y-133883400D01*
X130124211Y-142697211D02*
X128549400Y-141122400D01*
X158262611Y-142697211D02*
X130124211Y-142697211D01*
X161366200Y-145800800D02*
X158262611Y-142697211D01*
X161366200Y-146779000D02*
X161366200Y-145800800D01*
D24*
X129032000Y-107950000D02*
X139500894Y-107950000D01*
X139500894Y-107950000D02*
X140208000Y-107950000D01*
X128016000Y-106934000D02*
X129032000Y-107950000D01*
D28*
X171574500Y-61529924D02*
X171574500Y-69029924D01*
D10*
X162306000Y-127635000D02*
X162306000Y-129794000D01*
D27*
X161296390Y-142765983D02*
X161296390Y-133945345D01*
X162807218Y-144276811D02*
X161296390Y-142765983D01*
X165938211Y-144276811D02*
X162807218Y-144276811D01*
X167462200Y-145800800D02*
X165938211Y-144276811D01*
X167462200Y-146779000D02*
X167462200Y-145800800D01*
D24*
X176276000Y-108712000D02*
X175006000Y-107442000D01*
X162251114Y-107442000D02*
X161544008Y-107442000D01*
X175006000Y-107442000D02*
X162251114Y-107442000D01*
D28*
X203769000Y-61529924D02*
X203769000Y-69029924D01*
D27*
X187198000Y-127635000D02*
X187198000Y-128200685D01*
X187198000Y-128200685D02*
X187198000Y-129794000D01*
X180594000Y-133731000D02*
X180594000Y-134296685D01*
X170002200Y-144819208D02*
X170002200Y-145800800D01*
X170002200Y-145800800D02*
X170002200Y-146779000D01*
X172581408Y-142240000D02*
X170002200Y-144819208D01*
X180721000Y-140704408D02*
X179185408Y-142240000D01*
X180721000Y-134423685D02*
X180721000Y-140704408D01*
X180594000Y-134296685D02*
X180721000Y-134423685D01*
X179185408Y-142240000D02*
X172581408Y-142240000D01*
D24*
X206248000Y-106934000D02*
X194763106Y-106934000D01*
X208534000Y-109220000D02*
X206248000Y-106934000D01*
X194763106Y-106934000D02*
X194056000Y-106934000D01*
D27*
X219964000Y-127762000D02*
X219964000Y-129794000D01*
X174833000Y-143510000D02*
X172542200Y-145800800D01*
X172542200Y-145800800D02*
X172542200Y-146779000D01*
X211189408Y-143510000D02*
X174833000Y-143510000D01*
X212902789Y-141796619D02*
X211189408Y-143510000D01*
X212902789Y-134442211D02*
X212902789Y-141796619D01*
X213487000Y-133858000D02*
X212902789Y-134442211D01*
D24*
X227529106Y-106934000D02*
X226822000Y-106934000D01*
X240284001Y-108458001D02*
X238760000Y-106934000D01*
X238760000Y-106934000D02*
X227529106Y-106934000D01*
D28*
X71628000Y-140396000D02*
X79128000Y-140396000D01*
X105344000Y-132334000D02*
X105344000Y-124834000D01*
X138300500Y-132334000D02*
X138300500Y-124834000D01*
X171257000Y-132334000D02*
X171257000Y-124834000D01*
X204213500Y-132334000D02*
X204213500Y-124834000D01*
X237170000Y-124834000D02*
X237170000Y-132334000D01*
D27*
X82219800Y-132486400D02*
X97521995Y-147788595D01*
X97914907Y-149519033D02*
X98997268Y-149519033D01*
X98997268Y-149519033D02*
X102854089Y-145662212D01*
X129893342Y-144068844D02*
X155321044Y-144068844D01*
X157556200Y-146304000D02*
X157556200Y-146779000D01*
X97521995Y-149126121D02*
X97914907Y-149519033D01*
X128299974Y-145662212D02*
X129893342Y-144068844D01*
X155321044Y-144068844D02*
X157556200Y-146304000D01*
X102854089Y-145662212D02*
X128299974Y-145662212D01*
X97521995Y-147788595D02*
X97521995Y-149126121D01*
X160096200Y-146304000D02*
X160096200Y-146779000D01*
X85344000Y-132334000D02*
X85344000Y-134956047D01*
X156946622Y-143154422D02*
X160096200Y-146304000D01*
X103996849Y-143154422D02*
X156946622Y-143154422D01*
X99132301Y-148018970D02*
X103996849Y-143154422D01*
X98406923Y-148018970D02*
X99132301Y-148018970D01*
X85344000Y-134956047D02*
X98406923Y-148018970D01*
X128498600Y-132410200D02*
X127972085Y-132410200D01*
X129362200Y-133273800D02*
X128498600Y-132410200D01*
X127972085Y-132410200D02*
X127406400Y-132410200D01*
X162636200Y-145800800D02*
X159075400Y-142240000D01*
X162636200Y-146779000D02*
X162636200Y-145800800D01*
X130886200Y-142240000D02*
X129362200Y-140716000D01*
X159075400Y-142240000D02*
X130886200Y-142240000D01*
X129362200Y-140716000D02*
X129362200Y-133273800D01*
X161544000Y-132334000D02*
X160762990Y-132334000D01*
X168732200Y-145800800D02*
X166751000Y-143819600D01*
X166751000Y-143819600D02*
X162996600Y-143819600D01*
X162996600Y-143819600D02*
X162052000Y-142875000D01*
X168732200Y-146779000D02*
X168732200Y-145800800D01*
X162052000Y-142875000D02*
X162052000Y-132842000D01*
X162052000Y-132842000D02*
X161544000Y-132334000D01*
X182713501Y-133833999D02*
X182015001Y-133833999D01*
X184213500Y-132334000D02*
X182713501Y-133833999D01*
X182015001Y-133833999D02*
X181356000Y-134493000D01*
X181356000Y-134493000D02*
X181356000Y-140716000D01*
X181356000Y-140716000D02*
X179324000Y-142748000D01*
X179324000Y-142748000D02*
X172974000Y-142748000D01*
X171272200Y-144449800D02*
X171272200Y-146779000D01*
X172974000Y-142748000D02*
X171272200Y-144449800D01*
X173812200Y-145592800D02*
X173812200Y-146779000D01*
X175387000Y-144018000D02*
X173812200Y-145592800D01*
X215670001Y-133833999D02*
X214654001Y-133833999D01*
X217170000Y-132334000D02*
X215670001Y-133833999D01*
X214654001Y-133833999D02*
X213360000Y-135128000D01*
X213360000Y-135128000D02*
X213360000Y-141986000D01*
X213360000Y-141986000D02*
X211328000Y-144018000D01*
X211328000Y-144018000D02*
X175387000Y-144018000D01*
X151860525Y-149347905D02*
X153561019Y-151048399D01*
X150571200Y-146939000D02*
X151860525Y-148228325D01*
X151860525Y-148228325D02*
X151860525Y-149347905D01*
X156286200Y-151704000D02*
X156286200Y-152179000D01*
X155630599Y-151048399D02*
X156286200Y-151704000D01*
X150096200Y-146939000D02*
X150571200Y-146939000D01*
X153561019Y-151048399D02*
X155630599Y-151048399D01*
X157556200Y-152654000D02*
X157556200Y-152179000D01*
X150096200Y-149479000D02*
X151049400Y-149479000D01*
X151049400Y-149479000D02*
X151384000Y-149813600D01*
X151384000Y-149813600D02*
X151384000Y-152019000D01*
X151384000Y-152019000D02*
X152674601Y-153309601D01*
X152674601Y-153309601D02*
X156900599Y-153309601D01*
X156900599Y-153309601D02*
X157556200Y-152654000D01*
X157764188Y-153716012D02*
X158826200Y-152654000D01*
X158826200Y-152654000D02*
X158826200Y-152179000D01*
X152268212Y-153716012D02*
X157764188Y-153716012D01*
X150571200Y-152019000D02*
X152268212Y-153716012D01*
X150096200Y-152019000D02*
X150571200Y-152019000D01*
X160096200Y-152654000D02*
X160096200Y-152179000D01*
X158627777Y-154122423D02*
X160096200Y-152654000D01*
X146482823Y-154122423D02*
X158627777Y-154122423D01*
X145649400Y-153289000D02*
X146482823Y-154122423D01*
X144696200Y-153289000D02*
X145649400Y-153289000D01*
X144696200Y-150749000D02*
X147701000Y-150749000D01*
X147701000Y-150749000D02*
X148463000Y-149987000D01*
X161366200Y-151704000D02*
X161366200Y-152179000D01*
X160304188Y-150641988D02*
X161366200Y-151704000D01*
X153593800Y-149885400D02*
X154350388Y-150641988D01*
X154350388Y-150641988D02*
X160304188Y-150641988D01*
X144696200Y-148209000D02*
X147688203Y-148209000D01*
X147688203Y-148209000D02*
X148463000Y-148983797D01*
X162636200Y-152179000D02*
X162636200Y-151704000D01*
X161167777Y-150235577D02*
X154994826Y-150235577D01*
X162636200Y-151704000D02*
X161167777Y-150235577D01*
X153793419Y-149034169D02*
X153131012Y-149034169D01*
X154994826Y-150235577D02*
X153793419Y-149034169D01*
X153131012Y-149034169D02*
X152565327Y-149034169D01*
X174756411Y-153644589D02*
X168452789Y-153644589D01*
X168452789Y-153644589D02*
X167462200Y-152654000D01*
X176382000Y-152019000D02*
X174756411Y-153644589D01*
X167462200Y-152654000D02*
X167462200Y-152179000D01*
X177335200Y-152019000D02*
X176382000Y-152019000D01*
X168732200Y-151704000D02*
X171719200Y-148717000D01*
X168732200Y-152179000D02*
X168732200Y-151704000D01*
X171719200Y-148717000D02*
X173355000Y-148717000D01*
X173355000Y-148717000D02*
X173482000Y-148590000D01*
X177208200Y-149352000D02*
X177335200Y-149479000D01*
X175387000Y-149352000D02*
X177208200Y-149352000D01*
X177335200Y-146939000D02*
X176251292Y-146939000D01*
X170002200Y-151704000D02*
X170002200Y-152179000D01*
X173819965Y-149301178D02*
X172405022Y-149301178D01*
X175553541Y-147567602D02*
X173819965Y-149301178D01*
X176251292Y-146939000D02*
X175622690Y-147567602D01*
X175622690Y-147567602D02*
X175553541Y-147567602D01*
X172405022Y-149301178D02*
X170002200Y-151704000D01*
X173988305Y-149707589D02*
X175721881Y-147974013D01*
X181782000Y-145669000D02*
X182735200Y-145669000D01*
X171272200Y-152179000D02*
X171272200Y-151704000D01*
X175791030Y-147974013D02*
X176246242Y-147518801D01*
X171272200Y-151704000D02*
X173268611Y-149707589D01*
X179693449Y-147518801D02*
X181543250Y-145669000D01*
X181543250Y-145669000D02*
X181782000Y-145669000D01*
X173268611Y-149707589D02*
X173988305Y-149707589D01*
X176246242Y-147518801D02*
X179693449Y-147518801D01*
X175721881Y-147974013D02*
X175791030Y-147974013D01*
X172542200Y-151704000D02*
X172542200Y-152179000D01*
X174132200Y-150114000D02*
X172542200Y-151704000D01*
X181229000Y-148209000D02*
X179324000Y-150114000D01*
X182735200Y-148209000D02*
X181229000Y-148209000D01*
X179324000Y-150114000D02*
X174132200Y-150114000D01*
X175165599Y-151328801D02*
X179947449Y-151328801D01*
X180527250Y-150749000D02*
X181782000Y-150749000D01*
X181782000Y-150749000D02*
X182735200Y-150749000D01*
X173812200Y-152179000D02*
X174315400Y-152179000D01*
X179947449Y-151328801D02*
X180527250Y-150749000D01*
X174315400Y-152179000D02*
X175165599Y-151328801D01*
D24*
G36*
X248738001Y-153738000D02*
X212090000Y-153738000D01*
X212090000Y-144477313D01*
X213910514Y-142656800D01*
X213982620Y-142608620D01*
X214173493Y-142322960D01*
X214223600Y-142071053D01*
X214223600Y-142071049D01*
X214240517Y-141986000D01*
X248738001Y-141986000D01*
X248738001Y-153738000D01*
X248738001Y-153738000D01*
G37*
X248738001Y-153738000D02*
X212090000Y-153738000D01*
X212090000Y-144477313D01*
X213910514Y-142656800D01*
X213982620Y-142608620D01*
X214173493Y-142322960D01*
X214223600Y-142071053D01*
X214223600Y-142071049D01*
X214240517Y-141986000D01*
X248738001Y-141986000D01*
X248738001Y-153738000D01*
D10*
G36*
X52488173Y-133098619D02*
X52551942Y-133194056D01*
X52930023Y-133446681D01*
X53263427Y-133512999D01*
X53263428Y-133512999D01*
X53375999Y-133535391D01*
X53488570Y-133512999D01*
X56966554Y-133512999D01*
X59978999Y-136525445D01*
X59979000Y-149401423D01*
X59956607Y-149513999D01*
X60040360Y-149935048D01*
X60045318Y-149959975D01*
X60297943Y-150338056D01*
X60393379Y-150401824D01*
X62383574Y-152392020D01*
X62447343Y-152487457D01*
X62825424Y-152740082D01*
X63158828Y-152806400D01*
X63271399Y-152828792D01*
X63383970Y-152806400D01*
X100233448Y-152806400D01*
X100214261Y-153669812D01*
X100158067Y-153865000D01*
X51135000Y-153865000D01*
X51135000Y-151900343D01*
X53629000Y-151900343D01*
X53629000Y-152391657D01*
X53817018Y-152845571D01*
X54164429Y-153192982D01*
X54618343Y-153381000D01*
X55109657Y-153381000D01*
X55563571Y-153192982D01*
X55910982Y-152845571D01*
X56099000Y-152391657D01*
X56099000Y-151900343D01*
X55910982Y-151446429D01*
X55563571Y-151099018D01*
X55109657Y-150911000D01*
X54618343Y-150911000D01*
X54164429Y-151099018D01*
X53817018Y-151446429D01*
X53629000Y-151900343D01*
X51135000Y-151900343D01*
X51135000Y-131745445D01*
X52488173Y-133098619D01*
X52488173Y-133098619D01*
G37*
X52488173Y-133098619D02*
X52551942Y-133194056D01*
X52930023Y-133446681D01*
X53263427Y-133512999D01*
X53263428Y-133512999D01*
X53375999Y-133535391D01*
X53488570Y-133512999D01*
X56966554Y-133512999D01*
X59978999Y-136525445D01*
X59979000Y-149401423D01*
X59956607Y-149513999D01*
X60040360Y-149935048D01*
X60045318Y-149959975D01*
X60297943Y-150338056D01*
X60393379Y-150401824D01*
X62383574Y-152392020D01*
X62447343Y-152487457D01*
X62825424Y-152740082D01*
X63158828Y-152806400D01*
X63271399Y-152828792D01*
X63383970Y-152806400D01*
X100233448Y-152806400D01*
X100214261Y-153669812D01*
X100158067Y-153865000D01*
X51135000Y-153865000D01*
X51135000Y-151900343D01*
X53629000Y-151900343D01*
X53629000Y-152391657D01*
X53817018Y-152845571D01*
X54164429Y-153192982D01*
X54618343Y-153381000D01*
X55109657Y-153381000D01*
X55563571Y-153192982D01*
X55910982Y-152845571D01*
X56099000Y-152391657D01*
X56099000Y-151900343D01*
X55910982Y-151446429D01*
X55563571Y-151099018D01*
X55109657Y-150911000D01*
X54618343Y-150911000D01*
X54164429Y-151099018D01*
X53817018Y-151446429D01*
X53629000Y-151900343D01*
X51135000Y-151900343D01*
X51135000Y-131745445D01*
X52488173Y-133098619D01*
G36*
X248865000Y-88010695D02*
X248586443Y-87338197D01*
X247706803Y-86458557D01*
X246557499Y-85982500D01*
X245313501Y-85982500D01*
X244164197Y-86458557D01*
X243284557Y-87338197D01*
X242808500Y-88487501D01*
X242808500Y-89731499D01*
X243284557Y-90880803D01*
X244013254Y-91609500D01*
X243284557Y-92338197D01*
X242808500Y-93487501D01*
X242808500Y-94731499D01*
X243284557Y-95880803D01*
X244013254Y-96609500D01*
X243284557Y-97338197D01*
X242808500Y-98487501D01*
X242808500Y-99731499D01*
X243284557Y-100880803D01*
X244164197Y-101760443D01*
X245313501Y-102236500D01*
X246557499Y-102236500D01*
X247706803Y-101760443D01*
X248586443Y-100880803D01*
X248865001Y-100208305D01*
X248865001Y-142562142D01*
X248859729Y-142567394D01*
X248659173Y-142621000D01*
X213766710Y-142621000D01*
X213829560Y-142558150D01*
X213891058Y-142517058D01*
X213932149Y-142455561D01*
X213932151Y-142455559D01*
X214053861Y-142273407D01*
X214060506Y-142239999D01*
X214096600Y-142058544D01*
X214096600Y-142058541D01*
X214111029Y-141986000D01*
X214096600Y-141913460D01*
X214096600Y-135433109D01*
X214959111Y-134570599D01*
X215597461Y-134570599D01*
X215670001Y-134585028D01*
X215742541Y-134570599D01*
X215742545Y-134570599D01*
X215957408Y-134527860D01*
X216201059Y-134365057D01*
X216242152Y-134303557D01*
X216272541Y-134273168D01*
X216745322Y-134469000D01*
X217594678Y-134469000D01*
X218379380Y-134143966D01*
X218979966Y-133543380D01*
X219305000Y-132758678D01*
X219305000Y-131909322D01*
X218979966Y-131124620D01*
X218379380Y-130524034D01*
X217594678Y-130199000D01*
X216745322Y-130199000D01*
X215960620Y-130524034D01*
X215360034Y-131124620D01*
X215035000Y-131909322D01*
X215035000Y-132758678D01*
X215175303Y-133097399D01*
X214726541Y-133097399D01*
X214654001Y-133082970D01*
X214581460Y-133097399D01*
X214581457Y-133097399D01*
X214372315Y-133139000D01*
X214366594Y-133140138D01*
X214286420Y-133193709D01*
X214073280Y-132980569D01*
X213692874Y-132823000D01*
X213281126Y-132823000D01*
X212900720Y-132980569D01*
X212753703Y-133127586D01*
X212840500Y-132691227D01*
X212840500Y-127556126D01*
X218929000Y-127556126D01*
X218929000Y-127967874D01*
X219086569Y-128348280D01*
X219227400Y-128489111D01*
X219227401Y-129066888D01*
X219086569Y-129207720D01*
X218929000Y-129588126D01*
X218929000Y-129999874D01*
X219086569Y-130380280D01*
X219377720Y-130671431D01*
X219758126Y-130829000D01*
X220169874Y-130829000D01*
X220550280Y-130671431D01*
X220841431Y-130380280D01*
X220999000Y-129999874D01*
X220999000Y-129588126D01*
X220841431Y-129207720D01*
X220700600Y-129066889D01*
X220700600Y-128489111D01*
X220841431Y-128348280D01*
X220999000Y-127967874D01*
X220999000Y-127556126D01*
X220841431Y-127175720D01*
X220550280Y-126884569D01*
X220169874Y-126727000D01*
X219758126Y-126727000D01*
X219377720Y-126884569D01*
X219086569Y-127175720D01*
X218929000Y-127556126D01*
X212840500Y-127556126D01*
X212840500Y-124476773D01*
X212827084Y-124409322D01*
X215035000Y-124409322D01*
X215035000Y-125258678D01*
X215360034Y-126043380D01*
X215960620Y-126643966D01*
X216745322Y-126969000D01*
X217594678Y-126969000D01*
X218379380Y-126643966D01*
X218979966Y-126043380D01*
X219305000Y-125258678D01*
X219305000Y-124476774D01*
X233543000Y-124476774D01*
X233543001Y-132691227D01*
X233753442Y-133749185D01*
X234555080Y-134948921D01*
X235754816Y-135750559D01*
X237170000Y-136032057D01*
X238585185Y-135750559D01*
X239670000Y-135025709D01*
X240754815Y-135750559D01*
X242170000Y-136032057D01*
X243585184Y-135750559D01*
X244784921Y-134948921D01*
X245586559Y-133749185D01*
X245797000Y-132691227D01*
X245797000Y-124476773D01*
X245586559Y-123418815D01*
X244784921Y-122219079D01*
X243585185Y-121417441D01*
X242170000Y-121135943D01*
X240754816Y-121417441D01*
X239670000Y-122142292D01*
X238585184Y-121417441D01*
X237170000Y-121135943D01*
X235754815Y-121417441D01*
X234555079Y-122219079D01*
X233753441Y-123418816D01*
X233543000Y-124476774D01*
X219305000Y-124476774D01*
X219305000Y-124409322D01*
X218979966Y-123624620D01*
X218379380Y-123024034D01*
X217594678Y-122699000D01*
X216745322Y-122699000D01*
X215960620Y-123024034D01*
X215360034Y-123624620D01*
X215035000Y-124409322D01*
X212827084Y-124409322D01*
X212630059Y-123418815D01*
X211828421Y-122219079D01*
X210628685Y-121417441D01*
X209213500Y-121135943D01*
X207798316Y-121417441D01*
X206713501Y-122142292D01*
X205628685Y-121417441D01*
X204213500Y-121135943D01*
X202798316Y-121417441D01*
X201598580Y-122219079D01*
X200796942Y-123418815D01*
X200586501Y-124476773D01*
X200586500Y-132691226D01*
X200796941Y-133749184D01*
X201598579Y-134948921D01*
X202798315Y-135750559D01*
X204213500Y-136032057D01*
X205628684Y-135750559D01*
X206713500Y-135025709D01*
X207798315Y-135750559D01*
X209213500Y-136032057D01*
X210628684Y-135750559D01*
X211828421Y-134948921D01*
X212155255Y-134459780D01*
X212166189Y-134514751D01*
X212166190Y-141491508D01*
X211036699Y-142621000D01*
X180492709Y-142621000D01*
X181825560Y-141288150D01*
X181887058Y-141247058D01*
X181928149Y-141185561D01*
X181928151Y-141185559D01*
X182049861Y-141003407D01*
X182052167Y-140991815D01*
X182092600Y-140788544D01*
X182092600Y-140788541D01*
X182107029Y-140716000D01*
X182092600Y-140643460D01*
X182092600Y-134798109D01*
X182320111Y-134570599D01*
X182640961Y-134570599D01*
X182713501Y-134585028D01*
X182786041Y-134570599D01*
X182786045Y-134570599D01*
X183000908Y-134527860D01*
X183244559Y-134365057D01*
X183285652Y-134303557D01*
X183316041Y-134273168D01*
X183788822Y-134469000D01*
X184638178Y-134469000D01*
X185422880Y-134143966D01*
X186023466Y-133543380D01*
X186348500Y-132758678D01*
X186348500Y-131909322D01*
X186023466Y-131124620D01*
X185422880Y-130524034D01*
X184638178Y-130199000D01*
X183788822Y-130199000D01*
X183004120Y-130524034D01*
X182403534Y-131124620D01*
X182078500Y-131909322D01*
X182078500Y-132758678D01*
X182218803Y-133097399D01*
X182087541Y-133097399D01*
X182015000Y-133082970D01*
X181942460Y-133097399D01*
X181942457Y-133097399D01*
X181733315Y-133139000D01*
X181727594Y-133140138D01*
X181545442Y-133261848D01*
X181545440Y-133261850D01*
X181525474Y-133275191D01*
X181471431Y-133144720D01*
X181180280Y-132853569D01*
X180799874Y-132696000D01*
X180388126Y-132696000D01*
X180007720Y-132853569D01*
X179812970Y-133048319D01*
X179884000Y-132691227D01*
X179884000Y-127429126D01*
X186163000Y-127429126D01*
X186163000Y-127840874D01*
X186320569Y-128221280D01*
X186461400Y-128362111D01*
X186461401Y-129066888D01*
X186320569Y-129207720D01*
X186163000Y-129588126D01*
X186163000Y-129999874D01*
X186320569Y-130380280D01*
X186611720Y-130671431D01*
X186992126Y-130829000D01*
X187403874Y-130829000D01*
X187784280Y-130671431D01*
X188075431Y-130380280D01*
X188233000Y-129999874D01*
X188233000Y-129588126D01*
X188075431Y-129207720D01*
X187934600Y-129066889D01*
X187934600Y-128362111D01*
X188075431Y-128221280D01*
X188233000Y-127840874D01*
X188233000Y-127429126D01*
X188075431Y-127048720D01*
X187784280Y-126757569D01*
X187403874Y-126600000D01*
X186992126Y-126600000D01*
X186611720Y-126757569D01*
X186320569Y-127048720D01*
X186163000Y-127429126D01*
X179884000Y-127429126D01*
X179884000Y-124476773D01*
X179870584Y-124409322D01*
X182078500Y-124409322D01*
X182078500Y-125258678D01*
X182403534Y-126043380D01*
X183004120Y-126643966D01*
X183788822Y-126969000D01*
X184638178Y-126969000D01*
X185422880Y-126643966D01*
X186023466Y-126043380D01*
X186348500Y-125258678D01*
X186348500Y-124409322D01*
X186023466Y-123624620D01*
X185422880Y-123024034D01*
X184638178Y-122699000D01*
X183788822Y-122699000D01*
X183004120Y-123024034D01*
X182403534Y-123624620D01*
X182078500Y-124409322D01*
X179870584Y-124409322D01*
X179673559Y-123418815D01*
X178871921Y-122219079D01*
X177672185Y-121417441D01*
X176257000Y-121135943D01*
X174841816Y-121417441D01*
X173757001Y-122142292D01*
X172672185Y-121417441D01*
X171257000Y-121135943D01*
X169841816Y-121417441D01*
X168642080Y-122219079D01*
X167840442Y-123418815D01*
X167630001Y-124476773D01*
X167630000Y-132691226D01*
X167840441Y-133749184D01*
X168642079Y-134948921D01*
X169841815Y-135750559D01*
X171257000Y-136032057D01*
X172672184Y-135750559D01*
X173757000Y-135025709D01*
X174841815Y-135750559D01*
X176257000Y-136032057D01*
X177672184Y-135750559D01*
X178871921Y-134948921D01*
X179559000Y-133920635D01*
X179559000Y-133936874D01*
X179716569Y-134317280D01*
X179879470Y-134480181D01*
X179900139Y-134584092D01*
X179916402Y-134608431D01*
X179984400Y-134710197D01*
X179984401Y-140399297D01*
X178880299Y-141503400D01*
X172653948Y-141503400D01*
X172581408Y-141488971D01*
X172508867Y-141503400D01*
X172508864Y-141503400D01*
X172294001Y-141546139D01*
X172111849Y-141667849D01*
X172111847Y-141667851D01*
X172050350Y-141708942D01*
X172009259Y-141770440D01*
X171158699Y-142621000D01*
X162839709Y-142621000D01*
X162788600Y-142569891D01*
X162788600Y-132914538D01*
X162803029Y-132841999D01*
X162788600Y-132769460D01*
X162788600Y-132769456D01*
X162745861Y-132554593D01*
X162583058Y-132310942D01*
X162521558Y-132269849D01*
X162116151Y-131864442D01*
X162075058Y-131802942D01*
X161831407Y-131640139D01*
X161616544Y-131597400D01*
X161616540Y-131597400D01*
X161544000Y-131582971D01*
X161487008Y-131594307D01*
X161349270Y-131456569D01*
X160968864Y-131299000D01*
X160557116Y-131299000D01*
X160176710Y-131456569D01*
X159885559Y-131747720D01*
X159727990Y-132128126D01*
X159727990Y-132539874D01*
X159885559Y-132920280D01*
X160176710Y-133211431D01*
X160452399Y-133325625D01*
X160418959Y-133359065D01*
X160261390Y-133739471D01*
X160261390Y-134151219D01*
X160418959Y-134531625D01*
X160559791Y-134672457D01*
X160559790Y-142621000D01*
X160498109Y-142621000D01*
X159647550Y-141770441D01*
X159606458Y-141708942D01*
X159362807Y-141546139D01*
X159147944Y-141503400D01*
X159147940Y-141503400D01*
X159075400Y-141488971D01*
X159002860Y-141503400D01*
X131191309Y-141503400D01*
X130098800Y-140410891D01*
X130098800Y-133346340D01*
X130113229Y-133273800D01*
X130098800Y-133201259D01*
X130098800Y-133201256D01*
X130056061Y-132986393D01*
X129984810Y-132879758D01*
X129934351Y-132804241D01*
X129934349Y-132804239D01*
X129893258Y-132742742D01*
X129831760Y-132701650D01*
X129821336Y-132691226D01*
X134673500Y-132691226D01*
X134883941Y-133749184D01*
X135685579Y-134948921D01*
X136885315Y-135750559D01*
X138300500Y-136032057D01*
X139715684Y-135750559D01*
X140800500Y-135025709D01*
X141885315Y-135750559D01*
X143300500Y-136032057D01*
X144715684Y-135750559D01*
X145915421Y-134948921D01*
X146717059Y-133749185D01*
X146927500Y-132691227D01*
X146927500Y-131909322D01*
X149122000Y-131909322D01*
X149122000Y-132758678D01*
X149447034Y-133543380D01*
X150047620Y-134143966D01*
X150832322Y-134469000D01*
X151681678Y-134469000D01*
X152466380Y-134143966D01*
X153066966Y-133543380D01*
X153392000Y-132758678D01*
X153392000Y-131909322D01*
X153066966Y-131124620D01*
X152466380Y-130524034D01*
X151681678Y-130199000D01*
X150832322Y-130199000D01*
X150047620Y-130524034D01*
X149447034Y-131124620D01*
X149122000Y-131909322D01*
X146927500Y-131909322D01*
X146927500Y-127429126D01*
X161271000Y-127429126D01*
X161271000Y-127840874D01*
X161428569Y-128221280D01*
X161544000Y-128336711D01*
X161544001Y-129092288D01*
X161428569Y-129207720D01*
X161271000Y-129588126D01*
X161271000Y-129999874D01*
X161428569Y-130380280D01*
X161719720Y-130671431D01*
X162100126Y-130829000D01*
X162511874Y-130829000D01*
X162892280Y-130671431D01*
X163183431Y-130380280D01*
X163341000Y-129999874D01*
X163341000Y-129588126D01*
X163183431Y-129207720D01*
X163068000Y-129092289D01*
X163068000Y-128336711D01*
X163183431Y-128221280D01*
X163341000Y-127840874D01*
X163341000Y-127429126D01*
X163183431Y-127048720D01*
X162892280Y-126757569D01*
X162511874Y-126600000D01*
X162100126Y-126600000D01*
X161719720Y-126757569D01*
X161428569Y-127048720D01*
X161271000Y-127429126D01*
X146927500Y-127429126D01*
X146927500Y-124476773D01*
X146914084Y-124409322D01*
X149122000Y-124409322D01*
X149122000Y-125258678D01*
X149447034Y-126043380D01*
X150047620Y-126643966D01*
X150832322Y-126969000D01*
X151681678Y-126969000D01*
X152466380Y-126643966D01*
X153066966Y-126043380D01*
X153392000Y-125258678D01*
X153392000Y-124409322D01*
X153066966Y-123624620D01*
X152466380Y-123024034D01*
X151681678Y-122699000D01*
X150832322Y-122699000D01*
X150047620Y-123024034D01*
X149447034Y-123624620D01*
X149122000Y-124409322D01*
X146914084Y-124409322D01*
X146717059Y-123418815D01*
X145915421Y-122219079D01*
X144715685Y-121417441D01*
X143300500Y-121135943D01*
X141885316Y-121417441D01*
X140800501Y-122142292D01*
X139715685Y-121417441D01*
X138300500Y-121135943D01*
X136885316Y-121417441D01*
X135685580Y-122219079D01*
X134883942Y-123418815D01*
X134673501Y-124476773D01*
X134673500Y-132691226D01*
X129821336Y-132691226D01*
X129070751Y-131940642D01*
X129029658Y-131879142D01*
X128786007Y-131716339D01*
X128571144Y-131673600D01*
X128571140Y-131673600D01*
X128498600Y-131659171D01*
X128426060Y-131673600D01*
X128133511Y-131673600D01*
X127992680Y-131532769D01*
X127612274Y-131375200D01*
X127200526Y-131375200D01*
X126820120Y-131532769D01*
X126528969Y-131823920D01*
X126371400Y-132204326D01*
X126371400Y-132616074D01*
X126528969Y-132996480D01*
X126820120Y-133287631D01*
X127200526Y-133445200D01*
X127610632Y-133445200D01*
X127514400Y-133677526D01*
X127514400Y-134089274D01*
X127671969Y-134469680D01*
X127812801Y-134610512D01*
X127812800Y-141049860D01*
X127798371Y-141122400D01*
X127812800Y-141194940D01*
X127812800Y-141194943D01*
X127855539Y-141409806D01*
X128018342Y-141653458D01*
X128079842Y-141694551D01*
X128803113Y-142417822D01*
X104069389Y-142417822D01*
X103996849Y-142403393D01*
X103924308Y-142417822D01*
X103924305Y-142417822D01*
X103734589Y-142455559D01*
X103709442Y-142460561D01*
X103527290Y-142582271D01*
X103527288Y-142582273D01*
X103469329Y-142621000D01*
X101073012Y-142621000D01*
X101040596Y-142625207D01*
X100793810Y-142690355D01*
X100737427Y-142722353D01*
X100554951Y-142900819D01*
X100521707Y-142956479D01*
X100451093Y-143201757D01*
X100446167Y-143234070D01*
X100390955Y-145718607D01*
X99539758Y-146569804D01*
X99355892Y-146385938D01*
X98975486Y-146228369D01*
X98902045Y-146228369D01*
X96253300Y-143579625D01*
X96253300Y-134267611D01*
X96305231Y-134215680D01*
X96462800Y-133835274D01*
X96462800Y-133423526D01*
X96305231Y-133043120D01*
X96014080Y-132751969D01*
X95867434Y-132691226D01*
X101717000Y-132691226D01*
X101927441Y-133749184D01*
X102729079Y-134948921D01*
X103928815Y-135750559D01*
X105344000Y-136032057D01*
X106759184Y-135750559D01*
X107844000Y-135025709D01*
X108928815Y-135750559D01*
X110344000Y-136032057D01*
X111759184Y-135750559D01*
X112958921Y-134948921D01*
X113760559Y-133749185D01*
X113971000Y-132691227D01*
X113971000Y-131909322D01*
X116165500Y-131909322D01*
X116165500Y-132758678D01*
X116490534Y-133543380D01*
X117091120Y-134143966D01*
X117875822Y-134469000D01*
X118725178Y-134469000D01*
X119509880Y-134143966D01*
X120110466Y-133543380D01*
X120435500Y-132758678D01*
X120435500Y-131909322D01*
X120110466Y-131124620D01*
X119509880Y-130524034D01*
X118725178Y-130199000D01*
X117875822Y-130199000D01*
X117091120Y-130524034D01*
X116490534Y-131124620D01*
X116165500Y-131909322D01*
X113971000Y-131909322D01*
X113971000Y-129486526D01*
X127489000Y-129486526D01*
X127489000Y-129898274D01*
X127646569Y-130278680D01*
X127937720Y-130569831D01*
X128318126Y-130727400D01*
X128729874Y-130727400D01*
X129110280Y-130569831D01*
X129401431Y-130278680D01*
X129559000Y-129898274D01*
X129559000Y-129486526D01*
X129401431Y-129106120D01*
X129286000Y-128990689D01*
X129286000Y-128412911D01*
X129426831Y-128272080D01*
X129584400Y-127891674D01*
X129584400Y-127479926D01*
X129426831Y-127099520D01*
X129135680Y-126808369D01*
X128755274Y-126650800D01*
X128343526Y-126650800D01*
X127963120Y-126808369D01*
X127671969Y-127099520D01*
X127514400Y-127479926D01*
X127514400Y-127891674D01*
X127671969Y-128272080D01*
X127812800Y-128412911D01*
X127812801Y-128939888D01*
X127646569Y-129106120D01*
X127489000Y-129486526D01*
X113971000Y-129486526D01*
X113971000Y-124476773D01*
X113957584Y-124409322D01*
X116165500Y-124409322D01*
X116165500Y-125258678D01*
X116490534Y-126043380D01*
X117091120Y-126643966D01*
X117875822Y-126969000D01*
X118725178Y-126969000D01*
X119509880Y-126643966D01*
X120110466Y-126043380D01*
X120435500Y-125258678D01*
X120435500Y-124409322D01*
X120110466Y-123624620D01*
X119509880Y-123024034D01*
X118725178Y-122699000D01*
X117875822Y-122699000D01*
X117091120Y-123024034D01*
X116490534Y-123624620D01*
X116165500Y-124409322D01*
X113957584Y-124409322D01*
X113760559Y-123418815D01*
X112958921Y-122219079D01*
X111759185Y-121417441D01*
X110344000Y-121135943D01*
X108928816Y-121417441D01*
X107844001Y-122142292D01*
X106759185Y-121417441D01*
X105344000Y-121135943D01*
X103928816Y-121417441D01*
X102729080Y-122219079D01*
X101927442Y-123418815D01*
X101717001Y-124476773D01*
X101717000Y-132691226D01*
X95867434Y-132691226D01*
X95633674Y-132594400D01*
X95221926Y-132594400D01*
X94841520Y-132751969D01*
X94550369Y-133043120D01*
X94392800Y-133423526D01*
X94392800Y-133835274D01*
X94550369Y-134215680D01*
X94602300Y-134267611D01*
X94602301Y-143172638D01*
X86080600Y-134650938D01*
X86080600Y-134339798D01*
X86553380Y-134143966D01*
X87153966Y-133543380D01*
X87479000Y-132758678D01*
X87479000Y-131909322D01*
X87153966Y-131124620D01*
X86553380Y-130524034D01*
X85768678Y-130199000D01*
X84919322Y-130199000D01*
X84134620Y-130524034D01*
X83534034Y-131124620D01*
X83209000Y-131909322D01*
X83209000Y-132169955D01*
X83097231Y-131900120D01*
X82806080Y-131608969D01*
X82425674Y-131451400D01*
X82013926Y-131451400D01*
X81633520Y-131608969D01*
X81342369Y-131900120D01*
X81184800Y-132280526D01*
X81184800Y-132692274D01*
X81342369Y-133072680D01*
X81633520Y-133363831D01*
X82013926Y-133521400D01*
X82213091Y-133521400D01*
X96785395Y-148093705D01*
X96785396Y-149053576D01*
X96770966Y-149126121D01*
X96793547Y-149239644D01*
X96687353Y-149239644D01*
X82923000Y-135475291D01*
X82923000Y-135156234D01*
X82750207Y-134739074D01*
X82430926Y-134419793D01*
X82013766Y-134247000D01*
X81562234Y-134247000D01*
X81145074Y-134419793D01*
X80825793Y-134739074D01*
X80653000Y-135156234D01*
X80653000Y-135607766D01*
X80825793Y-136024926D01*
X81145074Y-136344207D01*
X81562234Y-136517000D01*
X81881291Y-136517000D01*
X95810093Y-150445802D01*
X95851186Y-150507302D01*
X95870788Y-150520400D01*
X63744846Y-150520400D01*
X62264999Y-149040554D01*
X62264999Y-140396000D01*
X67929943Y-140396000D01*
X68211441Y-141811185D01*
X69013079Y-143010921D01*
X69359417Y-143242337D01*
X68977057Y-143624697D01*
X68501000Y-144774001D01*
X68501000Y-146017999D01*
X68977057Y-147167303D01*
X69856697Y-148046943D01*
X71006001Y-148523000D01*
X72249999Y-148523000D01*
X73399303Y-148046943D01*
X74278943Y-147167303D01*
X74755000Y-146017999D01*
X74755000Y-144774001D01*
X74443925Y-144023000D01*
X76312075Y-144023000D01*
X76001000Y-144774001D01*
X76001000Y-146017999D01*
X76477057Y-147167303D01*
X77356697Y-148046943D01*
X78506001Y-148523000D01*
X79749999Y-148523000D01*
X80899303Y-148046943D01*
X81778943Y-147167303D01*
X82255000Y-146017999D01*
X82255000Y-144774001D01*
X81778943Y-143624697D01*
X81396583Y-143242337D01*
X81742921Y-143010921D01*
X82544559Y-141811185D01*
X82826057Y-140396000D01*
X82544559Y-138980815D01*
X81742921Y-137781079D01*
X80543185Y-136979441D01*
X79485227Y-136769000D01*
X71270773Y-136769000D01*
X70212815Y-136979441D01*
X69013079Y-137781079D01*
X68211441Y-138980815D01*
X67929943Y-140396000D01*
X62264999Y-140396000D01*
X62264999Y-136164569D01*
X62287391Y-136051998D01*
X62247521Y-135851558D01*
X62198681Y-135606023D01*
X61946056Y-135227942D01*
X61850620Y-135164174D01*
X58327826Y-131641381D01*
X58264056Y-131545942D01*
X57885975Y-131293317D01*
X57552571Y-131226999D01*
X57552570Y-131226999D01*
X57439999Y-131204607D01*
X57327428Y-131226999D01*
X53849445Y-131226999D01*
X52405010Y-129782565D01*
X52405010Y-126692448D01*
X58567500Y-126692448D01*
X58567500Y-128831552D01*
X59386099Y-130807826D01*
X60898674Y-132320401D01*
X62874948Y-133139000D01*
X65014052Y-133139000D01*
X66990326Y-132320401D01*
X68502901Y-130807826D01*
X69321500Y-128831552D01*
X69321500Y-126692448D01*
X68502901Y-124716174D01*
X68196049Y-124409322D01*
X83209000Y-124409322D01*
X83209000Y-125258678D01*
X83534034Y-126043380D01*
X84134620Y-126643966D01*
X84919322Y-126969000D01*
X85768678Y-126969000D01*
X86089059Y-126836294D01*
X88597471Y-129344707D01*
X88647067Y-129418933D01*
X88941130Y-129615419D01*
X89200444Y-129667000D01*
X89200448Y-129667000D01*
X89287999Y-129684415D01*
X89375550Y-129667000D01*
X95656177Y-129667000D01*
X95729384Y-129740207D01*
X96146544Y-129913000D01*
X96598076Y-129913000D01*
X97015236Y-129740207D01*
X97334517Y-129420926D01*
X97507310Y-129003766D01*
X97507310Y-128552234D01*
X97334517Y-128135074D01*
X97015236Y-127815793D01*
X96598076Y-127643000D01*
X96146544Y-127643000D01*
X95729384Y-127815793D01*
X95656177Y-127889000D01*
X89656236Y-127889000D01*
X87346294Y-125579059D01*
X87479000Y-125258678D01*
X87479000Y-124409322D01*
X87153966Y-123624620D01*
X86553380Y-123024034D01*
X85768678Y-122699000D01*
X84919322Y-122699000D01*
X84134620Y-123024034D01*
X83534034Y-123624620D01*
X83209000Y-124409322D01*
X68196049Y-124409322D01*
X66990326Y-123203599D01*
X65014052Y-122385000D01*
X62874948Y-122385000D01*
X60898674Y-123203599D01*
X59386099Y-124716174D01*
X58567500Y-126692448D01*
X52405010Y-126692448D01*
X52405010Y-119971322D01*
X69493000Y-119971322D01*
X69493000Y-120820678D01*
X69818034Y-121605380D01*
X70418620Y-122205966D01*
X71203322Y-122531000D01*
X72052678Y-122531000D01*
X72837380Y-122205966D01*
X73437966Y-121605380D01*
X73763000Y-120820678D01*
X73763000Y-119971322D01*
X76993000Y-119971322D01*
X76993000Y-120820678D01*
X77318034Y-121605380D01*
X77918620Y-122205966D01*
X78703322Y-122531000D01*
X79552678Y-122531000D01*
X80337380Y-122205966D01*
X80937966Y-121605380D01*
X81263000Y-120820678D01*
X81263000Y-119971322D01*
X80937966Y-119186620D01*
X80337380Y-118586034D01*
X79552678Y-118261000D01*
X78703322Y-118261000D01*
X77918620Y-118586034D01*
X77318034Y-119186620D01*
X76993000Y-119971322D01*
X73763000Y-119971322D01*
X73437966Y-119186620D01*
X72837380Y-118586034D01*
X72052678Y-118261000D01*
X71203322Y-118261000D01*
X70418620Y-118586034D01*
X69818034Y-119186620D01*
X69493000Y-119971322D01*
X52405010Y-119971322D01*
X52405010Y-115252500D01*
X72260039Y-115252500D01*
X72287534Y-115318880D01*
X72888120Y-115919466D01*
X73672822Y-116244500D01*
X74522178Y-116244500D01*
X75306880Y-115919466D01*
X75907466Y-115318880D01*
X76232500Y-114534178D01*
X76232500Y-113684822D01*
X79462500Y-113684822D01*
X79462500Y-114534178D01*
X79787534Y-115318880D01*
X80388120Y-115919466D01*
X81172822Y-116244500D01*
X82022178Y-116244500D01*
X82806880Y-115919466D01*
X83407466Y-115318880D01*
X83732500Y-114534178D01*
X83732500Y-113684822D01*
X104830100Y-113684822D01*
X104830100Y-114534178D01*
X105155134Y-115318880D01*
X105755720Y-115919466D01*
X106540422Y-116244500D01*
X107389778Y-116244500D01*
X108174480Y-115919466D01*
X108775066Y-115318880D01*
X109100100Y-114534178D01*
X109100100Y-113684822D01*
X112330100Y-113684822D01*
X112330100Y-114534178D01*
X112655134Y-115318880D01*
X113255720Y-115919466D01*
X114040422Y-116244500D01*
X114889778Y-116244500D01*
X115674480Y-115919466D01*
X116275066Y-115318880D01*
X116600100Y-114534178D01*
X116600100Y-113684822D01*
X137697700Y-113684822D01*
X137697700Y-114534178D01*
X138022734Y-115318880D01*
X138623320Y-115919466D01*
X139408022Y-116244500D01*
X140257378Y-116244500D01*
X141042080Y-115919466D01*
X141642666Y-115318880D01*
X141967700Y-114534178D01*
X141967700Y-113684822D01*
X145197700Y-113684822D01*
X145197700Y-114534178D01*
X145522734Y-115318880D01*
X146123320Y-115919466D01*
X146908022Y-116244500D01*
X147757378Y-116244500D01*
X148542080Y-115919466D01*
X149142666Y-115318880D01*
X149467700Y-114534178D01*
X149467700Y-113684822D01*
X170565300Y-113684822D01*
X170565300Y-114534178D01*
X170890334Y-115318880D01*
X171490920Y-115919466D01*
X172275622Y-116244500D01*
X173124978Y-116244500D01*
X173909680Y-115919466D01*
X174510266Y-115318880D01*
X174835300Y-114534178D01*
X174835300Y-113684822D01*
X178065300Y-113684822D01*
X178065300Y-114534178D01*
X178390334Y-115318880D01*
X178990920Y-115919466D01*
X179775622Y-116244500D01*
X180624978Y-116244500D01*
X181409680Y-115919466D01*
X182010266Y-115318880D01*
X182335300Y-114534178D01*
X182335300Y-113684822D01*
X203432900Y-113684822D01*
X203432900Y-114534178D01*
X203757934Y-115318880D01*
X204358520Y-115919466D01*
X205143222Y-116244500D01*
X205992578Y-116244500D01*
X206777280Y-115919466D01*
X207377866Y-115318880D01*
X207702900Y-114534178D01*
X207702900Y-113684822D01*
X210932900Y-113684822D01*
X210932900Y-114534178D01*
X211257934Y-115318880D01*
X211858520Y-115919466D01*
X212643222Y-116244500D01*
X213492578Y-116244500D01*
X214277280Y-115919466D01*
X214877866Y-115318880D01*
X215202900Y-114534178D01*
X215202900Y-113684822D01*
X236300500Y-113684822D01*
X236300500Y-114534178D01*
X236625534Y-115318880D01*
X237226120Y-115919466D01*
X238010822Y-116244500D01*
X238860178Y-116244500D01*
X239644880Y-115919466D01*
X240245466Y-115318880D01*
X240570500Y-114534178D01*
X240570500Y-113684822D01*
X243800500Y-113684822D01*
X243800500Y-114534178D01*
X244125534Y-115318880D01*
X244726120Y-115919466D01*
X245510822Y-116244500D01*
X246360178Y-116244500D01*
X247144880Y-115919466D01*
X247745466Y-115318880D01*
X248070500Y-114534178D01*
X248070500Y-113684822D01*
X247745466Y-112900120D01*
X247144880Y-112299534D01*
X246360178Y-111974500D01*
X245510822Y-111974500D01*
X244726120Y-112299534D01*
X244125534Y-112900120D01*
X243800500Y-113684822D01*
X240570500Y-113684822D01*
X240245466Y-112900120D01*
X239644880Y-112299534D01*
X238860178Y-111974500D01*
X238010822Y-111974500D01*
X237226120Y-112299534D01*
X236625534Y-112900120D01*
X236300500Y-113684822D01*
X215202900Y-113684822D01*
X214877866Y-112900120D01*
X214277280Y-112299534D01*
X213492578Y-111974500D01*
X212643222Y-111974500D01*
X211858520Y-112299534D01*
X211257934Y-112900120D01*
X210932900Y-113684822D01*
X207702900Y-113684822D01*
X207377866Y-112900120D01*
X206777280Y-112299534D01*
X205992578Y-111974500D01*
X205143222Y-111974500D01*
X204358520Y-112299534D01*
X203757934Y-112900120D01*
X203432900Y-113684822D01*
X182335300Y-113684822D01*
X182010266Y-112900120D01*
X181409680Y-112299534D01*
X180624978Y-111974500D01*
X179775622Y-111974500D01*
X178990920Y-112299534D01*
X178390334Y-112900120D01*
X178065300Y-113684822D01*
X174835300Y-113684822D01*
X174510266Y-112900120D01*
X173909680Y-112299534D01*
X173124978Y-111974500D01*
X172275622Y-111974500D01*
X171490920Y-112299534D01*
X170890334Y-112900120D01*
X170565300Y-113684822D01*
X149467700Y-113684822D01*
X149142666Y-112900120D01*
X148542080Y-112299534D01*
X147757378Y-111974500D01*
X146908022Y-111974500D01*
X146123320Y-112299534D01*
X145522734Y-112900120D01*
X145197700Y-113684822D01*
X141967700Y-113684822D01*
X141642666Y-112900120D01*
X141042080Y-112299534D01*
X140257378Y-111974500D01*
X139408022Y-111974500D01*
X138623320Y-112299534D01*
X138022734Y-112900120D01*
X137697700Y-113684822D01*
X116600100Y-113684822D01*
X116275066Y-112900120D01*
X115674480Y-112299534D01*
X114889778Y-111974500D01*
X114040422Y-111974500D01*
X113255720Y-112299534D01*
X112655134Y-112900120D01*
X112330100Y-113684822D01*
X109100100Y-113684822D01*
X108775066Y-112900120D01*
X108174480Y-112299534D01*
X107389778Y-111974500D01*
X106540422Y-111974500D01*
X105755720Y-112299534D01*
X105155134Y-112900120D01*
X104830100Y-113684822D01*
X83732500Y-113684822D01*
X83407466Y-112900120D01*
X82806880Y-112299534D01*
X82022178Y-111974500D01*
X81172822Y-111974500D01*
X80388120Y-112299534D01*
X79787534Y-112900120D01*
X79462500Y-113684822D01*
X76232500Y-113684822D01*
X75907466Y-112900120D01*
X75306880Y-112299534D01*
X74522178Y-111974500D01*
X73672822Y-111974500D01*
X72888120Y-112299534D01*
X72287534Y-112900120D01*
X72260039Y-112966500D01*
X52405010Y-112966500D01*
X52405010Y-107724234D01*
X94623000Y-107724234D01*
X94623000Y-108175766D01*
X94795793Y-108592926D01*
X95115074Y-108912207D01*
X95532234Y-109085000D01*
X95983766Y-109085000D01*
X96400926Y-108912207D01*
X96474133Y-108839000D01*
X105295765Y-108839000D01*
X106307000Y-109850236D01*
X106307000Y-109953766D01*
X106479793Y-110370926D01*
X106799074Y-110690207D01*
X107216234Y-110863000D01*
X107667766Y-110863000D01*
X108084926Y-110690207D01*
X108404207Y-110370926D01*
X108577000Y-109953766D01*
X108577000Y-109502234D01*
X108404207Y-109085074D01*
X108084926Y-108765793D01*
X107667766Y-108593000D01*
X107564236Y-108593000D01*
X106354531Y-107383296D01*
X106304933Y-107309067D01*
X106010870Y-107112581D01*
X105751556Y-107061000D01*
X105751555Y-107061000D01*
X105664000Y-107043584D01*
X105576445Y-107061000D01*
X96474133Y-107061000D01*
X96400926Y-106987793D01*
X95983766Y-106815000D01*
X95532234Y-106815000D01*
X95115074Y-106987793D01*
X94795793Y-107307074D01*
X94623000Y-107724234D01*
X52405010Y-107724234D01*
X52405010Y-106708234D01*
X126881000Y-106708234D01*
X126881000Y-107159766D01*
X127053793Y-107576926D01*
X127373074Y-107896207D01*
X127790234Y-108069000D01*
X127893765Y-108069000D01*
X128341471Y-108516706D01*
X128391067Y-108590933D01*
X128685130Y-108787419D01*
X128944444Y-108839000D01*
X128944445Y-108839000D01*
X129032000Y-108856416D01*
X129119555Y-108839000D01*
X139491867Y-108839000D01*
X139565074Y-108912207D01*
X139982234Y-109085000D01*
X140433766Y-109085000D01*
X140850926Y-108912207D01*
X141170207Y-108592926D01*
X141343000Y-108175766D01*
X141343000Y-107724234D01*
X141170207Y-107307074D01*
X141079367Y-107216234D01*
X160409008Y-107216234D01*
X160409008Y-107667766D01*
X160581801Y-108084926D01*
X160901082Y-108404207D01*
X161318242Y-108577000D01*
X161769774Y-108577000D01*
X162186934Y-108404207D01*
X162260141Y-108331000D01*
X174637765Y-108331000D01*
X175141000Y-108834236D01*
X175141000Y-108937766D01*
X175313793Y-109354926D01*
X175633074Y-109674207D01*
X176050234Y-109847000D01*
X176501766Y-109847000D01*
X176918926Y-109674207D01*
X177238207Y-109354926D01*
X177411000Y-108937766D01*
X177411000Y-108486234D01*
X177238207Y-108069074D01*
X176918926Y-107749793D01*
X176501766Y-107577000D01*
X176398236Y-107577000D01*
X175696531Y-106875296D01*
X175646933Y-106801067D01*
X175507999Y-106708234D01*
X192921000Y-106708234D01*
X192921000Y-107159766D01*
X193093793Y-107576926D01*
X193413074Y-107896207D01*
X193830234Y-108069000D01*
X194281766Y-108069000D01*
X194698926Y-107896207D01*
X194772133Y-107823000D01*
X205879765Y-107823000D01*
X207399000Y-109342236D01*
X207399000Y-109445766D01*
X207571793Y-109862926D01*
X207891074Y-110182207D01*
X208308234Y-110355000D01*
X208759766Y-110355000D01*
X209176926Y-110182207D01*
X209496207Y-109862926D01*
X209669000Y-109445766D01*
X209669000Y-108994234D01*
X209496207Y-108577074D01*
X209176926Y-108257793D01*
X208759766Y-108085000D01*
X208656236Y-108085000D01*
X207279470Y-106708234D01*
X225687000Y-106708234D01*
X225687000Y-107159766D01*
X225859793Y-107576926D01*
X226179074Y-107896207D01*
X226596234Y-108069000D01*
X227047766Y-108069000D01*
X227464926Y-107896207D01*
X227538133Y-107823000D01*
X238391765Y-107823000D01*
X239149001Y-108580237D01*
X239149001Y-108683767D01*
X239321794Y-109100927D01*
X239641075Y-109420208D01*
X240058235Y-109593001D01*
X240509767Y-109593001D01*
X240926927Y-109420208D01*
X241246208Y-109100927D01*
X241419001Y-108683767D01*
X241419001Y-108232235D01*
X241246208Y-107815075D01*
X240926927Y-107495794D01*
X240509767Y-107323001D01*
X240406237Y-107323001D01*
X239450531Y-106367296D01*
X239400933Y-106293067D01*
X239106870Y-106096581D01*
X238847556Y-106045000D01*
X238847555Y-106045000D01*
X238760000Y-106027584D01*
X238672445Y-106045000D01*
X227538133Y-106045000D01*
X227464926Y-105971793D01*
X227047766Y-105799000D01*
X226596234Y-105799000D01*
X226179074Y-105971793D01*
X225859793Y-106291074D01*
X225687000Y-106708234D01*
X207279470Y-106708234D01*
X206938531Y-106367296D01*
X206888933Y-106293067D01*
X206594870Y-106096581D01*
X206335556Y-106045000D01*
X206335555Y-106045000D01*
X206248000Y-106027584D01*
X206160445Y-106045000D01*
X194772133Y-106045000D01*
X194698926Y-105971793D01*
X194281766Y-105799000D01*
X193830234Y-105799000D01*
X193413074Y-105971793D01*
X193093793Y-106291074D01*
X192921000Y-106708234D01*
X175507999Y-106708234D01*
X175352870Y-106604581D01*
X175093556Y-106553000D01*
X175093555Y-106553000D01*
X175006000Y-106535584D01*
X174918445Y-106553000D01*
X162260141Y-106553000D01*
X162186934Y-106479793D01*
X161769774Y-106307000D01*
X161318242Y-106307000D01*
X160901082Y-106479793D01*
X160581801Y-106799074D01*
X160409008Y-107216234D01*
X141079367Y-107216234D01*
X140850926Y-106987793D01*
X140433766Y-106815000D01*
X139982234Y-106815000D01*
X139565074Y-106987793D01*
X139491867Y-107061000D01*
X129400236Y-107061000D01*
X129151000Y-106811765D01*
X129151000Y-106708234D01*
X128978207Y-106291074D01*
X128658926Y-105971793D01*
X128241766Y-105799000D01*
X127790234Y-105799000D01*
X127373074Y-105971793D01*
X127053793Y-106291074D01*
X126881000Y-106708234D01*
X52405010Y-106708234D01*
X52405010Y-95450448D01*
X61044000Y-95450448D01*
X61044000Y-97589552D01*
X61862599Y-99565826D01*
X63375174Y-101078401D01*
X65351448Y-101897000D01*
X67490552Y-101897000D01*
X69466826Y-101078401D01*
X70970500Y-99574727D01*
X70970500Y-99731499D01*
X71446557Y-100880803D01*
X72326197Y-101760443D01*
X73475501Y-102236500D01*
X74719499Y-102236500D01*
X75868803Y-101760443D01*
X76748443Y-100880803D01*
X77224500Y-99731499D01*
X77224500Y-98487501D01*
X76748443Y-97338197D01*
X76019746Y-96609500D01*
X76748443Y-95880803D01*
X77224500Y-94731499D01*
X77224500Y-93487501D01*
X76748443Y-92338197D01*
X76019746Y-91609500D01*
X76748443Y-90880803D01*
X77224500Y-89731499D01*
X77224500Y-88487501D01*
X78470500Y-88487501D01*
X78470500Y-89731499D01*
X78946557Y-90880803D01*
X79675254Y-91609500D01*
X78946557Y-92338197D01*
X78470500Y-93487501D01*
X78470500Y-94731499D01*
X78946557Y-95880803D01*
X79675254Y-96609500D01*
X78946557Y-97338197D01*
X78470500Y-98487501D01*
X78470500Y-99731499D01*
X78946557Y-100880803D01*
X79826197Y-101760443D01*
X80975501Y-102236500D01*
X82219499Y-102236500D01*
X83368803Y-101760443D01*
X84248443Y-100880803D01*
X84724500Y-99731499D01*
X84724500Y-98487501D01*
X84248443Y-97338197D01*
X83519746Y-96609500D01*
X84248443Y-95880803D01*
X84426701Y-95450448D01*
X93708400Y-95450448D01*
X93708400Y-97589552D01*
X94526999Y-99565826D01*
X96039574Y-101078401D01*
X98015848Y-101897000D01*
X100154952Y-101897000D01*
X102131226Y-101078401D01*
X103643801Y-99565826D01*
X103838100Y-99096746D01*
X103838100Y-99731499D01*
X104314157Y-100880803D01*
X105193797Y-101760443D01*
X106343101Y-102236500D01*
X107587099Y-102236500D01*
X108736403Y-101760443D01*
X109616043Y-100880803D01*
X110092100Y-99731499D01*
X110092100Y-98487501D01*
X109616043Y-97338197D01*
X108887346Y-96609500D01*
X109616043Y-95880803D01*
X110092100Y-94731499D01*
X110092100Y-93487501D01*
X109616043Y-92338197D01*
X108887346Y-91609500D01*
X109616043Y-90880803D01*
X110092100Y-89731499D01*
X110092100Y-88487501D01*
X111338100Y-88487501D01*
X111338100Y-89731499D01*
X111814157Y-90880803D01*
X112542854Y-91609500D01*
X111814157Y-92338197D01*
X111338100Y-93487501D01*
X111338100Y-94731499D01*
X111814157Y-95880803D01*
X112542854Y-96609500D01*
X111814157Y-97338197D01*
X111338100Y-98487501D01*
X111338100Y-99731499D01*
X111814157Y-100880803D01*
X112693797Y-101760443D01*
X113843101Y-102236500D01*
X115087099Y-102236500D01*
X116236403Y-101760443D01*
X117116043Y-100880803D01*
X117592100Y-99731499D01*
X117592100Y-98487501D01*
X117116043Y-97338197D01*
X116387346Y-96609500D01*
X117116043Y-95880803D01*
X117294301Y-95450448D01*
X126372800Y-95450448D01*
X126372800Y-97589552D01*
X127191399Y-99565826D01*
X128703974Y-101078401D01*
X130680248Y-101897000D01*
X132819352Y-101897000D01*
X134795626Y-101078401D01*
X136308201Y-99565826D01*
X136705700Y-98606178D01*
X136705700Y-99731499D01*
X137181757Y-100880803D01*
X138061397Y-101760443D01*
X139210701Y-102236500D01*
X140454699Y-102236500D01*
X141604003Y-101760443D01*
X142483643Y-100880803D01*
X142959700Y-99731499D01*
X142959700Y-98487501D01*
X142483643Y-97338197D01*
X141754946Y-96609500D01*
X142483643Y-95880803D01*
X142959700Y-94731499D01*
X142959700Y-93487501D01*
X142483643Y-92338197D01*
X141754946Y-91609500D01*
X142483643Y-90880803D01*
X142959700Y-89731499D01*
X142959700Y-88487501D01*
X144205700Y-88487501D01*
X144205700Y-89731499D01*
X144681757Y-90880803D01*
X145410454Y-91609500D01*
X144681757Y-92338197D01*
X144205700Y-93487501D01*
X144205700Y-94731499D01*
X144681757Y-95880803D01*
X145410454Y-96609500D01*
X144681757Y-97338197D01*
X144205700Y-98487501D01*
X144205700Y-99731499D01*
X144681757Y-100880803D01*
X145561397Y-101760443D01*
X146710701Y-102236500D01*
X147954699Y-102236500D01*
X149104003Y-101760443D01*
X149983643Y-100880803D01*
X150459700Y-99731499D01*
X150459700Y-98487501D01*
X149983643Y-97338197D01*
X149254946Y-96609500D01*
X149983643Y-95880803D01*
X150161901Y-95450448D01*
X159037200Y-95450448D01*
X159037200Y-97589552D01*
X159855799Y-99565826D01*
X161368374Y-101078401D01*
X163344648Y-101897000D01*
X165483752Y-101897000D01*
X167460026Y-101078401D01*
X168972601Y-99565826D01*
X169791200Y-97589552D01*
X169791200Y-95450448D01*
X168972601Y-93474174D01*
X167460026Y-91961599D01*
X165483752Y-91143000D01*
X163344648Y-91143000D01*
X161368374Y-91961599D01*
X159855799Y-93474174D01*
X159037200Y-95450448D01*
X150161901Y-95450448D01*
X150459700Y-94731499D01*
X150459700Y-93487501D01*
X149983643Y-92338197D01*
X149254946Y-91609500D01*
X149983643Y-90880803D01*
X150459700Y-89731499D01*
X150459700Y-88487501D01*
X169573300Y-88487501D01*
X169573300Y-89731499D01*
X170049357Y-90880803D01*
X170778054Y-91609500D01*
X170049357Y-92338197D01*
X169573300Y-93487501D01*
X169573300Y-94731499D01*
X170049357Y-95880803D01*
X170778054Y-96609500D01*
X170049357Y-97338197D01*
X169573300Y-98487501D01*
X169573300Y-99731499D01*
X170049357Y-100880803D01*
X170928997Y-101760443D01*
X172078301Y-102236500D01*
X173322299Y-102236500D01*
X174471603Y-101760443D01*
X175351243Y-100880803D01*
X175827300Y-99731499D01*
X175827300Y-98487501D01*
X175351243Y-97338197D01*
X174622546Y-96609500D01*
X175351243Y-95880803D01*
X175827300Y-94731499D01*
X175827300Y-93487501D01*
X175351243Y-92338197D01*
X174622546Y-91609500D01*
X175351243Y-90880803D01*
X175827300Y-89731499D01*
X175827300Y-88487501D01*
X177073300Y-88487501D01*
X177073300Y-89731499D01*
X177549357Y-90880803D01*
X178278054Y-91609500D01*
X177549357Y-92338197D01*
X177073300Y-93487501D01*
X177073300Y-94731499D01*
X177549357Y-95880803D01*
X178278054Y-96609500D01*
X177549357Y-97338197D01*
X177073300Y-98487501D01*
X177073300Y-99731499D01*
X177549357Y-100880803D01*
X178428997Y-101760443D01*
X179578301Y-102236500D01*
X180822299Y-102236500D01*
X181971603Y-101760443D01*
X182851243Y-100880803D01*
X183327300Y-99731499D01*
X183327300Y-98487501D01*
X182851243Y-97338197D01*
X182122546Y-96609500D01*
X182851243Y-95880803D01*
X183029501Y-95450448D01*
X191701600Y-95450448D01*
X191701600Y-97589552D01*
X192520199Y-99565826D01*
X194032774Y-101078401D01*
X196009048Y-101897000D01*
X198148152Y-101897000D01*
X200124426Y-101078401D01*
X201637001Y-99565826D01*
X202455600Y-97589552D01*
X202455600Y-95450448D01*
X201637001Y-93474174D01*
X200124426Y-91961599D01*
X198148152Y-91143000D01*
X196009048Y-91143000D01*
X194032774Y-91961599D01*
X192520199Y-93474174D01*
X191701600Y-95450448D01*
X183029501Y-95450448D01*
X183327300Y-94731499D01*
X183327300Y-93487501D01*
X182851243Y-92338197D01*
X182122546Y-91609500D01*
X182851243Y-90880803D01*
X183327300Y-89731499D01*
X183327300Y-88487501D01*
X202440900Y-88487501D01*
X202440900Y-89731499D01*
X202916957Y-90880803D01*
X203645654Y-91609500D01*
X202916957Y-92338197D01*
X202440900Y-93487501D01*
X202440900Y-94731499D01*
X202916957Y-95880803D01*
X203645654Y-96609500D01*
X202916957Y-97338197D01*
X202440900Y-98487501D01*
X202440900Y-99731499D01*
X202916957Y-100880803D01*
X203796597Y-101760443D01*
X204945901Y-102236500D01*
X206189899Y-102236500D01*
X207339203Y-101760443D01*
X208218843Y-100880803D01*
X208694900Y-99731499D01*
X208694900Y-98487501D01*
X208218843Y-97338197D01*
X207490146Y-96609500D01*
X208218843Y-95880803D01*
X208694900Y-94731499D01*
X208694900Y-93487501D01*
X208218843Y-92338197D01*
X207490146Y-91609500D01*
X208218843Y-90880803D01*
X208694900Y-89731499D01*
X208694900Y-88487501D01*
X209940900Y-88487501D01*
X209940900Y-89731499D01*
X210416957Y-90880803D01*
X211145654Y-91609500D01*
X210416957Y-92338197D01*
X209940900Y-93487501D01*
X209940900Y-94731499D01*
X210416957Y-95880803D01*
X211145654Y-96609500D01*
X210416957Y-97338197D01*
X209940900Y-98487501D01*
X209940900Y-99731499D01*
X210416957Y-100880803D01*
X211296597Y-101760443D01*
X212445901Y-102236500D01*
X213689899Y-102236500D01*
X214839203Y-101760443D01*
X215718843Y-100880803D01*
X216194900Y-99731499D01*
X216194900Y-98487501D01*
X215718843Y-97338197D01*
X214990146Y-96609500D01*
X215718843Y-95880803D01*
X215897101Y-95450448D01*
X224366000Y-95450448D01*
X224366000Y-97589552D01*
X225184599Y-99565826D01*
X226697174Y-101078401D01*
X228673448Y-101897000D01*
X230812552Y-101897000D01*
X232788826Y-101078401D01*
X234301401Y-99565826D01*
X235120000Y-97589552D01*
X235120000Y-95450448D01*
X234301401Y-93474174D01*
X232788826Y-91961599D01*
X230812552Y-91143000D01*
X228673448Y-91143000D01*
X226697174Y-91961599D01*
X225184599Y-93474174D01*
X224366000Y-95450448D01*
X215897101Y-95450448D01*
X216194900Y-94731499D01*
X216194900Y-93487501D01*
X215718843Y-92338197D01*
X214990146Y-91609500D01*
X215718843Y-90880803D01*
X216194900Y-89731499D01*
X216194900Y-88487501D01*
X235308500Y-88487501D01*
X235308500Y-89731499D01*
X235784557Y-90880803D01*
X236513254Y-91609500D01*
X235784557Y-92338197D01*
X235308500Y-93487501D01*
X235308500Y-94731499D01*
X235784557Y-95880803D01*
X236513254Y-96609500D01*
X235784557Y-97338197D01*
X235308500Y-98487501D01*
X235308500Y-99731499D01*
X235784557Y-100880803D01*
X236664197Y-101760443D01*
X237813501Y-102236500D01*
X239057499Y-102236500D01*
X240206803Y-101760443D01*
X241086443Y-100880803D01*
X241562500Y-99731499D01*
X241562500Y-98487501D01*
X241086443Y-97338197D01*
X240357746Y-96609500D01*
X241086443Y-95880803D01*
X241562500Y-94731499D01*
X241562500Y-93487501D01*
X241086443Y-92338197D01*
X240357746Y-91609500D01*
X241086443Y-90880803D01*
X241562500Y-89731499D01*
X241562500Y-88487501D01*
X241086443Y-87338197D01*
X240206803Y-86458557D01*
X239057499Y-85982500D01*
X237813501Y-85982500D01*
X236664197Y-86458557D01*
X235784557Y-87338197D01*
X235308500Y-88487501D01*
X216194900Y-88487501D01*
X215718843Y-87338197D01*
X214839203Y-86458557D01*
X213689899Y-85982500D01*
X212445901Y-85982500D01*
X211296597Y-86458557D01*
X210416957Y-87338197D01*
X209940900Y-88487501D01*
X208694900Y-88487501D01*
X208218843Y-87338197D01*
X207339203Y-86458557D01*
X206189899Y-85982500D01*
X204945901Y-85982500D01*
X203796597Y-86458557D01*
X202916957Y-87338197D01*
X202440900Y-88487501D01*
X183327300Y-88487501D01*
X182851243Y-87338197D01*
X181971603Y-86458557D01*
X180822299Y-85982500D01*
X179578301Y-85982500D01*
X178428997Y-86458557D01*
X177549357Y-87338197D01*
X177073300Y-88487501D01*
X175827300Y-88487501D01*
X175351243Y-87338197D01*
X174471603Y-86458557D01*
X173322299Y-85982500D01*
X172078301Y-85982500D01*
X170928997Y-86458557D01*
X170049357Y-87338197D01*
X169573300Y-88487501D01*
X150459700Y-88487501D01*
X149983643Y-87338197D01*
X149104003Y-86458557D01*
X147954699Y-85982500D01*
X146710701Y-85982500D01*
X145561397Y-86458557D01*
X144681757Y-87338197D01*
X144205700Y-88487501D01*
X142959700Y-88487501D01*
X142483643Y-87338197D01*
X141604003Y-86458557D01*
X140454699Y-85982500D01*
X139210701Y-85982500D01*
X138061397Y-86458557D01*
X137181757Y-87338197D01*
X136705700Y-88487501D01*
X136705700Y-89731499D01*
X137181757Y-90880803D01*
X137910454Y-91609500D01*
X137181757Y-92338197D01*
X136705700Y-93487501D01*
X136705700Y-94433822D01*
X136308201Y-93474174D01*
X134795626Y-91961599D01*
X132819352Y-91143000D01*
X130680248Y-91143000D01*
X128703974Y-91961599D01*
X127191399Y-93474174D01*
X126372800Y-95450448D01*
X117294301Y-95450448D01*
X117592100Y-94731499D01*
X117592100Y-93487501D01*
X117116043Y-92338197D01*
X116387346Y-91609500D01*
X117116043Y-90880803D01*
X117592100Y-89731499D01*
X117592100Y-88487501D01*
X117116043Y-87338197D01*
X116236403Y-86458557D01*
X115087099Y-85982500D01*
X113843101Y-85982500D01*
X112693797Y-86458557D01*
X111814157Y-87338197D01*
X111338100Y-88487501D01*
X110092100Y-88487501D01*
X109616043Y-87338197D01*
X108736403Y-86458557D01*
X107587099Y-85982500D01*
X106343101Y-85982500D01*
X105193797Y-86458557D01*
X104314157Y-87338197D01*
X103838100Y-88487501D01*
X103838100Y-89731499D01*
X104314157Y-90880803D01*
X105042854Y-91609500D01*
X104314157Y-92338197D01*
X103838100Y-93487501D01*
X103838100Y-93943254D01*
X103643801Y-93474174D01*
X102131226Y-91961599D01*
X100154952Y-91143000D01*
X98015848Y-91143000D01*
X96039574Y-91961599D01*
X94526999Y-93474174D01*
X93708400Y-95450448D01*
X84426701Y-95450448D01*
X84724500Y-94731499D01*
X84724500Y-93487501D01*
X84248443Y-92338197D01*
X83519746Y-91609500D01*
X84248443Y-90880803D01*
X84724500Y-89731499D01*
X84724500Y-88487501D01*
X84248443Y-87338197D01*
X83368803Y-86458557D01*
X82219499Y-85982500D01*
X80975501Y-85982500D01*
X79826197Y-86458557D01*
X78946557Y-87338197D01*
X78470500Y-88487501D01*
X77224500Y-88487501D01*
X76748443Y-87338197D01*
X75868803Y-86458557D01*
X74719499Y-85982500D01*
X73475501Y-85982500D01*
X72326197Y-86458557D01*
X71446557Y-87338197D01*
X70970500Y-88487501D01*
X70970500Y-89731499D01*
X71446557Y-90880803D01*
X72175254Y-91609500D01*
X71446557Y-92338197D01*
X70977010Y-93471783D01*
X69466826Y-91961599D01*
X67490552Y-91143000D01*
X65351448Y-91143000D01*
X63375174Y-91961599D01*
X61862599Y-93474174D01*
X61044000Y-95450448D01*
X52405010Y-95450448D01*
X52405010Y-78315322D01*
X213758000Y-78315322D01*
X213758000Y-79164678D01*
X214083034Y-79949380D01*
X214683620Y-80549966D01*
X215468322Y-80875000D01*
X216317678Y-80875000D01*
X217102380Y-80549966D01*
X217702966Y-79949380D01*
X218028000Y-79164678D01*
X218028000Y-78315322D01*
X221258000Y-78315322D01*
X221258000Y-79164678D01*
X221583034Y-79949380D01*
X222183620Y-80549966D01*
X222968322Y-80875000D01*
X223817678Y-80875000D01*
X224602380Y-80549966D01*
X225202966Y-79949380D01*
X225528000Y-79164678D01*
X225528000Y-78315322D01*
X225202966Y-77530620D01*
X224602380Y-76930034D01*
X223817678Y-76605000D01*
X222968322Y-76605000D01*
X222183620Y-76930034D01*
X221583034Y-77530620D01*
X221258000Y-78315322D01*
X218028000Y-78315322D01*
X217702966Y-77530620D01*
X217102380Y-76930034D01*
X216317678Y-76605000D01*
X215468322Y-76605000D01*
X214683620Y-76930034D01*
X214083034Y-77530620D01*
X213758000Y-78315322D01*
X52405010Y-78315322D01*
X52405010Y-68605246D01*
X52856000Y-68605246D01*
X52856000Y-69454602D01*
X53181034Y-70239304D01*
X53781620Y-70839890D01*
X54566322Y-71164924D01*
X55415678Y-71164924D01*
X56200380Y-70839890D01*
X56800966Y-70239304D01*
X57126000Y-69454602D01*
X57126000Y-68605246D01*
X56800966Y-67820544D01*
X56200380Y-67219958D01*
X55415678Y-66894924D01*
X54566322Y-66894924D01*
X53781620Y-67219958D01*
X53181034Y-67820544D01*
X52856000Y-68605246D01*
X52405010Y-68605246D01*
X52405010Y-65732359D01*
X54499941Y-63637428D01*
X54566322Y-63664924D01*
X55415678Y-63664924D01*
X56200380Y-63339890D01*
X56800966Y-62739304D01*
X57126000Y-61954602D01*
X57126000Y-61172698D01*
X71364000Y-61172698D01*
X71364001Y-69387151D01*
X71574442Y-70445109D01*
X72376080Y-71644845D01*
X73575816Y-72446483D01*
X74991000Y-72727981D01*
X76406185Y-72446483D01*
X77491000Y-71721633D01*
X78575815Y-72446483D01*
X79991000Y-72727981D01*
X81406184Y-72446483D01*
X82605921Y-71644845D01*
X83407559Y-70445109D01*
X83618000Y-69387151D01*
X83618000Y-68605246D01*
X85050500Y-68605246D01*
X85050500Y-69454602D01*
X85375534Y-70239304D01*
X85976120Y-70839890D01*
X86760822Y-71164924D01*
X87610178Y-71164924D01*
X88394880Y-70839890D01*
X88995466Y-70239304D01*
X89320500Y-69454602D01*
X89320500Y-68605246D01*
X88995466Y-67820544D01*
X88394880Y-67219958D01*
X87610178Y-66894924D01*
X86760822Y-66894924D01*
X85976120Y-67219958D01*
X85375534Y-67820544D01*
X85050500Y-68605246D01*
X83618000Y-68605246D01*
X83618000Y-61172697D01*
X83604584Y-61105246D01*
X85050500Y-61105246D01*
X85050500Y-61954602D01*
X85375534Y-62739304D01*
X85976120Y-63339890D01*
X86760822Y-63664924D01*
X87610178Y-63664924D01*
X88394880Y-63339890D01*
X88995466Y-62739304D01*
X89320500Y-61954602D01*
X89320500Y-61172698D01*
X103558500Y-61172698D01*
X103558501Y-69387151D01*
X103768942Y-70445109D01*
X104570580Y-71644845D01*
X105770316Y-72446483D01*
X107185500Y-72727981D01*
X108600685Y-72446483D01*
X109685500Y-71721633D01*
X110770315Y-72446483D01*
X112185500Y-72727981D01*
X113600684Y-72446483D01*
X114800421Y-71644845D01*
X115602059Y-70445109D01*
X115812500Y-69387151D01*
X115812500Y-68605246D01*
X117245000Y-68605246D01*
X117245000Y-69454602D01*
X117570034Y-70239304D01*
X118170620Y-70839890D01*
X118955322Y-71164924D01*
X119804678Y-71164924D01*
X120589380Y-70839890D01*
X121189966Y-70239304D01*
X121515000Y-69454602D01*
X121515000Y-68605246D01*
X121189966Y-67820544D01*
X120589380Y-67219958D01*
X119804678Y-66894924D01*
X118955322Y-66894924D01*
X118170620Y-67219958D01*
X117570034Y-67820544D01*
X117245000Y-68605246D01*
X115812500Y-68605246D01*
X115812500Y-61172697D01*
X115799084Y-61105246D01*
X117245000Y-61105246D01*
X117245000Y-61954602D01*
X117570034Y-62739304D01*
X118170620Y-63339890D01*
X118955322Y-63664924D01*
X119804678Y-63664924D01*
X120589380Y-63339890D01*
X121189966Y-62739304D01*
X121515000Y-61954602D01*
X121515000Y-61172698D01*
X135753000Y-61172698D01*
X135753001Y-69387151D01*
X135963442Y-70445109D01*
X136765080Y-71644845D01*
X137964816Y-72446483D01*
X139380000Y-72727981D01*
X140795185Y-72446483D01*
X141880000Y-71721633D01*
X142964815Y-72446483D01*
X144380000Y-72727981D01*
X145795184Y-72446483D01*
X146994921Y-71644845D01*
X147796559Y-70445109D01*
X148007000Y-69387151D01*
X148007000Y-68605246D01*
X149439500Y-68605246D01*
X149439500Y-69454602D01*
X149764534Y-70239304D01*
X150365120Y-70839890D01*
X151149822Y-71164924D01*
X151999178Y-71164924D01*
X152783880Y-70839890D01*
X153384466Y-70239304D01*
X153709500Y-69454602D01*
X153709500Y-68605246D01*
X153384466Y-67820544D01*
X152783880Y-67219958D01*
X151999178Y-66894924D01*
X151149822Y-66894924D01*
X150365120Y-67219958D01*
X149764534Y-67820544D01*
X149439500Y-68605246D01*
X148007000Y-68605246D01*
X148007000Y-61172697D01*
X147993584Y-61105246D01*
X149439500Y-61105246D01*
X149439500Y-61954602D01*
X149764534Y-62739304D01*
X150365120Y-63339890D01*
X151149822Y-63664924D01*
X151999178Y-63664924D01*
X152783880Y-63339890D01*
X153384466Y-62739304D01*
X153709500Y-61954602D01*
X153709500Y-61172698D01*
X167947500Y-61172698D01*
X167947501Y-69387151D01*
X168157942Y-70445109D01*
X168959580Y-71644845D01*
X170159316Y-72446483D01*
X171574500Y-72727981D01*
X172989685Y-72446483D01*
X174074500Y-71721633D01*
X175159315Y-72446483D01*
X176574500Y-72727981D01*
X177989684Y-72446483D01*
X179189421Y-71644845D01*
X179991059Y-70445109D01*
X180201500Y-69387151D01*
X180201500Y-68605246D01*
X181634000Y-68605246D01*
X181634000Y-69454602D01*
X181959034Y-70239304D01*
X182559620Y-70839890D01*
X183344322Y-71164924D01*
X184193678Y-71164924D01*
X184978380Y-70839890D01*
X185578966Y-70239304D01*
X185904000Y-69454602D01*
X185904000Y-68605246D01*
X185578966Y-67820544D01*
X184978380Y-67219958D01*
X184193678Y-66894924D01*
X183344322Y-66894924D01*
X182559620Y-67219958D01*
X181959034Y-67820544D01*
X181634000Y-68605246D01*
X180201500Y-68605246D01*
X180201500Y-61172697D01*
X180188084Y-61105246D01*
X181634000Y-61105246D01*
X181634000Y-61954602D01*
X181959034Y-62739304D01*
X182559620Y-63339890D01*
X183344322Y-63664924D01*
X184193678Y-63664924D01*
X184978380Y-63339890D01*
X185578966Y-62739304D01*
X185904000Y-61954602D01*
X185904000Y-61172698D01*
X200142000Y-61172698D01*
X200142001Y-69387151D01*
X200352442Y-70445109D01*
X201154080Y-71644845D01*
X202353816Y-72446483D01*
X203769000Y-72727981D01*
X205184185Y-72446483D01*
X206269000Y-71721633D01*
X207353815Y-72446483D01*
X208769000Y-72727981D01*
X210184184Y-72446483D01*
X211383921Y-71644845D01*
X212185559Y-70445109D01*
X212396000Y-69387151D01*
X212396000Y-62430448D01*
X230843000Y-62430448D01*
X230843000Y-64569552D01*
X231661599Y-66545826D01*
X233174174Y-68058401D01*
X235150448Y-68877000D01*
X237289552Y-68877000D01*
X239265826Y-68058401D01*
X240778401Y-66545826D01*
X241597000Y-64569552D01*
X241597000Y-62430448D01*
X240778401Y-60454174D01*
X239265826Y-58941599D01*
X237289552Y-58123000D01*
X235150448Y-58123000D01*
X233174174Y-58941599D01*
X231661599Y-60454174D01*
X230843000Y-62430448D01*
X212396000Y-62430448D01*
X212396000Y-61172697D01*
X212185559Y-60114739D01*
X211383921Y-58915003D01*
X210184185Y-58113365D01*
X208769000Y-57831867D01*
X207353816Y-58113365D01*
X206269000Y-58838216D01*
X205184184Y-58113365D01*
X203769000Y-57831867D01*
X202353815Y-58113365D01*
X201154079Y-58915003D01*
X200352441Y-60114740D01*
X200142000Y-61172698D01*
X185904000Y-61172698D01*
X185904000Y-61105246D01*
X185578966Y-60320544D01*
X184978380Y-59719958D01*
X184193678Y-59394924D01*
X183344322Y-59394924D01*
X182559620Y-59719958D01*
X181959034Y-60320544D01*
X181634000Y-61105246D01*
X180188084Y-61105246D01*
X179991059Y-60114739D01*
X179189421Y-58915003D01*
X177989685Y-58113365D01*
X176574500Y-57831867D01*
X175159316Y-58113365D01*
X174074500Y-58838216D01*
X172989684Y-58113365D01*
X171574500Y-57831867D01*
X170159315Y-58113365D01*
X168959579Y-58915003D01*
X168157941Y-60114740D01*
X167947500Y-61172698D01*
X153709500Y-61172698D01*
X153709500Y-61105246D01*
X153384466Y-60320544D01*
X152783880Y-59719958D01*
X151999178Y-59394924D01*
X151149822Y-59394924D01*
X150365120Y-59719958D01*
X149764534Y-60320544D01*
X149439500Y-61105246D01*
X147993584Y-61105246D01*
X147796559Y-60114739D01*
X146994921Y-58915003D01*
X145795185Y-58113365D01*
X144380000Y-57831867D01*
X142964816Y-58113365D01*
X141880000Y-58838216D01*
X140795184Y-58113365D01*
X139380000Y-57831867D01*
X137964815Y-58113365D01*
X136765079Y-58915003D01*
X135963441Y-60114740D01*
X135753000Y-61172698D01*
X121515000Y-61172698D01*
X121515000Y-61105246D01*
X121189966Y-60320544D01*
X120589380Y-59719958D01*
X119804678Y-59394924D01*
X118955322Y-59394924D01*
X118170620Y-59719958D01*
X117570034Y-60320544D01*
X117245000Y-61105246D01*
X115799084Y-61105246D01*
X115602059Y-60114739D01*
X114800421Y-58915003D01*
X113600685Y-58113365D01*
X112185500Y-57831867D01*
X110770316Y-58113365D01*
X109685500Y-58838216D01*
X108600684Y-58113365D01*
X107185500Y-57831867D01*
X105770315Y-58113365D01*
X104570579Y-58915003D01*
X103768941Y-60114740D01*
X103558500Y-61172698D01*
X89320500Y-61172698D01*
X89320500Y-61105246D01*
X88995466Y-60320544D01*
X88394880Y-59719958D01*
X87610178Y-59394924D01*
X86760822Y-59394924D01*
X85976120Y-59719958D01*
X85375534Y-60320544D01*
X85050500Y-61105246D01*
X83604584Y-61105246D01*
X83407559Y-60114739D01*
X82605921Y-58915003D01*
X81406185Y-58113365D01*
X79991000Y-57831867D01*
X78575816Y-58113365D01*
X77491000Y-58838216D01*
X76406184Y-58113365D01*
X74991000Y-57831867D01*
X73575815Y-58113365D01*
X72376079Y-58915003D01*
X71574441Y-60114740D01*
X71364000Y-61172698D01*
X57126000Y-61172698D01*
X57126000Y-61105246D01*
X56800966Y-60320544D01*
X56200380Y-59719958D01*
X55415678Y-59394924D01*
X54566322Y-59394924D01*
X53781620Y-59719958D01*
X53181034Y-60320544D01*
X52856000Y-61105246D01*
X52856000Y-61954602D01*
X52883496Y-62020983D01*
X51135000Y-63769479D01*
X51135000Y-50799500D01*
X60075715Y-50799500D01*
X60075715Y-54573500D01*
X73528286Y-54573500D01*
X73528286Y-53118001D01*
X212766000Y-53118001D01*
X212766000Y-54361999D01*
X213242057Y-55511303D01*
X213970754Y-56240000D01*
X213242057Y-56968697D01*
X212766000Y-58118001D01*
X212766000Y-59361999D01*
X213242057Y-60511303D01*
X214121697Y-61390943D01*
X215271001Y-61867000D01*
X216514999Y-61867000D01*
X217664303Y-61390943D01*
X218543943Y-60511303D01*
X219020000Y-59361999D01*
X219020000Y-58118001D01*
X218543943Y-56968697D01*
X217815246Y-56240000D01*
X218543943Y-55511303D01*
X219020000Y-54361999D01*
X219020000Y-53118001D01*
X220266000Y-53118001D01*
X220266000Y-54361999D01*
X220742057Y-55511303D01*
X221470754Y-56240000D01*
X220742057Y-56968697D01*
X220266000Y-58118001D01*
X220266000Y-59361999D01*
X220742057Y-60511303D01*
X221621697Y-61390943D01*
X222771001Y-61867000D01*
X224014999Y-61867000D01*
X225164303Y-61390943D01*
X226043943Y-60511303D01*
X226520000Y-59361999D01*
X226520000Y-58118001D01*
X226043943Y-56968697D01*
X225315246Y-56240000D01*
X226043943Y-55511303D01*
X226520000Y-54361999D01*
X226520000Y-53118001D01*
X226043943Y-51968697D01*
X225164303Y-51089057D01*
X224014999Y-50613000D01*
X222771001Y-50613000D01*
X221621697Y-51089057D01*
X220742057Y-51968697D01*
X220266000Y-53118001D01*
X219020000Y-53118001D01*
X218543943Y-51968697D01*
X217664303Y-51089057D01*
X216514999Y-50613000D01*
X215271001Y-50613000D01*
X214121697Y-51089057D01*
X213242057Y-51968697D01*
X212766000Y-53118001D01*
X73528286Y-53118001D01*
X73528286Y-50799500D01*
X60075715Y-50799500D01*
X51135000Y-50799500D01*
X51135000Y-41135000D01*
X248865000Y-41135000D01*
X248865000Y-88010695D01*
X248865000Y-88010695D01*
G37*
X248865000Y-88010695D02*
X248586443Y-87338197D01*
X247706803Y-86458557D01*
X246557499Y-85982500D01*
X245313501Y-85982500D01*
X244164197Y-86458557D01*
X243284557Y-87338197D01*
X242808500Y-88487501D01*
X242808500Y-89731499D01*
X243284557Y-90880803D01*
X244013254Y-91609500D01*
X243284557Y-92338197D01*
X242808500Y-93487501D01*
X242808500Y-94731499D01*
X243284557Y-95880803D01*
X244013254Y-96609500D01*
X243284557Y-97338197D01*
X242808500Y-98487501D01*
X242808500Y-99731499D01*
X243284557Y-100880803D01*
X244164197Y-101760443D01*
X245313501Y-102236500D01*
X246557499Y-102236500D01*
X247706803Y-101760443D01*
X248586443Y-100880803D01*
X248865001Y-100208305D01*
X248865001Y-142562142D01*
X248859729Y-142567394D01*
X248659173Y-142621000D01*
X213766710Y-142621000D01*
X213829560Y-142558150D01*
X213891058Y-142517058D01*
X213932149Y-142455561D01*
X213932151Y-142455559D01*
X214053861Y-142273407D01*
X214060506Y-142239999D01*
X214096600Y-142058544D01*
X214096600Y-142058541D01*
X214111029Y-141986000D01*
X214096600Y-141913460D01*
X214096600Y-135433109D01*
X214959111Y-134570599D01*
X215597461Y-134570599D01*
X215670001Y-134585028D01*
X215742541Y-134570599D01*
X215742545Y-134570599D01*
X215957408Y-134527860D01*
X216201059Y-134365057D01*
X216242152Y-134303557D01*
X216272541Y-134273168D01*
X216745322Y-134469000D01*
X217594678Y-134469000D01*
X218379380Y-134143966D01*
X218979966Y-133543380D01*
X219305000Y-132758678D01*
X219305000Y-131909322D01*
X218979966Y-131124620D01*
X218379380Y-130524034D01*
X217594678Y-130199000D01*
X216745322Y-130199000D01*
X215960620Y-130524034D01*
X215360034Y-131124620D01*
X215035000Y-131909322D01*
X215035000Y-132758678D01*
X215175303Y-133097399D01*
X214726541Y-133097399D01*
X214654001Y-133082970D01*
X214581460Y-133097399D01*
X214581457Y-133097399D01*
X214372315Y-133139000D01*
X214366594Y-133140138D01*
X214286420Y-133193709D01*
X214073280Y-132980569D01*
X213692874Y-132823000D01*
X213281126Y-132823000D01*
X212900720Y-132980569D01*
X212753703Y-133127586D01*
X212840500Y-132691227D01*
X212840500Y-127556126D01*
X218929000Y-127556126D01*
X218929000Y-127967874D01*
X219086569Y-128348280D01*
X219227400Y-128489111D01*
X219227401Y-129066888D01*
X219086569Y-129207720D01*
X218929000Y-129588126D01*
X218929000Y-129999874D01*
X219086569Y-130380280D01*
X219377720Y-130671431D01*
X219758126Y-130829000D01*
X220169874Y-130829000D01*
X220550280Y-130671431D01*
X220841431Y-130380280D01*
X220999000Y-129999874D01*
X220999000Y-129588126D01*
X220841431Y-129207720D01*
X220700600Y-129066889D01*
X220700600Y-128489111D01*
X220841431Y-128348280D01*
X220999000Y-127967874D01*
X220999000Y-127556126D01*
X220841431Y-127175720D01*
X220550280Y-126884569D01*
X220169874Y-126727000D01*
X219758126Y-126727000D01*
X219377720Y-126884569D01*
X219086569Y-127175720D01*
X218929000Y-127556126D01*
X212840500Y-127556126D01*
X212840500Y-124476773D01*
X212827084Y-124409322D01*
X215035000Y-124409322D01*
X215035000Y-125258678D01*
X215360034Y-126043380D01*
X215960620Y-126643966D01*
X216745322Y-126969000D01*
X217594678Y-126969000D01*
X218379380Y-126643966D01*
X218979966Y-126043380D01*
X219305000Y-125258678D01*
X219305000Y-124476774D01*
X233543000Y-124476774D01*
X233543001Y-132691227D01*
X233753442Y-133749185D01*
X234555080Y-134948921D01*
X235754816Y-135750559D01*
X237170000Y-136032057D01*
X238585185Y-135750559D01*
X239670000Y-135025709D01*
X240754815Y-135750559D01*
X242170000Y-136032057D01*
X243585184Y-135750559D01*
X244784921Y-134948921D01*
X245586559Y-133749185D01*
X245797000Y-132691227D01*
X245797000Y-124476773D01*
X245586559Y-123418815D01*
X244784921Y-122219079D01*
X243585185Y-121417441D01*
X242170000Y-121135943D01*
X240754816Y-121417441D01*
X239670000Y-122142292D01*
X238585184Y-121417441D01*
X237170000Y-121135943D01*
X235754815Y-121417441D01*
X234555079Y-122219079D01*
X233753441Y-123418816D01*
X233543000Y-124476774D01*
X219305000Y-124476774D01*
X219305000Y-124409322D01*
X218979966Y-123624620D01*
X218379380Y-123024034D01*
X217594678Y-122699000D01*
X216745322Y-122699000D01*
X215960620Y-123024034D01*
X215360034Y-123624620D01*
X215035000Y-124409322D01*
X212827084Y-124409322D01*
X212630059Y-123418815D01*
X211828421Y-122219079D01*
X210628685Y-121417441D01*
X209213500Y-121135943D01*
X207798316Y-121417441D01*
X206713501Y-122142292D01*
X205628685Y-121417441D01*
X204213500Y-121135943D01*
X202798316Y-121417441D01*
X201598580Y-122219079D01*
X200796942Y-123418815D01*
X200586501Y-124476773D01*
X200586500Y-132691226D01*
X200796941Y-133749184D01*
X201598579Y-134948921D01*
X202798315Y-135750559D01*
X204213500Y-136032057D01*
X205628684Y-135750559D01*
X206713500Y-135025709D01*
X207798315Y-135750559D01*
X209213500Y-136032057D01*
X210628684Y-135750559D01*
X211828421Y-134948921D01*
X212155255Y-134459780D01*
X212166189Y-134514751D01*
X212166190Y-141491508D01*
X211036699Y-142621000D01*
X180492709Y-142621000D01*
X181825560Y-141288150D01*
X181887058Y-141247058D01*
X181928149Y-141185561D01*
X181928151Y-141185559D01*
X182049861Y-141003407D01*
X182052167Y-140991815D01*
X182092600Y-140788544D01*
X182092600Y-140788541D01*
X182107029Y-140716000D01*
X182092600Y-140643460D01*
X182092600Y-134798109D01*
X182320111Y-134570599D01*
X182640961Y-134570599D01*
X182713501Y-134585028D01*
X182786041Y-134570599D01*
X182786045Y-134570599D01*
X183000908Y-134527860D01*
X183244559Y-134365057D01*
X183285652Y-134303557D01*
X183316041Y-134273168D01*
X183788822Y-134469000D01*
X184638178Y-134469000D01*
X185422880Y-134143966D01*
X186023466Y-133543380D01*
X186348500Y-132758678D01*
X186348500Y-131909322D01*
X186023466Y-131124620D01*
X185422880Y-130524034D01*
X184638178Y-130199000D01*
X183788822Y-130199000D01*
X183004120Y-130524034D01*
X182403534Y-131124620D01*
X182078500Y-131909322D01*
X182078500Y-132758678D01*
X182218803Y-133097399D01*
X182087541Y-133097399D01*
X182015000Y-133082970D01*
X181942460Y-133097399D01*
X181942457Y-133097399D01*
X181733315Y-133139000D01*
X181727594Y-133140138D01*
X181545442Y-133261848D01*
X181545440Y-133261850D01*
X181525474Y-133275191D01*
X181471431Y-133144720D01*
X181180280Y-132853569D01*
X180799874Y-132696000D01*
X180388126Y-132696000D01*
X180007720Y-132853569D01*
X179812970Y-133048319D01*
X179884000Y-132691227D01*
X179884000Y-127429126D01*
X186163000Y-127429126D01*
X186163000Y-127840874D01*
X186320569Y-128221280D01*
X186461400Y-128362111D01*
X186461401Y-129066888D01*
X186320569Y-129207720D01*
X186163000Y-129588126D01*
X186163000Y-129999874D01*
X186320569Y-130380280D01*
X186611720Y-130671431D01*
X186992126Y-130829000D01*
X187403874Y-130829000D01*
X187784280Y-130671431D01*
X188075431Y-130380280D01*
X188233000Y-129999874D01*
X188233000Y-129588126D01*
X188075431Y-129207720D01*
X187934600Y-129066889D01*
X187934600Y-128362111D01*
X188075431Y-128221280D01*
X188233000Y-127840874D01*
X188233000Y-127429126D01*
X188075431Y-127048720D01*
X187784280Y-126757569D01*
X187403874Y-126600000D01*
X186992126Y-126600000D01*
X186611720Y-126757569D01*
X186320569Y-127048720D01*
X186163000Y-127429126D01*
X179884000Y-127429126D01*
X179884000Y-124476773D01*
X179870584Y-124409322D01*
X182078500Y-124409322D01*
X182078500Y-125258678D01*
X182403534Y-126043380D01*
X183004120Y-126643966D01*
X183788822Y-126969000D01*
X184638178Y-126969000D01*
X185422880Y-126643966D01*
X186023466Y-126043380D01*
X186348500Y-125258678D01*
X186348500Y-124409322D01*
X186023466Y-123624620D01*
X185422880Y-123024034D01*
X184638178Y-122699000D01*
X183788822Y-122699000D01*
X183004120Y-123024034D01*
X182403534Y-123624620D01*
X182078500Y-124409322D01*
X179870584Y-124409322D01*
X179673559Y-123418815D01*
X178871921Y-122219079D01*
X177672185Y-121417441D01*
X176257000Y-121135943D01*
X174841816Y-121417441D01*
X173757001Y-122142292D01*
X172672185Y-121417441D01*
X171257000Y-121135943D01*
X169841816Y-121417441D01*
X168642080Y-122219079D01*
X167840442Y-123418815D01*
X167630001Y-124476773D01*
X167630000Y-132691226D01*
X167840441Y-133749184D01*
X168642079Y-134948921D01*
X169841815Y-135750559D01*
X171257000Y-136032057D01*
X172672184Y-135750559D01*
X173757000Y-135025709D01*
X174841815Y-135750559D01*
X176257000Y-136032057D01*
X177672184Y-135750559D01*
X178871921Y-134948921D01*
X179559000Y-133920635D01*
X179559000Y-133936874D01*
X179716569Y-134317280D01*
X179879470Y-134480181D01*
X179900139Y-134584092D01*
X179916402Y-134608431D01*
X179984400Y-134710197D01*
X179984401Y-140399297D01*
X178880299Y-141503400D01*
X172653948Y-141503400D01*
X172581408Y-141488971D01*
X172508867Y-141503400D01*
X172508864Y-141503400D01*
X172294001Y-141546139D01*
X172111849Y-141667849D01*
X172111847Y-141667851D01*
X172050350Y-141708942D01*
X172009259Y-141770440D01*
X171158699Y-142621000D01*
X162839709Y-142621000D01*
X162788600Y-142569891D01*
X162788600Y-132914538D01*
X162803029Y-132841999D01*
X162788600Y-132769460D01*
X162788600Y-132769456D01*
X162745861Y-132554593D01*
X162583058Y-132310942D01*
X162521558Y-132269849D01*
X162116151Y-131864442D01*
X162075058Y-131802942D01*
X161831407Y-131640139D01*
X161616544Y-131597400D01*
X161616540Y-131597400D01*
X161544000Y-131582971D01*
X161487008Y-131594307D01*
X161349270Y-131456569D01*
X160968864Y-131299000D01*
X160557116Y-131299000D01*
X160176710Y-131456569D01*
X159885559Y-131747720D01*
X159727990Y-132128126D01*
X159727990Y-132539874D01*
X159885559Y-132920280D01*
X160176710Y-133211431D01*
X160452399Y-133325625D01*
X160418959Y-133359065D01*
X160261390Y-133739471D01*
X160261390Y-134151219D01*
X160418959Y-134531625D01*
X160559791Y-134672457D01*
X160559790Y-142621000D01*
X160498109Y-142621000D01*
X159647550Y-141770441D01*
X159606458Y-141708942D01*
X159362807Y-141546139D01*
X159147944Y-141503400D01*
X159147940Y-141503400D01*
X159075400Y-141488971D01*
X159002860Y-141503400D01*
X131191309Y-141503400D01*
X130098800Y-140410891D01*
X130098800Y-133346340D01*
X130113229Y-133273800D01*
X130098800Y-133201259D01*
X130098800Y-133201256D01*
X130056061Y-132986393D01*
X129984810Y-132879758D01*
X129934351Y-132804241D01*
X129934349Y-132804239D01*
X129893258Y-132742742D01*
X129831760Y-132701650D01*
X129821336Y-132691226D01*
X134673500Y-132691226D01*
X134883941Y-133749184D01*
X135685579Y-134948921D01*
X136885315Y-135750559D01*
X138300500Y-136032057D01*
X139715684Y-135750559D01*
X140800500Y-135025709D01*
X141885315Y-135750559D01*
X143300500Y-136032057D01*
X144715684Y-135750559D01*
X145915421Y-134948921D01*
X146717059Y-133749185D01*
X146927500Y-132691227D01*
X146927500Y-131909322D01*
X149122000Y-131909322D01*
X149122000Y-132758678D01*
X149447034Y-133543380D01*
X150047620Y-134143966D01*
X150832322Y-134469000D01*
X151681678Y-134469000D01*
X152466380Y-134143966D01*
X153066966Y-133543380D01*
X153392000Y-132758678D01*
X153392000Y-131909322D01*
X153066966Y-131124620D01*
X152466380Y-130524034D01*
X151681678Y-130199000D01*
X150832322Y-130199000D01*
X150047620Y-130524034D01*
X149447034Y-131124620D01*
X149122000Y-131909322D01*
X146927500Y-131909322D01*
X146927500Y-127429126D01*
X161271000Y-127429126D01*
X161271000Y-127840874D01*
X161428569Y-128221280D01*
X161544000Y-128336711D01*
X161544001Y-129092288D01*
X161428569Y-129207720D01*
X161271000Y-129588126D01*
X161271000Y-129999874D01*
X161428569Y-130380280D01*
X161719720Y-130671431D01*
X162100126Y-130829000D01*
X162511874Y-130829000D01*
X162892280Y-130671431D01*
X163183431Y-130380280D01*
X163341000Y-129999874D01*
X163341000Y-129588126D01*
X163183431Y-129207720D01*
X163068000Y-129092289D01*
X163068000Y-128336711D01*
X163183431Y-128221280D01*
X163341000Y-127840874D01*
X163341000Y-127429126D01*
X163183431Y-127048720D01*
X162892280Y-126757569D01*
X162511874Y-126600000D01*
X162100126Y-126600000D01*
X161719720Y-126757569D01*
X161428569Y-127048720D01*
X161271000Y-127429126D01*
X146927500Y-127429126D01*
X146927500Y-124476773D01*
X146914084Y-124409322D01*
X149122000Y-124409322D01*
X149122000Y-125258678D01*
X149447034Y-126043380D01*
X150047620Y-126643966D01*
X150832322Y-126969000D01*
X151681678Y-126969000D01*
X152466380Y-126643966D01*
X153066966Y-126043380D01*
X153392000Y-125258678D01*
X153392000Y-124409322D01*
X153066966Y-123624620D01*
X152466380Y-123024034D01*
X151681678Y-122699000D01*
X150832322Y-122699000D01*
X150047620Y-123024034D01*
X149447034Y-123624620D01*
X149122000Y-124409322D01*
X146914084Y-124409322D01*
X146717059Y-123418815D01*
X145915421Y-122219079D01*
X144715685Y-121417441D01*
X143300500Y-121135943D01*
X141885316Y-121417441D01*
X140800501Y-122142292D01*
X139715685Y-121417441D01*
X138300500Y-121135943D01*
X136885316Y-121417441D01*
X135685580Y-122219079D01*
X134883942Y-123418815D01*
X134673501Y-124476773D01*
X134673500Y-132691226D01*
X129821336Y-132691226D01*
X129070751Y-131940642D01*
X129029658Y-131879142D01*
X128786007Y-131716339D01*
X128571144Y-131673600D01*
X128571140Y-131673600D01*
X128498600Y-131659171D01*
X128426060Y-131673600D01*
X128133511Y-131673600D01*
X127992680Y-131532769D01*
X127612274Y-131375200D01*
X127200526Y-131375200D01*
X126820120Y-131532769D01*
X126528969Y-131823920D01*
X126371400Y-132204326D01*
X126371400Y-132616074D01*
X126528969Y-132996480D01*
X126820120Y-133287631D01*
X127200526Y-133445200D01*
X127610632Y-133445200D01*
X127514400Y-133677526D01*
X127514400Y-134089274D01*
X127671969Y-134469680D01*
X127812801Y-134610512D01*
X127812800Y-141049860D01*
X127798371Y-141122400D01*
X127812800Y-141194940D01*
X127812800Y-141194943D01*
X127855539Y-141409806D01*
X128018342Y-141653458D01*
X128079842Y-141694551D01*
X128803113Y-142417822D01*
X104069389Y-142417822D01*
X103996849Y-142403393D01*
X103924308Y-142417822D01*
X103924305Y-142417822D01*
X103734589Y-142455559D01*
X103709442Y-142460561D01*
X103527290Y-142582271D01*
X103527288Y-142582273D01*
X103469329Y-142621000D01*
X101073012Y-142621000D01*
X101040596Y-142625207D01*
X100793810Y-142690355D01*
X100737427Y-142722353D01*
X100554951Y-142900819D01*
X100521707Y-142956479D01*
X100451093Y-143201757D01*
X100446167Y-143234070D01*
X100390955Y-145718607D01*
X99539758Y-146569804D01*
X99355892Y-146385938D01*
X98975486Y-146228369D01*
X98902045Y-146228369D01*
X96253300Y-143579625D01*
X96253300Y-134267611D01*
X96305231Y-134215680D01*
X96462800Y-133835274D01*
X96462800Y-133423526D01*
X96305231Y-133043120D01*
X96014080Y-132751969D01*
X95867434Y-132691226D01*
X101717000Y-132691226D01*
X101927441Y-133749184D01*
X102729079Y-134948921D01*
X103928815Y-135750559D01*
X105344000Y-136032057D01*
X106759184Y-135750559D01*
X107844000Y-135025709D01*
X108928815Y-135750559D01*
X110344000Y-136032057D01*
X111759184Y-135750559D01*
X112958921Y-134948921D01*
X113760559Y-133749185D01*
X113971000Y-132691227D01*
X113971000Y-131909322D01*
X116165500Y-131909322D01*
X116165500Y-132758678D01*
X116490534Y-133543380D01*
X117091120Y-134143966D01*
X117875822Y-134469000D01*
X118725178Y-134469000D01*
X119509880Y-134143966D01*
X120110466Y-133543380D01*
X120435500Y-132758678D01*
X120435500Y-131909322D01*
X120110466Y-131124620D01*
X119509880Y-130524034D01*
X118725178Y-130199000D01*
X117875822Y-130199000D01*
X117091120Y-130524034D01*
X116490534Y-131124620D01*
X116165500Y-131909322D01*
X113971000Y-131909322D01*
X113971000Y-129486526D01*
X127489000Y-129486526D01*
X127489000Y-129898274D01*
X127646569Y-130278680D01*
X127937720Y-130569831D01*
X128318126Y-130727400D01*
X128729874Y-130727400D01*
X129110280Y-130569831D01*
X129401431Y-130278680D01*
X129559000Y-129898274D01*
X129559000Y-129486526D01*
X129401431Y-129106120D01*
X129286000Y-128990689D01*
X129286000Y-128412911D01*
X129426831Y-128272080D01*
X129584400Y-127891674D01*
X129584400Y-127479926D01*
X129426831Y-127099520D01*
X129135680Y-126808369D01*
X128755274Y-126650800D01*
X128343526Y-126650800D01*
X127963120Y-126808369D01*
X127671969Y-127099520D01*
X127514400Y-127479926D01*
X127514400Y-127891674D01*
X127671969Y-128272080D01*
X127812800Y-128412911D01*
X127812801Y-128939888D01*
X127646569Y-129106120D01*
X127489000Y-129486526D01*
X113971000Y-129486526D01*
X113971000Y-124476773D01*
X113957584Y-124409322D01*
X116165500Y-124409322D01*
X116165500Y-125258678D01*
X116490534Y-126043380D01*
X117091120Y-126643966D01*
X117875822Y-126969000D01*
X118725178Y-126969000D01*
X119509880Y-126643966D01*
X120110466Y-126043380D01*
X120435500Y-125258678D01*
X120435500Y-124409322D01*
X120110466Y-123624620D01*
X119509880Y-123024034D01*
X118725178Y-122699000D01*
X117875822Y-122699000D01*
X117091120Y-123024034D01*
X116490534Y-123624620D01*
X116165500Y-124409322D01*
X113957584Y-124409322D01*
X113760559Y-123418815D01*
X112958921Y-122219079D01*
X111759185Y-121417441D01*
X110344000Y-121135943D01*
X108928816Y-121417441D01*
X107844001Y-122142292D01*
X106759185Y-121417441D01*
X105344000Y-121135943D01*
X103928816Y-121417441D01*
X102729080Y-122219079D01*
X101927442Y-123418815D01*
X101717001Y-124476773D01*
X101717000Y-132691226D01*
X95867434Y-132691226D01*
X95633674Y-132594400D01*
X95221926Y-132594400D01*
X94841520Y-132751969D01*
X94550369Y-133043120D01*
X94392800Y-133423526D01*
X94392800Y-133835274D01*
X94550369Y-134215680D01*
X94602300Y-134267611D01*
X94602301Y-143172638D01*
X86080600Y-134650938D01*
X86080600Y-134339798D01*
X86553380Y-134143966D01*
X87153966Y-133543380D01*
X87479000Y-132758678D01*
X87479000Y-131909322D01*
X87153966Y-131124620D01*
X86553380Y-130524034D01*
X85768678Y-130199000D01*
X84919322Y-130199000D01*
X84134620Y-130524034D01*
X83534034Y-131124620D01*
X83209000Y-131909322D01*
X83209000Y-132169955D01*
X83097231Y-131900120D01*
X82806080Y-131608969D01*
X82425674Y-131451400D01*
X82013926Y-131451400D01*
X81633520Y-131608969D01*
X81342369Y-131900120D01*
X81184800Y-132280526D01*
X81184800Y-132692274D01*
X81342369Y-133072680D01*
X81633520Y-133363831D01*
X82013926Y-133521400D01*
X82213091Y-133521400D01*
X96785395Y-148093705D01*
X96785396Y-149053576D01*
X96770966Y-149126121D01*
X96793547Y-149239644D01*
X96687353Y-149239644D01*
X82923000Y-135475291D01*
X82923000Y-135156234D01*
X82750207Y-134739074D01*
X82430926Y-134419793D01*
X82013766Y-134247000D01*
X81562234Y-134247000D01*
X81145074Y-134419793D01*
X80825793Y-134739074D01*
X80653000Y-135156234D01*
X80653000Y-135607766D01*
X80825793Y-136024926D01*
X81145074Y-136344207D01*
X81562234Y-136517000D01*
X81881291Y-136517000D01*
X95810093Y-150445802D01*
X95851186Y-150507302D01*
X95870788Y-150520400D01*
X63744846Y-150520400D01*
X62264999Y-149040554D01*
X62264999Y-140396000D01*
X67929943Y-140396000D01*
X68211441Y-141811185D01*
X69013079Y-143010921D01*
X69359417Y-143242337D01*
X68977057Y-143624697D01*
X68501000Y-144774001D01*
X68501000Y-146017999D01*
X68977057Y-147167303D01*
X69856697Y-148046943D01*
X71006001Y-148523000D01*
X72249999Y-148523000D01*
X73399303Y-148046943D01*
X74278943Y-147167303D01*
X74755000Y-146017999D01*
X74755000Y-144774001D01*
X74443925Y-144023000D01*
X76312075Y-144023000D01*
X76001000Y-144774001D01*
X76001000Y-146017999D01*
X76477057Y-147167303D01*
X77356697Y-148046943D01*
X78506001Y-148523000D01*
X79749999Y-148523000D01*
X80899303Y-148046943D01*
X81778943Y-147167303D01*
X82255000Y-146017999D01*
X82255000Y-144774001D01*
X81778943Y-143624697D01*
X81396583Y-143242337D01*
X81742921Y-143010921D01*
X82544559Y-141811185D01*
X82826057Y-140396000D01*
X82544559Y-138980815D01*
X81742921Y-137781079D01*
X80543185Y-136979441D01*
X79485227Y-136769000D01*
X71270773Y-136769000D01*
X70212815Y-136979441D01*
X69013079Y-137781079D01*
X68211441Y-138980815D01*
X67929943Y-140396000D01*
X62264999Y-140396000D01*
X62264999Y-136164569D01*
X62287391Y-136051998D01*
X62247521Y-135851558D01*
X62198681Y-135606023D01*
X61946056Y-135227942D01*
X61850620Y-135164174D01*
X58327826Y-131641381D01*
X58264056Y-131545942D01*
X57885975Y-131293317D01*
X57552571Y-131226999D01*
X57552570Y-131226999D01*
X57439999Y-131204607D01*
X57327428Y-131226999D01*
X53849445Y-131226999D01*
X52405010Y-129782565D01*
X52405010Y-126692448D01*
X58567500Y-126692448D01*
X58567500Y-128831552D01*
X59386099Y-130807826D01*
X60898674Y-132320401D01*
X62874948Y-133139000D01*
X65014052Y-133139000D01*
X66990326Y-132320401D01*
X68502901Y-130807826D01*
X69321500Y-128831552D01*
X69321500Y-126692448D01*
X68502901Y-124716174D01*
X68196049Y-124409322D01*
X83209000Y-124409322D01*
X83209000Y-125258678D01*
X83534034Y-126043380D01*
X84134620Y-126643966D01*
X84919322Y-126969000D01*
X85768678Y-126969000D01*
X86089059Y-126836294D01*
X88597471Y-129344707D01*
X88647067Y-129418933D01*
X88941130Y-129615419D01*
X89200444Y-129667000D01*
X89200448Y-129667000D01*
X89287999Y-129684415D01*
X89375550Y-129667000D01*
X95656177Y-129667000D01*
X95729384Y-129740207D01*
X96146544Y-129913000D01*
X96598076Y-129913000D01*
X97015236Y-129740207D01*
X97334517Y-129420926D01*
X97507310Y-129003766D01*
X97507310Y-128552234D01*
X97334517Y-128135074D01*
X97015236Y-127815793D01*
X96598076Y-127643000D01*
X96146544Y-127643000D01*
X95729384Y-127815793D01*
X95656177Y-127889000D01*
X89656236Y-127889000D01*
X87346294Y-125579059D01*
X87479000Y-125258678D01*
X87479000Y-124409322D01*
X87153966Y-123624620D01*
X86553380Y-123024034D01*
X85768678Y-122699000D01*
X84919322Y-122699000D01*
X84134620Y-123024034D01*
X83534034Y-123624620D01*
X83209000Y-124409322D01*
X68196049Y-124409322D01*
X66990326Y-123203599D01*
X65014052Y-122385000D01*
X62874948Y-122385000D01*
X60898674Y-123203599D01*
X59386099Y-124716174D01*
X58567500Y-126692448D01*
X52405010Y-126692448D01*
X52405010Y-119971322D01*
X69493000Y-119971322D01*
X69493000Y-120820678D01*
X69818034Y-121605380D01*
X70418620Y-122205966D01*
X71203322Y-122531000D01*
X72052678Y-122531000D01*
X72837380Y-122205966D01*
X73437966Y-121605380D01*
X73763000Y-120820678D01*
X73763000Y-119971322D01*
X76993000Y-119971322D01*
X76993000Y-120820678D01*
X77318034Y-121605380D01*
X77918620Y-122205966D01*
X78703322Y-122531000D01*
X79552678Y-122531000D01*
X80337380Y-122205966D01*
X80937966Y-121605380D01*
X81263000Y-120820678D01*
X81263000Y-119971322D01*
X80937966Y-119186620D01*
X80337380Y-118586034D01*
X79552678Y-118261000D01*
X78703322Y-118261000D01*
X77918620Y-118586034D01*
X77318034Y-119186620D01*
X76993000Y-119971322D01*
X73763000Y-119971322D01*
X73437966Y-119186620D01*
X72837380Y-118586034D01*
X72052678Y-118261000D01*
X71203322Y-118261000D01*
X70418620Y-118586034D01*
X69818034Y-119186620D01*
X69493000Y-119971322D01*
X52405010Y-119971322D01*
X52405010Y-115252500D01*
X72260039Y-115252500D01*
X72287534Y-115318880D01*
X72888120Y-115919466D01*
X73672822Y-116244500D01*
X74522178Y-116244500D01*
X75306880Y-115919466D01*
X75907466Y-115318880D01*
X76232500Y-114534178D01*
X76232500Y-113684822D01*
X79462500Y-113684822D01*
X79462500Y-114534178D01*
X79787534Y-115318880D01*
X80388120Y-115919466D01*
X81172822Y-116244500D01*
X82022178Y-116244500D01*
X82806880Y-115919466D01*
X83407466Y-115318880D01*
X83732500Y-114534178D01*
X83732500Y-113684822D01*
X104830100Y-113684822D01*
X104830100Y-114534178D01*
X105155134Y-115318880D01*
X105755720Y-115919466D01*
X106540422Y-116244500D01*
X107389778Y-116244500D01*
X108174480Y-115919466D01*
X108775066Y-115318880D01*
X109100100Y-114534178D01*
X109100100Y-113684822D01*
X112330100Y-113684822D01*
X112330100Y-114534178D01*
X112655134Y-115318880D01*
X113255720Y-115919466D01*
X114040422Y-116244500D01*
X114889778Y-116244500D01*
X115674480Y-115919466D01*
X116275066Y-115318880D01*
X116600100Y-114534178D01*
X116600100Y-113684822D01*
X137697700Y-113684822D01*
X137697700Y-114534178D01*
X138022734Y-115318880D01*
X138623320Y-115919466D01*
X139408022Y-116244500D01*
X140257378Y-116244500D01*
X141042080Y-115919466D01*
X141642666Y-115318880D01*
X141967700Y-114534178D01*
X141967700Y-113684822D01*
X145197700Y-113684822D01*
X145197700Y-114534178D01*
X145522734Y-115318880D01*
X146123320Y-115919466D01*
X146908022Y-116244500D01*
X147757378Y-116244500D01*
X148542080Y-115919466D01*
X149142666Y-115318880D01*
X149467700Y-114534178D01*
X149467700Y-113684822D01*
X170565300Y-113684822D01*
X170565300Y-114534178D01*
X170890334Y-115318880D01*
X171490920Y-115919466D01*
X172275622Y-116244500D01*
X173124978Y-116244500D01*
X173909680Y-115919466D01*
X174510266Y-115318880D01*
X174835300Y-114534178D01*
X174835300Y-113684822D01*
X178065300Y-113684822D01*
X178065300Y-114534178D01*
X178390334Y-115318880D01*
X178990920Y-115919466D01*
X179775622Y-116244500D01*
X180624978Y-116244500D01*
X181409680Y-115919466D01*
X182010266Y-115318880D01*
X182335300Y-114534178D01*
X182335300Y-113684822D01*
X203432900Y-113684822D01*
X203432900Y-114534178D01*
X203757934Y-115318880D01*
X204358520Y-115919466D01*
X205143222Y-116244500D01*
X205992578Y-116244500D01*
X206777280Y-115919466D01*
X207377866Y-115318880D01*
X207702900Y-114534178D01*
X207702900Y-113684822D01*
X210932900Y-113684822D01*
X210932900Y-114534178D01*
X211257934Y-115318880D01*
X211858520Y-115919466D01*
X212643222Y-116244500D01*
X213492578Y-116244500D01*
X214277280Y-115919466D01*
X214877866Y-115318880D01*
X215202900Y-114534178D01*
X215202900Y-113684822D01*
X236300500Y-113684822D01*
X236300500Y-114534178D01*
X236625534Y-115318880D01*
X237226120Y-115919466D01*
X238010822Y-116244500D01*
X238860178Y-116244500D01*
X239644880Y-115919466D01*
X240245466Y-115318880D01*
X240570500Y-114534178D01*
X240570500Y-113684822D01*
X243800500Y-113684822D01*
X243800500Y-114534178D01*
X244125534Y-115318880D01*
X244726120Y-115919466D01*
X245510822Y-116244500D01*
X246360178Y-116244500D01*
X247144880Y-115919466D01*
X247745466Y-115318880D01*
X248070500Y-114534178D01*
X248070500Y-113684822D01*
X247745466Y-112900120D01*
X247144880Y-112299534D01*
X246360178Y-111974500D01*
X245510822Y-111974500D01*
X244726120Y-112299534D01*
X244125534Y-112900120D01*
X243800500Y-113684822D01*
X240570500Y-113684822D01*
X240245466Y-112900120D01*
X239644880Y-112299534D01*
X238860178Y-111974500D01*
X238010822Y-111974500D01*
X237226120Y-112299534D01*
X236625534Y-112900120D01*
X236300500Y-113684822D01*
X215202900Y-113684822D01*
X214877866Y-112900120D01*
X214277280Y-112299534D01*
X213492578Y-111974500D01*
X212643222Y-111974500D01*
X211858520Y-112299534D01*
X211257934Y-112900120D01*
X210932900Y-113684822D01*
X207702900Y-113684822D01*
X207377866Y-112900120D01*
X206777280Y-112299534D01*
X205992578Y-111974500D01*
X205143222Y-111974500D01*
X204358520Y-112299534D01*
X203757934Y-112900120D01*
X203432900Y-113684822D01*
X182335300Y-113684822D01*
X182010266Y-112900120D01*
X181409680Y-112299534D01*
X180624978Y-111974500D01*
X179775622Y-111974500D01*
X178990920Y-112299534D01*
X178390334Y-112900120D01*
X178065300Y-113684822D01*
X174835300Y-113684822D01*
X174510266Y-112900120D01*
X173909680Y-112299534D01*
X173124978Y-111974500D01*
X172275622Y-111974500D01*
X171490920Y-112299534D01*
X170890334Y-112900120D01*
X170565300Y-113684822D01*
X149467700Y-113684822D01*
X149142666Y-112900120D01*
X148542080Y-112299534D01*
X147757378Y-111974500D01*
X146908022Y-111974500D01*
X146123320Y-112299534D01*
X145522734Y-112900120D01*
X145197700Y-113684822D01*
X141967700Y-113684822D01*
X141642666Y-112900120D01*
X141042080Y-112299534D01*
X140257378Y-111974500D01*
X139408022Y-111974500D01*
X138623320Y-112299534D01*
X138022734Y-112900120D01*
X137697700Y-113684822D01*
X116600100Y-113684822D01*
X116275066Y-112900120D01*
X115674480Y-112299534D01*
X114889778Y-111974500D01*
X114040422Y-111974500D01*
X113255720Y-112299534D01*
X112655134Y-112900120D01*
X112330100Y-113684822D01*
X109100100Y-113684822D01*
X108775066Y-112900120D01*
X108174480Y-112299534D01*
X107389778Y-111974500D01*
X106540422Y-111974500D01*
X105755720Y-112299534D01*
X105155134Y-112900120D01*
X104830100Y-113684822D01*
X83732500Y-113684822D01*
X83407466Y-112900120D01*
X82806880Y-112299534D01*
X82022178Y-111974500D01*
X81172822Y-111974500D01*
X80388120Y-112299534D01*
X79787534Y-112900120D01*
X79462500Y-113684822D01*
X76232500Y-113684822D01*
X75907466Y-112900120D01*
X75306880Y-112299534D01*
X74522178Y-111974500D01*
X73672822Y-111974500D01*
X72888120Y-112299534D01*
X72287534Y-112900120D01*
X72260039Y-112966500D01*
X52405010Y-112966500D01*
X52405010Y-107724234D01*
X94623000Y-107724234D01*
X94623000Y-108175766D01*
X94795793Y-108592926D01*
X95115074Y-108912207D01*
X95532234Y-109085000D01*
X95983766Y-109085000D01*
X96400926Y-108912207D01*
X96474133Y-108839000D01*
X105295765Y-108839000D01*
X106307000Y-109850236D01*
X106307000Y-109953766D01*
X106479793Y-110370926D01*
X106799074Y-110690207D01*
X107216234Y-110863000D01*
X107667766Y-110863000D01*
X108084926Y-110690207D01*
X108404207Y-110370926D01*
X108577000Y-109953766D01*
X108577000Y-109502234D01*
X108404207Y-109085074D01*
X108084926Y-108765793D01*
X107667766Y-108593000D01*
X107564236Y-108593000D01*
X106354531Y-107383296D01*
X106304933Y-107309067D01*
X106010870Y-107112581D01*
X105751556Y-107061000D01*
X105751555Y-107061000D01*
X105664000Y-107043584D01*
X105576445Y-107061000D01*
X96474133Y-107061000D01*
X96400926Y-106987793D01*
X95983766Y-106815000D01*
X95532234Y-106815000D01*
X95115074Y-106987793D01*
X94795793Y-107307074D01*
X94623000Y-107724234D01*
X52405010Y-107724234D01*
X52405010Y-106708234D01*
X126881000Y-106708234D01*
X126881000Y-107159766D01*
X127053793Y-107576926D01*
X127373074Y-107896207D01*
X127790234Y-108069000D01*
X127893765Y-108069000D01*
X128341471Y-108516706D01*
X128391067Y-108590933D01*
X128685130Y-108787419D01*
X128944444Y-108839000D01*
X128944445Y-108839000D01*
X129032000Y-108856416D01*
X129119555Y-108839000D01*
X139491867Y-108839000D01*
X139565074Y-108912207D01*
X139982234Y-109085000D01*
X140433766Y-109085000D01*
X140850926Y-108912207D01*
X141170207Y-108592926D01*
X141343000Y-108175766D01*
X141343000Y-107724234D01*
X141170207Y-107307074D01*
X141079367Y-107216234D01*
X160409008Y-107216234D01*
X160409008Y-107667766D01*
X160581801Y-108084926D01*
X160901082Y-108404207D01*
X161318242Y-108577000D01*
X161769774Y-108577000D01*
X162186934Y-108404207D01*
X162260141Y-108331000D01*
X174637765Y-108331000D01*
X175141000Y-108834236D01*
X175141000Y-108937766D01*
X175313793Y-109354926D01*
X175633074Y-109674207D01*
X176050234Y-109847000D01*
X176501766Y-109847000D01*
X176918926Y-109674207D01*
X177238207Y-109354926D01*
X177411000Y-108937766D01*
X177411000Y-108486234D01*
X177238207Y-108069074D01*
X176918926Y-107749793D01*
X176501766Y-107577000D01*
X176398236Y-107577000D01*
X175696531Y-106875296D01*
X175646933Y-106801067D01*
X175507999Y-106708234D01*
X192921000Y-106708234D01*
X192921000Y-107159766D01*
X193093793Y-107576926D01*
X193413074Y-107896207D01*
X193830234Y-108069000D01*
X194281766Y-108069000D01*
X194698926Y-107896207D01*
X194772133Y-107823000D01*
X205879765Y-107823000D01*
X207399000Y-109342236D01*
X207399000Y-109445766D01*
X207571793Y-109862926D01*
X207891074Y-110182207D01*
X208308234Y-110355000D01*
X208759766Y-110355000D01*
X209176926Y-110182207D01*
X209496207Y-109862926D01*
X209669000Y-109445766D01*
X209669000Y-108994234D01*
X209496207Y-108577074D01*
X209176926Y-108257793D01*
X208759766Y-108085000D01*
X208656236Y-108085000D01*
X207279470Y-106708234D01*
X225687000Y-106708234D01*
X225687000Y-107159766D01*
X225859793Y-107576926D01*
X226179074Y-107896207D01*
X226596234Y-108069000D01*
X227047766Y-108069000D01*
X227464926Y-107896207D01*
X227538133Y-107823000D01*
X238391765Y-107823000D01*
X239149001Y-108580237D01*
X239149001Y-108683767D01*
X239321794Y-109100927D01*
X239641075Y-109420208D01*
X240058235Y-109593001D01*
X240509767Y-109593001D01*
X240926927Y-109420208D01*
X241246208Y-109100927D01*
X241419001Y-108683767D01*
X241419001Y-108232235D01*
X241246208Y-107815075D01*
X240926927Y-107495794D01*
X240509767Y-107323001D01*
X240406237Y-107323001D01*
X239450531Y-106367296D01*
X239400933Y-106293067D01*
X239106870Y-106096581D01*
X238847556Y-106045000D01*
X238847555Y-106045000D01*
X238760000Y-106027584D01*
X238672445Y-106045000D01*
X227538133Y-106045000D01*
X227464926Y-105971793D01*
X227047766Y-105799000D01*
X226596234Y-105799000D01*
X226179074Y-105971793D01*
X225859793Y-106291074D01*
X225687000Y-106708234D01*
X207279470Y-106708234D01*
X206938531Y-106367296D01*
X206888933Y-106293067D01*
X206594870Y-106096581D01*
X206335556Y-106045000D01*
X206335555Y-106045000D01*
X206248000Y-106027584D01*
X206160445Y-106045000D01*
X194772133Y-106045000D01*
X194698926Y-105971793D01*
X194281766Y-105799000D01*
X193830234Y-105799000D01*
X193413074Y-105971793D01*
X193093793Y-106291074D01*
X192921000Y-106708234D01*
X175507999Y-106708234D01*
X175352870Y-106604581D01*
X175093556Y-106553000D01*
X175093555Y-106553000D01*
X175006000Y-106535584D01*
X174918445Y-106553000D01*
X162260141Y-106553000D01*
X162186934Y-106479793D01*
X161769774Y-106307000D01*
X161318242Y-106307000D01*
X160901082Y-106479793D01*
X160581801Y-106799074D01*
X160409008Y-107216234D01*
X141079367Y-107216234D01*
X140850926Y-106987793D01*
X140433766Y-106815000D01*
X139982234Y-106815000D01*
X139565074Y-106987793D01*
X139491867Y-107061000D01*
X129400236Y-107061000D01*
X129151000Y-106811765D01*
X129151000Y-106708234D01*
X128978207Y-106291074D01*
X128658926Y-105971793D01*
X128241766Y-105799000D01*
X127790234Y-105799000D01*
X127373074Y-105971793D01*
X127053793Y-106291074D01*
X126881000Y-106708234D01*
X52405010Y-106708234D01*
X52405010Y-95450448D01*
X61044000Y-95450448D01*
X61044000Y-97589552D01*
X61862599Y-99565826D01*
X63375174Y-101078401D01*
X65351448Y-101897000D01*
X67490552Y-101897000D01*
X69466826Y-101078401D01*
X70970500Y-99574727D01*
X70970500Y-99731499D01*
X71446557Y-100880803D01*
X72326197Y-101760443D01*
X73475501Y-102236500D01*
X74719499Y-102236500D01*
X75868803Y-101760443D01*
X76748443Y-100880803D01*
X77224500Y-99731499D01*
X77224500Y-98487501D01*
X76748443Y-97338197D01*
X76019746Y-96609500D01*
X76748443Y-95880803D01*
X77224500Y-94731499D01*
X77224500Y-93487501D01*
X76748443Y-92338197D01*
X76019746Y-91609500D01*
X76748443Y-90880803D01*
X77224500Y-89731499D01*
X77224500Y-88487501D01*
X78470500Y-88487501D01*
X78470500Y-89731499D01*
X78946557Y-90880803D01*
X79675254Y-91609500D01*
X78946557Y-92338197D01*
X78470500Y-93487501D01*
X78470500Y-94731499D01*
X78946557Y-95880803D01*
X79675254Y-96609500D01*
X78946557Y-97338197D01*
X78470500Y-98487501D01*
X78470500Y-99731499D01*
X78946557Y-100880803D01*
X79826197Y-101760443D01*
X80975501Y-102236500D01*
X82219499Y-102236500D01*
X83368803Y-101760443D01*
X84248443Y-100880803D01*
X84724500Y-99731499D01*
X84724500Y-98487501D01*
X84248443Y-97338197D01*
X83519746Y-96609500D01*
X84248443Y-95880803D01*
X84426701Y-95450448D01*
X93708400Y-95450448D01*
X93708400Y-97589552D01*
X94526999Y-99565826D01*
X96039574Y-101078401D01*
X98015848Y-101897000D01*
X100154952Y-101897000D01*
X102131226Y-101078401D01*
X103643801Y-99565826D01*
X103838100Y-99096746D01*
X103838100Y-99731499D01*
X104314157Y-100880803D01*
X105193797Y-101760443D01*
X106343101Y-102236500D01*
X107587099Y-102236500D01*
X108736403Y-101760443D01*
X109616043Y-100880803D01*
X110092100Y-99731499D01*
X110092100Y-98487501D01*
X109616043Y-97338197D01*
X108887346Y-96609500D01*
X109616043Y-95880803D01*
X110092100Y-94731499D01*
X110092100Y-93487501D01*
X109616043Y-92338197D01*
X108887346Y-91609500D01*
X109616043Y-90880803D01*
X110092100Y-89731499D01*
X110092100Y-88487501D01*
X111338100Y-88487501D01*
X111338100Y-89731499D01*
X111814157Y-90880803D01*
X112542854Y-91609500D01*
X111814157Y-92338197D01*
X111338100Y-93487501D01*
X111338100Y-94731499D01*
X111814157Y-95880803D01*
X112542854Y-96609500D01*
X111814157Y-97338197D01*
X111338100Y-98487501D01*
X111338100Y-99731499D01*
X111814157Y-100880803D01*
X112693797Y-101760443D01*
X113843101Y-102236500D01*
X115087099Y-102236500D01*
X116236403Y-101760443D01*
X117116043Y-100880803D01*
X117592100Y-99731499D01*
X117592100Y-98487501D01*
X117116043Y-97338197D01*
X116387346Y-96609500D01*
X117116043Y-95880803D01*
X117294301Y-95450448D01*
X126372800Y-95450448D01*
X126372800Y-97589552D01*
X127191399Y-99565826D01*
X128703974Y-101078401D01*
X130680248Y-101897000D01*
X132819352Y-101897000D01*
X134795626Y-101078401D01*
X136308201Y-99565826D01*
X136705700Y-98606178D01*
X136705700Y-99731499D01*
X137181757Y-100880803D01*
X138061397Y-101760443D01*
X139210701Y-102236500D01*
X140454699Y-102236500D01*
X141604003Y-101760443D01*
X142483643Y-100880803D01*
X142959700Y-99731499D01*
X142959700Y-98487501D01*
X142483643Y-97338197D01*
X141754946Y-96609500D01*
X142483643Y-95880803D01*
X142959700Y-94731499D01*
X142959700Y-93487501D01*
X142483643Y-92338197D01*
X141754946Y-91609500D01*
X142483643Y-90880803D01*
X142959700Y-89731499D01*
X142959700Y-88487501D01*
X144205700Y-88487501D01*
X144205700Y-89731499D01*
X144681757Y-90880803D01*
X145410454Y-91609500D01*
X144681757Y-92338197D01*
X144205700Y-93487501D01*
X144205700Y-94731499D01*
X144681757Y-95880803D01*
X145410454Y-96609500D01*
X144681757Y-97338197D01*
X144205700Y-98487501D01*
X144205700Y-99731499D01*
X144681757Y-100880803D01*
X145561397Y-101760443D01*
X146710701Y-102236500D01*
X147954699Y-102236500D01*
X149104003Y-101760443D01*
X149983643Y-100880803D01*
X150459700Y-99731499D01*
X150459700Y-98487501D01*
X149983643Y-97338197D01*
X149254946Y-96609500D01*
X149983643Y-95880803D01*
X150161901Y-95450448D01*
X159037200Y-95450448D01*
X159037200Y-97589552D01*
X159855799Y-99565826D01*
X161368374Y-101078401D01*
X163344648Y-101897000D01*
X165483752Y-101897000D01*
X167460026Y-101078401D01*
X168972601Y-99565826D01*
X169791200Y-97589552D01*
X169791200Y-95450448D01*
X168972601Y-93474174D01*
X167460026Y-91961599D01*
X165483752Y-91143000D01*
X163344648Y-91143000D01*
X161368374Y-91961599D01*
X159855799Y-93474174D01*
X159037200Y-95450448D01*
X150161901Y-95450448D01*
X150459700Y-94731499D01*
X150459700Y-93487501D01*
X149983643Y-92338197D01*
X149254946Y-91609500D01*
X149983643Y-90880803D01*
X150459700Y-89731499D01*
X150459700Y-88487501D01*
X169573300Y-88487501D01*
X169573300Y-89731499D01*
X170049357Y-90880803D01*
X170778054Y-91609500D01*
X170049357Y-92338197D01*
X169573300Y-93487501D01*
X169573300Y-94731499D01*
X170049357Y-95880803D01*
X170778054Y-96609500D01*
X170049357Y-97338197D01*
X169573300Y-98487501D01*
X169573300Y-99731499D01*
X170049357Y-100880803D01*
X170928997Y-101760443D01*
X172078301Y-102236500D01*
X173322299Y-102236500D01*
X174471603Y-101760443D01*
X175351243Y-100880803D01*
X175827300Y-99731499D01*
X175827300Y-98487501D01*
X175351243Y-97338197D01*
X174622546Y-96609500D01*
X175351243Y-95880803D01*
X175827300Y-94731499D01*
X175827300Y-93487501D01*
X175351243Y-92338197D01*
X174622546Y-91609500D01*
X175351243Y-90880803D01*
X175827300Y-89731499D01*
X175827300Y-88487501D01*
X177073300Y-88487501D01*
X177073300Y-89731499D01*
X177549357Y-90880803D01*
X178278054Y-91609500D01*
X177549357Y-92338197D01*
X177073300Y-93487501D01*
X177073300Y-94731499D01*
X177549357Y-95880803D01*
X178278054Y-96609500D01*
X177549357Y-97338197D01*
X177073300Y-98487501D01*
X177073300Y-99731499D01*
X177549357Y-100880803D01*
X178428997Y-101760443D01*
X179578301Y-102236500D01*
X180822299Y-102236500D01*
X181971603Y-101760443D01*
X182851243Y-100880803D01*
X183327300Y-99731499D01*
X183327300Y-98487501D01*
X182851243Y-97338197D01*
X182122546Y-96609500D01*
X182851243Y-95880803D01*
X183029501Y-95450448D01*
X191701600Y-95450448D01*
X191701600Y-97589552D01*
X192520199Y-99565826D01*
X194032774Y-101078401D01*
X196009048Y-101897000D01*
X198148152Y-101897000D01*
X200124426Y-101078401D01*
X201637001Y-99565826D01*
X202455600Y-97589552D01*
X202455600Y-95450448D01*
X201637001Y-93474174D01*
X200124426Y-91961599D01*
X198148152Y-91143000D01*
X196009048Y-91143000D01*
X194032774Y-91961599D01*
X192520199Y-93474174D01*
X191701600Y-95450448D01*
X183029501Y-95450448D01*
X183327300Y-94731499D01*
X183327300Y-93487501D01*
X182851243Y-92338197D01*
X182122546Y-91609500D01*
X182851243Y-90880803D01*
X183327300Y-89731499D01*
X183327300Y-88487501D01*
X202440900Y-88487501D01*
X202440900Y-89731499D01*
X202916957Y-90880803D01*
X203645654Y-91609500D01*
X202916957Y-92338197D01*
X202440900Y-93487501D01*
X202440900Y-94731499D01*
X202916957Y-95880803D01*
X203645654Y-96609500D01*
X202916957Y-97338197D01*
X202440900Y-98487501D01*
X202440900Y-99731499D01*
X202916957Y-100880803D01*
X203796597Y-101760443D01*
X204945901Y-102236500D01*
X206189899Y-102236500D01*
X207339203Y-101760443D01*
X208218843Y-100880803D01*
X208694900Y-99731499D01*
X208694900Y-98487501D01*
X208218843Y-97338197D01*
X207490146Y-96609500D01*
X208218843Y-95880803D01*
X208694900Y-94731499D01*
X208694900Y-93487501D01*
X208218843Y-92338197D01*
X207490146Y-91609500D01*
X208218843Y-90880803D01*
X208694900Y-89731499D01*
X208694900Y-88487501D01*
X209940900Y-88487501D01*
X209940900Y-89731499D01*
X210416957Y-90880803D01*
X211145654Y-91609500D01*
X210416957Y-92338197D01*
X209940900Y-93487501D01*
X209940900Y-94731499D01*
X210416957Y-95880803D01*
X211145654Y-96609500D01*
X210416957Y-97338197D01*
X209940900Y-98487501D01*
X209940900Y-99731499D01*
X210416957Y-100880803D01*
X211296597Y-101760443D01*
X212445901Y-102236500D01*
X213689899Y-102236500D01*
X214839203Y-101760443D01*
X215718843Y-100880803D01*
X216194900Y-99731499D01*
X216194900Y-98487501D01*
X215718843Y-97338197D01*
X214990146Y-96609500D01*
X215718843Y-95880803D01*
X215897101Y-95450448D01*
X224366000Y-95450448D01*
X224366000Y-97589552D01*
X225184599Y-99565826D01*
X226697174Y-101078401D01*
X228673448Y-101897000D01*
X230812552Y-101897000D01*
X232788826Y-101078401D01*
X234301401Y-99565826D01*
X235120000Y-97589552D01*
X235120000Y-95450448D01*
X234301401Y-93474174D01*
X232788826Y-91961599D01*
X230812552Y-91143000D01*
X228673448Y-91143000D01*
X226697174Y-91961599D01*
X225184599Y-93474174D01*
X224366000Y-95450448D01*
X215897101Y-95450448D01*
X216194900Y-94731499D01*
X216194900Y-93487501D01*
X215718843Y-92338197D01*
X214990146Y-91609500D01*
X215718843Y-90880803D01*
X216194900Y-89731499D01*
X216194900Y-88487501D01*
X235308500Y-88487501D01*
X235308500Y-89731499D01*
X235784557Y-90880803D01*
X236513254Y-91609500D01*
X235784557Y-92338197D01*
X235308500Y-93487501D01*
X235308500Y-94731499D01*
X235784557Y-95880803D01*
X236513254Y-96609500D01*
X235784557Y-97338197D01*
X235308500Y-98487501D01*
X235308500Y-99731499D01*
X235784557Y-100880803D01*
X236664197Y-101760443D01*
X237813501Y-102236500D01*
X239057499Y-102236500D01*
X240206803Y-101760443D01*
X241086443Y-100880803D01*
X241562500Y-99731499D01*
X241562500Y-98487501D01*
X241086443Y-97338197D01*
X240357746Y-96609500D01*
X241086443Y-95880803D01*
X241562500Y-94731499D01*
X241562500Y-93487501D01*
X241086443Y-92338197D01*
X240357746Y-91609500D01*
X241086443Y-90880803D01*
X241562500Y-89731499D01*
X241562500Y-88487501D01*
X241086443Y-87338197D01*
X240206803Y-86458557D01*
X239057499Y-85982500D01*
X237813501Y-85982500D01*
X236664197Y-86458557D01*
X235784557Y-87338197D01*
X235308500Y-88487501D01*
X216194900Y-88487501D01*
X215718843Y-87338197D01*
X214839203Y-86458557D01*
X213689899Y-85982500D01*
X212445901Y-85982500D01*
X211296597Y-86458557D01*
X210416957Y-87338197D01*
X209940900Y-88487501D01*
X208694900Y-88487501D01*
X208218843Y-87338197D01*
X207339203Y-86458557D01*
X206189899Y-85982500D01*
X204945901Y-85982500D01*
X203796597Y-86458557D01*
X202916957Y-87338197D01*
X202440900Y-88487501D01*
X183327300Y-88487501D01*
X182851243Y-87338197D01*
X181971603Y-86458557D01*
X180822299Y-85982500D01*
X179578301Y-85982500D01*
X178428997Y-86458557D01*
X177549357Y-87338197D01*
X177073300Y-88487501D01*
X175827300Y-88487501D01*
X175351243Y-87338197D01*
X174471603Y-86458557D01*
X173322299Y-85982500D01*
X172078301Y-85982500D01*
X170928997Y-86458557D01*
X170049357Y-87338197D01*
X169573300Y-88487501D01*
X150459700Y-88487501D01*
X149983643Y-87338197D01*
X149104003Y-86458557D01*
X147954699Y-85982500D01*
X146710701Y-85982500D01*
X145561397Y-86458557D01*
X144681757Y-87338197D01*
X144205700Y-88487501D01*
X142959700Y-88487501D01*
X142483643Y-87338197D01*
X141604003Y-86458557D01*
X140454699Y-85982500D01*
X139210701Y-85982500D01*
X138061397Y-86458557D01*
X137181757Y-87338197D01*
X136705700Y-88487501D01*
X136705700Y-89731499D01*
X137181757Y-90880803D01*
X137910454Y-91609500D01*
X137181757Y-92338197D01*
X136705700Y-93487501D01*
X136705700Y-94433822D01*
X136308201Y-93474174D01*
X134795626Y-91961599D01*
X132819352Y-91143000D01*
X130680248Y-91143000D01*
X128703974Y-91961599D01*
X127191399Y-93474174D01*
X126372800Y-95450448D01*
X117294301Y-95450448D01*
X117592100Y-94731499D01*
X117592100Y-93487501D01*
X117116043Y-92338197D01*
X116387346Y-91609500D01*
X117116043Y-90880803D01*
X117592100Y-89731499D01*
X117592100Y-88487501D01*
X117116043Y-87338197D01*
X116236403Y-86458557D01*
X115087099Y-85982500D01*
X113843101Y-85982500D01*
X112693797Y-86458557D01*
X111814157Y-87338197D01*
X111338100Y-88487501D01*
X110092100Y-88487501D01*
X109616043Y-87338197D01*
X108736403Y-86458557D01*
X107587099Y-85982500D01*
X106343101Y-85982500D01*
X105193797Y-86458557D01*
X104314157Y-87338197D01*
X103838100Y-88487501D01*
X103838100Y-89731499D01*
X104314157Y-90880803D01*
X105042854Y-91609500D01*
X104314157Y-92338197D01*
X103838100Y-93487501D01*
X103838100Y-93943254D01*
X103643801Y-93474174D01*
X102131226Y-91961599D01*
X100154952Y-91143000D01*
X98015848Y-91143000D01*
X96039574Y-91961599D01*
X94526999Y-93474174D01*
X93708400Y-95450448D01*
X84426701Y-95450448D01*
X84724500Y-94731499D01*
X84724500Y-93487501D01*
X84248443Y-92338197D01*
X83519746Y-91609500D01*
X84248443Y-90880803D01*
X84724500Y-89731499D01*
X84724500Y-88487501D01*
X84248443Y-87338197D01*
X83368803Y-86458557D01*
X82219499Y-85982500D01*
X80975501Y-85982500D01*
X79826197Y-86458557D01*
X78946557Y-87338197D01*
X78470500Y-88487501D01*
X77224500Y-88487501D01*
X76748443Y-87338197D01*
X75868803Y-86458557D01*
X74719499Y-85982500D01*
X73475501Y-85982500D01*
X72326197Y-86458557D01*
X71446557Y-87338197D01*
X70970500Y-88487501D01*
X70970500Y-89731499D01*
X71446557Y-90880803D01*
X72175254Y-91609500D01*
X71446557Y-92338197D01*
X70977010Y-93471783D01*
X69466826Y-91961599D01*
X67490552Y-91143000D01*
X65351448Y-91143000D01*
X63375174Y-91961599D01*
X61862599Y-93474174D01*
X61044000Y-95450448D01*
X52405010Y-95450448D01*
X52405010Y-78315322D01*
X213758000Y-78315322D01*
X213758000Y-79164678D01*
X214083034Y-79949380D01*
X214683620Y-80549966D01*
X215468322Y-80875000D01*
X216317678Y-80875000D01*
X217102380Y-80549966D01*
X217702966Y-79949380D01*
X218028000Y-79164678D01*
X218028000Y-78315322D01*
X221258000Y-78315322D01*
X221258000Y-79164678D01*
X221583034Y-79949380D01*
X222183620Y-80549966D01*
X222968322Y-80875000D01*
X223817678Y-80875000D01*
X224602380Y-80549966D01*
X225202966Y-79949380D01*
X225528000Y-79164678D01*
X225528000Y-78315322D01*
X225202966Y-77530620D01*
X224602380Y-76930034D01*
X223817678Y-76605000D01*
X222968322Y-76605000D01*
X222183620Y-76930034D01*
X221583034Y-77530620D01*
X221258000Y-78315322D01*
X218028000Y-78315322D01*
X217702966Y-77530620D01*
X217102380Y-76930034D01*
X216317678Y-76605000D01*
X215468322Y-76605000D01*
X214683620Y-76930034D01*
X214083034Y-77530620D01*
X213758000Y-78315322D01*
X52405010Y-78315322D01*
X52405010Y-68605246D01*
X52856000Y-68605246D01*
X52856000Y-69454602D01*
X53181034Y-70239304D01*
X53781620Y-70839890D01*
X54566322Y-71164924D01*
X55415678Y-71164924D01*
X56200380Y-70839890D01*
X56800966Y-70239304D01*
X57126000Y-69454602D01*
X57126000Y-68605246D01*
X56800966Y-67820544D01*
X56200380Y-67219958D01*
X55415678Y-66894924D01*
X54566322Y-66894924D01*
X53781620Y-67219958D01*
X53181034Y-67820544D01*
X52856000Y-68605246D01*
X52405010Y-68605246D01*
X52405010Y-65732359D01*
X54499941Y-63637428D01*
X54566322Y-63664924D01*
X55415678Y-63664924D01*
X56200380Y-63339890D01*
X56800966Y-62739304D01*
X57126000Y-61954602D01*
X57126000Y-61172698D01*
X71364000Y-61172698D01*
X71364001Y-69387151D01*
X71574442Y-70445109D01*
X72376080Y-71644845D01*
X73575816Y-72446483D01*
X74991000Y-72727981D01*
X76406185Y-72446483D01*
X77491000Y-71721633D01*
X78575815Y-72446483D01*
X79991000Y-72727981D01*
X81406184Y-72446483D01*
X82605921Y-71644845D01*
X83407559Y-70445109D01*
X83618000Y-69387151D01*
X83618000Y-68605246D01*
X85050500Y-68605246D01*
X85050500Y-69454602D01*
X85375534Y-70239304D01*
X85976120Y-70839890D01*
X86760822Y-71164924D01*
X87610178Y-71164924D01*
X88394880Y-70839890D01*
X88995466Y-70239304D01*
X89320500Y-69454602D01*
X89320500Y-68605246D01*
X88995466Y-67820544D01*
X88394880Y-67219958D01*
X87610178Y-66894924D01*
X86760822Y-66894924D01*
X85976120Y-67219958D01*
X85375534Y-67820544D01*
X85050500Y-68605246D01*
X83618000Y-68605246D01*
X83618000Y-61172697D01*
X83604584Y-61105246D01*
X85050500Y-61105246D01*
X85050500Y-61954602D01*
X85375534Y-62739304D01*
X85976120Y-63339890D01*
X86760822Y-63664924D01*
X87610178Y-63664924D01*
X88394880Y-63339890D01*
X88995466Y-62739304D01*
X89320500Y-61954602D01*
X89320500Y-61172698D01*
X103558500Y-61172698D01*
X103558501Y-69387151D01*
X103768942Y-70445109D01*
X104570580Y-71644845D01*
X105770316Y-72446483D01*
X107185500Y-72727981D01*
X108600685Y-72446483D01*
X109685500Y-71721633D01*
X110770315Y-72446483D01*
X112185500Y-72727981D01*
X113600684Y-72446483D01*
X114800421Y-71644845D01*
X115602059Y-70445109D01*
X115812500Y-69387151D01*
X115812500Y-68605246D01*
X117245000Y-68605246D01*
X117245000Y-69454602D01*
X117570034Y-70239304D01*
X118170620Y-70839890D01*
X118955322Y-71164924D01*
X119804678Y-71164924D01*
X120589380Y-70839890D01*
X121189966Y-70239304D01*
X121515000Y-69454602D01*
X121515000Y-68605246D01*
X121189966Y-67820544D01*
X120589380Y-67219958D01*
X119804678Y-66894924D01*
X118955322Y-66894924D01*
X118170620Y-67219958D01*
X117570034Y-67820544D01*
X117245000Y-68605246D01*
X115812500Y-68605246D01*
X115812500Y-61172697D01*
X115799084Y-61105246D01*
X117245000Y-61105246D01*
X117245000Y-61954602D01*
X117570034Y-62739304D01*
X118170620Y-63339890D01*
X118955322Y-63664924D01*
X119804678Y-63664924D01*
X120589380Y-63339890D01*
X121189966Y-62739304D01*
X121515000Y-61954602D01*
X121515000Y-61172698D01*
X135753000Y-61172698D01*
X135753001Y-69387151D01*
X135963442Y-70445109D01*
X136765080Y-71644845D01*
X137964816Y-72446483D01*
X139380000Y-72727981D01*
X140795185Y-72446483D01*
X141880000Y-71721633D01*
X142964815Y-72446483D01*
X144380000Y-72727981D01*
X145795184Y-72446483D01*
X146994921Y-71644845D01*
X147796559Y-70445109D01*
X148007000Y-69387151D01*
X148007000Y-68605246D01*
X149439500Y-68605246D01*
X149439500Y-69454602D01*
X149764534Y-70239304D01*
X150365120Y-70839890D01*
X151149822Y-71164924D01*
X151999178Y-71164924D01*
X152783880Y-70839890D01*
X153384466Y-70239304D01*
X153709500Y-69454602D01*
X153709500Y-68605246D01*
X153384466Y-67820544D01*
X152783880Y-67219958D01*
X151999178Y-66894924D01*
X151149822Y-66894924D01*
X150365120Y-67219958D01*
X149764534Y-67820544D01*
X149439500Y-68605246D01*
X148007000Y-68605246D01*
X148007000Y-61172697D01*
X147993584Y-61105246D01*
X149439500Y-61105246D01*
X149439500Y-61954602D01*
X149764534Y-62739304D01*
X150365120Y-63339890D01*
X151149822Y-63664924D01*
X151999178Y-63664924D01*
X152783880Y-63339890D01*
X153384466Y-62739304D01*
X153709500Y-61954602D01*
X153709500Y-61172698D01*
X167947500Y-61172698D01*
X167947501Y-69387151D01*
X168157942Y-70445109D01*
X168959580Y-71644845D01*
X170159316Y-72446483D01*
X171574500Y-72727981D01*
X172989685Y-72446483D01*
X174074500Y-71721633D01*
X175159315Y-72446483D01*
X176574500Y-72727981D01*
X177989684Y-72446483D01*
X179189421Y-71644845D01*
X179991059Y-70445109D01*
X180201500Y-69387151D01*
X180201500Y-68605246D01*
X181634000Y-68605246D01*
X181634000Y-69454602D01*
X181959034Y-70239304D01*
X182559620Y-70839890D01*
X183344322Y-71164924D01*
X184193678Y-71164924D01*
X184978380Y-70839890D01*
X185578966Y-70239304D01*
X185904000Y-69454602D01*
X185904000Y-68605246D01*
X185578966Y-67820544D01*
X184978380Y-67219958D01*
X184193678Y-66894924D01*
X183344322Y-66894924D01*
X182559620Y-67219958D01*
X181959034Y-67820544D01*
X181634000Y-68605246D01*
X180201500Y-68605246D01*
X180201500Y-61172697D01*
X180188084Y-61105246D01*
X181634000Y-61105246D01*
X181634000Y-61954602D01*
X181959034Y-62739304D01*
X182559620Y-63339890D01*
X183344322Y-63664924D01*
X184193678Y-63664924D01*
X184978380Y-63339890D01*
X185578966Y-62739304D01*
X185904000Y-61954602D01*
X185904000Y-61172698D01*
X200142000Y-61172698D01*
X200142001Y-69387151D01*
X200352442Y-70445109D01*
X201154080Y-71644845D01*
X202353816Y-72446483D01*
X203769000Y-72727981D01*
X205184185Y-72446483D01*
X206269000Y-71721633D01*
X207353815Y-72446483D01*
X208769000Y-72727981D01*
X210184184Y-72446483D01*
X211383921Y-71644845D01*
X212185559Y-70445109D01*
X212396000Y-69387151D01*
X212396000Y-62430448D01*
X230843000Y-62430448D01*
X230843000Y-64569552D01*
X231661599Y-66545826D01*
X233174174Y-68058401D01*
X235150448Y-68877000D01*
X237289552Y-68877000D01*
X239265826Y-68058401D01*
X240778401Y-66545826D01*
X241597000Y-64569552D01*
X241597000Y-62430448D01*
X240778401Y-60454174D01*
X239265826Y-58941599D01*
X237289552Y-58123000D01*
X235150448Y-58123000D01*
X233174174Y-58941599D01*
X231661599Y-60454174D01*
X230843000Y-62430448D01*
X212396000Y-62430448D01*
X212396000Y-61172697D01*
X212185559Y-60114739D01*
X211383921Y-58915003D01*
X210184185Y-58113365D01*
X208769000Y-57831867D01*
X207353816Y-58113365D01*
X206269000Y-58838216D01*
X205184184Y-58113365D01*
X203769000Y-57831867D01*
X202353815Y-58113365D01*
X201154079Y-58915003D01*
X200352441Y-60114740D01*
X200142000Y-61172698D01*
X185904000Y-61172698D01*
X185904000Y-61105246D01*
X185578966Y-60320544D01*
X184978380Y-59719958D01*
X184193678Y-59394924D01*
X183344322Y-59394924D01*
X182559620Y-59719958D01*
X181959034Y-60320544D01*
X181634000Y-61105246D01*
X180188084Y-61105246D01*
X179991059Y-60114739D01*
X179189421Y-58915003D01*
X177989685Y-58113365D01*
X176574500Y-57831867D01*
X175159316Y-58113365D01*
X174074500Y-58838216D01*
X172989684Y-58113365D01*
X171574500Y-57831867D01*
X170159315Y-58113365D01*
X168959579Y-58915003D01*
X168157941Y-60114740D01*
X167947500Y-61172698D01*
X153709500Y-61172698D01*
X153709500Y-61105246D01*
X153384466Y-60320544D01*
X152783880Y-59719958D01*
X151999178Y-59394924D01*
X151149822Y-59394924D01*
X150365120Y-59719958D01*
X149764534Y-60320544D01*
X149439500Y-61105246D01*
X147993584Y-61105246D01*
X147796559Y-60114739D01*
X146994921Y-58915003D01*
X145795185Y-58113365D01*
X144380000Y-57831867D01*
X142964816Y-58113365D01*
X141880000Y-58838216D01*
X140795184Y-58113365D01*
X139380000Y-57831867D01*
X137964815Y-58113365D01*
X136765079Y-58915003D01*
X135963441Y-60114740D01*
X135753000Y-61172698D01*
X121515000Y-61172698D01*
X121515000Y-61105246D01*
X121189966Y-60320544D01*
X120589380Y-59719958D01*
X119804678Y-59394924D01*
X118955322Y-59394924D01*
X118170620Y-59719958D01*
X117570034Y-60320544D01*
X117245000Y-61105246D01*
X115799084Y-61105246D01*
X115602059Y-60114739D01*
X114800421Y-58915003D01*
X113600685Y-58113365D01*
X112185500Y-57831867D01*
X110770316Y-58113365D01*
X109685500Y-58838216D01*
X108600684Y-58113365D01*
X107185500Y-57831867D01*
X105770315Y-58113365D01*
X104570579Y-58915003D01*
X103768941Y-60114740D01*
X103558500Y-61172698D01*
X89320500Y-61172698D01*
X89320500Y-61105246D01*
X88995466Y-60320544D01*
X88394880Y-59719958D01*
X87610178Y-59394924D01*
X86760822Y-59394924D01*
X85976120Y-59719958D01*
X85375534Y-60320544D01*
X85050500Y-61105246D01*
X83604584Y-61105246D01*
X83407559Y-60114739D01*
X82605921Y-58915003D01*
X81406185Y-58113365D01*
X79991000Y-57831867D01*
X78575816Y-58113365D01*
X77491000Y-58838216D01*
X76406184Y-58113365D01*
X74991000Y-57831867D01*
X73575815Y-58113365D01*
X72376079Y-58915003D01*
X71574441Y-60114740D01*
X71364000Y-61172698D01*
X57126000Y-61172698D01*
X57126000Y-61105246D01*
X56800966Y-60320544D01*
X56200380Y-59719958D01*
X55415678Y-59394924D01*
X54566322Y-59394924D01*
X53781620Y-59719958D01*
X53181034Y-60320544D01*
X52856000Y-61105246D01*
X52856000Y-61954602D01*
X52883496Y-62020983D01*
X51135000Y-63769479D01*
X51135000Y-50799500D01*
X60075715Y-50799500D01*
X60075715Y-54573500D01*
X73528286Y-54573500D01*
X73528286Y-53118001D01*
X212766000Y-53118001D01*
X212766000Y-54361999D01*
X213242057Y-55511303D01*
X213970754Y-56240000D01*
X213242057Y-56968697D01*
X212766000Y-58118001D01*
X212766000Y-59361999D01*
X213242057Y-60511303D01*
X214121697Y-61390943D01*
X215271001Y-61867000D01*
X216514999Y-61867000D01*
X217664303Y-61390943D01*
X218543943Y-60511303D01*
X219020000Y-59361999D01*
X219020000Y-58118001D01*
X218543943Y-56968697D01*
X217815246Y-56240000D01*
X218543943Y-55511303D01*
X219020000Y-54361999D01*
X219020000Y-53118001D01*
X220266000Y-53118001D01*
X220266000Y-54361999D01*
X220742057Y-55511303D01*
X221470754Y-56240000D01*
X220742057Y-56968697D01*
X220266000Y-58118001D01*
X220266000Y-59361999D01*
X220742057Y-60511303D01*
X221621697Y-61390943D01*
X222771001Y-61867000D01*
X224014999Y-61867000D01*
X225164303Y-61390943D01*
X226043943Y-60511303D01*
X226520000Y-59361999D01*
X226520000Y-58118001D01*
X226043943Y-56968697D01*
X225315246Y-56240000D01*
X226043943Y-55511303D01*
X226520000Y-54361999D01*
X226520000Y-53118001D01*
X226043943Y-51968697D01*
X225164303Y-51089057D01*
X224014999Y-50613000D01*
X222771001Y-50613000D01*
X221621697Y-51089057D01*
X220742057Y-51968697D01*
X220266000Y-53118001D01*
X219020000Y-53118001D01*
X218543943Y-51968697D01*
X217664303Y-51089057D01*
X216514999Y-50613000D01*
X215271001Y-50613000D01*
X214121697Y-51089057D01*
X213242057Y-51968697D01*
X212766000Y-53118001D01*
X73528286Y-53118001D01*
X73528286Y-50799500D01*
X60075715Y-50799500D01*
X51135000Y-50799500D01*
X51135000Y-41135000D01*
X248865000Y-41135000D01*
X248865000Y-88010695D01*
D29*
X96372310Y-128778000D03*
X163392646Y-148973556D03*
X152273000Y-151384000D03*
X148336000Y-152273000D03*
X163830000Y-151003000D03*
X175260000Y-146557990D03*
X54864000Y-152146000D03*
X80264000Y-125476000D03*
X214630000Y-107950000D03*
X96520000Y-68968000D03*
X96520000Y-62738000D03*
X64262000Y-68968000D03*
X64262000Y-61468000D03*
X226252076Y-124652076D03*
X193486076Y-124906076D03*
X160020000Y-124652076D03*
X96774000Y-121158000D03*
X75692000Y-129794000D03*
X219964000Y-73660000D03*
X128270000Y-68968000D03*
X128524000Y-62738000D03*
X160782000Y-68968000D03*
X160782000Y-61468000D03*
X193141600Y-61529924D03*
X193141600Y-69029924D03*
X216662000Y-69735514D03*
X129286002Y-121158000D03*
X245872000Y-106426000D03*
X228092000Y-88138000D03*
X225044000Y-114300000D03*
X222504000Y-119888000D03*
X217170000Y-119888000D03*
X220980000Y-104902000D03*
X183896000Y-119888000D03*
X186690000Y-105156000D03*
X153416000Y-119888000D03*
X121412000Y-105156000D03*
X120650000Y-120142000D03*
X54102000Y-105156000D03*
X54102000Y-110744000D03*
X59436000Y-110744000D03*
X83820000Y-119380000D03*
X95250000Y-103378000D03*
X62738000Y-148844000D03*
X54864000Y-145288000D03*
X247142000Y-57404000D03*
X181356000Y-76708000D03*
X196850000Y-87122000D03*
X150114000Y-77978000D03*
X164592000Y-86868000D03*
X122174000Y-76454000D03*
X132080000Y-86614000D03*
X89916000Y-79502000D03*
X99568000Y-86106000D03*
X67310000Y-78994000D03*
X84836000Y-75692000D03*
X75184000Y-108204000D03*
X64008000Y-118618000D03*
X155194000Y-105156000D03*
X153416000Y-119888000D03*
X153416000Y-119888000D03*
X186690000Y-105156000D03*
X186690000Y-105156000D03*
X183896000Y-119888000D03*
X183896000Y-119888000D03*
X220980000Y-104902000D03*
X220980000Y-104902000D03*
X217170000Y-119888000D03*
X217170000Y-119888000D03*
X222504000Y-119888000D03*
X222504000Y-119888000D03*
X225044000Y-114300000D03*
X245872000Y-106426000D03*
X245872000Y-106426000D03*
X121412000Y-105156000D03*
X121412000Y-105156000D03*
X120650000Y-120142000D03*
X120650000Y-120142000D03*
X180340000Y-106172000D03*
X75184000Y-120396000D03*
X59182000Y-148590000D03*
X54610000Y-129794000D03*
X56896000Y-129794000D03*
X54102000Y-116586000D03*
X59436000Y-116586000D03*
X58166000Y-101092000D03*
X63500000Y-106172000D03*
X67564000Y-109474000D03*
X71374000Y-109474000D03*
X67564000Y-116586000D03*
X56896000Y-125476000D03*
X59690000Y-121666000D03*
X68072000Y-121666000D03*
X71120000Y-125476000D03*
X71374000Y-129794000D03*
X247904000Y-119888000D03*
X247904000Y-130556000D03*
X247904000Y-142748000D03*
X214884000Y-152908000D03*
X239014000Y-152908000D03*
X74422000Y-42672000D03*
X88138000Y-42672000D03*
X110236000Y-42672000D03*
X129794000Y-42672000D03*
X157226000Y-42672000D03*
X182626000Y-42418000D03*
X215900000Y-42672000D03*
X246380000Y-42672000D03*
X81788000Y-135382000D03*
X95427800Y-133629400D03*
X98769612Y-147263369D03*
X98277597Y-148763431D03*
X107442000Y-109728000D03*
X95758000Y-107950000D03*
X128549400Y-133883400D03*
X128524000Y-129692400D03*
X128549400Y-127685800D03*
X128016000Y-106934000D03*
X140208000Y-107950000D03*
X162306000Y-127635000D03*
X162306000Y-129794000D03*
X161296390Y-133945345D03*
X176276000Y-108712000D03*
X161544008Y-107442000D03*
X187198000Y-127635000D03*
X187198000Y-129794000D03*
X180594000Y-133731000D03*
X208534000Y-109220000D03*
X194056000Y-106934000D03*
X219964000Y-127762000D03*
X219964000Y-129794000D03*
X213487000Y-133858000D03*
X240284001Y-108458001D03*
X226822000Y-106934000D03*
X82219800Y-132486400D03*
X127406400Y-132410200D03*
X160762990Y-132334000D03*
X148463000Y-149987000D03*
X153593800Y-149885400D03*
X148463000Y-148983797D03*
X152565327Y-149034169D03*
X173482000Y-148590000D03*
X175387000Y-149352000D03*
X180200300Y-89109500D03*
X180200300Y-99109500D03*
X172700300Y-94109500D03*
X180200300Y-114109500D03*
X172700300Y-114109500D03*
X180200300Y-94109500D03*
X172700300Y-89109500D03*
X172700300Y-99109500D03*
X55926000Y-85018430D03*
X58676000Y-85018430D03*
X60051000Y-87400000D03*
X58676000Y-89781570D03*
X55926000Y-89781570D03*
X54551000Y-87400000D03*
X57301000Y-87400000D03*
X66421000Y-96520000D03*
X52442930Y-138257000D03*
X52442930Y-135507000D03*
X54824500Y-134132000D03*
X57206070Y-135507000D03*
X57206070Y-138257000D03*
X54824500Y-139632000D03*
X54824500Y-136882000D03*
X63944500Y-127762000D03*
X219248000Y-85018430D03*
X221998000Y-85018430D03*
X223373000Y-87400000D03*
X221998000Y-89781570D03*
X219248000Y-89781570D03*
X217873000Y-87400000D03*
X220623000Y-87400000D03*
X229743000Y-96520000D03*
X186583600Y-85018430D03*
X189333600Y-85018430D03*
X190708600Y-87400000D03*
X189333600Y-89781570D03*
X186583600Y-89781570D03*
X185208600Y-87400000D03*
X187958600Y-87400000D03*
X197078600Y-96520000D03*
X153919200Y-85018430D03*
X156669200Y-85018430D03*
X158044200Y-87400000D03*
X156669200Y-89781570D03*
X153919200Y-89781570D03*
X152544200Y-87400000D03*
X155294200Y-87400000D03*
X164414200Y-96520000D03*
X121254800Y-85018430D03*
X124004800Y-85018430D03*
X125379800Y-87400000D03*
X124004800Y-89781570D03*
X121254800Y-89781570D03*
X119879800Y-87400000D03*
X122629800Y-87400000D03*
X131749800Y-96520000D03*
X88590400Y-85018430D03*
X91340400Y-85018430D03*
X92715400Y-87400000D03*
X91340400Y-89781570D03*
X88590400Y-89781570D03*
X87215400Y-87400000D03*
X89965400Y-87400000D03*
X99085400Y-96520000D03*
X246715000Y-75001570D03*
X243965000Y-75001570D03*
X242590000Y-72620000D03*
X243965000Y-70238430D03*
X246715000Y-70238430D03*
X248090000Y-72620000D03*
X245340000Y-72620000D03*
X236220000Y-63500000D03*
X247056810Y-148812500D03*
X247056810Y-151187500D03*
X245000000Y-152375000D03*
X242943190Y-151187500D03*
X242943190Y-148812500D03*
X245000000Y-147625000D03*
X245000000Y-150000000D03*
X57056810Y-53812500D03*
X57056810Y-56187500D03*
X55000000Y-57375000D03*
X52943190Y-56187500D03*
X52943190Y-53812500D03*
X55000000Y-52625000D03*
X55000000Y-55000000D03*
X242170000Y-132334000D03*
X232170000Y-132334000D03*
X237170000Y-124834000D03*
X217170000Y-132334000D03*
X217170000Y-124834000D03*
X237170000Y-132334000D03*
X242170000Y-124834000D03*
X232170000Y-124834000D03*
X110344000Y-132334000D03*
X100344000Y-132334000D03*
X105344000Y-124834000D03*
X85344000Y-132334000D03*
X85344000Y-124834000D03*
X105344000Y-132334000D03*
X110344000Y-124834000D03*
X100344000Y-124834000D03*
X144380000Y-69029924D03*
X134380000Y-69029924D03*
X139380000Y-61529924D03*
X119380000Y-69029924D03*
X119380000Y-61529924D03*
X139380000Y-69029924D03*
X144380000Y-61529924D03*
X134380000Y-61529924D03*
X209213500Y-132334000D03*
X199213500Y-132334000D03*
X204213500Y-124834000D03*
X184213500Y-132334000D03*
X184213500Y-124834000D03*
X204213500Y-132334000D03*
X209213500Y-124834000D03*
X199213500Y-124834000D03*
X176257000Y-132334000D03*
X166257000Y-132334000D03*
X171257000Y-124834000D03*
X151257000Y-132334000D03*
X151257000Y-124834000D03*
X171257000Y-132334000D03*
X176257000Y-124834000D03*
X166257000Y-124834000D03*
X143300500Y-132334000D03*
X133300500Y-132334000D03*
X138300500Y-124834000D03*
X118300500Y-132334000D03*
X118300500Y-124834000D03*
X138300500Y-132334000D03*
X143300500Y-124834000D03*
X133300500Y-124834000D03*
X71628000Y-145396000D03*
X71628000Y-135396000D03*
X79128000Y-140396000D03*
X71628000Y-120396000D03*
X79128000Y-120396000D03*
X71628000Y-140396000D03*
X79128000Y-145396000D03*
X79128000Y-135396000D03*
X245935500Y-89109500D03*
X245935500Y-99109500D03*
X238435500Y-94109500D03*
X245935500Y-114109500D03*
X238435500Y-114109500D03*
X245935500Y-94109500D03*
X238435500Y-89109500D03*
X238435500Y-99109500D03*
X213067900Y-89109500D03*
X213067900Y-99109500D03*
X205567900Y-94109500D03*
X213067900Y-114109500D03*
X205567900Y-114109500D03*
X213067900Y-94109500D03*
X205567900Y-89109500D03*
X205567900Y-99109500D03*
X147332700Y-89109500D03*
X147332700Y-99109500D03*
X139832700Y-94109500D03*
X147332700Y-114109500D03*
X139832700Y-114109500D03*
X147332700Y-94109500D03*
X139832700Y-89109500D03*
X139832700Y-99109500D03*
X114465100Y-89109500D03*
X114465100Y-99109500D03*
X106965100Y-94109500D03*
X114465100Y-114109500D03*
X106965100Y-114109500D03*
X114465100Y-94109500D03*
X106965100Y-89109500D03*
X106965100Y-99109500D03*
X81597500Y-89109500D03*
X81597500Y-99109500D03*
X74097500Y-94109500D03*
X81597500Y-114109500D03*
X74097500Y-114109500D03*
X81597500Y-94109500D03*
X74097500Y-89109500D03*
X74097500Y-99109500D03*
X223393000Y-53740000D03*
X223393000Y-63740000D03*
X215893000Y-58740000D03*
X223393000Y-78740000D03*
X215893000Y-78740000D03*
X223393000Y-58740000D03*
X215893000Y-53740000D03*
X215893000Y-63740000D03*
X208769000Y-69029924D03*
X198769000Y-69029924D03*
X203769000Y-61529924D03*
X183769000Y-69029924D03*
X183769000Y-61529924D03*
X203769000Y-69029924D03*
X208769000Y-61529924D03*
X198769000Y-61529924D03*
X176574500Y-69029924D03*
X166574500Y-69029924D03*
X171574500Y-61529924D03*
X151574500Y-69029924D03*
X151574500Y-61529924D03*
X171574500Y-69029924D03*
X176574500Y-61529924D03*
X166574500Y-61529924D03*
X112185500Y-69029924D03*
X102185500Y-69029924D03*
X107185500Y-61529924D03*
X87185500Y-69029924D03*
X87185500Y-61529924D03*
X107185500Y-69029924D03*
X112185500Y-61529924D03*
X102185500Y-61529924D03*
X79991000Y-69029924D03*
X69991000Y-69029924D03*
X74991000Y-61529924D03*
X54991000Y-69029924D03*
X54991000Y-61529924D03*
X74991000Y-69029924D03*
X79991000Y-61529924D03*
X69991000Y-61529924D03*
X188163200Y-149860000D03*
X190703200Y-149860000D03*
X193243200Y-149860000D03*
X195783200Y-149860000D03*
X198323200Y-149860000D03*
X200863200Y-149860000D03*
X203403200Y-149860000D03*
X205943200Y-149860000D03*
X121869200Y-149860000D03*
X124409200Y-149860000D03*
X126949200Y-149860000D03*
X129489200Y-149860000D03*
X132029200Y-149860000D03*
X134569200Y-149860000D03*
X137109200Y-149860000D03*
X139649200Y-149860000D03*
X116459000Y-151663400D03*
X116459000Y-149163400D03*
X110236000Y-151663400D03*
X110236000Y-149163400D03*
M02*
