%TF.GenerationSoftware,KiCad,Pcbnew,(6.0.0-rc1-dev-882-gdbc9130da)*%
%TF.CreationDate,2019-08-28T17:07:57+08:00*%
%TF.ProjectId,AntennaSwitch_6x2_RelayBoard,416E74656E6E615377697463685F3678,rev?*%
%TF.SameCoordinates,Original*%
%TF.FileFunction,Copper,L1,Top,Signal*%
%TF.FilePolarity,Positive*%
%FSLAX46Y46*%
G04 Gerber Fmt 4.6, Leading zero omitted, Abs format (unit mm)*
G04 Created by KiCad (PCBNEW (6.0.0-rc1-dev-882-gdbc9130da)) date 2019/8/28 17:07:57*
%MOMM*%
%LPD*%
G01*
G04 APERTURE LIST*
%ADD10C,0.254000*%
%ADD11C,3.000000*%
%ADD12C,0.800000*%
%ADD13C,7.500000*%
%ADD14C,6.000000*%
%ADD15R,2.000000X2.600000*%
%ADD16O,1.800000X2.600000*%
%ADD17O,2.000000X2.600000*%
%ADD18R,1.600000X1.600000*%
%ADD19C,1.600000*%
%ADD20C,1.000000*%
%ADD21C,1.200000*%
%ADD22C,0.508000*%
%ADD23C,1.016000*%
%ADD24C,4.000000*%
%ADD25C,3.150000*%
%ADD26C,8.000000*%
%ADD27C,0.381000*%
%ADD28C,0.203200*%
%ADD29C,0.600000*%
%ADD30C,2.000000*%
%ADD31C,3.000000*%
%ADD32C,1.000000*%
%ADD33C,0.350000*%
G04 APERTURE END LIST*
D10*
X61194857Y-53256571D02*
X61194857Y-51756571D01*
X61766285Y-51756571D01*
X61909142Y-51828000D01*
X61980571Y-51899428D01*
X62052000Y-52042285D01*
X62052000Y-52256571D01*
X61980571Y-52399428D01*
X61909142Y-52470857D01*
X61766285Y-52542285D01*
X61194857Y-52542285D01*
X62980571Y-51756571D02*
X63123428Y-51756571D01*
X63266285Y-51828000D01*
X63337714Y-51899428D01*
X63409142Y-52042285D01*
X63480571Y-52328000D01*
X63480571Y-52685142D01*
X63409142Y-52970857D01*
X63337714Y-53113714D01*
X63266285Y-53185142D01*
X63123428Y-53256571D01*
X62980571Y-53256571D01*
X62837714Y-53185142D01*
X62766285Y-53113714D01*
X62694857Y-52970857D01*
X62623428Y-52685142D01*
X62623428Y-52328000D01*
X62694857Y-52042285D01*
X62766285Y-51899428D01*
X62837714Y-51828000D01*
X62980571Y-51756571D01*
X64409142Y-51756571D02*
X64552000Y-51756571D01*
X64694857Y-51828000D01*
X64766285Y-51899428D01*
X64837714Y-52042285D01*
X64909142Y-52328000D01*
X64909142Y-52685142D01*
X64837714Y-52970857D01*
X64766285Y-53113714D01*
X64694857Y-53185142D01*
X64552000Y-53256571D01*
X64409142Y-53256571D01*
X64266285Y-53185142D01*
X64194857Y-53113714D01*
X64123428Y-52970857D01*
X64052000Y-52685142D01*
X64052000Y-52328000D01*
X64123428Y-52042285D01*
X64194857Y-51899428D01*
X64266285Y-51828000D01*
X64409142Y-51756571D01*
X65837714Y-51756571D02*
X65980571Y-51756571D01*
X66123428Y-51828000D01*
X66194857Y-51899428D01*
X66266285Y-52042285D01*
X66337714Y-52328000D01*
X66337714Y-52685142D01*
X66266285Y-52970857D01*
X66194857Y-53113714D01*
X66123428Y-53185142D01*
X65980571Y-53256571D01*
X65837714Y-53256571D01*
X65694857Y-53185142D01*
X65623428Y-53113714D01*
X65552000Y-52970857D01*
X65480571Y-52685142D01*
X65480571Y-52328000D01*
X65552000Y-52042285D01*
X65623428Y-51899428D01*
X65694857Y-51828000D01*
X65837714Y-51756571D01*
X67766285Y-53256571D02*
X66909142Y-53256571D01*
X67337714Y-53256571D02*
X67337714Y-51756571D01*
X67194857Y-51970857D01*
X67052000Y-52113714D01*
X66909142Y-52185142D01*
X68409142Y-52685142D02*
X69552000Y-52685142D01*
X70552000Y-51756571D02*
X70694857Y-51756571D01*
X70837714Y-51828000D01*
X70909142Y-51899428D01*
X70980571Y-52042285D01*
X71052000Y-52328000D01*
X71052000Y-52685142D01*
X70980571Y-52970857D01*
X70909142Y-53113714D01*
X70837714Y-53185142D01*
X70694857Y-53256571D01*
X70552000Y-53256571D01*
X70409142Y-53185142D01*
X70337714Y-53113714D01*
X70266285Y-52970857D01*
X70194857Y-52685142D01*
X70194857Y-52328000D01*
X70266285Y-52042285D01*
X70337714Y-51899428D01*
X70409142Y-51828000D01*
X70552000Y-51756571D01*
X72480571Y-53256571D02*
X71623428Y-53256571D01*
X72052000Y-53256571D02*
X72052000Y-51756571D01*
X71909142Y-51970857D01*
X71766285Y-52113714D01*
X71623428Y-52185142D01*
D11*
X180200300Y-89109500D03*
X180200300Y-99109500D03*
X172700300Y-94109500D03*
X180200300Y-114109500D03*
X172700300Y-114109500D03*
X180200300Y-94109500D03*
X172700300Y-89109500D03*
X172700300Y-99109500D03*
D12*
X55926000Y-85018430D03*
X58676000Y-85018430D03*
X60051000Y-87400000D03*
X58676000Y-89781570D03*
X55926000Y-89781570D03*
X54551000Y-87400000D03*
D13*
X57301000Y-87400000D03*
X66421000Y-96520000D03*
D12*
X52442930Y-138257000D03*
X52442930Y-135507000D03*
X54824500Y-134132000D03*
X57206070Y-135507000D03*
X57206070Y-138257000D03*
X54824500Y-139632000D03*
D13*
X54824500Y-136882000D03*
X63944500Y-127762000D03*
D12*
X219248000Y-85018430D03*
X221998000Y-85018430D03*
X223373000Y-87400000D03*
X221998000Y-89781570D03*
X219248000Y-89781570D03*
X217873000Y-87400000D03*
D13*
X220623000Y-87400000D03*
X229743000Y-96520000D03*
D12*
X186583600Y-85018430D03*
X189333600Y-85018430D03*
X190708600Y-87400000D03*
X189333600Y-89781570D03*
X186583600Y-89781570D03*
X185208600Y-87400000D03*
D13*
X187958600Y-87400000D03*
X197078600Y-96520000D03*
D12*
X153919200Y-85018430D03*
X156669200Y-85018430D03*
X158044200Y-87400000D03*
X156669200Y-89781570D03*
X153919200Y-89781570D03*
X152544200Y-87400000D03*
D13*
X155294200Y-87400000D03*
X164414200Y-96520000D03*
D12*
X121254800Y-85018430D03*
X124004800Y-85018430D03*
X125379800Y-87400000D03*
X124004800Y-89781570D03*
X121254800Y-89781570D03*
X119879800Y-87400000D03*
D13*
X122629800Y-87400000D03*
X131749800Y-96520000D03*
D12*
X88590400Y-85018430D03*
X91340400Y-85018430D03*
X92715400Y-87400000D03*
X91340400Y-89781570D03*
X88590400Y-89781570D03*
X87215400Y-87400000D03*
D13*
X89965400Y-87400000D03*
X99085400Y-96520000D03*
D12*
X246715000Y-75001570D03*
X243965000Y-75001570D03*
X242590000Y-72620000D03*
X243965000Y-70238430D03*
X246715000Y-70238430D03*
X248090000Y-72620000D03*
D13*
X245340000Y-72620000D03*
X236220000Y-63500000D03*
D12*
X247056810Y-148812500D03*
X247056810Y-151187500D03*
X245000000Y-152375000D03*
X242943190Y-151187500D03*
X242943190Y-148812500D03*
X245000000Y-147625000D03*
D14*
X245000000Y-150000000D03*
D12*
X57056810Y-53812500D03*
X57056810Y-56187500D03*
X55000000Y-57375000D03*
X52943190Y-56187500D03*
X52943190Y-53812500D03*
X55000000Y-52625000D03*
D14*
X55000000Y-55000000D03*
D11*
X242170000Y-132334000D03*
X232170000Y-132334000D03*
X237170000Y-124834000D03*
X217170000Y-132334000D03*
X217170000Y-124834000D03*
X237170000Y-132334000D03*
X242170000Y-124834000D03*
X232170000Y-124834000D03*
X110344000Y-132334000D03*
X100344000Y-132334000D03*
X105344000Y-124834000D03*
X85344000Y-132334000D03*
X85344000Y-124834000D03*
X105344000Y-132334000D03*
X110344000Y-124834000D03*
X100344000Y-124834000D03*
X144380000Y-69029924D03*
X134380000Y-69029924D03*
X139380000Y-61529924D03*
X119380000Y-69029924D03*
X119380000Y-61529924D03*
X139380000Y-69029924D03*
X144380000Y-61529924D03*
X134380000Y-61529924D03*
X209213500Y-132334000D03*
X199213500Y-132334000D03*
X204213500Y-124834000D03*
X184213500Y-132334000D03*
X184213500Y-124834000D03*
X204213500Y-132334000D03*
X209213500Y-124834000D03*
X199213500Y-124834000D03*
X176257000Y-132334000D03*
X166257000Y-132334000D03*
X171257000Y-124834000D03*
X151257000Y-132334000D03*
X151257000Y-124834000D03*
X171257000Y-132334000D03*
X176257000Y-124834000D03*
X166257000Y-124834000D03*
X143300500Y-132334000D03*
X133300500Y-132334000D03*
X138300500Y-124834000D03*
X118300500Y-132334000D03*
X118300500Y-124834000D03*
X138300500Y-132334000D03*
X143300500Y-124834000D03*
X133300500Y-124834000D03*
X71628000Y-145396000D03*
X71628000Y-135396000D03*
X79128000Y-140396000D03*
X71628000Y-120396000D03*
X79128000Y-120396000D03*
X71628000Y-140396000D03*
X79128000Y-145396000D03*
X79128000Y-135396000D03*
X245935500Y-89109500D03*
X245935500Y-99109500D03*
X238435500Y-94109500D03*
X245935500Y-114109500D03*
X238435500Y-114109500D03*
X245935500Y-94109500D03*
X238435500Y-89109500D03*
X238435500Y-99109500D03*
X213067900Y-89109500D03*
X213067900Y-99109500D03*
X205567900Y-94109500D03*
X213067900Y-114109500D03*
X205567900Y-114109500D03*
X213067900Y-94109500D03*
X205567900Y-89109500D03*
X205567900Y-99109500D03*
X147332700Y-89109500D03*
X147332700Y-99109500D03*
X139832700Y-94109500D03*
X147332700Y-114109500D03*
X139832700Y-114109500D03*
X147332700Y-94109500D03*
X139832700Y-89109500D03*
X139832700Y-99109500D03*
X114465100Y-89109500D03*
X114465100Y-99109500D03*
X106965100Y-94109500D03*
X114465100Y-114109500D03*
X106965100Y-114109500D03*
X114465100Y-94109500D03*
X106965100Y-89109500D03*
X106965100Y-99109500D03*
X81597500Y-89109500D03*
X81597500Y-99109500D03*
X74097500Y-94109500D03*
X81597500Y-114109500D03*
X74097500Y-114109500D03*
X81597500Y-94109500D03*
X74097500Y-89109500D03*
X74097500Y-99109500D03*
X223393000Y-53740000D03*
X223393000Y-63740000D03*
X215893000Y-58740000D03*
X223393000Y-78740000D03*
X215893000Y-78740000D03*
X223393000Y-58740000D03*
X215893000Y-53740000D03*
X215893000Y-63740000D03*
X208769000Y-69029924D03*
X198769000Y-69029924D03*
X203769000Y-61529924D03*
X183769000Y-69029924D03*
X183769000Y-61529924D03*
X203769000Y-69029924D03*
X208769000Y-61529924D03*
X198769000Y-61529924D03*
X176574500Y-69029924D03*
X166574500Y-69029924D03*
X171574500Y-61529924D03*
X151574500Y-69029924D03*
X151574500Y-61529924D03*
X171574500Y-69029924D03*
X176574500Y-61529924D03*
X166574500Y-61529924D03*
X112185500Y-69029924D03*
X102185500Y-69029924D03*
X107185500Y-61529924D03*
X87185500Y-69029924D03*
X87185500Y-61529924D03*
X107185500Y-69029924D03*
X112185500Y-61529924D03*
X102185500Y-61529924D03*
X79991000Y-69029924D03*
X69991000Y-69029924D03*
X74991000Y-61529924D03*
X54991000Y-69029924D03*
X54991000Y-61529924D03*
X74991000Y-69029924D03*
X79991000Y-61529924D03*
X69991000Y-61529924D03*
D15*
X188163200Y-149860000D03*
D16*
X190703200Y-149860000D03*
X193243200Y-149860000D03*
D17*
X195783200Y-149860000D03*
X198323200Y-149860000D03*
X200863200Y-149860000D03*
X203403200Y-149860000D03*
X205943200Y-149860000D03*
D15*
X121869200Y-149860000D03*
D17*
X124409200Y-149860000D03*
D16*
X126949200Y-149860000D03*
X129489200Y-149860000D03*
D17*
X132029200Y-149860000D03*
X134569200Y-149860000D03*
X137109200Y-149860000D03*
X139649200Y-149860000D03*
D18*
X116459000Y-151663400D03*
D19*
X116459000Y-149163400D03*
D18*
X110236000Y-151663400D03*
D19*
X110236000Y-149163400D03*
D20*
X96372310Y-128778000D03*
X163392646Y-148973556D03*
X152273000Y-151384000D03*
X148336000Y-152273000D03*
X163830000Y-151003000D03*
D12*
X175260000Y-146557990D03*
D21*
X54864000Y-152146000D03*
X80264000Y-125476000D03*
D11*
X214630000Y-107950000D03*
X96520000Y-68968000D03*
X96520000Y-62738000D03*
X64262000Y-68968000D03*
X64262000Y-61468000D03*
X226252076Y-124652076D03*
X193486076Y-124906076D03*
X160020000Y-124652076D03*
X96774000Y-121158000D03*
X75692000Y-129794000D03*
X219964000Y-73660000D03*
X128270000Y-68968000D03*
X128524000Y-62738000D03*
X160782000Y-68968000D03*
X160782000Y-61468000D03*
X193141600Y-61529924D03*
X193141600Y-69029924D03*
X216662000Y-69735514D03*
X129286002Y-121158000D03*
D21*
X245872000Y-106426000D03*
X228092000Y-88138000D03*
X225044000Y-114300000D03*
X222504000Y-119888000D03*
X217170000Y-119888000D03*
X220980000Y-104902000D03*
X183896000Y-119888000D03*
X186690000Y-105156000D03*
X153416000Y-119888000D03*
X121412000Y-105156000D03*
X120650000Y-120142000D03*
X54102000Y-105156000D03*
X54102000Y-110744000D03*
X59436000Y-110744000D03*
X83820000Y-119380000D03*
X95250000Y-103378000D03*
X62738000Y-148844000D03*
D11*
X54864000Y-145288000D03*
X247142000Y-57404000D03*
X181356000Y-76708000D03*
X196850000Y-87122000D03*
X150114000Y-77978000D03*
X164592000Y-86868000D03*
X122174000Y-76454000D03*
X132080000Y-86614000D03*
X89916000Y-79502000D03*
X99568000Y-86106000D03*
X67310000Y-78994000D03*
X84836000Y-75692000D03*
X75184000Y-108204000D03*
X64008000Y-118618000D03*
X155194000Y-105156000D03*
D21*
X153416000Y-119888000D03*
D11*
X153416000Y-119888000D03*
D21*
X186690000Y-105156000D03*
D11*
X186690000Y-105156000D03*
D21*
X183896000Y-119888000D03*
D11*
X183896000Y-119888000D03*
D21*
X220980000Y-104902000D03*
D11*
X220980000Y-104902000D03*
D21*
X217170000Y-119888000D03*
D11*
X217170000Y-119888000D03*
D21*
X222504000Y-119888000D03*
D11*
X222504000Y-119888000D03*
X225044000Y-114300000D03*
D21*
X245872000Y-106426000D03*
D11*
X245872000Y-106426000D03*
D21*
X121412000Y-105156000D03*
D11*
X121412000Y-105156000D03*
D21*
X120650000Y-120142000D03*
D11*
X120650000Y-120142000D03*
X180340000Y-106172000D03*
D21*
X75184000Y-120396000D03*
X59182000Y-148590000D03*
X54610000Y-129794000D03*
X56896000Y-129794000D03*
X54102000Y-116586000D03*
X59436000Y-116586000D03*
X58166000Y-101092000D03*
X63500000Y-106172000D03*
X67564000Y-109474000D03*
X71374000Y-109474000D03*
X67564000Y-116586000D03*
X56896000Y-125476000D03*
X59690000Y-121666000D03*
X68072000Y-121666000D03*
X71120000Y-125476000D03*
X71374000Y-129794000D03*
X247904000Y-119888000D03*
X247904000Y-130556000D03*
X247904000Y-142748000D03*
X214884000Y-152908000D03*
X239014000Y-152908000D03*
X74422000Y-42672000D03*
X88138000Y-42672000D03*
X110236000Y-42672000D03*
X129794000Y-42672000D03*
X157226000Y-42672000D03*
X182626000Y-42418000D03*
X215900000Y-42672000D03*
X246380000Y-42672000D03*
D20*
X81788000Y-135382000D03*
D12*
X95427800Y-133629400D03*
X98769612Y-147263369D03*
X98277597Y-148763431D03*
D20*
X107442000Y-109728000D03*
X95758000Y-107950000D03*
D12*
X128549400Y-133883400D03*
X128524000Y-129692400D03*
X128549400Y-127685800D03*
D20*
X128016000Y-106934000D03*
X140208000Y-107950000D03*
D12*
X162306000Y-127635000D03*
X162306000Y-129794000D03*
X161296390Y-133945345D03*
D20*
X176276000Y-108712000D03*
X161544008Y-107442000D03*
D12*
X187198000Y-127635000D03*
X187198000Y-129794000D03*
X180594000Y-133731000D03*
D20*
X208534000Y-109220000D03*
X194056000Y-106934000D03*
D12*
X219964000Y-127762000D03*
X219964000Y-129794000D03*
X213487000Y-133858000D03*
D20*
X240284001Y-108458001D03*
X226822000Y-106934000D03*
D12*
X82219800Y-132486400D03*
X127406400Y-132410200D03*
X160762990Y-132334000D03*
X148463000Y-149987000D03*
X153593800Y-149885400D03*
X148463000Y-148983797D03*
X152565327Y-149034169D03*
X173482000Y-148590000D03*
X175387000Y-149352000D03*
D22*
X117689600Y-124834000D02*
X118300500Y-124834000D01*
X106965100Y-114109500D02*
X117689600Y-124834000D01*
X150557200Y-124834000D02*
X151257000Y-124834000D01*
X139832700Y-114109500D02*
X150557200Y-124834000D01*
X183424800Y-124834000D02*
X184213500Y-124834000D01*
X172700300Y-114109500D02*
X183424800Y-124834000D01*
X216292400Y-124834000D02*
X217170000Y-124834000D01*
X205567900Y-114109500D02*
X216292400Y-124834000D01*
X56490999Y-63029923D02*
X54991000Y-61529924D01*
X58822177Y-65361101D02*
X56490999Y-63029923D01*
X87185500Y-65297601D02*
X87122000Y-65361101D01*
X87185500Y-61529924D02*
X87185500Y-65297601D01*
X87122000Y-65361101D02*
X58822177Y-65361101D01*
X151587200Y-65361101D02*
X119430800Y-65361101D01*
X183769000Y-61529924D02*
X183769000Y-65361101D01*
X151574500Y-61529924D02*
X151574500Y-65361101D01*
X183769000Y-65361101D02*
X151574500Y-65361101D01*
X151574500Y-65361101D02*
X151587200Y-65361101D01*
X119380000Y-61529924D02*
X119380000Y-65361101D01*
X119430800Y-65361101D02*
X119380000Y-65361101D01*
X119380000Y-65361101D02*
X87122000Y-65361101D01*
D23*
X74097500Y-115365500D02*
X79128000Y-120396000D01*
X74097500Y-114109500D02*
X74097500Y-115365500D01*
X80906000Y-120396000D02*
X85344000Y-124834000D01*
X79128000Y-120396000D02*
X80906000Y-120396000D01*
D22*
X239935499Y-115609499D02*
X238435500Y-114109500D01*
X245924001Y-121598001D02*
X239935499Y-115609499D01*
X245924001Y-127201999D02*
X245924001Y-121598001D01*
X244348000Y-128778000D02*
X245924001Y-127201999D01*
X217170000Y-126955320D02*
X217170000Y-128778000D01*
X217170000Y-124834000D02*
X217170000Y-126955320D01*
X217170000Y-128778000D02*
X244348000Y-128778000D01*
X184213500Y-124834000D02*
X184213500Y-128778000D01*
X184213500Y-128778000D02*
X217170000Y-128778000D01*
X151257000Y-124834000D02*
X151257000Y-128778000D01*
X151257000Y-128778000D02*
X184213500Y-128778000D01*
X118300500Y-124834000D02*
X118300500Y-128778000D01*
X118300500Y-128778000D02*
X96372310Y-128778000D01*
X118300500Y-128778000D02*
X151257000Y-128778000D01*
X125252200Y-153543000D02*
X158823202Y-153543000D01*
X121869200Y-150160000D02*
X125252200Y-153543000D01*
X162892647Y-149473555D02*
X163392646Y-148973556D01*
X121869200Y-149860000D02*
X121869200Y-150160000D01*
X158823202Y-153543000D02*
X162892647Y-149473555D01*
X210953901Y-65361101D02*
X183769000Y-65361101D01*
X212523001Y-66930201D02*
X210953901Y-65361101D01*
X212523001Y-75363001D02*
X212523001Y-66930201D01*
X214393001Y-77233001D02*
X212523001Y-75363001D01*
X214393001Y-77240001D02*
X214393001Y-77233001D01*
X215893000Y-78740000D02*
X214393001Y-77240001D01*
D24*
X198769000Y-61529924D02*
X193141600Y-61529924D01*
X198769000Y-69029924D02*
X193141600Y-69029924D01*
X166512576Y-61468000D02*
X166574500Y-61529924D01*
X160782000Y-61468000D02*
X166512576Y-61468000D01*
X160843924Y-69029924D02*
X160782000Y-68968000D01*
X166574500Y-69029924D02*
X160843924Y-69029924D01*
X128331924Y-69029924D02*
X128270000Y-68968000D01*
X134380000Y-69029924D02*
X128331924Y-69029924D01*
X134380000Y-61529924D02*
X128331924Y-61529924D01*
D25*
X215893000Y-68966514D02*
X216662000Y-69735514D01*
X215893000Y-63740000D02*
X215893000Y-68966514D01*
X223393000Y-68707000D02*
X222504000Y-69596000D01*
X223393000Y-63740000D02*
X223393000Y-68707000D01*
X71628000Y-133858000D02*
X75692000Y-129794000D01*
X71628000Y-135396000D02*
X71628000Y-133858000D01*
X79128000Y-133230000D02*
X75692000Y-129794000D01*
X79128000Y-135396000D02*
X79128000Y-133230000D01*
X75692000Y-133872000D02*
X74168000Y-135396000D01*
X75692000Y-129794000D02*
X75692000Y-133872000D01*
X71628000Y-135396000D02*
X74168000Y-135396000D01*
X74168000Y-135396000D02*
X79128000Y-135396000D01*
X75692000Y-129794000D02*
X75692000Y-132080000D01*
X77604000Y-133872000D02*
X75692000Y-133872000D01*
X79128000Y-135396000D02*
X77604000Y-133872000D01*
X160201924Y-124834000D02*
X160020000Y-124652076D01*
X166257000Y-124834000D02*
X160201924Y-124834000D01*
X193558152Y-124834000D02*
X193486076Y-124906076D01*
X199213500Y-124834000D02*
X193558152Y-124834000D01*
X226434000Y-124834000D02*
X226252076Y-124652076D01*
X232170000Y-124834000D02*
X226434000Y-124834000D01*
X133300500Y-124834000D02*
X129624500Y-121158000D01*
X129624500Y-121158000D02*
X129286002Y-121158000D01*
X96774000Y-121264000D02*
X100344000Y-124834000D01*
X96774000Y-121158000D02*
X96774000Y-121264000D01*
X64323924Y-69029924D02*
X64262000Y-68968000D01*
X69991000Y-69029924D02*
X64323924Y-69029924D01*
X64323924Y-61529924D02*
X64262000Y-61468000D01*
X69991000Y-61529924D02*
X64323924Y-61529924D01*
X96581924Y-61529924D02*
X96520000Y-61468000D01*
X102185500Y-61529924D02*
X96581924Y-61529924D01*
X96581924Y-69029924D02*
X96520000Y-68968000D01*
X102185500Y-69029924D02*
X96581924Y-69029924D01*
D22*
X96774000Y-104902000D02*
X96774000Y-121158000D01*
X95250000Y-103378000D02*
X96774000Y-104902000D01*
D24*
X236220000Y-63500000D02*
X236220000Y-61976000D01*
X112185500Y-53740000D02*
X87780924Y-53740000D01*
X144380000Y-53740000D02*
X112185500Y-53740000D01*
X176574500Y-53740000D02*
X144380000Y-53740000D01*
X208769000Y-53740000D02*
X176574500Y-53740000D01*
D25*
X231688290Y-53664990D02*
X236220000Y-58196700D01*
X87855934Y-53664990D02*
X231688290Y-53664990D01*
X79991000Y-61529924D02*
X87855934Y-53664990D01*
D24*
X144526000Y-53740000D02*
X87780924Y-53740000D01*
X112185500Y-59408604D02*
X112185500Y-53740000D01*
X112185500Y-61529924D02*
X112185500Y-59408604D01*
X144380000Y-61529924D02*
X144380000Y-53740000D01*
X176574500Y-61529924D02*
X176574500Y-53740000D01*
X208769000Y-61529924D02*
X208769000Y-53740000D01*
D26*
X208769000Y-53740000D02*
X87780924Y-53740000D01*
D24*
X87780924Y-53740000D02*
X79991000Y-61529924D01*
D26*
X236220000Y-63500000D02*
X236220000Y-58196700D01*
X211709000Y-50800000D02*
X229616000Y-50800000D01*
X208769000Y-53740000D02*
X211709000Y-50800000D01*
X236220000Y-58196700D02*
X229616000Y-50800000D01*
X229616000Y-50800000D02*
X231763300Y-53740000D01*
D24*
X68831500Y-94109500D02*
X81597500Y-94109500D01*
X66421000Y-96520000D02*
X68831500Y-94109500D01*
X101495900Y-94109500D02*
X114465100Y-94109500D01*
X99085400Y-96520000D02*
X101495900Y-94109500D01*
X134160300Y-94109500D02*
X147332700Y-94109500D01*
X131749800Y-96520000D02*
X134160300Y-94109500D01*
X166824700Y-94109500D02*
X180200300Y-94109500D01*
X164414200Y-96520000D02*
X166824700Y-94109500D01*
X199489100Y-94109500D02*
X213067900Y-94109500D01*
X197078600Y-96520000D02*
X199489100Y-94109500D01*
X232153500Y-94109500D02*
X229743000Y-96520000D01*
X245935500Y-94109500D02*
X232153500Y-94109500D01*
X63944500Y-141197795D02*
X68142705Y-145396000D01*
X63944500Y-127762000D02*
X63944500Y-141197795D01*
X68142705Y-145396000D02*
X71628000Y-145396000D01*
X81249320Y-145396000D02*
X81357320Y-145288000D01*
X79128000Y-145396000D02*
X81249320Y-145396000D01*
X89154000Y-145149298D02*
X89154000Y-145288000D01*
X81357320Y-145288000D02*
X89154000Y-145288000D01*
X95758000Y-141224000D02*
X91948000Y-145034000D01*
X96012000Y-141224000D02*
X95758000Y-141224000D01*
X242170000Y-132334000D02*
X242170000Y-135274000D01*
X242170000Y-135274000D02*
X239776000Y-137668000D01*
D26*
X97027998Y-139954000D02*
X91826608Y-145155390D01*
D24*
X91826608Y-145155390D02*
X89154000Y-145149298D01*
X91948000Y-145034000D02*
X91826608Y-145155390D01*
X209213500Y-139782500D02*
X209042000Y-139954000D01*
X209213500Y-132334000D02*
X209213500Y-139782500D01*
D26*
X238506000Y-139954000D02*
X209042000Y-139954000D01*
D24*
X176257000Y-139719000D02*
X176022000Y-139954000D01*
X176257000Y-132334000D02*
X176257000Y-139719000D01*
D26*
X209042000Y-139954000D02*
X176022000Y-139954000D01*
D24*
X143256000Y-134499820D02*
X143256000Y-139954000D01*
X143300500Y-134455320D02*
X143256000Y-134499820D01*
X143300500Y-132334000D02*
X143300500Y-134455320D01*
D26*
X176022000Y-139954000D02*
X143256000Y-139954000D01*
D24*
X110236000Y-134563320D02*
X110236000Y-139954000D01*
X110344000Y-134455320D02*
X110236000Y-134563320D01*
X110344000Y-132334000D02*
X110344000Y-134455320D01*
D26*
X143256000Y-139954000D02*
X110236000Y-139954000D01*
X110236000Y-139954000D02*
X97027998Y-139954000D01*
D24*
X71628000Y-145396000D02*
X79128000Y-145396000D01*
X74097500Y-89109500D02*
X77851000Y-89109500D01*
X77851000Y-89109500D02*
X81597500Y-89109500D01*
X74991000Y-88788200D02*
X74980800Y-88798400D01*
X74991000Y-69029924D02*
X74991000Y-88788200D01*
D22*
X80097501Y-112609501D02*
X81597500Y-114109500D01*
X79589499Y-112101499D02*
X80097501Y-112609501D01*
X65365499Y-112101499D02*
X79589499Y-112101499D01*
X83159600Y-134010400D02*
X82287999Y-134882001D01*
X83159600Y-129990242D02*
X83159600Y-134010400D01*
X82287999Y-134882001D02*
X81788000Y-135382000D01*
X81597500Y-114109500D02*
X87352001Y-119864001D01*
X87352001Y-125797841D02*
X83159600Y-129990242D01*
X87352001Y-119864001D02*
X87352001Y-125797841D01*
X54991000Y-69029924D02*
X51816000Y-72204924D01*
X51816000Y-98552000D02*
X65365499Y-112101499D01*
X51816000Y-72204924D02*
X51816000Y-98552000D01*
D24*
X106965100Y-89109500D02*
X109725500Y-89109500D01*
X109725500Y-89109500D02*
X114465100Y-89109500D01*
X107185500Y-88897500D02*
X107238800Y-88950800D01*
X107185500Y-69029924D02*
X107185500Y-88897500D01*
D22*
X87185500Y-69029924D02*
X95969401Y-77813825D01*
X95969401Y-77813825D02*
X95969401Y-89154000D01*
D27*
X98769612Y-148271416D02*
X98677596Y-148363432D01*
X98769612Y-147263369D02*
X98769612Y-148271416D01*
X98677596Y-148363432D02*
X98277597Y-148763431D01*
D22*
X114465100Y-114109500D02*
X111823500Y-114109500D01*
X107941999Y-110227999D02*
X107442000Y-109728000D01*
X111823500Y-114109500D02*
X107941999Y-110227999D01*
D27*
X93144899Y-104121793D02*
X95758000Y-106734894D01*
X95427800Y-133629400D02*
X94488000Y-132689600D01*
X95969401Y-89154000D02*
X93144899Y-91978502D01*
X95258001Y-108449999D02*
X95758000Y-107950000D01*
X95758000Y-107242894D02*
X95758000Y-107950000D01*
X94488000Y-132689600D02*
X94488000Y-109220000D01*
X94488000Y-109220000D02*
X95258001Y-108449999D01*
X93144899Y-91978502D02*
X93144899Y-104121793D01*
X95758000Y-106734894D02*
X95758000Y-107242894D01*
D24*
X141920000Y-89109500D02*
X147332700Y-89109500D01*
X139832700Y-89109500D02*
X141920000Y-89109500D01*
X139380000Y-88427600D02*
X139801600Y-88849200D01*
X139380000Y-69029924D02*
X139380000Y-88427600D01*
D22*
X119380000Y-69029924D02*
X128633801Y-78283725D01*
D28*
X128524000Y-133858000D02*
X128549400Y-133883400D01*
X128524000Y-129692400D02*
X128524000Y-133858000D01*
D22*
X128633801Y-78283725D02*
X128633801Y-86360000D01*
D27*
X125520492Y-109429508D02*
X127516001Y-107433999D01*
X125520492Y-124656892D02*
X125520492Y-109429508D01*
X127516001Y-107433999D02*
X128016000Y-106934000D01*
X128633801Y-86360000D02*
X128633801Y-90844057D01*
X128633801Y-90844057D02*
X125476000Y-94001858D01*
X127516001Y-106434001D02*
X128016000Y-106934000D01*
X125476000Y-94001858D02*
X125476000Y-104394000D01*
X125476000Y-104394000D02*
X127516001Y-106434001D01*
X128549400Y-127685800D02*
X125520492Y-124656892D01*
D22*
X147332700Y-114109500D02*
X141173200Y-107950000D01*
X140915106Y-107950000D02*
X140208000Y-107950000D01*
X141173200Y-107950000D02*
X140915106Y-107950000D01*
D24*
X174114500Y-89109500D02*
X180200300Y-89109500D01*
X172700300Y-89109500D02*
X174114500Y-89109500D01*
X171574500Y-71151244D02*
X171551600Y-71174144D01*
X171574500Y-69029924D02*
X171574500Y-71151244D01*
X172700300Y-89109500D02*
X171574500Y-87983700D01*
X171574500Y-87983700D02*
X171574500Y-69029924D01*
D22*
X151574500Y-69029924D02*
X161298201Y-78753625D01*
D10*
X161696389Y-133545346D02*
X161296390Y-133945345D01*
X162306000Y-132935735D02*
X161696389Y-133545346D01*
X162306000Y-129794000D02*
X162306000Y-132935735D01*
D22*
X161298201Y-78753625D02*
X161298201Y-88900000D01*
X176276000Y-109419106D02*
X176276000Y-108712000D01*
X176276000Y-110185200D02*
X176276000Y-109419106D01*
X180200300Y-114109500D02*
X176276000Y-110185200D01*
D10*
X157988000Y-125476000D02*
X157988000Y-110998008D01*
X160147000Y-127635000D02*
X157988000Y-125476000D01*
X162306000Y-127635000D02*
X160147000Y-127635000D01*
X157988000Y-110998008D02*
X161044009Y-107941999D01*
X161044009Y-107941999D02*
X161544008Y-107442000D01*
X161298201Y-88900000D02*
X158537199Y-91661002D01*
X161044009Y-106942001D02*
X161544008Y-107442000D01*
X158537199Y-104435191D02*
X161044009Y-106942001D01*
X158537199Y-91661002D02*
X158537199Y-104435191D01*
D24*
X213067900Y-89109500D02*
X205567900Y-89109500D01*
X203769000Y-87310600D02*
X203769000Y-69029924D01*
X205567900Y-89109500D02*
X203769000Y-87310600D01*
D28*
X184007210Y-129794000D02*
X180594000Y-133207210D01*
X187198000Y-129794000D02*
X184007210Y-129794000D01*
X180594000Y-133207210D02*
X180594000Y-133731000D01*
D22*
X208534000Y-109575600D02*
X208534000Y-109220000D01*
X213067900Y-114109500D02*
X208534000Y-109575600D01*
D27*
X187198000Y-127635000D02*
X194056000Y-120777000D01*
D22*
X193962601Y-79223525D02*
X193962601Y-90281921D01*
X183769000Y-69029924D02*
X193962601Y-79223525D01*
X191074599Y-93169923D02*
X191074599Y-103952599D01*
D27*
X194056000Y-120777000D02*
X194056000Y-107641106D01*
D22*
X191074599Y-103952599D02*
X193556001Y-106434001D01*
X193962601Y-90281921D02*
X191074599Y-93169923D01*
X193556001Y-106434001D02*
X194056000Y-106934000D01*
D27*
X194056000Y-107641106D02*
X194056000Y-106934000D01*
D24*
X215893000Y-58740000D02*
X223393000Y-58740000D01*
X245935500Y-89109500D02*
X238435500Y-89109500D01*
D25*
X223393000Y-58740000D02*
X225872000Y-58740000D01*
X236935501Y-87609501D02*
X238435500Y-89109500D01*
X228894999Y-79568999D02*
X236935501Y-87609501D01*
X228894999Y-61762999D02*
X228894999Y-79568999D01*
X225872000Y-58740000D02*
X228894999Y-61762999D01*
D22*
X223393000Y-78740000D02*
X223393000Y-80861320D01*
X223393000Y-80861320D02*
X226627001Y-84095321D01*
D28*
X216963710Y-129794000D02*
X213487000Y-133270710D01*
X219964000Y-129794000D02*
X216963710Y-129794000D01*
X213487000Y-133270710D02*
X213487000Y-133858000D01*
D22*
X226627001Y-84095321D02*
X226627001Y-88392000D01*
X245935500Y-114109500D02*
X244435501Y-112609501D01*
X244435501Y-112609501D02*
X240284001Y-108458001D01*
D27*
X219964000Y-113792000D02*
X226322001Y-107433999D01*
X219964000Y-127762000D02*
X219964000Y-113792000D01*
D10*
X226322001Y-106434001D02*
X226822000Y-106934000D01*
X223012000Y-103124000D02*
X226322001Y-106434001D01*
X223012000Y-92007001D02*
X223012000Y-103124000D01*
D27*
X226322001Y-107433999D02*
X226822000Y-106934000D01*
D10*
X226627001Y-88392000D02*
X223012000Y-92007001D01*
D24*
X81597500Y-99109500D02*
X74097500Y-99109500D01*
X79128000Y-140396000D02*
X85272276Y-140396000D01*
X85272276Y-140396000D02*
X90844001Y-134824275D01*
X83097499Y-100609499D02*
X81597500Y-99109500D01*
X90844001Y-108356001D02*
X83097499Y-100609499D01*
X90844001Y-134824275D02*
X90844001Y-108356001D01*
X114465100Y-99109500D02*
X106965100Y-99109500D01*
X106965100Y-101230820D02*
X106965100Y-99109500D01*
X101854000Y-106341920D02*
X106965100Y-101230820D01*
X101854000Y-118203998D02*
X101854000Y-106341920D01*
X105344000Y-124834000D02*
X105344000Y-121693998D01*
X105344000Y-121693998D02*
X101854000Y-118203998D01*
X147332700Y-99109500D02*
X139832700Y-99109500D01*
X138332701Y-100609499D02*
X139832700Y-99109500D01*
X138332701Y-101407101D02*
X138332701Y-100609499D01*
X134332699Y-105407103D02*
X138332701Y-101407101D01*
X140630302Y-99109500D02*
X134332699Y-105407103D01*
X147332700Y-99109500D02*
X140630302Y-99109500D01*
X138300500Y-122712680D02*
X138300500Y-124834000D01*
X138300500Y-120717302D02*
X138300500Y-122712680D01*
X134332699Y-116749501D02*
X138300500Y-120717302D01*
X134332699Y-105407103D02*
X134332699Y-116749501D01*
X180200300Y-99109500D02*
X172700300Y-99109500D01*
X171200301Y-100609499D02*
X172700300Y-99109500D01*
X171200301Y-101203901D02*
X171200301Y-100609499D01*
X167200299Y-105203903D02*
X171200301Y-101203901D01*
X167200299Y-116749501D02*
X167200299Y-105203903D01*
X171257000Y-120806202D02*
X167200299Y-116749501D01*
X171257000Y-124834000D02*
X171257000Y-120806202D01*
X213067900Y-99109500D02*
X205567900Y-99109500D01*
X204067901Y-100609499D02*
X205567900Y-99109500D01*
X200067899Y-104609501D02*
X204067901Y-100609499D01*
X200067899Y-116749501D02*
X200067899Y-104609501D01*
X204213500Y-120895102D02*
X200067899Y-116749501D01*
X204213500Y-124834000D02*
X204213500Y-120895102D01*
X237170000Y-122712680D02*
X237170000Y-124834000D01*
X237170000Y-121693998D02*
X237170000Y-122712680D01*
X232935499Y-117459497D02*
X237170000Y-121693998D01*
X232935499Y-104609501D02*
X232935499Y-117459497D01*
X238435500Y-99109500D02*
X232935499Y-104609501D01*
X238435500Y-99109500D02*
X245935500Y-99109500D01*
D27*
X71628000Y-120396000D02*
X82270600Y-131038600D01*
X82270600Y-131038600D02*
X82270600Y-132435600D01*
X82270600Y-132435600D02*
X82219800Y-132486400D01*
D28*
X118300500Y-132334000D02*
X127330200Y-132334000D01*
X127330200Y-132334000D02*
X127406400Y-132410200D01*
X151257000Y-132334000D02*
X160762990Y-132334000D01*
X148463000Y-149987000D02*
X153492200Y-149987000D01*
X153492200Y-149987000D02*
X153593800Y-149885400D01*
X148463000Y-148983797D02*
X152514955Y-148983797D01*
X152514955Y-148983797D02*
X152565327Y-149034169D01*
X174244000Y-149352000D02*
X175387000Y-149352000D01*
X173482000Y-148590000D02*
X174244000Y-149352000D01*
D29*
G36*
X211930574Y-145870258D02*
X212013972Y-145966355D01*
X212044000Y-146089997D01*
X212044000Y-153500000D01*
X160639625Y-153500000D01*
X163666070Y-150473556D01*
X163691015Y-150473556D01*
X164242328Y-150245195D01*
X164664285Y-149823238D01*
X164892646Y-149271925D01*
X164892646Y-148675187D01*
X164742012Y-148311523D01*
X172082000Y-148311523D01*
X172082000Y-148868477D01*
X172295137Y-149383037D01*
X172688963Y-149776863D01*
X173203523Y-149990000D01*
X173324102Y-149990000D01*
X173388333Y-150054231D01*
X173449791Y-150146209D01*
X173655272Y-150283507D01*
X173814177Y-150389684D01*
X174244000Y-150475181D01*
X174352495Y-150453600D01*
X174508700Y-150453600D01*
X174593963Y-150538863D01*
X175108523Y-150752000D01*
X175665477Y-150752000D01*
X176180037Y-150538863D01*
X176573863Y-150145037D01*
X176787000Y-149630477D01*
X176787000Y-149073523D01*
X176574293Y-148560000D01*
X186143609Y-148560000D01*
X186143609Y-151160000D01*
X186221221Y-151550181D01*
X186442240Y-151880960D01*
X186773019Y-152101979D01*
X187163200Y-152179591D01*
X189163200Y-152179591D01*
X189553381Y-152101979D01*
X189796695Y-151939402D01*
X189961858Y-152049761D01*
X190703200Y-152197223D01*
X191444543Y-152049761D01*
X191973200Y-151696524D01*
X192501858Y-152049761D01*
X193243200Y-152197223D01*
X193984543Y-152049761D01*
X194498034Y-151706658D01*
X195002840Y-152043959D01*
X195783200Y-152199182D01*
X196563561Y-152043959D01*
X197053201Y-151716792D01*
X197542840Y-152043959D01*
X198323200Y-152199182D01*
X199103561Y-152043959D01*
X199593201Y-151716792D01*
X200082840Y-152043959D01*
X200863200Y-152199182D01*
X201643561Y-152043959D01*
X202305119Y-151601919D01*
X202747159Y-150940361D01*
X202863200Y-150356981D01*
X202863200Y-149363018D01*
X202747159Y-148779639D01*
X202305119Y-148118081D01*
X201643560Y-147676041D01*
X200863200Y-147520818D01*
X200082839Y-147676041D01*
X199593200Y-148003208D01*
X199103560Y-147676041D01*
X198323200Y-147520818D01*
X197542839Y-147676041D01*
X197053200Y-148003208D01*
X196563560Y-147676041D01*
X195783200Y-147520818D01*
X195002839Y-147676041D01*
X194498034Y-148013342D01*
X193984542Y-147670239D01*
X193243200Y-147522777D01*
X192501857Y-147670239D01*
X191973200Y-148023476D01*
X191444542Y-147670239D01*
X190703200Y-147522777D01*
X189961857Y-147670239D01*
X189796694Y-147780597D01*
X189553381Y-147618021D01*
X189163200Y-147540409D01*
X187163200Y-147540409D01*
X186773019Y-147618021D01*
X186442240Y-147839040D01*
X186221221Y-148169819D01*
X186143609Y-148560000D01*
X176574293Y-148560000D01*
X176573863Y-148558963D01*
X176180037Y-148165137D01*
X175665477Y-147952000D01*
X175108523Y-147952000D01*
X174788063Y-148084738D01*
X174668863Y-147796963D01*
X174275037Y-147403137D01*
X173760477Y-147190000D01*
X173203523Y-147190000D01*
X172688963Y-147403137D01*
X172295137Y-147796963D01*
X172082000Y-148311523D01*
X164742012Y-148311523D01*
X164664285Y-148123874D01*
X164242328Y-147701917D01*
X163691015Y-147473556D01*
X163094277Y-147473556D01*
X162542964Y-147701917D01*
X162121007Y-148123874D01*
X161892646Y-148675187D01*
X161892646Y-148700132D01*
X158303779Y-152289000D01*
X125771624Y-152289000D01*
X125391591Y-151908967D01*
X125694367Y-151706658D01*
X126207858Y-152049761D01*
X126949200Y-152197223D01*
X127690543Y-152049761D01*
X128219200Y-151696524D01*
X128747858Y-152049761D01*
X129489200Y-152197223D01*
X130230543Y-152049761D01*
X130744034Y-151706658D01*
X131248840Y-152043959D01*
X132029200Y-152199182D01*
X132809561Y-152043959D01*
X133299201Y-151716792D01*
X133788840Y-152043959D01*
X134569200Y-152199182D01*
X135349561Y-152043959D01*
X135839201Y-151716792D01*
X136328840Y-152043959D01*
X137109200Y-152199182D01*
X137889561Y-152043959D01*
X138379201Y-151716792D01*
X138868840Y-152043959D01*
X139649200Y-152199182D01*
X140429561Y-152043959D01*
X141091119Y-151601919D01*
X141533159Y-150940361D01*
X141649200Y-150356981D01*
X141649200Y-149363018D01*
X141533159Y-148779639D01*
X141483501Y-148705320D01*
X147063000Y-148705320D01*
X147063000Y-149262274D01*
X147155421Y-149485399D01*
X147063000Y-149708523D01*
X147063000Y-150265477D01*
X147276137Y-150780037D01*
X147669963Y-151173863D01*
X148184523Y-151387000D01*
X148741477Y-151387000D01*
X149256037Y-151173863D01*
X149341300Y-151088600D01*
X152840204Y-151088600D01*
X153315323Y-151285400D01*
X153872277Y-151285400D01*
X154386837Y-151072263D01*
X154780663Y-150678437D01*
X154993800Y-150163877D01*
X154993800Y-149606923D01*
X154780663Y-149092363D01*
X154386837Y-148698537D01*
X153872277Y-148485400D01*
X153853369Y-148485400D01*
X153752190Y-148241132D01*
X153358364Y-147847306D01*
X152843804Y-147634169D01*
X152286850Y-147634169D01*
X151772290Y-147847306D01*
X151737399Y-147882197D01*
X149341300Y-147882197D01*
X149256037Y-147796934D01*
X148741477Y-147583797D01*
X148184523Y-147583797D01*
X147669963Y-147796934D01*
X147276137Y-148190760D01*
X147063000Y-148705320D01*
X141483501Y-148705320D01*
X141091119Y-148118081D01*
X140429560Y-147676041D01*
X139649200Y-147520818D01*
X138868839Y-147676041D01*
X138379200Y-148003208D01*
X137889560Y-147676041D01*
X137109200Y-147520818D01*
X136328839Y-147676041D01*
X135839200Y-148003208D01*
X135349560Y-147676041D01*
X134569200Y-147520818D01*
X133788839Y-147676041D01*
X133299200Y-148003208D01*
X132809560Y-147676041D01*
X132029200Y-147520818D01*
X131248839Y-147676041D01*
X130744034Y-148013342D01*
X130230542Y-147670239D01*
X129489200Y-147522777D01*
X128747857Y-147670239D01*
X128219200Y-148023476D01*
X127690542Y-147670239D01*
X126949200Y-147522777D01*
X126207857Y-147670239D01*
X125694366Y-148013342D01*
X125189560Y-147676041D01*
X124409200Y-147520818D01*
X123628839Y-147676041D01*
X123487527Y-147770463D01*
X123259381Y-147618021D01*
X122869200Y-147540409D01*
X120869200Y-147540409D01*
X120479019Y-147618021D01*
X120148240Y-147839040D01*
X119927221Y-148169819D01*
X119849609Y-148560000D01*
X119849609Y-151160000D01*
X119927221Y-151550181D01*
X120148240Y-151880960D01*
X120479019Y-152101979D01*
X120869200Y-152179591D01*
X122115368Y-152179591D01*
X123435776Y-153500000D01*
X51500000Y-153500000D01*
X51500000Y-150922000D01*
X91087503Y-150922000D01*
X91826608Y-151069017D01*
X92565712Y-150922000D01*
X93524195Y-150922000D01*
X93636478Y-150900195D01*
X93727642Y-150863400D01*
X108416409Y-150863400D01*
X108416409Y-152463400D01*
X108494021Y-152853581D01*
X108715040Y-153184360D01*
X109045819Y-153405379D01*
X109436000Y-153482991D01*
X111036000Y-153482991D01*
X111426181Y-153405379D01*
X111756960Y-153184360D01*
X111977979Y-152853581D01*
X112055591Y-152463400D01*
X112055591Y-150863400D01*
X114639409Y-150863400D01*
X114639409Y-152463400D01*
X114717021Y-152853581D01*
X114938040Y-153184360D01*
X115268819Y-153405379D01*
X115659000Y-153482991D01*
X117259000Y-153482991D01*
X117649181Y-153405379D01*
X117979960Y-153184360D01*
X118200979Y-152853581D01*
X118278591Y-152463400D01*
X118278591Y-150863400D01*
X118200979Y-150473219D01*
X117979960Y-150142440D01*
X117649181Y-149921421D01*
X117259000Y-149843809D01*
X115659000Y-149843809D01*
X115268819Y-149921421D01*
X114938040Y-150142440D01*
X114717021Y-150473219D01*
X114639409Y-150863400D01*
X112055591Y-150863400D01*
X111977979Y-150473219D01*
X111756960Y-150142440D01*
X111426181Y-149921421D01*
X111036000Y-149843809D01*
X109436000Y-149843809D01*
X109045819Y-149921421D01*
X108715040Y-150142440D01*
X108494021Y-150473219D01*
X108416409Y-150863400D01*
X93727642Y-150863400D01*
X93983550Y-150760113D01*
X94079510Y-150697869D01*
X94323395Y-150462689D01*
X95523894Y-149660541D01*
X97003543Y-148180892D01*
X96877597Y-148484954D01*
X96877597Y-149041908D01*
X97090734Y-149556468D01*
X97484560Y-149950294D01*
X97999120Y-150163431D01*
X98556074Y-150163431D01*
X99070634Y-149950294D01*
X99464460Y-149556468D01*
X99662935Y-149077306D01*
X99694722Y-149029734D01*
X99725100Y-148984269D01*
X99891038Y-148735926D01*
X99960112Y-148388668D01*
X99960112Y-148388664D01*
X99983434Y-148271417D01*
X99960112Y-148154170D01*
X99960112Y-148047625D01*
X100169612Y-147541846D01*
X100169612Y-146984892D01*
X99956475Y-146470332D01*
X99562649Y-146076506D01*
X99241114Y-145943322D01*
X99430436Y-145754000D01*
X211766959Y-145754000D01*
X211930574Y-145870258D01*
X211930574Y-145870258D01*
G37*
X211930574Y-145870258D02*
X212013972Y-145966355D01*
X212044000Y-146089997D01*
X212044000Y-153500000D01*
X160639625Y-153500000D01*
X163666070Y-150473556D01*
X163691015Y-150473556D01*
X164242328Y-150245195D01*
X164664285Y-149823238D01*
X164892646Y-149271925D01*
X164892646Y-148675187D01*
X164742012Y-148311523D01*
X172082000Y-148311523D01*
X172082000Y-148868477D01*
X172295137Y-149383037D01*
X172688963Y-149776863D01*
X173203523Y-149990000D01*
X173324102Y-149990000D01*
X173388333Y-150054231D01*
X173449791Y-150146209D01*
X173655272Y-150283507D01*
X173814177Y-150389684D01*
X174244000Y-150475181D01*
X174352495Y-150453600D01*
X174508700Y-150453600D01*
X174593963Y-150538863D01*
X175108523Y-150752000D01*
X175665477Y-150752000D01*
X176180037Y-150538863D01*
X176573863Y-150145037D01*
X176787000Y-149630477D01*
X176787000Y-149073523D01*
X176574293Y-148560000D01*
X186143609Y-148560000D01*
X186143609Y-151160000D01*
X186221221Y-151550181D01*
X186442240Y-151880960D01*
X186773019Y-152101979D01*
X187163200Y-152179591D01*
X189163200Y-152179591D01*
X189553381Y-152101979D01*
X189796695Y-151939402D01*
X189961858Y-152049761D01*
X190703200Y-152197223D01*
X191444543Y-152049761D01*
X191973200Y-151696524D01*
X192501858Y-152049761D01*
X193243200Y-152197223D01*
X193984543Y-152049761D01*
X194498034Y-151706658D01*
X195002840Y-152043959D01*
X195783200Y-152199182D01*
X196563561Y-152043959D01*
X197053201Y-151716792D01*
X197542840Y-152043959D01*
X198323200Y-152199182D01*
X199103561Y-152043959D01*
X199593201Y-151716792D01*
X200082840Y-152043959D01*
X200863200Y-152199182D01*
X201643561Y-152043959D01*
X202305119Y-151601919D01*
X202747159Y-150940361D01*
X202863200Y-150356981D01*
X202863200Y-149363018D01*
X202747159Y-148779639D01*
X202305119Y-148118081D01*
X201643560Y-147676041D01*
X200863200Y-147520818D01*
X200082839Y-147676041D01*
X199593200Y-148003208D01*
X199103560Y-147676041D01*
X198323200Y-147520818D01*
X197542839Y-147676041D01*
X197053200Y-148003208D01*
X196563560Y-147676041D01*
X195783200Y-147520818D01*
X195002839Y-147676041D01*
X194498034Y-148013342D01*
X193984542Y-147670239D01*
X193243200Y-147522777D01*
X192501857Y-147670239D01*
X191973200Y-148023476D01*
X191444542Y-147670239D01*
X190703200Y-147522777D01*
X189961857Y-147670239D01*
X189796694Y-147780597D01*
X189553381Y-147618021D01*
X189163200Y-147540409D01*
X187163200Y-147540409D01*
X186773019Y-147618021D01*
X186442240Y-147839040D01*
X186221221Y-148169819D01*
X186143609Y-148560000D01*
X176574293Y-148560000D01*
X176573863Y-148558963D01*
X176180037Y-148165137D01*
X175665477Y-147952000D01*
X175108523Y-147952000D01*
X174788063Y-148084738D01*
X174668863Y-147796963D01*
X174275037Y-147403137D01*
X173760477Y-147190000D01*
X173203523Y-147190000D01*
X172688963Y-147403137D01*
X172295137Y-147796963D01*
X172082000Y-148311523D01*
X164742012Y-148311523D01*
X164664285Y-148123874D01*
X164242328Y-147701917D01*
X163691015Y-147473556D01*
X163094277Y-147473556D01*
X162542964Y-147701917D01*
X162121007Y-148123874D01*
X161892646Y-148675187D01*
X161892646Y-148700132D01*
X158303779Y-152289000D01*
X125771624Y-152289000D01*
X125391591Y-151908967D01*
X125694367Y-151706658D01*
X126207858Y-152049761D01*
X126949200Y-152197223D01*
X127690543Y-152049761D01*
X128219200Y-151696524D01*
X128747858Y-152049761D01*
X129489200Y-152197223D01*
X130230543Y-152049761D01*
X130744034Y-151706658D01*
X131248840Y-152043959D01*
X132029200Y-152199182D01*
X132809561Y-152043959D01*
X133299201Y-151716792D01*
X133788840Y-152043959D01*
X134569200Y-152199182D01*
X135349561Y-152043959D01*
X135839201Y-151716792D01*
X136328840Y-152043959D01*
X137109200Y-152199182D01*
X137889561Y-152043959D01*
X138379201Y-151716792D01*
X138868840Y-152043959D01*
X139649200Y-152199182D01*
X140429561Y-152043959D01*
X141091119Y-151601919D01*
X141533159Y-150940361D01*
X141649200Y-150356981D01*
X141649200Y-149363018D01*
X141533159Y-148779639D01*
X141483501Y-148705320D01*
X147063000Y-148705320D01*
X147063000Y-149262274D01*
X147155421Y-149485399D01*
X147063000Y-149708523D01*
X147063000Y-150265477D01*
X147276137Y-150780037D01*
X147669963Y-151173863D01*
X148184523Y-151387000D01*
X148741477Y-151387000D01*
X149256037Y-151173863D01*
X149341300Y-151088600D01*
X152840204Y-151088600D01*
X153315323Y-151285400D01*
X153872277Y-151285400D01*
X154386837Y-151072263D01*
X154780663Y-150678437D01*
X154993800Y-150163877D01*
X154993800Y-149606923D01*
X154780663Y-149092363D01*
X154386837Y-148698537D01*
X153872277Y-148485400D01*
X153853369Y-148485400D01*
X153752190Y-148241132D01*
X153358364Y-147847306D01*
X152843804Y-147634169D01*
X152286850Y-147634169D01*
X151772290Y-147847306D01*
X151737399Y-147882197D01*
X149341300Y-147882197D01*
X149256037Y-147796934D01*
X148741477Y-147583797D01*
X148184523Y-147583797D01*
X147669963Y-147796934D01*
X147276137Y-148190760D01*
X147063000Y-148705320D01*
X141483501Y-148705320D01*
X141091119Y-148118081D01*
X140429560Y-147676041D01*
X139649200Y-147520818D01*
X138868839Y-147676041D01*
X138379200Y-148003208D01*
X137889560Y-147676041D01*
X137109200Y-147520818D01*
X136328839Y-147676041D01*
X135839200Y-148003208D01*
X135349560Y-147676041D01*
X134569200Y-147520818D01*
X133788839Y-147676041D01*
X133299200Y-148003208D01*
X132809560Y-147676041D01*
X132029200Y-147520818D01*
X131248839Y-147676041D01*
X130744034Y-148013342D01*
X130230542Y-147670239D01*
X129489200Y-147522777D01*
X128747857Y-147670239D01*
X128219200Y-148023476D01*
X127690542Y-147670239D01*
X126949200Y-147522777D01*
X126207857Y-147670239D01*
X125694366Y-148013342D01*
X125189560Y-147676041D01*
X124409200Y-147520818D01*
X123628839Y-147676041D01*
X123487527Y-147770463D01*
X123259381Y-147618021D01*
X122869200Y-147540409D01*
X120869200Y-147540409D01*
X120479019Y-147618021D01*
X120148240Y-147839040D01*
X119927221Y-148169819D01*
X119849609Y-148560000D01*
X119849609Y-151160000D01*
X119927221Y-151550181D01*
X120148240Y-151880960D01*
X120479019Y-152101979D01*
X120869200Y-152179591D01*
X122115368Y-152179591D01*
X123435776Y-153500000D01*
X51500000Y-153500000D01*
X51500000Y-150922000D01*
X91087503Y-150922000D01*
X91826608Y-151069017D01*
X92565712Y-150922000D01*
X93524195Y-150922000D01*
X93636478Y-150900195D01*
X93727642Y-150863400D01*
X108416409Y-150863400D01*
X108416409Y-152463400D01*
X108494021Y-152853581D01*
X108715040Y-153184360D01*
X109045819Y-153405379D01*
X109436000Y-153482991D01*
X111036000Y-153482991D01*
X111426181Y-153405379D01*
X111756960Y-153184360D01*
X111977979Y-152853581D01*
X112055591Y-152463400D01*
X112055591Y-150863400D01*
X114639409Y-150863400D01*
X114639409Y-152463400D01*
X114717021Y-152853581D01*
X114938040Y-153184360D01*
X115268819Y-153405379D01*
X115659000Y-153482991D01*
X117259000Y-153482991D01*
X117649181Y-153405379D01*
X117979960Y-153184360D01*
X118200979Y-152853581D01*
X118278591Y-152463400D01*
X118278591Y-150863400D01*
X118200979Y-150473219D01*
X117979960Y-150142440D01*
X117649181Y-149921421D01*
X117259000Y-149843809D01*
X115659000Y-149843809D01*
X115268819Y-149921421D01*
X114938040Y-150142440D01*
X114717021Y-150473219D01*
X114639409Y-150863400D01*
X112055591Y-150863400D01*
X111977979Y-150473219D01*
X111756960Y-150142440D01*
X111426181Y-149921421D01*
X111036000Y-149843809D01*
X109436000Y-149843809D01*
X109045819Y-149921421D01*
X108715040Y-150142440D01*
X108494021Y-150473219D01*
X108416409Y-150863400D01*
X93727642Y-150863400D01*
X93983550Y-150760113D01*
X94079510Y-150697869D01*
X94323395Y-150462689D01*
X95523894Y-149660541D01*
X97003543Y-148180892D01*
X96877597Y-148484954D01*
X96877597Y-149041908D01*
X97090734Y-149556468D01*
X97484560Y-149950294D01*
X97999120Y-150163431D01*
X98556074Y-150163431D01*
X99070634Y-149950294D01*
X99464460Y-149556468D01*
X99662935Y-149077306D01*
X99694722Y-149029734D01*
X99725100Y-148984269D01*
X99891038Y-148735926D01*
X99960112Y-148388668D01*
X99960112Y-148388664D01*
X99983434Y-148271417D01*
X99960112Y-148154170D01*
X99960112Y-148047625D01*
X100169612Y-147541846D01*
X100169612Y-146984892D01*
X99956475Y-146470332D01*
X99562649Y-146076506D01*
X99241114Y-145943322D01*
X99430436Y-145754000D01*
X211766959Y-145754000D01*
X211930574Y-145870258D01*
D30*
G36*
X242927500Y-113593345D02*
X242927500Y-114707828D01*
X243385441Y-115813395D01*
X244231605Y-116659559D01*
X245337172Y-117117500D01*
X246533828Y-117117500D01*
X247639395Y-116659559D01*
X247992001Y-116306953D01*
X247992001Y-152992000D01*
X213090000Y-152992000D01*
X213090000Y-146454000D01*
X239146192Y-146454000D01*
X241042174Y-146076866D01*
X241458318Y-145798807D01*
X242149398Y-145512553D01*
X242473821Y-145295780D01*
X242852660Y-144984874D01*
X246330874Y-141506660D01*
X246641780Y-141127821D01*
X246858553Y-140803398D01*
X247231844Y-139902192D01*
X247307964Y-139519508D01*
X247356000Y-139031786D01*
X247356000Y-131884190D01*
X247319227Y-131456977D01*
X247260823Y-131120231D01*
X246973093Y-130315693D01*
X246804701Y-130018282D01*
X246262861Y-129357637D01*
X246261436Y-129356407D01*
X247047211Y-128570633D01*
X247194332Y-128472330D01*
X247583768Y-127889497D01*
X247686001Y-127375538D01*
X247686001Y-127375537D01*
X247720520Y-127201999D01*
X247686001Y-127028460D01*
X247686001Y-121771540D01*
X247720520Y-121598001D01*
X247583768Y-120910503D01*
X247514076Y-120806202D01*
X247194332Y-120327670D01*
X247047211Y-120229367D01*
X241443500Y-114625657D01*
X241443500Y-113511172D01*
X240985559Y-112405605D01*
X240139395Y-111559441D01*
X239816823Y-111425827D01*
X239942578Y-110608422D01*
X242927500Y-113593345D01*
X242927500Y-113593345D01*
G37*
X242927500Y-113593345D02*
X242927500Y-114707828D01*
X243385441Y-115813395D01*
X244231605Y-116659559D01*
X245337172Y-117117500D01*
X246533828Y-117117500D01*
X247639395Y-116659559D01*
X247992001Y-116306953D01*
X247992001Y-152992000D01*
X213090000Y-152992000D01*
X213090000Y-146454000D01*
X239146192Y-146454000D01*
X241042174Y-146076866D01*
X241458318Y-145798807D01*
X242149398Y-145512553D01*
X242473821Y-145295780D01*
X242852660Y-144984874D01*
X246330874Y-141506660D01*
X246641780Y-141127821D01*
X246858553Y-140803398D01*
X247231844Y-139902192D01*
X247307964Y-139519508D01*
X247356000Y-139031786D01*
X247356000Y-131884190D01*
X247319227Y-131456977D01*
X247260823Y-131120231D01*
X246973093Y-130315693D01*
X246804701Y-130018282D01*
X246262861Y-129357637D01*
X246261436Y-129356407D01*
X247047211Y-128570633D01*
X247194332Y-128472330D01*
X247583768Y-127889497D01*
X247686001Y-127375538D01*
X247686001Y-127375537D01*
X247720520Y-127201999D01*
X247686001Y-127028460D01*
X247686001Y-121771540D01*
X247720520Y-121598001D01*
X247583768Y-120910503D01*
X247514076Y-120806202D01*
X247194332Y-120327670D01*
X247047211Y-120229367D01*
X241443500Y-114625657D01*
X241443500Y-113511172D01*
X240985559Y-112405605D01*
X240139395Y-111559441D01*
X239816823Y-111425827D01*
X239942578Y-110608422D01*
X242927500Y-113593345D01*
G36*
X63996865Y-113224709D02*
X64095168Y-113371830D01*
X64678001Y-113761266D01*
X65191960Y-113863499D01*
X65191961Y-113863499D01*
X65365498Y-113898018D01*
X65539035Y-113863499D01*
X71089500Y-113863499D01*
X71089500Y-114707828D01*
X71547441Y-115813395D01*
X72393605Y-116659559D01*
X72592625Y-116741996D01*
X72644047Y-116818954D01*
X72812373Y-116931426D01*
X76120000Y-120239054D01*
X76120000Y-120994328D01*
X76577941Y-122099895D01*
X77424105Y-122946059D01*
X78529672Y-123404000D01*
X79726328Y-123404000D01*
X80671460Y-123012513D01*
X82336000Y-124677054D01*
X82336000Y-125432328D01*
X82793941Y-126537895D01*
X83457022Y-127200976D01*
X82146020Y-128511979D01*
X74633765Y-120999724D01*
X74636000Y-120994328D01*
X74636000Y-119797672D01*
X74178059Y-118692105D01*
X73331895Y-117845941D01*
X72226328Y-117388000D01*
X71029672Y-117388000D01*
X69924105Y-117845941D01*
X69077941Y-118692105D01*
X68620000Y-119797672D01*
X68620000Y-120994328D01*
X69077941Y-122099895D01*
X69924105Y-122946059D01*
X71029672Y-123404000D01*
X72226328Y-123404000D01*
X72231724Y-123401765D01*
X80494868Y-131664910D01*
X80311800Y-132106875D01*
X80311800Y-132865925D01*
X80602276Y-133567195D01*
X80695971Y-133660890D01*
X80650559Y-133679700D01*
X80159216Y-134171043D01*
X76800289Y-136308542D01*
X76354390Y-136670487D01*
X76035415Y-136996925D01*
X75981315Y-137086444D01*
X75883681Y-137151681D01*
X75099718Y-138324964D01*
X75019037Y-138130182D01*
X73893818Y-137004963D01*
X72423650Y-136396000D01*
X70832350Y-136396000D01*
X70572000Y-136503840D01*
X70572000Y-127492000D01*
X70523964Y-127004277D01*
X70447844Y-126621594D01*
X70074555Y-125720392D01*
X69857782Y-125395968D01*
X69638635Y-125176821D01*
X69242994Y-124221659D01*
X67484841Y-122463506D01*
X65187702Y-121512000D01*
X62701298Y-121512000D01*
X60404159Y-122463506D01*
X58646006Y-124221659D01*
X58622812Y-124277654D01*
X58215126Y-124685340D01*
X57904220Y-125064179D01*
X57687447Y-125388602D01*
X57314156Y-126289808D01*
X57238036Y-126672492D01*
X57190000Y-127160214D01*
X57190000Y-142057084D01*
X57242837Y-142568350D01*
X57326483Y-142968720D01*
X57735879Y-143905730D01*
X57972825Y-144239120D01*
X58312072Y-144625246D01*
X62885606Y-148860000D01*
X52008000Y-148860000D01*
X52008000Y-101235843D01*
X63996865Y-113224709D01*
X63996865Y-113224709D01*
G37*
X63996865Y-113224709D02*
X64095168Y-113371830D01*
X64678001Y-113761266D01*
X65191960Y-113863499D01*
X65191961Y-113863499D01*
X65365498Y-113898018D01*
X65539035Y-113863499D01*
X71089500Y-113863499D01*
X71089500Y-114707828D01*
X71547441Y-115813395D01*
X72393605Y-116659559D01*
X72592625Y-116741996D01*
X72644047Y-116818954D01*
X72812373Y-116931426D01*
X76120000Y-120239054D01*
X76120000Y-120994328D01*
X76577941Y-122099895D01*
X77424105Y-122946059D01*
X78529672Y-123404000D01*
X79726328Y-123404000D01*
X80671460Y-123012513D01*
X82336000Y-124677054D01*
X82336000Y-125432328D01*
X82793941Y-126537895D01*
X83457022Y-127200976D01*
X82146020Y-128511979D01*
X74633765Y-120999724D01*
X74636000Y-120994328D01*
X74636000Y-119797672D01*
X74178059Y-118692105D01*
X73331895Y-117845941D01*
X72226328Y-117388000D01*
X71029672Y-117388000D01*
X69924105Y-117845941D01*
X69077941Y-118692105D01*
X68620000Y-119797672D01*
X68620000Y-120994328D01*
X69077941Y-122099895D01*
X69924105Y-122946059D01*
X71029672Y-123404000D01*
X72226328Y-123404000D01*
X72231724Y-123401765D01*
X80494868Y-131664910D01*
X80311800Y-132106875D01*
X80311800Y-132865925D01*
X80602276Y-133567195D01*
X80695971Y-133660890D01*
X80650559Y-133679700D01*
X80159216Y-134171043D01*
X76800289Y-136308542D01*
X76354390Y-136670487D01*
X76035415Y-136996925D01*
X75981315Y-137086444D01*
X75883681Y-137151681D01*
X75099718Y-138324964D01*
X75019037Y-138130182D01*
X73893818Y-137004963D01*
X72423650Y-136396000D01*
X70832350Y-136396000D01*
X70572000Y-136503840D01*
X70572000Y-127492000D01*
X70523964Y-127004277D01*
X70447844Y-126621594D01*
X70074555Y-125720392D01*
X69857782Y-125395968D01*
X69638635Y-125176821D01*
X69242994Y-124221659D01*
X67484841Y-122463506D01*
X65187702Y-121512000D01*
X62701298Y-121512000D01*
X60404159Y-122463506D01*
X58646006Y-124221659D01*
X58622812Y-124277654D01*
X58215126Y-124685340D01*
X57904220Y-125064179D01*
X57687447Y-125388602D01*
X57314156Y-126289808D01*
X57238036Y-126672492D01*
X57190000Y-127160214D01*
X57190000Y-142057084D01*
X57242837Y-142568350D01*
X57326483Y-142968720D01*
X57735879Y-143905730D01*
X57972825Y-144239120D01*
X58312072Y-144625246D01*
X62885606Y-148860000D01*
X52008000Y-148860000D01*
X52008000Y-101235843D01*
X63996865Y-113224709D01*
G36*
X200213500Y-131538350D02*
X200213500Y-133129650D01*
X200347850Y-133454000D01*
X187005416Y-133454000D01*
X187221500Y-132932328D01*
X187221500Y-131735672D01*
X187207553Y-131702000D01*
X187577525Y-131702000D01*
X188278795Y-131411524D01*
X188815524Y-130874795D01*
X188954201Y-130540000D01*
X200627030Y-130540000D01*
X200213500Y-131538350D01*
X200213500Y-131538350D01*
G37*
X200213500Y-131538350D02*
X200213500Y-133129650D01*
X200347850Y-133454000D01*
X187005416Y-133454000D01*
X187221500Y-132932328D01*
X187221500Y-131735672D01*
X187207553Y-131702000D01*
X187577525Y-131702000D01*
X188278795Y-131411524D01*
X188815524Y-130874795D01*
X188954201Y-130540000D01*
X200627030Y-130540000D01*
X200213500Y-131538350D01*
G36*
X233170000Y-131538350D02*
X233170000Y-133129650D01*
X233304350Y-133454000D01*
X219961916Y-133454000D01*
X220178000Y-132932328D01*
X220178000Y-131735672D01*
X220164053Y-131702000D01*
X220343525Y-131702000D01*
X221044795Y-131411524D01*
X221581524Y-130874795D01*
X221720201Y-130540000D01*
X233583530Y-130540000D01*
X233170000Y-131538350D01*
X233170000Y-131538350D01*
G37*
X233170000Y-131538350D02*
X233170000Y-133129650D01*
X233304350Y-133454000D01*
X219961916Y-133454000D01*
X220178000Y-132932328D01*
X220178000Y-131735672D01*
X220164053Y-131702000D01*
X220343525Y-131702000D01*
X221044795Y-131411524D01*
X221581524Y-130874795D01*
X221720201Y-130540000D01*
X233583530Y-130540000D01*
X233170000Y-131538350D01*
G36*
X167257000Y-131538350D02*
X167257000Y-133129650D01*
X167391350Y-133454000D01*
X163869942Y-133454000D01*
X163941000Y-133096766D01*
X163941000Y-133096765D01*
X163973031Y-132935736D01*
X163941000Y-132774706D01*
X163941000Y-130832604D01*
X164062201Y-130540000D01*
X167670530Y-130540000D01*
X167257000Y-131538350D01*
X167257000Y-131538350D01*
G37*
X167257000Y-131538350D02*
X167257000Y-133129650D01*
X167391350Y-133454000D01*
X163869942Y-133454000D01*
X163941000Y-133096766D01*
X163941000Y-133096765D01*
X163973031Y-132935736D01*
X163941000Y-132774706D01*
X163941000Y-130832604D01*
X164062201Y-130540000D01*
X167670530Y-130540000D01*
X167257000Y-131538350D01*
G36*
X101344000Y-131538350D02*
X101344000Y-133129650D01*
X101478350Y-133454000D01*
X97668184Y-133454000D01*
X97335800Y-133387885D01*
X97335800Y-133249875D01*
X97045324Y-132548605D01*
X96508595Y-132011876D01*
X96186500Y-131878460D01*
X96186500Y-130786000D01*
X96771726Y-130786000D01*
X97365622Y-130540000D01*
X101757530Y-130540000D01*
X101344000Y-131538350D01*
X101344000Y-131538350D01*
G37*
X101344000Y-131538350D02*
X101344000Y-133129650D01*
X101478350Y-133454000D01*
X97668184Y-133454000D01*
X97335800Y-133387885D01*
X97335800Y-133249875D01*
X97045324Y-132548605D01*
X96508595Y-132011876D01*
X96186500Y-131878460D01*
X96186500Y-130786000D01*
X96771726Y-130786000D01*
X97365622Y-130540000D01*
X101757530Y-130540000D01*
X101344000Y-131538350D01*
G36*
X134300500Y-131538350D02*
X134300500Y-133129650D01*
X134434850Y-133454000D01*
X130436741Y-133454000D01*
X130166924Y-132802605D01*
X130133600Y-132769281D01*
X130133600Y-130781119D01*
X130141524Y-130773195D01*
X130238117Y-130540000D01*
X134714030Y-130540000D01*
X134300500Y-131538350D01*
X134300500Y-131538350D01*
G37*
X134300500Y-131538350D02*
X134300500Y-133129650D01*
X134434850Y-133454000D01*
X130436741Y-133454000D01*
X130166924Y-132802605D01*
X130133600Y-132769281D01*
X130133600Y-130781119D01*
X130141524Y-130773195D01*
X130238117Y-130540000D01*
X134714030Y-130540000D01*
X134300500Y-131538350D01*
G36*
X116829941Y-67326029D02*
X116372000Y-68431596D01*
X116372000Y-69628252D01*
X116829941Y-70733819D01*
X117676105Y-71579983D01*
X118781672Y-72037924D01*
X119896157Y-72037924D01*
X126871801Y-79013569D01*
X126871802Y-86533539D01*
X126935301Y-86852770D01*
X126935302Y-90140514D01*
X124393270Y-92682547D01*
X124251450Y-92777308D01*
X123876049Y-93339137D01*
X123853704Y-93451472D01*
X123744225Y-94001858D01*
X123777500Y-94169142D01*
X123777501Y-104226711D01*
X123744225Y-104394000D01*
X123876049Y-105056720D01*
X123876050Y-105056721D01*
X123876050Y-105056722D01*
X124251451Y-105618550D01*
X124393268Y-105713309D01*
X125613958Y-106934000D01*
X124437760Y-108110199D01*
X124295943Y-108204958D01*
X123929549Y-108753307D01*
X123920541Y-108766788D01*
X123788717Y-109429508D01*
X123821993Y-109596797D01*
X123821992Y-124489608D01*
X123788717Y-124656892D01*
X123821992Y-124824175D01*
X123920541Y-125319613D01*
X124295942Y-125881442D01*
X124437762Y-125976203D01*
X125477559Y-127016000D01*
X120372454Y-127016000D01*
X120850559Y-126537895D01*
X121308500Y-125432328D01*
X121308500Y-124235672D01*
X120850559Y-123130105D01*
X120004395Y-122283941D01*
X118898828Y-121826000D01*
X117702172Y-121826000D01*
X117328305Y-121980861D01*
X111077863Y-115730420D01*
X111136002Y-115769267D01*
X111649961Y-115871500D01*
X111649962Y-115871500D01*
X111823499Y-115906019D01*
X111977110Y-115875464D01*
X112761205Y-116659559D01*
X113866772Y-117117500D01*
X115063428Y-117117500D01*
X116168995Y-116659559D01*
X117015159Y-115813395D01*
X117473100Y-114707828D01*
X117473100Y-113511172D01*
X117015159Y-112405605D01*
X116168995Y-111559441D01*
X115063428Y-111101500D01*
X113866772Y-111101500D01*
X112761205Y-111559441D01*
X112263245Y-112057401D01*
X109390301Y-109184458D01*
X109144300Y-108590559D01*
X109047472Y-108493731D01*
X116941313Y-105178317D01*
X117370681Y-104946316D01*
X117692875Y-104729114D01*
X118377516Y-104039959D01*
X118592597Y-103716344D01*
X118962870Y-102818257D01*
X119038363Y-102437092D01*
X119086000Y-101951380D01*
X119086000Y-98812618D01*
X119015743Y-98224104D01*
X118904911Y-97766522D01*
X118711283Y-97390266D01*
X118704007Y-97353687D01*
X118653757Y-97278483D01*
X118366321Y-96719940D01*
X118234690Y-96567695D01*
X118704007Y-95865313D01*
X119053260Y-94109500D01*
X118704007Y-92353687D01*
X118429097Y-91942255D01*
X118588555Y-91703608D01*
X118961844Y-90802406D01*
X119037964Y-90419723D01*
X119086000Y-89932000D01*
X119086000Y-87818950D01*
X119042533Y-87354787D01*
X118973590Y-86989914D01*
X118844700Y-86541893D01*
X113470100Y-72827395D01*
X114451318Y-72420961D01*
X115576537Y-71295742D01*
X116185500Y-69825574D01*
X116185500Y-68234274D01*
X115725237Y-67123101D01*
X117032869Y-67123101D01*
X116829941Y-67326029D01*
X116829941Y-67326029D01*
G37*
X116829941Y-67326029D02*
X116372000Y-68431596D01*
X116372000Y-69628252D01*
X116829941Y-70733819D01*
X117676105Y-71579983D01*
X118781672Y-72037924D01*
X119896157Y-72037924D01*
X126871801Y-79013569D01*
X126871802Y-86533539D01*
X126935301Y-86852770D01*
X126935302Y-90140514D01*
X124393270Y-92682547D01*
X124251450Y-92777308D01*
X123876049Y-93339137D01*
X123853704Y-93451472D01*
X123744225Y-94001858D01*
X123777500Y-94169142D01*
X123777501Y-104226711D01*
X123744225Y-104394000D01*
X123876049Y-105056720D01*
X123876050Y-105056721D01*
X123876050Y-105056722D01*
X124251451Y-105618550D01*
X124393268Y-105713309D01*
X125613958Y-106934000D01*
X124437760Y-108110199D01*
X124295943Y-108204958D01*
X123929549Y-108753307D01*
X123920541Y-108766788D01*
X123788717Y-109429508D01*
X123821993Y-109596797D01*
X123821992Y-124489608D01*
X123788717Y-124656892D01*
X123821992Y-124824175D01*
X123920541Y-125319613D01*
X124295942Y-125881442D01*
X124437762Y-125976203D01*
X125477559Y-127016000D01*
X120372454Y-127016000D01*
X120850559Y-126537895D01*
X121308500Y-125432328D01*
X121308500Y-124235672D01*
X120850559Y-123130105D01*
X120004395Y-122283941D01*
X118898828Y-121826000D01*
X117702172Y-121826000D01*
X117328305Y-121980861D01*
X111077863Y-115730420D01*
X111136002Y-115769267D01*
X111649961Y-115871500D01*
X111649962Y-115871500D01*
X111823499Y-115906019D01*
X111977110Y-115875464D01*
X112761205Y-116659559D01*
X113866772Y-117117500D01*
X115063428Y-117117500D01*
X116168995Y-116659559D01*
X117015159Y-115813395D01*
X117473100Y-114707828D01*
X117473100Y-113511172D01*
X117015159Y-112405605D01*
X116168995Y-111559441D01*
X115063428Y-111101500D01*
X113866772Y-111101500D01*
X112761205Y-111559441D01*
X112263245Y-112057401D01*
X109390301Y-109184458D01*
X109144300Y-108590559D01*
X109047472Y-108493731D01*
X116941313Y-105178317D01*
X117370681Y-104946316D01*
X117692875Y-104729114D01*
X118377516Y-104039959D01*
X118592597Y-103716344D01*
X118962870Y-102818257D01*
X119038363Y-102437092D01*
X119086000Y-101951380D01*
X119086000Y-98812618D01*
X119015743Y-98224104D01*
X118904911Y-97766522D01*
X118711283Y-97390266D01*
X118704007Y-97353687D01*
X118653757Y-97278483D01*
X118366321Y-96719940D01*
X118234690Y-96567695D01*
X118704007Y-95865313D01*
X119053260Y-94109500D01*
X118704007Y-92353687D01*
X118429097Y-91942255D01*
X118588555Y-91703608D01*
X118961844Y-90802406D01*
X119037964Y-90419723D01*
X119086000Y-89932000D01*
X119086000Y-87818950D01*
X119042533Y-87354787D01*
X118973590Y-86989914D01*
X118844700Y-86541893D01*
X113470100Y-72827395D01*
X114451318Y-72420961D01*
X115576537Y-71295742D01*
X116185500Y-69825574D01*
X116185500Y-68234274D01*
X115725237Y-67123101D01*
X117032869Y-67123101D01*
X116829941Y-67326029D01*
G36*
X199243163Y-125317684D02*
X199924985Y-126340418D01*
X199974593Y-126589812D01*
X200259363Y-127016000D01*
X190219041Y-127016000D01*
X195138731Y-122096310D01*
X195280550Y-122001550D01*
X195463803Y-121727292D01*
X199243163Y-125317684D01*
X199243163Y-125317684D01*
G37*
X199243163Y-125317684D02*
X199924985Y-126340418D01*
X199974593Y-126589812D01*
X200259363Y-127016000D01*
X190219041Y-127016000D01*
X195138731Y-122096310D01*
X195280550Y-122001550D01*
X195463803Y-121727292D01*
X199243163Y-125317684D01*
G36*
X149024441Y-67326029D02*
X148566500Y-68431596D01*
X148566500Y-69628252D01*
X149024441Y-70733819D01*
X149870605Y-71579983D01*
X150976172Y-72037924D01*
X152090657Y-72037924D01*
X159536201Y-79483469D01*
X159536202Y-88349760D01*
X157494949Y-90391014D01*
X157358430Y-90482233D01*
X156997063Y-91023058D01*
X156956294Y-91228019D01*
X156870168Y-91661002D01*
X156902199Y-91822032D01*
X156902200Y-104274156D01*
X156870168Y-104435191D01*
X156949507Y-104834050D01*
X156997064Y-105073136D01*
X157358431Y-105613960D01*
X157494947Y-105705177D01*
X159231769Y-107442000D01*
X156945748Y-109728022D01*
X156809232Y-109819239D01*
X156718015Y-109955755D01*
X156447865Y-110360063D01*
X156320969Y-110998008D01*
X156353001Y-111159043D01*
X156353000Y-125314970D01*
X156320969Y-125476000D01*
X156353000Y-125637030D01*
X156447864Y-126113944D01*
X156809231Y-126654769D01*
X156945750Y-126745988D01*
X157215762Y-127016000D01*
X153328954Y-127016000D01*
X153807059Y-126537895D01*
X154265000Y-125432328D01*
X154265000Y-124235672D01*
X153807059Y-123130105D01*
X152960895Y-122283941D01*
X151855328Y-121826000D01*
X150658672Y-121826000D01*
X150221943Y-122006899D01*
X142840700Y-114625657D01*
X142840700Y-113511172D01*
X142382759Y-112405605D01*
X141536595Y-111559441D01*
X140431028Y-111101500D01*
X139660000Y-111101500D01*
X139660000Y-109896454D01*
X139808584Y-109958000D01*
X140607416Y-109958000D01*
X140665357Y-109934000D01*
X144324700Y-113593344D01*
X144324700Y-114707828D01*
X144782641Y-115813395D01*
X145628805Y-116659559D01*
X146734372Y-117117500D01*
X147931028Y-117117500D01*
X149036595Y-116659559D01*
X149882759Y-115813395D01*
X150340700Y-114707828D01*
X150340700Y-113511172D01*
X149882759Y-112405605D01*
X149036595Y-111559441D01*
X147931028Y-111101500D01*
X146816544Y-111101500D01*
X142541836Y-106826793D01*
X142475000Y-106726766D01*
X148864957Y-103392875D01*
X149088513Y-103348407D01*
X149841062Y-102845570D01*
X149863165Y-102831534D01*
X149871041Y-102825538D01*
X150577019Y-102353819D01*
X151571607Y-100865313D01*
X151920860Y-99109500D01*
X151571607Y-97353687D01*
X151296824Y-96942446D01*
X151143061Y-96506678D01*
X151571607Y-95865313D01*
X151920860Y-94109500D01*
X151571607Y-92353687D01*
X151450221Y-92172020D01*
X151595902Y-91957563D01*
X151978626Y-91046756D01*
X152056711Y-90659365D01*
X152106000Y-90165384D01*
X152106000Y-88347553D01*
X152052853Y-87834805D01*
X151968722Y-87433329D01*
X151811542Y-86942385D01*
X145630365Y-72841575D01*
X146645818Y-72420961D01*
X147771037Y-71295742D01*
X148380000Y-69825574D01*
X148380000Y-68234274D01*
X147919737Y-67123101D01*
X149227369Y-67123101D01*
X149024441Y-67326029D01*
X149024441Y-67326029D01*
G37*
X149024441Y-67326029D02*
X148566500Y-68431596D01*
X148566500Y-69628252D01*
X149024441Y-70733819D01*
X149870605Y-71579983D01*
X150976172Y-72037924D01*
X152090657Y-72037924D01*
X159536201Y-79483469D01*
X159536202Y-88349760D01*
X157494949Y-90391014D01*
X157358430Y-90482233D01*
X156997063Y-91023058D01*
X156956294Y-91228019D01*
X156870168Y-91661002D01*
X156902199Y-91822032D01*
X156902200Y-104274156D01*
X156870168Y-104435191D01*
X156949507Y-104834050D01*
X156997064Y-105073136D01*
X157358431Y-105613960D01*
X157494947Y-105705177D01*
X159231769Y-107442000D01*
X156945748Y-109728022D01*
X156809232Y-109819239D01*
X156718015Y-109955755D01*
X156447865Y-110360063D01*
X156320969Y-110998008D01*
X156353001Y-111159043D01*
X156353000Y-125314970D01*
X156320969Y-125476000D01*
X156353000Y-125637030D01*
X156447864Y-126113944D01*
X156809231Y-126654769D01*
X156945750Y-126745988D01*
X157215762Y-127016000D01*
X153328954Y-127016000D01*
X153807059Y-126537895D01*
X154265000Y-125432328D01*
X154265000Y-124235672D01*
X153807059Y-123130105D01*
X152960895Y-122283941D01*
X151855328Y-121826000D01*
X150658672Y-121826000D01*
X150221943Y-122006899D01*
X142840700Y-114625657D01*
X142840700Y-113511172D01*
X142382759Y-112405605D01*
X141536595Y-111559441D01*
X140431028Y-111101500D01*
X139660000Y-111101500D01*
X139660000Y-109896454D01*
X139808584Y-109958000D01*
X140607416Y-109958000D01*
X140665357Y-109934000D01*
X144324700Y-113593344D01*
X144324700Y-114707828D01*
X144782641Y-115813395D01*
X145628805Y-116659559D01*
X146734372Y-117117500D01*
X147931028Y-117117500D01*
X149036595Y-116659559D01*
X149882759Y-115813395D01*
X150340700Y-114707828D01*
X150340700Y-113511172D01*
X149882759Y-112405605D01*
X149036595Y-111559441D01*
X147931028Y-111101500D01*
X146816544Y-111101500D01*
X142541836Y-106826793D01*
X142475000Y-106726766D01*
X148864957Y-103392875D01*
X149088513Y-103348407D01*
X149841062Y-102845570D01*
X149863165Y-102831534D01*
X149871041Y-102825538D01*
X150577019Y-102353819D01*
X151571607Y-100865313D01*
X151920860Y-99109500D01*
X151571607Y-97353687D01*
X151296824Y-96942446D01*
X151143061Y-96506678D01*
X151571607Y-95865313D01*
X151920860Y-94109500D01*
X151571607Y-92353687D01*
X151450221Y-92172020D01*
X151595902Y-91957563D01*
X151978626Y-91046756D01*
X152056711Y-90659365D01*
X152106000Y-90165384D01*
X152106000Y-88347553D01*
X152052853Y-87834805D01*
X151968722Y-87433329D01*
X151811542Y-86942385D01*
X145630365Y-72841575D01*
X146645818Y-72420961D01*
X147771037Y-71295742D01*
X148380000Y-69825574D01*
X148380000Y-68234274D01*
X147919737Y-67123101D01*
X149227369Y-67123101D01*
X149024441Y-67326029D01*
G36*
X161076000Y-116784636D02*
X161187678Y-117523497D01*
X161362371Y-118088181D01*
X161687425Y-118761030D01*
X167007491Y-126536512D01*
X167018093Y-126589812D01*
X167302863Y-127016000D01*
X164114806Y-127016000D01*
X163923524Y-126554205D01*
X163386795Y-126017476D01*
X162685525Y-125727000D01*
X161926475Y-125727000D01*
X161267396Y-126000000D01*
X160824239Y-126000000D01*
X159623000Y-124798762D01*
X159623000Y-111675246D01*
X161076000Y-110222247D01*
X161076000Y-116784636D01*
X161076000Y-116784636D01*
G37*
X161076000Y-116784636D02*
X161187678Y-117523497D01*
X161362371Y-118088181D01*
X161687425Y-118761030D01*
X167007491Y-126536512D01*
X167018093Y-126589812D01*
X167302863Y-127016000D01*
X164114806Y-127016000D01*
X163923524Y-126554205D01*
X163386795Y-126017476D01*
X162685525Y-125727000D01*
X161926475Y-125727000D01*
X161267396Y-126000000D01*
X160824239Y-126000000D01*
X159623000Y-124798762D01*
X159623000Y-111675246D01*
X161076000Y-110222247D01*
X161076000Y-116784636D01*
G36*
X226487629Y-120009132D02*
X226542676Y-120565236D01*
X226635574Y-120999670D01*
X227103267Y-122007033D01*
X227375175Y-122358356D01*
X227764449Y-122759283D01*
X232926266Y-127003444D01*
X232936729Y-127016000D01*
X221720201Y-127016000D01*
X221662500Y-126876698D01*
X221662500Y-114495541D01*
X226627341Y-109530700D01*
X226487629Y-120009132D01*
X226487629Y-120009132D01*
G37*
X226487629Y-120009132D02*
X226542676Y-120565236D01*
X226635574Y-120999670D01*
X227103267Y-122007033D01*
X227375175Y-122358356D01*
X227764449Y-122759283D01*
X232926266Y-127003444D01*
X232936729Y-127016000D01*
X221720201Y-127016000D01*
X221662500Y-126876698D01*
X221662500Y-114495541D01*
X226627341Y-109530700D01*
X226487629Y-120009132D01*
G36*
X128564000Y-116974025D02*
X128603916Y-117418984D01*
X128667272Y-117769266D01*
X128978989Y-118602791D01*
X129161027Y-118908688D01*
X129422880Y-119270651D01*
X133800500Y-124304914D01*
X133800500Y-125277210D01*
X134061593Y-126589813D01*
X134346362Y-127016000D01*
X130337164Y-127016000D01*
X130166924Y-126605005D01*
X129630195Y-126068276D01*
X129124418Y-125858776D01*
X127218992Y-123953351D01*
X127218992Y-110133049D01*
X128410042Y-108942000D01*
X128415416Y-108942000D01*
X128564000Y-108880454D01*
X128564000Y-116974025D01*
X128564000Y-116974025D01*
G37*
X128564000Y-116974025D02*
X128603916Y-117418984D01*
X128667272Y-117769266D01*
X128978989Y-118602791D01*
X129161027Y-118908688D01*
X129422880Y-119270651D01*
X133800500Y-124304914D01*
X133800500Y-125277210D01*
X134061593Y-126589813D01*
X134346362Y-127016000D01*
X130337164Y-127016000D01*
X130166924Y-126605005D01*
X129630195Y-126068276D01*
X129124418Y-125858776D01*
X127218992Y-123953351D01*
X127218992Y-110133049D01*
X128410042Y-108942000D01*
X128415416Y-108942000D01*
X128564000Y-108880454D01*
X128564000Y-116974025D01*
G36*
X96306000Y-118396029D02*
X96367418Y-118946771D01*
X96464480Y-119376543D01*
X96937870Y-120371124D01*
X97210215Y-120717466D01*
X97598925Y-121112428D01*
X97651247Y-121154940D01*
X97703371Y-121397883D01*
X98076039Y-122272738D01*
X98288939Y-122587943D01*
X98592877Y-122956411D01*
X100844000Y-125207534D01*
X100844000Y-125277209D01*
X101105093Y-126589812D01*
X101389863Y-127016000D01*
X97365622Y-127016000D01*
X96771726Y-126770000D01*
X96186500Y-126770000D01*
X96186500Y-109945953D01*
X96306000Y-109896454D01*
X96306000Y-118396029D01*
X96306000Y-118396029D01*
G37*
X96306000Y-118396029D02*
X96367418Y-118946771D01*
X96464480Y-119376543D01*
X96937870Y-120371124D01*
X97210215Y-120717466D01*
X97598925Y-121112428D01*
X97651247Y-121154940D01*
X97703371Y-121397883D01*
X98076039Y-122272738D01*
X98288939Y-122587943D01*
X98592877Y-122956411D01*
X100844000Y-125207534D01*
X100844000Y-125277209D01*
X101105093Y-126589812D01*
X101389863Y-127016000D01*
X97365622Y-127016000D01*
X96771726Y-126770000D01*
X96186500Y-126770000D01*
X96186500Y-109945953D01*
X96306000Y-109896454D01*
X96306000Y-118396029D01*
G36*
X181218941Y-67326029D02*
X180761000Y-68431596D01*
X180761000Y-69628252D01*
X181218941Y-70733819D01*
X182065105Y-71579983D01*
X183170672Y-72037924D01*
X184285157Y-72037924D01*
X192200601Y-79953369D01*
X192200602Y-89552075D01*
X189951391Y-91801287D01*
X189804268Y-91899592D01*
X189414832Y-92482426D01*
X189317493Y-92971782D01*
X189278080Y-93169923D01*
X189312599Y-93343460D01*
X189312600Y-103779057D01*
X189278080Y-103952599D01*
X189376666Y-104448220D01*
X189414833Y-104640097D01*
X189804269Y-105222930D01*
X189951390Y-105321233D01*
X192107700Y-107477543D01*
X192353700Y-108071441D01*
X192357501Y-108075242D01*
X192357500Y-120073459D01*
X187221500Y-125209459D01*
X187221500Y-124235672D01*
X186763559Y-123130105D01*
X185917395Y-122283941D01*
X184811828Y-121826000D01*
X183615172Y-121826000D01*
X183115581Y-122032937D01*
X175708300Y-114625657D01*
X175708300Y-113511172D01*
X175250359Y-112405605D01*
X174404195Y-111559441D01*
X173824559Y-111319348D01*
X173869779Y-110686270D01*
X174485830Y-110153282D01*
X174479481Y-110185200D01*
X174514000Y-110358737D01*
X174514000Y-110358738D01*
X174616233Y-110872697D01*
X175005669Y-111455531D01*
X175152793Y-111553836D01*
X177192300Y-113593344D01*
X177192300Y-114707828D01*
X177650241Y-115813395D01*
X178496405Y-116659559D01*
X179601972Y-117117500D01*
X180798628Y-117117500D01*
X181904195Y-116659559D01*
X182750359Y-115813395D01*
X183208300Y-114707828D01*
X183208300Y-113511172D01*
X182750359Y-112405605D01*
X181904195Y-111559441D01*
X180798628Y-111101500D01*
X179684144Y-111101500D01*
X178111210Y-109528567D01*
X178284000Y-109111416D01*
X178284000Y-108312584D01*
X177978300Y-107574559D01*
X177740867Y-107337126D01*
X182887211Y-102884672D01*
X183205572Y-102553411D01*
X183273726Y-102468006D01*
X183444619Y-102353819D01*
X184439207Y-100865313D01*
X184788460Y-99109500D01*
X184439207Y-97353687D01*
X183941957Y-96609500D01*
X184439207Y-95865313D01*
X184788460Y-94109500D01*
X184439207Y-92353687D01*
X184399521Y-92294293D01*
X184411782Y-92282032D01*
X184628555Y-91957608D01*
X185001844Y-91056406D01*
X185077964Y-90673723D01*
X185126000Y-90186000D01*
X185126000Y-88362561D01*
X185065253Y-87814797D01*
X184969239Y-87387236D01*
X184789952Y-86866097D01*
X178102367Y-72726630D01*
X178840318Y-72420961D01*
X179965537Y-71295742D01*
X180574500Y-69825574D01*
X180574500Y-68234274D01*
X180114237Y-67123101D01*
X181421869Y-67123101D01*
X181218941Y-67326029D01*
X181218941Y-67326029D01*
G37*
X181218941Y-67326029D02*
X180761000Y-68431596D01*
X180761000Y-69628252D01*
X181218941Y-70733819D01*
X182065105Y-71579983D01*
X183170672Y-72037924D01*
X184285157Y-72037924D01*
X192200601Y-79953369D01*
X192200602Y-89552075D01*
X189951391Y-91801287D01*
X189804268Y-91899592D01*
X189414832Y-92482426D01*
X189317493Y-92971782D01*
X189278080Y-93169923D01*
X189312599Y-93343460D01*
X189312600Y-103779057D01*
X189278080Y-103952599D01*
X189376666Y-104448220D01*
X189414833Y-104640097D01*
X189804269Y-105222930D01*
X189951390Y-105321233D01*
X192107700Y-107477543D01*
X192353700Y-108071441D01*
X192357501Y-108075242D01*
X192357500Y-120073459D01*
X187221500Y-125209459D01*
X187221500Y-124235672D01*
X186763559Y-123130105D01*
X185917395Y-122283941D01*
X184811828Y-121826000D01*
X183615172Y-121826000D01*
X183115581Y-122032937D01*
X175708300Y-114625657D01*
X175708300Y-113511172D01*
X175250359Y-112405605D01*
X174404195Y-111559441D01*
X173824559Y-111319348D01*
X173869779Y-110686270D01*
X174485830Y-110153282D01*
X174479481Y-110185200D01*
X174514000Y-110358737D01*
X174514000Y-110358738D01*
X174616233Y-110872697D01*
X175005669Y-111455531D01*
X175152793Y-111553836D01*
X177192300Y-113593344D01*
X177192300Y-114707828D01*
X177650241Y-115813395D01*
X178496405Y-116659559D01*
X179601972Y-117117500D01*
X180798628Y-117117500D01*
X181904195Y-116659559D01*
X182750359Y-115813395D01*
X183208300Y-114707828D01*
X183208300Y-113511172D01*
X182750359Y-112405605D01*
X181904195Y-111559441D01*
X180798628Y-111101500D01*
X179684144Y-111101500D01*
X178111210Y-109528567D01*
X178284000Y-109111416D01*
X178284000Y-108312584D01*
X177978300Y-107574559D01*
X177740867Y-107337126D01*
X182887211Y-102884672D01*
X183205572Y-102553411D01*
X183273726Y-102468006D01*
X183444619Y-102353819D01*
X184439207Y-100865313D01*
X184788460Y-99109500D01*
X184439207Y-97353687D01*
X183941957Y-96609500D01*
X184439207Y-95865313D01*
X184788460Y-94109500D01*
X184439207Y-92353687D01*
X184399521Y-92294293D01*
X184411782Y-92282032D01*
X184628555Y-91957608D01*
X185001844Y-91056406D01*
X185077964Y-90673723D01*
X185126000Y-90186000D01*
X185126000Y-88362561D01*
X185065253Y-87814797D01*
X184969239Y-87387236D01*
X184789952Y-86866097D01*
X178102367Y-72726630D01*
X178840318Y-72420961D01*
X179965537Y-71295742D01*
X180574500Y-69825574D01*
X180574500Y-68234274D01*
X180114237Y-67123101D01*
X181421869Y-67123101D01*
X181218941Y-67326029D01*
G36*
X214046451Y-63035740D02*
X214363951Y-63120814D01*
X215011000Y-63206000D01*
X215278860Y-63206000D01*
X215449790Y-63240000D01*
X223460984Y-63240000D01*
X224576000Y-64466517D01*
X224576000Y-75974179D01*
X223991328Y-75732000D01*
X222794672Y-75732000D01*
X221689105Y-76189941D01*
X220842941Y-77036105D01*
X220385000Y-78141672D01*
X220385000Y-79338328D01*
X220842941Y-80443895D01*
X221679940Y-81280894D01*
X221733234Y-81548818D01*
X222122670Y-82131651D01*
X222269791Y-82229954D01*
X224865001Y-84825165D01*
X224865002Y-87841760D01*
X221969750Y-90737013D01*
X221833231Y-90828232D01*
X221471864Y-91369057D01*
X221416321Y-91648293D01*
X221344969Y-92007001D01*
X221377000Y-92168031D01*
X221377001Y-102962965D01*
X221344969Y-103124000D01*
X221461303Y-103708847D01*
X221471865Y-103761945D01*
X221833232Y-104302769D01*
X221969748Y-104393986D01*
X224464860Y-106889098D01*
X218881268Y-112472691D01*
X218739451Y-112567450D01*
X218644692Y-112709267D01*
X218364049Y-113129280D01*
X218232225Y-113792000D01*
X218265501Y-113959289D01*
X218265500Y-122031936D01*
X217768328Y-121826000D01*
X216571672Y-121826000D01*
X216009219Y-122058976D01*
X208575900Y-114625657D01*
X208575900Y-113511172D01*
X208117959Y-112405605D01*
X207271795Y-111559441D01*
X206166228Y-111101500D01*
X205700000Y-111101500D01*
X205700000Y-110671000D01*
X206646144Y-109909469D01*
X206831700Y-110357441D01*
X207149855Y-110675596D01*
X207263669Y-110845931D01*
X207410793Y-110944236D01*
X210059900Y-113593344D01*
X210059900Y-114707828D01*
X210517841Y-115813395D01*
X211364005Y-116659559D01*
X212469572Y-117117500D01*
X213666228Y-117117500D01*
X214771795Y-116659559D01*
X215617959Y-115813395D01*
X216075900Y-114707828D01*
X216075900Y-113511172D01*
X215617959Y-112405605D01*
X214771795Y-111559441D01*
X213666228Y-111101500D01*
X212551744Y-111101500D01*
X210542000Y-109091757D01*
X210542000Y-108820584D01*
X210236300Y-108082559D01*
X209671441Y-107517700D01*
X209635983Y-107503013D01*
X214789249Y-103355262D01*
X214823713Y-103348407D01*
X214932266Y-103275874D01*
X215384403Y-103162840D01*
X215827162Y-103006711D01*
X216166573Y-102849796D01*
X216926794Y-102305782D01*
X217184835Y-102035161D01*
X217692074Y-101249923D01*
X217832667Y-100903433D01*
X217967559Y-100453750D01*
X218025363Y-100164731D01*
X218073346Y-99727617D01*
X218080800Y-99377267D01*
X217945681Y-98511676D01*
X217831804Y-98180267D01*
X217652882Y-97778573D01*
X216915397Y-96451100D01*
X217306807Y-95865313D01*
X217656060Y-94109500D01*
X217306807Y-92353687D01*
X216925196Y-91782565D01*
X217186501Y-91518634D01*
X217400701Y-91195444D01*
X217769404Y-90298985D01*
X217844571Y-89918612D01*
X217892000Y-89433950D01*
X217892000Y-87877698D01*
X217818665Y-87276618D01*
X217703050Y-86809860D01*
X217487347Y-86244043D01*
X215064010Y-81652457D01*
X215294672Y-81748000D01*
X216491328Y-81748000D01*
X217596895Y-81290059D01*
X218443059Y-80443895D01*
X218901000Y-79338328D01*
X218901000Y-78141672D01*
X218443059Y-77036105D01*
X217596895Y-76189941D01*
X216491328Y-75732000D01*
X215383844Y-75732000D01*
X214285001Y-74633158D01*
X214285001Y-67103740D01*
X214319520Y-66930201D01*
X214182768Y-66242703D01*
X213891634Y-65806989D01*
X213891633Y-65806988D01*
X213793332Y-65659870D01*
X213646213Y-65561569D01*
X212352006Y-64267362D01*
X213007907Y-63285737D01*
X213156071Y-62540867D01*
X213164385Y-62526479D01*
X214046451Y-63035740D01*
X214046451Y-63035740D01*
G37*
X214046451Y-63035740D02*
X214363951Y-63120814D01*
X215011000Y-63206000D01*
X215278860Y-63206000D01*
X215449790Y-63240000D01*
X223460984Y-63240000D01*
X224576000Y-64466517D01*
X224576000Y-75974179D01*
X223991328Y-75732000D01*
X222794672Y-75732000D01*
X221689105Y-76189941D01*
X220842941Y-77036105D01*
X220385000Y-78141672D01*
X220385000Y-79338328D01*
X220842941Y-80443895D01*
X221679940Y-81280894D01*
X221733234Y-81548818D01*
X222122670Y-82131651D01*
X222269791Y-82229954D01*
X224865001Y-84825165D01*
X224865002Y-87841760D01*
X221969750Y-90737013D01*
X221833231Y-90828232D01*
X221471864Y-91369057D01*
X221416321Y-91648293D01*
X221344969Y-92007001D01*
X221377000Y-92168031D01*
X221377001Y-102962965D01*
X221344969Y-103124000D01*
X221461303Y-103708847D01*
X221471865Y-103761945D01*
X221833232Y-104302769D01*
X221969748Y-104393986D01*
X224464860Y-106889098D01*
X218881268Y-112472691D01*
X218739451Y-112567450D01*
X218644692Y-112709267D01*
X218364049Y-113129280D01*
X218232225Y-113792000D01*
X218265501Y-113959289D01*
X218265500Y-122031936D01*
X217768328Y-121826000D01*
X216571672Y-121826000D01*
X216009219Y-122058976D01*
X208575900Y-114625657D01*
X208575900Y-113511172D01*
X208117959Y-112405605D01*
X207271795Y-111559441D01*
X206166228Y-111101500D01*
X205700000Y-111101500D01*
X205700000Y-110671000D01*
X206646144Y-109909469D01*
X206831700Y-110357441D01*
X207149855Y-110675596D01*
X207263669Y-110845931D01*
X207410793Y-110944236D01*
X210059900Y-113593344D01*
X210059900Y-114707828D01*
X210517841Y-115813395D01*
X211364005Y-116659559D01*
X212469572Y-117117500D01*
X213666228Y-117117500D01*
X214771795Y-116659559D01*
X215617959Y-115813395D01*
X216075900Y-114707828D01*
X216075900Y-113511172D01*
X215617959Y-112405605D01*
X214771795Y-111559441D01*
X213666228Y-111101500D01*
X212551744Y-111101500D01*
X210542000Y-109091757D01*
X210542000Y-108820584D01*
X210236300Y-108082559D01*
X209671441Y-107517700D01*
X209635983Y-107503013D01*
X214789249Y-103355262D01*
X214823713Y-103348407D01*
X214932266Y-103275874D01*
X215384403Y-103162840D01*
X215827162Y-103006711D01*
X216166573Y-102849796D01*
X216926794Y-102305782D01*
X217184835Y-102035161D01*
X217692074Y-101249923D01*
X217832667Y-100903433D01*
X217967559Y-100453750D01*
X218025363Y-100164731D01*
X218073346Y-99727617D01*
X218080800Y-99377267D01*
X217945681Y-98511676D01*
X217831804Y-98180267D01*
X217652882Y-97778573D01*
X216915397Y-96451100D01*
X217306807Y-95865313D01*
X217656060Y-94109500D01*
X217306807Y-92353687D01*
X216925196Y-91782565D01*
X217186501Y-91518634D01*
X217400701Y-91195444D01*
X217769404Y-90298985D01*
X217844571Y-89918612D01*
X217892000Y-89433950D01*
X217892000Y-87877698D01*
X217818665Y-87276618D01*
X217703050Y-86809860D01*
X217487347Y-86244043D01*
X215064010Y-81652457D01*
X215294672Y-81748000D01*
X216491328Y-81748000D01*
X217596895Y-81290059D01*
X218443059Y-80443895D01*
X218901000Y-79338328D01*
X218901000Y-78141672D01*
X218443059Y-77036105D01*
X217596895Y-76189941D01*
X216491328Y-75732000D01*
X215383844Y-75732000D01*
X214285001Y-74633158D01*
X214285001Y-67103740D01*
X214319520Y-66930201D01*
X214182768Y-66242703D01*
X213891634Y-65806989D01*
X213891633Y-65806988D01*
X213793332Y-65659870D01*
X213646213Y-65561569D01*
X212352006Y-64267362D01*
X213007907Y-63285737D01*
X213156071Y-62540867D01*
X213164385Y-62526479D01*
X214046451Y-63035740D01*
G36*
X78589500Y-114707828D02*
X79047441Y-115813395D01*
X79893605Y-116659559D01*
X80999172Y-117117500D01*
X82113657Y-117117500D01*
X85590001Y-120593845D01*
X85590001Y-121826000D01*
X85187054Y-121826000D01*
X82471928Y-119110875D01*
X82359454Y-118942546D01*
X81692604Y-118496970D01*
X81430860Y-118444906D01*
X80831895Y-117845941D01*
X79726328Y-117388000D01*
X78971054Y-117388000D01*
X76866904Y-115283850D01*
X77105500Y-114707828D01*
X77105500Y-113863499D01*
X78589500Y-113863499D01*
X78589500Y-114707828D01*
X78589500Y-114707828D01*
G37*
X78589500Y-114707828D02*
X79047441Y-115813395D01*
X79893605Y-116659559D01*
X80999172Y-117117500D01*
X82113657Y-117117500D01*
X85590001Y-120593845D01*
X85590001Y-121826000D01*
X85187054Y-121826000D01*
X82471928Y-119110875D01*
X82359454Y-118942546D01*
X81692604Y-118496970D01*
X81430860Y-118444906D01*
X80831895Y-117845941D01*
X79726328Y-117388000D01*
X78971054Y-117388000D01*
X76866904Y-115283850D01*
X77105500Y-114707828D01*
X77105500Y-113863499D01*
X78589500Y-113863499D01*
X78589500Y-114707828D01*
G36*
X247992001Y-111912047D02*
X247639395Y-111559441D01*
X246533828Y-111101500D01*
X245419345Y-111101500D01*
X242288097Y-107970254D01*
X247698418Y-103543628D01*
X247992001Y-103308762D01*
X247992001Y-111912047D01*
X247992001Y-111912047D01*
G37*
X247992001Y-111912047D02*
X247639395Y-111559441D01*
X246533828Y-111101500D01*
X245419345Y-111101500D01*
X242288097Y-107970254D01*
X247698418Y-103543628D01*
X247992001Y-103308762D01*
X247992001Y-111912047D01*
G36*
X52440941Y-63233819D02*
X53287105Y-64079983D01*
X54392672Y-64537924D01*
X55507157Y-64537924D01*
X57453545Y-66484314D01*
X57551846Y-66631432D01*
X57698964Y-66729733D01*
X57698965Y-66729734D01*
X58134679Y-67020868D01*
X58822177Y-67157620D01*
X58995716Y-67123101D01*
X70218242Y-67123101D01*
X70014156Y-67615808D01*
X69938036Y-67998492D01*
X69890000Y-68486214D01*
X69890000Y-87306683D01*
X69858593Y-87353687D01*
X69509340Y-89109500D01*
X69608796Y-89609500D01*
X69274710Y-89609500D01*
X68831500Y-89521340D01*
X68388290Y-89609500D01*
X67075687Y-89870593D01*
X66477932Y-90270000D01*
X65177798Y-90270000D01*
X62880659Y-91221506D01*
X61122506Y-92979659D01*
X60171000Y-95276798D01*
X60171000Y-97763202D01*
X61122506Y-100060341D01*
X62880659Y-101818494D01*
X65177798Y-102770000D01*
X67664202Y-102770000D01*
X69961341Y-101818494D01*
X70218759Y-101561076D01*
X70350220Y-101757821D01*
X70661126Y-102136660D01*
X70802630Y-102278164D01*
X70853181Y-102353819D01*
X70928836Y-102404370D01*
X71369630Y-102845164D01*
X71406512Y-102881292D01*
X71436309Y-102909883D01*
X71473920Y-102945234D01*
X79489691Y-110324833D01*
X79415962Y-110339499D01*
X66095343Y-110339499D01*
X53578000Y-97822157D01*
X53578000Y-72934767D01*
X54474843Y-72037924D01*
X55589328Y-72037924D01*
X56694895Y-71579983D01*
X57541059Y-70733819D01*
X57999000Y-69628252D01*
X57999000Y-68431596D01*
X57541059Y-67326029D01*
X56694895Y-66479865D01*
X55589328Y-66021924D01*
X54392672Y-66021924D01*
X53287105Y-66479865D01*
X52440941Y-67326029D01*
X52008000Y-68371241D01*
X52008000Y-62188607D01*
X52440941Y-63233819D01*
X52440941Y-63233819D01*
G37*
X52440941Y-63233819D02*
X53287105Y-64079983D01*
X54392672Y-64537924D01*
X55507157Y-64537924D01*
X57453545Y-66484314D01*
X57551846Y-66631432D01*
X57698964Y-66729733D01*
X57698965Y-66729734D01*
X58134679Y-67020868D01*
X58822177Y-67157620D01*
X58995716Y-67123101D01*
X70218242Y-67123101D01*
X70014156Y-67615808D01*
X69938036Y-67998492D01*
X69890000Y-68486214D01*
X69890000Y-87306683D01*
X69858593Y-87353687D01*
X69509340Y-89109500D01*
X69608796Y-89609500D01*
X69274710Y-89609500D01*
X68831500Y-89521340D01*
X68388290Y-89609500D01*
X67075687Y-89870593D01*
X66477932Y-90270000D01*
X65177798Y-90270000D01*
X62880659Y-91221506D01*
X61122506Y-92979659D01*
X60171000Y-95276798D01*
X60171000Y-97763202D01*
X61122506Y-100060341D01*
X62880659Y-101818494D01*
X65177798Y-102770000D01*
X67664202Y-102770000D01*
X69961341Y-101818494D01*
X70218759Y-101561076D01*
X70350220Y-101757821D01*
X70661126Y-102136660D01*
X70802630Y-102278164D01*
X70853181Y-102353819D01*
X70928836Y-102404370D01*
X71369630Y-102845164D01*
X71406512Y-102881292D01*
X71436309Y-102909883D01*
X71473920Y-102945234D01*
X79489691Y-110324833D01*
X79415962Y-110339499D01*
X66095343Y-110339499D01*
X53578000Y-97822157D01*
X53578000Y-72934767D01*
X54474843Y-72037924D01*
X55589328Y-72037924D01*
X56694895Y-71579983D01*
X57541059Y-70733819D01*
X57999000Y-69628252D01*
X57999000Y-68431596D01*
X57541059Y-67326029D01*
X56694895Y-66479865D01*
X55589328Y-66021924D01*
X54392672Y-66021924D01*
X53287105Y-66479865D01*
X52440941Y-67326029D01*
X52008000Y-68371241D01*
X52008000Y-62188607D01*
X52440941Y-63233819D01*
G36*
X95545059Y-101818494D02*
X96645784Y-102274429D01*
X96406388Y-102924598D01*
X96344796Y-103270126D01*
X96306000Y-103708847D01*
X96306000Y-104880852D01*
X94843399Y-103418252D01*
X94843399Y-101116834D01*
X95545059Y-101818494D01*
X95545059Y-101818494D01*
G37*
X95545059Y-101818494D02*
X96645784Y-102274429D01*
X96406388Y-102924598D01*
X96344796Y-103270126D01*
X96306000Y-103708847D01*
X96306000Y-104880852D01*
X94843399Y-103418252D01*
X94843399Y-101116834D01*
X95545059Y-101818494D01*
G36*
X84635441Y-67326029D02*
X84177500Y-68431596D01*
X84177500Y-69628252D01*
X84635441Y-70733819D01*
X85481605Y-71579983D01*
X86587172Y-72037924D01*
X87701657Y-72037924D01*
X94207401Y-78543669D01*
X94207402Y-88513957D01*
X92062169Y-90659191D01*
X91920349Y-90753952D01*
X91544948Y-91315781D01*
X91544948Y-91315782D01*
X91413124Y-91978502D01*
X91446399Y-92145786D01*
X91446400Y-101257109D01*
X85628844Y-96175953D01*
X85836407Y-95865313D01*
X86185660Y-94109500D01*
X85836407Y-92353687D01*
X85339157Y-91609500D01*
X85836407Y-90865313D01*
X86185660Y-89109500D01*
X86066000Y-88507929D01*
X86066000Y-88040339D01*
X86035996Y-87654178D01*
X85988278Y-87348960D01*
X85898988Y-86972074D01*
X81354908Y-72794544D01*
X82256818Y-72420961D01*
X83382037Y-71295742D01*
X83991000Y-69825574D01*
X83991000Y-68234274D01*
X83530737Y-67123101D01*
X84838369Y-67123101D01*
X84635441Y-67326029D01*
X84635441Y-67326029D01*
G37*
X84635441Y-67326029D02*
X84177500Y-68431596D01*
X84177500Y-69628252D01*
X84635441Y-70733819D01*
X85481605Y-71579983D01*
X86587172Y-72037924D01*
X87701657Y-72037924D01*
X94207401Y-78543669D01*
X94207402Y-88513957D01*
X92062169Y-90659191D01*
X91920349Y-90753952D01*
X91544948Y-91315781D01*
X91544948Y-91315782D01*
X91413124Y-91978502D01*
X91446399Y-92145786D01*
X91446400Y-101257109D01*
X85628844Y-96175953D01*
X85836407Y-95865313D01*
X86185660Y-94109500D01*
X85836407Y-92353687D01*
X85339157Y-91609500D01*
X85836407Y-90865313D01*
X86185660Y-89109500D01*
X86066000Y-88507929D01*
X86066000Y-88040339D01*
X86035996Y-87654178D01*
X85988278Y-87348960D01*
X85898988Y-86972074D01*
X81354908Y-72794544D01*
X82256818Y-72420961D01*
X83382037Y-71295742D01*
X83991000Y-69825574D01*
X83991000Y-68234274D01*
X83530737Y-67123101D01*
X84838369Y-67123101D01*
X84635441Y-67326029D01*
G36*
X232122545Y-89527497D02*
X231710290Y-89609500D01*
X230397687Y-89870593D01*
X229799932Y-90270000D01*
X228499798Y-90270000D01*
X226202659Y-91221506D01*
X224647000Y-92777165D01*
X224647000Y-92684239D01*
X227270776Y-90060464D01*
X227314499Y-90051767D01*
X227897332Y-89662331D01*
X228286768Y-89079498D01*
X228389001Y-88565539D01*
X228389001Y-86401740D01*
X232122545Y-89527497D01*
X232122545Y-89527497D01*
G37*
X232122545Y-89527497D02*
X231710290Y-89609500D01*
X230397687Y-89870593D01*
X229799932Y-90270000D01*
X228499798Y-90270000D01*
X226202659Y-91221506D01*
X224647000Y-92777165D01*
X224647000Y-92684239D01*
X227270776Y-90060464D01*
X227314499Y-90051767D01*
X227897332Y-89662331D01*
X228286768Y-89079498D01*
X228389001Y-88565539D01*
X228389001Y-86401740D01*
X232122545Y-89527497D01*
G36*
X167335593Y-67274112D02*
X167148823Y-68213067D01*
X167108301Y-68310896D01*
X166918000Y-69267605D01*
X166918000Y-89539899D01*
X166824700Y-89521340D01*
X166381490Y-89609500D01*
X165068887Y-89870593D01*
X164471132Y-90270000D01*
X163170998Y-90270000D01*
X161582436Y-90928004D01*
X161941976Y-90568464D01*
X161985699Y-90559767D01*
X162568532Y-90170331D01*
X162957968Y-89587498D01*
X163060201Y-89073539D01*
X163060201Y-78927164D01*
X163094720Y-78753625D01*
X162957968Y-78066127D01*
X162673431Y-77640287D01*
X162568532Y-77483294D01*
X162421412Y-77384992D01*
X154582500Y-69546081D01*
X154582500Y-68431596D01*
X154124559Y-67326029D01*
X153921631Y-67123101D01*
X167436495Y-67123101D01*
X167335593Y-67274112D01*
X167335593Y-67274112D01*
G37*
X167335593Y-67274112D02*
X167148823Y-68213067D01*
X167108301Y-68310896D01*
X166918000Y-69267605D01*
X166918000Y-89539899D01*
X166824700Y-89521340D01*
X166381490Y-89609500D01*
X165068887Y-89870593D01*
X164471132Y-90270000D01*
X163170998Y-90270000D01*
X161582436Y-90928004D01*
X161941976Y-90568464D01*
X161985699Y-90559767D01*
X162568532Y-90170331D01*
X162957968Y-89587498D01*
X163060201Y-89073539D01*
X163060201Y-78927164D01*
X163094720Y-78753625D01*
X162957968Y-78066127D01*
X162673431Y-77640287D01*
X162568532Y-77483294D01*
X162421412Y-77384992D01*
X154582500Y-69546081D01*
X154582500Y-68431596D01*
X154124559Y-67326029D01*
X153921631Y-67123101D01*
X167436495Y-67123101D01*
X167335593Y-67274112D01*
G36*
X102946593Y-67274112D02*
X102809751Y-67962065D01*
X102746713Y-68189651D01*
X102708363Y-68471777D01*
X102685500Y-68586715D01*
X102685500Y-68639966D01*
X102656000Y-68856984D01*
X102656000Y-87706571D01*
X102376940Y-89109500D01*
X102476396Y-89609500D01*
X101939110Y-89609500D01*
X101495900Y-89521340D01*
X101052690Y-89609500D01*
X99740087Y-89870593D01*
X99142332Y-90270000D01*
X97842198Y-90270000D01*
X96864803Y-90674850D01*
X97239732Y-90424331D01*
X97629168Y-89841498D01*
X97731401Y-89327539D01*
X97731401Y-77987364D01*
X97765920Y-77813825D01*
X97629168Y-77126327D01*
X97506994Y-76943481D01*
X97239732Y-76543494D01*
X97092612Y-76445192D01*
X90193500Y-69546081D01*
X90193500Y-68431596D01*
X89735559Y-67326029D01*
X89532631Y-67123101D01*
X103047495Y-67123101D01*
X102946593Y-67274112D01*
X102946593Y-67274112D01*
G37*
X102946593Y-67274112D02*
X102809751Y-67962065D01*
X102746713Y-68189651D01*
X102708363Y-68471777D01*
X102685500Y-68586715D01*
X102685500Y-68639966D01*
X102656000Y-68856984D01*
X102656000Y-87706571D01*
X102376940Y-89109500D01*
X102476396Y-89609500D01*
X101939110Y-89609500D01*
X101495900Y-89521340D01*
X101052690Y-89609500D01*
X99740087Y-89870593D01*
X99142332Y-90270000D01*
X97842198Y-90270000D01*
X96864803Y-90674850D01*
X97239732Y-90424331D01*
X97629168Y-89841498D01*
X97731401Y-89327539D01*
X97731401Y-77987364D01*
X97765920Y-77813825D01*
X97629168Y-77126327D01*
X97506994Y-76943481D01*
X97239732Y-76543494D01*
X97092612Y-76445192D01*
X90193500Y-69546081D01*
X90193500Y-68431596D01*
X89735559Y-67326029D01*
X89532631Y-67123101D01*
X103047495Y-67123101D01*
X102946593Y-67274112D01*
G36*
X134660000Y-67593981D02*
X134660000Y-89609500D01*
X134603510Y-89609500D01*
X134160300Y-89521340D01*
X133717090Y-89609500D01*
X132404487Y-89870593D01*
X131806732Y-90270000D01*
X130506598Y-90270000D01*
X130332301Y-90342196D01*
X130332301Y-86852774D01*
X130395801Y-86533539D01*
X130395801Y-78457264D01*
X130430320Y-78283725D01*
X130293568Y-77596227D01*
X130180498Y-77427006D01*
X129904132Y-77013394D01*
X129757012Y-76915092D01*
X122388000Y-69546081D01*
X122388000Y-68431596D01*
X121930059Y-67326029D01*
X121727131Y-67123101D01*
X134725586Y-67123101D01*
X134660000Y-67593981D01*
X134660000Y-67593981D01*
G37*
X134660000Y-67593981D02*
X134660000Y-89609500D01*
X134603510Y-89609500D01*
X134160300Y-89521340D01*
X133717090Y-89609500D01*
X132404487Y-89870593D01*
X131806732Y-90270000D01*
X130506598Y-90270000D01*
X130332301Y-90342196D01*
X130332301Y-86852774D01*
X130395801Y-86533539D01*
X130395801Y-78457264D01*
X130430320Y-78283725D01*
X130293568Y-77596227D01*
X130180498Y-77427006D01*
X129904132Y-77013394D01*
X129757012Y-76915092D01*
X122388000Y-69546081D01*
X122388000Y-68431596D01*
X121930059Y-67326029D01*
X121727131Y-67123101D01*
X134725586Y-67123101D01*
X134660000Y-67593981D01*
G36*
X199530094Y-67274111D02*
X199269001Y-68586714D01*
X199269000Y-86867394D01*
X199180841Y-87310600D01*
X199269000Y-87753806D01*
X199269000Y-87753809D01*
X199530093Y-89066412D01*
X199886943Y-89600476D01*
X199489100Y-89521340D01*
X199045890Y-89609500D01*
X197733287Y-89870593D01*
X197135532Y-90270000D01*
X195835398Y-90270000D01*
X195754855Y-90303362D01*
X195759120Y-90281921D01*
X195724601Y-90108382D01*
X195724601Y-79397064D01*
X195759120Y-79223525D01*
X195622368Y-78536027D01*
X195453785Y-78283725D01*
X195232932Y-77953194D01*
X195085812Y-77854892D01*
X186777000Y-69546081D01*
X186777000Y-68431596D01*
X186319059Y-67326029D01*
X186116131Y-67123101D01*
X199630996Y-67123101D01*
X199530094Y-67274111D01*
X199530094Y-67274111D01*
G37*
X199530094Y-67274111D02*
X199269001Y-68586714D01*
X199269000Y-86867394D01*
X199180841Y-87310600D01*
X199269000Y-87753806D01*
X199269000Y-87753809D01*
X199530093Y-89066412D01*
X199886943Y-89600476D01*
X199489100Y-89521340D01*
X199045890Y-89609500D01*
X197733287Y-89870593D01*
X197135532Y-90270000D01*
X195835398Y-90270000D01*
X195754855Y-90303362D01*
X195759120Y-90281921D01*
X195724601Y-90108382D01*
X195724601Y-79397064D01*
X195759120Y-79223525D01*
X195622368Y-78536027D01*
X195453785Y-78283725D01*
X195232932Y-77953194D01*
X195085812Y-77854892D01*
X186777000Y-69546081D01*
X186777000Y-68431596D01*
X186319059Y-67326029D01*
X186116131Y-67123101D01*
X199630996Y-67123101D01*
X199530094Y-67274111D01*
G36*
X247992000Y-83700942D02*
X238053009Y-71080000D01*
X239361786Y-71080000D01*
X239849508Y-71031964D01*
X240232192Y-70955844D01*
X241133398Y-70582553D01*
X241457821Y-70365780D01*
X241836660Y-70054874D01*
X245060874Y-66830660D01*
X245371780Y-66451821D01*
X245588553Y-66127398D01*
X245961844Y-65226192D01*
X246018782Y-64939942D01*
X246215844Y-64464192D01*
X246291964Y-64081508D01*
X246340000Y-63593786D01*
X246340000Y-53246214D01*
X246291964Y-52758492D01*
X246215844Y-52375808D01*
X245842553Y-51474602D01*
X245625780Y-51150179D01*
X245314874Y-50771340D01*
X239804660Y-45261126D01*
X239425821Y-44950220D01*
X239101398Y-44733447D01*
X238200192Y-44360156D01*
X237817508Y-44284036D01*
X237329786Y-44236000D01*
X230194715Y-44236000D01*
X229990630Y-44183256D01*
X229615785Y-44236000D01*
X212027437Y-44236000D01*
X211709000Y-44172659D01*
X211390563Y-44236000D01*
X82202214Y-44236000D01*
X81714492Y-44284036D01*
X81331808Y-44360156D01*
X80430602Y-44733447D01*
X80106179Y-44950220D01*
X79727340Y-45261126D01*
X76249126Y-48739340D01*
X75938220Y-49118179D01*
X75721447Y-49442602D01*
X75348156Y-50343808D01*
X75272036Y-50726492D01*
X75224000Y-51214214D01*
X75224000Y-57529924D01*
X74195350Y-57529924D01*
X72725182Y-58138887D01*
X71599963Y-59264106D01*
X70991000Y-60734274D01*
X70991000Y-62325574D01*
X71518512Y-63599101D01*
X59552022Y-63599101D01*
X57999000Y-62046081D01*
X57999000Y-60931596D01*
X57541059Y-59826029D01*
X56694895Y-58979865D01*
X55589328Y-58521924D01*
X54392672Y-58521924D01*
X53287105Y-58979865D01*
X52440941Y-59826029D01*
X52008000Y-60871241D01*
X52008000Y-49926500D01*
X59202715Y-49926500D01*
X59202715Y-55446500D01*
X74401286Y-55446500D01*
X74401286Y-49926500D01*
X59202715Y-49926500D01*
X52008000Y-49926500D01*
X52008000Y-42008000D01*
X247992000Y-42008000D01*
X247992000Y-83700942D01*
X247992000Y-83700942D01*
G37*
X247992000Y-83700942D02*
X238053009Y-71080000D01*
X239361786Y-71080000D01*
X239849508Y-71031964D01*
X240232192Y-70955844D01*
X241133398Y-70582553D01*
X241457821Y-70365780D01*
X241836660Y-70054874D01*
X245060874Y-66830660D01*
X245371780Y-66451821D01*
X245588553Y-66127398D01*
X245961844Y-65226192D01*
X246018782Y-64939942D01*
X246215844Y-64464192D01*
X246291964Y-64081508D01*
X246340000Y-63593786D01*
X246340000Y-53246214D01*
X246291964Y-52758492D01*
X246215844Y-52375808D01*
X245842553Y-51474602D01*
X245625780Y-51150179D01*
X245314874Y-50771340D01*
X239804660Y-45261126D01*
X239425821Y-44950220D01*
X239101398Y-44733447D01*
X238200192Y-44360156D01*
X237817508Y-44284036D01*
X237329786Y-44236000D01*
X230194715Y-44236000D01*
X229990630Y-44183256D01*
X229615785Y-44236000D01*
X212027437Y-44236000D01*
X211709000Y-44172659D01*
X211390563Y-44236000D01*
X82202214Y-44236000D01*
X81714492Y-44284036D01*
X81331808Y-44360156D01*
X80430602Y-44733447D01*
X80106179Y-44950220D01*
X79727340Y-45261126D01*
X76249126Y-48739340D01*
X75938220Y-49118179D01*
X75721447Y-49442602D01*
X75348156Y-50343808D01*
X75272036Y-50726492D01*
X75224000Y-51214214D01*
X75224000Y-57529924D01*
X74195350Y-57529924D01*
X72725182Y-58138887D01*
X71599963Y-59264106D01*
X70991000Y-60734274D01*
X70991000Y-62325574D01*
X71518512Y-63599101D01*
X59552022Y-63599101D01*
X57999000Y-62046081D01*
X57999000Y-60931596D01*
X57541059Y-59826029D01*
X56694895Y-58979865D01*
X55589328Y-58521924D01*
X54392672Y-58521924D01*
X53287105Y-58979865D01*
X52440941Y-59826029D01*
X52008000Y-60871241D01*
X52008000Y-49926500D01*
X59202715Y-49926500D01*
X59202715Y-55446500D01*
X74401286Y-55446500D01*
X74401286Y-49926500D01*
X59202715Y-49926500D01*
X52008000Y-49926500D01*
X52008000Y-42008000D01*
X247992000Y-42008000D01*
X247992000Y-83700942D01*
G36*
X167574500Y-60734274D02*
X167574500Y-62325574D01*
X168102012Y-63599101D01*
X153759277Y-63599101D01*
X154124559Y-63233819D01*
X154582500Y-62128252D01*
X154582500Y-60931596D01*
X154296031Y-60240000D01*
X167779235Y-60240000D01*
X167574500Y-60734274D01*
X167574500Y-60734274D01*
G37*
X167574500Y-60734274D02*
X167574500Y-62325574D01*
X168102012Y-63599101D01*
X153759277Y-63599101D01*
X154124559Y-63233819D01*
X154582500Y-62128252D01*
X154582500Y-60931596D01*
X154296031Y-60240000D01*
X167779235Y-60240000D01*
X167574500Y-60734274D01*
G36*
X199769000Y-60734274D02*
X199769000Y-62325574D01*
X200296512Y-63599101D01*
X185953777Y-63599101D01*
X186319059Y-63233819D01*
X186777000Y-62128252D01*
X186777000Y-60931596D01*
X186490531Y-60240000D01*
X199973735Y-60240000D01*
X199769000Y-60734274D01*
X199769000Y-60734274D01*
G37*
X199769000Y-60734274D02*
X199769000Y-62325574D01*
X200296512Y-63599101D01*
X185953777Y-63599101D01*
X186319059Y-63233819D01*
X186777000Y-62128252D01*
X186777000Y-60931596D01*
X186490531Y-60240000D01*
X199973735Y-60240000D01*
X199769000Y-60734274D01*
G36*
X103185500Y-60734274D02*
X103185500Y-62325574D01*
X103713012Y-63599101D01*
X89370277Y-63599101D01*
X89735559Y-63233819D01*
X90193500Y-62128252D01*
X90193500Y-60931596D01*
X89907031Y-60240000D01*
X103390235Y-60240000D01*
X103185500Y-60734274D01*
X103185500Y-60734274D01*
G37*
X103185500Y-60734274D02*
X103185500Y-62325574D01*
X103713012Y-63599101D01*
X89370277Y-63599101D01*
X89735559Y-63233819D01*
X90193500Y-62128252D01*
X90193500Y-60931596D01*
X89907031Y-60240000D01*
X103390235Y-60240000D01*
X103185500Y-60734274D01*
G36*
X135380000Y-60734274D02*
X135380000Y-62325574D01*
X135907512Y-63599101D01*
X121564777Y-63599101D01*
X121930059Y-63233819D01*
X122388000Y-62128252D01*
X122388000Y-60931596D01*
X122101531Y-60240000D01*
X135584735Y-60240000D01*
X135380000Y-60734274D01*
X135380000Y-60734274D01*
G37*
X135380000Y-60734274D02*
X135380000Y-62325574D01*
X135907512Y-63599101D01*
X121564777Y-63599101D01*
X121930059Y-63233819D01*
X122388000Y-62128252D01*
X122388000Y-60931596D01*
X122101531Y-60240000D01*
X135584735Y-60240000D01*
X135380000Y-60734274D01*
D31*
G36*
X98576000Y-51258792D02*
X98576000Y-56158000D01*
X87282214Y-56158000D01*
X86989581Y-56186822D01*
X86606897Y-56262942D01*
X86066173Y-56486916D01*
X85741750Y-56703689D01*
X85514447Y-56890233D01*
X84727302Y-57677378D01*
X84636455Y-57715008D01*
X83370584Y-58980879D01*
X83332954Y-59071726D01*
X80297579Y-62107101D01*
X79597419Y-62107101D01*
X79491000Y-61974077D01*
X79491000Y-60634818D01*
X79392327Y-60396601D01*
X79251443Y-57015376D01*
X85669400Y-51040036D01*
X98576000Y-51258792D01*
X98576000Y-51258792D01*
G37*
X98576000Y-51258792D02*
X98576000Y-56158000D01*
X87282214Y-56158000D01*
X86989581Y-56186822D01*
X86606897Y-56262942D01*
X86066173Y-56486916D01*
X85741750Y-56703689D01*
X85514447Y-56890233D01*
X84727302Y-57677378D01*
X84636455Y-57715008D01*
X83370584Y-58980879D01*
X83332954Y-59071726D01*
X80297579Y-62107101D01*
X79597419Y-62107101D01*
X79491000Y-61974077D01*
X79491000Y-60634818D01*
X79392327Y-60396601D01*
X79251443Y-57015376D01*
X85669400Y-51040036D01*
X98576000Y-51258792D01*
G36*
X243226609Y-132089651D02*
X243356000Y-132167285D01*
X243356000Y-138824680D01*
X240170680Y-142010000D01*
X237974000Y-142010000D01*
X237974000Y-137273320D01*
X238659545Y-136587775D01*
X239719045Y-136148916D01*
X240984916Y-134883045D01*
X241670000Y-133229106D01*
X241670000Y-132561320D01*
X242175320Y-132056000D01*
X243105119Y-132056000D01*
X243226609Y-132089651D01*
X243226609Y-132089651D01*
G37*
X243226609Y-132089651D02*
X243356000Y-132167285D01*
X243356000Y-138824680D01*
X240170680Y-142010000D01*
X237974000Y-142010000D01*
X237974000Y-137273320D01*
X238659545Y-136587775D01*
X239719045Y-136148916D01*
X240984916Y-134883045D01*
X241670000Y-133229106D01*
X241670000Y-132561320D01*
X242175320Y-132056000D01*
X243105119Y-132056000D01*
X243226609Y-132089651D01*
D30*
G36*
X210587000Y-133281154D02*
X210587000Y-134434846D01*
X211028499Y-135500718D01*
X211844282Y-136316501D01*
X212910154Y-136758000D01*
X213884000Y-136758000D01*
X213884000Y-139871512D01*
X213867660Y-139953660D01*
X213785512Y-139970000D01*
X204298488Y-139970000D01*
X204216340Y-139953660D01*
X204200000Y-139871512D01*
X204200000Y-136656707D01*
X204218100Y-136565709D01*
X204269642Y-136488572D01*
X204424214Y-136334000D01*
X205009150Y-136334000D01*
X206479318Y-135725037D01*
X207604537Y-134599818D01*
X208213500Y-133129650D01*
X208213500Y-133080000D01*
X210670321Y-133080000D01*
X210587000Y-133281154D01*
X210587000Y-133281154D01*
G37*
X210587000Y-133281154D02*
X210587000Y-134434846D01*
X211028499Y-135500718D01*
X211844282Y-136316501D01*
X212910154Y-136758000D01*
X213884000Y-136758000D01*
X213884000Y-139871512D01*
X213867660Y-139953660D01*
X213785512Y-139970000D01*
X204298488Y-139970000D01*
X204216340Y-139953660D01*
X204200000Y-139871512D01*
X204200000Y-136656707D01*
X204218100Y-136565709D01*
X204269642Y-136488572D01*
X204424214Y-136334000D01*
X205009150Y-136334000D01*
X206479318Y-135725037D01*
X207604537Y-134599818D01*
X208213500Y-133129650D01*
X208213500Y-133080000D01*
X210670321Y-133080000D01*
X210587000Y-133281154D01*
G36*
X177694000Y-133154154D02*
X177694000Y-134307846D01*
X178135499Y-135373718D01*
X178951282Y-136189501D01*
X180017154Y-136631000D01*
X180927500Y-136631000D01*
X180927500Y-139871512D01*
X180911160Y-139953660D01*
X180829012Y-139970000D01*
X171341988Y-139970000D01*
X171259840Y-139953660D01*
X171243500Y-139871512D01*
X171243500Y-136656707D01*
X171261600Y-136565709D01*
X171313142Y-136488572D01*
X171467714Y-136334000D01*
X172052650Y-136334000D01*
X173522818Y-135725037D01*
X174648037Y-134599818D01*
X175257000Y-133129650D01*
X175257000Y-133080000D01*
X177724716Y-133080000D01*
X177694000Y-133154154D01*
X177694000Y-133154154D01*
G37*
X177694000Y-133154154D02*
X177694000Y-134307846D01*
X178135499Y-135373718D01*
X178951282Y-136189501D01*
X180017154Y-136631000D01*
X180927500Y-136631000D01*
X180927500Y-139871512D01*
X180911160Y-139953660D01*
X180829012Y-139970000D01*
X171341988Y-139970000D01*
X171259840Y-139953660D01*
X171243500Y-139871512D01*
X171243500Y-136656707D01*
X171261600Y-136565709D01*
X171313142Y-136488572D01*
X171467714Y-136334000D01*
X172052650Y-136334000D01*
X173522818Y-135725037D01*
X174648037Y-134599818D01*
X175257000Y-133129650D01*
X175257000Y-133080000D01*
X177724716Y-133080000D01*
X177694000Y-133154154D01*
G36*
X144951678Y-133101053D02*
X145031625Y-133160450D01*
X147971000Y-136519736D01*
X147971000Y-139871512D01*
X147954660Y-139953660D01*
X147872512Y-139970000D01*
X138385488Y-139970000D01*
X138303340Y-139953660D01*
X138287000Y-139871512D01*
X138287000Y-136656707D01*
X138305100Y-136565709D01*
X138356642Y-136488572D01*
X138511214Y-136334000D01*
X139096150Y-136334000D01*
X140566318Y-135725037D01*
X141691537Y-134599818D01*
X142300500Y-133129650D01*
X142300500Y-133080000D01*
X144854331Y-133080000D01*
X144951678Y-133101053D01*
X144951678Y-133101053D01*
G37*
X144951678Y-133101053D02*
X145031625Y-133160450D01*
X147971000Y-136519736D01*
X147971000Y-139871512D01*
X147954660Y-139953660D01*
X147872512Y-139970000D01*
X138385488Y-139970000D01*
X138303340Y-139953660D01*
X138287000Y-139871512D01*
X138287000Y-136656707D01*
X138305100Y-136565709D01*
X138356642Y-136488572D01*
X138511214Y-136334000D01*
X139096150Y-136334000D01*
X140566318Y-135725037D01*
X141691537Y-134599818D01*
X142300500Y-133129650D01*
X142300500Y-133080000D01*
X144854331Y-133080000D01*
X144951678Y-133101053D01*
G36*
X112015428Y-133099609D02*
X112094121Y-133155186D01*
X115014500Y-136284163D01*
X115014500Y-139871512D01*
X114998160Y-139953660D01*
X114916012Y-139970000D01*
X105428988Y-139970000D01*
X105346840Y-139953660D01*
X105330500Y-139871512D01*
X105330500Y-136656707D01*
X105348600Y-136565709D01*
X105400142Y-136488572D01*
X105554714Y-136334000D01*
X106139650Y-136334000D01*
X107609818Y-135725037D01*
X108735037Y-134599818D01*
X109344000Y-133129650D01*
X109344000Y-133080000D01*
X111921101Y-133080000D01*
X112015428Y-133099609D01*
X112015428Y-133099609D01*
G37*
X112015428Y-133099609D02*
X112094121Y-133155186D01*
X115014500Y-136284163D01*
X115014500Y-139871512D01*
X114998160Y-139953660D01*
X114916012Y-139970000D01*
X105428988Y-139970000D01*
X105346840Y-139953660D01*
X105330500Y-139871512D01*
X105330500Y-136656707D01*
X105348600Y-136565709D01*
X105400142Y-136488572D01*
X105554714Y-136334000D01*
X106139650Y-136334000D01*
X107609818Y-135725037D01*
X108735037Y-134599818D01*
X109344000Y-133129650D01*
X109344000Y-133080000D01*
X111921101Y-133080000D01*
X112015428Y-133099609D01*
G36*
X91456000Y-147999512D02*
X91439660Y-148081660D01*
X91357512Y-148098000D01*
X80051789Y-148098000D01*
X79863240Y-148060700D01*
X77165070Y-146949689D01*
X77101381Y-146908134D01*
X77138323Y-146841662D01*
X77978481Y-145833473D01*
X78046397Y-145779845D01*
X78118888Y-145827102D01*
X79210447Y-146918661D01*
X79361985Y-147043024D01*
X79669179Y-147248284D01*
X80029657Y-147397599D01*
X80392017Y-147469677D01*
X80782199Y-147469677D01*
X81144559Y-147397599D01*
X81505037Y-147248284D01*
X81812231Y-147043024D01*
X82088132Y-146767123D01*
X82293392Y-146459929D01*
X82442707Y-146099451D01*
X82514785Y-145737091D01*
X82534000Y-145542000D01*
X82534000Y-144896000D01*
X84829070Y-144896000D01*
X85272276Y-144984159D01*
X85715482Y-144896000D01*
X85715486Y-144896000D01*
X87028089Y-144634907D01*
X88516595Y-143640319D01*
X88767655Y-143264581D01*
X90586125Y-141446111D01*
X91254016Y-141235198D01*
X91456000Y-141143599D01*
X91456000Y-147999512D01*
X91456000Y-147999512D01*
G37*
X91456000Y-147999512D02*
X91439660Y-148081660D01*
X91357512Y-148098000D01*
X80051789Y-148098000D01*
X79863240Y-148060700D01*
X77165070Y-146949689D01*
X77101381Y-146908134D01*
X77138323Y-146841662D01*
X77978481Y-145833473D01*
X78046397Y-145779845D01*
X78118888Y-145827102D01*
X79210447Y-146918661D01*
X79361985Y-147043024D01*
X79669179Y-147248284D01*
X80029657Y-147397599D01*
X80392017Y-147469677D01*
X80782199Y-147469677D01*
X81144559Y-147397599D01*
X81505037Y-147248284D01*
X81812231Y-147043024D01*
X82088132Y-146767123D01*
X82293392Y-146459929D01*
X82442707Y-146099451D01*
X82514785Y-145737091D01*
X82534000Y-145542000D01*
X82534000Y-144896000D01*
X84829070Y-144896000D01*
X85272276Y-144984159D01*
X85715482Y-144896000D01*
X85715486Y-144896000D01*
X87028089Y-144634907D01*
X88516595Y-143640319D01*
X88767655Y-143264581D01*
X90586125Y-141446111D01*
X91254016Y-141235198D01*
X91456000Y-141143599D01*
X91456000Y-147999512D01*
G36*
X237322291Y-47754100D02*
X237399428Y-47805642D01*
X242770358Y-53176572D01*
X242821900Y-53253709D01*
X242840000Y-53344707D01*
X242840000Y-63495293D01*
X242821900Y-63586291D01*
X242770358Y-63663428D01*
X239177428Y-67256358D01*
X239100291Y-67307900D01*
X239009293Y-67326000D01*
X233430707Y-67326000D01*
X233339709Y-67307900D01*
X233262572Y-67256358D01*
X233225642Y-67219428D01*
X233174100Y-67142291D01*
X233156000Y-67051293D01*
X233156000Y-59283000D01*
X233150938Y-59182511D01*
X233130742Y-58982551D01*
X233115608Y-58883080D01*
X230862932Y-47844966D01*
X230864736Y-47755631D01*
X230951905Y-47736000D01*
X237231293Y-47736000D01*
X237322291Y-47754100D01*
X237322291Y-47754100D01*
G37*
X237322291Y-47754100D02*
X237399428Y-47805642D01*
X242770358Y-53176572D01*
X242821900Y-53253709D01*
X242840000Y-53344707D01*
X242840000Y-63495293D01*
X242821900Y-63586291D01*
X242770358Y-63663428D01*
X239177428Y-67256358D01*
X239100291Y-67307900D01*
X239009293Y-67326000D01*
X233430707Y-67326000D01*
X233339709Y-67307900D01*
X233262572Y-67256358D01*
X233225642Y-67219428D01*
X233174100Y-67142291D01*
X233156000Y-67051293D01*
X233156000Y-59283000D01*
X233150938Y-59182511D01*
X233130742Y-58982551D01*
X233115608Y-58883080D01*
X230862932Y-47844966D01*
X230864736Y-47755631D01*
X230951905Y-47736000D01*
X237231293Y-47736000D01*
X237322291Y-47754100D01*
G36*
X237322291Y-47754100D02*
X237399428Y-47805642D01*
X242516358Y-52922572D01*
X242567900Y-52999709D01*
X242586000Y-53090707D01*
X242586000Y-64257293D01*
X242567900Y-64348291D01*
X242516358Y-64425428D01*
X239431428Y-67510358D01*
X239354291Y-67561900D01*
X239263293Y-67580000D01*
X234192707Y-67580000D01*
X234101709Y-67561900D01*
X234024572Y-67510358D01*
X232971642Y-66457428D01*
X232969999Y-66454969D01*
X232969999Y-62164345D01*
X233049832Y-61762998D01*
X232902000Y-61019797D01*
X232902000Y-59850214D01*
X232882786Y-59655125D01*
X232806666Y-59272441D01*
X232657349Y-58911959D01*
X232440576Y-58587536D01*
X232316214Y-58436000D01*
X229092000Y-55211786D01*
X228940464Y-55087424D01*
X228616041Y-54870651D01*
X228255559Y-54721334D01*
X227872875Y-54645214D01*
X227677786Y-54626000D01*
X226077281Y-54626000D01*
X225872000Y-54585167D01*
X225666719Y-54626000D01*
X225335749Y-54626000D01*
X225148813Y-54501093D01*
X223836210Y-54240000D01*
X215449790Y-54240000D01*
X214137187Y-54501093D01*
X213766274Y-54748929D01*
X213566695Y-54821906D01*
X213265051Y-54996957D01*
X212998555Y-55221925D01*
X212923493Y-55312058D01*
X212648681Y-55495681D01*
X211654093Y-56984187D01*
X211491979Y-57799187D01*
X210092369Y-60860834D01*
X210044710Y-60927719D01*
X209964069Y-60912195D01*
X207421417Y-59895133D01*
X207160037Y-59264106D01*
X206034818Y-58138887D01*
X205297831Y-57833617D01*
X204708000Y-57243786D01*
X204556464Y-57119424D01*
X204232041Y-56902651D01*
X203871559Y-56753334D01*
X203488875Y-56677214D01*
X203293786Y-56658000D01*
X180549207Y-56658000D01*
X180047277Y-56793092D01*
X179937856Y-56856592D01*
X179571547Y-57225353D01*
X179557693Y-57249597D01*
X179536164Y-57289331D01*
X179494934Y-57369708D01*
X179475227Y-57410361D01*
X177897866Y-60860838D01*
X177850210Y-60927719D01*
X177769569Y-60912195D01*
X175226917Y-59895133D01*
X174965537Y-59264106D01*
X173840318Y-58138887D01*
X173103331Y-57833617D01*
X172513500Y-57243786D01*
X172361964Y-57119424D01*
X172037541Y-56902651D01*
X171677059Y-56753334D01*
X171294375Y-56677214D01*
X171099286Y-56658000D01*
X148354707Y-56658000D01*
X147852777Y-56793092D01*
X147743356Y-56856592D01*
X147377047Y-57225353D01*
X147363193Y-57249597D01*
X147341664Y-57289331D01*
X147300434Y-57369708D01*
X147280727Y-57410361D01*
X145703366Y-60860838D01*
X145655710Y-60927719D01*
X145575069Y-60912195D01*
X143032417Y-59895133D01*
X142771037Y-59264106D01*
X141645818Y-58138887D01*
X140908831Y-57833617D01*
X140319000Y-57243786D01*
X140167464Y-57119424D01*
X139843041Y-56902651D01*
X139482559Y-56753334D01*
X139099875Y-56677214D01*
X138904786Y-56658000D01*
X116160207Y-56658000D01*
X115658277Y-56793092D01*
X115548856Y-56856592D01*
X115182547Y-57225353D01*
X115168693Y-57249597D01*
X115147164Y-57289331D01*
X115105934Y-57369708D01*
X115086227Y-57410361D01*
X113508866Y-60860838D01*
X113461210Y-60927719D01*
X113380569Y-60912195D01*
X110837917Y-59895133D01*
X110576537Y-59264106D01*
X109451318Y-58138887D01*
X108714331Y-57833617D01*
X108124500Y-57243786D01*
X107972964Y-57119424D01*
X107648541Y-56902651D01*
X107288059Y-56753334D01*
X106905375Y-56677214D01*
X106710286Y-56658000D01*
X87282214Y-56658000D01*
X87087125Y-56677214D01*
X86704441Y-56753334D01*
X86343959Y-56902651D01*
X86019536Y-57119424D01*
X85868000Y-57243786D01*
X85010529Y-58101257D01*
X84919682Y-58138887D01*
X83794463Y-59264106D01*
X83756833Y-59354953D01*
X82459428Y-60652358D01*
X82382291Y-60703900D01*
X82291293Y-60722000D01*
X81186214Y-60722000D01*
X80991125Y-60741214D01*
X80608441Y-60817334D01*
X80247959Y-60966651D01*
X79923536Y-61183424D01*
X79772000Y-61307786D01*
X78994000Y-62085786D01*
X78991000Y-62082786D01*
X78991000Y-60734274D01*
X78724000Y-60089678D01*
X78724000Y-51312707D01*
X78742100Y-51221709D01*
X78793642Y-51144572D01*
X82132572Y-47805642D01*
X82209709Y-47754100D01*
X82300707Y-47736000D01*
X237231293Y-47736000D01*
X237322291Y-47754100D01*
X237322291Y-47754100D01*
G37*
X237322291Y-47754100D02*
X237399428Y-47805642D01*
X242516358Y-52922572D01*
X242567900Y-52999709D01*
X242586000Y-53090707D01*
X242586000Y-64257293D01*
X242567900Y-64348291D01*
X242516358Y-64425428D01*
X239431428Y-67510358D01*
X239354291Y-67561900D01*
X239263293Y-67580000D01*
X234192707Y-67580000D01*
X234101709Y-67561900D01*
X234024572Y-67510358D01*
X232971642Y-66457428D01*
X232969999Y-66454969D01*
X232969999Y-62164345D01*
X233049832Y-61762998D01*
X232902000Y-61019797D01*
X232902000Y-59850214D01*
X232882786Y-59655125D01*
X232806666Y-59272441D01*
X232657349Y-58911959D01*
X232440576Y-58587536D01*
X232316214Y-58436000D01*
X229092000Y-55211786D01*
X228940464Y-55087424D01*
X228616041Y-54870651D01*
X228255559Y-54721334D01*
X227872875Y-54645214D01*
X227677786Y-54626000D01*
X226077281Y-54626000D01*
X225872000Y-54585167D01*
X225666719Y-54626000D01*
X225335749Y-54626000D01*
X225148813Y-54501093D01*
X223836210Y-54240000D01*
X215449790Y-54240000D01*
X214137187Y-54501093D01*
X213766274Y-54748929D01*
X213566695Y-54821906D01*
X213265051Y-54996957D01*
X212998555Y-55221925D01*
X212923493Y-55312058D01*
X212648681Y-55495681D01*
X211654093Y-56984187D01*
X211491979Y-57799187D01*
X210092369Y-60860834D01*
X210044710Y-60927719D01*
X209964069Y-60912195D01*
X207421417Y-59895133D01*
X207160037Y-59264106D01*
X206034818Y-58138887D01*
X205297831Y-57833617D01*
X204708000Y-57243786D01*
X204556464Y-57119424D01*
X204232041Y-56902651D01*
X203871559Y-56753334D01*
X203488875Y-56677214D01*
X203293786Y-56658000D01*
X180549207Y-56658000D01*
X180047277Y-56793092D01*
X179937856Y-56856592D01*
X179571547Y-57225353D01*
X179557693Y-57249597D01*
X179536164Y-57289331D01*
X179494934Y-57369708D01*
X179475227Y-57410361D01*
X177897866Y-60860838D01*
X177850210Y-60927719D01*
X177769569Y-60912195D01*
X175226917Y-59895133D01*
X174965537Y-59264106D01*
X173840318Y-58138887D01*
X173103331Y-57833617D01*
X172513500Y-57243786D01*
X172361964Y-57119424D01*
X172037541Y-56902651D01*
X171677059Y-56753334D01*
X171294375Y-56677214D01*
X171099286Y-56658000D01*
X148354707Y-56658000D01*
X147852777Y-56793092D01*
X147743356Y-56856592D01*
X147377047Y-57225353D01*
X147363193Y-57249597D01*
X147341664Y-57289331D01*
X147300434Y-57369708D01*
X147280727Y-57410361D01*
X145703366Y-60860838D01*
X145655710Y-60927719D01*
X145575069Y-60912195D01*
X143032417Y-59895133D01*
X142771037Y-59264106D01*
X141645818Y-58138887D01*
X140908831Y-57833617D01*
X140319000Y-57243786D01*
X140167464Y-57119424D01*
X139843041Y-56902651D01*
X139482559Y-56753334D01*
X139099875Y-56677214D01*
X138904786Y-56658000D01*
X116160207Y-56658000D01*
X115658277Y-56793092D01*
X115548856Y-56856592D01*
X115182547Y-57225353D01*
X115168693Y-57249597D01*
X115147164Y-57289331D01*
X115105934Y-57369708D01*
X115086227Y-57410361D01*
X113508866Y-60860838D01*
X113461210Y-60927719D01*
X113380569Y-60912195D01*
X110837917Y-59895133D01*
X110576537Y-59264106D01*
X109451318Y-58138887D01*
X108714331Y-57833617D01*
X108124500Y-57243786D01*
X107972964Y-57119424D01*
X107648541Y-56902651D01*
X107288059Y-56753334D01*
X106905375Y-56677214D01*
X106710286Y-56658000D01*
X87282214Y-56658000D01*
X87087125Y-56677214D01*
X86704441Y-56753334D01*
X86343959Y-56902651D01*
X86019536Y-57119424D01*
X85868000Y-57243786D01*
X85010529Y-58101257D01*
X84919682Y-58138887D01*
X83794463Y-59264106D01*
X83756833Y-59354953D01*
X82459428Y-60652358D01*
X82382291Y-60703900D01*
X82291293Y-60722000D01*
X81186214Y-60722000D01*
X80991125Y-60741214D01*
X80608441Y-60817334D01*
X80247959Y-60966651D01*
X79923536Y-61183424D01*
X79772000Y-61307786D01*
X78994000Y-62085786D01*
X78991000Y-62082786D01*
X78991000Y-60734274D01*
X78724000Y-60089678D01*
X78724000Y-51312707D01*
X78742100Y-51221709D01*
X78793642Y-51144572D01*
X82132572Y-47805642D01*
X82209709Y-47754100D01*
X82300707Y-47736000D01*
X237231293Y-47736000D01*
X237322291Y-47754100D01*
G36*
X75855428Y-68125642D02*
X75991000Y-68261214D01*
X75991000Y-69825574D01*
X76599963Y-71295742D01*
X77481774Y-72177553D01*
X82542286Y-87966351D01*
X82566000Y-88118035D01*
X82566000Y-89055498D01*
X82513929Y-89276074D01*
X82319490Y-89664953D01*
X82040710Y-89609500D01*
X73567537Y-89609500D01*
X73392479Y-87858916D01*
X73390000Y-87809210D01*
X73390000Y-71277765D01*
X73829565Y-70619910D01*
X73984398Y-69841513D01*
X73991000Y-69825574D01*
X73991000Y-69808322D01*
X74145833Y-69029924D01*
X73991000Y-68251526D01*
X73991000Y-68234274D01*
X73984398Y-68218335D01*
X73963863Y-68115101D01*
X75839652Y-68115101D01*
X75855428Y-68125642D01*
X75855428Y-68125642D01*
G37*
X75855428Y-68125642D02*
X75991000Y-68261214D01*
X75991000Y-69825574D01*
X76599963Y-71295742D01*
X77481774Y-72177553D01*
X82542286Y-87966351D01*
X82566000Y-88118035D01*
X82566000Y-89055498D01*
X82513929Y-89276074D01*
X82319490Y-89664953D01*
X82040710Y-89609500D01*
X73567537Y-89609500D01*
X73392479Y-87858916D01*
X73390000Y-87809210D01*
X73390000Y-71277765D01*
X73829565Y-70619910D01*
X73984398Y-69841513D01*
X73991000Y-69825574D01*
X73991000Y-69808322D01*
X74145833Y-69029924D01*
X73991000Y-68251526D01*
X73991000Y-68234274D01*
X73984398Y-68218335D01*
X73963863Y-68115101D01*
X75839652Y-68115101D01*
X75855428Y-68125642D01*
G36*
X107830397Y-68325484D02*
X107881344Y-68392756D01*
X108185500Y-69001067D01*
X108185500Y-69825574D01*
X108794463Y-71295742D01*
X109314478Y-71815757D01*
X115551831Y-87731762D01*
X115586000Y-87912596D01*
X115586000Y-89744301D01*
X114908310Y-89609500D01*
X106184637Y-89609500D01*
X106168410Y-89578530D01*
X106156000Y-89502056D01*
X106156000Y-69956629D01*
X106178898Y-69841513D01*
X106185500Y-69825574D01*
X106185500Y-69808322D01*
X106340333Y-69029924D01*
X106268603Y-68669311D01*
X106439901Y-68383813D01*
X106491888Y-68323594D01*
X106570266Y-68310000D01*
X107747440Y-68310000D01*
X107830397Y-68325484D01*
X107830397Y-68325484D01*
G37*
X107830397Y-68325484D02*
X107881344Y-68392756D01*
X108185500Y-69001067D01*
X108185500Y-69825574D01*
X108794463Y-71295742D01*
X109314478Y-71815757D01*
X115551831Y-87731762D01*
X115586000Y-87912596D01*
X115586000Y-89744301D01*
X114908310Y-89609500D01*
X106184637Y-89609500D01*
X106168410Y-89578530D01*
X106156000Y-89502056D01*
X106156000Y-69956629D01*
X106178898Y-69841513D01*
X106185500Y-69825574D01*
X106185500Y-69808322D01*
X106340333Y-69029924D01*
X106268603Y-68669311D01*
X106439901Y-68383813D01*
X106491888Y-68323594D01*
X106570266Y-68310000D01*
X107747440Y-68310000D01*
X107830397Y-68325484D01*
G36*
X140380000Y-68234274D02*
X140380000Y-69825574D01*
X140988963Y-71295742D01*
X141242274Y-71549053D01*
X148564387Y-88252624D01*
X148606000Y-88451203D01*
X148606000Y-89774615D01*
X147775910Y-89609500D01*
X138160000Y-89609500D01*
X138160000Y-71472540D01*
X138618907Y-70785737D01*
X138968160Y-69029924D01*
X138786190Y-68115101D01*
X140429363Y-68115101D01*
X140380000Y-68234274D01*
X140380000Y-68234274D01*
G37*
X140380000Y-68234274D02*
X140380000Y-69825574D01*
X140988963Y-71295742D01*
X141242274Y-71549053D01*
X148564387Y-88252624D01*
X148606000Y-88451203D01*
X148606000Y-89774615D01*
X147775910Y-89609500D01*
X138160000Y-89609500D01*
X138160000Y-71472540D01*
X138618907Y-70785737D01*
X138968160Y-69029924D01*
X138786190Y-68115101D01*
X140429363Y-68115101D01*
X140380000Y-68234274D01*
G36*
X172228275Y-68333098D02*
X172309639Y-68397830D01*
X172574500Y-68728906D01*
X172574500Y-69825574D01*
X173183463Y-71295742D01*
X173886261Y-71998540D01*
X181578583Y-88262308D01*
X181626000Y-88473461D01*
X181626000Y-89804929D01*
X180643510Y-89609500D01*
X170418000Y-89609500D01*
X170418000Y-71377505D01*
X170813407Y-70785737D01*
X171162660Y-69029924D01*
X171066275Y-68545363D01*
X171154693Y-68412735D01*
X171237793Y-68337299D01*
X171346655Y-68310000D01*
X172126896Y-68310000D01*
X172228275Y-68333098D01*
X172228275Y-68333098D01*
G37*
X172228275Y-68333098D02*
X172309639Y-68397830D01*
X172574500Y-68728906D01*
X172574500Y-69825574D01*
X173183463Y-71295742D01*
X173886261Y-71998540D01*
X181578583Y-88262308D01*
X181626000Y-88473461D01*
X181626000Y-89804929D01*
X180643510Y-89609500D01*
X170418000Y-89609500D01*
X170418000Y-71377505D01*
X170813407Y-70785737D01*
X171162660Y-69029924D01*
X171066275Y-68545363D01*
X171154693Y-68412735D01*
X171237793Y-68337299D01*
X171346655Y-68310000D01*
X172126896Y-68310000D01*
X172228275Y-68333098D01*
G36*
X204456099Y-68129813D02*
X204670063Y-68486421D01*
X204740000Y-68738917D01*
X204740000Y-69094302D01*
X204769000Y-69331996D01*
X204769000Y-69825574D01*
X205377963Y-71295742D01*
X205933736Y-71851515D01*
X214335053Y-87769800D01*
X214373000Y-87922998D01*
X214373000Y-88643202D01*
X214392000Y-88689072D01*
X214392000Y-89336090D01*
X214375826Y-89417937D01*
X214294145Y-89434929D01*
X203791117Y-89539959D01*
X203708508Y-89524277D01*
X203692000Y-89441826D01*
X203692000Y-68716589D01*
X203721873Y-68547028D01*
X203865506Y-68152034D01*
X203888275Y-68115101D01*
X204443398Y-68115101D01*
X204456099Y-68129813D01*
X204456099Y-68129813D01*
G37*
X204456099Y-68129813D02*
X204670063Y-68486421D01*
X204740000Y-68738917D01*
X204740000Y-69094302D01*
X204769000Y-69331996D01*
X204769000Y-69825574D01*
X205377963Y-71295742D01*
X205933736Y-71851515D01*
X214335053Y-87769800D01*
X214373000Y-87922998D01*
X214373000Y-88643202D01*
X214392000Y-88689072D01*
X214392000Y-89336090D01*
X214375826Y-89417937D01*
X214294145Y-89434929D01*
X203791117Y-89539959D01*
X203708508Y-89524277D01*
X203692000Y-89441826D01*
X203692000Y-68716589D01*
X203721873Y-68547028D01*
X203865506Y-68152034D01*
X203888275Y-68115101D01*
X204443398Y-68115101D01*
X204456099Y-68129813D01*
D32*
G36*
X227266586Y-57756064D02*
X228579959Y-58964051D01*
X228998428Y-59117243D01*
X230220000Y-60485445D01*
X230220000Y-64090943D01*
X230568124Y-65841083D01*
X231420848Y-67117274D01*
X231464046Y-67373903D01*
X231518391Y-67530753D01*
X231677646Y-67822055D01*
X231723546Y-67891552D01*
X247143023Y-87471841D01*
X247242485Y-87654458D01*
X247269126Y-87817445D01*
X247232987Y-88022230D01*
X246477049Y-90138857D01*
X246329462Y-90109500D01*
X237491074Y-90109500D01*
X227797072Y-81993592D01*
X227633992Y-81781428D01*
X227576000Y-81520187D01*
X227576000Y-63886607D01*
X227567518Y-63794902D01*
X227500240Y-63434305D01*
X227434103Y-63263235D01*
X227241321Y-62951159D01*
X227185910Y-62877598D01*
X226777032Y-62427832D01*
X226760576Y-62345104D01*
X225970431Y-61162569D01*
X224787895Y-60372424D01*
X224737393Y-60362378D01*
X224601556Y-60302288D01*
X224197002Y-60216802D01*
X224093630Y-60206000D01*
X223951225Y-60206000D01*
X223393000Y-60094962D01*
X222834774Y-60206000D01*
X216451225Y-60206000D01*
X215893000Y-60094962D01*
X215334774Y-60206000D01*
X215076827Y-60206000D01*
X214952318Y-60172638D01*
X214909362Y-60129682D01*
X214876000Y-60005173D01*
X214876000Y-57945247D01*
X214923110Y-57708407D01*
X215029373Y-57549373D01*
X215188407Y-57443110D01*
X215425247Y-57396000D01*
X227003605Y-57396000D01*
X227266586Y-57756064D01*
X227266586Y-57756064D01*
G37*
X227266586Y-57756064D02*
X228579959Y-58964051D01*
X228998428Y-59117243D01*
X230220000Y-60485445D01*
X230220000Y-64090943D01*
X230568124Y-65841083D01*
X231420848Y-67117274D01*
X231464046Y-67373903D01*
X231518391Y-67530753D01*
X231677646Y-67822055D01*
X231723546Y-67891552D01*
X247143023Y-87471841D01*
X247242485Y-87654458D01*
X247269126Y-87817445D01*
X247232987Y-88022230D01*
X246477049Y-90138857D01*
X246329462Y-90109500D01*
X237491074Y-90109500D01*
X227797072Y-81993592D01*
X227633992Y-81781428D01*
X227576000Y-81520187D01*
X227576000Y-63886607D01*
X227567518Y-63794902D01*
X227500240Y-63434305D01*
X227434103Y-63263235D01*
X227241321Y-62951159D01*
X227185910Y-62877598D01*
X226777032Y-62427832D01*
X226760576Y-62345104D01*
X225970431Y-61162569D01*
X224787895Y-60372424D01*
X224737393Y-60362378D01*
X224601556Y-60302288D01*
X224197002Y-60216802D01*
X224093630Y-60206000D01*
X223951225Y-60206000D01*
X223393000Y-60094962D01*
X222834774Y-60206000D01*
X216451225Y-60206000D01*
X215893000Y-60094962D01*
X215334774Y-60206000D01*
X215076827Y-60206000D01*
X214952318Y-60172638D01*
X214909362Y-60129682D01*
X214876000Y-60005173D01*
X214876000Y-57945247D01*
X214923110Y-57708407D01*
X215029373Y-57549373D01*
X215188407Y-57443110D01*
X215425247Y-57396000D01*
X227003605Y-57396000D01*
X227266586Y-57756064D01*
G36*
X91068275Y-104910028D02*
X91081494Y-104976482D01*
X91081495Y-104976483D01*
X91081495Y-104976484D01*
X91565638Y-105701055D01*
X91748535Y-105823263D01*
X92331810Y-106406538D01*
X92310531Y-108938748D01*
X92254587Y-109220000D01*
X92297501Y-109435743D01*
X92297501Y-110489373D01*
X92085349Y-135735462D01*
X92012271Y-136051474D01*
X91615380Y-136881337D01*
X87208717Y-141288000D01*
X81751280Y-141288000D01*
X81357319Y-141209636D01*
X80963358Y-141288000D01*
X80420405Y-141396000D01*
X78176976Y-141396000D01*
X78070598Y-141227987D01*
X78035587Y-140965748D01*
X78176279Y-139277446D01*
X78263024Y-139009756D01*
X78300894Y-138971000D01*
X78775895Y-138971000D01*
X79128000Y-139041038D01*
X79480105Y-138971000D01*
X80522896Y-138763576D01*
X81705431Y-137973431D01*
X81766523Y-137882000D01*
X82285281Y-137882000D01*
X83204136Y-137501398D01*
X83907398Y-136798136D01*
X84153398Y-136204239D01*
X84560006Y-135797631D01*
X84647807Y-135834000D01*
X86040193Y-135834000D01*
X87326591Y-135301157D01*
X88311157Y-134316591D01*
X88844000Y-133030193D01*
X88844000Y-132167586D01*
X89144933Y-131849109D01*
X89264304Y-131635751D01*
X89391477Y-131163616D01*
X89408619Y-131041635D01*
X89479346Y-126656576D01*
X89606001Y-126019838D01*
X89606001Y-126019834D01*
X89650158Y-125797842D01*
X89606001Y-125575850D01*
X89606001Y-120085992D01*
X89650158Y-119864000D01*
X89606001Y-119642008D01*
X89606001Y-119642004D01*
X89593498Y-119579148D01*
X89646706Y-116280272D01*
X89637336Y-116175532D01*
X89556456Y-115765125D01*
X89473992Y-115572918D01*
X89232311Y-115231500D01*
X89162865Y-115152535D01*
X73509643Y-100741632D01*
X73487280Y-100720174D01*
X72817272Y-100050166D01*
X72683110Y-99849378D01*
X72636000Y-99612540D01*
X72636000Y-98821349D01*
X72694287Y-98559488D01*
X72858140Y-98347072D01*
X73143226Y-98109500D01*
X81991462Y-98109500D01*
X83042744Y-97900387D01*
X91068275Y-104910028D01*
X91068275Y-104910028D01*
G37*
X91068275Y-104910028D02*
X91081494Y-104976482D01*
X91081495Y-104976483D01*
X91081495Y-104976484D01*
X91565638Y-105701055D01*
X91748535Y-105823263D01*
X92331810Y-106406538D01*
X92310531Y-108938748D01*
X92254587Y-109220000D01*
X92297501Y-109435743D01*
X92297501Y-110489373D01*
X92085349Y-135735462D01*
X92012271Y-136051474D01*
X91615380Y-136881337D01*
X87208717Y-141288000D01*
X81751280Y-141288000D01*
X81357319Y-141209636D01*
X80963358Y-141288000D01*
X80420405Y-141396000D01*
X78176976Y-141396000D01*
X78070598Y-141227987D01*
X78035587Y-140965748D01*
X78176279Y-139277446D01*
X78263024Y-139009756D01*
X78300894Y-138971000D01*
X78775895Y-138971000D01*
X79128000Y-139041038D01*
X79480105Y-138971000D01*
X80522896Y-138763576D01*
X81705431Y-137973431D01*
X81766523Y-137882000D01*
X82285281Y-137882000D01*
X83204136Y-137501398D01*
X83907398Y-136798136D01*
X84153398Y-136204239D01*
X84560006Y-135797631D01*
X84647807Y-135834000D01*
X86040193Y-135834000D01*
X87326591Y-135301157D01*
X88311157Y-134316591D01*
X88844000Y-133030193D01*
X88844000Y-132167586D01*
X89144933Y-131849109D01*
X89264304Y-131635751D01*
X89391477Y-131163616D01*
X89408619Y-131041635D01*
X89479346Y-126656576D01*
X89606001Y-126019838D01*
X89606001Y-126019834D01*
X89650158Y-125797842D01*
X89606001Y-125575850D01*
X89606001Y-120085992D01*
X89650158Y-119864000D01*
X89606001Y-119642008D01*
X89606001Y-119642004D01*
X89593498Y-119579148D01*
X89646706Y-116280272D01*
X89637336Y-116175532D01*
X89556456Y-115765125D01*
X89473992Y-115572918D01*
X89232311Y-115231500D01*
X89162865Y-115152535D01*
X73509643Y-100741632D01*
X73487280Y-100720174D01*
X72817272Y-100050166D01*
X72683110Y-99849378D01*
X72636000Y-99612540D01*
X72636000Y-98821349D01*
X72694287Y-98559488D01*
X72858140Y-98347072D01*
X73143226Y-98109500D01*
X81991462Y-98109500D01*
X83042744Y-97900387D01*
X91068275Y-104910028D01*
G36*
X115828047Y-98371057D02*
X116017728Y-98590442D01*
X116086000Y-98872310D01*
X116086000Y-101902340D01*
X116039274Y-102138261D01*
X115933823Y-102296924D01*
X115734401Y-102431361D01*
X103924119Y-107391680D01*
X103634655Y-107450000D01*
X100871247Y-107450000D01*
X100634407Y-107402890D01*
X100475373Y-107296627D01*
X100369110Y-107137593D01*
X100322000Y-106900753D01*
X100322000Y-102916160D01*
X100386279Y-102642063D01*
X100565715Y-102425117D01*
X101419308Y-101777018D01*
X102342513Y-101394614D01*
X103665711Y-100071416D01*
X106249697Y-98109500D01*
X114859062Y-98109500D01*
X115330565Y-98015712D01*
X115828047Y-98371057D01*
X115828047Y-98371057D01*
G37*
X115828047Y-98371057D02*
X116017728Y-98590442D01*
X116086000Y-98872310D01*
X116086000Y-101902340D01*
X116039274Y-102138261D01*
X115933823Y-102296924D01*
X115734401Y-102431361D01*
X103924119Y-107391680D01*
X103634655Y-107450000D01*
X100871247Y-107450000D01*
X100634407Y-107402890D01*
X100475373Y-107296627D01*
X100369110Y-107137593D01*
X100322000Y-106900753D01*
X100322000Y-102916160D01*
X100386279Y-102642063D01*
X100565715Y-102425117D01*
X101419308Y-101777018D01*
X102342513Y-101394614D01*
X103665711Y-100071416D01*
X106249697Y-98109500D01*
X114859062Y-98109500D01*
X115330565Y-98015712D01*
X115828047Y-98371057D01*
G36*
X101085434Y-110467758D02*
X101284974Y-110617756D01*
X103556640Y-113192311D01*
X103465100Y-113413307D01*
X103465100Y-114805693D01*
X103997943Y-116092091D01*
X104982509Y-117076657D01*
X106268907Y-117609500D01*
X106942000Y-117609500D01*
X106942000Y-123156753D01*
X106894890Y-123393593D01*
X106788627Y-123552627D01*
X106629593Y-123658890D01*
X106392753Y-123706000D01*
X103841460Y-123706000D01*
X103761500Y-123690095D01*
X103711575Y-123439104D01*
X103120882Y-122555068D01*
X100557861Y-119992048D01*
X100377446Y-110971309D01*
X100422928Y-110725854D01*
X100532798Y-110561639D01*
X100698638Y-110454236D01*
X100893431Y-110421145D01*
X101085434Y-110467758D01*
X101085434Y-110467758D01*
G37*
X101085434Y-110467758D02*
X101284974Y-110617756D01*
X103556640Y-113192311D01*
X103465100Y-113413307D01*
X103465100Y-114805693D01*
X103997943Y-116092091D01*
X104982509Y-117076657D01*
X106268907Y-117609500D01*
X106942000Y-117609500D01*
X106942000Y-123156753D01*
X106894890Y-123393593D01*
X106788627Y-123552627D01*
X106629593Y-123658890D01*
X106392753Y-123706000D01*
X103841460Y-123706000D01*
X103761500Y-123690095D01*
X103711575Y-123439104D01*
X103120882Y-122555068D01*
X100557861Y-119992048D01*
X100377446Y-110971309D01*
X100422928Y-110725854D01*
X100532798Y-110561639D01*
X100698638Y-110454236D01*
X100893431Y-110421145D01*
X101085434Y-110467758D01*
G36*
X102024218Y-102083854D02*
X102198798Y-102185956D01*
X102317124Y-102349975D01*
X102370000Y-102600116D01*
X102370000Y-120025953D01*
X102326838Y-120253125D01*
X102228952Y-120408124D01*
X102081040Y-120516422D01*
X101903721Y-120562925D01*
X101721698Y-120541155D01*
X101518162Y-120431397D01*
X99533980Y-118819248D01*
X99380472Y-118624032D01*
X99364783Y-118600552D01*
X99306000Y-118340272D01*
X99306000Y-103753063D01*
X99344193Y-103538805D01*
X99431389Y-103389711D01*
X99599402Y-103251385D01*
X101579314Y-102137685D01*
X101823255Y-102061136D01*
X102024218Y-102083854D01*
X102024218Y-102083854D01*
G37*
X102024218Y-102083854D02*
X102198798Y-102185956D01*
X102317124Y-102349975D01*
X102370000Y-102600116D01*
X102370000Y-120025953D01*
X102326838Y-120253125D01*
X102228952Y-120408124D01*
X102081040Y-120516422D01*
X101903721Y-120562925D01*
X101721698Y-120541155D01*
X101518162Y-120431397D01*
X99533980Y-118819248D01*
X99380472Y-118624032D01*
X99364783Y-118600552D01*
X99306000Y-118340272D01*
X99306000Y-103753063D01*
X99344193Y-103538805D01*
X99431389Y-103389711D01*
X99599402Y-103251385D01*
X101579314Y-102137685D01*
X101823255Y-102061136D01*
X102024218Y-102083854D01*
G36*
X148519084Y-98114992D02*
X148388089Y-99948919D01*
X148338036Y-100152509D01*
X148246712Y-100291713D01*
X148079889Y-100418706D01*
X137466151Y-105956308D01*
X137389874Y-106005384D01*
X137105007Y-106227632D01*
X136984992Y-106362658D01*
X136797697Y-106671631D01*
X136733499Y-106840494D01*
X136668227Y-107195858D01*
X136660000Y-107286185D01*
X136660000Y-112623134D01*
X136332700Y-113413307D01*
X136332700Y-114805693D01*
X136865543Y-116092091D01*
X137850109Y-117076657D01*
X139136507Y-117609500D01*
X140134723Y-117609500D01*
X140173498Y-117637935D01*
X140760919Y-118225356D01*
X141070046Y-118740569D01*
X141150799Y-118963169D01*
X141142083Y-119199796D01*
X140234180Y-123090811D01*
X139800500Y-124137807D01*
X139800500Y-124949438D01*
X139644439Y-125618271D01*
X139535068Y-125851212D01*
X139381022Y-125984250D01*
X139134641Y-126058546D01*
X137786079Y-126170927D01*
X137564753Y-126149343D01*
X137406507Y-126071348D01*
X137285973Y-125942524D01*
X137201129Y-125736963D01*
X136686922Y-123337332D01*
X136645286Y-123218592D01*
X136422089Y-122771943D01*
X136352127Y-122667359D01*
X131716129Y-117335961D01*
X131603277Y-117146326D01*
X131564000Y-116929169D01*
X131564000Y-103692373D01*
X131631090Y-103412776D01*
X131817749Y-103194068D01*
X133346081Y-102082554D01*
X135006913Y-101394614D01*
X136624414Y-99777113D01*
X136671127Y-99664339D01*
X138809030Y-98109500D01*
X147726662Y-98109500D01*
X148497677Y-97956136D01*
X148519084Y-98114992D01*
X148519084Y-98114992D01*
G37*
X148519084Y-98114992D02*
X148388089Y-99948919D01*
X148338036Y-100152509D01*
X148246712Y-100291713D01*
X148079889Y-100418706D01*
X137466151Y-105956308D01*
X137389874Y-106005384D01*
X137105007Y-106227632D01*
X136984992Y-106362658D01*
X136797697Y-106671631D01*
X136733499Y-106840494D01*
X136668227Y-107195858D01*
X136660000Y-107286185D01*
X136660000Y-112623134D01*
X136332700Y-113413307D01*
X136332700Y-114805693D01*
X136865543Y-116092091D01*
X137850109Y-117076657D01*
X139136507Y-117609500D01*
X140134723Y-117609500D01*
X140173498Y-117637935D01*
X140760919Y-118225356D01*
X141070046Y-118740569D01*
X141150799Y-118963169D01*
X141142083Y-119199796D01*
X140234180Y-123090811D01*
X139800500Y-124137807D01*
X139800500Y-124949438D01*
X139644439Y-125618271D01*
X139535068Y-125851212D01*
X139381022Y-125984250D01*
X139134641Y-126058546D01*
X137786079Y-126170927D01*
X137564753Y-126149343D01*
X137406507Y-126071348D01*
X137285973Y-125942524D01*
X137201129Y-125736963D01*
X136686922Y-123337332D01*
X136645286Y-123218592D01*
X136422089Y-122771943D01*
X136352127Y-122667359D01*
X131716129Y-117335961D01*
X131603277Y-117146326D01*
X131564000Y-116929169D01*
X131564000Y-103692373D01*
X131631090Y-103412776D01*
X131817749Y-103194068D01*
X133346081Y-102082554D01*
X135006913Y-101394614D01*
X136624414Y-99777113D01*
X136671127Y-99664339D01*
X138809030Y-98109500D01*
X147726662Y-98109500D01*
X148497677Y-97956136D01*
X148519084Y-98114992D01*
G36*
X180661266Y-99739775D02*
X180869799Y-99828914D01*
X180998668Y-99954383D01*
X181073759Y-100117811D01*
X181085014Y-100297315D01*
X181030927Y-100468846D01*
X180889468Y-100646111D01*
X171436486Y-108824534D01*
X171368938Y-108895707D01*
X171129147Y-109204039D01*
X171041669Y-109378651D01*
X170938285Y-109755321D01*
X170921724Y-109852037D01*
X170832969Y-111094601D01*
X170717709Y-111142343D01*
X169733143Y-112126909D01*
X169200300Y-113413307D01*
X169200300Y-114805693D01*
X169733143Y-116092091D01*
X170717709Y-117076657D01*
X170856536Y-117134161D01*
X170905588Y-117203156D01*
X170982286Y-117288358D01*
X174550931Y-120437161D01*
X174705311Y-120646312D01*
X174760000Y-120900458D01*
X174760000Y-121665705D01*
X174274409Y-121866843D01*
X173289843Y-122851409D01*
X172757000Y-124137807D01*
X172757000Y-125264360D01*
X172156941Y-126014434D01*
X171942420Y-126185102D01*
X171675135Y-126246000D01*
X170768431Y-126246000D01*
X170481233Y-126174899D01*
X170260377Y-125978022D01*
X169806444Y-125314582D01*
X169902038Y-124834000D01*
X169624576Y-123439104D01*
X168834431Y-122256569D01*
X167651896Y-121466424D01*
X167098128Y-121356273D01*
X164206021Y-117129347D01*
X164076000Y-116709064D01*
X164076000Y-102729939D01*
X164113485Y-102517598D01*
X164199153Y-102369423D01*
X164317880Y-102270000D01*
X165557946Y-102270000D01*
X167671313Y-101394614D01*
X169288814Y-99777113D01*
X169496247Y-99276325D01*
X171522837Y-98109500D01*
X173367929Y-98109500D01*
X180661266Y-99739775D01*
X180661266Y-99739775D01*
G37*
X180661266Y-99739775D02*
X180869799Y-99828914D01*
X180998668Y-99954383D01*
X181073759Y-100117811D01*
X181085014Y-100297315D01*
X181030927Y-100468846D01*
X180889468Y-100646111D01*
X171436486Y-108824534D01*
X171368938Y-108895707D01*
X171129147Y-109204039D01*
X171041669Y-109378651D01*
X170938285Y-109755321D01*
X170921724Y-109852037D01*
X170832969Y-111094601D01*
X170717709Y-111142343D01*
X169733143Y-112126909D01*
X169200300Y-113413307D01*
X169200300Y-114805693D01*
X169733143Y-116092091D01*
X170717709Y-117076657D01*
X170856536Y-117134161D01*
X170905588Y-117203156D01*
X170982286Y-117288358D01*
X174550931Y-120437161D01*
X174705311Y-120646312D01*
X174760000Y-120900458D01*
X174760000Y-121665705D01*
X174274409Y-121866843D01*
X173289843Y-122851409D01*
X172757000Y-124137807D01*
X172757000Y-125264360D01*
X172156941Y-126014434D01*
X171942420Y-126185102D01*
X171675135Y-126246000D01*
X170768431Y-126246000D01*
X170481233Y-126174899D01*
X170260377Y-125978022D01*
X169806444Y-125314582D01*
X169902038Y-124834000D01*
X169624576Y-123439104D01*
X168834431Y-122256569D01*
X167651896Y-121466424D01*
X167098128Y-121356273D01*
X164206021Y-117129347D01*
X164076000Y-116709064D01*
X164076000Y-102729939D01*
X164113485Y-102517598D01*
X164199153Y-102369423D01*
X164317880Y-102270000D01*
X165557946Y-102270000D01*
X167671313Y-101394614D01*
X169288814Y-99777113D01*
X169496247Y-99276325D01*
X171522837Y-98109500D01*
X173367929Y-98109500D01*
X180661266Y-99739775D01*
G36*
X215008971Y-99196912D02*
X215079586Y-99402417D01*
X215074964Y-99619671D01*
X215035067Y-99819157D01*
X214947982Y-100033775D01*
X214821277Y-100166657D01*
X214611047Y-100263850D01*
X213361940Y-100576127D01*
X213185542Y-100659458D01*
X213054461Y-100803950D01*
X213005833Y-100939662D01*
X203259486Y-108784282D01*
X203181023Y-108863367D01*
X202906087Y-109210528D01*
X202810466Y-109410238D01*
X202712411Y-109842089D01*
X202700000Y-109952800D01*
X202700000Y-112027652D01*
X202600743Y-112126909D01*
X202067900Y-113413307D01*
X202067900Y-114805693D01*
X202600743Y-116092091D01*
X203585309Y-117076657D01*
X204832982Y-117593459D01*
X207131774Y-120403095D01*
X207235891Y-120587370D01*
X207272000Y-120795929D01*
X207272000Y-121849823D01*
X207230909Y-121866843D01*
X206246343Y-122851409D01*
X205713500Y-124137807D01*
X205713500Y-125387174D01*
X205182928Y-126023860D01*
X204970512Y-126187713D01*
X204708651Y-126246000D01*
X203796920Y-126246000D01*
X203506559Y-126173188D01*
X203284913Y-125971982D01*
X202782179Y-125217882D01*
X202858538Y-124834000D01*
X202581076Y-123439104D01*
X201790931Y-122256569D01*
X200608396Y-121466424D01*
X199565605Y-121259000D01*
X199326586Y-121259000D01*
X196780501Y-118840219D01*
X196638158Y-118635809D01*
X196588000Y-118391827D01*
X196588000Y-102670321D01*
X196653890Y-102393053D01*
X196757522Y-102270000D01*
X198222346Y-102270000D01*
X200335713Y-101394614D01*
X201953214Y-99777113D01*
X202643962Y-98109500D01*
X213461862Y-98109500D01*
X214311017Y-97940593D01*
X215008971Y-99196912D01*
X215008971Y-99196912D01*
G37*
X215008971Y-99196912D02*
X215079586Y-99402417D01*
X215074964Y-99619671D01*
X215035067Y-99819157D01*
X214947982Y-100033775D01*
X214821277Y-100166657D01*
X214611047Y-100263850D01*
X213361940Y-100576127D01*
X213185542Y-100659458D01*
X213054461Y-100803950D01*
X213005833Y-100939662D01*
X203259486Y-108784282D01*
X203181023Y-108863367D01*
X202906087Y-109210528D01*
X202810466Y-109410238D01*
X202712411Y-109842089D01*
X202700000Y-109952800D01*
X202700000Y-112027652D01*
X202600743Y-112126909D01*
X202067900Y-113413307D01*
X202067900Y-114805693D01*
X202600743Y-116092091D01*
X203585309Y-117076657D01*
X204832982Y-117593459D01*
X207131774Y-120403095D01*
X207235891Y-120587370D01*
X207272000Y-120795929D01*
X207272000Y-121849823D01*
X207230909Y-121866843D01*
X206246343Y-122851409D01*
X205713500Y-124137807D01*
X205713500Y-125387174D01*
X205182928Y-126023860D01*
X204970512Y-126187713D01*
X204708651Y-126246000D01*
X203796920Y-126246000D01*
X203506559Y-126173188D01*
X203284913Y-125971982D01*
X202782179Y-125217882D01*
X202858538Y-124834000D01*
X202581076Y-123439104D01*
X201790931Y-122256569D01*
X200608396Y-121466424D01*
X199565605Y-121259000D01*
X199326586Y-121259000D01*
X196780501Y-118840219D01*
X196638158Y-118635809D01*
X196588000Y-118391827D01*
X196588000Y-102670321D01*
X196653890Y-102393053D01*
X196757522Y-102270000D01*
X198222346Y-102270000D01*
X200335713Y-101394614D01*
X201953214Y-99777113D01*
X202643962Y-98109500D01*
X213461862Y-98109500D01*
X214311017Y-97940593D01*
X215008971Y-99196912D01*
G36*
X246432189Y-98219822D02*
X246782450Y-100041178D01*
X246784454Y-100264331D01*
X246723246Y-100430443D01*
X246576930Y-100598943D01*
X245817942Y-101206134D01*
X245815800Y-101207858D01*
X245807258Y-101214769D01*
X245805129Y-101216500D01*
X240009961Y-105958001D01*
X239786720Y-105958001D01*
X238867865Y-106338603D01*
X238164603Y-107041865D01*
X237897707Y-107686208D01*
X237724200Y-107828169D01*
X237659030Y-107892290D01*
X237423882Y-108170359D01*
X237333590Y-108328476D01*
X237213604Y-108672307D01*
X237191499Y-108761019D01*
X236850477Y-110977665D01*
X236452909Y-111142343D01*
X235468343Y-112126909D01*
X234935500Y-113413307D01*
X234935500Y-114805693D01*
X235468343Y-116092091D01*
X236452909Y-117076657D01*
X237481389Y-117502667D01*
X239439938Y-121118451D01*
X239530000Y-121473812D01*
X239530000Y-122524252D01*
X239202843Y-122851409D01*
X238670000Y-124137807D01*
X238670000Y-125530193D01*
X238730826Y-125677039D01*
X238241187Y-126096729D01*
X238052790Y-126207487D01*
X237837672Y-126246000D01*
X236489349Y-126246000D01*
X236227488Y-126187713D01*
X236015069Y-126023858D01*
X235662514Y-125600792D01*
X235815038Y-124834000D01*
X235537576Y-123439104D01*
X234747431Y-122256569D01*
X233564896Y-121466424D01*
X232522105Y-121259000D01*
X230663408Y-121259000D01*
X229713201Y-120477719D01*
X229545431Y-120260950D01*
X229488113Y-119992901D01*
X229724418Y-102270000D01*
X230886746Y-102270000D01*
X233000113Y-101394614D01*
X234617614Y-99777113D01*
X234887280Y-99126082D01*
X236862353Y-98109500D01*
X246329462Y-98109500D01*
X246379174Y-98099612D01*
X246432189Y-98219822D01*
X246432189Y-98219822D01*
G37*
X246432189Y-98219822D02*
X246782450Y-100041178D01*
X246784454Y-100264331D01*
X246723246Y-100430443D01*
X246576930Y-100598943D01*
X245817942Y-101206134D01*
X245815800Y-101207858D01*
X245807258Y-101214769D01*
X245805129Y-101216500D01*
X240009961Y-105958001D01*
X239786720Y-105958001D01*
X238867865Y-106338603D01*
X238164603Y-107041865D01*
X237897707Y-107686208D01*
X237724200Y-107828169D01*
X237659030Y-107892290D01*
X237423882Y-108170359D01*
X237333590Y-108328476D01*
X237213604Y-108672307D01*
X237191499Y-108761019D01*
X236850477Y-110977665D01*
X236452909Y-111142343D01*
X235468343Y-112126909D01*
X234935500Y-113413307D01*
X234935500Y-114805693D01*
X235468343Y-116092091D01*
X236452909Y-117076657D01*
X237481389Y-117502667D01*
X239439938Y-121118451D01*
X239530000Y-121473812D01*
X239530000Y-122524252D01*
X239202843Y-122851409D01*
X238670000Y-124137807D01*
X238670000Y-125530193D01*
X238730826Y-125677039D01*
X238241187Y-126096729D01*
X238052790Y-126207487D01*
X237837672Y-126246000D01*
X236489349Y-126246000D01*
X236227488Y-126187713D01*
X236015069Y-126023858D01*
X235662514Y-125600792D01*
X235815038Y-124834000D01*
X235537576Y-123439104D01*
X234747431Y-122256569D01*
X233564896Y-121466424D01*
X232522105Y-121259000D01*
X230663408Y-121259000D01*
X229713201Y-120477719D01*
X229545431Y-120260950D01*
X229488113Y-119992901D01*
X229724418Y-102270000D01*
X230886746Y-102270000D01*
X233000113Y-101394614D01*
X234617614Y-99777113D01*
X234887280Y-99126082D01*
X236862353Y-98109500D01*
X246329462Y-98109500D01*
X246379174Y-98099612D01*
X246432189Y-98219822D01*
G36*
X62671593Y-124913324D02*
X62872378Y-125047484D01*
X64377554Y-126552660D01*
X64453321Y-126614842D01*
X64777744Y-126831615D01*
X64957986Y-126906273D01*
X65340670Y-126982393D01*
X65438214Y-126992000D01*
X67022753Y-126992000D01*
X67259593Y-127039110D01*
X67418627Y-127145373D01*
X67524890Y-127304407D01*
X67572000Y-127541247D01*
X67572000Y-140629535D01*
X67579969Y-140718449D01*
X67643215Y-141068438D01*
X67705453Y-141235020D01*
X67887192Y-141540739D01*
X68003797Y-141675003D01*
X68281040Y-141897779D01*
X68355342Y-141947261D01*
X68519062Y-142036302D01*
X68660843Y-142378591D01*
X69645409Y-143363157D01*
X70931807Y-143896000D01*
X71938507Y-143896000D01*
X78696845Y-147571587D01*
X78877493Y-147720097D01*
X78966816Y-147882510D01*
X78989541Y-148066468D01*
X78942428Y-148245735D01*
X78832197Y-148394749D01*
X78674565Y-148492261D01*
X78444241Y-148532766D01*
X66984448Y-148350865D01*
X66763601Y-148306409D01*
X66573240Y-148185950D01*
X60388210Y-142459070D01*
X60241716Y-142252949D01*
X60190000Y-142005410D01*
X60190000Y-138954010D01*
X60574500Y-138025746D01*
X60574500Y-135738254D01*
X60190000Y-134809990D01*
X60190000Y-127209460D01*
X60237110Y-126972622D01*
X60371272Y-126771834D01*
X62095622Y-125047484D01*
X62296407Y-124913324D01*
X62484000Y-124876010D01*
X62671593Y-124913324D01*
X62671593Y-124913324D01*
G37*
X62671593Y-124913324D02*
X62872378Y-125047484D01*
X64377554Y-126552660D01*
X64453321Y-126614842D01*
X64777744Y-126831615D01*
X64957986Y-126906273D01*
X65340670Y-126982393D01*
X65438214Y-126992000D01*
X67022753Y-126992000D01*
X67259593Y-127039110D01*
X67418627Y-127145373D01*
X67524890Y-127304407D01*
X67572000Y-127541247D01*
X67572000Y-140629535D01*
X67579969Y-140718449D01*
X67643215Y-141068438D01*
X67705453Y-141235020D01*
X67887192Y-141540739D01*
X68003797Y-141675003D01*
X68281040Y-141897779D01*
X68355342Y-141947261D01*
X68519062Y-142036302D01*
X68660843Y-142378591D01*
X69645409Y-143363157D01*
X70931807Y-143896000D01*
X71938507Y-143896000D01*
X78696845Y-147571587D01*
X78877493Y-147720097D01*
X78966816Y-147882510D01*
X78989541Y-148066468D01*
X78942428Y-148245735D01*
X78832197Y-148394749D01*
X78674565Y-148492261D01*
X78444241Y-148532766D01*
X66984448Y-148350865D01*
X66763601Y-148306409D01*
X66573240Y-148185950D01*
X60388210Y-142459070D01*
X60241716Y-142252949D01*
X60190000Y-142005410D01*
X60190000Y-138954010D01*
X60574500Y-138025746D01*
X60574500Y-135738254D01*
X60190000Y-134809990D01*
X60190000Y-127209460D01*
X60237110Y-126972622D01*
X60371272Y-126771834D01*
X62095622Y-125047484D01*
X62296407Y-124913324D01*
X62484000Y-124876010D01*
X62671593Y-124913324D01*
D33*
X96372310Y-128778000D03*
X163392646Y-148973556D03*
X152273000Y-151384000D03*
X148336000Y-152273000D03*
X163830000Y-151003000D03*
X175260000Y-146557990D03*
X54864000Y-152146000D03*
X80264000Y-125476000D03*
X214630000Y-107950000D03*
X96520000Y-68968000D03*
X96520000Y-62738000D03*
X64262000Y-68968000D03*
X64262000Y-61468000D03*
X226252076Y-124652076D03*
X193486076Y-124906076D03*
X160020000Y-124652076D03*
X96774000Y-121158000D03*
X75692000Y-129794000D03*
X219964000Y-73660000D03*
X128270000Y-68968000D03*
X128524000Y-62738000D03*
X160782000Y-68968000D03*
X160782000Y-61468000D03*
X193141600Y-61529924D03*
X193141600Y-69029924D03*
X216662000Y-69735514D03*
X129286002Y-121158000D03*
X245872000Y-106426000D03*
X228092000Y-88138000D03*
X225044000Y-114300000D03*
X222504000Y-119888000D03*
X217170000Y-119888000D03*
X220980000Y-104902000D03*
X183896000Y-119888000D03*
X186690000Y-105156000D03*
X153416000Y-119888000D03*
X121412000Y-105156000D03*
X120650000Y-120142000D03*
X54102000Y-105156000D03*
X54102000Y-110744000D03*
X59436000Y-110744000D03*
X83820000Y-119380000D03*
X95250000Y-103378000D03*
X62738000Y-148844000D03*
X54864000Y-145288000D03*
X247142000Y-57404000D03*
X181356000Y-76708000D03*
X196850000Y-87122000D03*
X150114000Y-77978000D03*
X164592000Y-86868000D03*
X122174000Y-76454000D03*
X132080000Y-86614000D03*
X89916000Y-79502000D03*
X99568000Y-86106000D03*
X67310000Y-78994000D03*
X84836000Y-75692000D03*
X75184000Y-108204000D03*
X64008000Y-118618000D03*
X155194000Y-105156000D03*
X153416000Y-119888000D03*
X153416000Y-119888000D03*
X186690000Y-105156000D03*
X186690000Y-105156000D03*
X183896000Y-119888000D03*
X183896000Y-119888000D03*
X220980000Y-104902000D03*
X220980000Y-104902000D03*
X217170000Y-119888000D03*
X217170000Y-119888000D03*
X222504000Y-119888000D03*
X222504000Y-119888000D03*
X225044000Y-114300000D03*
X245872000Y-106426000D03*
X245872000Y-106426000D03*
X121412000Y-105156000D03*
X121412000Y-105156000D03*
X120650000Y-120142000D03*
X120650000Y-120142000D03*
X180340000Y-106172000D03*
X75184000Y-120396000D03*
X59182000Y-148590000D03*
X54610000Y-129794000D03*
X56896000Y-129794000D03*
X54102000Y-116586000D03*
X59436000Y-116586000D03*
X58166000Y-101092000D03*
X63500000Y-106172000D03*
X67564000Y-109474000D03*
X71374000Y-109474000D03*
X67564000Y-116586000D03*
X56896000Y-125476000D03*
X59690000Y-121666000D03*
X68072000Y-121666000D03*
X71120000Y-125476000D03*
X71374000Y-129794000D03*
X247904000Y-119888000D03*
X247904000Y-130556000D03*
X247904000Y-142748000D03*
X214884000Y-152908000D03*
X239014000Y-152908000D03*
X74422000Y-42672000D03*
X88138000Y-42672000D03*
X110236000Y-42672000D03*
X129794000Y-42672000D03*
X157226000Y-42672000D03*
X182626000Y-42418000D03*
X215900000Y-42672000D03*
X246380000Y-42672000D03*
X81788000Y-135382000D03*
X95427800Y-133629400D03*
X98769612Y-147263369D03*
X98277597Y-148763431D03*
X107442000Y-109728000D03*
X95758000Y-107950000D03*
X128549400Y-133883400D03*
X128524000Y-129692400D03*
X128549400Y-127685800D03*
X128016000Y-106934000D03*
X140208000Y-107950000D03*
X162306000Y-127635000D03*
X162306000Y-129794000D03*
X161296390Y-133945345D03*
X176276000Y-108712000D03*
X161544008Y-107442000D03*
X187198000Y-127635000D03*
X187198000Y-129794000D03*
X180594000Y-133731000D03*
X208534000Y-109220000D03*
X194056000Y-106934000D03*
X219964000Y-127762000D03*
X219964000Y-129794000D03*
X213487000Y-133858000D03*
X240284001Y-108458001D03*
X226822000Y-106934000D03*
X82219800Y-132486400D03*
X127406400Y-132410200D03*
X160762990Y-132334000D03*
X148463000Y-149987000D03*
X153593800Y-149885400D03*
X148463000Y-148983797D03*
X152565327Y-149034169D03*
X173482000Y-148590000D03*
X175387000Y-149352000D03*
X180200300Y-89109500D03*
X180200300Y-99109500D03*
X172700300Y-94109500D03*
X180200300Y-114109500D03*
X172700300Y-114109500D03*
X180200300Y-94109500D03*
X172700300Y-89109500D03*
X172700300Y-99109500D03*
X55926000Y-85018430D03*
X58676000Y-85018430D03*
X60051000Y-87400000D03*
X58676000Y-89781570D03*
X55926000Y-89781570D03*
X54551000Y-87400000D03*
X57301000Y-87400000D03*
X66421000Y-96520000D03*
X52442930Y-138257000D03*
X52442930Y-135507000D03*
X54824500Y-134132000D03*
X57206070Y-135507000D03*
X57206070Y-138257000D03*
X54824500Y-139632000D03*
X54824500Y-136882000D03*
X63944500Y-127762000D03*
X219248000Y-85018430D03*
X221998000Y-85018430D03*
X223373000Y-87400000D03*
X221998000Y-89781570D03*
X219248000Y-89781570D03*
X217873000Y-87400000D03*
X220623000Y-87400000D03*
X229743000Y-96520000D03*
X186583600Y-85018430D03*
X189333600Y-85018430D03*
X190708600Y-87400000D03*
X189333600Y-89781570D03*
X186583600Y-89781570D03*
X185208600Y-87400000D03*
X187958600Y-87400000D03*
X197078600Y-96520000D03*
X153919200Y-85018430D03*
X156669200Y-85018430D03*
X158044200Y-87400000D03*
X156669200Y-89781570D03*
X153919200Y-89781570D03*
X152544200Y-87400000D03*
X155294200Y-87400000D03*
X164414200Y-96520000D03*
X121254800Y-85018430D03*
X124004800Y-85018430D03*
X125379800Y-87400000D03*
X124004800Y-89781570D03*
X121254800Y-89781570D03*
X119879800Y-87400000D03*
X122629800Y-87400000D03*
X131749800Y-96520000D03*
X88590400Y-85018430D03*
X91340400Y-85018430D03*
X92715400Y-87400000D03*
X91340400Y-89781570D03*
X88590400Y-89781570D03*
X87215400Y-87400000D03*
X89965400Y-87400000D03*
X99085400Y-96520000D03*
X246715000Y-75001570D03*
X243965000Y-75001570D03*
X242590000Y-72620000D03*
X243965000Y-70238430D03*
X246715000Y-70238430D03*
X248090000Y-72620000D03*
X245340000Y-72620000D03*
X236220000Y-63500000D03*
X247056810Y-148812500D03*
X247056810Y-151187500D03*
X245000000Y-152375000D03*
X242943190Y-151187500D03*
X242943190Y-148812500D03*
X245000000Y-147625000D03*
X245000000Y-150000000D03*
X57056810Y-53812500D03*
X57056810Y-56187500D03*
X55000000Y-57375000D03*
X52943190Y-56187500D03*
X52943190Y-53812500D03*
X55000000Y-52625000D03*
X55000000Y-55000000D03*
X242170000Y-132334000D03*
X232170000Y-132334000D03*
X237170000Y-124834000D03*
X217170000Y-132334000D03*
X217170000Y-124834000D03*
X237170000Y-132334000D03*
X242170000Y-124834000D03*
X232170000Y-124834000D03*
X110344000Y-132334000D03*
X100344000Y-132334000D03*
X105344000Y-124834000D03*
X85344000Y-132334000D03*
X85344000Y-124834000D03*
X105344000Y-132334000D03*
X110344000Y-124834000D03*
X100344000Y-124834000D03*
X144380000Y-69029924D03*
X134380000Y-69029924D03*
X139380000Y-61529924D03*
X119380000Y-69029924D03*
X119380000Y-61529924D03*
X139380000Y-69029924D03*
X144380000Y-61529924D03*
X134380000Y-61529924D03*
X209213500Y-132334000D03*
X199213500Y-132334000D03*
X204213500Y-124834000D03*
X184213500Y-132334000D03*
X184213500Y-124834000D03*
X204213500Y-132334000D03*
X209213500Y-124834000D03*
X199213500Y-124834000D03*
X176257000Y-132334000D03*
X166257000Y-132334000D03*
X171257000Y-124834000D03*
X151257000Y-132334000D03*
X151257000Y-124834000D03*
X171257000Y-132334000D03*
X176257000Y-124834000D03*
X166257000Y-124834000D03*
X143300500Y-132334000D03*
X133300500Y-132334000D03*
X138300500Y-124834000D03*
X118300500Y-132334000D03*
X118300500Y-124834000D03*
X138300500Y-132334000D03*
X143300500Y-124834000D03*
X133300500Y-124834000D03*
X71628000Y-145396000D03*
X71628000Y-135396000D03*
X79128000Y-140396000D03*
X71628000Y-120396000D03*
X79128000Y-120396000D03*
X71628000Y-140396000D03*
X79128000Y-145396000D03*
X79128000Y-135396000D03*
X245935500Y-89109500D03*
X245935500Y-99109500D03*
X238435500Y-94109500D03*
X245935500Y-114109500D03*
X238435500Y-114109500D03*
X245935500Y-94109500D03*
X238435500Y-89109500D03*
X238435500Y-99109500D03*
X213067900Y-89109500D03*
X213067900Y-99109500D03*
X205567900Y-94109500D03*
X213067900Y-114109500D03*
X205567900Y-114109500D03*
X213067900Y-94109500D03*
X205567900Y-89109500D03*
X205567900Y-99109500D03*
X147332700Y-89109500D03*
X147332700Y-99109500D03*
X139832700Y-94109500D03*
X147332700Y-114109500D03*
X139832700Y-114109500D03*
X147332700Y-94109500D03*
X139832700Y-89109500D03*
X139832700Y-99109500D03*
X114465100Y-89109500D03*
X114465100Y-99109500D03*
X106965100Y-94109500D03*
X114465100Y-114109500D03*
X106965100Y-114109500D03*
X114465100Y-94109500D03*
X106965100Y-89109500D03*
X106965100Y-99109500D03*
X81597500Y-89109500D03*
X81597500Y-99109500D03*
X74097500Y-94109500D03*
X81597500Y-114109500D03*
X74097500Y-114109500D03*
X81597500Y-94109500D03*
X74097500Y-89109500D03*
X74097500Y-99109500D03*
X223393000Y-53740000D03*
X223393000Y-63740000D03*
X215893000Y-58740000D03*
X223393000Y-78740000D03*
X215893000Y-78740000D03*
X223393000Y-58740000D03*
X215893000Y-53740000D03*
X215893000Y-63740000D03*
X208769000Y-69029924D03*
X198769000Y-69029924D03*
X203769000Y-61529924D03*
X183769000Y-69029924D03*
X183769000Y-61529924D03*
X203769000Y-69029924D03*
X208769000Y-61529924D03*
X198769000Y-61529924D03*
X176574500Y-69029924D03*
X166574500Y-69029924D03*
X171574500Y-61529924D03*
X151574500Y-69029924D03*
X151574500Y-61529924D03*
X171574500Y-69029924D03*
X176574500Y-61529924D03*
X166574500Y-61529924D03*
X112185500Y-69029924D03*
X102185500Y-69029924D03*
X107185500Y-61529924D03*
X87185500Y-69029924D03*
X87185500Y-61529924D03*
X107185500Y-69029924D03*
X112185500Y-61529924D03*
X102185500Y-61529924D03*
X79991000Y-69029924D03*
X69991000Y-69029924D03*
X74991000Y-61529924D03*
X54991000Y-69029924D03*
X54991000Y-61529924D03*
X74991000Y-69029924D03*
X79991000Y-61529924D03*
X69991000Y-61529924D03*
X188163200Y-149860000D03*
X190703200Y-149860000D03*
X193243200Y-149860000D03*
X195783200Y-149860000D03*
X198323200Y-149860000D03*
X200863200Y-149860000D03*
X203403200Y-149860000D03*
X205943200Y-149860000D03*
X121869200Y-149860000D03*
X124409200Y-149860000D03*
X126949200Y-149860000D03*
X129489200Y-149860000D03*
X132029200Y-149860000D03*
X134569200Y-149860000D03*
X137109200Y-149860000D03*
X139649200Y-149860000D03*
X116459000Y-151663400D03*
X116459000Y-149163400D03*
X110236000Y-151663400D03*
X110236000Y-149163400D03*
M02*
