M48
;DRILL file {KiCad (6.0.0-rc1-dev-882-gdbc9130da)} date 2019/8/28 17:07:57
;FORMAT={-:-/ absolute / metric / decimal}
FMAT,2
METRIC
T1C0.400
T2C0.600
T3C0.800
T4C1.200
T5C1.300
T6C3.500
T7C4.400
%
G90
G05
M71
T1
X82.22Y-132.486
X95.428Y-133.629
X98.278Y-148.763
X98.77Y-147.263
X127.406Y-132.41
X128.524Y-129.692
X128.549Y-127.686
X128.549Y-133.883
X148.463Y-148.984
X148.463Y-149.987
X152.565Y-149.034
X153.594Y-149.885
X160.763Y-132.334
X161.296Y-133.945
X162.306Y-127.635
X162.306Y-129.794
X173.482Y-148.59
X175.26Y-146.558
X175.387Y-149.352
X180.594Y-133.731
X187.198Y-127.635
X187.198Y-129.794
X213.487Y-133.858
X219.964Y-127.762
X219.964Y-129.794
X152.544Y-87.4
X153.919Y-85.018
X153.919Y-89.782
X156.669Y-85.018
X156.669Y-89.782
X158.044Y-87.4
X52.443Y-135.507
X52.443Y-138.257
X54.825Y-134.132
X54.825Y-139.632
X57.206Y-135.507
X57.206Y-138.257
X119.88Y-87.4
X121.255Y-85.018
X121.255Y-89.782
X124.005Y-85.018
X124.005Y-89.782
X125.38Y-87.4
X242.943Y-148.812
X242.943Y-151.188
X245.0Y-147.625
X245.0Y-152.375
X247.057Y-148.812
X247.057Y-151.188
X52.943Y-53.812
X52.943Y-56.188
X55.0Y-52.625
X55.0Y-57.375
X57.057Y-53.812
X57.057Y-56.188
X185.209Y-87.4
X186.584Y-85.018
X186.584Y-89.782
X189.334Y-85.018
X189.334Y-89.782
X190.709Y-87.4
X217.873Y-87.4
X219.248Y-85.018
X219.248Y-89.782
X221.998Y-85.018
X221.998Y-89.782
X223.373Y-87.4
X54.551Y-87.4
X55.926Y-85.018
X55.926Y-89.782
X58.676Y-85.018
X58.676Y-89.782
X60.051Y-87.4
X87.215Y-87.4
X88.59Y-85.018
X88.59Y-89.782
X91.34Y-85.018
X91.34Y-89.782
X92.715Y-87.4
X242.59Y-72.62
X243.965Y-70.238
X243.965Y-75.002
X246.715Y-70.238
X246.715Y-75.002
X248.09Y-72.62
T2
X81.788Y-135.382
X95.758Y-107.95
X96.372Y-128.778
X107.442Y-109.728
X128.016Y-106.934
X140.208Y-107.95
X148.336Y-152.273
X152.273Y-151.384
X161.544Y-107.442
X163.393Y-148.974
X163.83Y-151.003
X176.276Y-108.712
X194.056Y-106.934
X208.534Y-109.22
X226.822Y-106.934
X240.284Y-108.458
T3
X54.102Y-105.156
X54.102Y-110.744
X54.102Y-116.586
X54.61Y-129.794
X54.864Y-152.146
X56.896Y-125.476
X56.896Y-129.794
X58.166Y-101.092
X59.182Y-148.59
X59.436Y-110.744
X59.436Y-116.586
X59.69Y-121.666
X62.738Y-148.844
X63.5Y-106.172
X67.564Y-109.474
X67.564Y-116.586
X68.072Y-121.666
X71.12Y-125.476
X71.374Y-109.474
X71.374Y-129.794
X74.422Y-42.672
X75.184Y-120.396
X80.264Y-125.476
X83.82Y-119.38
X88.138Y-42.672
X95.25Y-103.378
X110.236Y-42.672
X120.65Y-120.142
X120.65Y-120.142
X121.412Y-105.156
X121.412Y-105.156
X129.794Y-42.672
X153.416Y-119.888
X153.416Y-119.888
X157.226Y-42.672
X182.626Y-42.418
X183.896Y-119.888
X183.896Y-119.888
X186.69Y-105.156
X186.69Y-105.156
X214.884Y-152.908
X215.9Y-42.672
X217.17Y-119.888
X217.17Y-119.888
X220.98Y-104.902
X220.98Y-104.902
X222.504Y-119.888
X222.504Y-119.888
X225.044Y-114.3
X228.092Y-88.138
X239.014Y-152.908
X245.872Y-106.426
X245.872Y-106.426
X246.38Y-42.672
X247.904Y-119.888
X247.904Y-130.556
X247.904Y-142.748
X116.459Y-149.163
X116.459Y-151.663
X110.236Y-149.163
X110.236Y-151.663
T4
X121.869Y-149.86
X124.409Y-149.86
X126.949Y-149.86
X129.489Y-149.86
X132.029Y-149.86
X134.569Y-149.86
X137.109Y-149.86
X139.649Y-149.86
X188.163Y-149.86
X190.703Y-149.86
X193.243Y-149.86
X195.783Y-149.86
X198.323Y-149.86
X200.863Y-149.86
X203.403Y-149.86
X205.943Y-149.86
T5
X54.864Y-145.288
X64.008Y-118.618
X64.262Y-61.468
X64.262Y-68.968
X67.31Y-78.994
X75.184Y-108.204
X75.692Y-129.794
X84.836Y-75.692
X89.916Y-79.502
X96.52Y-62.738
X96.52Y-68.968
X96.774Y-121.158
X99.568Y-86.106
X120.65Y-120.142
X121.412Y-105.156
X122.174Y-76.454
X128.27Y-68.968
X128.524Y-62.738
X129.286Y-121.158
X132.08Y-86.614
X150.114Y-77.978
X153.416Y-119.888
X155.194Y-105.156
X160.02Y-124.652
X160.782Y-61.468
X160.782Y-68.968
X164.592Y-86.868
X180.34Y-106.172
X181.356Y-76.708
X183.896Y-119.888
X186.69Y-105.156
X193.142Y-61.53
X193.142Y-69.03
X193.486Y-124.906
X196.85Y-87.122
X214.63Y-107.95
X216.662Y-69.736
X217.17Y-119.888
X219.964Y-73.66
X220.98Y-104.902
X222.504Y-119.888
X225.044Y-114.3
X226.252Y-124.652
X245.872Y-106.426
X247.142Y-57.404
X87.185Y-61.53
X87.185Y-69.03
X102.185Y-61.53
X102.185Y-69.03
X107.185Y-61.53
X107.185Y-69.03
X112.185Y-61.53
X112.185Y-69.03
X106.965Y-89.109
X106.965Y-94.109
X106.965Y-99.109
X106.965Y-114.109
X114.465Y-89.109
X114.465Y-94.109
X114.465Y-99.109
X114.465Y-114.109
X74.097Y-89.109
X74.097Y-94.109
X74.097Y-99.109
X74.097Y-114.109
X81.597Y-89.109
X81.597Y-94.109
X81.597Y-99.109
X81.597Y-114.109
X118.3Y-124.834
X118.3Y-132.334
X133.3Y-124.834
X133.3Y-132.334
X138.3Y-124.834
X138.3Y-132.334
X143.3Y-124.834
X143.3Y-132.334
X119.38Y-61.53
X119.38Y-69.03
X134.38Y-61.53
X134.38Y-69.03
X139.38Y-61.53
X139.38Y-69.03
X144.38Y-61.53
X144.38Y-69.03
X238.435Y-89.109
X238.435Y-94.109
X238.435Y-99.109
X238.435Y-114.109
X245.935Y-89.109
X245.935Y-94.109
X245.935Y-99.109
X245.935Y-114.109
X217.17Y-124.834
X217.17Y-132.334
X232.17Y-124.834
X232.17Y-132.334
X237.17Y-124.834
X237.17Y-132.334
X242.17Y-124.834
X242.17Y-132.334
X151.575Y-61.53
X151.575Y-69.03
X166.575Y-61.53
X166.575Y-69.03
X171.575Y-61.53
X171.575Y-69.03
X176.575Y-61.53
X176.575Y-69.03
X172.7Y-89.109
X172.7Y-94.109
X172.7Y-99.109
X172.7Y-114.109
X180.2Y-89.109
X180.2Y-94.109
X180.2Y-99.109
X180.2Y-114.109
X151.257Y-124.834
X151.257Y-132.334
X166.257Y-124.834
X166.257Y-132.334
X171.257Y-124.834
X171.257Y-132.334
X176.257Y-124.834
X176.257Y-132.334
X54.991Y-61.53
X54.991Y-69.03
X69.991Y-61.53
X69.991Y-69.03
X74.991Y-61.53
X74.991Y-69.03
X79.991Y-61.53
X79.991Y-69.03
X215.893Y-53.74
X215.893Y-58.74
X215.893Y-63.74
X215.893Y-78.74
X223.393Y-53.74
X223.393Y-58.74
X223.393Y-63.74
X223.393Y-78.74
X205.568Y-89.109
X205.568Y-94.109
X205.568Y-99.109
X205.568Y-114.109
X213.068Y-89.109
X213.068Y-94.109
X213.068Y-99.109
X213.068Y-114.109
X184.213Y-124.834
X184.213Y-132.334
X199.213Y-124.834
X199.213Y-132.334
X204.213Y-124.834
X204.213Y-132.334
X209.213Y-124.834
X209.213Y-132.334
X139.833Y-89.109
X139.833Y-94.109
X139.833Y-99.109
X139.833Y-114.109
X147.333Y-89.109
X147.333Y-94.109
X147.333Y-99.109
X147.333Y-114.109
X183.769Y-61.53
X183.769Y-69.03
X198.769Y-61.53
X198.769Y-69.03
X203.769Y-61.53
X203.769Y-69.03
X208.769Y-61.53
X208.769Y-69.03
X85.344Y-124.834
X85.344Y-132.334
X100.344Y-124.834
X100.344Y-132.334
X105.344Y-124.834
X105.344Y-132.334
X110.344Y-124.834
X110.344Y-132.334
X71.628Y-120.396
X71.628Y-135.396
X71.628Y-140.396
X71.628Y-145.396
X79.128Y-120.396
X79.128Y-135.396
X79.128Y-140.396
X79.128Y-145.396
T6
X187.959Y-87.4
X220.623Y-87.4
X57.301Y-87.4
X89.965Y-87.4
X245.34Y-72.62
X155.294Y-87.4
X54.825Y-136.882
X122.63Y-87.4
X245.0Y-150.0
X55.0Y-55.0
T7
X164.414Y-96.52
X197.079Y-96.52
X66.421Y-96.52
X236.22Y-63.5
X131.75Y-96.52
X229.743Y-96.52
X99.085Y-96.52
X63.944Y-127.762
T0
M30
