%TF.GenerationSoftware,KiCad,Pcbnew,(6.0.0-rc1-dev-882-gdbc9130da)*%
%TF.CreationDate,2019-08-28T17:07:57+08:00*%
%TF.ProjectId,AntennaSwitch_6x2_RelayBoard,416E74656E6E615377697463685F3678,rev?*%
%TF.SameCoordinates,Original*%
%TF.FileFunction,Legend,Bot*%
%TF.FilePolarity,Positive*%
%FSLAX46Y46*%
G04 Gerber Fmt 4.6, Leading zero omitted, Abs format (unit mm)*
G04 Created by KiCad (PCBNEW (6.0.0-rc1-dev-882-gdbc9130da)) date 2019/8/28 17:07:57*
%MOMM*%
%LPD*%
G01*
G04 APERTURE LIST*
%ADD10C,0.150000*%
%ADD11C,0.120000*%
%ADD12C,0.100000*%
%ADD13C,0.254000*%
G04 APERTURE END LIST*
D10*
X208896976Y-53475380D02*
X209230309Y-52999190D01*
X209468404Y-53475380D02*
X209468404Y-52475380D01*
X209087452Y-52475380D01*
X208992214Y-52523000D01*
X208944595Y-52570619D01*
X208896976Y-52665857D01*
X208896976Y-52808714D01*
X208944595Y-52903952D01*
X208992214Y-52951571D01*
X209087452Y-52999190D01*
X209468404Y-52999190D01*
X208039833Y-53475380D02*
X208039833Y-52951571D01*
X208087452Y-52856333D01*
X208182690Y-52808714D01*
X208373166Y-52808714D01*
X208468404Y-52856333D01*
X208039833Y-53427761D02*
X208135071Y-53475380D01*
X208373166Y-53475380D01*
X208468404Y-53427761D01*
X208516023Y-53332523D01*
X208516023Y-53237285D01*
X208468404Y-53142047D01*
X208373166Y-53094428D01*
X208135071Y-53094428D01*
X208039833Y-53046809D01*
X207706500Y-52808714D02*
X207325547Y-52808714D01*
X207563642Y-52475380D02*
X207563642Y-53332523D01*
X207516023Y-53427761D01*
X207420785Y-53475380D01*
X207325547Y-53475380D01*
X206611261Y-53427761D02*
X206706500Y-53475380D01*
X206896976Y-53475380D01*
X206992214Y-53427761D01*
X207039833Y-53332523D01*
X207039833Y-52951571D01*
X206992214Y-52856333D01*
X206896976Y-52808714D01*
X206706500Y-52808714D01*
X206611261Y-52856333D01*
X206563642Y-52951571D01*
X206563642Y-53046809D01*
X207039833Y-53142047D01*
X205706500Y-53475380D02*
X205706500Y-52475380D01*
X205706500Y-53427761D02*
X205801738Y-53475380D01*
X205992214Y-53475380D01*
X206087452Y-53427761D01*
X206135071Y-53380142D01*
X206182690Y-53284904D01*
X206182690Y-52999190D01*
X206135071Y-52903952D01*
X206087452Y-52856333D01*
X205992214Y-52808714D01*
X205801738Y-52808714D01*
X205706500Y-52856333D01*
X203896976Y-53475380D02*
X204230309Y-52999190D01*
X204468404Y-53475380D02*
X204468404Y-52475380D01*
X204087452Y-52475380D01*
X203992214Y-52523000D01*
X203944595Y-52570619D01*
X203896976Y-52665857D01*
X203896976Y-52808714D01*
X203944595Y-52903952D01*
X203992214Y-52951571D01*
X204087452Y-52999190D01*
X204468404Y-52999190D01*
X203135071Y-52951571D02*
X203468404Y-52951571D01*
X203468404Y-53475380D02*
X203468404Y-52475380D01*
X202992214Y-52475380D01*
X201849357Y-53475380D02*
X201849357Y-52475380D01*
X201468404Y-52475380D01*
X201373166Y-52523000D01*
X201325547Y-52570619D01*
X201277928Y-52665857D01*
X201277928Y-52808714D01*
X201325547Y-52903952D01*
X201373166Y-52951571D01*
X201468404Y-52999190D01*
X201849357Y-52999190D01*
X200706500Y-53475380D02*
X200801738Y-53427761D01*
X200849357Y-53380142D01*
X200896976Y-53284904D01*
X200896976Y-52999190D01*
X200849357Y-52903952D01*
X200801738Y-52856333D01*
X200706500Y-52808714D01*
X200563642Y-52808714D01*
X200468404Y-52856333D01*
X200420785Y-52903952D01*
X200373166Y-52999190D01*
X200373166Y-53284904D01*
X200420785Y-53380142D01*
X200468404Y-53427761D01*
X200563642Y-53475380D01*
X200706500Y-53475380D01*
X200039833Y-52808714D02*
X199849357Y-53475380D01*
X199658880Y-52999190D01*
X199468404Y-53475380D01*
X199277928Y-52808714D01*
X198516023Y-53427761D02*
X198611261Y-53475380D01*
X198801738Y-53475380D01*
X198896976Y-53427761D01*
X198944595Y-53332523D01*
X198944595Y-52951571D01*
X198896976Y-52856333D01*
X198801738Y-52808714D01*
X198611261Y-52808714D01*
X198516023Y-52856333D01*
X198468404Y-52951571D01*
X198468404Y-53046809D01*
X198944595Y-53142047D01*
X198039833Y-53475380D02*
X198039833Y-52808714D01*
X198039833Y-52999190D02*
X197992214Y-52903952D01*
X197944595Y-52856333D01*
X197849357Y-52808714D01*
X197754119Y-52808714D01*
X197420785Y-53380142D02*
X197373166Y-53427761D01*
X197420785Y-53475380D01*
X197468404Y-53427761D01*
X197420785Y-53380142D01*
X197420785Y-53475380D01*
X197420785Y-52856333D02*
X197373166Y-52903952D01*
X197420785Y-52951571D01*
X197468404Y-52903952D01*
X197420785Y-52856333D01*
X197420785Y-52951571D01*
X195658880Y-53475380D02*
X196230309Y-53475380D01*
X195944595Y-53475380D02*
X195944595Y-52475380D01*
X196039833Y-52618238D01*
X196135071Y-52713476D01*
X196230309Y-52761095D01*
X194754119Y-52475380D02*
X195230309Y-52475380D01*
X195277928Y-52951571D01*
X195230309Y-52903952D01*
X195135071Y-52856333D01*
X194896976Y-52856333D01*
X194801738Y-52903952D01*
X194754119Y-52951571D01*
X194706500Y-53046809D01*
X194706500Y-53284904D01*
X194754119Y-53380142D01*
X194801738Y-53427761D01*
X194896976Y-53475380D01*
X195135071Y-53475380D01*
X195230309Y-53427761D01*
X195277928Y-53380142D01*
X194087452Y-52475380D02*
X193992214Y-52475380D01*
X193896976Y-52523000D01*
X193849357Y-52570619D01*
X193801738Y-52665857D01*
X193754119Y-52856333D01*
X193754119Y-53094428D01*
X193801738Y-53284904D01*
X193849357Y-53380142D01*
X193896976Y-53427761D01*
X193992214Y-53475380D01*
X194087452Y-53475380D01*
X194182690Y-53427761D01*
X194230309Y-53380142D01*
X194277928Y-53284904D01*
X194325547Y-53094428D01*
X194325547Y-52856333D01*
X194277928Y-52665857D01*
X194230309Y-52570619D01*
X194182690Y-52523000D01*
X194087452Y-52475380D01*
X193135071Y-52475380D02*
X193039833Y-52475380D01*
X192944595Y-52523000D01*
X192896976Y-52570619D01*
X192849357Y-52665857D01*
X192801738Y-52856333D01*
X192801738Y-53094428D01*
X192849357Y-53284904D01*
X192896976Y-53380142D01*
X192944595Y-53427761D01*
X193039833Y-53475380D01*
X193135071Y-53475380D01*
X193230309Y-53427761D01*
X193277928Y-53380142D01*
X193325547Y-53284904D01*
X193373166Y-53094428D01*
X193373166Y-52856333D01*
X193325547Y-52665857D01*
X193277928Y-52570619D01*
X193230309Y-52523000D01*
X193135071Y-52475380D01*
X192468404Y-52475380D02*
X192230309Y-53475380D01*
X192039833Y-52761095D01*
X191849357Y-53475380D01*
X191611261Y-52475380D01*
X208896976Y-55125380D02*
X209230309Y-54649190D01*
X209468404Y-55125380D02*
X209468404Y-54125380D01*
X209087452Y-54125380D01*
X208992214Y-54173000D01*
X208944595Y-54220619D01*
X208896976Y-54315857D01*
X208896976Y-54458714D01*
X208944595Y-54553952D01*
X208992214Y-54601571D01*
X209087452Y-54649190D01*
X209468404Y-54649190D01*
X208039833Y-55125380D02*
X208039833Y-54601571D01*
X208087452Y-54506333D01*
X208182690Y-54458714D01*
X208373166Y-54458714D01*
X208468404Y-54506333D01*
X208039833Y-55077761D02*
X208135071Y-55125380D01*
X208373166Y-55125380D01*
X208468404Y-55077761D01*
X208516023Y-54982523D01*
X208516023Y-54887285D01*
X208468404Y-54792047D01*
X208373166Y-54744428D01*
X208135071Y-54744428D01*
X208039833Y-54696809D01*
X207706500Y-54458714D02*
X207325547Y-54458714D01*
X207563642Y-54125380D02*
X207563642Y-54982523D01*
X207516023Y-55077761D01*
X207420785Y-55125380D01*
X207325547Y-55125380D01*
X206611261Y-55077761D02*
X206706500Y-55125380D01*
X206896976Y-55125380D01*
X206992214Y-55077761D01*
X207039833Y-54982523D01*
X207039833Y-54601571D01*
X206992214Y-54506333D01*
X206896976Y-54458714D01*
X206706500Y-54458714D01*
X206611261Y-54506333D01*
X206563642Y-54601571D01*
X206563642Y-54696809D01*
X207039833Y-54792047D01*
X205706500Y-55125380D02*
X205706500Y-54125380D01*
X205706500Y-55077761D02*
X205801738Y-55125380D01*
X205992214Y-55125380D01*
X206087452Y-55077761D01*
X206135071Y-55030142D01*
X206182690Y-54934904D01*
X206182690Y-54649190D01*
X206135071Y-54553952D01*
X206087452Y-54506333D01*
X205992214Y-54458714D01*
X205801738Y-54458714D01*
X205706500Y-54506333D01*
X204135071Y-54601571D02*
X204468404Y-54601571D01*
X204468404Y-55125380D02*
X204468404Y-54125380D01*
X203992214Y-54125380D01*
X203611261Y-55125380D02*
X203611261Y-54458714D01*
X203611261Y-54649190D02*
X203563642Y-54553952D01*
X203516023Y-54506333D01*
X203420785Y-54458714D01*
X203325547Y-54458714D01*
X202611261Y-55077761D02*
X202706500Y-55125380D01*
X202896976Y-55125380D01*
X202992214Y-55077761D01*
X203039833Y-54982523D01*
X203039833Y-54601571D01*
X202992214Y-54506333D01*
X202896976Y-54458714D01*
X202706500Y-54458714D01*
X202611261Y-54506333D01*
X202563642Y-54601571D01*
X202563642Y-54696809D01*
X203039833Y-54792047D01*
X201706500Y-54458714D02*
X201706500Y-55458714D01*
X201706500Y-55077761D02*
X201801738Y-55125380D01*
X201992214Y-55125380D01*
X202087452Y-55077761D01*
X202135071Y-55030142D01*
X202182690Y-54934904D01*
X202182690Y-54649190D01*
X202135071Y-54553952D01*
X202087452Y-54506333D01*
X201992214Y-54458714D01*
X201801738Y-54458714D01*
X201706500Y-54506333D01*
X200801738Y-54458714D02*
X200801738Y-55125380D01*
X201230309Y-54458714D02*
X201230309Y-54982523D01*
X201182690Y-55077761D01*
X201087452Y-55125380D01*
X200944595Y-55125380D01*
X200849357Y-55077761D01*
X200801738Y-55030142D01*
X199944595Y-55077761D02*
X200039833Y-55125380D01*
X200230309Y-55125380D01*
X200325547Y-55077761D01*
X200373166Y-54982523D01*
X200373166Y-54601571D01*
X200325547Y-54506333D01*
X200230309Y-54458714D01*
X200039833Y-54458714D01*
X199944595Y-54506333D01*
X199896976Y-54601571D01*
X199896976Y-54696809D01*
X200373166Y-54792047D01*
X199468404Y-54458714D02*
X199468404Y-55125380D01*
X199468404Y-54553952D02*
X199420785Y-54506333D01*
X199325547Y-54458714D01*
X199182690Y-54458714D01*
X199087452Y-54506333D01*
X199039833Y-54601571D01*
X199039833Y-55125380D01*
X198135071Y-55077761D02*
X198230309Y-55125380D01*
X198420785Y-55125380D01*
X198516023Y-55077761D01*
X198563642Y-55030142D01*
X198611261Y-54934904D01*
X198611261Y-54649190D01*
X198563642Y-54553952D01*
X198516023Y-54506333D01*
X198420785Y-54458714D01*
X198230309Y-54458714D01*
X198135071Y-54506333D01*
X197801738Y-54458714D02*
X197563642Y-55125380D01*
X197325547Y-54458714D02*
X197563642Y-55125380D01*
X197658880Y-55363476D01*
X197706500Y-55411095D01*
X197801738Y-55458714D01*
X196944595Y-55030142D02*
X196896976Y-55077761D01*
X196944595Y-55125380D01*
X196992214Y-55077761D01*
X196944595Y-55030142D01*
X196944595Y-55125380D01*
X196944595Y-54506333D02*
X196896976Y-54553952D01*
X196944595Y-54601571D01*
X196992214Y-54553952D01*
X196944595Y-54506333D01*
X196944595Y-54601571D01*
X195182690Y-55125380D02*
X195754119Y-55125380D01*
X195468404Y-55125380D02*
X195468404Y-54125380D01*
X195563642Y-54268238D01*
X195658880Y-54363476D01*
X195754119Y-54411095D01*
X194754119Y-55030142D02*
X194706500Y-55077761D01*
X194754119Y-55125380D01*
X194801738Y-55077761D01*
X194754119Y-55030142D01*
X194754119Y-55125380D01*
X194135071Y-54553952D02*
X194230309Y-54506333D01*
X194277928Y-54458714D01*
X194325547Y-54363476D01*
X194325547Y-54315857D01*
X194277928Y-54220619D01*
X194230309Y-54173000D01*
X194135071Y-54125380D01*
X193944595Y-54125380D01*
X193849357Y-54173000D01*
X193801738Y-54220619D01*
X193754119Y-54315857D01*
X193754119Y-54363476D01*
X193801738Y-54458714D01*
X193849357Y-54506333D01*
X193944595Y-54553952D01*
X194135071Y-54553952D01*
X194230309Y-54601571D01*
X194277928Y-54649190D01*
X194325547Y-54744428D01*
X194325547Y-54934904D01*
X194277928Y-55030142D01*
X194230309Y-55077761D01*
X194135071Y-55125380D01*
X193944595Y-55125380D01*
X193849357Y-55077761D01*
X193801738Y-55030142D01*
X193754119Y-54934904D01*
X193754119Y-54744428D01*
X193801738Y-54649190D01*
X193849357Y-54601571D01*
X193944595Y-54553952D01*
X193325547Y-55125380D02*
X193325547Y-54125380D01*
X192992214Y-54839666D01*
X192658880Y-54125380D01*
X192658880Y-55125380D01*
X192182690Y-55125380D02*
X192182690Y-54125380D01*
X192182690Y-54601571D02*
X191611261Y-54601571D01*
X191611261Y-55125380D02*
X191611261Y-54125380D01*
X191230309Y-54458714D02*
X190706500Y-54458714D01*
X191230309Y-55125380D01*
X190706500Y-55125380D01*
X190325547Y-54744428D02*
X189563642Y-54744428D01*
X189182690Y-54125380D02*
X188563642Y-54125380D01*
X188896976Y-54506333D01*
X188754119Y-54506333D01*
X188658880Y-54553952D01*
X188611261Y-54601571D01*
X188563642Y-54696809D01*
X188563642Y-54934904D01*
X188611261Y-55030142D01*
X188658880Y-55077761D01*
X188754119Y-55125380D01*
X189039833Y-55125380D01*
X189135071Y-55077761D01*
X189182690Y-55030142D01*
X187944595Y-54125380D02*
X187849357Y-54125380D01*
X187754119Y-54173000D01*
X187706500Y-54220619D01*
X187658880Y-54315857D01*
X187611261Y-54506333D01*
X187611261Y-54744428D01*
X187658880Y-54934904D01*
X187706500Y-55030142D01*
X187754119Y-55077761D01*
X187849357Y-55125380D01*
X187944595Y-55125380D01*
X188039833Y-55077761D01*
X188087452Y-55030142D01*
X188135071Y-54934904D01*
X188182690Y-54744428D01*
X188182690Y-54506333D01*
X188135071Y-54315857D01*
X188087452Y-54220619D01*
X188039833Y-54173000D01*
X187944595Y-54125380D01*
X187182690Y-55125380D02*
X187182690Y-54125380D01*
X186849357Y-54839666D01*
X186516023Y-54125380D01*
X186516023Y-55125380D01*
X186039833Y-55125380D02*
X186039833Y-54125380D01*
X186039833Y-54601571D02*
X185468404Y-54601571D01*
X185468404Y-55125380D02*
X185468404Y-54125380D01*
X185087452Y-54458714D02*
X184563642Y-54458714D01*
X185087452Y-55125380D01*
X184563642Y-55125380D01*
X236274285Y-143914571D02*
X236560000Y-143914571D01*
X236702857Y-143986000D01*
X236774285Y-144057428D01*
X236917142Y-144271714D01*
X236988571Y-144557428D01*
X236988571Y-145128857D01*
X236917142Y-145271714D01*
X236845714Y-145343142D01*
X236702857Y-145414571D01*
X236417142Y-145414571D01*
X236274285Y-145343142D01*
X236202857Y-145271714D01*
X236131428Y-145128857D01*
X236131428Y-144771714D01*
X236202857Y-144628857D01*
X236274285Y-144557428D01*
X236417142Y-144486000D01*
X236702857Y-144486000D01*
X236845714Y-144557428D01*
X236917142Y-144628857D01*
X236988571Y-144771714D01*
X235631428Y-145414571D02*
X234845714Y-144414571D01*
X235631428Y-144414571D02*
X234845714Y-145414571D01*
X234345714Y-144057428D02*
X234274285Y-143986000D01*
X234131428Y-143914571D01*
X233774285Y-143914571D01*
X233631428Y-143986000D01*
X233560000Y-144057428D01*
X233488571Y-144200285D01*
X233488571Y-144343142D01*
X233560000Y-144557428D01*
X234417142Y-145414571D01*
X233488571Y-145414571D01*
X231774285Y-144986000D02*
X231060000Y-144986000D01*
X231917142Y-145414571D02*
X231417142Y-143914571D01*
X230917142Y-145414571D01*
X230417142Y-144414571D02*
X230417142Y-145414571D01*
X230417142Y-144557428D02*
X230345714Y-144486000D01*
X230202857Y-144414571D01*
X229988571Y-144414571D01*
X229845714Y-144486000D01*
X229774285Y-144628857D01*
X229774285Y-145414571D01*
X229274285Y-144414571D02*
X228702857Y-144414571D01*
X229060000Y-143914571D02*
X229060000Y-145200285D01*
X228988571Y-145343142D01*
X228845714Y-145414571D01*
X228702857Y-145414571D01*
X227631428Y-145343142D02*
X227774285Y-145414571D01*
X228060000Y-145414571D01*
X228202857Y-145343142D01*
X228274285Y-145200285D01*
X228274285Y-144628857D01*
X228202857Y-144486000D01*
X228060000Y-144414571D01*
X227774285Y-144414571D01*
X227631428Y-144486000D01*
X227560000Y-144628857D01*
X227560000Y-144771714D01*
X228274285Y-144914571D01*
X226917142Y-144414571D02*
X226917142Y-145414571D01*
X226917142Y-144557428D02*
X226845714Y-144486000D01*
X226702857Y-144414571D01*
X226488571Y-144414571D01*
X226345714Y-144486000D01*
X226274285Y-144628857D01*
X226274285Y-145414571D01*
X225560000Y-144414571D02*
X225560000Y-145414571D01*
X225560000Y-144557428D02*
X225488571Y-144486000D01*
X225345714Y-144414571D01*
X225131428Y-144414571D01*
X224988571Y-144486000D01*
X224917142Y-144628857D01*
X224917142Y-145414571D01*
X223560000Y-145414571D02*
X223560000Y-144628857D01*
X223631428Y-144486000D01*
X223774285Y-144414571D01*
X224060000Y-144414571D01*
X224202857Y-144486000D01*
X223560000Y-145343142D02*
X223702857Y-145414571D01*
X224060000Y-145414571D01*
X224202857Y-145343142D01*
X224274285Y-145200285D01*
X224274285Y-145057428D01*
X224202857Y-144914571D01*
X224060000Y-144843142D01*
X223702857Y-144843142D01*
X223560000Y-144771714D01*
X221774285Y-145343142D02*
X221560000Y-145414571D01*
X221202857Y-145414571D01*
X221060000Y-145343142D01*
X220988571Y-145271714D01*
X220917142Y-145128857D01*
X220917142Y-144986000D01*
X220988571Y-144843142D01*
X221060000Y-144771714D01*
X221202857Y-144700285D01*
X221488571Y-144628857D01*
X221631428Y-144557428D01*
X221702857Y-144486000D01*
X221774285Y-144343142D01*
X221774285Y-144200285D01*
X221702857Y-144057428D01*
X221631428Y-143986000D01*
X221488571Y-143914571D01*
X221131428Y-143914571D01*
X220917142Y-143986000D01*
X220417142Y-144414571D02*
X220131428Y-145414571D01*
X219845714Y-144700285D01*
X219560000Y-145414571D01*
X219274285Y-144414571D01*
X218702857Y-145414571D02*
X218702857Y-144414571D01*
X218702857Y-143914571D02*
X218774285Y-143986000D01*
X218702857Y-144057428D01*
X218631428Y-143986000D01*
X218702857Y-143914571D01*
X218702857Y-144057428D01*
X218202857Y-144414571D02*
X217631428Y-144414571D01*
X217988571Y-143914571D02*
X217988571Y-145200285D01*
X217917142Y-145343142D01*
X217774285Y-145414571D01*
X217631428Y-145414571D01*
X216488571Y-145343142D02*
X216631428Y-145414571D01*
X216917142Y-145414571D01*
X217060000Y-145343142D01*
X217131428Y-145271714D01*
X217202857Y-145128857D01*
X217202857Y-144700285D01*
X217131428Y-144557428D01*
X217060000Y-144486000D01*
X216917142Y-144414571D01*
X216631428Y-144414571D01*
X216488571Y-144486000D01*
X215845714Y-145414571D02*
X215845714Y-143914571D01*
X215202857Y-145414571D02*
X215202857Y-144628857D01*
X215274285Y-144486000D01*
X215417142Y-144414571D01*
X215631428Y-144414571D01*
X215774285Y-144486000D01*
X215845714Y-144557428D01*
X236381428Y-147814571D02*
X236881428Y-147100285D01*
X237238571Y-147814571D02*
X237238571Y-146314571D01*
X236667142Y-146314571D01*
X236524285Y-146386000D01*
X236452857Y-146457428D01*
X236381428Y-146600285D01*
X236381428Y-146814571D01*
X236452857Y-146957428D01*
X236524285Y-147028857D01*
X236667142Y-147100285D01*
X237238571Y-147100285D01*
X235167142Y-147743142D02*
X235310000Y-147814571D01*
X235595714Y-147814571D01*
X235738571Y-147743142D01*
X235810000Y-147600285D01*
X235810000Y-147028857D01*
X235738571Y-146886000D01*
X235595714Y-146814571D01*
X235310000Y-146814571D01*
X235167142Y-146886000D01*
X235095714Y-147028857D01*
X235095714Y-147171714D01*
X235810000Y-147314571D01*
X234238571Y-147814571D02*
X234381428Y-147743142D01*
X234452857Y-147600285D01*
X234452857Y-146314571D01*
X233024285Y-147814571D02*
X233024285Y-147028857D01*
X233095714Y-146886000D01*
X233238571Y-146814571D01*
X233524285Y-146814571D01*
X233667142Y-146886000D01*
X233024285Y-147743142D02*
X233167142Y-147814571D01*
X233524285Y-147814571D01*
X233667142Y-147743142D01*
X233738571Y-147600285D01*
X233738571Y-147457428D01*
X233667142Y-147314571D01*
X233524285Y-147243142D01*
X233167142Y-147243142D01*
X233024285Y-147171714D01*
X232452857Y-146814571D02*
X232095714Y-147814571D01*
X231738571Y-146814571D02*
X232095714Y-147814571D01*
X232238571Y-148171714D01*
X232309999Y-148243142D01*
X232452857Y-148314571D01*
X229524285Y-147028857D02*
X229310000Y-147100285D01*
X229238571Y-147171714D01*
X229167142Y-147314571D01*
X229167142Y-147528857D01*
X229238571Y-147671714D01*
X229310000Y-147743142D01*
X229452857Y-147814571D01*
X230024285Y-147814571D01*
X230024285Y-146314571D01*
X229524285Y-146314571D01*
X229381428Y-146386000D01*
X229310000Y-146457428D01*
X229238571Y-146600285D01*
X229238571Y-146743142D01*
X229310000Y-146886000D01*
X229381428Y-146957428D01*
X229524285Y-147028857D01*
X230024285Y-147028857D01*
X228310000Y-147814571D02*
X228452857Y-147743142D01*
X228524285Y-147671714D01*
X228595714Y-147528857D01*
X228595714Y-147100285D01*
X228524285Y-146957428D01*
X228452857Y-146886000D01*
X228310000Y-146814571D01*
X228095714Y-146814571D01*
X227952857Y-146886000D01*
X227881428Y-146957428D01*
X227810000Y-147100285D01*
X227810000Y-147528857D01*
X227881428Y-147671714D01*
X227952857Y-147743142D01*
X228095714Y-147814571D01*
X228310000Y-147814571D01*
X226524285Y-147814571D02*
X226524285Y-147028857D01*
X226595714Y-146886000D01*
X226738571Y-146814571D01*
X227024285Y-146814571D01*
X227167142Y-146886000D01*
X226524285Y-147743142D02*
X226667142Y-147814571D01*
X227024285Y-147814571D01*
X227167142Y-147743142D01*
X227238571Y-147600285D01*
X227238571Y-147457428D01*
X227167142Y-147314571D01*
X227024285Y-147243142D01*
X226667142Y-147243142D01*
X226524285Y-147171714D01*
X225810000Y-147814571D02*
X225810000Y-146814571D01*
X225810000Y-147100285D02*
X225738571Y-146957428D01*
X225667142Y-146886000D01*
X225524285Y-146814571D01*
X225381428Y-146814571D01*
X224238571Y-147814571D02*
X224238571Y-146314571D01*
X224238571Y-147743142D02*
X224381428Y-147814571D01*
X224667142Y-147814571D01*
X224810000Y-147743142D01*
X224881428Y-147671714D01*
X224952857Y-147528857D01*
X224952857Y-147100285D01*
X224881428Y-146957428D01*
X224810000Y-146886000D01*
X224667142Y-146814571D01*
X224381428Y-146814571D01*
X224238571Y-146886000D01*
X222595714Y-146314571D02*
X222095714Y-147814571D01*
X221595714Y-146314571D01*
X220524285Y-147743142D02*
X220667142Y-147814571D01*
X220952857Y-147814571D01*
X221095714Y-147743142D01*
X221167142Y-147600285D01*
X221167142Y-147028857D01*
X221095714Y-146886000D01*
X220952857Y-146814571D01*
X220667142Y-146814571D01*
X220524285Y-146886000D01*
X220452857Y-147028857D01*
X220452857Y-147171714D01*
X221167142Y-147314571D01*
X219810000Y-147814571D02*
X219810000Y-146814571D01*
X219810000Y-147100285D02*
X219738571Y-146957428D01*
X219667142Y-146886000D01*
X219524285Y-146814571D01*
X219381428Y-146814571D01*
X217452857Y-146314571D02*
X217310000Y-146314571D01*
X217167142Y-146386000D01*
X217095714Y-146457428D01*
X217024285Y-146600285D01*
X216952857Y-146886000D01*
X216952857Y-147243142D01*
X217024285Y-147528857D01*
X217095714Y-147671714D01*
X217167142Y-147743142D01*
X217310000Y-147814571D01*
X217452857Y-147814571D01*
X217595714Y-147743142D01*
X217667142Y-147671714D01*
X217738571Y-147528857D01*
X217810000Y-147243142D01*
X217810000Y-146886000D01*
X217738571Y-146600285D01*
X217667142Y-146457428D01*
X217595714Y-146386000D01*
X217452857Y-146314571D01*
X216310000Y-147671714D02*
X216238571Y-147743142D01*
X216310000Y-147814571D01*
X216381428Y-147743142D01*
X216310000Y-147671714D01*
X216310000Y-147814571D01*
X214810000Y-147814571D02*
X215667142Y-147814571D01*
X215238571Y-147814571D02*
X215238571Y-146314571D01*
X215381428Y-146528857D01*
X215524285Y-146671714D01*
X215667142Y-146743142D01*
X237845714Y-149428857D02*
X237631428Y-149500285D01*
X237560000Y-149571714D01*
X237488571Y-149714571D01*
X237488571Y-149928857D01*
X237560000Y-150071714D01*
X237631428Y-150143142D01*
X237774285Y-150214571D01*
X238345714Y-150214571D01*
X238345714Y-148714571D01*
X237845714Y-148714571D01*
X237702857Y-148786000D01*
X237631428Y-148857428D01*
X237560000Y-149000285D01*
X237560000Y-149143142D01*
X237631428Y-149286000D01*
X237702857Y-149357428D01*
X237845714Y-149428857D01*
X238345714Y-149428857D01*
X236988571Y-149214571D02*
X236631428Y-150214571D01*
X236274285Y-149214571D02*
X236631428Y-150214571D01*
X236774285Y-150571714D01*
X236845714Y-150643142D01*
X236988571Y-150714571D01*
X233845714Y-150214571D02*
X234560000Y-150214571D01*
X234560000Y-148714571D01*
X232702857Y-149214571D02*
X232702857Y-150214571D01*
X233345714Y-149214571D02*
X233345714Y-150000285D01*
X233274285Y-150143142D01*
X233131428Y-150214571D01*
X232917142Y-150214571D01*
X232774285Y-150143142D01*
X232702857Y-150071714D01*
X231917142Y-150143142D02*
X231917142Y-150214571D01*
X231988571Y-150357428D01*
X232060000Y-150428857D01*
X230274285Y-148714571D02*
X229274285Y-148714571D01*
X230274285Y-150214571D01*
X229274285Y-150214571D01*
X228131428Y-150143142D02*
X228274285Y-150214571D01*
X228560000Y-150214571D01*
X228702857Y-150143142D01*
X228774285Y-150000285D01*
X228774285Y-149428857D01*
X228702857Y-149286000D01*
X228560000Y-149214571D01*
X228274285Y-149214571D01*
X228131428Y-149286000D01*
X228060000Y-149428857D01*
X228060000Y-149571714D01*
X228774285Y-149714571D01*
X227417142Y-149214571D02*
X227417142Y-150214571D01*
X227417142Y-149357428D02*
X227345714Y-149286000D01*
X227202857Y-149214571D01*
X226988571Y-149214571D01*
X226845714Y-149286000D01*
X226774285Y-149428857D01*
X226774285Y-150214571D01*
X226060000Y-150214571D02*
X226060000Y-149214571D01*
X226060000Y-148714571D02*
X226131428Y-148786000D01*
X226060000Y-148857428D01*
X225988571Y-148786000D01*
X226060000Y-148714571D01*
X226060000Y-148857428D01*
X225345714Y-149214571D02*
X225345714Y-150214571D01*
X225345714Y-149357428D02*
X225274285Y-149286000D01*
X225131428Y-149214571D01*
X224917142Y-149214571D01*
X224774285Y-149286000D01*
X224702857Y-149428857D01*
X224702857Y-150214571D01*
X223345714Y-149214571D02*
X223345714Y-150428857D01*
X223417142Y-150571714D01*
X223488571Y-150643142D01*
X223631428Y-150714571D01*
X223845714Y-150714571D01*
X223988571Y-150643142D01*
X223345714Y-150143142D02*
X223488571Y-150214571D01*
X223774285Y-150214571D01*
X223917142Y-150143142D01*
X223988571Y-150071714D01*
X224060000Y-149928857D01*
X224060000Y-149500285D01*
X223988571Y-149357428D01*
X223917142Y-149286000D01*
X223774285Y-149214571D01*
X223488571Y-149214571D01*
X223345714Y-149286000D01*
X220988571Y-149428857D02*
X220774285Y-149500285D01*
X220702857Y-149571714D01*
X220631428Y-149714571D01*
X220631428Y-149928857D01*
X220702857Y-150071714D01*
X220774285Y-150143142D01*
X220917142Y-150214571D01*
X221488571Y-150214571D01*
X221488571Y-148714571D01*
X220988571Y-148714571D01*
X220845714Y-148786000D01*
X220774285Y-148857428D01*
X220702857Y-149000285D01*
X220702857Y-149143142D01*
X220774285Y-149286000D01*
X220845714Y-149357428D01*
X220988571Y-149428857D01*
X221488571Y-149428857D01*
X219988571Y-150214571D02*
X219988571Y-148714571D01*
X218631428Y-149214571D02*
X218631428Y-150214571D01*
X218988571Y-148643142D02*
X219345714Y-149714571D01*
X218417142Y-149714571D01*
X217988571Y-148714571D02*
X217631428Y-150214571D01*
X217345714Y-149143142D01*
X217060000Y-150214571D01*
X216702857Y-148714571D01*
X215845714Y-148714571D02*
X215560000Y-148714571D01*
X215417142Y-148786000D01*
X215274285Y-148928857D01*
X215202857Y-149214571D01*
X215202857Y-149714571D01*
X215274285Y-150000285D01*
X215417142Y-150143142D01*
X215560000Y-150214571D01*
X215845714Y-150214571D01*
X215988571Y-150143142D01*
X216131428Y-150000285D01*
X216202857Y-149714571D01*
X216202857Y-149214571D01*
X216131428Y-148928857D01*
X215988571Y-148786000D01*
X215845714Y-148714571D01*
X214560000Y-150214571D02*
X214560000Y-148714571D01*
X213988571Y-148714571D01*
X213845714Y-148786000D01*
X213774285Y-148857428D01*
X213702857Y-149000285D01*
X213702857Y-149214571D01*
X213774285Y-149357428D01*
X213845714Y-149428857D01*
X213988571Y-149500285D01*
X214560000Y-149500285D01*
X232881428Y-152614571D02*
X232881428Y-151114571D01*
X232381428Y-152186000D01*
X231881428Y-151114571D01*
X231881428Y-152614571D01*
X230524285Y-152614571D02*
X230524285Y-151828857D01*
X230595714Y-151686000D01*
X230738571Y-151614571D01*
X231024285Y-151614571D01*
X231167142Y-151686000D01*
X230524285Y-152543142D02*
X230667142Y-152614571D01*
X231024285Y-152614571D01*
X231167142Y-152543142D01*
X231238571Y-152400285D01*
X231238571Y-152257428D01*
X231167142Y-152114571D01*
X231024285Y-152043142D01*
X230667142Y-152043142D01*
X230524285Y-151971714D01*
X229952857Y-151614571D02*
X229595714Y-152614571D01*
X229238571Y-151614571D02*
X229595714Y-152614571D01*
X229738571Y-152971714D01*
X229810000Y-153043142D01*
X229952857Y-153114571D01*
X226738571Y-152614571D02*
X227595714Y-152614571D01*
X227167142Y-152614571D02*
X227167142Y-151114571D01*
X227310000Y-151328857D01*
X227452857Y-151471714D01*
X227595714Y-151543142D01*
X226024285Y-152543142D02*
X226024285Y-152614571D01*
X226095714Y-152757428D01*
X226167142Y-152828857D01*
X224310000Y-151257428D02*
X224238571Y-151186000D01*
X224095714Y-151114571D01*
X223738571Y-151114571D01*
X223595714Y-151186000D01*
X223524285Y-151257428D01*
X223452857Y-151400285D01*
X223452857Y-151543142D01*
X223524285Y-151757428D01*
X224381428Y-152614571D01*
X223452857Y-152614571D01*
X222524285Y-151114571D02*
X222381428Y-151114571D01*
X222238571Y-151186000D01*
X222167142Y-151257428D01*
X222095714Y-151400285D01*
X222024285Y-151686000D01*
X222024285Y-152043142D01*
X222095714Y-152328857D01*
X222167142Y-152471714D01*
X222238571Y-152543142D01*
X222381428Y-152614571D01*
X222524285Y-152614571D01*
X222667142Y-152543142D01*
X222738571Y-152471714D01*
X222810000Y-152328857D01*
X222881428Y-152043142D01*
X222881428Y-151686000D01*
X222810000Y-151400285D01*
X222738571Y-151257428D01*
X222667142Y-151186000D01*
X222524285Y-151114571D01*
X220595714Y-152614571D02*
X221452857Y-152614571D01*
X221024285Y-152614571D02*
X221024285Y-151114571D01*
X221167142Y-151328857D01*
X221310000Y-151471714D01*
X221452857Y-151543142D01*
X219881428Y-152614571D02*
X219595714Y-152614571D01*
X219452857Y-152543142D01*
X219381428Y-152471714D01*
X219238571Y-152257428D01*
X219167142Y-151971714D01*
X219167142Y-151400285D01*
X219238571Y-151257428D01*
X219310000Y-151186000D01*
X219452857Y-151114571D01*
X219738571Y-151114571D01*
X219881428Y-151186000D01*
X219952857Y-151257428D01*
X220024285Y-151400285D01*
X220024285Y-151757428D01*
X219952857Y-151900285D01*
X219881428Y-151971714D01*
X219738571Y-152043142D01*
X219452857Y-152043142D01*
X219310000Y-151971714D01*
X219238571Y-151900285D01*
X219167142Y-151757428D01*
X139255047Y-144407380D02*
X139255047Y-143407380D01*
X138778857Y-143740714D02*
X138778857Y-144407380D01*
X138778857Y-143835952D02*
X138731238Y-143788333D01*
X138636000Y-143740714D01*
X138493142Y-143740714D01*
X138397904Y-143788333D01*
X138350285Y-143883571D01*
X138350285Y-144407380D01*
X137874095Y-143740714D02*
X137874095Y-144740714D01*
X137874095Y-143788333D02*
X137778857Y-143740714D01*
X137588380Y-143740714D01*
X137493142Y-143788333D01*
X137445523Y-143835952D01*
X137397904Y-143931190D01*
X137397904Y-144216904D01*
X137445523Y-144312142D01*
X137493142Y-144359761D01*
X137588380Y-144407380D01*
X137778857Y-144407380D01*
X137874095Y-144359761D01*
X136540761Y-143740714D02*
X136540761Y-144407380D01*
X136969333Y-143740714D02*
X136969333Y-144264523D01*
X136921714Y-144359761D01*
X136826476Y-144407380D01*
X136683619Y-144407380D01*
X136588380Y-144359761D01*
X136540761Y-144312142D01*
X136207428Y-143740714D02*
X135826476Y-143740714D01*
X136064571Y-143407380D02*
X136064571Y-144264523D01*
X136016952Y-144359761D01*
X135921714Y-144407380D01*
X135826476Y-144407380D01*
X135540761Y-144359761D02*
X135445523Y-144407380D01*
X135255047Y-144407380D01*
X135159809Y-144359761D01*
X135112190Y-144264523D01*
X135112190Y-144216904D01*
X135159809Y-144121666D01*
X135255047Y-144074047D01*
X135397904Y-144074047D01*
X135493142Y-144026428D01*
X135540761Y-143931190D01*
X135540761Y-143883571D01*
X135493142Y-143788333D01*
X135397904Y-143740714D01*
X135255047Y-143740714D01*
X135159809Y-143788333D01*
X133493142Y-144407380D02*
X133493142Y-143883571D01*
X133540761Y-143788333D01*
X133636000Y-143740714D01*
X133826476Y-143740714D01*
X133921714Y-143788333D01*
X133493142Y-144359761D02*
X133588380Y-144407380D01*
X133826476Y-144407380D01*
X133921714Y-144359761D01*
X133969333Y-144264523D01*
X133969333Y-144169285D01*
X133921714Y-144074047D01*
X133826476Y-144026428D01*
X133588380Y-144026428D01*
X133493142Y-143978809D01*
X133016952Y-144407380D02*
X133016952Y-143740714D01*
X133016952Y-143931190D02*
X132969333Y-143835952D01*
X132921714Y-143788333D01*
X132826476Y-143740714D01*
X132731238Y-143740714D01*
X132016952Y-144359761D02*
X132112190Y-144407380D01*
X132302666Y-144407380D01*
X132397904Y-144359761D01*
X132445523Y-144264523D01*
X132445523Y-143883571D01*
X132397904Y-143788333D01*
X132302666Y-143740714D01*
X132112190Y-143740714D01*
X132016952Y-143788333D01*
X131969333Y-143883571D01*
X131969333Y-143978809D01*
X132445523Y-144074047D01*
X139993142Y-146057380D02*
X140469333Y-146057380D01*
X140469333Y-145057380D01*
X139469333Y-145057380D02*
X139278857Y-145057380D01*
X139183619Y-145105000D01*
X139088380Y-145200238D01*
X139040761Y-145390714D01*
X139040761Y-145724047D01*
X139088380Y-145914523D01*
X139183619Y-146009761D01*
X139278857Y-146057380D01*
X139469333Y-146057380D01*
X139564571Y-146009761D01*
X139659809Y-145914523D01*
X139707428Y-145724047D01*
X139707428Y-145390714D01*
X139659809Y-145200238D01*
X139564571Y-145105000D01*
X139469333Y-145057380D01*
X138707428Y-145057380D02*
X138469333Y-146057380D01*
X138278857Y-145343095D01*
X138088380Y-146057380D01*
X137850285Y-145057380D01*
X136326476Y-146009761D02*
X136421714Y-146057380D01*
X136612190Y-146057380D01*
X136707428Y-146009761D01*
X136755047Y-145914523D01*
X136755047Y-145533571D01*
X136707428Y-145438333D01*
X136612190Y-145390714D01*
X136421714Y-145390714D01*
X136326476Y-145438333D01*
X136278857Y-145533571D01*
X136278857Y-145628809D01*
X136755047Y-145724047D01*
X135993142Y-145390714D02*
X135612190Y-145390714D01*
X135850285Y-146057380D02*
X135850285Y-145200238D01*
X135802666Y-145105000D01*
X135707428Y-145057380D01*
X135612190Y-145057380D01*
X135421714Y-145390714D02*
X135040761Y-145390714D01*
X135278857Y-146057380D02*
X135278857Y-145200238D01*
X135231238Y-145105000D01*
X135136000Y-145057380D01*
X135040761Y-145057380D01*
X134326476Y-146009761D02*
X134421714Y-146057380D01*
X134612190Y-146057380D01*
X134707428Y-146009761D01*
X134755047Y-145914523D01*
X134755047Y-145533571D01*
X134707428Y-145438333D01*
X134612190Y-145390714D01*
X134421714Y-145390714D01*
X134326476Y-145438333D01*
X134278857Y-145533571D01*
X134278857Y-145628809D01*
X134755047Y-145724047D01*
X133421714Y-146009761D02*
X133516952Y-146057380D01*
X133707428Y-146057380D01*
X133802666Y-146009761D01*
X133850285Y-145962142D01*
X133897904Y-145866904D01*
X133897904Y-145581190D01*
X133850285Y-145485952D01*
X133802666Y-145438333D01*
X133707428Y-145390714D01*
X133516952Y-145390714D01*
X133421714Y-145438333D01*
X133136000Y-145390714D02*
X132755047Y-145390714D01*
X132993142Y-145057380D02*
X132993142Y-145914523D01*
X132945523Y-146009761D01*
X132850285Y-146057380D01*
X132755047Y-146057380D01*
X132421714Y-146057380D02*
X132421714Y-145390714D01*
X132421714Y-145057380D02*
X132469333Y-145105000D01*
X132421714Y-145152619D01*
X132374095Y-145105000D01*
X132421714Y-145057380D01*
X132421714Y-145152619D01*
X132040761Y-145390714D02*
X131802666Y-146057380D01*
X131564571Y-145390714D01*
X130802666Y-146009761D02*
X130897904Y-146057380D01*
X131088380Y-146057380D01*
X131183619Y-146009761D01*
X131231238Y-145914523D01*
X131231238Y-145533571D01*
X131183619Y-145438333D01*
X131088380Y-145390714D01*
X130897904Y-145390714D01*
X130802666Y-145438333D01*
X130755047Y-145533571D01*
X130755047Y-145628809D01*
X131231238Y-145724047D01*
X201064761Y-141541809D02*
X201112380Y-141684666D01*
X201112380Y-141922761D01*
X201064761Y-142018000D01*
X201017142Y-142065619D01*
X200921904Y-142113238D01*
X200826666Y-142113238D01*
X200731428Y-142065619D01*
X200683809Y-142018000D01*
X200636190Y-141922761D01*
X200588571Y-141732285D01*
X200540952Y-141637047D01*
X200493333Y-141589428D01*
X200398095Y-141541809D01*
X200302857Y-141541809D01*
X200207619Y-141589428D01*
X200160000Y-141637047D01*
X200112380Y-141732285D01*
X200112380Y-141970380D01*
X200160000Y-142113238D01*
X200588571Y-142541809D02*
X200588571Y-142875142D01*
X201112380Y-143018000D02*
X201112380Y-142541809D01*
X200112380Y-142541809D01*
X200112380Y-143018000D01*
X201112380Y-143922761D02*
X201112380Y-143446571D01*
X200112380Y-143446571D01*
X200207619Y-144208476D02*
X200160000Y-144256095D01*
X200112380Y-144351333D01*
X200112380Y-144589428D01*
X200160000Y-144684666D01*
X200207619Y-144732285D01*
X200302857Y-144779904D01*
X200398095Y-144779904D01*
X200540952Y-144732285D01*
X201112380Y-144160857D01*
X201112380Y-144779904D01*
X201207619Y-144970380D02*
X201207619Y-145732285D01*
X200112380Y-146398952D02*
X200112380Y-146208476D01*
X200160000Y-146113238D01*
X200207619Y-146065619D01*
X200350476Y-145970380D01*
X200540952Y-145922761D01*
X200921904Y-145922761D01*
X201017142Y-145970380D01*
X201064761Y-146018000D01*
X201112380Y-146113238D01*
X201112380Y-146303714D01*
X201064761Y-146398952D01*
X201017142Y-146446571D01*
X200921904Y-146494190D01*
X200683809Y-146494190D01*
X200588571Y-146446571D01*
X200540952Y-146398952D01*
X200493333Y-146303714D01*
X200493333Y-146113238D01*
X200540952Y-146018000D01*
X200588571Y-145970380D01*
X200683809Y-145922761D01*
X198524761Y-141541809D02*
X198572380Y-141684666D01*
X198572380Y-141922761D01*
X198524761Y-142018000D01*
X198477142Y-142065619D01*
X198381904Y-142113238D01*
X198286666Y-142113238D01*
X198191428Y-142065619D01*
X198143809Y-142018000D01*
X198096190Y-141922761D01*
X198048571Y-141732285D01*
X198000952Y-141637047D01*
X197953333Y-141589428D01*
X197858095Y-141541809D01*
X197762857Y-141541809D01*
X197667619Y-141589428D01*
X197620000Y-141637047D01*
X197572380Y-141732285D01*
X197572380Y-141970380D01*
X197620000Y-142113238D01*
X198048571Y-142541809D02*
X198048571Y-142875142D01*
X198572380Y-143018000D02*
X198572380Y-142541809D01*
X197572380Y-142541809D01*
X197572380Y-143018000D01*
X198572380Y-143922761D02*
X198572380Y-143446571D01*
X197572380Y-143446571D01*
X198572380Y-144779904D02*
X198572380Y-144208476D01*
X198572380Y-144494190D02*
X197572380Y-144494190D01*
X197715238Y-144398952D01*
X197810476Y-144303714D01*
X197858095Y-144208476D01*
X198667619Y-144970380D02*
X198667619Y-145732285D01*
X197572380Y-146398952D02*
X197572380Y-146208476D01*
X197620000Y-146113238D01*
X197667619Y-146065619D01*
X197810476Y-145970380D01*
X198000952Y-145922761D01*
X198381904Y-145922761D01*
X198477142Y-145970380D01*
X198524761Y-146018000D01*
X198572380Y-146113238D01*
X198572380Y-146303714D01*
X198524761Y-146398952D01*
X198477142Y-146446571D01*
X198381904Y-146494190D01*
X198143809Y-146494190D01*
X198048571Y-146446571D01*
X198000952Y-146398952D01*
X197953333Y-146303714D01*
X197953333Y-146113238D01*
X198000952Y-146018000D01*
X198048571Y-145970380D01*
X198143809Y-145922761D01*
X129436761Y-141541809D02*
X129484380Y-141684666D01*
X129484380Y-141922761D01*
X129436761Y-142018000D01*
X129389142Y-142065619D01*
X129293904Y-142113238D01*
X129198666Y-142113238D01*
X129103428Y-142065619D01*
X129055809Y-142018000D01*
X129008190Y-141922761D01*
X128960571Y-141732285D01*
X128912952Y-141637047D01*
X128865333Y-141589428D01*
X128770095Y-141541809D01*
X128674857Y-141541809D01*
X128579619Y-141589428D01*
X128532000Y-141637047D01*
X128484380Y-141732285D01*
X128484380Y-141970380D01*
X128532000Y-142113238D01*
X128960571Y-142541809D02*
X128960571Y-142875142D01*
X129484380Y-143018000D02*
X129484380Y-142541809D01*
X128484380Y-142541809D01*
X128484380Y-143018000D01*
X129484380Y-143922761D02*
X129484380Y-143446571D01*
X128484380Y-143446571D01*
X128579619Y-144208476D02*
X128532000Y-144256095D01*
X128484380Y-144351333D01*
X128484380Y-144589428D01*
X128532000Y-144684666D01*
X128579619Y-144732285D01*
X128674857Y-144779904D01*
X128770095Y-144779904D01*
X128912952Y-144732285D01*
X129484380Y-144160857D01*
X129484380Y-144779904D01*
X129579619Y-144970380D02*
X129579619Y-145732285D01*
X129484380Y-146494190D02*
X129484380Y-145922761D01*
X129484380Y-146208476D02*
X128484380Y-146208476D01*
X128627238Y-146113238D01*
X128722476Y-146018000D01*
X128770095Y-145922761D01*
X127150761Y-141541809D02*
X127198380Y-141684666D01*
X127198380Y-141922761D01*
X127150761Y-142018000D01*
X127103142Y-142065619D01*
X127007904Y-142113238D01*
X126912666Y-142113238D01*
X126817428Y-142065619D01*
X126769809Y-142018000D01*
X126722190Y-141922761D01*
X126674571Y-141732285D01*
X126626952Y-141637047D01*
X126579333Y-141589428D01*
X126484095Y-141541809D01*
X126388857Y-141541809D01*
X126293619Y-141589428D01*
X126246000Y-141637047D01*
X126198380Y-141732285D01*
X126198380Y-141970380D01*
X126246000Y-142113238D01*
X126674571Y-142541809D02*
X126674571Y-142875142D01*
X127198380Y-143018000D02*
X127198380Y-142541809D01*
X126198380Y-142541809D01*
X126198380Y-143018000D01*
X127198380Y-143922761D02*
X127198380Y-143446571D01*
X126198380Y-143446571D01*
X127198380Y-144779904D02*
X127198380Y-144208476D01*
X127198380Y-144494190D02*
X126198380Y-144494190D01*
X126341238Y-144398952D01*
X126436476Y-144303714D01*
X126484095Y-144208476D01*
X127293619Y-144970380D02*
X127293619Y-145732285D01*
X127198380Y-146494190D02*
X127198380Y-145922761D01*
X127198380Y-146208476D02*
X126198380Y-146208476D01*
X126341238Y-146113238D01*
X126436476Y-146018000D01*
X126484095Y-145922761D01*
X123912380Y-143557809D02*
X123912380Y-144176857D01*
X124293333Y-143843523D01*
X124293333Y-143986380D01*
X124340952Y-144081619D01*
X124388571Y-144129238D01*
X124483809Y-144176857D01*
X124721904Y-144176857D01*
X124817142Y-144129238D01*
X124864761Y-144081619D01*
X124912380Y-143986380D01*
X124912380Y-143700666D01*
X124864761Y-143605428D01*
X124817142Y-143557809D01*
X124817142Y-144605428D02*
X124864761Y-144653047D01*
X124912380Y-144605428D01*
X124864761Y-144557809D01*
X124817142Y-144605428D01*
X124912380Y-144605428D01*
X123912380Y-144986380D02*
X123912380Y-145605428D01*
X124293333Y-145272095D01*
X124293333Y-145414952D01*
X124340952Y-145510190D01*
X124388571Y-145557809D01*
X124483809Y-145605428D01*
X124721904Y-145605428D01*
X124817142Y-145557809D01*
X124864761Y-145510190D01*
X124912380Y-145414952D01*
X124912380Y-145129238D01*
X124864761Y-145034000D01*
X124817142Y-144986380D01*
X123912380Y-145891142D02*
X124912380Y-146224476D01*
X123912380Y-146557809D01*
X122118380Y-144414952D02*
X122118380Y-143843523D01*
X122118380Y-144129238D02*
X121118380Y-144129238D01*
X121261238Y-144034000D01*
X121356476Y-143938761D01*
X121404095Y-143843523D01*
X121213619Y-144795904D02*
X121166000Y-144843523D01*
X121118380Y-144938761D01*
X121118380Y-145176857D01*
X121166000Y-145272095D01*
X121213619Y-145319714D01*
X121308857Y-145367333D01*
X121404095Y-145367333D01*
X121546952Y-145319714D01*
X122118380Y-144748285D01*
X122118380Y-145367333D01*
X121118380Y-145653047D02*
X122118380Y-145986380D01*
X121118380Y-146319714D01*
X209192761Y-148304476D02*
X209240380Y-148447333D01*
X209240380Y-148685428D01*
X209192761Y-148780666D01*
X209145142Y-148828285D01*
X209049904Y-148875904D01*
X208954666Y-148875904D01*
X208859428Y-148828285D01*
X208811809Y-148780666D01*
X208764190Y-148685428D01*
X208716571Y-148494952D01*
X208668952Y-148399714D01*
X208621333Y-148352095D01*
X208526095Y-148304476D01*
X208430857Y-148304476D01*
X208335619Y-148352095D01*
X208288000Y-148399714D01*
X208240380Y-148494952D01*
X208240380Y-148733047D01*
X208288000Y-148875904D01*
X208288000Y-149828285D02*
X208240380Y-149733047D01*
X208240380Y-149590190D01*
X208288000Y-149447333D01*
X208383238Y-149352095D01*
X208478476Y-149304476D01*
X208668952Y-149256857D01*
X208811809Y-149256857D01*
X209002285Y-149304476D01*
X209097523Y-149352095D01*
X209192761Y-149447333D01*
X209240380Y-149590190D01*
X209240380Y-149685428D01*
X209192761Y-149828285D01*
X209145142Y-149875904D01*
X208811809Y-149875904D01*
X208811809Y-149685428D01*
X209240380Y-150304476D02*
X208240380Y-150304476D01*
X209240380Y-150875904D01*
X208240380Y-150875904D01*
X209240380Y-151352095D02*
X208240380Y-151352095D01*
X208240380Y-151590190D01*
X208288000Y-151733047D01*
X208383238Y-151828285D01*
X208478476Y-151875904D01*
X208668952Y-151923523D01*
X208811809Y-151923523D01*
X209002285Y-151875904D01*
X209097523Y-151828285D01*
X209192761Y-151733047D01*
X209240380Y-151590190D01*
X209240380Y-151352095D01*
X115522190Y-153122380D02*
X114903142Y-153122380D01*
X115236476Y-153503333D01*
X115093619Y-153503333D01*
X114998380Y-153550952D01*
X114950761Y-153598571D01*
X114903142Y-153693809D01*
X114903142Y-153931904D01*
X114950761Y-154027142D01*
X114998380Y-154074761D01*
X115093619Y-154122380D01*
X115379333Y-154122380D01*
X115474571Y-154074761D01*
X115522190Y-154027142D01*
X114474571Y-154027142D02*
X114426952Y-154074761D01*
X114474571Y-154122380D01*
X114522190Y-154074761D01*
X114474571Y-154027142D01*
X114474571Y-154122380D01*
X114093619Y-153122380D02*
X113474571Y-153122380D01*
X113807904Y-153503333D01*
X113665047Y-153503333D01*
X113569809Y-153550952D01*
X113522190Y-153598571D01*
X113474571Y-153693809D01*
X113474571Y-153931904D01*
X113522190Y-154027142D01*
X113569809Y-154074761D01*
X113665047Y-154122380D01*
X113950761Y-154122380D01*
X114046000Y-154074761D01*
X114093619Y-154027142D01*
X113188857Y-153122380D02*
X112855523Y-154122380D01*
X112522190Y-153122380D01*
X106791047Y-152090380D02*
X107362476Y-152090380D01*
X107076761Y-152090380D02*
X107076761Y-151090380D01*
X107172000Y-151233238D01*
X107267238Y-151328476D01*
X107362476Y-151376095D01*
X106410095Y-151185619D02*
X106362476Y-151138000D01*
X106267238Y-151090380D01*
X106029142Y-151090380D01*
X105933904Y-151138000D01*
X105886285Y-151185619D01*
X105838666Y-151280857D01*
X105838666Y-151376095D01*
X105886285Y-151518952D01*
X106457714Y-152090380D01*
X105838666Y-152090380D01*
X105552952Y-151090380D02*
X105219619Y-152090380D01*
X104886285Y-151090380D01*
X81334380Y-55062380D02*
X81667714Y-54586190D01*
X81905809Y-55062380D02*
X81905809Y-54062380D01*
X81524857Y-54062380D01*
X81429619Y-54110000D01*
X81382000Y-54157619D01*
X81334380Y-54252857D01*
X81334380Y-54395714D01*
X81382000Y-54490952D01*
X81429619Y-54538571D01*
X81524857Y-54586190D01*
X81905809Y-54586190D01*
X80524857Y-55014761D02*
X80620095Y-55062380D01*
X80810571Y-55062380D01*
X80905809Y-55014761D01*
X80953428Y-54919523D01*
X80953428Y-54538571D01*
X80905809Y-54443333D01*
X80810571Y-54395714D01*
X80620095Y-54395714D01*
X80524857Y-54443333D01*
X80477238Y-54538571D01*
X80477238Y-54633809D01*
X80953428Y-54729047D01*
X79905809Y-55062380D02*
X80001047Y-55014761D01*
X80048666Y-54919523D01*
X80048666Y-54062380D01*
X79096285Y-55062380D02*
X79096285Y-54538571D01*
X79143904Y-54443333D01*
X79239142Y-54395714D01*
X79429619Y-54395714D01*
X79524857Y-54443333D01*
X79096285Y-55014761D02*
X79191523Y-55062380D01*
X79429619Y-55062380D01*
X79524857Y-55014761D01*
X79572476Y-54919523D01*
X79572476Y-54824285D01*
X79524857Y-54729047D01*
X79429619Y-54681428D01*
X79191523Y-54681428D01*
X79096285Y-54633809D01*
X78715333Y-54395714D02*
X78477238Y-55062380D01*
X78239142Y-54395714D02*
X78477238Y-55062380D01*
X78572476Y-55300476D01*
X78620095Y-55348095D01*
X78715333Y-55395714D01*
X77905809Y-55014761D02*
X77810571Y-55062380D01*
X77620095Y-55062380D01*
X77524857Y-55014761D01*
X77477238Y-54919523D01*
X77477238Y-54871904D01*
X77524857Y-54776666D01*
X77620095Y-54729047D01*
X77762952Y-54729047D01*
X77858190Y-54681428D01*
X77905809Y-54586190D01*
X77905809Y-54538571D01*
X77858190Y-54443333D01*
X77762952Y-54395714D01*
X77620095Y-54395714D01*
X77524857Y-54443333D01*
X77048666Y-54967142D02*
X77001047Y-55014761D01*
X77048666Y-55062380D01*
X77096285Y-55014761D01*
X77048666Y-54967142D01*
X77048666Y-55062380D01*
X77048666Y-54443333D02*
X77001047Y-54490952D01*
X77048666Y-54538571D01*
X77096285Y-54490952D01*
X77048666Y-54443333D01*
X77048666Y-54538571D01*
X75477238Y-54538571D02*
X75810571Y-54538571D01*
X75810571Y-55062380D02*
X75810571Y-54062380D01*
X75334380Y-54062380D01*
X74953428Y-55062380D02*
X74953428Y-54395714D01*
X74953428Y-54062380D02*
X75001047Y-54110000D01*
X74953428Y-54157619D01*
X74905809Y-54110000D01*
X74953428Y-54062380D01*
X74953428Y-54157619D01*
X74477238Y-54395714D02*
X74477238Y-55062380D01*
X74477238Y-54490952D02*
X74429619Y-54443333D01*
X74334380Y-54395714D01*
X74191523Y-54395714D01*
X74096285Y-54443333D01*
X74048666Y-54538571D01*
X74048666Y-55062380D01*
X73143904Y-55062380D02*
X73143904Y-54062380D01*
X73143904Y-55014761D02*
X73239142Y-55062380D01*
X73429619Y-55062380D01*
X73524857Y-55014761D01*
X73572476Y-54967142D01*
X73620095Y-54871904D01*
X73620095Y-54586190D01*
X73572476Y-54490952D01*
X73524857Y-54443333D01*
X73429619Y-54395714D01*
X73239142Y-54395714D01*
X73143904Y-54443333D01*
X72286761Y-55014761D02*
X72382000Y-55062380D01*
X72572476Y-55062380D01*
X72667714Y-55014761D01*
X72715333Y-54919523D01*
X72715333Y-54538571D01*
X72667714Y-54443333D01*
X72572476Y-54395714D01*
X72382000Y-54395714D01*
X72286761Y-54443333D01*
X72239142Y-54538571D01*
X72239142Y-54633809D01*
X72715333Y-54729047D01*
X71810571Y-55062380D02*
X71810571Y-54395714D01*
X71810571Y-54586190D02*
X71762952Y-54490952D01*
X71715333Y-54443333D01*
X71620095Y-54395714D01*
X71524857Y-54395714D01*
X70001047Y-54395714D02*
X70001047Y-55062380D01*
X70239142Y-54014761D02*
X70477238Y-54729047D01*
X69858190Y-54729047D01*
X69286761Y-54062380D02*
X69191523Y-54062380D01*
X69096285Y-54110000D01*
X69048666Y-54157619D01*
X69001047Y-54252857D01*
X68953428Y-54443333D01*
X68953428Y-54681428D01*
X69001047Y-54871904D01*
X69048666Y-54967142D01*
X69096285Y-55014761D01*
X69191523Y-55062380D01*
X69286761Y-55062380D01*
X69382000Y-55014761D01*
X69429619Y-54967142D01*
X69477238Y-54871904D01*
X69524857Y-54681428D01*
X69524857Y-54443333D01*
X69477238Y-54252857D01*
X69429619Y-54157619D01*
X69382000Y-54110000D01*
X69286761Y-54062380D01*
X68524857Y-54967142D02*
X68477238Y-55014761D01*
X68524857Y-55062380D01*
X68572476Y-55014761D01*
X68524857Y-54967142D01*
X68524857Y-55062380D01*
X67620095Y-54062380D02*
X67810571Y-54062380D01*
X67905809Y-54110000D01*
X67953428Y-54157619D01*
X68048666Y-54300476D01*
X68096285Y-54490952D01*
X68096285Y-54871904D01*
X68048666Y-54967142D01*
X68001047Y-55014761D01*
X67905809Y-55062380D01*
X67715333Y-55062380D01*
X67620095Y-55014761D01*
X67572476Y-54967142D01*
X67524857Y-54871904D01*
X67524857Y-54633809D01*
X67572476Y-54538571D01*
X67620095Y-54490952D01*
X67715333Y-54443333D01*
X67905809Y-54443333D01*
X68001047Y-54490952D01*
X68048666Y-54538571D01*
X68096285Y-54633809D01*
X66572476Y-55062380D02*
X67143904Y-55062380D01*
X66858190Y-55062380D02*
X66858190Y-54062380D01*
X66953428Y-54205238D01*
X67048666Y-54300476D01*
X67143904Y-54348095D01*
X66143904Y-54967142D02*
X66096285Y-55014761D01*
X66143904Y-55062380D01*
X66191523Y-55014761D01*
X66143904Y-54967142D01*
X66143904Y-55062380D01*
X65762952Y-54062380D02*
X65096285Y-54062380D01*
X65524857Y-55062380D01*
X64715333Y-54967142D02*
X64667714Y-55014761D01*
X64715333Y-55062380D01*
X64762952Y-55014761D01*
X64715333Y-54967142D01*
X64715333Y-55062380D01*
X64048666Y-54062380D02*
X63953428Y-54062380D01*
X63858190Y-54110000D01*
X63810571Y-54157619D01*
X63762952Y-54252857D01*
X63715333Y-54443333D01*
X63715333Y-54681428D01*
X63762952Y-54871904D01*
X63810571Y-54967142D01*
X63858190Y-55014761D01*
X63953428Y-55062380D01*
X64048666Y-55062380D01*
X64143904Y-55014761D01*
X64191523Y-54967142D01*
X64239142Y-54871904D01*
X64286761Y-54681428D01*
X64286761Y-54443333D01*
X64239142Y-54252857D01*
X64191523Y-54157619D01*
X64143904Y-54110000D01*
X64048666Y-54062380D01*
X62762952Y-55062380D02*
X63334380Y-55062380D01*
X63048666Y-55062380D02*
X63048666Y-54062380D01*
X63143904Y-54205238D01*
X63239142Y-54300476D01*
X63334380Y-54348095D01*
X62382000Y-54157619D02*
X62334380Y-54110000D01*
X62239142Y-54062380D01*
X62001047Y-54062380D01*
X61905809Y-54110000D01*
X61858190Y-54157619D01*
X61810571Y-54252857D01*
X61810571Y-54348095D01*
X61858190Y-54490952D01*
X62429619Y-55062380D01*
X61810571Y-55062380D01*
D11*
X177660300Y-111569500D02*
X176390300Y-109029500D01*
X173850300Y-110299500D02*
X172580300Y-110299500D01*
X172580300Y-110299500D02*
X172580300Y-111569500D01*
X180200300Y-111569500D02*
X180200300Y-110299500D01*
X180200300Y-110299500D02*
X178930300Y-110299500D01*
X178930300Y-110299500D02*
X178930300Y-109029500D01*
X178930300Y-109029500D02*
X173850300Y-109029500D01*
X173850300Y-109029500D02*
X173850300Y-111569500D01*
X173850300Y-111569500D02*
X178930300Y-111569500D01*
X178930300Y-111569500D02*
X178930300Y-110299500D01*
X182740300Y-116649500D02*
X182740300Y-86169500D01*
X182740300Y-86169500D02*
X170040300Y-86169500D01*
X170040300Y-86169500D02*
X170040300Y-116649500D01*
X170040300Y-116649500D02*
X182740300Y-116649500D01*
X219710000Y-129794000D02*
X222250000Y-128524000D01*
X220980000Y-125984000D02*
X220980000Y-124714000D01*
X220980000Y-124714000D02*
X219710000Y-124714000D01*
X219710000Y-132334000D02*
X220980000Y-132334000D01*
X220980000Y-132334000D02*
X220980000Y-131064000D01*
X220980000Y-131064000D02*
X222250000Y-131064000D01*
X222250000Y-131064000D02*
X222250000Y-125984000D01*
X222250000Y-125984000D02*
X219710000Y-125984000D01*
X219710000Y-125984000D02*
X219710000Y-131064000D01*
X219710000Y-131064000D02*
X220980000Y-131064000D01*
X214630000Y-134874000D02*
X245110000Y-134874000D01*
X245110000Y-134874000D02*
X245110000Y-122174000D01*
X245110000Y-122174000D02*
X214630000Y-122174000D01*
X214630000Y-122174000D02*
X214630000Y-134874000D01*
X87884000Y-129794000D02*
X90424000Y-128524000D01*
X89154000Y-125984000D02*
X89154000Y-124714000D01*
X89154000Y-124714000D02*
X87884000Y-124714000D01*
X87884000Y-132334000D02*
X89154000Y-132334000D01*
X89154000Y-132334000D02*
X89154000Y-131064000D01*
X89154000Y-131064000D02*
X90424000Y-131064000D01*
X90424000Y-131064000D02*
X90424000Y-125984000D01*
X90424000Y-125984000D02*
X87884000Y-125984000D01*
X87884000Y-125984000D02*
X87884000Y-131064000D01*
X87884000Y-131064000D02*
X89154000Y-131064000D01*
X82804000Y-134874000D02*
X113284000Y-134874000D01*
X113284000Y-134874000D02*
X113284000Y-122174000D01*
X113284000Y-122174000D02*
X82804000Y-122174000D01*
X82804000Y-122174000D02*
X82804000Y-134874000D01*
X121920000Y-66489924D02*
X124460000Y-65219924D01*
X123190000Y-62679924D02*
X123190000Y-61409924D01*
X123190000Y-61409924D02*
X121920000Y-61409924D01*
X121920000Y-69029924D02*
X123190000Y-69029924D01*
X123190000Y-69029924D02*
X123190000Y-67759924D01*
X123190000Y-67759924D02*
X124460000Y-67759924D01*
X124460000Y-67759924D02*
X124460000Y-62679924D01*
X124460000Y-62679924D02*
X121920000Y-62679924D01*
X121920000Y-62679924D02*
X121920000Y-67759924D01*
X121920000Y-67759924D02*
X123190000Y-67759924D01*
X116840000Y-71569924D02*
X147320000Y-71569924D01*
X147320000Y-71569924D02*
X147320000Y-58869924D01*
X147320000Y-58869924D02*
X116840000Y-58869924D01*
X116840000Y-58869924D02*
X116840000Y-71569924D01*
D12*
X177735200Y-153779000D02*
X176835200Y-153779000D01*
X177735200Y-154179000D02*
X177735200Y-153779000D01*
X178335200Y-154179000D02*
X177735200Y-154179000D01*
X182335200Y-154179000D02*
X181935200Y-154179000D01*
X182335200Y-153779000D02*
X182335200Y-154179000D01*
X182435200Y-144779000D02*
X181935200Y-144779000D01*
X182435200Y-145179000D02*
X182435200Y-144779000D01*
X177735200Y-144879000D02*
X178135200Y-144879000D01*
X177735200Y-145179000D02*
X177735200Y-144879000D01*
X149696200Y-145179000D02*
X150596200Y-145179000D01*
X149696200Y-144779000D02*
X149696200Y-145179000D01*
X149096200Y-144779000D02*
X149696200Y-144779000D01*
X145096200Y-144779000D02*
X145496200Y-144779000D01*
X145096200Y-145179000D02*
X145096200Y-144779000D01*
X144996200Y-154179000D02*
X145496200Y-154179000D01*
X144996200Y-153779000D02*
X144996200Y-154179000D01*
X149696200Y-154079000D02*
X149296200Y-154079000D01*
X149696200Y-153779000D02*
X149696200Y-154079000D01*
X174267200Y-147279000D02*
X174567200Y-147279000D01*
X174267200Y-151679000D02*
X174267200Y-152279000D01*
X174567200Y-151679000D02*
X174267200Y-151679000D01*
X174567200Y-151279000D02*
X174567200Y-151679000D01*
X164167200Y-151679000D02*
X164167200Y-151379000D01*
X164467200Y-151679000D02*
X164167200Y-151679000D01*
X174567200Y-147279000D02*
X174567200Y-147579000D01*
X164167200Y-147279000D02*
X164467200Y-147279000D01*
X164167200Y-147279000D02*
X164167200Y-147579000D01*
X163091200Y-147279000D02*
X163391200Y-147279000D01*
X163091200Y-151679000D02*
X163091200Y-152279000D01*
X163391200Y-151679000D02*
X163091200Y-151679000D01*
X163391200Y-151279000D02*
X163391200Y-151679000D01*
X152991200Y-151679000D02*
X152991200Y-151379000D01*
X153291200Y-151679000D02*
X152991200Y-151679000D01*
X163391200Y-147279000D02*
X163391200Y-147579000D01*
X152991200Y-147279000D02*
X153291200Y-147279000D01*
X152991200Y-147279000D02*
X152991200Y-147579000D01*
D11*
X186753500Y-129794000D02*
X189293500Y-128524000D01*
X188023500Y-125984000D02*
X188023500Y-124714000D01*
X188023500Y-124714000D02*
X186753500Y-124714000D01*
X186753500Y-132334000D02*
X188023500Y-132334000D01*
X188023500Y-132334000D02*
X188023500Y-131064000D01*
X188023500Y-131064000D02*
X189293500Y-131064000D01*
X189293500Y-131064000D02*
X189293500Y-125984000D01*
X189293500Y-125984000D02*
X186753500Y-125984000D01*
X186753500Y-125984000D02*
X186753500Y-131064000D01*
X186753500Y-131064000D02*
X188023500Y-131064000D01*
X181673500Y-134874000D02*
X212153500Y-134874000D01*
X212153500Y-134874000D02*
X212153500Y-122174000D01*
X212153500Y-122174000D02*
X181673500Y-122174000D01*
X181673500Y-122174000D02*
X181673500Y-134874000D01*
X153797000Y-129794000D02*
X156337000Y-128524000D01*
X155067000Y-125984000D02*
X155067000Y-124714000D01*
X155067000Y-124714000D02*
X153797000Y-124714000D01*
X153797000Y-132334000D02*
X155067000Y-132334000D01*
X155067000Y-132334000D02*
X155067000Y-131064000D01*
X155067000Y-131064000D02*
X156337000Y-131064000D01*
X156337000Y-131064000D02*
X156337000Y-125984000D01*
X156337000Y-125984000D02*
X153797000Y-125984000D01*
X153797000Y-125984000D02*
X153797000Y-131064000D01*
X153797000Y-131064000D02*
X155067000Y-131064000D01*
X148717000Y-134874000D02*
X179197000Y-134874000D01*
X179197000Y-134874000D02*
X179197000Y-122174000D01*
X179197000Y-122174000D02*
X148717000Y-122174000D01*
X148717000Y-122174000D02*
X148717000Y-134874000D01*
X120840500Y-129794000D02*
X123380500Y-128524000D01*
X122110500Y-125984000D02*
X122110500Y-124714000D01*
X122110500Y-124714000D02*
X120840500Y-124714000D01*
X120840500Y-132334000D02*
X122110500Y-132334000D01*
X122110500Y-132334000D02*
X122110500Y-131064000D01*
X122110500Y-131064000D02*
X123380500Y-131064000D01*
X123380500Y-131064000D02*
X123380500Y-125984000D01*
X123380500Y-125984000D02*
X120840500Y-125984000D01*
X120840500Y-125984000D02*
X120840500Y-131064000D01*
X120840500Y-131064000D02*
X122110500Y-131064000D01*
X115760500Y-134874000D02*
X146240500Y-134874000D01*
X146240500Y-134874000D02*
X146240500Y-122174000D01*
X146240500Y-122174000D02*
X115760500Y-122174000D01*
X115760500Y-122174000D02*
X115760500Y-134874000D01*
X74168000Y-122936000D02*
X75438000Y-125476000D01*
X77978000Y-124206000D02*
X79248000Y-124206000D01*
X79248000Y-124206000D02*
X79248000Y-122936000D01*
X71628000Y-122936000D02*
X71628000Y-124206000D01*
X71628000Y-124206000D02*
X72898000Y-124206000D01*
X72898000Y-124206000D02*
X72898000Y-125476000D01*
X72898000Y-125476000D02*
X77978000Y-125476000D01*
X77978000Y-125476000D02*
X77978000Y-122936000D01*
X77978000Y-122936000D02*
X72898000Y-122936000D01*
X72898000Y-122936000D02*
X72898000Y-124206000D01*
X69088000Y-117856000D02*
X69088000Y-148336000D01*
X69088000Y-148336000D02*
X81788000Y-148336000D01*
X81788000Y-148336000D02*
X81788000Y-117856000D01*
X81788000Y-117856000D02*
X69088000Y-117856000D01*
X243395500Y-111569500D02*
X242125500Y-109029500D01*
X239585500Y-110299500D02*
X238315500Y-110299500D01*
X238315500Y-110299500D02*
X238315500Y-111569500D01*
X245935500Y-111569500D02*
X245935500Y-110299500D01*
X245935500Y-110299500D02*
X244665500Y-110299500D01*
X244665500Y-110299500D02*
X244665500Y-109029500D01*
X244665500Y-109029500D02*
X239585500Y-109029500D01*
X239585500Y-109029500D02*
X239585500Y-111569500D01*
X239585500Y-111569500D02*
X244665500Y-111569500D01*
X244665500Y-111569500D02*
X244665500Y-110299500D01*
X248475500Y-116649500D02*
X248475500Y-86169500D01*
X248475500Y-86169500D02*
X235775500Y-86169500D01*
X235775500Y-86169500D02*
X235775500Y-116649500D01*
X235775500Y-116649500D02*
X248475500Y-116649500D01*
X210527900Y-111569500D02*
X209257900Y-109029500D01*
X206717900Y-110299500D02*
X205447900Y-110299500D01*
X205447900Y-110299500D02*
X205447900Y-111569500D01*
X213067900Y-111569500D02*
X213067900Y-110299500D01*
X213067900Y-110299500D02*
X211797900Y-110299500D01*
X211797900Y-110299500D02*
X211797900Y-109029500D01*
X211797900Y-109029500D02*
X206717900Y-109029500D01*
X206717900Y-109029500D02*
X206717900Y-111569500D01*
X206717900Y-111569500D02*
X211797900Y-111569500D01*
X211797900Y-111569500D02*
X211797900Y-110299500D01*
X215607900Y-116649500D02*
X215607900Y-86169500D01*
X215607900Y-86169500D02*
X202907900Y-86169500D01*
X202907900Y-86169500D02*
X202907900Y-116649500D01*
X202907900Y-116649500D02*
X215607900Y-116649500D01*
X144792700Y-111569500D02*
X143522700Y-109029500D01*
X140982700Y-110299500D02*
X139712700Y-110299500D01*
X139712700Y-110299500D02*
X139712700Y-111569500D01*
X147332700Y-111569500D02*
X147332700Y-110299500D01*
X147332700Y-110299500D02*
X146062700Y-110299500D01*
X146062700Y-110299500D02*
X146062700Y-109029500D01*
X146062700Y-109029500D02*
X140982700Y-109029500D01*
X140982700Y-109029500D02*
X140982700Y-111569500D01*
X140982700Y-111569500D02*
X146062700Y-111569500D01*
X146062700Y-111569500D02*
X146062700Y-110299500D01*
X149872700Y-116649500D02*
X149872700Y-86169500D01*
X149872700Y-86169500D02*
X137172700Y-86169500D01*
X137172700Y-86169500D02*
X137172700Y-116649500D01*
X137172700Y-116649500D02*
X149872700Y-116649500D01*
X111925100Y-111569500D02*
X110655100Y-109029500D01*
X108115100Y-110299500D02*
X106845100Y-110299500D01*
X106845100Y-110299500D02*
X106845100Y-111569500D01*
X114465100Y-111569500D02*
X114465100Y-110299500D01*
X114465100Y-110299500D02*
X113195100Y-110299500D01*
X113195100Y-110299500D02*
X113195100Y-109029500D01*
X113195100Y-109029500D02*
X108115100Y-109029500D01*
X108115100Y-109029500D02*
X108115100Y-111569500D01*
X108115100Y-111569500D02*
X113195100Y-111569500D01*
X113195100Y-111569500D02*
X113195100Y-110299500D01*
X117005100Y-116649500D02*
X117005100Y-86169500D01*
X117005100Y-86169500D02*
X104305100Y-86169500D01*
X104305100Y-86169500D02*
X104305100Y-116649500D01*
X104305100Y-116649500D02*
X117005100Y-116649500D01*
X79057500Y-111569500D02*
X77787500Y-109029500D01*
X75247500Y-110299500D02*
X73977500Y-110299500D01*
X73977500Y-110299500D02*
X73977500Y-111569500D01*
X81597500Y-111569500D02*
X81597500Y-110299500D01*
X81597500Y-110299500D02*
X80327500Y-110299500D01*
X80327500Y-110299500D02*
X80327500Y-109029500D01*
X80327500Y-109029500D02*
X75247500Y-109029500D01*
X75247500Y-109029500D02*
X75247500Y-111569500D01*
X75247500Y-111569500D02*
X80327500Y-111569500D01*
X80327500Y-111569500D02*
X80327500Y-110299500D01*
X84137500Y-116649500D02*
X84137500Y-86169500D01*
X84137500Y-86169500D02*
X71437500Y-86169500D01*
X71437500Y-86169500D02*
X71437500Y-116649500D01*
X71437500Y-116649500D02*
X84137500Y-116649500D01*
X220853000Y-76200000D02*
X219583000Y-73660000D01*
X217043000Y-74930000D02*
X215773000Y-74930000D01*
X215773000Y-74930000D02*
X215773000Y-76200000D01*
X223393000Y-76200000D02*
X223393000Y-74930000D01*
X223393000Y-74930000D02*
X222123000Y-74930000D01*
X222123000Y-74930000D02*
X222123000Y-73660000D01*
X222123000Y-73660000D02*
X217043000Y-73660000D01*
X217043000Y-73660000D02*
X217043000Y-76200000D01*
X217043000Y-76200000D02*
X222123000Y-76200000D01*
X222123000Y-76200000D02*
X222123000Y-74930000D01*
X225933000Y-81280000D02*
X225933000Y-50800000D01*
X225933000Y-50800000D02*
X213233000Y-50800000D01*
X213233000Y-50800000D02*
X213233000Y-81280000D01*
X213233000Y-81280000D02*
X225933000Y-81280000D01*
X186309000Y-66489924D02*
X188849000Y-65219924D01*
X187579000Y-62679924D02*
X187579000Y-61409924D01*
X187579000Y-61409924D02*
X186309000Y-61409924D01*
X186309000Y-69029924D02*
X187579000Y-69029924D01*
X187579000Y-69029924D02*
X187579000Y-67759924D01*
X187579000Y-67759924D02*
X188849000Y-67759924D01*
X188849000Y-67759924D02*
X188849000Y-62679924D01*
X188849000Y-62679924D02*
X186309000Y-62679924D01*
X186309000Y-62679924D02*
X186309000Y-67759924D01*
X186309000Y-67759924D02*
X187579000Y-67759924D01*
X181229000Y-71569924D02*
X211709000Y-71569924D01*
X211709000Y-71569924D02*
X211709000Y-58869924D01*
X211709000Y-58869924D02*
X181229000Y-58869924D01*
X181229000Y-58869924D02*
X181229000Y-71569924D01*
X154114500Y-66489924D02*
X156654500Y-65219924D01*
X155384500Y-62679924D02*
X155384500Y-61409924D01*
X155384500Y-61409924D02*
X154114500Y-61409924D01*
X154114500Y-69029924D02*
X155384500Y-69029924D01*
X155384500Y-69029924D02*
X155384500Y-67759924D01*
X155384500Y-67759924D02*
X156654500Y-67759924D01*
X156654500Y-67759924D02*
X156654500Y-62679924D01*
X156654500Y-62679924D02*
X154114500Y-62679924D01*
X154114500Y-62679924D02*
X154114500Y-67759924D01*
X154114500Y-67759924D02*
X155384500Y-67759924D01*
X149034500Y-71569924D02*
X179514500Y-71569924D01*
X179514500Y-71569924D02*
X179514500Y-58869924D01*
X179514500Y-58869924D02*
X149034500Y-58869924D01*
X149034500Y-58869924D02*
X149034500Y-71569924D01*
X89725500Y-66489924D02*
X92265500Y-65219924D01*
X90995500Y-62679924D02*
X90995500Y-61409924D01*
X90995500Y-61409924D02*
X89725500Y-61409924D01*
X89725500Y-69029924D02*
X90995500Y-69029924D01*
X90995500Y-69029924D02*
X90995500Y-67759924D01*
X90995500Y-67759924D02*
X92265500Y-67759924D01*
X92265500Y-67759924D02*
X92265500Y-62679924D01*
X92265500Y-62679924D02*
X89725500Y-62679924D01*
X89725500Y-62679924D02*
X89725500Y-67759924D01*
X89725500Y-67759924D02*
X90995500Y-67759924D01*
X84645500Y-71569924D02*
X115125500Y-71569924D01*
X115125500Y-71569924D02*
X115125500Y-58869924D01*
X115125500Y-58869924D02*
X84645500Y-58869924D01*
X84645500Y-58869924D02*
X84645500Y-71569924D01*
X57531000Y-66489924D02*
X60071000Y-65219924D01*
X58801000Y-62679924D02*
X58801000Y-61409924D01*
X58801000Y-61409924D02*
X57531000Y-61409924D01*
X57531000Y-69029924D02*
X58801000Y-69029924D01*
X58801000Y-69029924D02*
X58801000Y-67759924D01*
X58801000Y-67759924D02*
X60071000Y-67759924D01*
X60071000Y-67759924D02*
X60071000Y-62679924D01*
X60071000Y-62679924D02*
X57531000Y-62679924D01*
X57531000Y-62679924D02*
X57531000Y-67759924D01*
X57531000Y-67759924D02*
X58801000Y-67759924D01*
X52451000Y-71569924D02*
X82931000Y-71569924D01*
X82931000Y-71569924D02*
X82931000Y-58869924D01*
X82931000Y-58869924D02*
X52451000Y-58869924D01*
X52451000Y-58869924D02*
X52451000Y-71569924D01*
X186793200Y-152880000D02*
X186793200Y-146880000D01*
X186793200Y-146880000D02*
X207313200Y-146880000D01*
X207313200Y-146880000D02*
X207313200Y-152880000D01*
X207313200Y-152880000D02*
X186793200Y-152880000D01*
X188163200Y-146880000D02*
X188163200Y-147880000D01*
X188163200Y-147880000D02*
X193243200Y-147880000D01*
X193243200Y-147880000D02*
X193243200Y-146880000D01*
X188163200Y-147880000D02*
X188413200Y-148310000D01*
X188413200Y-148310000D02*
X193243200Y-148310000D01*
X193243200Y-148310000D02*
X193243200Y-147880000D01*
X188413200Y-146880000D02*
X188413200Y-147880000D01*
X205943200Y-146880000D02*
X205943200Y-147880000D01*
X205943200Y-147880000D02*
X200863200Y-147880000D01*
X200863200Y-147880000D02*
X200863200Y-146880000D01*
X205943200Y-147880000D02*
X205693200Y-148310000D01*
X205693200Y-148310000D02*
X200863200Y-148310000D01*
X200863200Y-148310000D02*
X200863200Y-147880000D01*
X205693200Y-146880000D02*
X205693200Y-147880000D01*
X187363200Y-152880000D02*
X187363200Y-152260000D01*
X187363200Y-152260000D02*
X188963200Y-152260000D01*
X188963200Y-152260000D02*
X188963200Y-152880000D01*
X189903200Y-152880000D02*
X189903200Y-152260000D01*
X189903200Y-152260000D02*
X191503200Y-152260000D01*
X191503200Y-152260000D02*
X191503200Y-152880000D01*
X192443200Y-152880000D02*
X192443200Y-152260000D01*
X192443200Y-152260000D02*
X194043200Y-152260000D01*
X194043200Y-152260000D02*
X194043200Y-152880000D01*
X194983200Y-152880000D02*
X194983200Y-152260000D01*
X194983200Y-152260000D02*
X196583200Y-152260000D01*
X196583200Y-152260000D02*
X196583200Y-152880000D01*
X197523200Y-152880000D02*
X197523200Y-152260000D01*
X197523200Y-152260000D02*
X199123200Y-152260000D01*
X199123200Y-152260000D02*
X199123200Y-152880000D01*
X200063200Y-152880000D02*
X200063200Y-152260000D01*
X200063200Y-152260000D02*
X201663200Y-152260000D01*
X201663200Y-152260000D02*
X201663200Y-152880000D01*
X202603200Y-152880000D02*
X202603200Y-152260000D01*
X202603200Y-152260000D02*
X204203200Y-152260000D01*
X204203200Y-152260000D02*
X204203200Y-152880000D01*
X205143200Y-152880000D02*
X205143200Y-152260000D01*
X205143200Y-152260000D02*
X206743200Y-152260000D01*
X206743200Y-152260000D02*
X206743200Y-152880000D01*
X120499200Y-152880000D02*
X120499200Y-146880000D01*
X120499200Y-146880000D02*
X141019200Y-146880000D01*
X141019200Y-146880000D02*
X141019200Y-152880000D01*
X141019200Y-152880000D02*
X120499200Y-152880000D01*
X121869200Y-146880000D02*
X121869200Y-147880000D01*
X121869200Y-147880000D02*
X126949200Y-147880000D01*
X126949200Y-147880000D02*
X126949200Y-146880000D01*
X121869200Y-147880000D02*
X122119200Y-148310000D01*
X122119200Y-148310000D02*
X126949200Y-148310000D01*
X126949200Y-148310000D02*
X126949200Y-147880000D01*
X122119200Y-146880000D02*
X122119200Y-147880000D01*
X139649200Y-146880000D02*
X139649200Y-147880000D01*
X139649200Y-147880000D02*
X134569200Y-147880000D01*
X134569200Y-147880000D02*
X134569200Y-146880000D01*
X139649200Y-147880000D02*
X139399200Y-148310000D01*
X139399200Y-148310000D02*
X134569200Y-148310000D01*
X134569200Y-148310000D02*
X134569200Y-147880000D01*
X139399200Y-146880000D02*
X139399200Y-147880000D01*
X121069200Y-152880000D02*
X121069200Y-152260000D01*
X121069200Y-152260000D02*
X122669200Y-152260000D01*
X122669200Y-152260000D02*
X122669200Y-152880000D01*
X123609200Y-152880000D02*
X123609200Y-152260000D01*
X123609200Y-152260000D02*
X125209200Y-152260000D01*
X125209200Y-152260000D02*
X125209200Y-152880000D01*
X126149200Y-152880000D02*
X126149200Y-152260000D01*
X126149200Y-152260000D02*
X127749200Y-152260000D01*
X127749200Y-152260000D02*
X127749200Y-152880000D01*
X128689200Y-152880000D02*
X128689200Y-152260000D01*
X128689200Y-152260000D02*
X130289200Y-152260000D01*
X130289200Y-152260000D02*
X130289200Y-152880000D01*
X131229200Y-152880000D02*
X131229200Y-152260000D01*
X131229200Y-152260000D02*
X132829200Y-152260000D01*
X132829200Y-152260000D02*
X132829200Y-152880000D01*
X133769200Y-152880000D02*
X133769200Y-152260000D01*
X133769200Y-152260000D02*
X135369200Y-152260000D01*
X135369200Y-152260000D02*
X135369200Y-152880000D01*
X136309200Y-152880000D02*
X136309200Y-152260000D01*
X136309200Y-152260000D02*
X137909200Y-152260000D01*
X137909200Y-152260000D02*
X137909200Y-152880000D01*
X138849200Y-152880000D02*
X138849200Y-152260000D01*
X138849200Y-152260000D02*
X140449200Y-152260000D01*
X140449200Y-152260000D02*
X140449200Y-152880000D01*
X117638723Y-148107678D02*
G75*
G02X117639000Y-152718980I-1179723J-2305722D01*
G01*
X115279277Y-148107678D02*
G75*
G03X115279000Y-152718980I1179723J-2305722D01*
G01*
X115279277Y-148107678D02*
G75*
G02X117639000Y-148107820I1179723J-2305722D01*
G01*
X119009000Y-150413400D02*
X113909000Y-150413400D01*
X119009000Y-150373400D02*
X113909000Y-150373400D01*
X119008000Y-150333400D02*
X113910000Y-150333400D01*
X119007000Y-150293400D02*
X113911000Y-150293400D01*
X119005000Y-150253400D02*
X113913000Y-150253400D01*
X119002000Y-150213400D02*
X113916000Y-150213400D01*
X118998000Y-150173400D02*
X113920000Y-150173400D01*
X118994000Y-150133400D02*
X117439000Y-150133400D01*
X115479000Y-150133400D02*
X113924000Y-150133400D01*
X118990000Y-150093400D02*
X117439000Y-150093400D01*
X115479000Y-150093400D02*
X113928000Y-150093400D01*
X118984000Y-150053400D02*
X117439000Y-150053400D01*
X115479000Y-150053400D02*
X113934000Y-150053400D01*
X118978000Y-150013400D02*
X117439000Y-150013400D01*
X115479000Y-150013400D02*
X113940000Y-150013400D01*
X118972000Y-149973400D02*
X117439000Y-149973400D01*
X115479000Y-149973400D02*
X113946000Y-149973400D01*
X118965000Y-149933400D02*
X117439000Y-149933400D01*
X115479000Y-149933400D02*
X113953000Y-149933400D01*
X118957000Y-149893400D02*
X117439000Y-149893400D01*
X115479000Y-149893400D02*
X113961000Y-149893400D01*
X118948000Y-149853400D02*
X117439000Y-149853400D01*
X115479000Y-149853400D02*
X113970000Y-149853400D01*
X118939000Y-149813400D02*
X117439000Y-149813400D01*
X115479000Y-149813400D02*
X113979000Y-149813400D01*
X118929000Y-149773400D02*
X117439000Y-149773400D01*
X115479000Y-149773400D02*
X113989000Y-149773400D01*
X118919000Y-149733400D02*
X117439000Y-149733400D01*
X115479000Y-149733400D02*
X113999000Y-149733400D01*
X118907000Y-149692400D02*
X117439000Y-149692400D01*
X115479000Y-149692400D02*
X114011000Y-149692400D01*
X118895000Y-149652400D02*
X117439000Y-149652400D01*
X115479000Y-149652400D02*
X114023000Y-149652400D01*
X118883000Y-149612400D02*
X117439000Y-149612400D01*
X115479000Y-149612400D02*
X114035000Y-149612400D01*
X118869000Y-149572400D02*
X117439000Y-149572400D01*
X115479000Y-149572400D02*
X114049000Y-149572400D01*
X118855000Y-149532400D02*
X117439000Y-149532400D01*
X115479000Y-149532400D02*
X114063000Y-149532400D01*
X118841000Y-149492400D02*
X117439000Y-149492400D01*
X115479000Y-149492400D02*
X114077000Y-149492400D01*
X118825000Y-149452400D02*
X117439000Y-149452400D01*
X115479000Y-149452400D02*
X114093000Y-149452400D01*
X118809000Y-149412400D02*
X117439000Y-149412400D01*
X115479000Y-149412400D02*
X114109000Y-149412400D01*
X118792000Y-149372400D02*
X117439000Y-149372400D01*
X115479000Y-149372400D02*
X114126000Y-149372400D01*
X118774000Y-149332400D02*
X117439000Y-149332400D01*
X115479000Y-149332400D02*
X114144000Y-149332400D01*
X118755000Y-149292400D02*
X117439000Y-149292400D01*
X115479000Y-149292400D02*
X114163000Y-149292400D01*
X118735000Y-149252400D02*
X117439000Y-149252400D01*
X115479000Y-149252400D02*
X114183000Y-149252400D01*
X118715000Y-149212400D02*
X117439000Y-149212400D01*
X115479000Y-149212400D02*
X114203000Y-149212400D01*
X118693000Y-149172400D02*
X117439000Y-149172400D01*
X115479000Y-149172400D02*
X114225000Y-149172400D01*
X118671000Y-149132400D02*
X117439000Y-149132400D01*
X115479000Y-149132400D02*
X114247000Y-149132400D01*
X118648000Y-149092400D02*
X117439000Y-149092400D01*
X115479000Y-149092400D02*
X114270000Y-149092400D01*
X118624000Y-149052400D02*
X117439000Y-149052400D01*
X115479000Y-149052400D02*
X114294000Y-149052400D01*
X118599000Y-149012400D02*
X117439000Y-149012400D01*
X115479000Y-149012400D02*
X114319000Y-149012400D01*
X118572000Y-148972400D02*
X117439000Y-148972400D01*
X115479000Y-148972400D02*
X114346000Y-148972400D01*
X118545000Y-148932400D02*
X117439000Y-148932400D01*
X115479000Y-148932400D02*
X114373000Y-148932400D01*
X118517000Y-148892400D02*
X117439000Y-148892400D01*
X115479000Y-148892400D02*
X114401000Y-148892400D01*
X118487000Y-148852400D02*
X117439000Y-148852400D01*
X115479000Y-148852400D02*
X114431000Y-148852400D01*
X118456000Y-148812400D02*
X117439000Y-148812400D01*
X115479000Y-148812400D02*
X114462000Y-148812400D01*
X118424000Y-148772400D02*
X117439000Y-148772400D01*
X115479000Y-148772400D02*
X114494000Y-148772400D01*
X118391000Y-148732400D02*
X117439000Y-148732400D01*
X115479000Y-148732400D02*
X114527000Y-148732400D01*
X118356000Y-148692400D02*
X117439000Y-148692400D01*
X115479000Y-148692400D02*
X114562000Y-148692400D01*
X118320000Y-148652400D02*
X117439000Y-148652400D01*
X115479000Y-148652400D02*
X114598000Y-148652400D01*
X118282000Y-148612400D02*
X117439000Y-148612400D01*
X115479000Y-148612400D02*
X114636000Y-148612400D01*
X118242000Y-148572400D02*
X117439000Y-148572400D01*
X115479000Y-148572400D02*
X114676000Y-148572400D01*
X118201000Y-148532400D02*
X117439000Y-148532400D01*
X115479000Y-148532400D02*
X114717000Y-148532400D01*
X118158000Y-148492400D02*
X117439000Y-148492400D01*
X115479000Y-148492400D02*
X114760000Y-148492400D01*
X118113000Y-148452400D02*
X117439000Y-148452400D01*
X115479000Y-148452400D02*
X114805000Y-148452400D01*
X118065000Y-148412400D02*
X117439000Y-148412400D01*
X115479000Y-148412400D02*
X114853000Y-148412400D01*
X118015000Y-148372400D02*
X117439000Y-148372400D01*
X115479000Y-148372400D02*
X114903000Y-148372400D01*
X117963000Y-148332400D02*
X117439000Y-148332400D01*
X115479000Y-148332400D02*
X114955000Y-148332400D01*
X117907000Y-148292400D02*
X117439000Y-148292400D01*
X115479000Y-148292400D02*
X115011000Y-148292400D01*
X117849000Y-148252400D02*
X117439000Y-148252400D01*
X115479000Y-148252400D02*
X115069000Y-148252400D01*
X117786000Y-148212400D02*
X117439000Y-148212400D01*
X115479000Y-148212400D02*
X115132000Y-148212400D01*
X117720000Y-148172400D02*
X115198000Y-148172400D01*
X117648000Y-148132400D02*
X115270000Y-148132400D01*
X117571000Y-148092400D02*
X115347000Y-148092400D01*
X117487000Y-148052400D02*
X115431000Y-148052400D01*
X117393000Y-148012400D02*
X115525000Y-148012400D01*
X117288000Y-147972400D02*
X115630000Y-147972400D01*
X117166000Y-147932400D02*
X115752000Y-147932400D01*
X117018000Y-147892400D02*
X115900000Y-147892400D01*
X116813000Y-147852400D02*
X116105000Y-147852400D01*
X116459000Y-153863400D02*
X116459000Y-152663400D01*
X117109000Y-153263400D02*
X115809000Y-153263400D01*
X111415723Y-148107678D02*
G75*
G02X111416000Y-152718980I-1179723J-2305722D01*
G01*
X109056277Y-148107678D02*
G75*
G03X109056000Y-152718980I1179723J-2305722D01*
G01*
X109056277Y-148107678D02*
G75*
G02X111416000Y-148107820I1179723J-2305722D01*
G01*
X112786000Y-150413400D02*
X107686000Y-150413400D01*
X112786000Y-150373400D02*
X107686000Y-150373400D01*
X112785000Y-150333400D02*
X107687000Y-150333400D01*
X112784000Y-150293400D02*
X107688000Y-150293400D01*
X112782000Y-150253400D02*
X107690000Y-150253400D01*
X112779000Y-150213400D02*
X107693000Y-150213400D01*
X112775000Y-150173400D02*
X107697000Y-150173400D01*
X112771000Y-150133400D02*
X111216000Y-150133400D01*
X109256000Y-150133400D02*
X107701000Y-150133400D01*
X112767000Y-150093400D02*
X111216000Y-150093400D01*
X109256000Y-150093400D02*
X107705000Y-150093400D01*
X112761000Y-150053400D02*
X111216000Y-150053400D01*
X109256000Y-150053400D02*
X107711000Y-150053400D01*
X112755000Y-150013400D02*
X111216000Y-150013400D01*
X109256000Y-150013400D02*
X107717000Y-150013400D01*
X112749000Y-149973400D02*
X111216000Y-149973400D01*
X109256000Y-149973400D02*
X107723000Y-149973400D01*
X112742000Y-149933400D02*
X111216000Y-149933400D01*
X109256000Y-149933400D02*
X107730000Y-149933400D01*
X112734000Y-149893400D02*
X111216000Y-149893400D01*
X109256000Y-149893400D02*
X107738000Y-149893400D01*
X112725000Y-149853400D02*
X111216000Y-149853400D01*
X109256000Y-149853400D02*
X107747000Y-149853400D01*
X112716000Y-149813400D02*
X111216000Y-149813400D01*
X109256000Y-149813400D02*
X107756000Y-149813400D01*
X112706000Y-149773400D02*
X111216000Y-149773400D01*
X109256000Y-149773400D02*
X107766000Y-149773400D01*
X112696000Y-149733400D02*
X111216000Y-149733400D01*
X109256000Y-149733400D02*
X107776000Y-149733400D01*
X112684000Y-149692400D02*
X111216000Y-149692400D01*
X109256000Y-149692400D02*
X107788000Y-149692400D01*
X112672000Y-149652400D02*
X111216000Y-149652400D01*
X109256000Y-149652400D02*
X107800000Y-149652400D01*
X112660000Y-149612400D02*
X111216000Y-149612400D01*
X109256000Y-149612400D02*
X107812000Y-149612400D01*
X112646000Y-149572400D02*
X111216000Y-149572400D01*
X109256000Y-149572400D02*
X107826000Y-149572400D01*
X112632000Y-149532400D02*
X111216000Y-149532400D01*
X109256000Y-149532400D02*
X107840000Y-149532400D01*
X112618000Y-149492400D02*
X111216000Y-149492400D01*
X109256000Y-149492400D02*
X107854000Y-149492400D01*
X112602000Y-149452400D02*
X111216000Y-149452400D01*
X109256000Y-149452400D02*
X107870000Y-149452400D01*
X112586000Y-149412400D02*
X111216000Y-149412400D01*
X109256000Y-149412400D02*
X107886000Y-149412400D01*
X112569000Y-149372400D02*
X111216000Y-149372400D01*
X109256000Y-149372400D02*
X107903000Y-149372400D01*
X112551000Y-149332400D02*
X111216000Y-149332400D01*
X109256000Y-149332400D02*
X107921000Y-149332400D01*
X112532000Y-149292400D02*
X111216000Y-149292400D01*
X109256000Y-149292400D02*
X107940000Y-149292400D01*
X112512000Y-149252400D02*
X111216000Y-149252400D01*
X109256000Y-149252400D02*
X107960000Y-149252400D01*
X112492000Y-149212400D02*
X111216000Y-149212400D01*
X109256000Y-149212400D02*
X107980000Y-149212400D01*
X112470000Y-149172400D02*
X111216000Y-149172400D01*
X109256000Y-149172400D02*
X108002000Y-149172400D01*
X112448000Y-149132400D02*
X111216000Y-149132400D01*
X109256000Y-149132400D02*
X108024000Y-149132400D01*
X112425000Y-149092400D02*
X111216000Y-149092400D01*
X109256000Y-149092400D02*
X108047000Y-149092400D01*
X112401000Y-149052400D02*
X111216000Y-149052400D01*
X109256000Y-149052400D02*
X108071000Y-149052400D01*
X112376000Y-149012400D02*
X111216000Y-149012400D01*
X109256000Y-149012400D02*
X108096000Y-149012400D01*
X112349000Y-148972400D02*
X111216000Y-148972400D01*
X109256000Y-148972400D02*
X108123000Y-148972400D01*
X112322000Y-148932400D02*
X111216000Y-148932400D01*
X109256000Y-148932400D02*
X108150000Y-148932400D01*
X112294000Y-148892400D02*
X111216000Y-148892400D01*
X109256000Y-148892400D02*
X108178000Y-148892400D01*
X112264000Y-148852400D02*
X111216000Y-148852400D01*
X109256000Y-148852400D02*
X108208000Y-148852400D01*
X112233000Y-148812400D02*
X111216000Y-148812400D01*
X109256000Y-148812400D02*
X108239000Y-148812400D01*
X112201000Y-148772400D02*
X111216000Y-148772400D01*
X109256000Y-148772400D02*
X108271000Y-148772400D01*
X112168000Y-148732400D02*
X111216000Y-148732400D01*
X109256000Y-148732400D02*
X108304000Y-148732400D01*
X112133000Y-148692400D02*
X111216000Y-148692400D01*
X109256000Y-148692400D02*
X108339000Y-148692400D01*
X112097000Y-148652400D02*
X111216000Y-148652400D01*
X109256000Y-148652400D02*
X108375000Y-148652400D01*
X112059000Y-148612400D02*
X111216000Y-148612400D01*
X109256000Y-148612400D02*
X108413000Y-148612400D01*
X112019000Y-148572400D02*
X111216000Y-148572400D01*
X109256000Y-148572400D02*
X108453000Y-148572400D01*
X111978000Y-148532400D02*
X111216000Y-148532400D01*
X109256000Y-148532400D02*
X108494000Y-148532400D01*
X111935000Y-148492400D02*
X111216000Y-148492400D01*
X109256000Y-148492400D02*
X108537000Y-148492400D01*
X111890000Y-148452400D02*
X111216000Y-148452400D01*
X109256000Y-148452400D02*
X108582000Y-148452400D01*
X111842000Y-148412400D02*
X111216000Y-148412400D01*
X109256000Y-148412400D02*
X108630000Y-148412400D01*
X111792000Y-148372400D02*
X111216000Y-148372400D01*
X109256000Y-148372400D02*
X108680000Y-148372400D01*
X111740000Y-148332400D02*
X111216000Y-148332400D01*
X109256000Y-148332400D02*
X108732000Y-148332400D01*
X111684000Y-148292400D02*
X111216000Y-148292400D01*
X109256000Y-148292400D02*
X108788000Y-148292400D01*
X111626000Y-148252400D02*
X111216000Y-148252400D01*
X109256000Y-148252400D02*
X108846000Y-148252400D01*
X111563000Y-148212400D02*
X111216000Y-148212400D01*
X109256000Y-148212400D02*
X108909000Y-148212400D01*
X111497000Y-148172400D02*
X108975000Y-148172400D01*
X111425000Y-148132400D02*
X109047000Y-148132400D01*
X111348000Y-148092400D02*
X109124000Y-148092400D01*
X111264000Y-148052400D02*
X109208000Y-148052400D01*
X111170000Y-148012400D02*
X109302000Y-148012400D01*
X111065000Y-147972400D02*
X109407000Y-147972400D01*
X110943000Y-147932400D02*
X109529000Y-147932400D01*
X110795000Y-147892400D02*
X109677000Y-147892400D01*
X110590000Y-147852400D02*
X109882000Y-147852400D01*
X110236000Y-153863400D02*
X110236000Y-152663400D01*
X110886000Y-153263400D02*
X109586000Y-153263400D01*
D10*
X176982285Y-85034380D02*
X176982285Y-84034380D01*
X176410857Y-85034380D02*
X176839428Y-84462952D01*
X176410857Y-84034380D02*
X176982285Y-84605809D01*
X175458476Y-85034380D02*
X176029904Y-85034380D01*
X175744190Y-85034380D02*
X175744190Y-84034380D01*
X175839428Y-84177238D01*
X175934666Y-84272476D01*
X176029904Y-84320095D01*
X174839428Y-84034380D02*
X174744190Y-84034380D01*
X174648952Y-84082000D01*
X174601333Y-84129619D01*
X174553714Y-84224857D01*
X174506095Y-84415333D01*
X174506095Y-84653428D01*
X174553714Y-84843904D01*
X174601333Y-84939142D01*
X174648952Y-84986761D01*
X174744190Y-85034380D01*
X174839428Y-85034380D01*
X174934666Y-84986761D01*
X174982285Y-84939142D01*
X175029904Y-84843904D01*
X175077523Y-84653428D01*
X175077523Y-84415333D01*
X175029904Y-84224857D01*
X174982285Y-84129619D01*
X174934666Y-84082000D01*
X174839428Y-84034380D01*
X232354285Y-136596380D02*
X232354285Y-135596380D01*
X231782857Y-136596380D02*
X232211428Y-136024952D01*
X231782857Y-135596380D02*
X232354285Y-136167809D01*
X230830476Y-136596380D02*
X231401904Y-136596380D01*
X231116190Y-136596380D02*
X231116190Y-135596380D01*
X231211428Y-135739238D01*
X231306666Y-135834476D01*
X231401904Y-135882095D01*
X230259047Y-136024952D02*
X230354285Y-135977333D01*
X230401904Y-135929714D01*
X230449523Y-135834476D01*
X230449523Y-135786857D01*
X230401904Y-135691619D01*
X230354285Y-135644000D01*
X230259047Y-135596380D01*
X230068571Y-135596380D01*
X229973333Y-135644000D01*
X229925714Y-135691619D01*
X229878095Y-135786857D01*
X229878095Y-135834476D01*
X229925714Y-135929714D01*
X229973333Y-135977333D01*
X230068571Y-136024952D01*
X230259047Y-136024952D01*
X230354285Y-136072571D01*
X230401904Y-136120190D01*
X230449523Y-136215428D01*
X230449523Y-136405904D01*
X230401904Y-136501142D01*
X230354285Y-136548761D01*
X230259047Y-136596380D01*
X230068571Y-136596380D01*
X229973333Y-136548761D01*
X229925714Y-136501142D01*
X229878095Y-136405904D01*
X229878095Y-136215428D01*
X229925714Y-136120190D01*
X229973333Y-136072571D01*
X230068571Y-136024952D01*
X100528285Y-136596380D02*
X100528285Y-135596380D01*
X99956857Y-136596380D02*
X100385428Y-136024952D01*
X99956857Y-135596380D02*
X100528285Y-136167809D01*
X99004476Y-136596380D02*
X99575904Y-136596380D01*
X99290190Y-136596380D02*
X99290190Y-135596380D01*
X99385428Y-135739238D01*
X99480666Y-135834476D01*
X99575904Y-135882095D01*
X98147333Y-135929714D02*
X98147333Y-136596380D01*
X98385428Y-135548761D02*
X98623523Y-136263047D01*
X98004476Y-136263047D01*
X134088095Y-73292304D02*
X134088095Y-72292304D01*
X133516666Y-73292304D02*
X133945238Y-72720876D01*
X133516666Y-72292304D02*
X134088095Y-72863733D01*
X133183333Y-72292304D02*
X132564285Y-72292304D01*
X132897619Y-72673257D01*
X132754761Y-72673257D01*
X132659523Y-72720876D01*
X132611904Y-72768495D01*
X132564285Y-72863733D01*
X132564285Y-73101828D01*
X132611904Y-73197066D01*
X132659523Y-73244685D01*
X132754761Y-73292304D01*
X133040476Y-73292304D01*
X133135714Y-73244685D01*
X133183333Y-73197066D01*
X184277580Y-148717095D02*
X185087104Y-148717095D01*
X185182342Y-148764714D01*
X185229961Y-148812333D01*
X185277580Y-148907571D01*
X185277580Y-149098047D01*
X185229961Y-149193285D01*
X185182342Y-149240904D01*
X185087104Y-149288523D01*
X184277580Y-149288523D01*
X184610914Y-150193285D02*
X185277580Y-150193285D01*
X184229961Y-149955190D02*
X184944247Y-149717095D01*
X184944247Y-150336142D01*
X142058580Y-148717095D02*
X142868104Y-148717095D01*
X142963342Y-148764714D01*
X143010961Y-148812333D01*
X143058580Y-148907571D01*
X143058580Y-149098047D01*
X143010961Y-149193285D01*
X142963342Y-149240904D01*
X142868104Y-149288523D01*
X142058580Y-149288523D01*
X142058580Y-149669476D02*
X142058580Y-150288523D01*
X142439533Y-149955190D01*
X142439533Y-150098047D01*
X142487152Y-150193285D01*
X142534771Y-150240904D01*
X142630009Y-150288523D01*
X142868104Y-150288523D01*
X142963342Y-150240904D01*
X143010961Y-150193285D01*
X143058580Y-150098047D01*
X143058580Y-149812333D01*
X143010961Y-149717095D01*
X142963342Y-149669476D01*
X170129104Y-144131380D02*
X170129104Y-144940904D01*
X170081485Y-145036142D01*
X170033866Y-145083761D01*
X169938628Y-145131380D01*
X169748152Y-145131380D01*
X169652914Y-145083761D01*
X169605295Y-145036142D01*
X169557676Y-144940904D01*
X169557676Y-144131380D01*
X169129104Y-144226619D02*
X169081485Y-144179000D01*
X168986247Y-144131380D01*
X168748152Y-144131380D01*
X168652914Y-144179000D01*
X168605295Y-144226619D01*
X168557676Y-144321857D01*
X168557676Y-144417095D01*
X168605295Y-144559952D01*
X169176723Y-145131380D01*
X168557676Y-145131380D01*
X158953104Y-144131380D02*
X158953104Y-144940904D01*
X158905485Y-145036142D01*
X158857866Y-145083761D01*
X158762628Y-145131380D01*
X158572152Y-145131380D01*
X158476914Y-145083761D01*
X158429295Y-145036142D01*
X158381676Y-144940904D01*
X158381676Y-144131380D01*
X157381676Y-145131380D02*
X157953104Y-145131380D01*
X157667390Y-145131380D02*
X157667390Y-144131380D01*
X157762628Y-144274238D01*
X157857866Y-144369476D01*
X157953104Y-144417095D01*
X199397785Y-136596380D02*
X199397785Y-135596380D01*
X198826357Y-136596380D02*
X199254928Y-136024952D01*
X198826357Y-135596380D02*
X199397785Y-136167809D01*
X197873976Y-136596380D02*
X198445404Y-136596380D01*
X198159690Y-136596380D02*
X198159690Y-135596380D01*
X198254928Y-135739238D01*
X198350166Y-135834476D01*
X198445404Y-135882095D01*
X197540642Y-135596380D02*
X196873976Y-135596380D01*
X197302547Y-136596380D01*
X166441285Y-136596380D02*
X166441285Y-135596380D01*
X165869857Y-136596380D02*
X166298428Y-136024952D01*
X165869857Y-135596380D02*
X166441285Y-136167809D01*
X164917476Y-136596380D02*
X165488904Y-136596380D01*
X165203190Y-136596380D02*
X165203190Y-135596380D01*
X165298428Y-135739238D01*
X165393666Y-135834476D01*
X165488904Y-135882095D01*
X164060333Y-135596380D02*
X164250809Y-135596380D01*
X164346047Y-135644000D01*
X164393666Y-135691619D01*
X164488904Y-135834476D01*
X164536523Y-136024952D01*
X164536523Y-136405904D01*
X164488904Y-136501142D01*
X164441285Y-136548761D01*
X164346047Y-136596380D01*
X164155571Y-136596380D01*
X164060333Y-136548761D01*
X164012714Y-136501142D01*
X163965095Y-136405904D01*
X163965095Y-136167809D01*
X164012714Y-136072571D01*
X164060333Y-136024952D01*
X164155571Y-135977333D01*
X164346047Y-135977333D01*
X164441285Y-136024952D01*
X164488904Y-136072571D01*
X164536523Y-136167809D01*
X133484785Y-136596380D02*
X133484785Y-135596380D01*
X132913357Y-136596380D02*
X133341928Y-136024952D01*
X132913357Y-135596380D02*
X133484785Y-136167809D01*
X131960976Y-136596380D02*
X132532404Y-136596380D01*
X132246690Y-136596380D02*
X132246690Y-135596380D01*
X132341928Y-135739238D01*
X132437166Y-135834476D01*
X132532404Y-135882095D01*
X131056214Y-135596380D02*
X131532404Y-135596380D01*
X131580023Y-136072571D01*
X131532404Y-136024952D01*
X131437166Y-135977333D01*
X131199071Y-135977333D01*
X131103833Y-136024952D01*
X131056214Y-136072571D01*
X131008595Y-136167809D01*
X131008595Y-136405904D01*
X131056214Y-136501142D01*
X131103833Y-136548761D01*
X131199071Y-136596380D01*
X131437166Y-136596380D01*
X131532404Y-136548761D01*
X131580023Y-136501142D01*
X68270380Y-133151714D02*
X67270380Y-133151714D01*
X68270380Y-133723142D02*
X67698952Y-133294571D01*
X67270380Y-133723142D02*
X67841809Y-133151714D01*
X68270380Y-134675523D02*
X68270380Y-134104095D01*
X68270380Y-134389809D02*
X67270380Y-134389809D01*
X67413238Y-134294571D01*
X67508476Y-134199333D01*
X67556095Y-134104095D01*
X67270380Y-135008857D02*
X67270380Y-135627904D01*
X67651333Y-135294571D01*
X67651333Y-135437428D01*
X67698952Y-135532666D01*
X67746571Y-135580285D01*
X67841809Y-135627904D01*
X68079904Y-135627904D01*
X68175142Y-135580285D01*
X68222761Y-135532666D01*
X68270380Y-135437428D01*
X68270380Y-135151714D01*
X68222761Y-135056476D01*
X68175142Y-135008857D01*
X243276285Y-85034380D02*
X243276285Y-84034380D01*
X242704857Y-85034380D02*
X243133428Y-84462952D01*
X242704857Y-84034380D02*
X243276285Y-84605809D01*
X241752476Y-85034380D02*
X242323904Y-85034380D01*
X242038190Y-85034380D02*
X242038190Y-84034380D01*
X242133428Y-84177238D01*
X242228666Y-84272476D01*
X242323904Y-84320095D01*
X241371523Y-84129619D02*
X241323904Y-84082000D01*
X241228666Y-84034380D01*
X240990571Y-84034380D01*
X240895333Y-84082000D01*
X240847714Y-84129619D01*
X240800095Y-84224857D01*
X240800095Y-84320095D01*
X240847714Y-84462952D01*
X241419142Y-85034380D01*
X240800095Y-85034380D01*
X210256285Y-85034380D02*
X210256285Y-84034380D01*
X209684857Y-85034380D02*
X210113428Y-84462952D01*
X209684857Y-84034380D02*
X210256285Y-84605809D01*
X208732476Y-85034380D02*
X209303904Y-85034380D01*
X209018190Y-85034380D02*
X209018190Y-84034380D01*
X209113428Y-84177238D01*
X209208666Y-84272476D01*
X209303904Y-84320095D01*
X207780095Y-85034380D02*
X208351523Y-85034380D01*
X208065809Y-85034380D02*
X208065809Y-84034380D01*
X208161047Y-84177238D01*
X208256285Y-84272476D01*
X208351523Y-84320095D01*
X143994095Y-85034380D02*
X143994095Y-84034380D01*
X143422666Y-85034380D02*
X143851238Y-84462952D01*
X143422666Y-84034380D02*
X143994095Y-84605809D01*
X142946476Y-85034380D02*
X142756000Y-85034380D01*
X142660761Y-84986761D01*
X142613142Y-84939142D01*
X142517904Y-84796285D01*
X142470285Y-84605809D01*
X142470285Y-84224857D01*
X142517904Y-84129619D01*
X142565523Y-84082000D01*
X142660761Y-84034380D01*
X142851238Y-84034380D01*
X142946476Y-84082000D01*
X142994095Y-84129619D01*
X143041714Y-84224857D01*
X143041714Y-84462952D01*
X142994095Y-84558190D01*
X142946476Y-84605809D01*
X142851238Y-84653428D01*
X142660761Y-84653428D01*
X142565523Y-84605809D01*
X142517904Y-84558190D01*
X142470285Y-84462952D01*
X110974095Y-84780380D02*
X110974095Y-83780380D01*
X110402666Y-84780380D02*
X110831238Y-84208952D01*
X110402666Y-83780380D02*
X110974095Y-84351809D01*
X109831238Y-84208952D02*
X109926476Y-84161333D01*
X109974095Y-84113714D01*
X110021714Y-84018476D01*
X110021714Y-83970857D01*
X109974095Y-83875619D01*
X109926476Y-83828000D01*
X109831238Y-83780380D01*
X109640761Y-83780380D01*
X109545523Y-83828000D01*
X109497904Y-83875619D01*
X109450285Y-83970857D01*
X109450285Y-84018476D01*
X109497904Y-84113714D01*
X109545523Y-84161333D01*
X109640761Y-84208952D01*
X109831238Y-84208952D01*
X109926476Y-84256571D01*
X109974095Y-84304190D01*
X110021714Y-84399428D01*
X110021714Y-84589904D01*
X109974095Y-84685142D01*
X109926476Y-84732761D01*
X109831238Y-84780380D01*
X109640761Y-84780380D01*
X109545523Y-84732761D01*
X109497904Y-84685142D01*
X109450285Y-84589904D01*
X109450285Y-84399428D01*
X109497904Y-84304190D01*
X109545523Y-84256571D01*
X109640761Y-84208952D01*
X78208095Y-84526380D02*
X78208095Y-83526380D01*
X77636666Y-84526380D02*
X78065238Y-83954952D01*
X77636666Y-83526380D02*
X78208095Y-84097809D01*
X77303333Y-83526380D02*
X76636666Y-83526380D01*
X77065238Y-84526380D01*
X227655380Y-64031904D02*
X226655380Y-64031904D01*
X227655380Y-64603333D02*
X227083952Y-64174761D01*
X226655380Y-64603333D02*
X227226809Y-64031904D01*
X226655380Y-65460476D02*
X226655380Y-65270000D01*
X226703000Y-65174761D01*
X226750619Y-65127142D01*
X226893476Y-65031904D01*
X227083952Y-64984285D01*
X227464904Y-64984285D01*
X227560142Y-65031904D01*
X227607761Y-65079523D01*
X227655380Y-65174761D01*
X227655380Y-65365238D01*
X227607761Y-65460476D01*
X227560142Y-65508095D01*
X227464904Y-65555714D01*
X227226809Y-65555714D01*
X227131571Y-65508095D01*
X227083952Y-65460476D01*
X227036333Y-65365238D01*
X227036333Y-65174761D01*
X227083952Y-65079523D01*
X227131571Y-65031904D01*
X227226809Y-64984285D01*
X198477095Y-73292304D02*
X198477095Y-72292304D01*
X197905666Y-73292304D02*
X198334238Y-72720876D01*
X197905666Y-72292304D02*
X198477095Y-72863733D01*
X197000904Y-72292304D02*
X197477095Y-72292304D01*
X197524714Y-72768495D01*
X197477095Y-72720876D01*
X197381857Y-72673257D01*
X197143761Y-72673257D01*
X197048523Y-72720876D01*
X197000904Y-72768495D01*
X196953285Y-72863733D01*
X196953285Y-73101828D01*
X197000904Y-73197066D01*
X197048523Y-73244685D01*
X197143761Y-73292304D01*
X197381857Y-73292304D01*
X197477095Y-73244685D01*
X197524714Y-73197066D01*
X166282595Y-73292304D02*
X166282595Y-72292304D01*
X165711166Y-73292304D02*
X166139738Y-72720876D01*
X165711166Y-72292304D02*
X166282595Y-72863733D01*
X164854023Y-72625638D02*
X164854023Y-73292304D01*
X165092119Y-72244685D02*
X165330214Y-72958971D01*
X164711166Y-72958971D01*
X101893595Y-73292304D02*
X101893595Y-72292304D01*
X101322166Y-73292304D02*
X101750738Y-72720876D01*
X101322166Y-72292304D02*
X101893595Y-72863733D01*
X100941214Y-72387543D02*
X100893595Y-72339924D01*
X100798357Y-72292304D01*
X100560261Y-72292304D01*
X100465023Y-72339924D01*
X100417404Y-72387543D01*
X100369785Y-72482781D01*
X100369785Y-72578019D01*
X100417404Y-72720876D01*
X100988833Y-73292304D01*
X100369785Y-73292304D01*
X69699095Y-73292304D02*
X69699095Y-72292304D01*
X69127666Y-73292304D02*
X69556238Y-72720876D01*
X69127666Y-72292304D02*
X69699095Y-72863733D01*
X68175285Y-73292304D02*
X68746714Y-73292304D01*
X68461000Y-73292304D02*
X68461000Y-72292304D01*
X68556238Y-72435162D01*
X68651476Y-72530400D01*
X68746714Y-72578019D01*
D13*
X194202857Y-145688857D02*
X193988571Y-145760285D01*
X193917142Y-145831714D01*
X193845714Y-145974571D01*
X193845714Y-146188857D01*
X193917142Y-146331714D01*
X193988571Y-146403142D01*
X194131428Y-146474571D01*
X194702857Y-146474571D01*
X194702857Y-144974571D01*
X194202857Y-144974571D01*
X194060000Y-145046000D01*
X193988571Y-145117428D01*
X193917142Y-145260285D01*
X193917142Y-145403142D01*
X193988571Y-145546000D01*
X194060000Y-145617428D01*
X194202857Y-145688857D01*
X194702857Y-145688857D01*
X119737142Y-147824000D02*
X119022857Y-147824000D01*
X119880000Y-148252571D02*
X119380000Y-146752571D01*
X118880000Y-148252571D01*
D10*
X114720666Y-147169142D02*
X114768285Y-147216761D01*
X114911142Y-147264380D01*
X115006380Y-147264380D01*
X115149238Y-147216761D01*
X115244476Y-147121523D01*
X115292095Y-147026285D01*
X115339714Y-146835809D01*
X115339714Y-146692952D01*
X115292095Y-146502476D01*
X115244476Y-146407238D01*
X115149238Y-146312000D01*
X115006380Y-146264380D01*
X114911142Y-146264380D01*
X114768285Y-146312000D01*
X114720666Y-146359619D01*
X114339714Y-146359619D02*
X114292095Y-146312000D01*
X114196857Y-146264380D01*
X113958761Y-146264380D01*
X113863523Y-146312000D01*
X113815904Y-146359619D01*
X113768285Y-146454857D01*
X113768285Y-146550095D01*
X113815904Y-146692952D01*
X114387333Y-147264380D01*
X113768285Y-147264380D01*
X108370666Y-147169142D02*
X108418285Y-147216761D01*
X108561142Y-147264380D01*
X108656380Y-147264380D01*
X108799238Y-147216761D01*
X108894476Y-147121523D01*
X108942095Y-147026285D01*
X108989714Y-146835809D01*
X108989714Y-146692952D01*
X108942095Y-146502476D01*
X108894476Y-146407238D01*
X108799238Y-146312000D01*
X108656380Y-146264380D01*
X108561142Y-146264380D01*
X108418285Y-146312000D01*
X108370666Y-146359619D01*
X107418285Y-147264380D02*
X107989714Y-147264380D01*
X107704000Y-147264380D02*
X107704000Y-146264380D01*
X107799238Y-146407238D01*
X107894476Y-146502476D01*
X107989714Y-146550095D01*
M02*
