%TF.GenerationSoftware,KiCad,Pcbnew,(6.0.0-rc1-dev-882-gdbc9130da)*%
%TF.CreationDate,2019-08-28T17:07:57+08:00*%
%TF.ProjectId,AntennaSwitch_6x2_RelayBoard,416E74656E6E615377697463685F3678,rev?*%
%TF.SameCoordinates,Original*%
%TF.FileFunction,Soldermask,Bot*%
%TF.FilePolarity,Negative*%
%FSLAX46Y46*%
G04 Gerber Fmt 4.6, Leading zero omitted, Abs format (unit mm)*
G04 Created by KiCad (PCBNEW (6.0.0-rc1-dev-882-gdbc9130da)) date 2019/8/28 17:07:57*
%MOMM*%
%LPD*%
G01*
G04 APERTURE LIST*
%ADD10C,4.000000*%
%ADD11C,0.350000*%
G04 APERTURE END LIST*
D10*
X85090000Y-119380000D02*
X246634000Y-119380000D01*
X56134000Y-78486000D02*
X208026000Y-78486000D01*
X55118000Y-44958000D02*
X245872000Y-44958000D01*
D11*
G36*
X150916200Y-153634000D02*
X149276200Y-153634000D01*
X149276200Y-152944000D01*
X150916200Y-152944000D01*
X150916200Y-153634000D01*
X150916200Y-153634000D01*
G37*
G36*
X145516200Y-153634000D02*
X143876200Y-153634000D01*
X143876200Y-152944000D01*
X145516200Y-152944000D01*
X145516200Y-153634000D01*
X145516200Y-153634000D01*
G37*
G36*
X183555200Y-153634000D02*
X181915200Y-153634000D01*
X181915200Y-152944000D01*
X183555200Y-152944000D01*
X183555200Y-153634000D01*
X183555200Y-153634000D01*
G37*
G36*
X178155200Y-153634000D02*
X176515200Y-153634000D01*
X176515200Y-152944000D01*
X178155200Y-152944000D01*
X178155200Y-153634000D01*
X178155200Y-153634000D01*
G37*
G36*
X245889941Y-147066248D02*
X245889943Y-147066249D01*
X245889944Y-147066249D01*
X246445190Y-147296239D01*
X246445191Y-147296240D01*
X246944902Y-147630136D01*
X247369864Y-148055098D01*
X247369866Y-148055101D01*
X247703761Y-148554810D01*
X247927228Y-149094308D01*
X247933752Y-149110059D01*
X248051000Y-149699501D01*
X248051000Y-150300499D01*
X247944246Y-150837186D01*
X247933751Y-150889944D01*
X247703761Y-151445190D01*
X247608892Y-151587171D01*
X247369864Y-151944902D01*
X246944902Y-152369864D01*
X246944899Y-152369866D01*
X246445190Y-152703761D01*
X245889944Y-152933751D01*
X245889943Y-152933751D01*
X245889941Y-152933752D01*
X245300499Y-153051000D01*
X244699501Y-153051000D01*
X244110059Y-152933752D01*
X244110057Y-152933751D01*
X244110056Y-152933751D01*
X243554810Y-152703761D01*
X243055101Y-152369866D01*
X243055098Y-152369864D01*
X242630136Y-151944902D01*
X242391108Y-151587171D01*
X242296239Y-151445190D01*
X242066249Y-150889944D01*
X242055755Y-150837186D01*
X241949000Y-150300499D01*
X241949000Y-149699501D01*
X242066248Y-149110059D01*
X242072772Y-149094308D01*
X242296239Y-148554810D01*
X242630134Y-148055101D01*
X242630136Y-148055098D01*
X243055098Y-147630136D01*
X243554809Y-147296240D01*
X243554810Y-147296239D01*
X244110056Y-147066249D01*
X244110057Y-147066249D01*
X244110059Y-147066248D01*
X244699501Y-146949000D01*
X245300499Y-146949000D01*
X245889941Y-147066248D01*
X245889941Y-147066248D01*
G37*
G36*
X172912200Y-153024000D02*
X172172200Y-153024000D01*
X172172200Y-151334000D01*
X172912200Y-151334000D01*
X172912200Y-153024000D01*
X172912200Y-153024000D01*
G37*
G36*
X155386200Y-153024000D02*
X154646200Y-153024000D01*
X154646200Y-151334000D01*
X155386200Y-151334000D01*
X155386200Y-153024000D01*
X155386200Y-153024000D01*
G37*
G36*
X157926200Y-153024000D02*
X157186200Y-153024000D01*
X157186200Y-151334000D01*
X157926200Y-151334000D01*
X157926200Y-153024000D01*
X157926200Y-153024000D01*
G37*
G36*
X154116200Y-153024000D02*
X153376200Y-153024000D01*
X153376200Y-151334000D01*
X154116200Y-151334000D01*
X154116200Y-153024000D01*
X154116200Y-153024000D01*
G37*
G36*
X174182200Y-153024000D02*
X173442200Y-153024000D01*
X173442200Y-151334000D01*
X174182200Y-151334000D01*
X174182200Y-153024000D01*
X174182200Y-153024000D01*
G37*
G36*
X171642200Y-153024000D02*
X170902200Y-153024000D01*
X170902200Y-151334000D01*
X171642200Y-151334000D01*
X171642200Y-153024000D01*
X171642200Y-153024000D01*
G37*
G36*
X170372200Y-153024000D02*
X169632200Y-153024000D01*
X169632200Y-151334000D01*
X170372200Y-151334000D01*
X170372200Y-153024000D01*
X170372200Y-153024000D01*
G37*
G36*
X156656200Y-153024000D02*
X155916200Y-153024000D01*
X155916200Y-151334000D01*
X156656200Y-151334000D01*
X156656200Y-153024000D01*
X156656200Y-153024000D01*
G37*
G36*
X166562200Y-153024000D02*
X165822200Y-153024000D01*
X165822200Y-151334000D01*
X166562200Y-151334000D01*
X166562200Y-153024000D01*
X166562200Y-153024000D01*
G37*
G36*
X165292200Y-153024000D02*
X164552200Y-153024000D01*
X164552200Y-151334000D01*
X165292200Y-151334000D01*
X165292200Y-153024000D01*
X165292200Y-153024000D01*
G37*
G36*
X169102200Y-153024000D02*
X168362200Y-153024000D01*
X168362200Y-151334000D01*
X169102200Y-151334000D01*
X169102200Y-153024000D01*
X169102200Y-153024000D01*
G37*
G36*
X159196200Y-153024000D02*
X158456200Y-153024000D01*
X158456200Y-151334000D01*
X159196200Y-151334000D01*
X159196200Y-153024000D01*
X159196200Y-153024000D01*
G37*
G36*
X160466200Y-153024000D02*
X159726200Y-153024000D01*
X159726200Y-151334000D01*
X160466200Y-151334000D01*
X160466200Y-153024000D01*
X160466200Y-153024000D01*
G37*
G36*
X161736200Y-153024000D02*
X160996200Y-153024000D01*
X160996200Y-151334000D01*
X161736200Y-151334000D01*
X161736200Y-153024000D01*
X161736200Y-153024000D01*
G37*
G36*
X163006200Y-153024000D02*
X162266200Y-153024000D01*
X162266200Y-151334000D01*
X163006200Y-151334000D01*
X163006200Y-153024000D01*
X163006200Y-153024000D01*
G37*
G36*
X167832200Y-153024000D02*
X167092200Y-153024000D01*
X167092200Y-151334000D01*
X167832200Y-151334000D01*
X167832200Y-153024000D01*
X167832200Y-153024000D01*
G37*
G36*
X111087000Y-152514400D02*
X109385000Y-152514400D01*
X109385000Y-150812400D01*
X111087000Y-150812400D01*
X111087000Y-152514400D01*
X111087000Y-152514400D01*
G37*
G36*
X117310000Y-152514400D02*
X115608000Y-152514400D01*
X115608000Y-150812400D01*
X117310000Y-150812400D01*
X117310000Y-152514400D01*
X117310000Y-152514400D01*
G37*
G36*
X150916200Y-152364000D02*
X149276200Y-152364000D01*
X149276200Y-151674000D01*
X150916200Y-151674000D01*
X150916200Y-152364000D01*
X150916200Y-152364000D01*
G37*
G36*
X145516200Y-152364000D02*
X143876200Y-152364000D01*
X143876200Y-151674000D01*
X145516200Y-151674000D01*
X145516200Y-152364000D01*
X145516200Y-152364000D01*
G37*
G36*
X183555200Y-152364000D02*
X181915200Y-152364000D01*
X181915200Y-151674000D01*
X183555200Y-151674000D01*
X183555200Y-152364000D01*
X183555200Y-152364000D01*
G37*
G36*
X178155200Y-152364000D02*
X176515200Y-152364000D01*
X176515200Y-151674000D01*
X178155200Y-151674000D01*
X178155200Y-152364000D01*
X178155200Y-152364000D01*
G37*
G36*
X195989231Y-148524207D02*
X196187345Y-148584305D01*
X196369929Y-148681897D01*
X196529965Y-148813235D01*
X196529966Y-148813237D01*
X196529968Y-148813238D01*
X196608768Y-148909257D01*
X196661303Y-148973271D01*
X196758895Y-149155854D01*
X196818993Y-149353968D01*
X196834200Y-149508370D01*
X196834200Y-150211629D01*
X196818993Y-150366031D01*
X196807475Y-150404000D01*
X196758895Y-150564147D01*
X196725997Y-150625694D01*
X196661303Y-150746729D01*
X196529965Y-150906765D01*
X196369929Y-151038103D01*
X196187346Y-151135695D01*
X195989232Y-151195793D01*
X195783200Y-151216085D01*
X195577169Y-151195793D01*
X195379055Y-151135695D01*
X195196472Y-151038103D01*
X195036436Y-150906765D01*
X194979334Y-150837186D01*
X194905099Y-150746731D01*
X194807506Y-150564148D01*
X194787473Y-150498108D01*
X194747407Y-150366032D01*
X194732200Y-150211630D01*
X194732200Y-149508371D01*
X194747407Y-149353969D01*
X194807505Y-149155855D01*
X194905097Y-148973271D01*
X195036435Y-148813235D01*
X195036437Y-148813234D01*
X195036438Y-148813232D01*
X195196469Y-148681899D01*
X195196471Y-148681897D01*
X195379054Y-148584305D01*
X195577168Y-148524207D01*
X195783200Y-148503915D01*
X195989231Y-148524207D01*
X195989231Y-148524207D01*
G37*
G36*
X124615231Y-148524207D02*
X124813345Y-148584305D01*
X124995929Y-148681897D01*
X125155965Y-148813235D01*
X125155966Y-148813237D01*
X125155968Y-148813238D01*
X125234768Y-148909257D01*
X125287303Y-148973271D01*
X125384895Y-149155854D01*
X125444993Y-149353968D01*
X125460200Y-149508370D01*
X125460200Y-150211629D01*
X125444993Y-150366031D01*
X125433475Y-150404000D01*
X125384895Y-150564147D01*
X125351997Y-150625694D01*
X125287303Y-150746729D01*
X125155965Y-150906765D01*
X124995929Y-151038103D01*
X124813346Y-151135695D01*
X124615232Y-151195793D01*
X124409200Y-151216085D01*
X124203169Y-151195793D01*
X124005055Y-151135695D01*
X123822472Y-151038103D01*
X123662436Y-150906765D01*
X123605334Y-150837186D01*
X123531099Y-150746731D01*
X123433506Y-150564148D01*
X123413473Y-150498108D01*
X123373407Y-150366032D01*
X123358200Y-150211630D01*
X123358200Y-149508371D01*
X123373407Y-149353969D01*
X123433505Y-149155855D01*
X123531097Y-148973271D01*
X123662435Y-148813235D01*
X123662437Y-148813234D01*
X123662438Y-148813232D01*
X123822469Y-148681899D01*
X123822471Y-148681897D01*
X124005054Y-148584305D01*
X124203168Y-148524207D01*
X124409200Y-148503915D01*
X124615231Y-148524207D01*
X124615231Y-148524207D01*
G37*
G36*
X132235231Y-148524207D02*
X132433345Y-148584305D01*
X132615929Y-148681897D01*
X132775965Y-148813235D01*
X132775966Y-148813237D01*
X132775968Y-148813238D01*
X132854768Y-148909257D01*
X132907303Y-148973271D01*
X133004895Y-149155854D01*
X133064993Y-149353968D01*
X133080200Y-149508370D01*
X133080200Y-150211629D01*
X133064993Y-150366031D01*
X133053475Y-150404000D01*
X133004895Y-150564147D01*
X132971997Y-150625694D01*
X132907303Y-150746729D01*
X132775965Y-150906765D01*
X132615929Y-151038103D01*
X132433346Y-151135695D01*
X132235232Y-151195793D01*
X132029200Y-151216085D01*
X131823169Y-151195793D01*
X131625055Y-151135695D01*
X131442472Y-151038103D01*
X131282436Y-150906765D01*
X131225334Y-150837186D01*
X131151099Y-150746731D01*
X131053506Y-150564148D01*
X131033473Y-150498108D01*
X130993407Y-150366032D01*
X130978200Y-150211630D01*
X130978200Y-149508371D01*
X130993407Y-149353969D01*
X131053505Y-149155855D01*
X131151097Y-148973271D01*
X131282435Y-148813235D01*
X131282437Y-148813234D01*
X131282438Y-148813232D01*
X131442469Y-148681899D01*
X131442471Y-148681897D01*
X131625054Y-148584305D01*
X131823168Y-148524207D01*
X132029200Y-148503915D01*
X132235231Y-148524207D01*
X132235231Y-148524207D01*
G37*
G36*
X134775231Y-148524207D02*
X134973345Y-148584305D01*
X135155929Y-148681897D01*
X135315965Y-148813235D01*
X135315966Y-148813237D01*
X135315968Y-148813238D01*
X135394768Y-148909257D01*
X135447303Y-148973271D01*
X135544895Y-149155854D01*
X135604993Y-149353968D01*
X135620200Y-149508370D01*
X135620200Y-150211629D01*
X135604993Y-150366031D01*
X135593475Y-150404000D01*
X135544895Y-150564147D01*
X135511997Y-150625694D01*
X135447303Y-150746729D01*
X135315965Y-150906765D01*
X135155929Y-151038103D01*
X134973346Y-151135695D01*
X134775232Y-151195793D01*
X134569200Y-151216085D01*
X134363169Y-151195793D01*
X134165055Y-151135695D01*
X133982472Y-151038103D01*
X133822436Y-150906765D01*
X133765334Y-150837186D01*
X133691099Y-150746731D01*
X133593506Y-150564148D01*
X133573473Y-150498108D01*
X133533407Y-150366032D01*
X133518200Y-150211630D01*
X133518200Y-149508371D01*
X133533407Y-149353969D01*
X133593505Y-149155855D01*
X133691097Y-148973271D01*
X133822435Y-148813235D01*
X133822437Y-148813234D01*
X133822438Y-148813232D01*
X133982469Y-148681899D01*
X133982471Y-148681897D01*
X134165054Y-148584305D01*
X134363168Y-148524207D01*
X134569200Y-148503915D01*
X134775231Y-148524207D01*
X134775231Y-148524207D01*
G37*
G36*
X139855231Y-148524207D02*
X140053345Y-148584305D01*
X140235929Y-148681897D01*
X140395965Y-148813235D01*
X140395966Y-148813237D01*
X140395968Y-148813238D01*
X140474768Y-148909257D01*
X140527303Y-148973271D01*
X140624895Y-149155854D01*
X140684993Y-149353968D01*
X140700200Y-149508370D01*
X140700200Y-150211629D01*
X140684993Y-150366031D01*
X140673475Y-150404000D01*
X140624895Y-150564147D01*
X140591997Y-150625694D01*
X140527303Y-150746729D01*
X140395965Y-150906765D01*
X140235929Y-151038103D01*
X140053346Y-151135695D01*
X139855232Y-151195793D01*
X139649200Y-151216085D01*
X139443169Y-151195793D01*
X139245055Y-151135695D01*
X139062472Y-151038103D01*
X138902436Y-150906765D01*
X138845334Y-150837186D01*
X138771099Y-150746731D01*
X138673506Y-150564148D01*
X138653473Y-150498108D01*
X138613407Y-150366032D01*
X138598200Y-150211630D01*
X138598200Y-149508371D01*
X138613407Y-149353969D01*
X138673505Y-149155855D01*
X138771097Y-148973271D01*
X138902435Y-148813235D01*
X138902437Y-148813234D01*
X138902438Y-148813232D01*
X139062469Y-148681899D01*
X139062471Y-148681897D01*
X139245054Y-148584305D01*
X139443168Y-148524207D01*
X139649200Y-148503915D01*
X139855231Y-148524207D01*
X139855231Y-148524207D01*
G37*
G36*
X198529231Y-148524207D02*
X198727345Y-148584305D01*
X198909929Y-148681897D01*
X199069965Y-148813235D01*
X199069966Y-148813237D01*
X199069968Y-148813238D01*
X199148768Y-148909257D01*
X199201303Y-148973271D01*
X199298895Y-149155854D01*
X199358993Y-149353968D01*
X199374200Y-149508370D01*
X199374200Y-150211629D01*
X199358993Y-150366031D01*
X199347475Y-150404000D01*
X199298895Y-150564147D01*
X199265997Y-150625694D01*
X199201303Y-150746729D01*
X199069965Y-150906765D01*
X198909929Y-151038103D01*
X198727346Y-151135695D01*
X198529232Y-151195793D01*
X198323200Y-151216085D01*
X198117169Y-151195793D01*
X197919055Y-151135695D01*
X197736472Y-151038103D01*
X197576436Y-150906765D01*
X197519334Y-150837186D01*
X197445099Y-150746731D01*
X197347506Y-150564148D01*
X197327473Y-150498108D01*
X197287407Y-150366032D01*
X197272200Y-150211630D01*
X197272200Y-149508371D01*
X197287407Y-149353969D01*
X197347505Y-149155855D01*
X197445097Y-148973271D01*
X197576435Y-148813235D01*
X197576437Y-148813234D01*
X197576438Y-148813232D01*
X197736469Y-148681899D01*
X197736471Y-148681897D01*
X197919054Y-148584305D01*
X198117168Y-148524207D01*
X198323200Y-148503915D01*
X198529231Y-148524207D01*
X198529231Y-148524207D01*
G37*
G36*
X201069231Y-148524207D02*
X201267345Y-148584305D01*
X201449929Y-148681897D01*
X201609965Y-148813235D01*
X201609966Y-148813237D01*
X201609968Y-148813238D01*
X201688768Y-148909257D01*
X201741303Y-148973271D01*
X201838895Y-149155854D01*
X201898993Y-149353968D01*
X201914200Y-149508370D01*
X201914200Y-150211629D01*
X201898993Y-150366031D01*
X201887475Y-150404000D01*
X201838895Y-150564147D01*
X201805997Y-150625694D01*
X201741303Y-150746729D01*
X201609965Y-150906765D01*
X201449929Y-151038103D01*
X201267346Y-151135695D01*
X201069232Y-151195793D01*
X200863200Y-151216085D01*
X200657169Y-151195793D01*
X200459055Y-151135695D01*
X200276472Y-151038103D01*
X200116436Y-150906765D01*
X200059334Y-150837186D01*
X199985099Y-150746731D01*
X199887506Y-150564148D01*
X199867473Y-150498108D01*
X199827407Y-150366032D01*
X199812200Y-150211630D01*
X199812200Y-149508371D01*
X199827407Y-149353969D01*
X199887505Y-149155855D01*
X199985097Y-148973271D01*
X200116435Y-148813235D01*
X200116437Y-148813234D01*
X200116438Y-148813232D01*
X200276469Y-148681899D01*
X200276471Y-148681897D01*
X200459054Y-148584305D01*
X200657168Y-148524207D01*
X200863200Y-148503915D01*
X201069231Y-148524207D01*
X201069231Y-148524207D01*
G37*
G36*
X203609231Y-148524207D02*
X203807345Y-148584305D01*
X203989929Y-148681897D01*
X204149965Y-148813235D01*
X204149966Y-148813237D01*
X204149968Y-148813238D01*
X204228768Y-148909257D01*
X204281303Y-148973271D01*
X204378895Y-149155854D01*
X204438993Y-149353968D01*
X204454200Y-149508370D01*
X204454200Y-150211629D01*
X204438993Y-150366031D01*
X204427475Y-150404000D01*
X204378895Y-150564147D01*
X204345997Y-150625694D01*
X204281303Y-150746729D01*
X204149965Y-150906765D01*
X203989929Y-151038103D01*
X203807346Y-151135695D01*
X203609232Y-151195793D01*
X203403200Y-151216085D01*
X203197169Y-151195793D01*
X202999055Y-151135695D01*
X202816472Y-151038103D01*
X202656436Y-150906765D01*
X202599334Y-150837186D01*
X202525099Y-150746731D01*
X202427506Y-150564148D01*
X202407473Y-150498108D01*
X202367407Y-150366032D01*
X202352200Y-150211630D01*
X202352200Y-149508371D01*
X202367407Y-149353969D01*
X202427505Y-149155855D01*
X202525097Y-148973271D01*
X202656435Y-148813235D01*
X202656437Y-148813234D01*
X202656438Y-148813232D01*
X202816469Y-148681899D01*
X202816471Y-148681897D01*
X202999054Y-148584305D01*
X203197168Y-148524207D01*
X203403200Y-148503915D01*
X203609231Y-148524207D01*
X203609231Y-148524207D01*
G37*
G36*
X206149231Y-148524207D02*
X206347345Y-148584305D01*
X206529929Y-148681897D01*
X206689965Y-148813235D01*
X206689966Y-148813237D01*
X206689968Y-148813238D01*
X206768768Y-148909257D01*
X206821303Y-148973271D01*
X206918895Y-149155854D01*
X206978993Y-149353968D01*
X206994200Y-149508370D01*
X206994200Y-150211629D01*
X206978993Y-150366031D01*
X206967475Y-150404000D01*
X206918895Y-150564147D01*
X206885997Y-150625694D01*
X206821303Y-150746729D01*
X206689965Y-150906765D01*
X206529929Y-151038103D01*
X206347346Y-151135695D01*
X206149232Y-151195793D01*
X205943200Y-151216085D01*
X205737169Y-151195793D01*
X205539055Y-151135695D01*
X205356472Y-151038103D01*
X205196436Y-150906765D01*
X205139334Y-150837186D01*
X205065099Y-150746731D01*
X204967506Y-150564148D01*
X204947473Y-150498108D01*
X204907407Y-150366032D01*
X204892200Y-150211630D01*
X204892200Y-149508371D01*
X204907407Y-149353969D01*
X204967505Y-149155855D01*
X205065097Y-148973271D01*
X205196435Y-148813235D01*
X205196437Y-148813234D01*
X205196438Y-148813232D01*
X205356469Y-148681899D01*
X205356471Y-148681897D01*
X205539054Y-148584305D01*
X205737168Y-148524207D01*
X205943200Y-148503915D01*
X206149231Y-148524207D01*
X206149231Y-148524207D01*
G37*
G36*
X137315231Y-148524207D02*
X137513345Y-148584305D01*
X137695929Y-148681897D01*
X137855965Y-148813235D01*
X137855966Y-148813237D01*
X137855968Y-148813238D01*
X137934768Y-148909257D01*
X137987303Y-148973271D01*
X138084895Y-149155854D01*
X138144993Y-149353968D01*
X138160200Y-149508370D01*
X138160200Y-150211629D01*
X138144993Y-150366031D01*
X138133475Y-150404000D01*
X138084895Y-150564147D01*
X138051997Y-150625694D01*
X137987303Y-150746729D01*
X137855965Y-150906765D01*
X137695929Y-151038103D01*
X137513346Y-151135695D01*
X137315232Y-151195793D01*
X137109200Y-151216085D01*
X136903169Y-151195793D01*
X136705055Y-151135695D01*
X136522472Y-151038103D01*
X136362436Y-150906765D01*
X136305334Y-150837186D01*
X136231099Y-150746731D01*
X136133506Y-150564148D01*
X136113473Y-150498108D01*
X136073407Y-150366032D01*
X136058200Y-150211630D01*
X136058200Y-149508371D01*
X136073407Y-149353969D01*
X136133505Y-149155855D01*
X136231097Y-148973271D01*
X136362435Y-148813235D01*
X136362437Y-148813234D01*
X136362438Y-148813232D01*
X136522469Y-148681899D01*
X136522471Y-148681897D01*
X136705054Y-148584305D01*
X136903168Y-148524207D01*
X137109200Y-148503915D01*
X137315231Y-148524207D01*
X137315231Y-148524207D01*
G37*
G36*
X193429624Y-148522760D02*
X193429627Y-148522761D01*
X193429628Y-148522761D01*
X193608892Y-148577140D01*
X193608894Y-148577141D01*
X193608897Y-148577142D01*
X193774104Y-148665446D01*
X193918912Y-148784288D01*
X194037752Y-148929095D01*
X194037753Y-148929097D01*
X194126060Y-149094307D01*
X194172126Y-149246168D01*
X194180440Y-149273575D01*
X194194200Y-149413282D01*
X194194200Y-150306717D01*
X194180440Y-150446426D01*
X194126060Y-150625694D01*
X194037752Y-150790905D01*
X193918912Y-150935712D01*
X193774105Y-151054552D01*
X193774103Y-151054553D01*
X193608893Y-151142860D01*
X193429629Y-151197239D01*
X193429628Y-151197239D01*
X193429625Y-151197240D01*
X193243200Y-151215601D01*
X193056776Y-151197240D01*
X193056773Y-151197239D01*
X193056772Y-151197239D01*
X192877508Y-151142860D01*
X192712298Y-151054553D01*
X192712296Y-151054552D01*
X192567489Y-150935712D01*
X192448649Y-150790905D01*
X192360340Y-150625691D01*
X192305960Y-150446430D01*
X192292200Y-150306718D01*
X192292200Y-149413283D01*
X192305960Y-149273576D01*
X192305961Y-149273572D01*
X192360340Y-149094308D01*
X192360341Y-149094306D01*
X192360342Y-149094303D01*
X192448646Y-148929096D01*
X192567488Y-148784288D01*
X192712295Y-148665448D01*
X192877505Y-148577141D01*
X192877507Y-148577140D01*
X193056771Y-148522761D01*
X193056772Y-148522761D01*
X193056775Y-148522760D01*
X193243200Y-148504399D01*
X193429624Y-148522760D01*
X193429624Y-148522760D01*
G37*
G36*
X190889624Y-148522760D02*
X190889627Y-148522761D01*
X190889628Y-148522761D01*
X191068892Y-148577140D01*
X191068894Y-148577141D01*
X191068897Y-148577142D01*
X191234104Y-148665446D01*
X191378912Y-148784288D01*
X191497752Y-148929095D01*
X191497753Y-148929097D01*
X191586060Y-149094307D01*
X191632126Y-149246168D01*
X191640440Y-149273575D01*
X191654200Y-149413282D01*
X191654200Y-150306717D01*
X191640440Y-150446426D01*
X191586060Y-150625694D01*
X191497752Y-150790905D01*
X191378912Y-150935712D01*
X191234105Y-151054552D01*
X191234103Y-151054553D01*
X191068893Y-151142860D01*
X190889629Y-151197239D01*
X190889628Y-151197239D01*
X190889625Y-151197240D01*
X190703200Y-151215601D01*
X190516776Y-151197240D01*
X190516773Y-151197239D01*
X190516772Y-151197239D01*
X190337508Y-151142860D01*
X190172298Y-151054553D01*
X190172296Y-151054552D01*
X190027489Y-150935712D01*
X189908649Y-150790905D01*
X189820340Y-150625691D01*
X189765960Y-150446430D01*
X189752200Y-150306718D01*
X189752200Y-149413283D01*
X189765960Y-149273576D01*
X189765961Y-149273572D01*
X189820340Y-149094308D01*
X189820341Y-149094306D01*
X189820342Y-149094303D01*
X189908646Y-148929096D01*
X190027488Y-148784288D01*
X190172295Y-148665448D01*
X190337505Y-148577141D01*
X190337507Y-148577140D01*
X190516771Y-148522761D01*
X190516772Y-148522761D01*
X190516775Y-148522760D01*
X190703200Y-148504399D01*
X190889624Y-148522760D01*
X190889624Y-148522760D01*
G37*
G36*
X127135624Y-148522760D02*
X127135627Y-148522761D01*
X127135628Y-148522761D01*
X127314892Y-148577140D01*
X127314894Y-148577141D01*
X127314897Y-148577142D01*
X127480104Y-148665446D01*
X127624912Y-148784288D01*
X127743752Y-148929095D01*
X127743753Y-148929097D01*
X127832060Y-149094307D01*
X127878126Y-149246168D01*
X127886440Y-149273575D01*
X127900200Y-149413282D01*
X127900200Y-150306717D01*
X127886440Y-150446426D01*
X127832060Y-150625694D01*
X127743752Y-150790905D01*
X127624912Y-150935712D01*
X127480105Y-151054552D01*
X127480103Y-151054553D01*
X127314893Y-151142860D01*
X127135629Y-151197239D01*
X127135628Y-151197239D01*
X127135625Y-151197240D01*
X126949200Y-151215601D01*
X126762776Y-151197240D01*
X126762773Y-151197239D01*
X126762772Y-151197239D01*
X126583508Y-151142860D01*
X126418298Y-151054553D01*
X126418296Y-151054552D01*
X126273489Y-150935712D01*
X126154649Y-150790905D01*
X126066340Y-150625691D01*
X126011960Y-150446430D01*
X125998200Y-150306718D01*
X125998200Y-149413283D01*
X126011960Y-149273576D01*
X126011961Y-149273572D01*
X126066340Y-149094308D01*
X126066341Y-149094306D01*
X126066342Y-149094303D01*
X126154646Y-148929096D01*
X126273488Y-148784288D01*
X126418295Y-148665448D01*
X126583505Y-148577141D01*
X126583507Y-148577140D01*
X126762771Y-148522761D01*
X126762772Y-148522761D01*
X126762775Y-148522760D01*
X126949200Y-148504399D01*
X127135624Y-148522760D01*
X127135624Y-148522760D01*
G37*
G36*
X129675624Y-148522760D02*
X129675627Y-148522761D01*
X129675628Y-148522761D01*
X129854892Y-148577140D01*
X129854894Y-148577141D01*
X129854897Y-148577142D01*
X130020104Y-148665446D01*
X130164912Y-148784288D01*
X130283752Y-148929095D01*
X130283753Y-148929097D01*
X130372060Y-149094307D01*
X130418126Y-149246168D01*
X130426440Y-149273575D01*
X130440200Y-149413282D01*
X130440200Y-150306717D01*
X130426440Y-150446426D01*
X130372060Y-150625694D01*
X130283752Y-150790905D01*
X130164912Y-150935712D01*
X130020105Y-151054552D01*
X130020103Y-151054553D01*
X129854893Y-151142860D01*
X129675629Y-151197239D01*
X129675628Y-151197239D01*
X129675625Y-151197240D01*
X129489200Y-151215601D01*
X129302776Y-151197240D01*
X129302773Y-151197239D01*
X129302772Y-151197239D01*
X129123508Y-151142860D01*
X128958298Y-151054553D01*
X128958296Y-151054552D01*
X128813489Y-150935712D01*
X128694649Y-150790905D01*
X128606340Y-150625691D01*
X128551960Y-150446430D01*
X128538200Y-150306718D01*
X128538200Y-149413283D01*
X128551960Y-149273576D01*
X128551961Y-149273572D01*
X128606340Y-149094308D01*
X128606341Y-149094306D01*
X128606342Y-149094303D01*
X128694646Y-148929096D01*
X128813488Y-148784288D01*
X128958295Y-148665448D01*
X129123505Y-148577141D01*
X129123507Y-148577140D01*
X129302771Y-148522761D01*
X129302772Y-148522761D01*
X129302775Y-148522760D01*
X129489200Y-148504399D01*
X129675624Y-148522760D01*
X129675624Y-148522760D01*
G37*
G36*
X122920200Y-151211000D02*
X120818200Y-151211000D01*
X120818200Y-148509000D01*
X122920200Y-148509000D01*
X122920200Y-151211000D01*
X122920200Y-151211000D01*
G37*
G36*
X189214200Y-151211000D02*
X187112200Y-151211000D01*
X187112200Y-148509000D01*
X189214200Y-148509000D01*
X189214200Y-151211000D01*
X189214200Y-151211000D01*
G37*
G36*
X150916200Y-151094000D02*
X149276200Y-151094000D01*
X149276200Y-150404000D01*
X150916200Y-150404000D01*
X150916200Y-151094000D01*
X150916200Y-151094000D01*
G37*
G36*
X145516200Y-151094000D02*
X143876200Y-151094000D01*
X143876200Y-150404000D01*
X145516200Y-150404000D01*
X145516200Y-151094000D01*
X145516200Y-151094000D01*
G37*
G36*
X183555200Y-151094000D02*
X181915200Y-151094000D01*
X181915200Y-150404000D01*
X183555200Y-150404000D01*
X183555200Y-151094000D01*
X183555200Y-151094000D01*
G37*
G36*
X178155200Y-151094000D02*
X176515200Y-151094000D01*
X176515200Y-150404000D01*
X178155200Y-150404000D01*
X178155200Y-151094000D01*
X178155200Y-151094000D01*
G37*
G36*
X110484228Y-148345103D02*
X110639100Y-148409253D01*
X110778481Y-148502385D01*
X110897015Y-148620919D01*
X110990147Y-148760300D01*
X111054297Y-148915172D01*
X111087000Y-149079584D01*
X111087000Y-149247216D01*
X111054297Y-149411628D01*
X110990147Y-149566500D01*
X110897015Y-149705881D01*
X110778481Y-149824415D01*
X110639100Y-149917547D01*
X110484228Y-149981697D01*
X110319816Y-150014400D01*
X110152184Y-150014400D01*
X109987772Y-149981697D01*
X109832900Y-149917547D01*
X109693519Y-149824415D01*
X109574985Y-149705881D01*
X109481853Y-149566500D01*
X109417703Y-149411628D01*
X109385000Y-149247216D01*
X109385000Y-149079584D01*
X109417703Y-148915172D01*
X109481853Y-148760300D01*
X109574985Y-148620919D01*
X109693519Y-148502385D01*
X109832900Y-148409253D01*
X109987772Y-148345103D01*
X110152184Y-148312400D01*
X110319816Y-148312400D01*
X110484228Y-148345103D01*
X110484228Y-148345103D01*
G37*
G36*
X116707228Y-148345103D02*
X116862100Y-148409253D01*
X117001481Y-148502385D01*
X117120015Y-148620919D01*
X117213147Y-148760300D01*
X117277297Y-148915172D01*
X117310000Y-149079584D01*
X117310000Y-149247216D01*
X117277297Y-149411628D01*
X117213147Y-149566500D01*
X117120015Y-149705881D01*
X117001481Y-149824415D01*
X116862100Y-149917547D01*
X116707228Y-149981697D01*
X116542816Y-150014400D01*
X116375184Y-150014400D01*
X116210772Y-149981697D01*
X116055900Y-149917547D01*
X115916519Y-149824415D01*
X115797985Y-149705881D01*
X115704853Y-149566500D01*
X115640703Y-149411628D01*
X115608000Y-149247216D01*
X115608000Y-149079584D01*
X115640703Y-148915172D01*
X115704853Y-148760300D01*
X115797985Y-148620919D01*
X115916519Y-148502385D01*
X116055900Y-148409253D01*
X116210772Y-148345103D01*
X116375184Y-148312400D01*
X116542816Y-148312400D01*
X116707228Y-148345103D01*
X116707228Y-148345103D01*
G37*
G36*
X145516200Y-149824000D02*
X143876200Y-149824000D01*
X143876200Y-149134000D01*
X145516200Y-149134000D01*
X145516200Y-149824000D01*
X145516200Y-149824000D01*
G37*
G36*
X183555200Y-149824000D02*
X181915200Y-149824000D01*
X181915200Y-149134000D01*
X183555200Y-149134000D01*
X183555200Y-149824000D01*
X183555200Y-149824000D01*
G37*
G36*
X178155200Y-149824000D02*
X176515200Y-149824000D01*
X176515200Y-149134000D01*
X178155200Y-149134000D01*
X178155200Y-149824000D01*
X178155200Y-149824000D01*
G37*
G36*
X150916200Y-149824000D02*
X149276200Y-149824000D01*
X149276200Y-149134000D01*
X150916200Y-149134000D01*
X150916200Y-149824000D01*
X150916200Y-149824000D01*
G37*
G36*
X145516200Y-148554000D02*
X143876200Y-148554000D01*
X143876200Y-147864000D01*
X145516200Y-147864000D01*
X145516200Y-148554000D01*
X145516200Y-148554000D01*
G37*
G36*
X150916200Y-148554000D02*
X149276200Y-148554000D01*
X149276200Y-147864000D01*
X150916200Y-147864000D01*
X150916200Y-148554000D01*
X150916200Y-148554000D01*
G37*
G36*
X178155200Y-148554000D02*
X176515200Y-148554000D01*
X176515200Y-147864000D01*
X178155200Y-147864000D01*
X178155200Y-148554000D01*
X178155200Y-148554000D01*
G37*
G36*
X183555200Y-148554000D02*
X181915200Y-148554000D01*
X181915200Y-147864000D01*
X183555200Y-147864000D01*
X183555200Y-148554000D01*
X183555200Y-148554000D01*
G37*
G36*
X154116200Y-147624000D02*
X153376200Y-147624000D01*
X153376200Y-145934000D01*
X154116200Y-145934000D01*
X154116200Y-147624000D01*
X154116200Y-147624000D01*
G37*
G36*
X171642200Y-147624000D02*
X170902200Y-147624000D01*
X170902200Y-145934000D01*
X171642200Y-145934000D01*
X171642200Y-147624000D01*
X171642200Y-147624000D01*
G37*
G36*
X170372200Y-147624000D02*
X169632200Y-147624000D01*
X169632200Y-145934000D01*
X170372200Y-145934000D01*
X170372200Y-147624000D01*
X170372200Y-147624000D01*
G37*
G36*
X169102200Y-147624000D02*
X168362200Y-147624000D01*
X168362200Y-145934000D01*
X169102200Y-145934000D01*
X169102200Y-147624000D01*
X169102200Y-147624000D01*
G37*
G36*
X167832200Y-147624000D02*
X167092200Y-147624000D01*
X167092200Y-145934000D01*
X167832200Y-145934000D01*
X167832200Y-147624000D01*
X167832200Y-147624000D01*
G37*
G36*
X166562200Y-147624000D02*
X165822200Y-147624000D01*
X165822200Y-145934000D01*
X166562200Y-145934000D01*
X166562200Y-147624000D01*
X166562200Y-147624000D01*
G37*
G36*
X165292200Y-147624000D02*
X164552200Y-147624000D01*
X164552200Y-145934000D01*
X165292200Y-145934000D01*
X165292200Y-147624000D01*
X165292200Y-147624000D01*
G37*
G36*
X174182200Y-147624000D02*
X173442200Y-147624000D01*
X173442200Y-145934000D01*
X174182200Y-145934000D01*
X174182200Y-147624000D01*
X174182200Y-147624000D01*
G37*
G36*
X161736200Y-147624000D02*
X160996200Y-147624000D01*
X160996200Y-145934000D01*
X161736200Y-145934000D01*
X161736200Y-147624000D01*
X161736200Y-147624000D01*
G37*
G36*
X160466200Y-147624000D02*
X159726200Y-147624000D01*
X159726200Y-145934000D01*
X160466200Y-145934000D01*
X160466200Y-147624000D01*
X160466200Y-147624000D01*
G37*
G36*
X159196200Y-147624000D02*
X158456200Y-147624000D01*
X158456200Y-145934000D01*
X159196200Y-145934000D01*
X159196200Y-147624000D01*
X159196200Y-147624000D01*
G37*
G36*
X172912200Y-147624000D02*
X172172200Y-147624000D01*
X172172200Y-145934000D01*
X172912200Y-145934000D01*
X172912200Y-147624000D01*
X172912200Y-147624000D01*
G37*
G36*
X157926200Y-147624000D02*
X157186200Y-147624000D01*
X157186200Y-145934000D01*
X157926200Y-145934000D01*
X157926200Y-147624000D01*
X157926200Y-147624000D01*
G37*
G36*
X155386200Y-147624000D02*
X154646200Y-147624000D01*
X154646200Y-145934000D01*
X155386200Y-145934000D01*
X155386200Y-147624000D01*
X155386200Y-147624000D01*
G37*
G36*
X156656200Y-147624000D02*
X155916200Y-147624000D01*
X155916200Y-145934000D01*
X156656200Y-145934000D01*
X156656200Y-147624000D01*
X156656200Y-147624000D01*
G37*
G36*
X163006200Y-147624000D02*
X162266200Y-147624000D01*
X162266200Y-145934000D01*
X163006200Y-145934000D01*
X163006200Y-147624000D01*
X163006200Y-147624000D01*
G37*
G36*
X150916200Y-147284000D02*
X149276200Y-147284000D01*
X149276200Y-146594000D01*
X150916200Y-146594000D01*
X150916200Y-147284000D01*
X150916200Y-147284000D01*
G37*
G36*
X145516200Y-147284000D02*
X143876200Y-147284000D01*
X143876200Y-146594000D01*
X145516200Y-146594000D01*
X145516200Y-147284000D01*
X145516200Y-147284000D01*
G37*
G36*
X183555200Y-147284000D02*
X181915200Y-147284000D01*
X181915200Y-146594000D01*
X183555200Y-146594000D01*
X183555200Y-147284000D01*
X183555200Y-147284000D01*
G37*
G36*
X178155200Y-147284000D02*
X176515200Y-147284000D01*
X176515200Y-146594000D01*
X178155200Y-146594000D01*
X178155200Y-147284000D01*
X178155200Y-147284000D01*
G37*
G36*
X79480527Y-143884736D02*
X79580410Y-143904604D01*
X79862674Y-144021521D01*
X80116705Y-144191259D01*
X80332741Y-144407295D01*
X80502479Y-144661326D01*
X80619396Y-144943590D01*
X80679000Y-145243240D01*
X80679000Y-145548760D01*
X80619396Y-145848410D01*
X80502479Y-146130674D01*
X80332741Y-146384705D01*
X80116705Y-146600741D01*
X79862674Y-146770479D01*
X79580410Y-146887396D01*
X79480527Y-146907264D01*
X79280762Y-146947000D01*
X78975238Y-146947000D01*
X78775473Y-146907264D01*
X78675590Y-146887396D01*
X78393326Y-146770479D01*
X78139295Y-146600741D01*
X77923259Y-146384705D01*
X77753521Y-146130674D01*
X77636604Y-145848410D01*
X77577000Y-145548760D01*
X77577000Y-145243240D01*
X77636604Y-144943590D01*
X77753521Y-144661326D01*
X77923259Y-144407295D01*
X78139295Y-144191259D01*
X78393326Y-144021521D01*
X78675590Y-143904604D01*
X78775473Y-143884736D01*
X78975238Y-143845000D01*
X79280762Y-143845000D01*
X79480527Y-143884736D01*
X79480527Y-143884736D01*
G37*
G36*
X71980527Y-143884736D02*
X72080410Y-143904604D01*
X72362674Y-144021521D01*
X72616705Y-144191259D01*
X72832741Y-144407295D01*
X73002479Y-144661326D01*
X73119396Y-144943590D01*
X73179000Y-145243240D01*
X73179000Y-145548760D01*
X73119396Y-145848410D01*
X73002479Y-146130674D01*
X72832741Y-146384705D01*
X72616705Y-146600741D01*
X72362674Y-146770479D01*
X72080410Y-146887396D01*
X71980527Y-146907264D01*
X71780762Y-146947000D01*
X71475238Y-146947000D01*
X71275473Y-146907264D01*
X71175590Y-146887396D01*
X70893326Y-146770479D01*
X70639295Y-146600741D01*
X70423259Y-146384705D01*
X70253521Y-146130674D01*
X70136604Y-145848410D01*
X70077000Y-145548760D01*
X70077000Y-145243240D01*
X70136604Y-144943590D01*
X70253521Y-144661326D01*
X70423259Y-144407295D01*
X70639295Y-144191259D01*
X70893326Y-144021521D01*
X71175590Y-143904604D01*
X71275473Y-143884736D01*
X71475238Y-143845000D01*
X71780762Y-143845000D01*
X71980527Y-143884736D01*
X71980527Y-143884736D01*
G37*
G36*
X178155200Y-146014000D02*
X176515200Y-146014000D01*
X176515200Y-145324000D01*
X178155200Y-145324000D01*
X178155200Y-146014000D01*
X178155200Y-146014000D01*
G37*
G36*
X145516200Y-146014000D02*
X143876200Y-146014000D01*
X143876200Y-145324000D01*
X145516200Y-145324000D01*
X145516200Y-146014000D01*
X145516200Y-146014000D01*
G37*
G36*
X183555200Y-146014000D02*
X181915200Y-146014000D01*
X181915200Y-145324000D01*
X183555200Y-145324000D01*
X183555200Y-146014000D01*
X183555200Y-146014000D01*
G37*
G36*
X150916200Y-146014000D02*
X149276200Y-146014000D01*
X149276200Y-145324000D01*
X150916200Y-145324000D01*
X150916200Y-146014000D01*
X150916200Y-146014000D01*
G37*
G36*
X79480527Y-138884736D02*
X79580410Y-138904604D01*
X79862674Y-139021521D01*
X80116705Y-139191259D01*
X80332741Y-139407295D01*
X80502479Y-139661326D01*
X80619396Y-139943590D01*
X80679000Y-140243240D01*
X80679000Y-140548760D01*
X80619396Y-140848410D01*
X80502479Y-141130674D01*
X80332741Y-141384705D01*
X80116705Y-141600741D01*
X79862674Y-141770479D01*
X79580410Y-141887396D01*
X79480527Y-141907264D01*
X79280762Y-141947000D01*
X78975238Y-141947000D01*
X78775473Y-141907264D01*
X78675590Y-141887396D01*
X78393326Y-141770479D01*
X78139295Y-141600741D01*
X77923259Y-141384705D01*
X77753521Y-141130674D01*
X77636604Y-140848410D01*
X77577000Y-140548760D01*
X77577000Y-140243240D01*
X77636604Y-139943590D01*
X77753521Y-139661326D01*
X77923259Y-139407295D01*
X78139295Y-139191259D01*
X78393326Y-139021521D01*
X78675590Y-138904604D01*
X78775473Y-138884736D01*
X78975238Y-138845000D01*
X79280762Y-138845000D01*
X79480527Y-138884736D01*
X79480527Y-138884736D01*
G37*
G36*
X71980527Y-138884736D02*
X72080410Y-138904604D01*
X72362674Y-139021521D01*
X72616705Y-139191259D01*
X72832741Y-139407295D01*
X73002479Y-139661326D01*
X73119396Y-139943590D01*
X73179000Y-140243240D01*
X73179000Y-140548760D01*
X73119396Y-140848410D01*
X73002479Y-141130674D01*
X72832741Y-141384705D01*
X72616705Y-141600741D01*
X72362674Y-141770479D01*
X72080410Y-141887396D01*
X71980527Y-141907264D01*
X71780762Y-141947000D01*
X71475238Y-141947000D01*
X71275473Y-141907264D01*
X71175590Y-141887396D01*
X70893326Y-141770479D01*
X70639295Y-141600741D01*
X70423259Y-141384705D01*
X70253521Y-141130674D01*
X70136604Y-140848410D01*
X70077000Y-140548760D01*
X70077000Y-140243240D01*
X70136604Y-139943590D01*
X70253521Y-139661326D01*
X70423259Y-139407295D01*
X70639295Y-139191259D01*
X70893326Y-139021521D01*
X71175590Y-138904604D01*
X71275473Y-138884736D01*
X71475238Y-138845000D01*
X71780762Y-138845000D01*
X71980527Y-138884736D01*
X71980527Y-138884736D01*
G37*
G36*
X55933210Y-133227070D02*
X56624947Y-133513597D01*
X57247499Y-133929573D01*
X57776927Y-134459001D01*
X58192903Y-135081553D01*
X58479430Y-135773290D01*
X58625500Y-136507633D01*
X58625500Y-137256367D01*
X58479430Y-137990710D01*
X58192903Y-138682447D01*
X57776927Y-139304999D01*
X57247499Y-139834427D01*
X56624947Y-140250403D01*
X55933210Y-140536930D01*
X55198867Y-140683000D01*
X54450133Y-140683000D01*
X53715790Y-140536930D01*
X53024053Y-140250403D01*
X52401501Y-139834427D01*
X51872073Y-139304999D01*
X51456097Y-138682447D01*
X51169570Y-137990710D01*
X51023500Y-137256367D01*
X51023500Y-136507633D01*
X51169570Y-135773290D01*
X51456097Y-135081553D01*
X51872073Y-134459001D01*
X52401501Y-133929573D01*
X53024053Y-133513597D01*
X53715790Y-133227070D01*
X54450133Y-133081000D01*
X55198867Y-133081000D01*
X55933210Y-133227070D01*
X55933210Y-133227070D01*
G37*
G36*
X79480527Y-133884736D02*
X79580410Y-133904604D01*
X79862674Y-134021521D01*
X80116705Y-134191259D01*
X80332741Y-134407295D01*
X80502479Y-134661326D01*
X80619396Y-134943590D01*
X80619396Y-134943591D01*
X80679000Y-135243238D01*
X80679000Y-135548762D01*
X80644813Y-135720629D01*
X80619396Y-135848410D01*
X80502479Y-136130674D01*
X80332741Y-136384705D01*
X80116705Y-136600741D01*
X79862674Y-136770479D01*
X79580410Y-136887396D01*
X79480527Y-136907264D01*
X79280762Y-136947000D01*
X78975238Y-136947000D01*
X78775473Y-136907264D01*
X78675590Y-136887396D01*
X78393326Y-136770479D01*
X78139295Y-136600741D01*
X77923259Y-136384705D01*
X77753521Y-136130674D01*
X77636604Y-135848410D01*
X77611187Y-135720629D01*
X77577000Y-135548762D01*
X77577000Y-135243238D01*
X77636604Y-134943591D01*
X77636604Y-134943590D01*
X77753521Y-134661326D01*
X77923259Y-134407295D01*
X78139295Y-134191259D01*
X78393326Y-134021521D01*
X78675590Y-133904604D01*
X78775473Y-133884736D01*
X78975238Y-133845000D01*
X79280762Y-133845000D01*
X79480527Y-133884736D01*
X79480527Y-133884736D01*
G37*
G36*
X71980527Y-133884736D02*
X72080410Y-133904604D01*
X72362674Y-134021521D01*
X72616705Y-134191259D01*
X72832741Y-134407295D01*
X73002479Y-134661326D01*
X73119396Y-134943590D01*
X73119396Y-134943591D01*
X73179000Y-135243238D01*
X73179000Y-135548762D01*
X73144813Y-135720629D01*
X73119396Y-135848410D01*
X73002479Y-136130674D01*
X72832741Y-136384705D01*
X72616705Y-136600741D01*
X72362674Y-136770479D01*
X72080410Y-136887396D01*
X71980527Y-136907264D01*
X71780762Y-136947000D01*
X71475238Y-136947000D01*
X71275473Y-136907264D01*
X71175590Y-136887396D01*
X70893326Y-136770479D01*
X70639295Y-136600741D01*
X70423259Y-136384705D01*
X70253521Y-136130674D01*
X70136604Y-135848410D01*
X70111187Y-135720629D01*
X70077000Y-135548762D01*
X70077000Y-135243238D01*
X70136604Y-134943591D01*
X70136604Y-134943590D01*
X70253521Y-134661326D01*
X70423259Y-134407295D01*
X70639295Y-134191259D01*
X70893326Y-134021521D01*
X71175590Y-133904604D01*
X71275473Y-133884736D01*
X71475238Y-133845000D01*
X71780762Y-133845000D01*
X71980527Y-133884736D01*
X71980527Y-133884736D01*
G37*
G36*
X143653027Y-130822736D02*
X143752910Y-130842604D01*
X144035174Y-130959521D01*
X144289205Y-131129259D01*
X144505241Y-131345295D01*
X144674979Y-131599326D01*
X144791896Y-131881590D01*
X144851500Y-132181240D01*
X144851500Y-132486760D01*
X144791896Y-132786410D01*
X144674979Y-133068674D01*
X144505241Y-133322705D01*
X144289205Y-133538741D01*
X144035174Y-133708479D01*
X143752910Y-133825396D01*
X143656847Y-133844504D01*
X143453262Y-133885000D01*
X143147738Y-133885000D01*
X142944153Y-133844504D01*
X142848090Y-133825396D01*
X142565826Y-133708479D01*
X142311795Y-133538741D01*
X142095759Y-133322705D01*
X141926021Y-133068674D01*
X141809104Y-132786410D01*
X141749500Y-132486760D01*
X141749500Y-132181240D01*
X141809104Y-131881590D01*
X141926021Y-131599326D01*
X142095759Y-131345295D01*
X142311795Y-131129259D01*
X142565826Y-130959521D01*
X142848090Y-130842604D01*
X142947973Y-130822736D01*
X143147738Y-130783000D01*
X143453262Y-130783000D01*
X143653027Y-130822736D01*
X143653027Y-130822736D01*
G37*
G36*
X242522527Y-130822736D02*
X242622410Y-130842604D01*
X242904674Y-130959521D01*
X243158705Y-131129259D01*
X243374741Y-131345295D01*
X243544479Y-131599326D01*
X243661396Y-131881590D01*
X243721000Y-132181240D01*
X243721000Y-132486760D01*
X243661396Y-132786410D01*
X243544479Y-133068674D01*
X243374741Y-133322705D01*
X243158705Y-133538741D01*
X242904674Y-133708479D01*
X242622410Y-133825396D01*
X242526347Y-133844504D01*
X242322762Y-133885000D01*
X242017238Y-133885000D01*
X241813653Y-133844504D01*
X241717590Y-133825396D01*
X241435326Y-133708479D01*
X241181295Y-133538741D01*
X240965259Y-133322705D01*
X240795521Y-133068674D01*
X240678604Y-132786410D01*
X240619000Y-132486760D01*
X240619000Y-132181240D01*
X240678604Y-131881590D01*
X240795521Y-131599326D01*
X240965259Y-131345295D01*
X241181295Y-131129259D01*
X241435326Y-130959521D01*
X241717590Y-130842604D01*
X241817473Y-130822736D01*
X242017238Y-130783000D01*
X242322762Y-130783000D01*
X242522527Y-130822736D01*
X242522527Y-130822736D01*
G37*
G36*
X133653027Y-130822736D02*
X133752910Y-130842604D01*
X134035174Y-130959521D01*
X134289205Y-131129259D01*
X134505241Y-131345295D01*
X134674979Y-131599326D01*
X134791896Y-131881590D01*
X134851500Y-132181240D01*
X134851500Y-132486760D01*
X134791896Y-132786410D01*
X134674979Y-133068674D01*
X134505241Y-133322705D01*
X134289205Y-133538741D01*
X134035174Y-133708479D01*
X133752910Y-133825396D01*
X133656847Y-133844504D01*
X133453262Y-133885000D01*
X133147738Y-133885000D01*
X132944153Y-133844504D01*
X132848090Y-133825396D01*
X132565826Y-133708479D01*
X132311795Y-133538741D01*
X132095759Y-133322705D01*
X131926021Y-133068674D01*
X131809104Y-132786410D01*
X131749500Y-132486760D01*
X131749500Y-132181240D01*
X131809104Y-131881590D01*
X131926021Y-131599326D01*
X132095759Y-131345295D01*
X132311795Y-131129259D01*
X132565826Y-130959521D01*
X132848090Y-130842604D01*
X132947973Y-130822736D01*
X133147738Y-130783000D01*
X133453262Y-130783000D01*
X133653027Y-130822736D01*
X133653027Y-130822736D01*
G37*
G36*
X204566027Y-130822736D02*
X204665910Y-130842604D01*
X204948174Y-130959521D01*
X205202205Y-131129259D01*
X205418241Y-131345295D01*
X205587979Y-131599326D01*
X205704896Y-131881590D01*
X205764500Y-132181240D01*
X205764500Y-132486760D01*
X205704896Y-132786410D01*
X205587979Y-133068674D01*
X205418241Y-133322705D01*
X205202205Y-133538741D01*
X204948174Y-133708479D01*
X204665910Y-133825396D01*
X204569847Y-133844504D01*
X204366262Y-133885000D01*
X204060738Y-133885000D01*
X203857153Y-133844504D01*
X203761090Y-133825396D01*
X203478826Y-133708479D01*
X203224795Y-133538741D01*
X203008759Y-133322705D01*
X202839021Y-133068674D01*
X202722104Y-132786410D01*
X202662500Y-132486760D01*
X202662500Y-132181240D01*
X202722104Y-131881590D01*
X202839021Y-131599326D01*
X203008759Y-131345295D01*
X203224795Y-131129259D01*
X203478826Y-130959521D01*
X203761090Y-130842604D01*
X203860973Y-130822736D01*
X204060738Y-130783000D01*
X204366262Y-130783000D01*
X204566027Y-130822736D01*
X204566027Y-130822736D01*
G37*
G36*
X151609527Y-130822736D02*
X151709410Y-130842604D01*
X151991674Y-130959521D01*
X152245705Y-131129259D01*
X152461741Y-131345295D01*
X152631479Y-131599326D01*
X152748396Y-131881590D01*
X152808000Y-132181240D01*
X152808000Y-132486760D01*
X152748396Y-132786410D01*
X152631479Y-133068674D01*
X152461741Y-133322705D01*
X152245705Y-133538741D01*
X151991674Y-133708479D01*
X151709410Y-133825396D01*
X151613347Y-133844504D01*
X151409762Y-133885000D01*
X151104238Y-133885000D01*
X150900653Y-133844504D01*
X150804590Y-133825396D01*
X150522326Y-133708479D01*
X150268295Y-133538741D01*
X150052259Y-133322705D01*
X149882521Y-133068674D01*
X149765604Y-132786410D01*
X149706000Y-132486760D01*
X149706000Y-132181240D01*
X149765604Y-131881590D01*
X149882521Y-131599326D01*
X150052259Y-131345295D01*
X150268295Y-131129259D01*
X150522326Y-130959521D01*
X150804590Y-130842604D01*
X150904473Y-130822736D01*
X151104238Y-130783000D01*
X151409762Y-130783000D01*
X151609527Y-130822736D01*
X151609527Y-130822736D01*
G37*
G36*
X110696527Y-130822736D02*
X110796410Y-130842604D01*
X111078674Y-130959521D01*
X111332705Y-131129259D01*
X111548741Y-131345295D01*
X111718479Y-131599326D01*
X111835396Y-131881590D01*
X111895000Y-132181240D01*
X111895000Y-132486760D01*
X111835396Y-132786410D01*
X111718479Y-133068674D01*
X111548741Y-133322705D01*
X111332705Y-133538741D01*
X111078674Y-133708479D01*
X110796410Y-133825396D01*
X110700347Y-133844504D01*
X110496762Y-133885000D01*
X110191238Y-133885000D01*
X109987653Y-133844504D01*
X109891590Y-133825396D01*
X109609326Y-133708479D01*
X109355295Y-133538741D01*
X109139259Y-133322705D01*
X108969521Y-133068674D01*
X108852604Y-132786410D01*
X108793000Y-132486760D01*
X108793000Y-132181240D01*
X108852604Y-131881590D01*
X108969521Y-131599326D01*
X109139259Y-131345295D01*
X109355295Y-131129259D01*
X109609326Y-130959521D01*
X109891590Y-130842604D01*
X109991473Y-130822736D01*
X110191238Y-130783000D01*
X110496762Y-130783000D01*
X110696527Y-130822736D01*
X110696527Y-130822736D01*
G37*
G36*
X118653027Y-130822736D02*
X118752910Y-130842604D01*
X119035174Y-130959521D01*
X119289205Y-131129259D01*
X119505241Y-131345295D01*
X119674979Y-131599326D01*
X119791896Y-131881590D01*
X119851500Y-132181240D01*
X119851500Y-132486760D01*
X119791896Y-132786410D01*
X119674979Y-133068674D01*
X119505241Y-133322705D01*
X119289205Y-133538741D01*
X119035174Y-133708479D01*
X118752910Y-133825396D01*
X118656847Y-133844504D01*
X118453262Y-133885000D01*
X118147738Y-133885000D01*
X117944153Y-133844504D01*
X117848090Y-133825396D01*
X117565826Y-133708479D01*
X117311795Y-133538741D01*
X117095759Y-133322705D01*
X116926021Y-133068674D01*
X116809104Y-132786410D01*
X116749500Y-132486760D01*
X116749500Y-132181240D01*
X116809104Y-131881590D01*
X116926021Y-131599326D01*
X117095759Y-131345295D01*
X117311795Y-131129259D01*
X117565826Y-130959521D01*
X117848090Y-130842604D01*
X117947973Y-130822736D01*
X118147738Y-130783000D01*
X118453262Y-130783000D01*
X118653027Y-130822736D01*
X118653027Y-130822736D01*
G37*
G36*
X138653027Y-130822736D02*
X138752910Y-130842604D01*
X139035174Y-130959521D01*
X139289205Y-131129259D01*
X139505241Y-131345295D01*
X139674979Y-131599326D01*
X139791896Y-131881590D01*
X139851500Y-132181240D01*
X139851500Y-132486760D01*
X139791896Y-132786410D01*
X139674979Y-133068674D01*
X139505241Y-133322705D01*
X139289205Y-133538741D01*
X139035174Y-133708479D01*
X138752910Y-133825396D01*
X138656847Y-133844504D01*
X138453262Y-133885000D01*
X138147738Y-133885000D01*
X137944153Y-133844504D01*
X137848090Y-133825396D01*
X137565826Y-133708479D01*
X137311795Y-133538741D01*
X137095759Y-133322705D01*
X136926021Y-133068674D01*
X136809104Y-132786410D01*
X136749500Y-132486760D01*
X136749500Y-132181240D01*
X136809104Y-131881590D01*
X136926021Y-131599326D01*
X137095759Y-131345295D01*
X137311795Y-131129259D01*
X137565826Y-130959521D01*
X137848090Y-130842604D01*
X137947973Y-130822736D01*
X138147738Y-130783000D01*
X138453262Y-130783000D01*
X138653027Y-130822736D01*
X138653027Y-130822736D01*
G37*
G36*
X105696527Y-130822736D02*
X105796410Y-130842604D01*
X106078674Y-130959521D01*
X106332705Y-131129259D01*
X106548741Y-131345295D01*
X106718479Y-131599326D01*
X106835396Y-131881590D01*
X106895000Y-132181240D01*
X106895000Y-132486760D01*
X106835396Y-132786410D01*
X106718479Y-133068674D01*
X106548741Y-133322705D01*
X106332705Y-133538741D01*
X106078674Y-133708479D01*
X105796410Y-133825396D01*
X105700347Y-133844504D01*
X105496762Y-133885000D01*
X105191238Y-133885000D01*
X104987653Y-133844504D01*
X104891590Y-133825396D01*
X104609326Y-133708479D01*
X104355295Y-133538741D01*
X104139259Y-133322705D01*
X103969521Y-133068674D01*
X103852604Y-132786410D01*
X103793000Y-132486760D01*
X103793000Y-132181240D01*
X103852604Y-131881590D01*
X103969521Y-131599326D01*
X104139259Y-131345295D01*
X104355295Y-131129259D01*
X104609326Y-130959521D01*
X104891590Y-130842604D01*
X104991473Y-130822736D01*
X105191238Y-130783000D01*
X105496762Y-130783000D01*
X105696527Y-130822736D01*
X105696527Y-130822736D01*
G37*
G36*
X85696527Y-130822736D02*
X85796410Y-130842604D01*
X86078674Y-130959521D01*
X86332705Y-131129259D01*
X86548741Y-131345295D01*
X86718479Y-131599326D01*
X86835396Y-131881590D01*
X86895000Y-132181240D01*
X86895000Y-132486760D01*
X86835396Y-132786410D01*
X86718479Y-133068674D01*
X86548741Y-133322705D01*
X86332705Y-133538741D01*
X86078674Y-133708479D01*
X85796410Y-133825396D01*
X85700347Y-133844504D01*
X85496762Y-133885000D01*
X85191238Y-133885000D01*
X84987653Y-133844504D01*
X84891590Y-133825396D01*
X84609326Y-133708479D01*
X84355295Y-133538741D01*
X84139259Y-133322705D01*
X83969521Y-133068674D01*
X83852604Y-132786410D01*
X83793000Y-132486760D01*
X83793000Y-132181240D01*
X83852604Y-131881590D01*
X83969521Y-131599326D01*
X84139259Y-131345295D01*
X84355295Y-131129259D01*
X84609326Y-130959521D01*
X84891590Y-130842604D01*
X84991473Y-130822736D01*
X85191238Y-130783000D01*
X85496762Y-130783000D01*
X85696527Y-130822736D01*
X85696527Y-130822736D01*
G37*
G36*
X166609527Y-130822736D02*
X166709410Y-130842604D01*
X166991674Y-130959521D01*
X167245705Y-131129259D01*
X167461741Y-131345295D01*
X167631479Y-131599326D01*
X167748396Y-131881590D01*
X167808000Y-132181240D01*
X167808000Y-132486760D01*
X167748396Y-132786410D01*
X167631479Y-133068674D01*
X167461741Y-133322705D01*
X167245705Y-133538741D01*
X166991674Y-133708479D01*
X166709410Y-133825396D01*
X166613347Y-133844504D01*
X166409762Y-133885000D01*
X166104238Y-133885000D01*
X165900653Y-133844504D01*
X165804590Y-133825396D01*
X165522326Y-133708479D01*
X165268295Y-133538741D01*
X165052259Y-133322705D01*
X164882521Y-133068674D01*
X164765604Y-132786410D01*
X164706000Y-132486760D01*
X164706000Y-132181240D01*
X164765604Y-131881590D01*
X164882521Y-131599326D01*
X165052259Y-131345295D01*
X165268295Y-131129259D01*
X165522326Y-130959521D01*
X165804590Y-130842604D01*
X165904473Y-130822736D01*
X166104238Y-130783000D01*
X166409762Y-130783000D01*
X166609527Y-130822736D01*
X166609527Y-130822736D01*
G37*
G36*
X100696527Y-130822736D02*
X100796410Y-130842604D01*
X101078674Y-130959521D01*
X101332705Y-131129259D01*
X101548741Y-131345295D01*
X101718479Y-131599326D01*
X101835396Y-131881590D01*
X101895000Y-132181240D01*
X101895000Y-132486760D01*
X101835396Y-132786410D01*
X101718479Y-133068674D01*
X101548741Y-133322705D01*
X101332705Y-133538741D01*
X101078674Y-133708479D01*
X100796410Y-133825396D01*
X100700347Y-133844504D01*
X100496762Y-133885000D01*
X100191238Y-133885000D01*
X99987653Y-133844504D01*
X99891590Y-133825396D01*
X99609326Y-133708479D01*
X99355295Y-133538741D01*
X99139259Y-133322705D01*
X98969521Y-133068674D01*
X98852604Y-132786410D01*
X98793000Y-132486760D01*
X98793000Y-132181240D01*
X98852604Y-131881590D01*
X98969521Y-131599326D01*
X99139259Y-131345295D01*
X99355295Y-131129259D01*
X99609326Y-130959521D01*
X99891590Y-130842604D01*
X99991473Y-130822736D01*
X100191238Y-130783000D01*
X100496762Y-130783000D01*
X100696527Y-130822736D01*
X100696527Y-130822736D01*
G37*
G36*
X176609527Y-130822736D02*
X176709410Y-130842604D01*
X176991674Y-130959521D01*
X177245705Y-131129259D01*
X177461741Y-131345295D01*
X177631479Y-131599326D01*
X177748396Y-131881590D01*
X177808000Y-132181240D01*
X177808000Y-132486760D01*
X177748396Y-132786410D01*
X177631479Y-133068674D01*
X177461741Y-133322705D01*
X177245705Y-133538741D01*
X176991674Y-133708479D01*
X176709410Y-133825396D01*
X176613347Y-133844504D01*
X176409762Y-133885000D01*
X176104238Y-133885000D01*
X175900653Y-133844504D01*
X175804590Y-133825396D01*
X175522326Y-133708479D01*
X175268295Y-133538741D01*
X175052259Y-133322705D01*
X174882521Y-133068674D01*
X174765604Y-132786410D01*
X174706000Y-132486760D01*
X174706000Y-132181240D01*
X174765604Y-131881590D01*
X174882521Y-131599326D01*
X175052259Y-131345295D01*
X175268295Y-131129259D01*
X175522326Y-130959521D01*
X175804590Y-130842604D01*
X175904473Y-130822736D01*
X176104238Y-130783000D01*
X176409762Y-130783000D01*
X176609527Y-130822736D01*
X176609527Y-130822736D01*
G37*
G36*
X199566027Y-130822736D02*
X199665910Y-130842604D01*
X199948174Y-130959521D01*
X200202205Y-131129259D01*
X200418241Y-131345295D01*
X200587979Y-131599326D01*
X200704896Y-131881590D01*
X200764500Y-132181240D01*
X200764500Y-132486760D01*
X200704896Y-132786410D01*
X200587979Y-133068674D01*
X200418241Y-133322705D01*
X200202205Y-133538741D01*
X199948174Y-133708479D01*
X199665910Y-133825396D01*
X199569847Y-133844504D01*
X199366262Y-133885000D01*
X199060738Y-133885000D01*
X198857153Y-133844504D01*
X198761090Y-133825396D01*
X198478826Y-133708479D01*
X198224795Y-133538741D01*
X198008759Y-133322705D01*
X197839021Y-133068674D01*
X197722104Y-132786410D01*
X197662500Y-132486760D01*
X197662500Y-132181240D01*
X197722104Y-131881590D01*
X197839021Y-131599326D01*
X198008759Y-131345295D01*
X198224795Y-131129259D01*
X198478826Y-130959521D01*
X198761090Y-130842604D01*
X198860973Y-130822736D01*
X199060738Y-130783000D01*
X199366262Y-130783000D01*
X199566027Y-130822736D01*
X199566027Y-130822736D01*
G37*
G36*
X184566027Y-130822736D02*
X184665910Y-130842604D01*
X184948174Y-130959521D01*
X185202205Y-131129259D01*
X185418241Y-131345295D01*
X185587979Y-131599326D01*
X185704896Y-131881590D01*
X185764500Y-132181240D01*
X185764500Y-132486760D01*
X185704896Y-132786410D01*
X185587979Y-133068674D01*
X185418241Y-133322705D01*
X185202205Y-133538741D01*
X184948174Y-133708479D01*
X184665910Y-133825396D01*
X184569847Y-133844504D01*
X184366262Y-133885000D01*
X184060738Y-133885000D01*
X183857153Y-133844504D01*
X183761090Y-133825396D01*
X183478826Y-133708479D01*
X183224795Y-133538741D01*
X183008759Y-133322705D01*
X182839021Y-133068674D01*
X182722104Y-132786410D01*
X182662500Y-132486760D01*
X182662500Y-132181240D01*
X182722104Y-131881590D01*
X182839021Y-131599326D01*
X183008759Y-131345295D01*
X183224795Y-131129259D01*
X183478826Y-130959521D01*
X183761090Y-130842604D01*
X183860973Y-130822736D01*
X184060738Y-130783000D01*
X184366262Y-130783000D01*
X184566027Y-130822736D01*
X184566027Y-130822736D01*
G37*
G36*
X232522527Y-130822736D02*
X232622410Y-130842604D01*
X232904674Y-130959521D01*
X233158705Y-131129259D01*
X233374741Y-131345295D01*
X233544479Y-131599326D01*
X233661396Y-131881590D01*
X233721000Y-132181240D01*
X233721000Y-132486760D01*
X233661396Y-132786410D01*
X233544479Y-133068674D01*
X233374741Y-133322705D01*
X233158705Y-133538741D01*
X232904674Y-133708479D01*
X232622410Y-133825396D01*
X232526347Y-133844504D01*
X232322762Y-133885000D01*
X232017238Y-133885000D01*
X231813653Y-133844504D01*
X231717590Y-133825396D01*
X231435326Y-133708479D01*
X231181295Y-133538741D01*
X230965259Y-133322705D01*
X230795521Y-133068674D01*
X230678604Y-132786410D01*
X230619000Y-132486760D01*
X230619000Y-132181240D01*
X230678604Y-131881590D01*
X230795521Y-131599326D01*
X230965259Y-131345295D01*
X231181295Y-131129259D01*
X231435326Y-130959521D01*
X231717590Y-130842604D01*
X231817473Y-130822736D01*
X232017238Y-130783000D01*
X232322762Y-130783000D01*
X232522527Y-130822736D01*
X232522527Y-130822736D01*
G37*
G36*
X217522527Y-130822736D02*
X217622410Y-130842604D01*
X217904674Y-130959521D01*
X218158705Y-131129259D01*
X218374741Y-131345295D01*
X218544479Y-131599326D01*
X218661396Y-131881590D01*
X218721000Y-132181240D01*
X218721000Y-132486760D01*
X218661396Y-132786410D01*
X218544479Y-133068674D01*
X218374741Y-133322705D01*
X218158705Y-133538741D01*
X217904674Y-133708479D01*
X217622410Y-133825396D01*
X217526347Y-133844504D01*
X217322762Y-133885000D01*
X217017238Y-133885000D01*
X216813653Y-133844504D01*
X216717590Y-133825396D01*
X216435326Y-133708479D01*
X216181295Y-133538741D01*
X215965259Y-133322705D01*
X215795521Y-133068674D01*
X215678604Y-132786410D01*
X215619000Y-132486760D01*
X215619000Y-132181240D01*
X215678604Y-131881590D01*
X215795521Y-131599326D01*
X215965259Y-131345295D01*
X216181295Y-131129259D01*
X216435326Y-130959521D01*
X216717590Y-130842604D01*
X216817473Y-130822736D01*
X217017238Y-130783000D01*
X217322762Y-130783000D01*
X217522527Y-130822736D01*
X217522527Y-130822736D01*
G37*
G36*
X237522527Y-130822736D02*
X237622410Y-130842604D01*
X237904674Y-130959521D01*
X238158705Y-131129259D01*
X238374741Y-131345295D01*
X238544479Y-131599326D01*
X238661396Y-131881590D01*
X238721000Y-132181240D01*
X238721000Y-132486760D01*
X238661396Y-132786410D01*
X238544479Y-133068674D01*
X238374741Y-133322705D01*
X238158705Y-133538741D01*
X237904674Y-133708479D01*
X237622410Y-133825396D01*
X237526347Y-133844504D01*
X237322762Y-133885000D01*
X237017238Y-133885000D01*
X236813653Y-133844504D01*
X236717590Y-133825396D01*
X236435326Y-133708479D01*
X236181295Y-133538741D01*
X235965259Y-133322705D01*
X235795521Y-133068674D01*
X235678604Y-132786410D01*
X235619000Y-132486760D01*
X235619000Y-132181240D01*
X235678604Y-131881590D01*
X235795521Y-131599326D01*
X235965259Y-131345295D01*
X236181295Y-131129259D01*
X236435326Y-130959521D01*
X236717590Y-130842604D01*
X236817473Y-130822736D01*
X237017238Y-130783000D01*
X237322762Y-130783000D01*
X237522527Y-130822736D01*
X237522527Y-130822736D01*
G37*
G36*
X171609527Y-130822736D02*
X171709410Y-130842604D01*
X171991674Y-130959521D01*
X172245705Y-131129259D01*
X172461741Y-131345295D01*
X172631479Y-131599326D01*
X172748396Y-131881590D01*
X172808000Y-132181240D01*
X172808000Y-132486760D01*
X172748396Y-132786410D01*
X172631479Y-133068674D01*
X172461741Y-133322705D01*
X172245705Y-133538741D01*
X171991674Y-133708479D01*
X171709410Y-133825396D01*
X171613347Y-133844504D01*
X171409762Y-133885000D01*
X171104238Y-133885000D01*
X170900653Y-133844504D01*
X170804590Y-133825396D01*
X170522326Y-133708479D01*
X170268295Y-133538741D01*
X170052259Y-133322705D01*
X169882521Y-133068674D01*
X169765604Y-132786410D01*
X169706000Y-132486760D01*
X169706000Y-132181240D01*
X169765604Y-131881590D01*
X169882521Y-131599326D01*
X170052259Y-131345295D01*
X170268295Y-131129259D01*
X170522326Y-130959521D01*
X170804590Y-130842604D01*
X170904473Y-130822736D01*
X171104238Y-130783000D01*
X171409762Y-130783000D01*
X171609527Y-130822736D01*
X171609527Y-130822736D01*
G37*
G36*
X209566027Y-130822736D02*
X209665910Y-130842604D01*
X209948174Y-130959521D01*
X210202205Y-131129259D01*
X210418241Y-131345295D01*
X210587979Y-131599326D01*
X210704896Y-131881590D01*
X210764500Y-132181240D01*
X210764500Y-132486760D01*
X210704896Y-132786410D01*
X210587979Y-133068674D01*
X210418241Y-133322705D01*
X210202205Y-133538741D01*
X209948174Y-133708479D01*
X209665910Y-133825396D01*
X209569847Y-133844504D01*
X209366262Y-133885000D01*
X209060738Y-133885000D01*
X208857153Y-133844504D01*
X208761090Y-133825396D01*
X208478826Y-133708479D01*
X208224795Y-133538741D01*
X208008759Y-133322705D01*
X207839021Y-133068674D01*
X207722104Y-132786410D01*
X207662500Y-132486760D01*
X207662500Y-132181240D01*
X207722104Y-131881590D01*
X207839021Y-131599326D01*
X208008759Y-131345295D01*
X208224795Y-131129259D01*
X208478826Y-130959521D01*
X208761090Y-130842604D01*
X208860973Y-130822736D01*
X209060738Y-130783000D01*
X209366262Y-130783000D01*
X209566027Y-130822736D01*
X209566027Y-130822736D01*
G37*
G36*
X65053210Y-124107070D02*
X65744947Y-124393597D01*
X66367499Y-124809573D01*
X66896927Y-125339001D01*
X67312903Y-125961553D01*
X67599430Y-126653290D01*
X67745500Y-127387633D01*
X67745500Y-128136367D01*
X67599430Y-128870710D01*
X67312903Y-129562447D01*
X66896927Y-130184999D01*
X66367499Y-130714427D01*
X65744947Y-131130403D01*
X65053210Y-131416930D01*
X64318867Y-131563000D01*
X63570133Y-131563000D01*
X62835790Y-131416930D01*
X62144053Y-131130403D01*
X61521501Y-130714427D01*
X60992073Y-130184999D01*
X60576097Y-129562447D01*
X60289570Y-128870710D01*
X60143500Y-128136367D01*
X60143500Y-127387633D01*
X60289570Y-126653290D01*
X60576097Y-125961553D01*
X60992073Y-125339001D01*
X61521501Y-124809573D01*
X62144053Y-124393597D01*
X62835790Y-124107070D01*
X63570133Y-123961000D01*
X64318867Y-123961000D01*
X65053210Y-124107070D01*
X65053210Y-124107070D01*
G37*
G36*
X232522527Y-123322736D02*
X232622410Y-123342604D01*
X232904674Y-123459521D01*
X233158705Y-123629259D01*
X233374741Y-123845295D01*
X233544479Y-124099326D01*
X233661396Y-124381590D01*
X233721000Y-124681240D01*
X233721000Y-124986760D01*
X233661396Y-125286410D01*
X233544479Y-125568674D01*
X233374741Y-125822705D01*
X233158705Y-126038741D01*
X232904674Y-126208479D01*
X232622410Y-126325396D01*
X232522527Y-126345264D01*
X232322762Y-126385000D01*
X232017238Y-126385000D01*
X231817473Y-126345264D01*
X231717590Y-126325396D01*
X231435326Y-126208479D01*
X231181295Y-126038741D01*
X230965259Y-125822705D01*
X230795521Y-125568674D01*
X230678604Y-125286410D01*
X230619000Y-124986760D01*
X230619000Y-124681240D01*
X230678604Y-124381590D01*
X230795521Y-124099326D01*
X230965259Y-123845295D01*
X231181295Y-123629259D01*
X231435326Y-123459521D01*
X231717590Y-123342604D01*
X231817473Y-123322736D01*
X232017238Y-123283000D01*
X232322762Y-123283000D01*
X232522527Y-123322736D01*
X232522527Y-123322736D01*
G37*
G36*
X242522527Y-123322736D02*
X242622410Y-123342604D01*
X242904674Y-123459521D01*
X243158705Y-123629259D01*
X243374741Y-123845295D01*
X243544479Y-124099326D01*
X243661396Y-124381590D01*
X243721000Y-124681240D01*
X243721000Y-124986760D01*
X243661396Y-125286410D01*
X243544479Y-125568674D01*
X243374741Y-125822705D01*
X243158705Y-126038741D01*
X242904674Y-126208479D01*
X242622410Y-126325396D01*
X242522527Y-126345264D01*
X242322762Y-126385000D01*
X242017238Y-126385000D01*
X241817473Y-126345264D01*
X241717590Y-126325396D01*
X241435326Y-126208479D01*
X241181295Y-126038741D01*
X240965259Y-125822705D01*
X240795521Y-125568674D01*
X240678604Y-125286410D01*
X240619000Y-124986760D01*
X240619000Y-124681240D01*
X240678604Y-124381590D01*
X240795521Y-124099326D01*
X240965259Y-123845295D01*
X241181295Y-123629259D01*
X241435326Y-123459521D01*
X241717590Y-123342604D01*
X241817473Y-123322736D01*
X242017238Y-123283000D01*
X242322762Y-123283000D01*
X242522527Y-123322736D01*
X242522527Y-123322736D01*
G37*
G36*
X217522527Y-123322736D02*
X217622410Y-123342604D01*
X217904674Y-123459521D01*
X218158705Y-123629259D01*
X218374741Y-123845295D01*
X218544479Y-124099326D01*
X218661396Y-124381590D01*
X218721000Y-124681240D01*
X218721000Y-124986760D01*
X218661396Y-125286410D01*
X218544479Y-125568674D01*
X218374741Y-125822705D01*
X218158705Y-126038741D01*
X217904674Y-126208479D01*
X217622410Y-126325396D01*
X217522527Y-126345264D01*
X217322762Y-126385000D01*
X217017238Y-126385000D01*
X216817473Y-126345264D01*
X216717590Y-126325396D01*
X216435326Y-126208479D01*
X216181295Y-126038741D01*
X215965259Y-125822705D01*
X215795521Y-125568674D01*
X215678604Y-125286410D01*
X215619000Y-124986760D01*
X215619000Y-124681240D01*
X215678604Y-124381590D01*
X215795521Y-124099326D01*
X215965259Y-123845295D01*
X216181295Y-123629259D01*
X216435326Y-123459521D01*
X216717590Y-123342604D01*
X216817473Y-123322736D01*
X217017238Y-123283000D01*
X217322762Y-123283000D01*
X217522527Y-123322736D01*
X217522527Y-123322736D01*
G37*
G36*
X237522527Y-123322736D02*
X237622410Y-123342604D01*
X237904674Y-123459521D01*
X238158705Y-123629259D01*
X238374741Y-123845295D01*
X238544479Y-124099326D01*
X238661396Y-124381590D01*
X238721000Y-124681240D01*
X238721000Y-124986760D01*
X238661396Y-125286410D01*
X238544479Y-125568674D01*
X238374741Y-125822705D01*
X238158705Y-126038741D01*
X237904674Y-126208479D01*
X237622410Y-126325396D01*
X237522527Y-126345264D01*
X237322762Y-126385000D01*
X237017238Y-126385000D01*
X236817473Y-126345264D01*
X236717590Y-126325396D01*
X236435326Y-126208479D01*
X236181295Y-126038741D01*
X235965259Y-125822705D01*
X235795521Y-125568674D01*
X235678604Y-125286410D01*
X235619000Y-124986760D01*
X235619000Y-124681240D01*
X235678604Y-124381590D01*
X235795521Y-124099326D01*
X235965259Y-123845295D01*
X236181295Y-123629259D01*
X236435326Y-123459521D01*
X236717590Y-123342604D01*
X236817473Y-123322736D01*
X237017238Y-123283000D01*
X237322762Y-123283000D01*
X237522527Y-123322736D01*
X237522527Y-123322736D01*
G37*
G36*
X204566027Y-123322736D02*
X204665910Y-123342604D01*
X204948174Y-123459521D01*
X205202205Y-123629259D01*
X205418241Y-123845295D01*
X205587979Y-124099326D01*
X205704896Y-124381590D01*
X205764500Y-124681240D01*
X205764500Y-124986760D01*
X205704896Y-125286410D01*
X205587979Y-125568674D01*
X205418241Y-125822705D01*
X205202205Y-126038741D01*
X204948174Y-126208479D01*
X204665910Y-126325396D01*
X204566027Y-126345264D01*
X204366262Y-126385000D01*
X204060738Y-126385000D01*
X203860973Y-126345264D01*
X203761090Y-126325396D01*
X203478826Y-126208479D01*
X203224795Y-126038741D01*
X203008759Y-125822705D01*
X202839021Y-125568674D01*
X202722104Y-125286410D01*
X202662500Y-124986760D01*
X202662500Y-124681240D01*
X202722104Y-124381590D01*
X202839021Y-124099326D01*
X203008759Y-123845295D01*
X203224795Y-123629259D01*
X203478826Y-123459521D01*
X203761090Y-123342604D01*
X203860973Y-123322736D01*
X204060738Y-123283000D01*
X204366262Y-123283000D01*
X204566027Y-123322736D01*
X204566027Y-123322736D01*
G37*
G36*
X184566027Y-123322736D02*
X184665910Y-123342604D01*
X184948174Y-123459521D01*
X185202205Y-123629259D01*
X185418241Y-123845295D01*
X185587979Y-124099326D01*
X185704896Y-124381590D01*
X185764500Y-124681240D01*
X185764500Y-124986760D01*
X185704896Y-125286410D01*
X185587979Y-125568674D01*
X185418241Y-125822705D01*
X185202205Y-126038741D01*
X184948174Y-126208479D01*
X184665910Y-126325396D01*
X184566027Y-126345264D01*
X184366262Y-126385000D01*
X184060738Y-126385000D01*
X183860973Y-126345264D01*
X183761090Y-126325396D01*
X183478826Y-126208479D01*
X183224795Y-126038741D01*
X183008759Y-125822705D01*
X182839021Y-125568674D01*
X182722104Y-125286410D01*
X182662500Y-124986760D01*
X182662500Y-124681240D01*
X182722104Y-124381590D01*
X182839021Y-124099326D01*
X183008759Y-123845295D01*
X183224795Y-123629259D01*
X183478826Y-123459521D01*
X183761090Y-123342604D01*
X183860973Y-123322736D01*
X184060738Y-123283000D01*
X184366262Y-123283000D01*
X184566027Y-123322736D01*
X184566027Y-123322736D01*
G37*
G36*
X209566027Y-123322736D02*
X209665910Y-123342604D01*
X209948174Y-123459521D01*
X210202205Y-123629259D01*
X210418241Y-123845295D01*
X210587979Y-124099326D01*
X210704896Y-124381590D01*
X210764500Y-124681240D01*
X210764500Y-124986760D01*
X210704896Y-125286410D01*
X210587979Y-125568674D01*
X210418241Y-125822705D01*
X210202205Y-126038741D01*
X209948174Y-126208479D01*
X209665910Y-126325396D01*
X209566027Y-126345264D01*
X209366262Y-126385000D01*
X209060738Y-126385000D01*
X208860973Y-126345264D01*
X208761090Y-126325396D01*
X208478826Y-126208479D01*
X208224795Y-126038741D01*
X208008759Y-125822705D01*
X207839021Y-125568674D01*
X207722104Y-125286410D01*
X207662500Y-124986760D01*
X207662500Y-124681240D01*
X207722104Y-124381590D01*
X207839021Y-124099326D01*
X208008759Y-123845295D01*
X208224795Y-123629259D01*
X208478826Y-123459521D01*
X208761090Y-123342604D01*
X208860973Y-123322736D01*
X209060738Y-123283000D01*
X209366262Y-123283000D01*
X209566027Y-123322736D01*
X209566027Y-123322736D01*
G37*
G36*
X199566027Y-123322736D02*
X199665910Y-123342604D01*
X199948174Y-123459521D01*
X200202205Y-123629259D01*
X200418241Y-123845295D01*
X200587979Y-124099326D01*
X200704896Y-124381590D01*
X200764500Y-124681240D01*
X200764500Y-124986760D01*
X200704896Y-125286410D01*
X200587979Y-125568674D01*
X200418241Y-125822705D01*
X200202205Y-126038741D01*
X199948174Y-126208479D01*
X199665910Y-126325396D01*
X199566027Y-126345264D01*
X199366262Y-126385000D01*
X199060738Y-126385000D01*
X198860973Y-126345264D01*
X198761090Y-126325396D01*
X198478826Y-126208479D01*
X198224795Y-126038741D01*
X198008759Y-125822705D01*
X197839021Y-125568674D01*
X197722104Y-125286410D01*
X197662500Y-124986760D01*
X197662500Y-124681240D01*
X197722104Y-124381590D01*
X197839021Y-124099326D01*
X198008759Y-123845295D01*
X198224795Y-123629259D01*
X198478826Y-123459521D01*
X198761090Y-123342604D01*
X198860973Y-123322736D01*
X199060738Y-123283000D01*
X199366262Y-123283000D01*
X199566027Y-123322736D01*
X199566027Y-123322736D01*
G37*
G36*
X171609527Y-123322736D02*
X171709410Y-123342604D01*
X171991674Y-123459521D01*
X172245705Y-123629259D01*
X172461741Y-123845295D01*
X172631479Y-124099326D01*
X172748396Y-124381590D01*
X172808000Y-124681240D01*
X172808000Y-124986760D01*
X172748396Y-125286410D01*
X172631479Y-125568674D01*
X172461741Y-125822705D01*
X172245705Y-126038741D01*
X171991674Y-126208479D01*
X171709410Y-126325396D01*
X171609527Y-126345264D01*
X171409762Y-126385000D01*
X171104238Y-126385000D01*
X170904473Y-126345264D01*
X170804590Y-126325396D01*
X170522326Y-126208479D01*
X170268295Y-126038741D01*
X170052259Y-125822705D01*
X169882521Y-125568674D01*
X169765604Y-125286410D01*
X169706000Y-124986760D01*
X169706000Y-124681240D01*
X169765604Y-124381590D01*
X169882521Y-124099326D01*
X170052259Y-123845295D01*
X170268295Y-123629259D01*
X170522326Y-123459521D01*
X170804590Y-123342604D01*
X170904473Y-123322736D01*
X171104238Y-123283000D01*
X171409762Y-123283000D01*
X171609527Y-123322736D01*
X171609527Y-123322736D01*
G37*
G36*
X166609527Y-123322736D02*
X166709410Y-123342604D01*
X166991674Y-123459521D01*
X167245705Y-123629259D01*
X167461741Y-123845295D01*
X167631479Y-124099326D01*
X167748396Y-124381590D01*
X167808000Y-124681240D01*
X167808000Y-124986760D01*
X167748396Y-125286410D01*
X167631479Y-125568674D01*
X167461741Y-125822705D01*
X167245705Y-126038741D01*
X166991674Y-126208479D01*
X166709410Y-126325396D01*
X166609527Y-126345264D01*
X166409762Y-126385000D01*
X166104238Y-126385000D01*
X165904473Y-126345264D01*
X165804590Y-126325396D01*
X165522326Y-126208479D01*
X165268295Y-126038741D01*
X165052259Y-125822705D01*
X164882521Y-125568674D01*
X164765604Y-125286410D01*
X164706000Y-124986760D01*
X164706000Y-124681240D01*
X164765604Y-124381590D01*
X164882521Y-124099326D01*
X165052259Y-123845295D01*
X165268295Y-123629259D01*
X165522326Y-123459521D01*
X165804590Y-123342604D01*
X165904473Y-123322736D01*
X166104238Y-123283000D01*
X166409762Y-123283000D01*
X166609527Y-123322736D01*
X166609527Y-123322736D01*
G37*
G36*
X100696527Y-123322736D02*
X100796410Y-123342604D01*
X101078674Y-123459521D01*
X101332705Y-123629259D01*
X101548741Y-123845295D01*
X101718479Y-124099326D01*
X101835396Y-124381590D01*
X101895000Y-124681240D01*
X101895000Y-124986760D01*
X101835396Y-125286410D01*
X101718479Y-125568674D01*
X101548741Y-125822705D01*
X101332705Y-126038741D01*
X101078674Y-126208479D01*
X100796410Y-126325396D01*
X100696527Y-126345264D01*
X100496762Y-126385000D01*
X100191238Y-126385000D01*
X99991473Y-126345264D01*
X99891590Y-126325396D01*
X99609326Y-126208479D01*
X99355295Y-126038741D01*
X99139259Y-125822705D01*
X98969521Y-125568674D01*
X98852604Y-125286410D01*
X98793000Y-124986760D01*
X98793000Y-124681240D01*
X98852604Y-124381590D01*
X98969521Y-124099326D01*
X99139259Y-123845295D01*
X99355295Y-123629259D01*
X99609326Y-123459521D01*
X99891590Y-123342604D01*
X99991473Y-123322736D01*
X100191238Y-123283000D01*
X100496762Y-123283000D01*
X100696527Y-123322736D01*
X100696527Y-123322736D01*
G37*
G36*
X85696527Y-123322736D02*
X85796410Y-123342604D01*
X86078674Y-123459521D01*
X86332705Y-123629259D01*
X86548741Y-123845295D01*
X86718479Y-124099326D01*
X86835396Y-124381590D01*
X86895000Y-124681240D01*
X86895000Y-124986760D01*
X86835396Y-125286410D01*
X86718479Y-125568674D01*
X86548741Y-125822705D01*
X86332705Y-126038741D01*
X86078674Y-126208479D01*
X85796410Y-126325396D01*
X85696527Y-126345264D01*
X85496762Y-126385000D01*
X85191238Y-126385000D01*
X84991473Y-126345264D01*
X84891590Y-126325396D01*
X84609326Y-126208479D01*
X84355295Y-126038741D01*
X84139259Y-125822705D01*
X83969521Y-125568674D01*
X83852604Y-125286410D01*
X83793000Y-124986760D01*
X83793000Y-124681240D01*
X83852604Y-124381590D01*
X83969521Y-124099326D01*
X84139259Y-123845295D01*
X84355295Y-123629259D01*
X84609326Y-123459521D01*
X84891590Y-123342604D01*
X84991473Y-123322736D01*
X85191238Y-123283000D01*
X85496762Y-123283000D01*
X85696527Y-123322736D01*
X85696527Y-123322736D01*
G37*
G36*
X176609527Y-123322736D02*
X176709410Y-123342604D01*
X176991674Y-123459521D01*
X177245705Y-123629259D01*
X177461741Y-123845295D01*
X177631479Y-124099326D01*
X177748396Y-124381590D01*
X177808000Y-124681240D01*
X177808000Y-124986760D01*
X177748396Y-125286410D01*
X177631479Y-125568674D01*
X177461741Y-125822705D01*
X177245705Y-126038741D01*
X176991674Y-126208479D01*
X176709410Y-126325396D01*
X176609527Y-126345264D01*
X176409762Y-126385000D01*
X176104238Y-126385000D01*
X175904473Y-126345264D01*
X175804590Y-126325396D01*
X175522326Y-126208479D01*
X175268295Y-126038741D01*
X175052259Y-125822705D01*
X174882521Y-125568674D01*
X174765604Y-125286410D01*
X174706000Y-124986760D01*
X174706000Y-124681240D01*
X174765604Y-124381590D01*
X174882521Y-124099326D01*
X175052259Y-123845295D01*
X175268295Y-123629259D01*
X175522326Y-123459521D01*
X175804590Y-123342604D01*
X175904473Y-123322736D01*
X176104238Y-123283000D01*
X176409762Y-123283000D01*
X176609527Y-123322736D01*
X176609527Y-123322736D01*
G37*
G36*
X143653027Y-123322736D02*
X143752910Y-123342604D01*
X144035174Y-123459521D01*
X144289205Y-123629259D01*
X144505241Y-123845295D01*
X144674979Y-124099326D01*
X144791896Y-124381590D01*
X144851500Y-124681240D01*
X144851500Y-124986760D01*
X144791896Y-125286410D01*
X144674979Y-125568674D01*
X144505241Y-125822705D01*
X144289205Y-126038741D01*
X144035174Y-126208479D01*
X143752910Y-126325396D01*
X143653027Y-126345264D01*
X143453262Y-126385000D01*
X143147738Y-126385000D01*
X142947973Y-126345264D01*
X142848090Y-126325396D01*
X142565826Y-126208479D01*
X142311795Y-126038741D01*
X142095759Y-125822705D01*
X141926021Y-125568674D01*
X141809104Y-125286410D01*
X141749500Y-124986760D01*
X141749500Y-124681240D01*
X141809104Y-124381590D01*
X141926021Y-124099326D01*
X142095759Y-123845295D01*
X142311795Y-123629259D01*
X142565826Y-123459521D01*
X142848090Y-123342604D01*
X142947973Y-123322736D01*
X143147738Y-123283000D01*
X143453262Y-123283000D01*
X143653027Y-123322736D01*
X143653027Y-123322736D01*
G37*
G36*
X151609527Y-123322736D02*
X151709410Y-123342604D01*
X151991674Y-123459521D01*
X152245705Y-123629259D01*
X152461741Y-123845295D01*
X152631479Y-124099326D01*
X152748396Y-124381590D01*
X152808000Y-124681240D01*
X152808000Y-124986760D01*
X152748396Y-125286410D01*
X152631479Y-125568674D01*
X152461741Y-125822705D01*
X152245705Y-126038741D01*
X151991674Y-126208479D01*
X151709410Y-126325396D01*
X151609527Y-126345264D01*
X151409762Y-126385000D01*
X151104238Y-126385000D01*
X150904473Y-126345264D01*
X150804590Y-126325396D01*
X150522326Y-126208479D01*
X150268295Y-126038741D01*
X150052259Y-125822705D01*
X149882521Y-125568674D01*
X149765604Y-125286410D01*
X149706000Y-124986760D01*
X149706000Y-124681240D01*
X149765604Y-124381590D01*
X149882521Y-124099326D01*
X150052259Y-123845295D01*
X150268295Y-123629259D01*
X150522326Y-123459521D01*
X150804590Y-123342604D01*
X150904473Y-123322736D01*
X151104238Y-123283000D01*
X151409762Y-123283000D01*
X151609527Y-123322736D01*
X151609527Y-123322736D01*
G37*
G36*
X138653027Y-123322736D02*
X138752910Y-123342604D01*
X139035174Y-123459521D01*
X139289205Y-123629259D01*
X139505241Y-123845295D01*
X139674979Y-124099326D01*
X139791896Y-124381590D01*
X139851500Y-124681240D01*
X139851500Y-124986760D01*
X139791896Y-125286410D01*
X139674979Y-125568674D01*
X139505241Y-125822705D01*
X139289205Y-126038741D01*
X139035174Y-126208479D01*
X138752910Y-126325396D01*
X138653027Y-126345264D01*
X138453262Y-126385000D01*
X138147738Y-126385000D01*
X137947973Y-126345264D01*
X137848090Y-126325396D01*
X137565826Y-126208479D01*
X137311795Y-126038741D01*
X137095759Y-125822705D01*
X136926021Y-125568674D01*
X136809104Y-125286410D01*
X136749500Y-124986760D01*
X136749500Y-124681240D01*
X136809104Y-124381590D01*
X136926021Y-124099326D01*
X137095759Y-123845295D01*
X137311795Y-123629259D01*
X137565826Y-123459521D01*
X137848090Y-123342604D01*
X137947973Y-123322736D01*
X138147738Y-123283000D01*
X138453262Y-123283000D01*
X138653027Y-123322736D01*
X138653027Y-123322736D01*
G37*
G36*
X133653027Y-123322736D02*
X133752910Y-123342604D01*
X134035174Y-123459521D01*
X134289205Y-123629259D01*
X134505241Y-123845295D01*
X134674979Y-124099326D01*
X134791896Y-124381590D01*
X134851500Y-124681240D01*
X134851500Y-124986760D01*
X134791896Y-125286410D01*
X134674979Y-125568674D01*
X134505241Y-125822705D01*
X134289205Y-126038741D01*
X134035174Y-126208479D01*
X133752910Y-126325396D01*
X133653027Y-126345264D01*
X133453262Y-126385000D01*
X133147738Y-126385000D01*
X132947973Y-126345264D01*
X132848090Y-126325396D01*
X132565826Y-126208479D01*
X132311795Y-126038741D01*
X132095759Y-125822705D01*
X131926021Y-125568674D01*
X131809104Y-125286410D01*
X131749500Y-124986760D01*
X131749500Y-124681240D01*
X131809104Y-124381590D01*
X131926021Y-124099326D01*
X132095759Y-123845295D01*
X132311795Y-123629259D01*
X132565826Y-123459521D01*
X132848090Y-123342604D01*
X132947973Y-123322736D01*
X133147738Y-123283000D01*
X133453262Y-123283000D01*
X133653027Y-123322736D01*
X133653027Y-123322736D01*
G37*
G36*
X118653027Y-123322736D02*
X118752910Y-123342604D01*
X119035174Y-123459521D01*
X119289205Y-123629259D01*
X119505241Y-123845295D01*
X119674979Y-124099326D01*
X119791896Y-124381590D01*
X119851500Y-124681240D01*
X119851500Y-124986760D01*
X119791896Y-125286410D01*
X119674979Y-125568674D01*
X119505241Y-125822705D01*
X119289205Y-126038741D01*
X119035174Y-126208479D01*
X118752910Y-126325396D01*
X118653027Y-126345264D01*
X118453262Y-126385000D01*
X118147738Y-126385000D01*
X117947973Y-126345264D01*
X117848090Y-126325396D01*
X117565826Y-126208479D01*
X117311795Y-126038741D01*
X117095759Y-125822705D01*
X116926021Y-125568674D01*
X116809104Y-125286410D01*
X116749500Y-124986760D01*
X116749500Y-124681240D01*
X116809104Y-124381590D01*
X116926021Y-124099326D01*
X117095759Y-123845295D01*
X117311795Y-123629259D01*
X117565826Y-123459521D01*
X117848090Y-123342604D01*
X117947973Y-123322736D01*
X118147738Y-123283000D01*
X118453262Y-123283000D01*
X118653027Y-123322736D01*
X118653027Y-123322736D01*
G37*
G36*
X110696527Y-123322736D02*
X110796410Y-123342604D01*
X111078674Y-123459521D01*
X111332705Y-123629259D01*
X111548741Y-123845295D01*
X111718479Y-124099326D01*
X111835396Y-124381590D01*
X111895000Y-124681240D01*
X111895000Y-124986760D01*
X111835396Y-125286410D01*
X111718479Y-125568674D01*
X111548741Y-125822705D01*
X111332705Y-126038741D01*
X111078674Y-126208479D01*
X110796410Y-126325396D01*
X110696527Y-126345264D01*
X110496762Y-126385000D01*
X110191238Y-126385000D01*
X109991473Y-126345264D01*
X109891590Y-126325396D01*
X109609326Y-126208479D01*
X109355295Y-126038741D01*
X109139259Y-125822705D01*
X108969521Y-125568674D01*
X108852604Y-125286410D01*
X108793000Y-124986760D01*
X108793000Y-124681240D01*
X108852604Y-124381590D01*
X108969521Y-124099326D01*
X109139259Y-123845295D01*
X109355295Y-123629259D01*
X109609326Y-123459521D01*
X109891590Y-123342604D01*
X109991473Y-123322736D01*
X110191238Y-123283000D01*
X110496762Y-123283000D01*
X110696527Y-123322736D01*
X110696527Y-123322736D01*
G37*
G36*
X105696527Y-123322736D02*
X105796410Y-123342604D01*
X106078674Y-123459521D01*
X106332705Y-123629259D01*
X106548741Y-123845295D01*
X106718479Y-124099326D01*
X106835396Y-124381590D01*
X106895000Y-124681240D01*
X106895000Y-124986760D01*
X106835396Y-125286410D01*
X106718479Y-125568674D01*
X106548741Y-125822705D01*
X106332705Y-126038741D01*
X106078674Y-126208479D01*
X105796410Y-126325396D01*
X105696527Y-126345264D01*
X105496762Y-126385000D01*
X105191238Y-126385000D01*
X104991473Y-126345264D01*
X104891590Y-126325396D01*
X104609326Y-126208479D01*
X104355295Y-126038741D01*
X104139259Y-125822705D01*
X103969521Y-125568674D01*
X103852604Y-125286410D01*
X103793000Y-124986760D01*
X103793000Y-124681240D01*
X103852604Y-124381590D01*
X103969521Y-124099326D01*
X104139259Y-123845295D01*
X104355295Y-123629259D01*
X104609326Y-123459521D01*
X104891590Y-123342604D01*
X104991473Y-123322736D01*
X105191238Y-123283000D01*
X105496762Y-123283000D01*
X105696527Y-123322736D01*
X105696527Y-123322736D01*
G37*
G36*
X79480527Y-118884736D02*
X79580410Y-118904604D01*
X79862674Y-119021521D01*
X80116705Y-119191259D01*
X80332741Y-119407295D01*
X80502479Y-119661326D01*
X80619396Y-119943590D01*
X80679000Y-120243240D01*
X80679000Y-120548760D01*
X80619396Y-120848410D01*
X80502479Y-121130674D01*
X80332741Y-121384705D01*
X80116705Y-121600741D01*
X79862674Y-121770479D01*
X79580410Y-121887396D01*
X79480527Y-121907264D01*
X79280762Y-121947000D01*
X78975238Y-121947000D01*
X78775473Y-121907264D01*
X78675590Y-121887396D01*
X78393326Y-121770479D01*
X78139295Y-121600741D01*
X77923259Y-121384705D01*
X77753521Y-121130674D01*
X77636604Y-120848410D01*
X77577000Y-120548760D01*
X77577000Y-120243240D01*
X77636604Y-119943590D01*
X77753521Y-119661326D01*
X77923259Y-119407295D01*
X78139295Y-119191259D01*
X78393326Y-119021521D01*
X78675590Y-118904604D01*
X78775473Y-118884736D01*
X78975238Y-118845000D01*
X79280762Y-118845000D01*
X79480527Y-118884736D01*
X79480527Y-118884736D01*
G37*
G36*
X71980527Y-118884736D02*
X72080410Y-118904604D01*
X72362674Y-119021521D01*
X72616705Y-119191259D01*
X72832741Y-119407295D01*
X73002479Y-119661326D01*
X73119396Y-119943590D01*
X73179000Y-120243240D01*
X73179000Y-120548760D01*
X73119396Y-120848410D01*
X73002479Y-121130674D01*
X72832741Y-121384705D01*
X72616705Y-121600741D01*
X72362674Y-121770479D01*
X72080410Y-121887396D01*
X71980527Y-121907264D01*
X71780762Y-121947000D01*
X71475238Y-121947000D01*
X71275473Y-121907264D01*
X71175590Y-121887396D01*
X70893326Y-121770479D01*
X70639295Y-121600741D01*
X70423259Y-121384705D01*
X70253521Y-121130674D01*
X70136604Y-120848410D01*
X70077000Y-120548760D01*
X70077000Y-120243240D01*
X70136604Y-119943590D01*
X70253521Y-119661326D01*
X70423259Y-119407295D01*
X70639295Y-119191259D01*
X70893326Y-119021521D01*
X71175590Y-118904604D01*
X71275473Y-118884736D01*
X71475238Y-118845000D01*
X71780762Y-118845000D01*
X71980527Y-118884736D01*
X71980527Y-118884736D01*
G37*
G36*
X74450027Y-112598236D02*
X74549910Y-112618104D01*
X74832174Y-112735021D01*
X75086205Y-112904759D01*
X75302241Y-113120795D01*
X75471979Y-113374826D01*
X75588896Y-113657090D01*
X75648500Y-113956740D01*
X75648500Y-114262260D01*
X75588896Y-114561910D01*
X75471979Y-114844174D01*
X75302241Y-115098205D01*
X75086205Y-115314241D01*
X74832174Y-115483979D01*
X74549910Y-115600896D01*
X74450027Y-115620764D01*
X74250262Y-115660500D01*
X73944738Y-115660500D01*
X73744973Y-115620764D01*
X73645090Y-115600896D01*
X73362826Y-115483979D01*
X73108795Y-115314241D01*
X72892759Y-115098205D01*
X72723021Y-114844174D01*
X72606104Y-114561910D01*
X72546500Y-114262260D01*
X72546500Y-113956740D01*
X72606104Y-113657090D01*
X72723021Y-113374826D01*
X72892759Y-113120795D01*
X73108795Y-112904759D01*
X73362826Y-112735021D01*
X73645090Y-112618104D01*
X73744973Y-112598236D01*
X73944738Y-112558500D01*
X74250262Y-112558500D01*
X74450027Y-112598236D01*
X74450027Y-112598236D01*
G37*
G36*
X107317627Y-112598236D02*
X107417510Y-112618104D01*
X107699774Y-112735021D01*
X107953805Y-112904759D01*
X108169841Y-113120795D01*
X108339579Y-113374826D01*
X108456496Y-113657090D01*
X108516100Y-113956740D01*
X108516100Y-114262260D01*
X108456496Y-114561910D01*
X108339579Y-114844174D01*
X108169841Y-115098205D01*
X107953805Y-115314241D01*
X107699774Y-115483979D01*
X107417510Y-115600896D01*
X107317627Y-115620764D01*
X107117862Y-115660500D01*
X106812338Y-115660500D01*
X106612573Y-115620764D01*
X106512690Y-115600896D01*
X106230426Y-115483979D01*
X105976395Y-115314241D01*
X105760359Y-115098205D01*
X105590621Y-114844174D01*
X105473704Y-114561910D01*
X105414100Y-114262260D01*
X105414100Y-113956740D01*
X105473704Y-113657090D01*
X105590621Y-113374826D01*
X105760359Y-113120795D01*
X105976395Y-112904759D01*
X106230426Y-112735021D01*
X106512690Y-112618104D01*
X106612573Y-112598236D01*
X106812338Y-112558500D01*
X107117862Y-112558500D01*
X107317627Y-112598236D01*
X107317627Y-112598236D01*
G37*
G36*
X114817627Y-112598236D02*
X114917510Y-112618104D01*
X115199774Y-112735021D01*
X115453805Y-112904759D01*
X115669841Y-113120795D01*
X115839579Y-113374826D01*
X115956496Y-113657090D01*
X116016100Y-113956740D01*
X116016100Y-114262260D01*
X115956496Y-114561910D01*
X115839579Y-114844174D01*
X115669841Y-115098205D01*
X115453805Y-115314241D01*
X115199774Y-115483979D01*
X114917510Y-115600896D01*
X114817627Y-115620764D01*
X114617862Y-115660500D01*
X114312338Y-115660500D01*
X114112573Y-115620764D01*
X114012690Y-115600896D01*
X113730426Y-115483979D01*
X113476395Y-115314241D01*
X113260359Y-115098205D01*
X113090621Y-114844174D01*
X112973704Y-114561910D01*
X112914100Y-114262260D01*
X112914100Y-113956740D01*
X112973704Y-113657090D01*
X113090621Y-113374826D01*
X113260359Y-113120795D01*
X113476395Y-112904759D01*
X113730426Y-112735021D01*
X114012690Y-112618104D01*
X114112573Y-112598236D01*
X114312338Y-112558500D01*
X114617862Y-112558500D01*
X114817627Y-112598236D01*
X114817627Y-112598236D01*
G37*
G36*
X147685227Y-112598236D02*
X147785110Y-112618104D01*
X148067374Y-112735021D01*
X148321405Y-112904759D01*
X148537441Y-113120795D01*
X148707179Y-113374826D01*
X148824096Y-113657090D01*
X148883700Y-113956740D01*
X148883700Y-114262260D01*
X148824096Y-114561910D01*
X148707179Y-114844174D01*
X148537441Y-115098205D01*
X148321405Y-115314241D01*
X148067374Y-115483979D01*
X147785110Y-115600896D01*
X147685227Y-115620764D01*
X147485462Y-115660500D01*
X147179938Y-115660500D01*
X146980173Y-115620764D01*
X146880290Y-115600896D01*
X146598026Y-115483979D01*
X146343995Y-115314241D01*
X146127959Y-115098205D01*
X145958221Y-114844174D01*
X145841304Y-114561910D01*
X145781700Y-114262260D01*
X145781700Y-113956740D01*
X145841304Y-113657090D01*
X145958221Y-113374826D01*
X146127959Y-113120795D01*
X146343995Y-112904759D01*
X146598026Y-112735021D01*
X146880290Y-112618104D01*
X146980173Y-112598236D01*
X147179938Y-112558500D01*
X147485462Y-112558500D01*
X147685227Y-112598236D01*
X147685227Y-112598236D01*
G37*
G36*
X205920427Y-112598236D02*
X206020310Y-112618104D01*
X206302574Y-112735021D01*
X206556605Y-112904759D01*
X206772641Y-113120795D01*
X206942379Y-113374826D01*
X207059296Y-113657090D01*
X207118900Y-113956740D01*
X207118900Y-114262260D01*
X207059296Y-114561910D01*
X206942379Y-114844174D01*
X206772641Y-115098205D01*
X206556605Y-115314241D01*
X206302574Y-115483979D01*
X206020310Y-115600896D01*
X205920427Y-115620764D01*
X205720662Y-115660500D01*
X205415138Y-115660500D01*
X205215373Y-115620764D01*
X205115490Y-115600896D01*
X204833226Y-115483979D01*
X204579195Y-115314241D01*
X204363159Y-115098205D01*
X204193421Y-114844174D01*
X204076504Y-114561910D01*
X204016900Y-114262260D01*
X204016900Y-113956740D01*
X204076504Y-113657090D01*
X204193421Y-113374826D01*
X204363159Y-113120795D01*
X204579195Y-112904759D01*
X204833226Y-112735021D01*
X205115490Y-112618104D01*
X205215373Y-112598236D01*
X205415138Y-112558500D01*
X205720662Y-112558500D01*
X205920427Y-112598236D01*
X205920427Y-112598236D01*
G37*
G36*
X140185227Y-112598236D02*
X140285110Y-112618104D01*
X140567374Y-112735021D01*
X140821405Y-112904759D01*
X141037441Y-113120795D01*
X141207179Y-113374826D01*
X141324096Y-113657090D01*
X141383700Y-113956740D01*
X141383700Y-114262260D01*
X141324096Y-114561910D01*
X141207179Y-114844174D01*
X141037441Y-115098205D01*
X140821405Y-115314241D01*
X140567374Y-115483979D01*
X140285110Y-115600896D01*
X140185227Y-115620764D01*
X139985462Y-115660500D01*
X139679938Y-115660500D01*
X139480173Y-115620764D01*
X139380290Y-115600896D01*
X139098026Y-115483979D01*
X138843995Y-115314241D01*
X138627959Y-115098205D01*
X138458221Y-114844174D01*
X138341304Y-114561910D01*
X138281700Y-114262260D01*
X138281700Y-113956740D01*
X138341304Y-113657090D01*
X138458221Y-113374826D01*
X138627959Y-113120795D01*
X138843995Y-112904759D01*
X139098026Y-112735021D01*
X139380290Y-112618104D01*
X139480173Y-112598236D01*
X139679938Y-112558500D01*
X139985462Y-112558500D01*
X140185227Y-112598236D01*
X140185227Y-112598236D01*
G37*
G36*
X213420427Y-112598236D02*
X213520310Y-112618104D01*
X213802574Y-112735021D01*
X214056605Y-112904759D01*
X214272641Y-113120795D01*
X214442379Y-113374826D01*
X214559296Y-113657090D01*
X214618900Y-113956740D01*
X214618900Y-114262260D01*
X214559296Y-114561910D01*
X214442379Y-114844174D01*
X214272641Y-115098205D01*
X214056605Y-115314241D01*
X213802574Y-115483979D01*
X213520310Y-115600896D01*
X213420427Y-115620764D01*
X213220662Y-115660500D01*
X212915138Y-115660500D01*
X212715373Y-115620764D01*
X212615490Y-115600896D01*
X212333226Y-115483979D01*
X212079195Y-115314241D01*
X211863159Y-115098205D01*
X211693421Y-114844174D01*
X211576504Y-114561910D01*
X211516900Y-114262260D01*
X211516900Y-113956740D01*
X211576504Y-113657090D01*
X211693421Y-113374826D01*
X211863159Y-113120795D01*
X212079195Y-112904759D01*
X212333226Y-112735021D01*
X212615490Y-112618104D01*
X212715373Y-112598236D01*
X212915138Y-112558500D01*
X213220662Y-112558500D01*
X213420427Y-112598236D01*
X213420427Y-112598236D01*
G37*
G36*
X238788027Y-112598236D02*
X238887910Y-112618104D01*
X239170174Y-112735021D01*
X239424205Y-112904759D01*
X239640241Y-113120795D01*
X239809979Y-113374826D01*
X239926896Y-113657090D01*
X239986500Y-113956740D01*
X239986500Y-114262260D01*
X239926896Y-114561910D01*
X239809979Y-114844174D01*
X239640241Y-115098205D01*
X239424205Y-115314241D01*
X239170174Y-115483979D01*
X238887910Y-115600896D01*
X238788027Y-115620764D01*
X238588262Y-115660500D01*
X238282738Y-115660500D01*
X238082973Y-115620764D01*
X237983090Y-115600896D01*
X237700826Y-115483979D01*
X237446795Y-115314241D01*
X237230759Y-115098205D01*
X237061021Y-114844174D01*
X236944104Y-114561910D01*
X236884500Y-114262260D01*
X236884500Y-113956740D01*
X236944104Y-113657090D01*
X237061021Y-113374826D01*
X237230759Y-113120795D01*
X237446795Y-112904759D01*
X237700826Y-112735021D01*
X237983090Y-112618104D01*
X238082973Y-112598236D01*
X238282738Y-112558500D01*
X238588262Y-112558500D01*
X238788027Y-112598236D01*
X238788027Y-112598236D01*
G37*
G36*
X246288027Y-112598236D02*
X246387910Y-112618104D01*
X246670174Y-112735021D01*
X246924205Y-112904759D01*
X247140241Y-113120795D01*
X247309979Y-113374826D01*
X247426896Y-113657090D01*
X247486500Y-113956740D01*
X247486500Y-114262260D01*
X247426896Y-114561910D01*
X247309979Y-114844174D01*
X247140241Y-115098205D01*
X246924205Y-115314241D01*
X246670174Y-115483979D01*
X246387910Y-115600896D01*
X246288027Y-115620764D01*
X246088262Y-115660500D01*
X245782738Y-115660500D01*
X245582973Y-115620764D01*
X245483090Y-115600896D01*
X245200826Y-115483979D01*
X244946795Y-115314241D01*
X244730759Y-115098205D01*
X244561021Y-114844174D01*
X244444104Y-114561910D01*
X244384500Y-114262260D01*
X244384500Y-113956740D01*
X244444104Y-113657090D01*
X244561021Y-113374826D01*
X244730759Y-113120795D01*
X244946795Y-112904759D01*
X245200826Y-112735021D01*
X245483090Y-112618104D01*
X245582973Y-112598236D01*
X245782738Y-112558500D01*
X246088262Y-112558500D01*
X246288027Y-112598236D01*
X246288027Y-112598236D01*
G37*
G36*
X180552827Y-112598236D02*
X180652710Y-112618104D01*
X180934974Y-112735021D01*
X181189005Y-112904759D01*
X181405041Y-113120795D01*
X181574779Y-113374826D01*
X181691696Y-113657090D01*
X181751300Y-113956740D01*
X181751300Y-114262260D01*
X181691696Y-114561910D01*
X181574779Y-114844174D01*
X181405041Y-115098205D01*
X181189005Y-115314241D01*
X180934974Y-115483979D01*
X180652710Y-115600896D01*
X180552827Y-115620764D01*
X180353062Y-115660500D01*
X180047538Y-115660500D01*
X179847773Y-115620764D01*
X179747890Y-115600896D01*
X179465626Y-115483979D01*
X179211595Y-115314241D01*
X178995559Y-115098205D01*
X178825821Y-114844174D01*
X178708904Y-114561910D01*
X178649300Y-114262260D01*
X178649300Y-113956740D01*
X178708904Y-113657090D01*
X178825821Y-113374826D01*
X178995559Y-113120795D01*
X179211595Y-112904759D01*
X179465626Y-112735021D01*
X179747890Y-112618104D01*
X179847773Y-112598236D01*
X180047538Y-112558500D01*
X180353062Y-112558500D01*
X180552827Y-112598236D01*
X180552827Y-112598236D01*
G37*
G36*
X173052827Y-112598236D02*
X173152710Y-112618104D01*
X173434974Y-112735021D01*
X173689005Y-112904759D01*
X173905041Y-113120795D01*
X174074779Y-113374826D01*
X174191696Y-113657090D01*
X174251300Y-113956740D01*
X174251300Y-114262260D01*
X174191696Y-114561910D01*
X174074779Y-114844174D01*
X173905041Y-115098205D01*
X173689005Y-115314241D01*
X173434974Y-115483979D01*
X173152710Y-115600896D01*
X173052827Y-115620764D01*
X172853062Y-115660500D01*
X172547538Y-115660500D01*
X172347773Y-115620764D01*
X172247890Y-115600896D01*
X171965626Y-115483979D01*
X171711595Y-115314241D01*
X171495559Y-115098205D01*
X171325821Y-114844174D01*
X171208904Y-114561910D01*
X171149300Y-114262260D01*
X171149300Y-113956740D01*
X171208904Y-113657090D01*
X171325821Y-113374826D01*
X171495559Y-113120795D01*
X171711595Y-112904759D01*
X171965626Y-112735021D01*
X172247890Y-112618104D01*
X172347773Y-112598236D01*
X172547538Y-112558500D01*
X172853062Y-112558500D01*
X173052827Y-112598236D01*
X173052827Y-112598236D01*
G37*
G36*
X81950027Y-112598236D02*
X82049910Y-112618104D01*
X82332174Y-112735021D01*
X82586205Y-112904759D01*
X82802241Y-113120795D01*
X82971979Y-113374826D01*
X83088896Y-113657090D01*
X83148500Y-113956740D01*
X83148500Y-114262260D01*
X83088896Y-114561910D01*
X82971979Y-114844174D01*
X82802241Y-115098205D01*
X82586205Y-115314241D01*
X82332174Y-115483979D01*
X82049910Y-115600896D01*
X81950027Y-115620764D01*
X81750262Y-115660500D01*
X81444738Y-115660500D01*
X81244973Y-115620764D01*
X81145090Y-115600896D01*
X80862826Y-115483979D01*
X80608795Y-115314241D01*
X80392759Y-115098205D01*
X80223021Y-114844174D01*
X80106104Y-114561910D01*
X80046500Y-114262260D01*
X80046500Y-113956740D01*
X80106104Y-113657090D01*
X80223021Y-113374826D01*
X80392759Y-113120795D01*
X80608795Y-112904759D01*
X80862826Y-112735021D01*
X81145090Y-112618104D01*
X81244973Y-112598236D01*
X81444738Y-112558500D01*
X81750262Y-112558500D01*
X81950027Y-112598236D01*
X81950027Y-112598236D01*
G37*
G36*
X107317627Y-97598236D02*
X107417510Y-97618104D01*
X107699774Y-97735021D01*
X107953805Y-97904759D01*
X108169841Y-98120795D01*
X108339579Y-98374826D01*
X108456496Y-98657090D01*
X108456496Y-98657091D01*
X108513367Y-98942996D01*
X108516100Y-98956740D01*
X108516100Y-99262260D01*
X108456496Y-99561910D01*
X108339579Y-99844174D01*
X108169841Y-100098205D01*
X107953805Y-100314241D01*
X107699774Y-100483979D01*
X107417510Y-100600896D01*
X107317627Y-100620764D01*
X107117862Y-100660500D01*
X106812338Y-100660500D01*
X106612573Y-100620764D01*
X106512690Y-100600896D01*
X106230426Y-100483979D01*
X105976395Y-100314241D01*
X105760359Y-100098205D01*
X105590621Y-99844174D01*
X105473704Y-99561910D01*
X105414100Y-99262260D01*
X105414100Y-98956740D01*
X105416834Y-98942996D01*
X105473704Y-98657091D01*
X105473704Y-98657090D01*
X105590621Y-98374826D01*
X105760359Y-98120795D01*
X105976395Y-97904759D01*
X106230426Y-97735021D01*
X106512690Y-97618104D01*
X106612573Y-97598236D01*
X106812338Y-97558500D01*
X107117862Y-97558500D01*
X107317627Y-97598236D01*
X107317627Y-97598236D01*
G37*
G36*
X74450027Y-97598236D02*
X74549910Y-97618104D01*
X74832174Y-97735021D01*
X75086205Y-97904759D01*
X75302241Y-98120795D01*
X75471979Y-98374826D01*
X75588896Y-98657090D01*
X75588896Y-98657091D01*
X75645767Y-98942996D01*
X75648500Y-98956740D01*
X75648500Y-99262260D01*
X75588896Y-99561910D01*
X75471979Y-99844174D01*
X75302241Y-100098205D01*
X75086205Y-100314241D01*
X74832174Y-100483979D01*
X74549910Y-100600896D01*
X74450027Y-100620764D01*
X74250262Y-100660500D01*
X73944738Y-100660500D01*
X73744973Y-100620764D01*
X73645090Y-100600896D01*
X73362826Y-100483979D01*
X73108795Y-100314241D01*
X72892759Y-100098205D01*
X72723021Y-99844174D01*
X72606104Y-99561910D01*
X72546500Y-99262260D01*
X72546500Y-98956740D01*
X72549234Y-98942996D01*
X72606104Y-98657091D01*
X72606104Y-98657090D01*
X72723021Y-98374826D01*
X72892759Y-98120795D01*
X73108795Y-97904759D01*
X73362826Y-97735021D01*
X73645090Y-97618104D01*
X73744973Y-97598236D01*
X73944738Y-97558500D01*
X74250262Y-97558500D01*
X74450027Y-97598236D01*
X74450027Y-97598236D01*
G37*
G36*
X81950027Y-97598236D02*
X82049910Y-97618104D01*
X82332174Y-97735021D01*
X82586205Y-97904759D01*
X82802241Y-98120795D01*
X82971979Y-98374826D01*
X83088896Y-98657090D01*
X83088896Y-98657091D01*
X83145767Y-98942996D01*
X83148500Y-98956740D01*
X83148500Y-99262260D01*
X83088896Y-99561910D01*
X82971979Y-99844174D01*
X82802241Y-100098205D01*
X82586205Y-100314241D01*
X82332174Y-100483979D01*
X82049910Y-100600896D01*
X81950027Y-100620764D01*
X81750262Y-100660500D01*
X81444738Y-100660500D01*
X81244973Y-100620764D01*
X81145090Y-100600896D01*
X80862826Y-100483979D01*
X80608795Y-100314241D01*
X80392759Y-100098205D01*
X80223021Y-99844174D01*
X80106104Y-99561910D01*
X80046500Y-99262260D01*
X80046500Y-98956740D01*
X80049234Y-98942996D01*
X80106104Y-98657091D01*
X80106104Y-98657090D01*
X80223021Y-98374826D01*
X80392759Y-98120795D01*
X80608795Y-97904759D01*
X80862826Y-97735021D01*
X81145090Y-97618104D01*
X81244973Y-97598236D01*
X81444738Y-97558500D01*
X81750262Y-97558500D01*
X81950027Y-97598236D01*
X81950027Y-97598236D01*
G37*
G36*
X114817627Y-97598236D02*
X114917510Y-97618104D01*
X115199774Y-97735021D01*
X115453805Y-97904759D01*
X115669841Y-98120795D01*
X115839579Y-98374826D01*
X115956496Y-98657090D01*
X115956496Y-98657091D01*
X116013367Y-98942996D01*
X116016100Y-98956740D01*
X116016100Y-99262260D01*
X115956496Y-99561910D01*
X115839579Y-99844174D01*
X115669841Y-100098205D01*
X115453805Y-100314241D01*
X115199774Y-100483979D01*
X114917510Y-100600896D01*
X114817627Y-100620764D01*
X114617862Y-100660500D01*
X114312338Y-100660500D01*
X114112573Y-100620764D01*
X114012690Y-100600896D01*
X113730426Y-100483979D01*
X113476395Y-100314241D01*
X113260359Y-100098205D01*
X113090621Y-99844174D01*
X112973704Y-99561910D01*
X112914100Y-99262260D01*
X112914100Y-98956740D01*
X112916834Y-98942996D01*
X112973704Y-98657091D01*
X112973704Y-98657090D01*
X113090621Y-98374826D01*
X113260359Y-98120795D01*
X113476395Y-97904759D01*
X113730426Y-97735021D01*
X114012690Y-97618104D01*
X114112573Y-97598236D01*
X114312338Y-97558500D01*
X114617862Y-97558500D01*
X114817627Y-97598236D01*
X114817627Y-97598236D01*
G37*
G36*
X140185227Y-97598236D02*
X140285110Y-97618104D01*
X140567374Y-97735021D01*
X140821405Y-97904759D01*
X141037441Y-98120795D01*
X141207179Y-98374826D01*
X141324096Y-98657090D01*
X141324096Y-98657091D01*
X141380967Y-98942996D01*
X141383700Y-98956740D01*
X141383700Y-99262260D01*
X141324096Y-99561910D01*
X141207179Y-99844174D01*
X141037441Y-100098205D01*
X140821405Y-100314241D01*
X140567374Y-100483979D01*
X140285110Y-100600896D01*
X140185227Y-100620764D01*
X139985462Y-100660500D01*
X139679938Y-100660500D01*
X139480173Y-100620764D01*
X139380290Y-100600896D01*
X139098026Y-100483979D01*
X138843995Y-100314241D01*
X138627959Y-100098205D01*
X138458221Y-99844174D01*
X138341304Y-99561910D01*
X138281700Y-99262260D01*
X138281700Y-98956740D01*
X138284434Y-98942996D01*
X138341304Y-98657091D01*
X138341304Y-98657090D01*
X138458221Y-98374826D01*
X138627959Y-98120795D01*
X138843995Y-97904759D01*
X139098026Y-97735021D01*
X139380290Y-97618104D01*
X139480173Y-97598236D01*
X139679938Y-97558500D01*
X139985462Y-97558500D01*
X140185227Y-97598236D01*
X140185227Y-97598236D01*
G37*
G36*
X147685227Y-97598236D02*
X147785110Y-97618104D01*
X148067374Y-97735021D01*
X148321405Y-97904759D01*
X148537441Y-98120795D01*
X148707179Y-98374826D01*
X148824096Y-98657090D01*
X148824096Y-98657091D01*
X148880967Y-98942996D01*
X148883700Y-98956740D01*
X148883700Y-99262260D01*
X148824096Y-99561910D01*
X148707179Y-99844174D01*
X148537441Y-100098205D01*
X148321405Y-100314241D01*
X148067374Y-100483979D01*
X147785110Y-100600896D01*
X147685227Y-100620764D01*
X147485462Y-100660500D01*
X147179938Y-100660500D01*
X146980173Y-100620764D01*
X146880290Y-100600896D01*
X146598026Y-100483979D01*
X146343995Y-100314241D01*
X146127959Y-100098205D01*
X145958221Y-99844174D01*
X145841304Y-99561910D01*
X145781700Y-99262260D01*
X145781700Y-98956740D01*
X145784434Y-98942996D01*
X145841304Y-98657091D01*
X145841304Y-98657090D01*
X145958221Y-98374826D01*
X146127959Y-98120795D01*
X146343995Y-97904759D01*
X146598026Y-97735021D01*
X146880290Y-97618104D01*
X146980173Y-97598236D01*
X147179938Y-97558500D01*
X147485462Y-97558500D01*
X147685227Y-97598236D01*
X147685227Y-97598236D01*
G37*
G36*
X205920427Y-97598236D02*
X206020310Y-97618104D01*
X206302574Y-97735021D01*
X206556605Y-97904759D01*
X206772641Y-98120795D01*
X206942379Y-98374826D01*
X207059296Y-98657090D01*
X207059296Y-98657091D01*
X207116167Y-98942996D01*
X207118900Y-98956740D01*
X207118900Y-99262260D01*
X207059296Y-99561910D01*
X206942379Y-99844174D01*
X206772641Y-100098205D01*
X206556605Y-100314241D01*
X206302574Y-100483979D01*
X206020310Y-100600896D01*
X205920427Y-100620764D01*
X205720662Y-100660500D01*
X205415138Y-100660500D01*
X205215373Y-100620764D01*
X205115490Y-100600896D01*
X204833226Y-100483979D01*
X204579195Y-100314241D01*
X204363159Y-100098205D01*
X204193421Y-99844174D01*
X204076504Y-99561910D01*
X204016900Y-99262260D01*
X204016900Y-98956740D01*
X204019634Y-98942996D01*
X204076504Y-98657091D01*
X204076504Y-98657090D01*
X204193421Y-98374826D01*
X204363159Y-98120795D01*
X204579195Y-97904759D01*
X204833226Y-97735021D01*
X205115490Y-97618104D01*
X205215373Y-97598236D01*
X205415138Y-97558500D01*
X205720662Y-97558500D01*
X205920427Y-97598236D01*
X205920427Y-97598236D01*
G37*
G36*
X180552827Y-97598236D02*
X180652710Y-97618104D01*
X180934974Y-97735021D01*
X181189005Y-97904759D01*
X181405041Y-98120795D01*
X181574779Y-98374826D01*
X181691696Y-98657090D01*
X181691696Y-98657091D01*
X181748567Y-98942996D01*
X181751300Y-98956740D01*
X181751300Y-99262260D01*
X181691696Y-99561910D01*
X181574779Y-99844174D01*
X181405041Y-100098205D01*
X181189005Y-100314241D01*
X180934974Y-100483979D01*
X180652710Y-100600896D01*
X180552827Y-100620764D01*
X180353062Y-100660500D01*
X180047538Y-100660500D01*
X179847773Y-100620764D01*
X179747890Y-100600896D01*
X179465626Y-100483979D01*
X179211595Y-100314241D01*
X178995559Y-100098205D01*
X178825821Y-99844174D01*
X178708904Y-99561910D01*
X178649300Y-99262260D01*
X178649300Y-98956740D01*
X178652034Y-98942996D01*
X178708904Y-98657091D01*
X178708904Y-98657090D01*
X178825821Y-98374826D01*
X178995559Y-98120795D01*
X179211595Y-97904759D01*
X179465626Y-97735021D01*
X179747890Y-97618104D01*
X179847773Y-97598236D01*
X180047538Y-97558500D01*
X180353062Y-97558500D01*
X180552827Y-97598236D01*
X180552827Y-97598236D01*
G37*
G36*
X173052827Y-97598236D02*
X173152710Y-97618104D01*
X173434974Y-97735021D01*
X173689005Y-97904759D01*
X173905041Y-98120795D01*
X174074779Y-98374826D01*
X174191696Y-98657090D01*
X174191696Y-98657091D01*
X174248567Y-98942996D01*
X174251300Y-98956740D01*
X174251300Y-99262260D01*
X174191696Y-99561910D01*
X174074779Y-99844174D01*
X173905041Y-100098205D01*
X173689005Y-100314241D01*
X173434974Y-100483979D01*
X173152710Y-100600896D01*
X173052827Y-100620764D01*
X172853062Y-100660500D01*
X172547538Y-100660500D01*
X172347773Y-100620764D01*
X172247890Y-100600896D01*
X171965626Y-100483979D01*
X171711595Y-100314241D01*
X171495559Y-100098205D01*
X171325821Y-99844174D01*
X171208904Y-99561910D01*
X171149300Y-99262260D01*
X171149300Y-98956740D01*
X171152034Y-98942996D01*
X171208904Y-98657091D01*
X171208904Y-98657090D01*
X171325821Y-98374826D01*
X171495559Y-98120795D01*
X171711595Y-97904759D01*
X171965626Y-97735021D01*
X172247890Y-97618104D01*
X172347773Y-97598236D01*
X172547538Y-97558500D01*
X172853062Y-97558500D01*
X173052827Y-97598236D01*
X173052827Y-97598236D01*
G37*
G36*
X246288027Y-97598236D02*
X246387910Y-97618104D01*
X246670174Y-97735021D01*
X246924205Y-97904759D01*
X247140241Y-98120795D01*
X247309979Y-98374826D01*
X247426896Y-98657090D01*
X247426896Y-98657091D01*
X247483767Y-98942996D01*
X247486500Y-98956740D01*
X247486500Y-99262260D01*
X247426896Y-99561910D01*
X247309979Y-99844174D01*
X247140241Y-100098205D01*
X246924205Y-100314241D01*
X246670174Y-100483979D01*
X246387910Y-100600896D01*
X246288027Y-100620764D01*
X246088262Y-100660500D01*
X245782738Y-100660500D01*
X245582973Y-100620764D01*
X245483090Y-100600896D01*
X245200826Y-100483979D01*
X244946795Y-100314241D01*
X244730759Y-100098205D01*
X244561021Y-99844174D01*
X244444104Y-99561910D01*
X244384500Y-99262260D01*
X244384500Y-98956740D01*
X244387234Y-98942996D01*
X244444104Y-98657091D01*
X244444104Y-98657090D01*
X244561021Y-98374826D01*
X244730759Y-98120795D01*
X244946795Y-97904759D01*
X245200826Y-97735021D01*
X245483090Y-97618104D01*
X245582973Y-97598236D01*
X245782738Y-97558500D01*
X246088262Y-97558500D01*
X246288027Y-97598236D01*
X246288027Y-97598236D01*
G37*
G36*
X213420427Y-97598236D02*
X213520310Y-97618104D01*
X213802574Y-97735021D01*
X214056605Y-97904759D01*
X214272641Y-98120795D01*
X214442379Y-98374826D01*
X214559296Y-98657090D01*
X214559296Y-98657091D01*
X214616167Y-98942996D01*
X214618900Y-98956740D01*
X214618900Y-99262260D01*
X214559296Y-99561910D01*
X214442379Y-99844174D01*
X214272641Y-100098205D01*
X214056605Y-100314241D01*
X213802574Y-100483979D01*
X213520310Y-100600896D01*
X213420427Y-100620764D01*
X213220662Y-100660500D01*
X212915138Y-100660500D01*
X212715373Y-100620764D01*
X212615490Y-100600896D01*
X212333226Y-100483979D01*
X212079195Y-100314241D01*
X211863159Y-100098205D01*
X211693421Y-99844174D01*
X211576504Y-99561910D01*
X211516900Y-99262260D01*
X211516900Y-98956740D01*
X211519634Y-98942996D01*
X211576504Y-98657091D01*
X211576504Y-98657090D01*
X211693421Y-98374826D01*
X211863159Y-98120795D01*
X212079195Y-97904759D01*
X212333226Y-97735021D01*
X212615490Y-97618104D01*
X212715373Y-97598236D01*
X212915138Y-97558500D01*
X213220662Y-97558500D01*
X213420427Y-97598236D01*
X213420427Y-97598236D01*
G37*
G36*
X238788027Y-97598236D02*
X238887910Y-97618104D01*
X239170174Y-97735021D01*
X239424205Y-97904759D01*
X239640241Y-98120795D01*
X239809979Y-98374826D01*
X239926896Y-98657090D01*
X239926896Y-98657091D01*
X239983767Y-98942996D01*
X239986500Y-98956740D01*
X239986500Y-99262260D01*
X239926896Y-99561910D01*
X239809979Y-99844174D01*
X239640241Y-100098205D01*
X239424205Y-100314241D01*
X239170174Y-100483979D01*
X238887910Y-100600896D01*
X238788027Y-100620764D01*
X238588262Y-100660500D01*
X238282738Y-100660500D01*
X238082973Y-100620764D01*
X237983090Y-100600896D01*
X237700826Y-100483979D01*
X237446795Y-100314241D01*
X237230759Y-100098205D01*
X237061021Y-99844174D01*
X236944104Y-99561910D01*
X236884500Y-99262260D01*
X236884500Y-98956740D01*
X236887234Y-98942996D01*
X236944104Y-98657091D01*
X236944104Y-98657090D01*
X237061021Y-98374826D01*
X237230759Y-98120795D01*
X237446795Y-97904759D01*
X237700826Y-97735021D01*
X237983090Y-97618104D01*
X238082973Y-97598236D01*
X238282738Y-97558500D01*
X238588262Y-97558500D01*
X238788027Y-97598236D01*
X238788027Y-97598236D01*
G37*
G36*
X132858510Y-92865070D02*
X133550247Y-93151597D01*
X134172799Y-93567573D01*
X134702227Y-94097001D01*
X135118203Y-94719553D01*
X135404730Y-95411290D01*
X135550800Y-96145633D01*
X135550800Y-96894367D01*
X135404730Y-97628710D01*
X135118203Y-98320447D01*
X134702227Y-98942999D01*
X134172799Y-99472427D01*
X133550247Y-99888403D01*
X132858510Y-100174930D01*
X132124167Y-100321000D01*
X131375433Y-100321000D01*
X130641090Y-100174930D01*
X129949353Y-99888403D01*
X129326801Y-99472427D01*
X128797373Y-98942999D01*
X128381397Y-98320447D01*
X128094870Y-97628710D01*
X127948800Y-96894367D01*
X127948800Y-96145633D01*
X128094870Y-95411290D01*
X128381397Y-94719553D01*
X128797373Y-94097001D01*
X129326801Y-93567573D01*
X129949353Y-93151597D01*
X130641090Y-92865070D01*
X131375433Y-92719000D01*
X132124167Y-92719000D01*
X132858510Y-92865070D01*
X132858510Y-92865070D01*
G37*
G36*
X67529710Y-92865070D02*
X68221447Y-93151597D01*
X68843999Y-93567573D01*
X69373427Y-94097001D01*
X69789403Y-94719553D01*
X70075930Y-95411290D01*
X70222000Y-96145633D01*
X70222000Y-96894367D01*
X70075930Y-97628710D01*
X69789403Y-98320447D01*
X69373427Y-98942999D01*
X68843999Y-99472427D01*
X68221447Y-99888403D01*
X67529710Y-100174930D01*
X66795367Y-100321000D01*
X66046633Y-100321000D01*
X65312290Y-100174930D01*
X64620553Y-99888403D01*
X63998001Y-99472427D01*
X63468573Y-98942999D01*
X63052597Y-98320447D01*
X62766070Y-97628710D01*
X62620000Y-96894367D01*
X62620000Y-96145633D01*
X62766070Y-95411290D01*
X63052597Y-94719553D01*
X63468573Y-94097001D01*
X63998001Y-93567573D01*
X64620553Y-93151597D01*
X65312290Y-92865070D01*
X66046633Y-92719000D01*
X66795367Y-92719000D01*
X67529710Y-92865070D01*
X67529710Y-92865070D01*
G37*
G36*
X100194110Y-92865070D02*
X100885847Y-93151597D01*
X101508399Y-93567573D01*
X102037827Y-94097001D01*
X102453803Y-94719553D01*
X102740330Y-95411290D01*
X102886400Y-96145633D01*
X102886400Y-96894367D01*
X102740330Y-97628710D01*
X102453803Y-98320447D01*
X102037827Y-98942999D01*
X101508399Y-99472427D01*
X100885847Y-99888403D01*
X100194110Y-100174930D01*
X99459767Y-100321000D01*
X98711033Y-100321000D01*
X97976690Y-100174930D01*
X97284953Y-99888403D01*
X96662401Y-99472427D01*
X96132973Y-98942999D01*
X95716997Y-98320447D01*
X95430470Y-97628710D01*
X95284400Y-96894367D01*
X95284400Y-96145633D01*
X95430470Y-95411290D01*
X95716997Y-94719553D01*
X96132973Y-94097001D01*
X96662401Y-93567573D01*
X97284953Y-93151597D01*
X97976690Y-92865070D01*
X98711033Y-92719000D01*
X99459767Y-92719000D01*
X100194110Y-92865070D01*
X100194110Y-92865070D01*
G37*
G36*
X165522910Y-92865070D02*
X166214647Y-93151597D01*
X166837199Y-93567573D01*
X167366627Y-94097001D01*
X167782603Y-94719553D01*
X168069130Y-95411290D01*
X168215200Y-96145633D01*
X168215200Y-96894367D01*
X168069130Y-97628710D01*
X167782603Y-98320447D01*
X167366627Y-98942999D01*
X166837199Y-99472427D01*
X166214647Y-99888403D01*
X165522910Y-100174930D01*
X164788567Y-100321000D01*
X164039833Y-100321000D01*
X163305490Y-100174930D01*
X162613753Y-99888403D01*
X161991201Y-99472427D01*
X161461773Y-98942999D01*
X161045797Y-98320447D01*
X160759270Y-97628710D01*
X160613200Y-96894367D01*
X160613200Y-96145633D01*
X160759270Y-95411290D01*
X161045797Y-94719553D01*
X161461773Y-94097001D01*
X161991201Y-93567573D01*
X162613753Y-93151597D01*
X163305490Y-92865070D01*
X164039833Y-92719000D01*
X164788567Y-92719000D01*
X165522910Y-92865070D01*
X165522910Y-92865070D01*
G37*
G36*
X198187310Y-92865070D02*
X198879047Y-93151597D01*
X199501599Y-93567573D01*
X200031027Y-94097001D01*
X200447003Y-94719553D01*
X200733530Y-95411290D01*
X200879600Y-96145633D01*
X200879600Y-96894367D01*
X200733530Y-97628710D01*
X200447003Y-98320447D01*
X200031027Y-98942999D01*
X199501599Y-99472427D01*
X198879047Y-99888403D01*
X198187310Y-100174930D01*
X197452967Y-100321000D01*
X196704233Y-100321000D01*
X195969890Y-100174930D01*
X195278153Y-99888403D01*
X194655601Y-99472427D01*
X194126173Y-98942999D01*
X193710197Y-98320447D01*
X193423670Y-97628710D01*
X193277600Y-96894367D01*
X193277600Y-96145633D01*
X193423670Y-95411290D01*
X193710197Y-94719553D01*
X194126173Y-94097001D01*
X194655601Y-93567573D01*
X195278153Y-93151597D01*
X195969890Y-92865070D01*
X196704233Y-92719000D01*
X197452967Y-92719000D01*
X198187310Y-92865070D01*
X198187310Y-92865070D01*
G37*
G36*
X230851710Y-92865070D02*
X231543447Y-93151597D01*
X232165999Y-93567573D01*
X232695427Y-94097001D01*
X233111403Y-94719553D01*
X233397930Y-95411290D01*
X233544000Y-96145633D01*
X233544000Y-96894367D01*
X233397930Y-97628710D01*
X233111403Y-98320447D01*
X232695427Y-98942999D01*
X232165999Y-99472427D01*
X231543447Y-99888403D01*
X230851710Y-100174930D01*
X230117367Y-100321000D01*
X229368633Y-100321000D01*
X228634290Y-100174930D01*
X227942553Y-99888403D01*
X227320001Y-99472427D01*
X226790573Y-98942999D01*
X226374597Y-98320447D01*
X226088070Y-97628710D01*
X225942000Y-96894367D01*
X225942000Y-96145633D01*
X226088070Y-95411290D01*
X226374597Y-94719553D01*
X226790573Y-94097001D01*
X227320001Y-93567573D01*
X227942553Y-93151597D01*
X228634290Y-92865070D01*
X229368633Y-92719000D01*
X230117367Y-92719000D01*
X230851710Y-92865070D01*
X230851710Y-92865070D01*
G37*
G36*
X147685227Y-92598236D02*
X147785110Y-92618104D01*
X148067374Y-92735021D01*
X148321405Y-92904759D01*
X148537441Y-93120795D01*
X148707179Y-93374826D01*
X148824096Y-93657090D01*
X148883700Y-93956740D01*
X148883700Y-94262260D01*
X148824096Y-94561910D01*
X148707179Y-94844174D01*
X148537441Y-95098205D01*
X148321405Y-95314241D01*
X148067374Y-95483979D01*
X147785110Y-95600896D01*
X147685227Y-95620764D01*
X147485462Y-95660500D01*
X147179938Y-95660500D01*
X146980173Y-95620764D01*
X146880290Y-95600896D01*
X146598026Y-95483979D01*
X146343995Y-95314241D01*
X146127959Y-95098205D01*
X145958221Y-94844174D01*
X145841304Y-94561910D01*
X145781700Y-94262260D01*
X145781700Y-93956740D01*
X145841304Y-93657090D01*
X145958221Y-93374826D01*
X146127959Y-93120795D01*
X146343995Y-92904759D01*
X146598026Y-92735021D01*
X146880290Y-92618104D01*
X146980173Y-92598236D01*
X147179938Y-92558500D01*
X147485462Y-92558500D01*
X147685227Y-92598236D01*
X147685227Y-92598236D01*
G37*
G36*
X180552827Y-92598236D02*
X180652710Y-92618104D01*
X180934974Y-92735021D01*
X181189005Y-92904759D01*
X181405041Y-93120795D01*
X181574779Y-93374826D01*
X181691696Y-93657090D01*
X181751300Y-93956740D01*
X181751300Y-94262260D01*
X181691696Y-94561910D01*
X181574779Y-94844174D01*
X181405041Y-95098205D01*
X181189005Y-95314241D01*
X180934974Y-95483979D01*
X180652710Y-95600896D01*
X180552827Y-95620764D01*
X180353062Y-95660500D01*
X180047538Y-95660500D01*
X179847773Y-95620764D01*
X179747890Y-95600896D01*
X179465626Y-95483979D01*
X179211595Y-95314241D01*
X178995559Y-95098205D01*
X178825821Y-94844174D01*
X178708904Y-94561910D01*
X178649300Y-94262260D01*
X178649300Y-93956740D01*
X178708904Y-93657090D01*
X178825821Y-93374826D01*
X178995559Y-93120795D01*
X179211595Y-92904759D01*
X179465626Y-92735021D01*
X179747890Y-92618104D01*
X179847773Y-92598236D01*
X180047538Y-92558500D01*
X180353062Y-92558500D01*
X180552827Y-92598236D01*
X180552827Y-92598236D01*
G37*
G36*
X246288027Y-92598236D02*
X246387910Y-92618104D01*
X246670174Y-92735021D01*
X246924205Y-92904759D01*
X247140241Y-93120795D01*
X247309979Y-93374826D01*
X247426896Y-93657090D01*
X247486500Y-93956740D01*
X247486500Y-94262260D01*
X247426896Y-94561910D01*
X247309979Y-94844174D01*
X247140241Y-95098205D01*
X246924205Y-95314241D01*
X246670174Y-95483979D01*
X246387910Y-95600896D01*
X246288027Y-95620764D01*
X246088262Y-95660500D01*
X245782738Y-95660500D01*
X245582973Y-95620764D01*
X245483090Y-95600896D01*
X245200826Y-95483979D01*
X244946795Y-95314241D01*
X244730759Y-95098205D01*
X244561021Y-94844174D01*
X244444104Y-94561910D01*
X244384500Y-94262260D01*
X244384500Y-93956740D01*
X244444104Y-93657090D01*
X244561021Y-93374826D01*
X244730759Y-93120795D01*
X244946795Y-92904759D01*
X245200826Y-92735021D01*
X245483090Y-92618104D01*
X245582973Y-92598236D01*
X245782738Y-92558500D01*
X246088262Y-92558500D01*
X246288027Y-92598236D01*
X246288027Y-92598236D01*
G37*
G36*
X74450027Y-92598236D02*
X74549910Y-92618104D01*
X74832174Y-92735021D01*
X75086205Y-92904759D01*
X75302241Y-93120795D01*
X75471979Y-93374826D01*
X75588896Y-93657090D01*
X75648500Y-93956740D01*
X75648500Y-94262260D01*
X75588896Y-94561910D01*
X75471979Y-94844174D01*
X75302241Y-95098205D01*
X75086205Y-95314241D01*
X74832174Y-95483979D01*
X74549910Y-95600896D01*
X74450027Y-95620764D01*
X74250262Y-95660500D01*
X73944738Y-95660500D01*
X73744973Y-95620764D01*
X73645090Y-95600896D01*
X73362826Y-95483979D01*
X73108795Y-95314241D01*
X72892759Y-95098205D01*
X72723021Y-94844174D01*
X72606104Y-94561910D01*
X72546500Y-94262260D01*
X72546500Y-93956740D01*
X72606104Y-93657090D01*
X72723021Y-93374826D01*
X72892759Y-93120795D01*
X73108795Y-92904759D01*
X73362826Y-92735021D01*
X73645090Y-92618104D01*
X73744973Y-92598236D01*
X73944738Y-92558500D01*
X74250262Y-92558500D01*
X74450027Y-92598236D01*
X74450027Y-92598236D01*
G37*
G36*
X205920427Y-92598236D02*
X206020310Y-92618104D01*
X206302574Y-92735021D01*
X206556605Y-92904759D01*
X206772641Y-93120795D01*
X206942379Y-93374826D01*
X207059296Y-93657090D01*
X207118900Y-93956740D01*
X207118900Y-94262260D01*
X207059296Y-94561910D01*
X206942379Y-94844174D01*
X206772641Y-95098205D01*
X206556605Y-95314241D01*
X206302574Y-95483979D01*
X206020310Y-95600896D01*
X205920427Y-95620764D01*
X205720662Y-95660500D01*
X205415138Y-95660500D01*
X205215373Y-95620764D01*
X205115490Y-95600896D01*
X204833226Y-95483979D01*
X204579195Y-95314241D01*
X204363159Y-95098205D01*
X204193421Y-94844174D01*
X204076504Y-94561910D01*
X204016900Y-94262260D01*
X204016900Y-93956740D01*
X204076504Y-93657090D01*
X204193421Y-93374826D01*
X204363159Y-93120795D01*
X204579195Y-92904759D01*
X204833226Y-92735021D01*
X205115490Y-92618104D01*
X205215373Y-92598236D01*
X205415138Y-92558500D01*
X205720662Y-92558500D01*
X205920427Y-92598236D01*
X205920427Y-92598236D01*
G37*
G36*
X238788027Y-92598236D02*
X238887910Y-92618104D01*
X239170174Y-92735021D01*
X239424205Y-92904759D01*
X239640241Y-93120795D01*
X239809979Y-93374826D01*
X239926896Y-93657090D01*
X239986500Y-93956740D01*
X239986500Y-94262260D01*
X239926896Y-94561910D01*
X239809979Y-94844174D01*
X239640241Y-95098205D01*
X239424205Y-95314241D01*
X239170174Y-95483979D01*
X238887910Y-95600896D01*
X238788027Y-95620764D01*
X238588262Y-95660500D01*
X238282738Y-95660500D01*
X238082973Y-95620764D01*
X237983090Y-95600896D01*
X237700826Y-95483979D01*
X237446795Y-95314241D01*
X237230759Y-95098205D01*
X237061021Y-94844174D01*
X236944104Y-94561910D01*
X236884500Y-94262260D01*
X236884500Y-93956740D01*
X236944104Y-93657090D01*
X237061021Y-93374826D01*
X237230759Y-93120795D01*
X237446795Y-92904759D01*
X237700826Y-92735021D01*
X237983090Y-92618104D01*
X238082973Y-92598236D01*
X238282738Y-92558500D01*
X238588262Y-92558500D01*
X238788027Y-92598236D01*
X238788027Y-92598236D01*
G37*
G36*
X140185227Y-92598236D02*
X140285110Y-92618104D01*
X140567374Y-92735021D01*
X140821405Y-92904759D01*
X141037441Y-93120795D01*
X141207179Y-93374826D01*
X141324096Y-93657090D01*
X141383700Y-93956740D01*
X141383700Y-94262260D01*
X141324096Y-94561910D01*
X141207179Y-94844174D01*
X141037441Y-95098205D01*
X140821405Y-95314241D01*
X140567374Y-95483979D01*
X140285110Y-95600896D01*
X140185227Y-95620764D01*
X139985462Y-95660500D01*
X139679938Y-95660500D01*
X139480173Y-95620764D01*
X139380290Y-95600896D01*
X139098026Y-95483979D01*
X138843995Y-95314241D01*
X138627959Y-95098205D01*
X138458221Y-94844174D01*
X138341304Y-94561910D01*
X138281700Y-94262260D01*
X138281700Y-93956740D01*
X138341304Y-93657090D01*
X138458221Y-93374826D01*
X138627959Y-93120795D01*
X138843995Y-92904759D01*
X139098026Y-92735021D01*
X139380290Y-92618104D01*
X139480173Y-92598236D01*
X139679938Y-92558500D01*
X139985462Y-92558500D01*
X140185227Y-92598236D01*
X140185227Y-92598236D01*
G37*
G36*
X81950027Y-92598236D02*
X82049910Y-92618104D01*
X82332174Y-92735021D01*
X82586205Y-92904759D01*
X82802241Y-93120795D01*
X82971979Y-93374826D01*
X83088896Y-93657090D01*
X83148500Y-93956740D01*
X83148500Y-94262260D01*
X83088896Y-94561910D01*
X82971979Y-94844174D01*
X82802241Y-95098205D01*
X82586205Y-95314241D01*
X82332174Y-95483979D01*
X82049910Y-95600896D01*
X81950027Y-95620764D01*
X81750262Y-95660500D01*
X81444738Y-95660500D01*
X81244973Y-95620764D01*
X81145090Y-95600896D01*
X80862826Y-95483979D01*
X80608795Y-95314241D01*
X80392759Y-95098205D01*
X80223021Y-94844174D01*
X80106104Y-94561910D01*
X80046500Y-94262260D01*
X80046500Y-93956740D01*
X80106104Y-93657090D01*
X80223021Y-93374826D01*
X80392759Y-93120795D01*
X80608795Y-92904759D01*
X80862826Y-92735021D01*
X81145090Y-92618104D01*
X81244973Y-92598236D01*
X81444738Y-92558500D01*
X81750262Y-92558500D01*
X81950027Y-92598236D01*
X81950027Y-92598236D01*
G37*
G36*
X213420427Y-92598236D02*
X213520310Y-92618104D01*
X213802574Y-92735021D01*
X214056605Y-92904759D01*
X214272641Y-93120795D01*
X214442379Y-93374826D01*
X214559296Y-93657090D01*
X214618900Y-93956740D01*
X214618900Y-94262260D01*
X214559296Y-94561910D01*
X214442379Y-94844174D01*
X214272641Y-95098205D01*
X214056605Y-95314241D01*
X213802574Y-95483979D01*
X213520310Y-95600896D01*
X213420427Y-95620764D01*
X213220662Y-95660500D01*
X212915138Y-95660500D01*
X212715373Y-95620764D01*
X212615490Y-95600896D01*
X212333226Y-95483979D01*
X212079195Y-95314241D01*
X211863159Y-95098205D01*
X211693421Y-94844174D01*
X211576504Y-94561910D01*
X211516900Y-94262260D01*
X211516900Y-93956740D01*
X211576504Y-93657090D01*
X211693421Y-93374826D01*
X211863159Y-93120795D01*
X212079195Y-92904759D01*
X212333226Y-92735021D01*
X212615490Y-92618104D01*
X212715373Y-92598236D01*
X212915138Y-92558500D01*
X213220662Y-92558500D01*
X213420427Y-92598236D01*
X213420427Y-92598236D01*
G37*
G36*
X114817627Y-92598236D02*
X114917510Y-92618104D01*
X115199774Y-92735021D01*
X115453805Y-92904759D01*
X115669841Y-93120795D01*
X115839579Y-93374826D01*
X115956496Y-93657090D01*
X116016100Y-93956740D01*
X116016100Y-94262260D01*
X115956496Y-94561910D01*
X115839579Y-94844174D01*
X115669841Y-95098205D01*
X115453805Y-95314241D01*
X115199774Y-95483979D01*
X114917510Y-95600896D01*
X114817627Y-95620764D01*
X114617862Y-95660500D01*
X114312338Y-95660500D01*
X114112573Y-95620764D01*
X114012690Y-95600896D01*
X113730426Y-95483979D01*
X113476395Y-95314241D01*
X113260359Y-95098205D01*
X113090621Y-94844174D01*
X112973704Y-94561910D01*
X112914100Y-94262260D01*
X112914100Y-93956740D01*
X112973704Y-93657090D01*
X113090621Y-93374826D01*
X113260359Y-93120795D01*
X113476395Y-92904759D01*
X113730426Y-92735021D01*
X114012690Y-92618104D01*
X114112573Y-92598236D01*
X114312338Y-92558500D01*
X114617862Y-92558500D01*
X114817627Y-92598236D01*
X114817627Y-92598236D01*
G37*
G36*
X107317627Y-92598236D02*
X107417510Y-92618104D01*
X107699774Y-92735021D01*
X107953805Y-92904759D01*
X108169841Y-93120795D01*
X108339579Y-93374826D01*
X108456496Y-93657090D01*
X108516100Y-93956740D01*
X108516100Y-94262260D01*
X108456496Y-94561910D01*
X108339579Y-94844174D01*
X108169841Y-95098205D01*
X107953805Y-95314241D01*
X107699774Y-95483979D01*
X107417510Y-95600896D01*
X107317627Y-95620764D01*
X107117862Y-95660500D01*
X106812338Y-95660500D01*
X106612573Y-95620764D01*
X106512690Y-95600896D01*
X106230426Y-95483979D01*
X105976395Y-95314241D01*
X105760359Y-95098205D01*
X105590621Y-94844174D01*
X105473704Y-94561910D01*
X105414100Y-94262260D01*
X105414100Y-93956740D01*
X105473704Y-93657090D01*
X105590621Y-93374826D01*
X105760359Y-93120795D01*
X105976395Y-92904759D01*
X106230426Y-92735021D01*
X106512690Y-92618104D01*
X106612573Y-92598236D01*
X106812338Y-92558500D01*
X107117862Y-92558500D01*
X107317627Y-92598236D01*
X107317627Y-92598236D01*
G37*
G36*
X173052827Y-92598236D02*
X173152710Y-92618104D01*
X173434974Y-92735021D01*
X173689005Y-92904759D01*
X173905041Y-93120795D01*
X174074779Y-93374826D01*
X174191696Y-93657090D01*
X174251300Y-93956740D01*
X174251300Y-94262260D01*
X174191696Y-94561910D01*
X174074779Y-94844174D01*
X173905041Y-95098205D01*
X173689005Y-95314241D01*
X173434974Y-95483979D01*
X173152710Y-95600896D01*
X173052827Y-95620764D01*
X172853062Y-95660500D01*
X172547538Y-95660500D01*
X172347773Y-95620764D01*
X172247890Y-95600896D01*
X171965626Y-95483979D01*
X171711595Y-95314241D01*
X171495559Y-95098205D01*
X171325821Y-94844174D01*
X171208904Y-94561910D01*
X171149300Y-94262260D01*
X171149300Y-93956740D01*
X171208904Y-93657090D01*
X171325821Y-93374826D01*
X171495559Y-93120795D01*
X171711595Y-92904759D01*
X171965626Y-92735021D01*
X172247890Y-92618104D01*
X172347773Y-92598236D01*
X172547538Y-92558500D01*
X172853062Y-92558500D01*
X173052827Y-92598236D01*
X173052827Y-92598236D01*
G37*
G36*
X123738510Y-83745070D02*
X124430247Y-84031597D01*
X125052799Y-84447573D01*
X125582227Y-84977001D01*
X125998203Y-85599553D01*
X126284730Y-86291290D01*
X126430800Y-87025633D01*
X126430800Y-87774367D01*
X126284730Y-88508710D01*
X125998203Y-89200447D01*
X125582227Y-89822999D01*
X125052799Y-90352427D01*
X124430247Y-90768403D01*
X123738510Y-91054930D01*
X123004167Y-91201000D01*
X122255433Y-91201000D01*
X121521090Y-91054930D01*
X120829353Y-90768403D01*
X120206801Y-90352427D01*
X119677373Y-89822999D01*
X119261397Y-89200447D01*
X118974870Y-88508710D01*
X118828800Y-87774367D01*
X118828800Y-87025633D01*
X118974870Y-86291290D01*
X119261397Y-85599553D01*
X119677373Y-84977001D01*
X120206801Y-84447573D01*
X120829353Y-84031597D01*
X121521090Y-83745070D01*
X122255433Y-83599000D01*
X123004167Y-83599000D01*
X123738510Y-83745070D01*
X123738510Y-83745070D01*
G37*
G36*
X58409710Y-83745070D02*
X59101447Y-84031597D01*
X59723999Y-84447573D01*
X60253427Y-84977001D01*
X60669403Y-85599553D01*
X60955930Y-86291290D01*
X61102000Y-87025633D01*
X61102000Y-87774367D01*
X60955930Y-88508710D01*
X60669403Y-89200447D01*
X60253427Y-89822999D01*
X59723999Y-90352427D01*
X59101447Y-90768403D01*
X58409710Y-91054930D01*
X57675367Y-91201000D01*
X56926633Y-91201000D01*
X56192290Y-91054930D01*
X55500553Y-90768403D01*
X54878001Y-90352427D01*
X54348573Y-89822999D01*
X53932597Y-89200447D01*
X53646070Y-88508710D01*
X53500000Y-87774367D01*
X53500000Y-87025633D01*
X53646070Y-86291290D01*
X53932597Y-85599553D01*
X54348573Y-84977001D01*
X54878001Y-84447573D01*
X55500553Y-84031597D01*
X56192290Y-83745070D01*
X56926633Y-83599000D01*
X57675367Y-83599000D01*
X58409710Y-83745070D01*
X58409710Y-83745070D01*
G37*
G36*
X91074110Y-83745070D02*
X91765847Y-84031597D01*
X92388399Y-84447573D01*
X92917827Y-84977001D01*
X93333803Y-85599553D01*
X93620330Y-86291290D01*
X93766400Y-87025633D01*
X93766400Y-87774367D01*
X93620330Y-88508710D01*
X93333803Y-89200447D01*
X92917827Y-89822999D01*
X92388399Y-90352427D01*
X91765847Y-90768403D01*
X91074110Y-91054930D01*
X90339767Y-91201000D01*
X89591033Y-91201000D01*
X88856690Y-91054930D01*
X88164953Y-90768403D01*
X87542401Y-90352427D01*
X87012973Y-89822999D01*
X86596997Y-89200447D01*
X86310470Y-88508710D01*
X86164400Y-87774367D01*
X86164400Y-87025633D01*
X86310470Y-86291290D01*
X86596997Y-85599553D01*
X87012973Y-84977001D01*
X87542401Y-84447573D01*
X88164953Y-84031597D01*
X88856690Y-83745070D01*
X89591033Y-83599000D01*
X90339767Y-83599000D01*
X91074110Y-83745070D01*
X91074110Y-83745070D01*
G37*
G36*
X156402910Y-83745070D02*
X157094647Y-84031597D01*
X157717199Y-84447573D01*
X158246627Y-84977001D01*
X158662603Y-85599553D01*
X158949130Y-86291290D01*
X159095200Y-87025633D01*
X159095200Y-87774367D01*
X158949130Y-88508710D01*
X158662603Y-89200447D01*
X158246627Y-89822999D01*
X157717199Y-90352427D01*
X157094647Y-90768403D01*
X156402910Y-91054930D01*
X155668567Y-91201000D01*
X154919833Y-91201000D01*
X154185490Y-91054930D01*
X153493753Y-90768403D01*
X152871201Y-90352427D01*
X152341773Y-89822999D01*
X151925797Y-89200447D01*
X151639270Y-88508710D01*
X151493200Y-87774367D01*
X151493200Y-87025633D01*
X151639270Y-86291290D01*
X151925797Y-85599553D01*
X152341773Y-84977001D01*
X152871201Y-84447573D01*
X153493753Y-84031597D01*
X154185490Y-83745070D01*
X154919833Y-83599000D01*
X155668567Y-83599000D01*
X156402910Y-83745070D01*
X156402910Y-83745070D01*
G37*
G36*
X221731710Y-83745070D02*
X222423447Y-84031597D01*
X223045999Y-84447573D01*
X223575427Y-84977001D01*
X223991403Y-85599553D01*
X224277930Y-86291290D01*
X224424000Y-87025633D01*
X224424000Y-87774367D01*
X224277930Y-88508710D01*
X223991403Y-89200447D01*
X223575427Y-89822999D01*
X223045999Y-90352427D01*
X222423447Y-90768403D01*
X221731710Y-91054930D01*
X220997367Y-91201000D01*
X220248633Y-91201000D01*
X219514290Y-91054930D01*
X218822553Y-90768403D01*
X218200001Y-90352427D01*
X217670573Y-89822999D01*
X217254597Y-89200447D01*
X216968070Y-88508710D01*
X216822000Y-87774367D01*
X216822000Y-87025633D01*
X216968070Y-86291290D01*
X217254597Y-85599553D01*
X217670573Y-84977001D01*
X218200001Y-84447573D01*
X218822553Y-84031597D01*
X219514290Y-83745070D01*
X220248633Y-83599000D01*
X220997367Y-83599000D01*
X221731710Y-83745070D01*
X221731710Y-83745070D01*
G37*
G36*
X189067310Y-83745070D02*
X189759047Y-84031597D01*
X190381599Y-84447573D01*
X190911027Y-84977001D01*
X191327003Y-85599553D01*
X191613530Y-86291290D01*
X191759600Y-87025633D01*
X191759600Y-87774367D01*
X191613530Y-88508710D01*
X191327003Y-89200447D01*
X190911027Y-89822999D01*
X190381599Y-90352427D01*
X189759047Y-90768403D01*
X189067310Y-91054930D01*
X188332967Y-91201000D01*
X187584233Y-91201000D01*
X186849890Y-91054930D01*
X186158153Y-90768403D01*
X185535601Y-90352427D01*
X185006173Y-89822999D01*
X184590197Y-89200447D01*
X184303670Y-88508710D01*
X184157600Y-87774367D01*
X184157600Y-87025633D01*
X184303670Y-86291290D01*
X184590197Y-85599553D01*
X185006173Y-84977001D01*
X185535601Y-84447573D01*
X186158153Y-84031597D01*
X186849890Y-83745070D01*
X187584233Y-83599000D01*
X188332967Y-83599000D01*
X189067310Y-83745070D01*
X189067310Y-83745070D01*
G37*
G36*
X180552827Y-87598236D02*
X180652710Y-87618104D01*
X180934974Y-87735021D01*
X181189005Y-87904759D01*
X181405041Y-88120795D01*
X181574779Y-88374826D01*
X181691696Y-88657090D01*
X181691696Y-88657091D01*
X181751300Y-88956738D01*
X181751300Y-89262262D01*
X181717685Y-89431256D01*
X181691696Y-89561910D01*
X181574779Y-89844174D01*
X181405041Y-90098205D01*
X181189005Y-90314241D01*
X180934974Y-90483979D01*
X180652710Y-90600896D01*
X180552827Y-90620764D01*
X180353062Y-90660500D01*
X180047538Y-90660500D01*
X179847773Y-90620764D01*
X179747890Y-90600896D01*
X179465626Y-90483979D01*
X179211595Y-90314241D01*
X178995559Y-90098205D01*
X178825821Y-89844174D01*
X178708904Y-89561910D01*
X178682915Y-89431256D01*
X178649300Y-89262262D01*
X178649300Y-88956738D01*
X178708904Y-88657091D01*
X178708904Y-88657090D01*
X178825821Y-88374826D01*
X178995559Y-88120795D01*
X179211595Y-87904759D01*
X179465626Y-87735021D01*
X179747890Y-87618104D01*
X179847773Y-87598236D01*
X180047538Y-87558500D01*
X180353062Y-87558500D01*
X180552827Y-87598236D01*
X180552827Y-87598236D01*
G37*
G36*
X140185227Y-87598236D02*
X140285110Y-87618104D01*
X140567374Y-87735021D01*
X140821405Y-87904759D01*
X141037441Y-88120795D01*
X141207179Y-88374826D01*
X141324096Y-88657090D01*
X141324096Y-88657091D01*
X141383700Y-88956738D01*
X141383700Y-89262262D01*
X141350085Y-89431256D01*
X141324096Y-89561910D01*
X141207179Y-89844174D01*
X141037441Y-90098205D01*
X140821405Y-90314241D01*
X140567374Y-90483979D01*
X140285110Y-90600896D01*
X140185227Y-90620764D01*
X139985462Y-90660500D01*
X139679938Y-90660500D01*
X139480173Y-90620764D01*
X139380290Y-90600896D01*
X139098026Y-90483979D01*
X138843995Y-90314241D01*
X138627959Y-90098205D01*
X138458221Y-89844174D01*
X138341304Y-89561910D01*
X138315315Y-89431256D01*
X138281700Y-89262262D01*
X138281700Y-88956738D01*
X138341304Y-88657091D01*
X138341304Y-88657090D01*
X138458221Y-88374826D01*
X138627959Y-88120795D01*
X138843995Y-87904759D01*
X139098026Y-87735021D01*
X139380290Y-87618104D01*
X139480173Y-87598236D01*
X139679938Y-87558500D01*
X139985462Y-87558500D01*
X140185227Y-87598236D01*
X140185227Y-87598236D01*
G37*
G36*
X74450027Y-87598236D02*
X74549910Y-87618104D01*
X74832174Y-87735021D01*
X75086205Y-87904759D01*
X75302241Y-88120795D01*
X75471979Y-88374826D01*
X75588896Y-88657090D01*
X75588896Y-88657091D01*
X75648500Y-88956738D01*
X75648500Y-89262262D01*
X75614885Y-89431256D01*
X75588896Y-89561910D01*
X75471979Y-89844174D01*
X75302241Y-90098205D01*
X75086205Y-90314241D01*
X74832174Y-90483979D01*
X74549910Y-90600896D01*
X74450027Y-90620764D01*
X74250262Y-90660500D01*
X73944738Y-90660500D01*
X73744973Y-90620764D01*
X73645090Y-90600896D01*
X73362826Y-90483979D01*
X73108795Y-90314241D01*
X72892759Y-90098205D01*
X72723021Y-89844174D01*
X72606104Y-89561910D01*
X72580115Y-89431256D01*
X72546500Y-89262262D01*
X72546500Y-88956738D01*
X72606104Y-88657091D01*
X72606104Y-88657090D01*
X72723021Y-88374826D01*
X72892759Y-88120795D01*
X73108795Y-87904759D01*
X73362826Y-87735021D01*
X73645090Y-87618104D01*
X73744973Y-87598236D01*
X73944738Y-87558500D01*
X74250262Y-87558500D01*
X74450027Y-87598236D01*
X74450027Y-87598236D01*
G37*
G36*
X173052827Y-87598236D02*
X173152710Y-87618104D01*
X173434974Y-87735021D01*
X173689005Y-87904759D01*
X173905041Y-88120795D01*
X174074779Y-88374826D01*
X174191696Y-88657090D01*
X174191696Y-88657091D01*
X174251300Y-88956738D01*
X174251300Y-89262262D01*
X174217685Y-89431256D01*
X174191696Y-89561910D01*
X174074779Y-89844174D01*
X173905041Y-90098205D01*
X173689005Y-90314241D01*
X173434974Y-90483979D01*
X173152710Y-90600896D01*
X173052827Y-90620764D01*
X172853062Y-90660500D01*
X172547538Y-90660500D01*
X172347773Y-90620764D01*
X172247890Y-90600896D01*
X171965626Y-90483979D01*
X171711595Y-90314241D01*
X171495559Y-90098205D01*
X171325821Y-89844174D01*
X171208904Y-89561910D01*
X171182915Y-89431256D01*
X171149300Y-89262262D01*
X171149300Y-88956738D01*
X171208904Y-88657091D01*
X171208904Y-88657090D01*
X171325821Y-88374826D01*
X171495559Y-88120795D01*
X171711595Y-87904759D01*
X171965626Y-87735021D01*
X172247890Y-87618104D01*
X172347773Y-87598236D01*
X172547538Y-87558500D01*
X172853062Y-87558500D01*
X173052827Y-87598236D01*
X173052827Y-87598236D01*
G37*
G36*
X238788027Y-87598236D02*
X238887910Y-87618104D01*
X239170174Y-87735021D01*
X239424205Y-87904759D01*
X239640241Y-88120795D01*
X239809979Y-88374826D01*
X239926896Y-88657090D01*
X239926896Y-88657091D01*
X239986500Y-88956738D01*
X239986500Y-89262262D01*
X239952885Y-89431256D01*
X239926896Y-89561910D01*
X239809979Y-89844174D01*
X239640241Y-90098205D01*
X239424205Y-90314241D01*
X239170174Y-90483979D01*
X238887910Y-90600896D01*
X238788027Y-90620764D01*
X238588262Y-90660500D01*
X238282738Y-90660500D01*
X238082973Y-90620764D01*
X237983090Y-90600896D01*
X237700826Y-90483979D01*
X237446795Y-90314241D01*
X237230759Y-90098205D01*
X237061021Y-89844174D01*
X236944104Y-89561910D01*
X236918115Y-89431256D01*
X236884500Y-89262262D01*
X236884500Y-88956738D01*
X236944104Y-88657091D01*
X236944104Y-88657090D01*
X237061021Y-88374826D01*
X237230759Y-88120795D01*
X237446795Y-87904759D01*
X237700826Y-87735021D01*
X237983090Y-87618104D01*
X238082973Y-87598236D01*
X238282738Y-87558500D01*
X238588262Y-87558500D01*
X238788027Y-87598236D01*
X238788027Y-87598236D01*
G37*
G36*
X246288027Y-87598236D02*
X246387910Y-87618104D01*
X246670174Y-87735021D01*
X246924205Y-87904759D01*
X247140241Y-88120795D01*
X247309979Y-88374826D01*
X247426896Y-88657090D01*
X247426896Y-88657091D01*
X247486500Y-88956738D01*
X247486500Y-89262262D01*
X247452885Y-89431256D01*
X247426896Y-89561910D01*
X247309979Y-89844174D01*
X247140241Y-90098205D01*
X246924205Y-90314241D01*
X246670174Y-90483979D01*
X246387910Y-90600896D01*
X246288027Y-90620764D01*
X246088262Y-90660500D01*
X245782738Y-90660500D01*
X245582973Y-90620764D01*
X245483090Y-90600896D01*
X245200826Y-90483979D01*
X244946795Y-90314241D01*
X244730759Y-90098205D01*
X244561021Y-89844174D01*
X244444104Y-89561910D01*
X244418115Y-89431256D01*
X244384500Y-89262262D01*
X244384500Y-88956738D01*
X244444104Y-88657091D01*
X244444104Y-88657090D01*
X244561021Y-88374826D01*
X244730759Y-88120795D01*
X244946795Y-87904759D01*
X245200826Y-87735021D01*
X245483090Y-87618104D01*
X245582973Y-87598236D01*
X245782738Y-87558500D01*
X246088262Y-87558500D01*
X246288027Y-87598236D01*
X246288027Y-87598236D01*
G37*
G36*
X147685227Y-87598236D02*
X147785110Y-87618104D01*
X148067374Y-87735021D01*
X148321405Y-87904759D01*
X148537441Y-88120795D01*
X148707179Y-88374826D01*
X148824096Y-88657090D01*
X148824096Y-88657091D01*
X148883700Y-88956738D01*
X148883700Y-89262262D01*
X148850085Y-89431256D01*
X148824096Y-89561910D01*
X148707179Y-89844174D01*
X148537441Y-90098205D01*
X148321405Y-90314241D01*
X148067374Y-90483979D01*
X147785110Y-90600896D01*
X147685227Y-90620764D01*
X147485462Y-90660500D01*
X147179938Y-90660500D01*
X146980173Y-90620764D01*
X146880290Y-90600896D01*
X146598026Y-90483979D01*
X146343995Y-90314241D01*
X146127959Y-90098205D01*
X145958221Y-89844174D01*
X145841304Y-89561910D01*
X145815315Y-89431256D01*
X145781700Y-89262262D01*
X145781700Y-88956738D01*
X145841304Y-88657091D01*
X145841304Y-88657090D01*
X145958221Y-88374826D01*
X146127959Y-88120795D01*
X146343995Y-87904759D01*
X146598026Y-87735021D01*
X146880290Y-87618104D01*
X146980173Y-87598236D01*
X147179938Y-87558500D01*
X147485462Y-87558500D01*
X147685227Y-87598236D01*
X147685227Y-87598236D01*
G37*
G36*
X205920427Y-87598236D02*
X206020310Y-87618104D01*
X206302574Y-87735021D01*
X206556605Y-87904759D01*
X206772641Y-88120795D01*
X206942379Y-88374826D01*
X207059296Y-88657090D01*
X207059296Y-88657091D01*
X207118900Y-88956738D01*
X207118900Y-89262262D01*
X207085285Y-89431256D01*
X207059296Y-89561910D01*
X206942379Y-89844174D01*
X206772641Y-90098205D01*
X206556605Y-90314241D01*
X206302574Y-90483979D01*
X206020310Y-90600896D01*
X205920427Y-90620764D01*
X205720662Y-90660500D01*
X205415138Y-90660500D01*
X205215373Y-90620764D01*
X205115490Y-90600896D01*
X204833226Y-90483979D01*
X204579195Y-90314241D01*
X204363159Y-90098205D01*
X204193421Y-89844174D01*
X204076504Y-89561910D01*
X204050515Y-89431256D01*
X204016900Y-89262262D01*
X204016900Y-88956738D01*
X204076504Y-88657091D01*
X204076504Y-88657090D01*
X204193421Y-88374826D01*
X204363159Y-88120795D01*
X204579195Y-87904759D01*
X204833226Y-87735021D01*
X205115490Y-87618104D01*
X205215373Y-87598236D01*
X205415138Y-87558500D01*
X205720662Y-87558500D01*
X205920427Y-87598236D01*
X205920427Y-87598236D01*
G37*
G36*
X114817627Y-87598236D02*
X114917510Y-87618104D01*
X115199774Y-87735021D01*
X115453805Y-87904759D01*
X115669841Y-88120795D01*
X115839579Y-88374826D01*
X115956496Y-88657090D01*
X115956496Y-88657091D01*
X116016100Y-88956738D01*
X116016100Y-89262262D01*
X115982485Y-89431256D01*
X115956496Y-89561910D01*
X115839579Y-89844174D01*
X115669841Y-90098205D01*
X115453805Y-90314241D01*
X115199774Y-90483979D01*
X114917510Y-90600896D01*
X114817627Y-90620764D01*
X114617862Y-90660500D01*
X114312338Y-90660500D01*
X114112573Y-90620764D01*
X114012690Y-90600896D01*
X113730426Y-90483979D01*
X113476395Y-90314241D01*
X113260359Y-90098205D01*
X113090621Y-89844174D01*
X112973704Y-89561910D01*
X112947715Y-89431256D01*
X112914100Y-89262262D01*
X112914100Y-88956738D01*
X112973704Y-88657091D01*
X112973704Y-88657090D01*
X113090621Y-88374826D01*
X113260359Y-88120795D01*
X113476395Y-87904759D01*
X113730426Y-87735021D01*
X114012690Y-87618104D01*
X114112573Y-87598236D01*
X114312338Y-87558500D01*
X114617862Y-87558500D01*
X114817627Y-87598236D01*
X114817627Y-87598236D01*
G37*
G36*
X213420427Y-87598236D02*
X213520310Y-87618104D01*
X213802574Y-87735021D01*
X214056605Y-87904759D01*
X214272641Y-88120795D01*
X214442379Y-88374826D01*
X214559296Y-88657090D01*
X214559296Y-88657091D01*
X214618900Y-88956738D01*
X214618900Y-89262262D01*
X214585285Y-89431256D01*
X214559296Y-89561910D01*
X214442379Y-89844174D01*
X214272641Y-90098205D01*
X214056605Y-90314241D01*
X213802574Y-90483979D01*
X213520310Y-90600896D01*
X213420427Y-90620764D01*
X213220662Y-90660500D01*
X212915138Y-90660500D01*
X212715373Y-90620764D01*
X212615490Y-90600896D01*
X212333226Y-90483979D01*
X212079195Y-90314241D01*
X211863159Y-90098205D01*
X211693421Y-89844174D01*
X211576504Y-89561910D01*
X211550515Y-89431256D01*
X211516900Y-89262262D01*
X211516900Y-88956738D01*
X211576504Y-88657091D01*
X211576504Y-88657090D01*
X211693421Y-88374826D01*
X211863159Y-88120795D01*
X212079195Y-87904759D01*
X212333226Y-87735021D01*
X212615490Y-87618104D01*
X212715373Y-87598236D01*
X212915138Y-87558500D01*
X213220662Y-87558500D01*
X213420427Y-87598236D01*
X213420427Y-87598236D01*
G37*
G36*
X107317627Y-87598236D02*
X107417510Y-87618104D01*
X107699774Y-87735021D01*
X107953805Y-87904759D01*
X108169841Y-88120795D01*
X108339579Y-88374826D01*
X108456496Y-88657090D01*
X108456496Y-88657091D01*
X108516100Y-88956738D01*
X108516100Y-89262262D01*
X108482485Y-89431256D01*
X108456496Y-89561910D01*
X108339579Y-89844174D01*
X108169841Y-90098205D01*
X107953805Y-90314241D01*
X107699774Y-90483979D01*
X107417510Y-90600896D01*
X107317627Y-90620764D01*
X107117862Y-90660500D01*
X106812338Y-90660500D01*
X106612573Y-90620764D01*
X106512690Y-90600896D01*
X106230426Y-90483979D01*
X105976395Y-90314241D01*
X105760359Y-90098205D01*
X105590621Y-89844174D01*
X105473704Y-89561910D01*
X105447715Y-89431256D01*
X105414100Y-89262262D01*
X105414100Y-88956738D01*
X105473704Y-88657091D01*
X105473704Y-88657090D01*
X105590621Y-88374826D01*
X105760359Y-88120795D01*
X105976395Y-87904759D01*
X106230426Y-87735021D01*
X106512690Y-87618104D01*
X106612573Y-87598236D01*
X106812338Y-87558500D01*
X107117862Y-87558500D01*
X107317627Y-87598236D01*
X107317627Y-87598236D01*
G37*
G36*
X81950027Y-87598236D02*
X82049910Y-87618104D01*
X82332174Y-87735021D01*
X82586205Y-87904759D01*
X82802241Y-88120795D01*
X82971979Y-88374826D01*
X83088896Y-88657090D01*
X83088896Y-88657091D01*
X83148500Y-88956738D01*
X83148500Y-89262262D01*
X83114885Y-89431256D01*
X83088896Y-89561910D01*
X82971979Y-89844174D01*
X82802241Y-90098205D01*
X82586205Y-90314241D01*
X82332174Y-90483979D01*
X82049910Y-90600896D01*
X81950027Y-90620764D01*
X81750262Y-90660500D01*
X81444738Y-90660500D01*
X81244973Y-90620764D01*
X81145090Y-90600896D01*
X80862826Y-90483979D01*
X80608795Y-90314241D01*
X80392759Y-90098205D01*
X80223021Y-89844174D01*
X80106104Y-89561910D01*
X80080115Y-89431256D01*
X80046500Y-89262262D01*
X80046500Y-88956738D01*
X80106104Y-88657091D01*
X80106104Y-88657090D01*
X80223021Y-88374826D01*
X80392759Y-88120795D01*
X80608795Y-87904759D01*
X80862826Y-87735021D01*
X81145090Y-87618104D01*
X81244973Y-87598236D01*
X81444738Y-87558500D01*
X81750262Y-87558500D01*
X81950027Y-87598236D01*
X81950027Y-87598236D01*
G37*
G36*
X223745527Y-77228736D02*
X223845410Y-77248604D01*
X224127674Y-77365521D01*
X224381705Y-77535259D01*
X224597741Y-77751295D01*
X224767479Y-78005326D01*
X224884396Y-78287590D01*
X224944000Y-78587240D01*
X224944000Y-78892760D01*
X224884396Y-79192410D01*
X224767479Y-79474674D01*
X224597741Y-79728705D01*
X224381705Y-79944741D01*
X224127674Y-80114479D01*
X223845410Y-80231396D01*
X223745527Y-80251264D01*
X223545762Y-80291000D01*
X223240238Y-80291000D01*
X223040473Y-80251264D01*
X222940590Y-80231396D01*
X222658326Y-80114479D01*
X222404295Y-79944741D01*
X222188259Y-79728705D01*
X222018521Y-79474674D01*
X221901604Y-79192410D01*
X221842000Y-78892760D01*
X221842000Y-78587240D01*
X221901604Y-78287590D01*
X222018521Y-78005326D01*
X222188259Y-77751295D01*
X222404295Y-77535259D01*
X222658326Y-77365521D01*
X222940590Y-77248604D01*
X223040473Y-77228736D01*
X223240238Y-77189000D01*
X223545762Y-77189000D01*
X223745527Y-77228736D01*
X223745527Y-77228736D01*
G37*
G36*
X216245527Y-77228736D02*
X216345410Y-77248604D01*
X216627674Y-77365521D01*
X216881705Y-77535259D01*
X217097741Y-77751295D01*
X217267479Y-78005326D01*
X217384396Y-78287590D01*
X217444000Y-78587240D01*
X217444000Y-78892760D01*
X217384396Y-79192410D01*
X217267479Y-79474674D01*
X217097741Y-79728705D01*
X216881705Y-79944741D01*
X216627674Y-80114479D01*
X216345410Y-80231396D01*
X216245527Y-80251264D01*
X216045762Y-80291000D01*
X215740238Y-80291000D01*
X215540473Y-80251264D01*
X215440590Y-80231396D01*
X215158326Y-80114479D01*
X214904295Y-79944741D01*
X214688259Y-79728705D01*
X214518521Y-79474674D01*
X214401604Y-79192410D01*
X214342000Y-78892760D01*
X214342000Y-78587240D01*
X214401604Y-78287590D01*
X214518521Y-78005326D01*
X214688259Y-77751295D01*
X214904295Y-77535259D01*
X215158326Y-77365521D01*
X215440590Y-77248604D01*
X215540473Y-77228736D01*
X215740238Y-77189000D01*
X216045762Y-77189000D01*
X216245527Y-77228736D01*
X216245527Y-77228736D01*
G37*
G36*
X246448710Y-68965070D02*
X247140447Y-69251597D01*
X247762999Y-69667573D01*
X248292427Y-70197001D01*
X248708403Y-70819553D01*
X248994930Y-71511290D01*
X249141000Y-72245633D01*
X249141000Y-72994367D01*
X248994930Y-73728710D01*
X248708403Y-74420447D01*
X248292427Y-75042999D01*
X247762999Y-75572427D01*
X247140447Y-75988403D01*
X246448710Y-76274930D01*
X245714367Y-76421000D01*
X244965633Y-76421000D01*
X244231290Y-76274930D01*
X243539553Y-75988403D01*
X242917001Y-75572427D01*
X242387573Y-75042999D01*
X241971597Y-74420447D01*
X241685070Y-73728710D01*
X241539000Y-72994367D01*
X241539000Y-72245633D01*
X241685070Y-71511290D01*
X241971597Y-70819553D01*
X242387573Y-70197001D01*
X242917001Y-69667573D01*
X243539553Y-69251597D01*
X244231290Y-68965070D01*
X244965633Y-68819000D01*
X245714367Y-68819000D01*
X246448710Y-68965070D01*
X246448710Y-68965070D01*
G37*
G36*
X102538027Y-67518660D02*
X102637910Y-67538528D01*
X102920174Y-67655445D01*
X103174205Y-67825183D01*
X103390241Y-68041219D01*
X103559979Y-68295250D01*
X103676896Y-68577514D01*
X103676896Y-68577515D01*
X103736500Y-68877162D01*
X103736500Y-69182686D01*
X103722792Y-69251598D01*
X103676896Y-69482334D01*
X103559979Y-69764598D01*
X103390241Y-70018629D01*
X103174205Y-70234665D01*
X102920174Y-70404403D01*
X102637910Y-70521320D01*
X102538027Y-70541188D01*
X102338262Y-70580924D01*
X102032738Y-70580924D01*
X101832973Y-70541188D01*
X101733090Y-70521320D01*
X101450826Y-70404403D01*
X101196795Y-70234665D01*
X100980759Y-70018629D01*
X100811021Y-69764598D01*
X100694104Y-69482334D01*
X100648208Y-69251598D01*
X100634500Y-69182686D01*
X100634500Y-68877162D01*
X100694104Y-68577515D01*
X100694104Y-68577514D01*
X100811021Y-68295250D01*
X100980759Y-68041219D01*
X101196795Y-67825183D01*
X101450826Y-67655445D01*
X101733090Y-67538528D01*
X101832973Y-67518660D01*
X102032738Y-67478924D01*
X102338262Y-67478924D01*
X102538027Y-67518660D01*
X102538027Y-67518660D01*
G37*
G36*
X112538027Y-67518660D02*
X112637910Y-67538528D01*
X112920174Y-67655445D01*
X113174205Y-67825183D01*
X113390241Y-68041219D01*
X113559979Y-68295250D01*
X113676896Y-68577514D01*
X113676896Y-68577515D01*
X113736500Y-68877162D01*
X113736500Y-69182686D01*
X113722792Y-69251598D01*
X113676896Y-69482334D01*
X113559979Y-69764598D01*
X113390241Y-70018629D01*
X113174205Y-70234665D01*
X112920174Y-70404403D01*
X112637910Y-70521320D01*
X112538027Y-70541188D01*
X112338262Y-70580924D01*
X112032738Y-70580924D01*
X111832973Y-70541188D01*
X111733090Y-70521320D01*
X111450826Y-70404403D01*
X111196795Y-70234665D01*
X110980759Y-70018629D01*
X110811021Y-69764598D01*
X110694104Y-69482334D01*
X110648208Y-69251598D01*
X110634500Y-69182686D01*
X110634500Y-68877162D01*
X110694104Y-68577515D01*
X110694104Y-68577514D01*
X110811021Y-68295250D01*
X110980759Y-68041219D01*
X111196795Y-67825183D01*
X111450826Y-67655445D01*
X111733090Y-67538528D01*
X111832973Y-67518660D01*
X112032738Y-67478924D01*
X112338262Y-67478924D01*
X112538027Y-67518660D01*
X112538027Y-67518660D01*
G37*
G36*
X107538027Y-67518660D02*
X107637910Y-67538528D01*
X107920174Y-67655445D01*
X108174205Y-67825183D01*
X108390241Y-68041219D01*
X108559979Y-68295250D01*
X108676896Y-68577514D01*
X108676896Y-68577515D01*
X108736500Y-68877162D01*
X108736500Y-69182686D01*
X108722792Y-69251598D01*
X108676896Y-69482334D01*
X108559979Y-69764598D01*
X108390241Y-70018629D01*
X108174205Y-70234665D01*
X107920174Y-70404403D01*
X107637910Y-70521320D01*
X107538027Y-70541188D01*
X107338262Y-70580924D01*
X107032738Y-70580924D01*
X106832973Y-70541188D01*
X106733090Y-70521320D01*
X106450826Y-70404403D01*
X106196795Y-70234665D01*
X105980759Y-70018629D01*
X105811021Y-69764598D01*
X105694104Y-69482334D01*
X105648208Y-69251598D01*
X105634500Y-69182686D01*
X105634500Y-68877162D01*
X105694104Y-68577515D01*
X105694104Y-68577514D01*
X105811021Y-68295250D01*
X105980759Y-68041219D01*
X106196795Y-67825183D01*
X106450826Y-67655445D01*
X106733090Y-67538528D01*
X106832973Y-67518660D01*
X107032738Y-67478924D01*
X107338262Y-67478924D01*
X107538027Y-67518660D01*
X107538027Y-67518660D01*
G37*
G36*
X151927027Y-67518660D02*
X152026910Y-67538528D01*
X152309174Y-67655445D01*
X152563205Y-67825183D01*
X152779241Y-68041219D01*
X152948979Y-68295250D01*
X153065896Y-68577514D01*
X153065896Y-68577515D01*
X153125500Y-68877162D01*
X153125500Y-69182686D01*
X153111792Y-69251598D01*
X153065896Y-69482334D01*
X152948979Y-69764598D01*
X152779241Y-70018629D01*
X152563205Y-70234665D01*
X152309174Y-70404403D01*
X152026910Y-70521320D01*
X151927027Y-70541188D01*
X151727262Y-70580924D01*
X151421738Y-70580924D01*
X151221973Y-70541188D01*
X151122090Y-70521320D01*
X150839826Y-70404403D01*
X150585795Y-70234665D01*
X150369759Y-70018629D01*
X150200021Y-69764598D01*
X150083104Y-69482334D01*
X150037208Y-69251598D01*
X150023500Y-69182686D01*
X150023500Y-68877162D01*
X150083104Y-68577515D01*
X150083104Y-68577514D01*
X150200021Y-68295250D01*
X150369759Y-68041219D01*
X150585795Y-67825183D01*
X150839826Y-67655445D01*
X151122090Y-67538528D01*
X151221973Y-67518660D01*
X151421738Y-67478924D01*
X151727262Y-67478924D01*
X151927027Y-67518660D01*
X151927027Y-67518660D01*
G37*
G36*
X166927027Y-67518660D02*
X167026910Y-67538528D01*
X167309174Y-67655445D01*
X167563205Y-67825183D01*
X167779241Y-68041219D01*
X167948979Y-68295250D01*
X168065896Y-68577514D01*
X168065896Y-68577515D01*
X168125500Y-68877162D01*
X168125500Y-69182686D01*
X168111792Y-69251598D01*
X168065896Y-69482334D01*
X167948979Y-69764598D01*
X167779241Y-70018629D01*
X167563205Y-70234665D01*
X167309174Y-70404403D01*
X167026910Y-70521320D01*
X166927027Y-70541188D01*
X166727262Y-70580924D01*
X166421738Y-70580924D01*
X166221973Y-70541188D01*
X166122090Y-70521320D01*
X165839826Y-70404403D01*
X165585795Y-70234665D01*
X165369759Y-70018629D01*
X165200021Y-69764598D01*
X165083104Y-69482334D01*
X165037208Y-69251598D01*
X165023500Y-69182686D01*
X165023500Y-68877162D01*
X165083104Y-68577515D01*
X165083104Y-68577514D01*
X165200021Y-68295250D01*
X165369759Y-68041219D01*
X165585795Y-67825183D01*
X165839826Y-67655445D01*
X166122090Y-67538528D01*
X166221973Y-67518660D01*
X166421738Y-67478924D01*
X166727262Y-67478924D01*
X166927027Y-67518660D01*
X166927027Y-67518660D01*
G37*
G36*
X80343527Y-67518660D02*
X80443410Y-67538528D01*
X80725674Y-67655445D01*
X80979705Y-67825183D01*
X81195741Y-68041219D01*
X81365479Y-68295250D01*
X81482396Y-68577514D01*
X81482396Y-68577515D01*
X81542000Y-68877162D01*
X81542000Y-69182686D01*
X81528292Y-69251598D01*
X81482396Y-69482334D01*
X81365479Y-69764598D01*
X81195741Y-70018629D01*
X80979705Y-70234665D01*
X80725674Y-70404403D01*
X80443410Y-70521320D01*
X80343527Y-70541188D01*
X80143762Y-70580924D01*
X79838238Y-70580924D01*
X79638473Y-70541188D01*
X79538590Y-70521320D01*
X79256326Y-70404403D01*
X79002295Y-70234665D01*
X78786259Y-70018629D01*
X78616521Y-69764598D01*
X78499604Y-69482334D01*
X78453708Y-69251598D01*
X78440000Y-69182686D01*
X78440000Y-68877162D01*
X78499604Y-68577515D01*
X78499604Y-68577514D01*
X78616521Y-68295250D01*
X78786259Y-68041219D01*
X79002295Y-67825183D01*
X79256326Y-67655445D01*
X79538590Y-67538528D01*
X79638473Y-67518660D01*
X79838238Y-67478924D01*
X80143762Y-67478924D01*
X80343527Y-67518660D01*
X80343527Y-67518660D01*
G37*
G36*
X70343527Y-67518660D02*
X70443410Y-67538528D01*
X70725674Y-67655445D01*
X70979705Y-67825183D01*
X71195741Y-68041219D01*
X71365479Y-68295250D01*
X71482396Y-68577514D01*
X71482396Y-68577515D01*
X71542000Y-68877162D01*
X71542000Y-69182686D01*
X71528292Y-69251598D01*
X71482396Y-69482334D01*
X71365479Y-69764598D01*
X71195741Y-70018629D01*
X70979705Y-70234665D01*
X70725674Y-70404403D01*
X70443410Y-70521320D01*
X70343527Y-70541188D01*
X70143762Y-70580924D01*
X69838238Y-70580924D01*
X69638473Y-70541188D01*
X69538590Y-70521320D01*
X69256326Y-70404403D01*
X69002295Y-70234665D01*
X68786259Y-70018629D01*
X68616521Y-69764598D01*
X68499604Y-69482334D01*
X68453708Y-69251598D01*
X68440000Y-69182686D01*
X68440000Y-68877162D01*
X68499604Y-68577515D01*
X68499604Y-68577514D01*
X68616521Y-68295250D01*
X68786259Y-68041219D01*
X69002295Y-67825183D01*
X69256326Y-67655445D01*
X69538590Y-67538528D01*
X69638473Y-67518660D01*
X69838238Y-67478924D01*
X70143762Y-67478924D01*
X70343527Y-67518660D01*
X70343527Y-67518660D01*
G37*
G36*
X55343527Y-67518660D02*
X55443410Y-67538528D01*
X55725674Y-67655445D01*
X55979705Y-67825183D01*
X56195741Y-68041219D01*
X56365479Y-68295250D01*
X56482396Y-68577514D01*
X56482396Y-68577515D01*
X56542000Y-68877162D01*
X56542000Y-69182686D01*
X56528292Y-69251598D01*
X56482396Y-69482334D01*
X56365479Y-69764598D01*
X56195741Y-70018629D01*
X55979705Y-70234665D01*
X55725674Y-70404403D01*
X55443410Y-70521320D01*
X55343527Y-70541188D01*
X55143762Y-70580924D01*
X54838238Y-70580924D01*
X54638473Y-70541188D01*
X54538590Y-70521320D01*
X54256326Y-70404403D01*
X54002295Y-70234665D01*
X53786259Y-70018629D01*
X53616521Y-69764598D01*
X53499604Y-69482334D01*
X53453708Y-69251598D01*
X53440000Y-69182686D01*
X53440000Y-68877162D01*
X53499604Y-68577515D01*
X53499604Y-68577514D01*
X53616521Y-68295250D01*
X53786259Y-68041219D01*
X54002295Y-67825183D01*
X54256326Y-67655445D01*
X54538590Y-67538528D01*
X54638473Y-67518660D01*
X54838238Y-67478924D01*
X55143762Y-67478924D01*
X55343527Y-67518660D01*
X55343527Y-67518660D01*
G37*
G36*
X87538027Y-67518660D02*
X87637910Y-67538528D01*
X87920174Y-67655445D01*
X88174205Y-67825183D01*
X88390241Y-68041219D01*
X88559979Y-68295250D01*
X88676896Y-68577514D01*
X88676896Y-68577515D01*
X88736500Y-68877162D01*
X88736500Y-69182686D01*
X88722792Y-69251598D01*
X88676896Y-69482334D01*
X88559979Y-69764598D01*
X88390241Y-70018629D01*
X88174205Y-70234665D01*
X87920174Y-70404403D01*
X87637910Y-70521320D01*
X87538027Y-70541188D01*
X87338262Y-70580924D01*
X87032738Y-70580924D01*
X86832973Y-70541188D01*
X86733090Y-70521320D01*
X86450826Y-70404403D01*
X86196795Y-70234665D01*
X85980759Y-70018629D01*
X85811021Y-69764598D01*
X85694104Y-69482334D01*
X85648208Y-69251598D01*
X85634500Y-69182686D01*
X85634500Y-68877162D01*
X85694104Y-68577515D01*
X85694104Y-68577514D01*
X85811021Y-68295250D01*
X85980759Y-68041219D01*
X86196795Y-67825183D01*
X86450826Y-67655445D01*
X86733090Y-67538528D01*
X86832973Y-67518660D01*
X87032738Y-67478924D01*
X87338262Y-67478924D01*
X87538027Y-67518660D01*
X87538027Y-67518660D01*
G37*
G36*
X176927027Y-67518660D02*
X177026910Y-67538528D01*
X177309174Y-67655445D01*
X177563205Y-67825183D01*
X177779241Y-68041219D01*
X177948979Y-68295250D01*
X178065896Y-68577514D01*
X178065896Y-68577515D01*
X178125500Y-68877162D01*
X178125500Y-69182686D01*
X178111792Y-69251598D01*
X178065896Y-69482334D01*
X177948979Y-69764598D01*
X177779241Y-70018629D01*
X177563205Y-70234665D01*
X177309174Y-70404403D01*
X177026910Y-70521320D01*
X176927027Y-70541188D01*
X176727262Y-70580924D01*
X176421738Y-70580924D01*
X176221973Y-70541188D01*
X176122090Y-70521320D01*
X175839826Y-70404403D01*
X175585795Y-70234665D01*
X175369759Y-70018629D01*
X175200021Y-69764598D01*
X175083104Y-69482334D01*
X175037208Y-69251598D01*
X175023500Y-69182686D01*
X175023500Y-68877162D01*
X175083104Y-68577515D01*
X175083104Y-68577514D01*
X175200021Y-68295250D01*
X175369759Y-68041219D01*
X175585795Y-67825183D01*
X175839826Y-67655445D01*
X176122090Y-67538528D01*
X176221973Y-67518660D01*
X176421738Y-67478924D01*
X176727262Y-67478924D01*
X176927027Y-67518660D01*
X176927027Y-67518660D01*
G37*
G36*
X134732527Y-67518660D02*
X134832410Y-67538528D01*
X135114674Y-67655445D01*
X135368705Y-67825183D01*
X135584741Y-68041219D01*
X135754479Y-68295250D01*
X135871396Y-68577514D01*
X135871396Y-68577515D01*
X135931000Y-68877162D01*
X135931000Y-69182686D01*
X135917292Y-69251598D01*
X135871396Y-69482334D01*
X135754479Y-69764598D01*
X135584741Y-70018629D01*
X135368705Y-70234665D01*
X135114674Y-70404403D01*
X134832410Y-70521320D01*
X134732527Y-70541188D01*
X134532762Y-70580924D01*
X134227238Y-70580924D01*
X134027473Y-70541188D01*
X133927590Y-70521320D01*
X133645326Y-70404403D01*
X133391295Y-70234665D01*
X133175259Y-70018629D01*
X133005521Y-69764598D01*
X132888604Y-69482334D01*
X132842708Y-69251598D01*
X132829000Y-69182686D01*
X132829000Y-68877162D01*
X132888604Y-68577515D01*
X132888604Y-68577514D01*
X133005521Y-68295250D01*
X133175259Y-68041219D01*
X133391295Y-67825183D01*
X133645326Y-67655445D01*
X133927590Y-67538528D01*
X134027473Y-67518660D01*
X134227238Y-67478924D01*
X134532762Y-67478924D01*
X134732527Y-67518660D01*
X134732527Y-67518660D01*
G37*
G36*
X119732527Y-67518660D02*
X119832410Y-67538528D01*
X120114674Y-67655445D01*
X120368705Y-67825183D01*
X120584741Y-68041219D01*
X120754479Y-68295250D01*
X120871396Y-68577514D01*
X120871396Y-68577515D01*
X120931000Y-68877162D01*
X120931000Y-69182686D01*
X120917292Y-69251598D01*
X120871396Y-69482334D01*
X120754479Y-69764598D01*
X120584741Y-70018629D01*
X120368705Y-70234665D01*
X120114674Y-70404403D01*
X119832410Y-70521320D01*
X119732527Y-70541188D01*
X119532762Y-70580924D01*
X119227238Y-70580924D01*
X119027473Y-70541188D01*
X118927590Y-70521320D01*
X118645326Y-70404403D01*
X118391295Y-70234665D01*
X118175259Y-70018629D01*
X118005521Y-69764598D01*
X117888604Y-69482334D01*
X117842708Y-69251598D01*
X117829000Y-69182686D01*
X117829000Y-68877162D01*
X117888604Y-68577515D01*
X117888604Y-68577514D01*
X118005521Y-68295250D01*
X118175259Y-68041219D01*
X118391295Y-67825183D01*
X118645326Y-67655445D01*
X118927590Y-67538528D01*
X119027473Y-67518660D01*
X119227238Y-67478924D01*
X119532762Y-67478924D01*
X119732527Y-67518660D01*
X119732527Y-67518660D01*
G37*
G36*
X139732527Y-67518660D02*
X139832410Y-67538528D01*
X140114674Y-67655445D01*
X140368705Y-67825183D01*
X140584741Y-68041219D01*
X140754479Y-68295250D01*
X140871396Y-68577514D01*
X140871396Y-68577515D01*
X140931000Y-68877162D01*
X140931000Y-69182686D01*
X140917292Y-69251598D01*
X140871396Y-69482334D01*
X140754479Y-69764598D01*
X140584741Y-70018629D01*
X140368705Y-70234665D01*
X140114674Y-70404403D01*
X139832410Y-70521320D01*
X139732527Y-70541188D01*
X139532762Y-70580924D01*
X139227238Y-70580924D01*
X139027473Y-70541188D01*
X138927590Y-70521320D01*
X138645326Y-70404403D01*
X138391295Y-70234665D01*
X138175259Y-70018629D01*
X138005521Y-69764598D01*
X137888604Y-69482334D01*
X137842708Y-69251598D01*
X137829000Y-69182686D01*
X137829000Y-68877162D01*
X137888604Y-68577515D01*
X137888604Y-68577514D01*
X138005521Y-68295250D01*
X138175259Y-68041219D01*
X138391295Y-67825183D01*
X138645326Y-67655445D01*
X138927590Y-67538528D01*
X139027473Y-67518660D01*
X139227238Y-67478924D01*
X139532762Y-67478924D01*
X139732527Y-67518660D01*
X139732527Y-67518660D01*
G37*
G36*
X184121527Y-67518660D02*
X184221410Y-67538528D01*
X184503674Y-67655445D01*
X184757705Y-67825183D01*
X184973741Y-68041219D01*
X185143479Y-68295250D01*
X185260396Y-68577514D01*
X185260396Y-68577515D01*
X185320000Y-68877162D01*
X185320000Y-69182686D01*
X185306292Y-69251598D01*
X185260396Y-69482334D01*
X185143479Y-69764598D01*
X184973741Y-70018629D01*
X184757705Y-70234665D01*
X184503674Y-70404403D01*
X184221410Y-70521320D01*
X184121527Y-70541188D01*
X183921762Y-70580924D01*
X183616238Y-70580924D01*
X183416473Y-70541188D01*
X183316590Y-70521320D01*
X183034326Y-70404403D01*
X182780295Y-70234665D01*
X182564259Y-70018629D01*
X182394521Y-69764598D01*
X182277604Y-69482334D01*
X182231708Y-69251598D01*
X182218000Y-69182686D01*
X182218000Y-68877162D01*
X182277604Y-68577515D01*
X182277604Y-68577514D01*
X182394521Y-68295250D01*
X182564259Y-68041219D01*
X182780295Y-67825183D01*
X183034326Y-67655445D01*
X183316590Y-67538528D01*
X183416473Y-67518660D01*
X183616238Y-67478924D01*
X183921762Y-67478924D01*
X184121527Y-67518660D01*
X184121527Y-67518660D01*
G37*
G36*
X199121527Y-67518660D02*
X199221410Y-67538528D01*
X199503674Y-67655445D01*
X199757705Y-67825183D01*
X199973741Y-68041219D01*
X200143479Y-68295250D01*
X200260396Y-68577514D01*
X200260396Y-68577515D01*
X200320000Y-68877162D01*
X200320000Y-69182686D01*
X200306292Y-69251598D01*
X200260396Y-69482334D01*
X200143479Y-69764598D01*
X199973741Y-70018629D01*
X199757705Y-70234665D01*
X199503674Y-70404403D01*
X199221410Y-70521320D01*
X199121527Y-70541188D01*
X198921762Y-70580924D01*
X198616238Y-70580924D01*
X198416473Y-70541188D01*
X198316590Y-70521320D01*
X198034326Y-70404403D01*
X197780295Y-70234665D01*
X197564259Y-70018629D01*
X197394521Y-69764598D01*
X197277604Y-69482334D01*
X197231708Y-69251598D01*
X197218000Y-69182686D01*
X197218000Y-68877162D01*
X197277604Y-68577515D01*
X197277604Y-68577514D01*
X197394521Y-68295250D01*
X197564259Y-68041219D01*
X197780295Y-67825183D01*
X198034326Y-67655445D01*
X198316590Y-67538528D01*
X198416473Y-67518660D01*
X198616238Y-67478924D01*
X198921762Y-67478924D01*
X199121527Y-67518660D01*
X199121527Y-67518660D01*
G37*
G36*
X204121527Y-67518660D02*
X204221410Y-67538528D01*
X204503674Y-67655445D01*
X204757705Y-67825183D01*
X204973741Y-68041219D01*
X205143479Y-68295250D01*
X205260396Y-68577514D01*
X205260396Y-68577515D01*
X205320000Y-68877162D01*
X205320000Y-69182686D01*
X205306292Y-69251598D01*
X205260396Y-69482334D01*
X205143479Y-69764598D01*
X204973741Y-70018629D01*
X204757705Y-70234665D01*
X204503674Y-70404403D01*
X204221410Y-70521320D01*
X204121527Y-70541188D01*
X203921762Y-70580924D01*
X203616238Y-70580924D01*
X203416473Y-70541188D01*
X203316590Y-70521320D01*
X203034326Y-70404403D01*
X202780295Y-70234665D01*
X202564259Y-70018629D01*
X202394521Y-69764598D01*
X202277604Y-69482334D01*
X202231708Y-69251598D01*
X202218000Y-69182686D01*
X202218000Y-68877162D01*
X202277604Y-68577515D01*
X202277604Y-68577514D01*
X202394521Y-68295250D01*
X202564259Y-68041219D01*
X202780295Y-67825183D01*
X203034326Y-67655445D01*
X203316590Y-67538528D01*
X203416473Y-67518660D01*
X203616238Y-67478924D01*
X203921762Y-67478924D01*
X204121527Y-67518660D01*
X204121527Y-67518660D01*
G37*
G36*
X209121527Y-67518660D02*
X209221410Y-67538528D01*
X209503674Y-67655445D01*
X209757705Y-67825183D01*
X209973741Y-68041219D01*
X210143479Y-68295250D01*
X210260396Y-68577514D01*
X210260396Y-68577515D01*
X210320000Y-68877162D01*
X210320000Y-69182686D01*
X210306292Y-69251598D01*
X210260396Y-69482334D01*
X210143479Y-69764598D01*
X209973741Y-70018629D01*
X209757705Y-70234665D01*
X209503674Y-70404403D01*
X209221410Y-70521320D01*
X209121527Y-70541188D01*
X208921762Y-70580924D01*
X208616238Y-70580924D01*
X208416473Y-70541188D01*
X208316590Y-70521320D01*
X208034326Y-70404403D01*
X207780295Y-70234665D01*
X207564259Y-70018629D01*
X207394521Y-69764598D01*
X207277604Y-69482334D01*
X207231708Y-69251598D01*
X207218000Y-69182686D01*
X207218000Y-68877162D01*
X207277604Y-68577515D01*
X207277604Y-68577514D01*
X207394521Y-68295250D01*
X207564259Y-68041219D01*
X207780295Y-67825183D01*
X208034326Y-67655445D01*
X208316590Y-67538528D01*
X208416473Y-67518660D01*
X208616238Y-67478924D01*
X208921762Y-67478924D01*
X209121527Y-67518660D01*
X209121527Y-67518660D01*
G37*
G36*
X171927027Y-67518660D02*
X172026910Y-67538528D01*
X172309174Y-67655445D01*
X172563205Y-67825183D01*
X172779241Y-68041219D01*
X172948979Y-68295250D01*
X173065896Y-68577514D01*
X173065896Y-68577515D01*
X173125500Y-68877162D01*
X173125500Y-69182686D01*
X173111792Y-69251598D01*
X173065896Y-69482334D01*
X172948979Y-69764598D01*
X172779241Y-70018629D01*
X172563205Y-70234665D01*
X172309174Y-70404403D01*
X172026910Y-70521320D01*
X171927027Y-70541188D01*
X171727262Y-70580924D01*
X171421738Y-70580924D01*
X171221973Y-70541188D01*
X171122090Y-70521320D01*
X170839826Y-70404403D01*
X170585795Y-70234665D01*
X170369759Y-70018629D01*
X170200021Y-69764598D01*
X170083104Y-69482334D01*
X170037208Y-69251598D01*
X170023500Y-69182686D01*
X170023500Y-68877162D01*
X170083104Y-68577515D01*
X170083104Y-68577514D01*
X170200021Y-68295250D01*
X170369759Y-68041219D01*
X170585795Y-67825183D01*
X170839826Y-67655445D01*
X171122090Y-67538528D01*
X171221973Y-67518660D01*
X171421738Y-67478924D01*
X171727262Y-67478924D01*
X171927027Y-67518660D01*
X171927027Y-67518660D01*
G37*
G36*
X75343527Y-67518660D02*
X75443410Y-67538528D01*
X75725674Y-67655445D01*
X75979705Y-67825183D01*
X76195741Y-68041219D01*
X76365479Y-68295250D01*
X76482396Y-68577514D01*
X76482396Y-68577515D01*
X76542000Y-68877162D01*
X76542000Y-69182686D01*
X76528292Y-69251598D01*
X76482396Y-69482334D01*
X76365479Y-69764598D01*
X76195741Y-70018629D01*
X75979705Y-70234665D01*
X75725674Y-70404403D01*
X75443410Y-70521320D01*
X75343527Y-70541188D01*
X75143762Y-70580924D01*
X74838238Y-70580924D01*
X74638473Y-70541188D01*
X74538590Y-70521320D01*
X74256326Y-70404403D01*
X74002295Y-70234665D01*
X73786259Y-70018629D01*
X73616521Y-69764598D01*
X73499604Y-69482334D01*
X73453708Y-69251598D01*
X73440000Y-69182686D01*
X73440000Y-68877162D01*
X73499604Y-68577515D01*
X73499604Y-68577514D01*
X73616521Y-68295250D01*
X73786259Y-68041219D01*
X74002295Y-67825183D01*
X74256326Y-67655445D01*
X74538590Y-67538528D01*
X74638473Y-67518660D01*
X74838238Y-67478924D01*
X75143762Y-67478924D01*
X75343527Y-67518660D01*
X75343527Y-67518660D01*
G37*
G36*
X144732527Y-67518660D02*
X144832410Y-67538528D01*
X145114674Y-67655445D01*
X145368705Y-67825183D01*
X145584741Y-68041219D01*
X145754479Y-68295250D01*
X145871396Y-68577514D01*
X145871396Y-68577515D01*
X145931000Y-68877162D01*
X145931000Y-69182686D01*
X145917292Y-69251598D01*
X145871396Y-69482334D01*
X145754479Y-69764598D01*
X145584741Y-70018629D01*
X145368705Y-70234665D01*
X145114674Y-70404403D01*
X144832410Y-70521320D01*
X144732527Y-70541188D01*
X144532762Y-70580924D01*
X144227238Y-70580924D01*
X144027473Y-70541188D01*
X143927590Y-70521320D01*
X143645326Y-70404403D01*
X143391295Y-70234665D01*
X143175259Y-70018629D01*
X143005521Y-69764598D01*
X142888604Y-69482334D01*
X142842708Y-69251598D01*
X142829000Y-69182686D01*
X142829000Y-68877162D01*
X142888604Y-68577515D01*
X142888604Y-68577514D01*
X143005521Y-68295250D01*
X143175259Y-68041219D01*
X143391295Y-67825183D01*
X143645326Y-67655445D01*
X143927590Y-67538528D01*
X144027473Y-67518660D01*
X144227238Y-67478924D01*
X144532762Y-67478924D01*
X144732527Y-67518660D01*
X144732527Y-67518660D01*
G37*
G36*
X237328710Y-59845070D02*
X238020447Y-60131597D01*
X238642999Y-60547573D01*
X239172427Y-61077001D01*
X239588403Y-61699553D01*
X239874930Y-62391290D01*
X240021000Y-63125633D01*
X240021000Y-63874367D01*
X239874930Y-64608710D01*
X239588403Y-65300447D01*
X239172427Y-65922999D01*
X238642999Y-66452427D01*
X238020447Y-66868403D01*
X237328710Y-67154930D01*
X236594367Y-67301000D01*
X235845633Y-67301000D01*
X235111290Y-67154930D01*
X234419553Y-66868403D01*
X233797001Y-66452427D01*
X233267573Y-65922999D01*
X232851597Y-65300447D01*
X232565070Y-64608710D01*
X232419000Y-63874367D01*
X232419000Y-63125633D01*
X232565070Y-62391290D01*
X232851597Y-61699553D01*
X233267573Y-61077001D01*
X233797001Y-60547573D01*
X234419553Y-60131597D01*
X235111290Y-59845070D01*
X235845633Y-59699000D01*
X236594367Y-59699000D01*
X237328710Y-59845070D01*
X237328710Y-59845070D01*
G37*
G36*
X223745527Y-62228736D02*
X223845410Y-62248604D01*
X224127674Y-62365521D01*
X224381705Y-62535259D01*
X224597741Y-62751295D01*
X224767479Y-63005326D01*
X224884396Y-63287590D01*
X224944000Y-63587240D01*
X224944000Y-63892760D01*
X224884396Y-64192410D01*
X224767479Y-64474674D01*
X224597741Y-64728705D01*
X224381705Y-64944741D01*
X224127674Y-65114479D01*
X223845410Y-65231396D01*
X223745527Y-65251264D01*
X223545762Y-65291000D01*
X223240238Y-65291000D01*
X223040473Y-65251264D01*
X222940590Y-65231396D01*
X222658326Y-65114479D01*
X222404295Y-64944741D01*
X222188259Y-64728705D01*
X222018521Y-64474674D01*
X221901604Y-64192410D01*
X221842000Y-63892760D01*
X221842000Y-63587240D01*
X221901604Y-63287590D01*
X222018521Y-63005326D01*
X222188259Y-62751295D01*
X222404295Y-62535259D01*
X222658326Y-62365521D01*
X222940590Y-62248604D01*
X223040473Y-62228736D01*
X223240238Y-62189000D01*
X223545762Y-62189000D01*
X223745527Y-62228736D01*
X223745527Y-62228736D01*
G37*
G36*
X216245527Y-62228736D02*
X216345410Y-62248604D01*
X216627674Y-62365521D01*
X216881705Y-62535259D01*
X217097741Y-62751295D01*
X217267479Y-63005326D01*
X217384396Y-63287590D01*
X217444000Y-63587240D01*
X217444000Y-63892760D01*
X217384396Y-64192410D01*
X217267479Y-64474674D01*
X217097741Y-64728705D01*
X216881705Y-64944741D01*
X216627674Y-65114479D01*
X216345410Y-65231396D01*
X216245527Y-65251264D01*
X216045762Y-65291000D01*
X215740238Y-65291000D01*
X215540473Y-65251264D01*
X215440590Y-65231396D01*
X215158326Y-65114479D01*
X214904295Y-64944741D01*
X214688259Y-64728705D01*
X214518521Y-64474674D01*
X214401604Y-64192410D01*
X214342000Y-63892760D01*
X214342000Y-63587240D01*
X214401604Y-63287590D01*
X214518521Y-63005326D01*
X214688259Y-62751295D01*
X214904295Y-62535259D01*
X215158326Y-62365521D01*
X215440590Y-62248604D01*
X215540473Y-62228736D01*
X215740238Y-62189000D01*
X216045762Y-62189000D01*
X216245527Y-62228736D01*
X216245527Y-62228736D01*
G37*
G36*
X204121527Y-60018660D02*
X204221410Y-60038528D01*
X204503674Y-60155445D01*
X204757705Y-60325183D01*
X204973741Y-60541219D01*
X205143479Y-60795250D01*
X205260396Y-61077514D01*
X205320000Y-61377164D01*
X205320000Y-61682684D01*
X205260396Y-61982334D01*
X205143479Y-62264598D01*
X204973741Y-62518629D01*
X204757705Y-62734665D01*
X204503674Y-62904403D01*
X204221410Y-63021320D01*
X204121527Y-63041188D01*
X203921762Y-63080924D01*
X203616238Y-63080924D01*
X203416473Y-63041188D01*
X203316590Y-63021320D01*
X203034326Y-62904403D01*
X202780295Y-62734665D01*
X202564259Y-62518629D01*
X202394521Y-62264598D01*
X202277604Y-61982334D01*
X202218000Y-61682684D01*
X202218000Y-61377164D01*
X202277604Y-61077514D01*
X202394521Y-60795250D01*
X202564259Y-60541219D01*
X202780295Y-60325183D01*
X203034326Y-60155445D01*
X203316590Y-60038528D01*
X203416473Y-60018660D01*
X203616238Y-59978924D01*
X203921762Y-59978924D01*
X204121527Y-60018660D01*
X204121527Y-60018660D01*
G37*
G36*
X199121527Y-60018660D02*
X199221410Y-60038528D01*
X199503674Y-60155445D01*
X199757705Y-60325183D01*
X199973741Y-60541219D01*
X200143479Y-60795250D01*
X200260396Y-61077514D01*
X200320000Y-61377164D01*
X200320000Y-61682684D01*
X200260396Y-61982334D01*
X200143479Y-62264598D01*
X199973741Y-62518629D01*
X199757705Y-62734665D01*
X199503674Y-62904403D01*
X199221410Y-63021320D01*
X199121527Y-63041188D01*
X198921762Y-63080924D01*
X198616238Y-63080924D01*
X198416473Y-63041188D01*
X198316590Y-63021320D01*
X198034326Y-62904403D01*
X197780295Y-62734665D01*
X197564259Y-62518629D01*
X197394521Y-62264598D01*
X197277604Y-61982334D01*
X197218000Y-61682684D01*
X197218000Y-61377164D01*
X197277604Y-61077514D01*
X197394521Y-60795250D01*
X197564259Y-60541219D01*
X197780295Y-60325183D01*
X198034326Y-60155445D01*
X198316590Y-60038528D01*
X198416473Y-60018660D01*
X198616238Y-59978924D01*
X198921762Y-59978924D01*
X199121527Y-60018660D01*
X199121527Y-60018660D01*
G37*
G36*
X184121527Y-60018660D02*
X184221410Y-60038528D01*
X184503674Y-60155445D01*
X184757705Y-60325183D01*
X184973741Y-60541219D01*
X185143479Y-60795250D01*
X185260396Y-61077514D01*
X185320000Y-61377164D01*
X185320000Y-61682684D01*
X185260396Y-61982334D01*
X185143479Y-62264598D01*
X184973741Y-62518629D01*
X184757705Y-62734665D01*
X184503674Y-62904403D01*
X184221410Y-63021320D01*
X184121527Y-63041188D01*
X183921762Y-63080924D01*
X183616238Y-63080924D01*
X183416473Y-63041188D01*
X183316590Y-63021320D01*
X183034326Y-62904403D01*
X182780295Y-62734665D01*
X182564259Y-62518629D01*
X182394521Y-62264598D01*
X182277604Y-61982334D01*
X182218000Y-61682684D01*
X182218000Y-61377164D01*
X182277604Y-61077514D01*
X182394521Y-60795250D01*
X182564259Y-60541219D01*
X182780295Y-60325183D01*
X183034326Y-60155445D01*
X183316590Y-60038528D01*
X183416473Y-60018660D01*
X183616238Y-59978924D01*
X183921762Y-59978924D01*
X184121527Y-60018660D01*
X184121527Y-60018660D01*
G37*
G36*
X209121527Y-60018660D02*
X209221410Y-60038528D01*
X209503674Y-60155445D01*
X209757705Y-60325183D01*
X209973741Y-60541219D01*
X210143479Y-60795250D01*
X210260396Y-61077514D01*
X210320000Y-61377164D01*
X210320000Y-61682684D01*
X210260396Y-61982334D01*
X210143479Y-62264598D01*
X209973741Y-62518629D01*
X209757705Y-62734665D01*
X209503674Y-62904403D01*
X209221410Y-63021320D01*
X209121527Y-63041188D01*
X208921762Y-63080924D01*
X208616238Y-63080924D01*
X208416473Y-63041188D01*
X208316590Y-63021320D01*
X208034326Y-62904403D01*
X207780295Y-62734665D01*
X207564259Y-62518629D01*
X207394521Y-62264598D01*
X207277604Y-61982334D01*
X207218000Y-61682684D01*
X207218000Y-61377164D01*
X207277604Y-61077514D01*
X207394521Y-60795250D01*
X207564259Y-60541219D01*
X207780295Y-60325183D01*
X208034326Y-60155445D01*
X208316590Y-60038528D01*
X208416473Y-60018660D01*
X208616238Y-59978924D01*
X208921762Y-59978924D01*
X209121527Y-60018660D01*
X209121527Y-60018660D01*
G37*
G36*
X70343527Y-60018660D02*
X70443410Y-60038528D01*
X70725674Y-60155445D01*
X70979705Y-60325183D01*
X71195741Y-60541219D01*
X71365479Y-60795250D01*
X71482396Y-61077514D01*
X71542000Y-61377164D01*
X71542000Y-61682684D01*
X71482396Y-61982334D01*
X71365479Y-62264598D01*
X71195741Y-62518629D01*
X70979705Y-62734665D01*
X70725674Y-62904403D01*
X70443410Y-63021320D01*
X70343527Y-63041188D01*
X70143762Y-63080924D01*
X69838238Y-63080924D01*
X69638473Y-63041188D01*
X69538590Y-63021320D01*
X69256326Y-62904403D01*
X69002295Y-62734665D01*
X68786259Y-62518629D01*
X68616521Y-62264598D01*
X68499604Y-61982334D01*
X68440000Y-61682684D01*
X68440000Y-61377164D01*
X68499604Y-61077514D01*
X68616521Y-60795250D01*
X68786259Y-60541219D01*
X69002295Y-60325183D01*
X69256326Y-60155445D01*
X69538590Y-60038528D01*
X69638473Y-60018660D01*
X69838238Y-59978924D01*
X70143762Y-59978924D01*
X70343527Y-60018660D01*
X70343527Y-60018660D01*
G37*
G36*
X80343527Y-60018660D02*
X80443410Y-60038528D01*
X80725674Y-60155445D01*
X80979705Y-60325183D01*
X81195741Y-60541219D01*
X81365479Y-60795250D01*
X81482396Y-61077514D01*
X81542000Y-61377164D01*
X81542000Y-61682684D01*
X81482396Y-61982334D01*
X81365479Y-62264598D01*
X81195741Y-62518629D01*
X80979705Y-62734665D01*
X80725674Y-62904403D01*
X80443410Y-63021320D01*
X80343527Y-63041188D01*
X80143762Y-63080924D01*
X79838238Y-63080924D01*
X79638473Y-63041188D01*
X79538590Y-63021320D01*
X79256326Y-62904403D01*
X79002295Y-62734665D01*
X78786259Y-62518629D01*
X78616521Y-62264598D01*
X78499604Y-61982334D01*
X78440000Y-61682684D01*
X78440000Y-61377164D01*
X78499604Y-61077514D01*
X78616521Y-60795250D01*
X78786259Y-60541219D01*
X79002295Y-60325183D01*
X79256326Y-60155445D01*
X79538590Y-60038528D01*
X79638473Y-60018660D01*
X79838238Y-59978924D01*
X80143762Y-59978924D01*
X80343527Y-60018660D01*
X80343527Y-60018660D01*
G37*
G36*
X107538027Y-60018660D02*
X107637910Y-60038528D01*
X107920174Y-60155445D01*
X108174205Y-60325183D01*
X108390241Y-60541219D01*
X108559979Y-60795250D01*
X108676896Y-61077514D01*
X108736500Y-61377164D01*
X108736500Y-61682684D01*
X108676896Y-61982334D01*
X108559979Y-62264598D01*
X108390241Y-62518629D01*
X108174205Y-62734665D01*
X107920174Y-62904403D01*
X107637910Y-63021320D01*
X107538027Y-63041188D01*
X107338262Y-63080924D01*
X107032738Y-63080924D01*
X106832973Y-63041188D01*
X106733090Y-63021320D01*
X106450826Y-62904403D01*
X106196795Y-62734665D01*
X105980759Y-62518629D01*
X105811021Y-62264598D01*
X105694104Y-61982334D01*
X105634500Y-61682684D01*
X105634500Y-61377164D01*
X105694104Y-61077514D01*
X105811021Y-60795250D01*
X105980759Y-60541219D01*
X106196795Y-60325183D01*
X106450826Y-60155445D01*
X106733090Y-60038528D01*
X106832973Y-60018660D01*
X107032738Y-59978924D01*
X107338262Y-59978924D01*
X107538027Y-60018660D01*
X107538027Y-60018660D01*
G37*
G36*
X55343527Y-60018660D02*
X55443410Y-60038528D01*
X55725674Y-60155445D01*
X55979705Y-60325183D01*
X56195741Y-60541219D01*
X56365479Y-60795250D01*
X56482396Y-61077514D01*
X56542000Y-61377164D01*
X56542000Y-61682684D01*
X56482396Y-61982334D01*
X56365479Y-62264598D01*
X56195741Y-62518629D01*
X55979705Y-62734665D01*
X55725674Y-62904403D01*
X55443410Y-63021320D01*
X55343527Y-63041188D01*
X55143762Y-63080924D01*
X54838238Y-63080924D01*
X54638473Y-63041188D01*
X54538590Y-63021320D01*
X54256326Y-62904403D01*
X54002295Y-62734665D01*
X53786259Y-62518629D01*
X53616521Y-62264598D01*
X53499604Y-61982334D01*
X53440000Y-61682684D01*
X53440000Y-61377164D01*
X53499604Y-61077514D01*
X53616521Y-60795250D01*
X53786259Y-60541219D01*
X54002295Y-60325183D01*
X54256326Y-60155445D01*
X54538590Y-60038528D01*
X54638473Y-60018660D01*
X54838238Y-59978924D01*
X55143762Y-59978924D01*
X55343527Y-60018660D01*
X55343527Y-60018660D01*
G37*
G36*
X134732527Y-60018660D02*
X134832410Y-60038528D01*
X135114674Y-60155445D01*
X135368705Y-60325183D01*
X135584741Y-60541219D01*
X135754479Y-60795250D01*
X135871396Y-61077514D01*
X135931000Y-61377164D01*
X135931000Y-61682684D01*
X135871396Y-61982334D01*
X135754479Y-62264598D01*
X135584741Y-62518629D01*
X135368705Y-62734665D01*
X135114674Y-62904403D01*
X134832410Y-63021320D01*
X134732527Y-63041188D01*
X134532762Y-63080924D01*
X134227238Y-63080924D01*
X134027473Y-63041188D01*
X133927590Y-63021320D01*
X133645326Y-62904403D01*
X133391295Y-62734665D01*
X133175259Y-62518629D01*
X133005521Y-62264598D01*
X132888604Y-61982334D01*
X132829000Y-61682684D01*
X132829000Y-61377164D01*
X132888604Y-61077514D01*
X133005521Y-60795250D01*
X133175259Y-60541219D01*
X133391295Y-60325183D01*
X133645326Y-60155445D01*
X133927590Y-60038528D01*
X134027473Y-60018660D01*
X134227238Y-59978924D01*
X134532762Y-59978924D01*
X134732527Y-60018660D01*
X134732527Y-60018660D01*
G37*
G36*
X139732527Y-60018660D02*
X139832410Y-60038528D01*
X140114674Y-60155445D01*
X140368705Y-60325183D01*
X140584741Y-60541219D01*
X140754479Y-60795250D01*
X140871396Y-61077514D01*
X140931000Y-61377164D01*
X140931000Y-61682684D01*
X140871396Y-61982334D01*
X140754479Y-62264598D01*
X140584741Y-62518629D01*
X140368705Y-62734665D01*
X140114674Y-62904403D01*
X139832410Y-63021320D01*
X139732527Y-63041188D01*
X139532762Y-63080924D01*
X139227238Y-63080924D01*
X139027473Y-63041188D01*
X138927590Y-63021320D01*
X138645326Y-62904403D01*
X138391295Y-62734665D01*
X138175259Y-62518629D01*
X138005521Y-62264598D01*
X137888604Y-61982334D01*
X137829000Y-61682684D01*
X137829000Y-61377164D01*
X137888604Y-61077514D01*
X138005521Y-60795250D01*
X138175259Y-60541219D01*
X138391295Y-60325183D01*
X138645326Y-60155445D01*
X138927590Y-60038528D01*
X139027473Y-60018660D01*
X139227238Y-59978924D01*
X139532762Y-59978924D01*
X139732527Y-60018660D01*
X139732527Y-60018660D01*
G37*
G36*
X144732527Y-60018660D02*
X144832410Y-60038528D01*
X145114674Y-60155445D01*
X145368705Y-60325183D01*
X145584741Y-60541219D01*
X145754479Y-60795250D01*
X145871396Y-61077514D01*
X145931000Y-61377164D01*
X145931000Y-61682684D01*
X145871396Y-61982334D01*
X145754479Y-62264598D01*
X145584741Y-62518629D01*
X145368705Y-62734665D01*
X145114674Y-62904403D01*
X144832410Y-63021320D01*
X144732527Y-63041188D01*
X144532762Y-63080924D01*
X144227238Y-63080924D01*
X144027473Y-63041188D01*
X143927590Y-63021320D01*
X143645326Y-62904403D01*
X143391295Y-62734665D01*
X143175259Y-62518629D01*
X143005521Y-62264598D01*
X142888604Y-61982334D01*
X142829000Y-61682684D01*
X142829000Y-61377164D01*
X142888604Y-61077514D01*
X143005521Y-60795250D01*
X143175259Y-60541219D01*
X143391295Y-60325183D01*
X143645326Y-60155445D01*
X143927590Y-60038528D01*
X144027473Y-60018660D01*
X144227238Y-59978924D01*
X144532762Y-59978924D01*
X144732527Y-60018660D01*
X144732527Y-60018660D01*
G37*
G36*
X151927027Y-60018660D02*
X152026910Y-60038528D01*
X152309174Y-60155445D01*
X152563205Y-60325183D01*
X152779241Y-60541219D01*
X152948979Y-60795250D01*
X153065896Y-61077514D01*
X153125500Y-61377164D01*
X153125500Y-61682684D01*
X153065896Y-61982334D01*
X152948979Y-62264598D01*
X152779241Y-62518629D01*
X152563205Y-62734665D01*
X152309174Y-62904403D01*
X152026910Y-63021320D01*
X151927027Y-63041188D01*
X151727262Y-63080924D01*
X151421738Y-63080924D01*
X151221973Y-63041188D01*
X151122090Y-63021320D01*
X150839826Y-62904403D01*
X150585795Y-62734665D01*
X150369759Y-62518629D01*
X150200021Y-62264598D01*
X150083104Y-61982334D01*
X150023500Y-61682684D01*
X150023500Y-61377164D01*
X150083104Y-61077514D01*
X150200021Y-60795250D01*
X150369759Y-60541219D01*
X150585795Y-60325183D01*
X150839826Y-60155445D01*
X151122090Y-60038528D01*
X151221973Y-60018660D01*
X151421738Y-59978924D01*
X151727262Y-59978924D01*
X151927027Y-60018660D01*
X151927027Y-60018660D01*
G37*
G36*
X75343527Y-60018660D02*
X75443410Y-60038528D01*
X75725674Y-60155445D01*
X75979705Y-60325183D01*
X76195741Y-60541219D01*
X76365479Y-60795250D01*
X76482396Y-61077514D01*
X76542000Y-61377164D01*
X76542000Y-61682684D01*
X76482396Y-61982334D01*
X76365479Y-62264598D01*
X76195741Y-62518629D01*
X75979705Y-62734665D01*
X75725674Y-62904403D01*
X75443410Y-63021320D01*
X75343527Y-63041188D01*
X75143762Y-63080924D01*
X74838238Y-63080924D01*
X74638473Y-63041188D01*
X74538590Y-63021320D01*
X74256326Y-62904403D01*
X74002295Y-62734665D01*
X73786259Y-62518629D01*
X73616521Y-62264598D01*
X73499604Y-61982334D01*
X73440000Y-61682684D01*
X73440000Y-61377164D01*
X73499604Y-61077514D01*
X73616521Y-60795250D01*
X73786259Y-60541219D01*
X74002295Y-60325183D01*
X74256326Y-60155445D01*
X74538590Y-60038528D01*
X74638473Y-60018660D01*
X74838238Y-59978924D01*
X75143762Y-59978924D01*
X75343527Y-60018660D01*
X75343527Y-60018660D01*
G37*
G36*
X166927027Y-60018660D02*
X167026910Y-60038528D01*
X167309174Y-60155445D01*
X167563205Y-60325183D01*
X167779241Y-60541219D01*
X167948979Y-60795250D01*
X168065896Y-61077514D01*
X168125500Y-61377164D01*
X168125500Y-61682684D01*
X168065896Y-61982334D01*
X167948979Y-62264598D01*
X167779241Y-62518629D01*
X167563205Y-62734665D01*
X167309174Y-62904403D01*
X167026910Y-63021320D01*
X166927027Y-63041188D01*
X166727262Y-63080924D01*
X166421738Y-63080924D01*
X166221973Y-63041188D01*
X166122090Y-63021320D01*
X165839826Y-62904403D01*
X165585795Y-62734665D01*
X165369759Y-62518629D01*
X165200021Y-62264598D01*
X165083104Y-61982334D01*
X165023500Y-61682684D01*
X165023500Y-61377164D01*
X165083104Y-61077514D01*
X165200021Y-60795250D01*
X165369759Y-60541219D01*
X165585795Y-60325183D01*
X165839826Y-60155445D01*
X166122090Y-60038528D01*
X166221973Y-60018660D01*
X166421738Y-59978924D01*
X166727262Y-59978924D01*
X166927027Y-60018660D01*
X166927027Y-60018660D01*
G37*
G36*
X119732527Y-60018660D02*
X119832410Y-60038528D01*
X120114674Y-60155445D01*
X120368705Y-60325183D01*
X120584741Y-60541219D01*
X120754479Y-60795250D01*
X120871396Y-61077514D01*
X120931000Y-61377164D01*
X120931000Y-61682684D01*
X120871396Y-61982334D01*
X120754479Y-62264598D01*
X120584741Y-62518629D01*
X120368705Y-62734665D01*
X120114674Y-62904403D01*
X119832410Y-63021320D01*
X119732527Y-63041188D01*
X119532762Y-63080924D01*
X119227238Y-63080924D01*
X119027473Y-63041188D01*
X118927590Y-63021320D01*
X118645326Y-62904403D01*
X118391295Y-62734665D01*
X118175259Y-62518629D01*
X118005521Y-62264598D01*
X117888604Y-61982334D01*
X117829000Y-61682684D01*
X117829000Y-61377164D01*
X117888604Y-61077514D01*
X118005521Y-60795250D01*
X118175259Y-60541219D01*
X118391295Y-60325183D01*
X118645326Y-60155445D01*
X118927590Y-60038528D01*
X119027473Y-60018660D01*
X119227238Y-59978924D01*
X119532762Y-59978924D01*
X119732527Y-60018660D01*
X119732527Y-60018660D01*
G37*
G36*
X112538027Y-60018660D02*
X112637910Y-60038528D01*
X112920174Y-60155445D01*
X113174205Y-60325183D01*
X113390241Y-60541219D01*
X113559979Y-60795250D01*
X113676896Y-61077514D01*
X113736500Y-61377164D01*
X113736500Y-61682684D01*
X113676896Y-61982334D01*
X113559979Y-62264598D01*
X113390241Y-62518629D01*
X113174205Y-62734665D01*
X112920174Y-62904403D01*
X112637910Y-63021320D01*
X112538027Y-63041188D01*
X112338262Y-63080924D01*
X112032738Y-63080924D01*
X111832973Y-63041188D01*
X111733090Y-63021320D01*
X111450826Y-62904403D01*
X111196795Y-62734665D01*
X110980759Y-62518629D01*
X110811021Y-62264598D01*
X110694104Y-61982334D01*
X110634500Y-61682684D01*
X110634500Y-61377164D01*
X110694104Y-61077514D01*
X110811021Y-60795250D01*
X110980759Y-60541219D01*
X111196795Y-60325183D01*
X111450826Y-60155445D01*
X111733090Y-60038528D01*
X111832973Y-60018660D01*
X112032738Y-59978924D01*
X112338262Y-59978924D01*
X112538027Y-60018660D01*
X112538027Y-60018660D01*
G37*
G36*
X102538027Y-60018660D02*
X102637910Y-60038528D01*
X102920174Y-60155445D01*
X103174205Y-60325183D01*
X103390241Y-60541219D01*
X103559979Y-60795250D01*
X103676896Y-61077514D01*
X103736500Y-61377164D01*
X103736500Y-61682684D01*
X103676896Y-61982334D01*
X103559979Y-62264598D01*
X103390241Y-62518629D01*
X103174205Y-62734665D01*
X102920174Y-62904403D01*
X102637910Y-63021320D01*
X102538027Y-63041188D01*
X102338262Y-63080924D01*
X102032738Y-63080924D01*
X101832973Y-63041188D01*
X101733090Y-63021320D01*
X101450826Y-62904403D01*
X101196795Y-62734665D01*
X100980759Y-62518629D01*
X100811021Y-62264598D01*
X100694104Y-61982334D01*
X100634500Y-61682684D01*
X100634500Y-61377164D01*
X100694104Y-61077514D01*
X100811021Y-60795250D01*
X100980759Y-60541219D01*
X101196795Y-60325183D01*
X101450826Y-60155445D01*
X101733090Y-60038528D01*
X101832973Y-60018660D01*
X102032738Y-59978924D01*
X102338262Y-59978924D01*
X102538027Y-60018660D01*
X102538027Y-60018660D01*
G37*
G36*
X87538027Y-60018660D02*
X87637910Y-60038528D01*
X87920174Y-60155445D01*
X88174205Y-60325183D01*
X88390241Y-60541219D01*
X88559979Y-60795250D01*
X88676896Y-61077514D01*
X88736500Y-61377164D01*
X88736500Y-61682684D01*
X88676896Y-61982334D01*
X88559979Y-62264598D01*
X88390241Y-62518629D01*
X88174205Y-62734665D01*
X87920174Y-62904403D01*
X87637910Y-63021320D01*
X87538027Y-63041188D01*
X87338262Y-63080924D01*
X87032738Y-63080924D01*
X86832973Y-63041188D01*
X86733090Y-63021320D01*
X86450826Y-62904403D01*
X86196795Y-62734665D01*
X85980759Y-62518629D01*
X85811021Y-62264598D01*
X85694104Y-61982334D01*
X85634500Y-61682684D01*
X85634500Y-61377164D01*
X85694104Y-61077514D01*
X85811021Y-60795250D01*
X85980759Y-60541219D01*
X86196795Y-60325183D01*
X86450826Y-60155445D01*
X86733090Y-60038528D01*
X86832973Y-60018660D01*
X87032738Y-59978924D01*
X87338262Y-59978924D01*
X87538027Y-60018660D01*
X87538027Y-60018660D01*
G37*
G36*
X176927027Y-60018660D02*
X177026910Y-60038528D01*
X177309174Y-60155445D01*
X177563205Y-60325183D01*
X177779241Y-60541219D01*
X177948979Y-60795250D01*
X178065896Y-61077514D01*
X178125500Y-61377164D01*
X178125500Y-61682684D01*
X178065896Y-61982334D01*
X177948979Y-62264598D01*
X177779241Y-62518629D01*
X177563205Y-62734665D01*
X177309174Y-62904403D01*
X177026910Y-63021320D01*
X176927027Y-63041188D01*
X176727262Y-63080924D01*
X176421738Y-63080924D01*
X176221973Y-63041188D01*
X176122090Y-63021320D01*
X175839826Y-62904403D01*
X175585795Y-62734665D01*
X175369759Y-62518629D01*
X175200021Y-62264598D01*
X175083104Y-61982334D01*
X175023500Y-61682684D01*
X175023500Y-61377164D01*
X175083104Y-61077514D01*
X175200021Y-60795250D01*
X175369759Y-60541219D01*
X175585795Y-60325183D01*
X175839826Y-60155445D01*
X176122090Y-60038528D01*
X176221973Y-60018660D01*
X176421738Y-59978924D01*
X176727262Y-59978924D01*
X176927027Y-60018660D01*
X176927027Y-60018660D01*
G37*
G36*
X171927027Y-60018660D02*
X172026910Y-60038528D01*
X172309174Y-60155445D01*
X172563205Y-60325183D01*
X172779241Y-60541219D01*
X172948979Y-60795250D01*
X173065896Y-61077514D01*
X173125500Y-61377164D01*
X173125500Y-61682684D01*
X173065896Y-61982334D01*
X172948979Y-62264598D01*
X172779241Y-62518629D01*
X172563205Y-62734665D01*
X172309174Y-62904403D01*
X172026910Y-63021320D01*
X171927027Y-63041188D01*
X171727262Y-63080924D01*
X171421738Y-63080924D01*
X171221973Y-63041188D01*
X171122090Y-63021320D01*
X170839826Y-62904403D01*
X170585795Y-62734665D01*
X170369759Y-62518629D01*
X170200021Y-62264598D01*
X170083104Y-61982334D01*
X170023500Y-61682684D01*
X170023500Y-61377164D01*
X170083104Y-61077514D01*
X170200021Y-60795250D01*
X170369759Y-60541219D01*
X170585795Y-60325183D01*
X170839826Y-60155445D01*
X171122090Y-60038528D01*
X171221973Y-60018660D01*
X171421738Y-59978924D01*
X171727262Y-59978924D01*
X171927027Y-60018660D01*
X171927027Y-60018660D01*
G37*
G36*
X223745527Y-57228736D02*
X223845410Y-57248604D01*
X224127674Y-57365521D01*
X224381705Y-57535259D01*
X224597741Y-57751295D01*
X224767479Y-58005326D01*
X224884396Y-58287590D01*
X224944000Y-58587240D01*
X224944000Y-58892760D01*
X224884396Y-59192410D01*
X224767479Y-59474674D01*
X224597741Y-59728705D01*
X224381705Y-59944741D01*
X224127674Y-60114479D01*
X223845410Y-60231396D01*
X223745527Y-60251264D01*
X223545762Y-60291000D01*
X223240238Y-60291000D01*
X223040473Y-60251264D01*
X222940590Y-60231396D01*
X222658326Y-60114479D01*
X222404295Y-59944741D01*
X222188259Y-59728705D01*
X222018521Y-59474674D01*
X221901604Y-59192410D01*
X221842000Y-58892760D01*
X221842000Y-58587240D01*
X221901604Y-58287590D01*
X222018521Y-58005326D01*
X222188259Y-57751295D01*
X222404295Y-57535259D01*
X222658326Y-57365521D01*
X222940590Y-57248604D01*
X223040473Y-57228736D01*
X223240238Y-57189000D01*
X223545762Y-57189000D01*
X223745527Y-57228736D01*
X223745527Y-57228736D01*
G37*
G36*
X216245527Y-57228736D02*
X216345410Y-57248604D01*
X216627674Y-57365521D01*
X216881705Y-57535259D01*
X217097741Y-57751295D01*
X217267479Y-58005326D01*
X217384396Y-58287590D01*
X217444000Y-58587240D01*
X217444000Y-58892760D01*
X217384396Y-59192410D01*
X217267479Y-59474674D01*
X217097741Y-59728705D01*
X216881705Y-59944741D01*
X216627674Y-60114479D01*
X216345410Y-60231396D01*
X216245527Y-60251264D01*
X216045762Y-60291000D01*
X215740238Y-60291000D01*
X215540473Y-60251264D01*
X215440590Y-60231396D01*
X215158326Y-60114479D01*
X214904295Y-59944741D01*
X214688259Y-59728705D01*
X214518521Y-59474674D01*
X214401604Y-59192410D01*
X214342000Y-58892760D01*
X214342000Y-58587240D01*
X214401604Y-58287590D01*
X214518521Y-58005326D01*
X214688259Y-57751295D01*
X214904295Y-57535259D01*
X215158326Y-57365521D01*
X215440590Y-57248604D01*
X215540473Y-57228736D01*
X215740238Y-57189000D01*
X216045762Y-57189000D01*
X216245527Y-57228736D01*
X216245527Y-57228736D01*
G37*
G36*
X55889941Y-52066248D02*
X55889943Y-52066249D01*
X55889944Y-52066249D01*
X56445190Y-52296239D01*
X56802913Y-52535262D01*
X56944902Y-52630136D01*
X57369864Y-53055098D01*
X57369866Y-53055101D01*
X57703761Y-53554810D01*
X57843744Y-53892760D01*
X57933752Y-54110059D01*
X58051000Y-54699501D01*
X58051000Y-55300499D01*
X57944246Y-55837186D01*
X57933751Y-55889944D01*
X57703761Y-56445190D01*
X57608892Y-56587171D01*
X57369864Y-56944902D01*
X56944902Y-57369864D01*
X56944899Y-57369866D01*
X56445190Y-57703761D01*
X55889944Y-57933751D01*
X55889943Y-57933751D01*
X55889941Y-57933752D01*
X55300499Y-58051000D01*
X54699501Y-58051000D01*
X54110059Y-57933752D01*
X54110057Y-57933751D01*
X54110056Y-57933751D01*
X53554810Y-57703761D01*
X53055101Y-57369866D01*
X53055098Y-57369864D01*
X52630136Y-56944902D01*
X52391108Y-56587171D01*
X52296239Y-56445190D01*
X52066249Y-55889944D01*
X52055755Y-55837186D01*
X51949000Y-55300499D01*
X51949000Y-54699501D01*
X52066248Y-54110059D01*
X52156256Y-53892760D01*
X52296239Y-53554810D01*
X52630134Y-53055101D01*
X52630136Y-53055098D01*
X53055098Y-52630136D01*
X53197087Y-52535262D01*
X53554810Y-52296239D01*
X54110056Y-52066249D01*
X54110057Y-52066249D01*
X54110059Y-52066248D01*
X54699501Y-51949000D01*
X55300499Y-51949000D01*
X55889941Y-52066248D01*
X55889941Y-52066248D01*
G37*
G36*
X216245527Y-52228736D02*
X216345410Y-52248604D01*
X216627674Y-52365521D01*
X216881705Y-52535259D01*
X217097741Y-52751295D01*
X217267479Y-53005326D01*
X217384396Y-53287590D01*
X217384396Y-53287591D01*
X217444000Y-53587238D01*
X217444000Y-53892762D01*
X217417471Y-54026129D01*
X217384396Y-54192410D01*
X217267479Y-54474674D01*
X217097741Y-54728705D01*
X216881705Y-54944741D01*
X216627674Y-55114479D01*
X216345410Y-55231396D01*
X216245527Y-55251264D01*
X216045762Y-55291000D01*
X215740238Y-55291000D01*
X215540473Y-55251264D01*
X215440590Y-55231396D01*
X215158326Y-55114479D01*
X214904295Y-54944741D01*
X214688259Y-54728705D01*
X214518521Y-54474674D01*
X214401604Y-54192410D01*
X214368529Y-54026129D01*
X214342000Y-53892762D01*
X214342000Y-53587238D01*
X214401604Y-53287591D01*
X214401604Y-53287590D01*
X214518521Y-53005326D01*
X214688259Y-52751295D01*
X214904295Y-52535259D01*
X215158326Y-52365521D01*
X215440590Y-52248604D01*
X215540473Y-52228736D01*
X215740238Y-52189000D01*
X216045762Y-52189000D01*
X216245527Y-52228736D01*
X216245527Y-52228736D01*
G37*
G36*
X223745527Y-52228736D02*
X223845410Y-52248604D01*
X224127674Y-52365521D01*
X224381705Y-52535259D01*
X224597741Y-52751295D01*
X224767479Y-53005326D01*
X224884396Y-53287590D01*
X224884396Y-53287591D01*
X224944000Y-53587238D01*
X224944000Y-53892762D01*
X224917471Y-54026129D01*
X224884396Y-54192410D01*
X224767479Y-54474674D01*
X224597741Y-54728705D01*
X224381705Y-54944741D01*
X224127674Y-55114479D01*
X223845410Y-55231396D01*
X223745527Y-55251264D01*
X223545762Y-55291000D01*
X223240238Y-55291000D01*
X223040473Y-55251264D01*
X222940590Y-55231396D01*
X222658326Y-55114479D01*
X222404295Y-54944741D01*
X222188259Y-54728705D01*
X222018521Y-54474674D01*
X221901604Y-54192410D01*
X221868529Y-54026129D01*
X221842000Y-53892762D01*
X221842000Y-53587238D01*
X221901604Y-53287591D01*
X221901604Y-53287590D01*
X222018521Y-53005326D01*
X222188259Y-52751295D01*
X222404295Y-52535259D01*
X222658326Y-52365521D01*
X222940590Y-52248604D01*
X223040473Y-52228736D01*
X223240238Y-52189000D01*
X223545762Y-52189000D01*
X223745527Y-52228736D01*
X223745527Y-52228736D01*
G37*
M02*
