G04 #@! TF.GenerationSoftware,KiCad,Pcbnew,(5.1.10)-1*
G04 #@! TF.CreationDate,2023-09-11T23:26:28+08:00*
G04 #@! TF.ProjectId,AntennaSwitch_6x2_RelayBoard,416e7465-6e6e-4615-9377-697463685f36,rev?*
G04 #@! TF.SameCoordinates,Original*
G04 #@! TF.FileFunction,Copper,L1,Top*
G04 #@! TF.FilePolarity,Positive*
%FSLAX46Y46*%
G04 Gerber Fmt 4.6, Leading zero omitted, Abs format (unit mm)*
G04 Created by KiCad (PCBNEW (5.1.10)-1) date 2023-09-11 23:26:28*
%MOMM*%
%LPD*%
G01*
G04 APERTURE LIST*
G04 #@! TA.AperFunction,ComponentPad*
%ADD10C,2.500000*%
G04 #@! TD*
G04 #@! TA.AperFunction,ComponentPad*
%ADD11R,2.000000X2.600000*%
G04 #@! TD*
G04 #@! TA.AperFunction,ComponentPad*
%ADD12O,2.000000X2.600000*%
G04 #@! TD*
G04 #@! TA.AperFunction,ComponentPad*
%ADD13C,0.800000*%
G04 #@! TD*
G04 #@! TA.AperFunction,ComponentPad*
%ADD14C,7.500000*%
G04 #@! TD*
G04 #@! TA.AperFunction,ViaPad*
%ADD15C,0.800000*%
G04 #@! TD*
G04 #@! TA.AperFunction,ViaPad*
%ADD16C,1.000000*%
G04 #@! TD*
G04 #@! TA.AperFunction,Conductor*
%ADD17C,0.508000*%
G04 #@! TD*
G04 #@! TA.AperFunction,Conductor*
%ADD18C,0.381000*%
G04 #@! TD*
G04 #@! TA.AperFunction,Conductor*
%ADD19C,3.500000*%
G04 #@! TD*
G04 #@! TA.AperFunction,Conductor*
%ADD20C,4.000000*%
G04 #@! TD*
G04 #@! TA.AperFunction,Conductor*
%ADD21C,0.100000*%
G04 #@! TD*
G04 APERTURE END LIST*
D10*
X78420000Y-68554000D03*
X73420000Y-68554000D03*
X68420000Y-68554000D03*
X78420000Y-76054000D03*
X73420000Y-76054000D03*
X68420000Y-76054000D03*
X53420000Y-68554000D03*
X53420000Y-76054000D03*
X108340000Y-68554000D03*
X103340000Y-68554000D03*
X98340000Y-68554000D03*
X108340000Y-76054000D03*
X103340000Y-76054000D03*
X98340000Y-76054000D03*
X83340000Y-68554000D03*
X83340000Y-76054000D03*
X138520000Y-68554000D03*
X133520000Y-68554000D03*
X128520000Y-68554000D03*
X138520000Y-76054000D03*
X133520000Y-76054000D03*
X128520000Y-76054000D03*
X113520000Y-68554000D03*
X113520000Y-76054000D03*
X159811000Y-76000000D03*
X164811000Y-76000000D03*
X169811000Y-76000000D03*
X159811000Y-68500000D03*
X164811000Y-68500000D03*
X169811000Y-68500000D03*
X184811000Y-76000000D03*
X184811000Y-68500000D03*
X190037000Y-76000001D03*
X195037000Y-76000001D03*
X200037000Y-76000001D03*
X190037000Y-68500001D03*
X195037000Y-68500001D03*
X200037000Y-68500001D03*
X215037000Y-76000001D03*
X215037000Y-68500001D03*
X220009000Y-76000000D03*
X225009000Y-76000000D03*
X230009000Y-76000000D03*
X220009000Y-68500000D03*
X225009000Y-68500000D03*
X230009000Y-68500000D03*
X245009000Y-76000000D03*
X245009000Y-68500000D03*
X81500000Y-109500000D03*
X81500000Y-104500000D03*
X81500000Y-99500000D03*
X74000000Y-109500000D03*
X74000000Y-104500000D03*
X74000000Y-99500000D03*
X81500000Y-84500000D03*
X74000000Y-84500000D03*
X114500000Y-109500000D03*
X114500000Y-104500000D03*
X114500000Y-99500000D03*
X107000000Y-109500000D03*
X107000000Y-104500000D03*
X107000000Y-99500000D03*
X114500000Y-84500000D03*
X107000000Y-84500000D03*
X147353000Y-109500000D03*
X147353000Y-104500000D03*
X147353000Y-99500000D03*
X139853000Y-109500000D03*
X139853000Y-104500000D03*
X139853000Y-99500000D03*
X147353000Y-84500000D03*
X139853000Y-84500000D03*
X180500000Y-109500000D03*
X180500000Y-104500000D03*
X180500000Y-99500000D03*
X173000000Y-109500000D03*
X173000000Y-104500000D03*
X173000000Y-99500000D03*
X180500000Y-84500000D03*
X173000000Y-84500000D03*
X212885000Y-109500000D03*
X212885000Y-104500000D03*
X212885000Y-99500000D03*
X205385000Y-109500000D03*
X205385000Y-104500000D03*
X205385000Y-99500000D03*
X212885000Y-84500000D03*
X205385000Y-84500000D03*
X246000000Y-109500001D03*
X246000000Y-104500001D03*
X246000000Y-99500001D03*
X238500000Y-109500001D03*
X238500000Y-104500001D03*
X238500000Y-99500001D03*
X246000000Y-84500001D03*
X238500000Y-84500001D03*
X54528000Y-123213000D03*
X59528000Y-123213000D03*
X64528000Y-123213000D03*
X54528000Y-115713000D03*
X59528000Y-115713000D03*
X64528000Y-115713000D03*
X79528000Y-123213000D03*
X79528000Y-115713000D03*
X85897000Y-123086000D03*
X90897000Y-123086000D03*
X95897000Y-123086000D03*
X85897000Y-115586000D03*
X90897000Y-115586000D03*
X95897000Y-115586000D03*
X110897000Y-123086000D03*
X110897000Y-115586000D03*
X116377000Y-123086000D03*
X121377000Y-123086000D03*
X126377000Y-123086000D03*
X116377000Y-115586000D03*
X121377000Y-115586000D03*
X126377000Y-115586000D03*
X141377000Y-123086000D03*
X141377000Y-115586000D03*
X159811000Y-123213001D03*
X164811000Y-123213001D03*
X169811000Y-123213001D03*
X159811000Y-115713001D03*
X164811000Y-115713001D03*
X169811000Y-115713001D03*
X184811000Y-123213001D03*
X184811000Y-115713001D03*
X190037000Y-123213000D03*
X195037000Y-123213000D03*
X200037000Y-123213000D03*
X190037000Y-115713000D03*
X195037000Y-115713000D03*
X200037000Y-115713000D03*
X215037000Y-123213000D03*
X215037000Y-115713000D03*
X220009000Y-123213001D03*
X225009000Y-123213001D03*
X230009000Y-123213001D03*
X220009000Y-115713001D03*
X225009000Y-115713001D03*
X230009000Y-115713001D03*
X245009000Y-123213001D03*
X245009000Y-115713001D03*
D11*
X131725000Y-53983000D03*
D12*
X129185000Y-53983000D03*
X126645000Y-53983000D03*
X124105000Y-53983000D03*
X121565000Y-53983000D03*
X119025000Y-53983000D03*
X116485000Y-53983000D03*
X113945000Y-53983000D03*
D11*
X186335001Y-53983000D03*
D12*
X183795001Y-53983000D03*
X181255001Y-53983000D03*
X178715001Y-53983000D03*
X176175001Y-53983000D03*
X173635001Y-53983000D03*
X171095001Y-53983000D03*
X168555001Y-53983000D03*
D13*
X161501570Y-53005000D03*
X161501570Y-55755000D03*
X159120000Y-57130000D03*
X156738430Y-55755000D03*
X156738430Y-53005000D03*
X159120000Y-51630000D03*
D14*
X159120000Y-54380000D03*
X150000000Y-63500000D03*
D13*
X54505000Y-83498430D03*
X57255000Y-83498430D03*
X58630000Y-85880000D03*
X57255000Y-88261570D03*
X54505000Y-88261570D03*
X53130000Y-85880000D03*
D14*
X55880000Y-85880000D03*
X65000000Y-95000000D03*
D13*
X87505000Y-83498430D03*
X90255000Y-83498430D03*
X91630000Y-85880000D03*
X90255000Y-88261570D03*
X87505000Y-88261570D03*
X86130000Y-85880000D03*
D14*
X88880000Y-85880000D03*
X98000000Y-95000000D03*
D13*
X120505000Y-83498430D03*
X123255000Y-83498430D03*
X124630000Y-85880000D03*
X123255000Y-88261570D03*
X120505000Y-88261570D03*
X119130000Y-85880000D03*
D14*
X121880000Y-85880000D03*
X131000000Y-95000000D03*
D13*
X153505000Y-83498430D03*
X156255000Y-83498430D03*
X157630000Y-85880000D03*
X156255000Y-88261570D03*
X153505000Y-88261570D03*
X152130000Y-85880000D03*
D14*
X154880000Y-85880000D03*
X164000000Y-95000000D03*
D13*
X186505000Y-83498430D03*
X189255000Y-83498430D03*
X190630000Y-85880000D03*
X189255000Y-88261570D03*
X186505000Y-88261570D03*
X185130000Y-85880000D03*
D14*
X187880000Y-85880000D03*
X197000000Y-95000000D03*
D13*
X219505000Y-83498430D03*
X222255000Y-83498430D03*
X223630000Y-85880000D03*
X222255000Y-88261570D03*
X219505000Y-88261570D03*
X218130000Y-85880000D03*
D14*
X220880000Y-85880000D03*
X230000000Y-95000000D03*
D13*
X138498430Y-136995000D03*
X138498430Y-134245000D03*
X140880000Y-132870000D03*
X143261570Y-134245000D03*
X143261570Y-136995000D03*
X140880000Y-138370000D03*
D14*
X140880000Y-135620000D03*
X150000000Y-126500000D03*
D15*
X55345000Y-52697000D03*
X52145000Y-52697000D03*
X247676000Y-52824000D03*
D16*
X195034501Y-53856000D03*
X194907500Y-51570000D03*
D15*
X128940132Y-57802132D03*
X123542632Y-57865632D03*
X117020232Y-59054031D03*
X111668132Y-59072132D03*
X106352233Y-59054031D03*
X102007000Y-57919999D03*
X169825000Y-58936000D03*
X175068201Y-58936000D03*
X180493000Y-58936000D03*
X185736203Y-59190000D03*
X191170132Y-59053868D03*
X246660000Y-137295000D03*
X243460000Y-137295000D03*
X240260000Y-137295000D03*
X237060000Y-137295000D03*
X233860000Y-137295000D03*
X230660000Y-137295000D03*
X227460000Y-137295000D03*
X224260000Y-137295000D03*
X221060000Y-137295000D03*
X217860000Y-137295000D03*
X214660000Y-137295000D03*
X211460000Y-137295000D03*
X208260000Y-137295000D03*
X205060000Y-137295000D03*
X201860000Y-137295000D03*
X198660000Y-137295000D03*
X195460000Y-137295000D03*
X192260000Y-137295000D03*
X189060000Y-137295000D03*
X185860000Y-137295000D03*
X182660000Y-137295000D03*
X179460000Y-137295000D03*
X176260000Y-137295000D03*
X173060000Y-137295000D03*
X169860000Y-137295000D03*
X166660000Y-137295000D03*
X163460000Y-137295000D03*
X160260000Y-137295000D03*
X157060000Y-137295000D03*
X153860000Y-137295000D03*
X150660000Y-137295000D03*
X147460000Y-137295000D03*
X134660000Y-137295000D03*
X131460000Y-137295000D03*
X128260000Y-137295000D03*
X125060000Y-137295000D03*
X121860000Y-137295000D03*
X118660000Y-137295000D03*
X115460000Y-137295000D03*
X112260000Y-137295000D03*
X109060000Y-137295000D03*
X105860000Y-137295000D03*
X102660000Y-137295000D03*
X99460000Y-137295000D03*
X96260000Y-137295000D03*
X93060000Y-137295000D03*
X89860000Y-137295000D03*
X86660000Y-137295000D03*
X83460000Y-137295000D03*
X80260000Y-137295000D03*
X77060000Y-137295000D03*
X73860000Y-137295000D03*
X70660000Y-137295000D03*
X67460000Y-137295000D03*
X64260000Y-137295000D03*
X61060000Y-137295000D03*
X57860000Y-137295000D03*
X244476000Y-52824000D03*
X241276000Y-52824000D03*
X238076000Y-52824000D03*
X234876000Y-52824000D03*
X231676000Y-52824000D03*
X228476000Y-52824000D03*
X225276000Y-52824000D03*
X222076000Y-52824000D03*
X218876000Y-52824000D03*
X215676000Y-52824000D03*
X212476000Y-52824000D03*
X209276000Y-52824000D03*
X206076000Y-52824000D03*
X202876000Y-52824000D03*
X199676000Y-52824000D03*
X164476000Y-52824000D03*
X135676000Y-52824000D03*
X110076000Y-52824000D03*
X106876000Y-52824000D03*
X103676000Y-52824000D03*
X100476000Y-52824000D03*
X97276000Y-52824000D03*
X94076000Y-52824000D03*
X90876000Y-52824000D03*
X87676000Y-52824000D03*
X84476000Y-52824000D03*
X81276000Y-52824000D03*
X78076000Y-52824000D03*
X74876000Y-52824000D03*
X71676000Y-52824000D03*
X68476000Y-52824000D03*
X65276000Y-52824000D03*
X62076000Y-52824000D03*
X58876000Y-52824000D03*
X179477000Y-68080000D03*
X175794000Y-68080000D03*
X172111000Y-68080000D03*
X206401000Y-69096000D03*
X210338000Y-69096000D03*
X215418000Y-72271000D03*
X219736000Y-80653000D03*
X229515000Y-72271000D03*
X232055000Y-78367000D03*
X235357000Y-81796000D03*
X226721000Y-86495000D03*
X228626000Y-88527000D03*
X223038000Y-62365000D03*
X220371001Y-60206000D03*
X215037000Y-59444001D03*
X205131000Y-59444000D03*
X154458000Y-68080000D03*
X145060000Y-68080000D03*
X145060000Y-58809000D03*
X154839000Y-58809000D03*
X141250000Y-59317000D03*
X134773000Y-59317000D03*
X123851000Y-68080000D03*
X119406000Y-68080000D03*
X116104000Y-68080000D03*
X95022000Y-68080000D03*
X87021000Y-68080000D03*
X99213000Y-59063000D03*
X92101000Y-58936000D03*
X84608000Y-58936000D03*
X75337000Y-63000000D03*
X82830000Y-72017000D03*
X80798000Y-79891000D03*
X76734000Y-80145000D03*
X78639000Y-80653000D03*
X79147000Y-58809000D03*
X226848000Y-105164000D03*
X221387000Y-110498000D03*
X231928000Y-113546000D03*
X242215000Y-113546000D03*
X234849000Y-113546000D03*
X225451000Y-99830000D03*
X234341000Y-98687000D03*
X236373000Y-95766000D03*
X247041000Y-95131000D03*
X221768000Y-81034000D03*
X238405000Y-113419000D03*
X247930000Y-113292000D03*
X229642000Y-119134000D03*
X228499000Y-126627000D03*
X225197000Y-127643000D03*
X222657000Y-128786000D03*
X219101000Y-132342000D03*
X209830000Y-132850000D03*
X198654001Y-132850000D03*
X187732000Y-132850000D03*
X177953000Y-132850000D03*
X172364999Y-132850000D03*
X131979000Y-132977001D03*
X123851000Y-132977001D03*
X111659000Y-132977000D03*
X97943000Y-132977000D03*
X86513000Y-132977001D03*
X70765000Y-132977000D03*
X58446000Y-133104000D03*
X53239000Y-131453000D03*
X54255000Y-111387000D03*
X64669000Y-118499000D03*
X64669000Y-120531000D03*
X57938000Y-108593000D03*
X60859000Y-105545000D03*
X63145000Y-105291000D03*
X76480000Y-113800000D03*
X71908000Y-113800000D03*
X67209000Y-113800000D03*
X61621000Y-102878001D03*
X65500000Y-88000000D03*
X75083000Y-88146000D03*
X78385000Y-92718000D03*
X79909000Y-94750000D03*
X75972000Y-82558000D03*
X170079000Y-118626000D03*
X170079000Y-120404000D03*
X155601000Y-120277000D03*
X155474000Y-117229000D03*
X181890000Y-123960000D03*
X173381000Y-123960000D03*
X211100000Y-123452000D03*
X203479999Y-123452000D03*
X136424000Y-123198000D03*
X129947000Y-123197999D03*
X107722000Y-123452000D03*
X103277001Y-123452000D03*
X98959001Y-123452000D03*
X75844999Y-123706000D03*
X68098000Y-123579000D03*
X194463000Y-86876000D03*
X195606000Y-105672000D03*
X193193000Y-103386000D03*
X192177000Y-99830000D03*
X192685000Y-109228000D03*
X201956000Y-113546000D03*
X209322000Y-113673000D03*
X203226000Y-83320000D03*
X200686000Y-80779999D03*
X199289000Y-78494000D03*
X199416000Y-73413999D03*
X199416000Y-71128000D03*
X215418000Y-70747000D03*
X216688000Y-79510000D03*
X227356000Y-64651000D03*
X224562000Y-64016000D03*
X181001000Y-95131000D03*
X177953000Y-95004000D03*
X177699000Y-92591000D03*
X175540000Y-89289000D03*
X169317000Y-81669000D03*
X169317000Y-79256000D03*
X169189999Y-73541000D03*
X169190000Y-71001000D03*
X155474000Y-69985000D03*
X155474000Y-74684000D03*
X155855000Y-79129000D03*
X160427000Y-80526000D03*
X160427000Y-84463000D03*
X160681000Y-87257000D03*
X159411000Y-99449000D03*
X160173000Y-103513000D03*
X163348000Y-106561000D03*
X162332000Y-109228001D03*
X160808000Y-111387000D03*
X156236000Y-112530000D03*
X176175000Y-114181000D03*
X181763000Y-114308000D03*
X172619000Y-114181000D03*
X137948000Y-80399000D03*
X144424999Y-95385000D03*
X144425000Y-91575001D03*
X130500000Y-87250000D03*
X129312000Y-80780000D03*
X129185000Y-73287000D03*
X142647000Y-68080000D03*
X142520000Y-71382000D03*
X142647001Y-75700000D03*
X141504000Y-79256000D03*
X98832000Y-71001000D03*
X98832000Y-73414000D03*
X98959000Y-78750000D03*
X97943000Y-82177001D03*
X97816000Y-86368001D03*
X114707001Y-95258000D03*
X111659000Y-95258000D03*
X111659000Y-92337000D03*
X109246000Y-89161999D03*
X107849000Y-80526000D03*
X112675000Y-71128000D03*
X112675000Y-73668000D03*
X68606000Y-71381999D03*
X68606000Y-73413999D03*
X66574000Y-78494000D03*
X76988000Y-89924000D03*
X137313000Y-113800000D03*
X134519000Y-113800000D03*
X129693000Y-113927000D03*
X103658000Y-113800000D03*
X99086000Y-113927000D03*
X95276000Y-118372000D03*
X95276000Y-120531000D03*
X80798000Y-120912000D03*
X80798000Y-118499000D03*
X87783000Y-110371000D03*
X90323000Y-107958000D03*
X93498000Y-105164000D03*
X95911000Y-104910000D03*
X93752000Y-101989001D03*
X93497999Y-99449000D03*
X126518000Y-99322000D03*
X126772000Y-102116000D03*
X128931000Y-104910000D03*
X125756000Y-105037001D03*
X121437999Y-106815000D03*
X120041000Y-108593000D03*
X60224000Y-98687000D03*
X185573000Y-73668000D03*
X185573000Y-71509000D03*
X185954000Y-79129000D03*
X189129000Y-80399000D03*
X213513000Y-93988000D03*
X210973000Y-90686000D03*
X208052001Y-88146000D03*
X217450000Y-109355000D03*
X217323000Y-104021001D03*
X217323000Y-98433000D03*
X165634000Y-57920000D03*
D16*
X237135000Y-68461000D03*
D15*
X203734002Y-68715000D03*
X202845000Y-67699000D03*
D16*
X182906000Y-69349999D03*
X181509000Y-67826000D03*
X126391000Y-68080000D03*
X90958000Y-67826000D03*
X129058000Y-71001000D03*
D15*
X129000000Y-85500000D03*
X118644000Y-109228001D03*
D16*
X126391000Y-69604000D03*
D15*
X86132000Y-109482000D03*
D16*
X77115000Y-61222000D03*
D15*
X65000000Y-85500000D03*
D17*
X244970000Y-68461000D02*
X245009000Y-68500000D01*
X237135000Y-68461000D02*
X244970000Y-68461000D01*
X205385000Y-70365998D02*
X204134001Y-69114999D01*
X204134001Y-69114999D02*
X203734002Y-68715000D01*
X205385000Y-84500000D02*
X205385000Y-70365998D01*
X215037000Y-115713000D02*
X219236000Y-111514000D01*
X219236000Y-111514000D02*
X219236000Y-98179000D01*
X219236000Y-96583234D02*
X219236000Y-97798000D01*
X207152766Y-84500000D02*
X219236000Y-96583234D01*
X205385000Y-84500000D02*
X207152766Y-84500000D01*
X219236000Y-98179000D02*
X219236000Y-97798000D01*
D18*
X214236000Y-67699001D02*
X215037000Y-68500001D01*
X202845000Y-67699000D02*
X214236000Y-67699001D01*
D17*
X184811000Y-96311000D02*
X173000000Y-84500000D01*
X184811000Y-115713001D02*
X184811000Y-96311000D01*
X182406001Y-69849999D02*
X182906000Y-69349999D01*
X173000000Y-79256000D02*
X182406001Y-69849999D01*
X173000000Y-84500000D02*
X173000000Y-79256000D01*
X184137000Y-67826000D02*
X184811000Y-68500000D01*
X181509000Y-67826000D02*
X184137000Y-67826000D01*
X118417000Y-76054000D02*
X113520000Y-76054000D01*
X126391000Y-68080000D02*
X118417000Y-76054000D01*
X83340000Y-75444000D02*
X83340000Y-76054000D01*
X90958000Y-67826000D02*
X83340000Y-75444000D01*
D19*
X116376999Y-115586000D02*
X116377000Y-127696990D01*
D20*
X97689000Y-128151000D02*
X86186010Y-128151000D01*
D19*
X85897000Y-127861990D02*
X86186010Y-128151000D01*
X85897000Y-115586000D02*
X85897000Y-127861990D01*
D20*
X115922990Y-128151000D02*
X105182000Y-128151000D01*
X99848000Y-128151000D02*
X97689000Y-128151000D01*
X105182000Y-128151000D02*
X99848000Y-128151000D01*
X105182000Y-128151000D02*
X126518000Y-128151000D01*
X126518000Y-128151000D02*
X152172000Y-128151000D01*
D19*
X159811000Y-128005000D02*
X159665000Y-128151000D01*
X159811000Y-115713000D02*
X159811000Y-128005000D01*
D20*
X190018000Y-128151000D02*
X159665000Y-128151000D01*
X159665000Y-128151000D02*
X126518000Y-128151000D01*
D19*
X190037000Y-128132000D02*
X190018000Y-128151000D01*
X190037000Y-115713001D02*
X190037000Y-128132000D01*
X220009000Y-115713000D02*
X220009000Y-123213000D01*
X220009000Y-123213000D02*
X220009000Y-124980766D01*
D20*
X217069000Y-128151000D02*
X190018000Y-128151000D01*
X219736000Y-125484000D02*
X217069000Y-128151000D01*
X54277989Y-126337990D02*
X54277990Y-115713000D01*
X56091000Y-128151000D02*
X54277989Y-126337990D01*
X99848000Y-128151000D02*
X56091000Y-128151000D01*
X190037000Y-63895999D02*
X189891000Y-63749999D01*
D19*
X78420000Y-76054000D02*
X78420000Y-68554000D01*
X78420000Y-66443998D02*
X78420000Y-76054000D01*
X108340000Y-76054000D02*
X108340000Y-63749999D01*
X138520000Y-63813999D02*
X138456000Y-63749999D01*
X138520000Y-76054000D02*
X138520000Y-63813999D01*
X159811000Y-63895999D02*
X159665000Y-63749999D01*
X159810999Y-76000000D02*
X159811000Y-63895999D01*
X190037000Y-76000000D02*
X190037000Y-63895999D01*
D20*
X81363998Y-63500000D02*
X78577317Y-66286681D01*
X150000000Y-63500000D02*
X81363998Y-63500000D01*
D19*
X217067002Y-63500000D02*
X220008999Y-66441998D01*
D20*
X216680000Y-63500000D02*
X216942000Y-63762000D01*
X150000000Y-63500000D02*
X216680000Y-63500000D01*
D19*
X220008999Y-66441998D02*
X220008999Y-76000000D01*
D17*
X141102999Y-85749998D02*
X139853000Y-84500000D01*
X151107010Y-95754009D02*
X141102999Y-85749998D01*
X151107010Y-111054962D02*
X151107010Y-95754009D01*
X147825970Y-114336001D02*
X151107010Y-111054962D01*
X142626999Y-114336001D02*
X147825970Y-114336001D01*
X141377000Y-115586000D02*
X142626999Y-114336001D01*
X126264000Y-73795000D02*
X126264000Y-82764000D01*
X129058000Y-71001000D02*
X126264000Y-73795000D01*
X126264000Y-82764000D02*
X129000000Y-85500000D01*
X118644001Y-96144000D02*
X107000000Y-84500000D01*
X118644000Y-109228001D02*
X118644001Y-96144000D01*
X112744999Y-83250001D02*
X116104000Y-79891000D01*
X108249999Y-83250001D02*
X112744999Y-83250001D01*
X107000000Y-84500000D02*
X108249999Y-83250001D01*
X126391000Y-69604000D02*
X116104000Y-79891000D01*
X86132000Y-96632000D02*
X74000000Y-84500000D01*
X86132000Y-109482000D02*
X86132000Y-96632000D01*
X65000000Y-69447342D02*
X65000000Y-85500000D01*
X73225341Y-61222000D02*
X65000000Y-69447342D01*
X77115000Y-61222000D02*
X73225341Y-61222000D01*
D19*
X230000000Y-100303300D02*
X230000000Y-95000000D01*
X234196700Y-104500000D02*
X230000000Y-100303300D01*
X246000000Y-104500000D02*
X234196700Y-104500000D01*
X197000000Y-100303300D02*
X197000000Y-95000000D01*
X201196700Y-104500000D02*
X197000000Y-100303300D01*
X212885000Y-104500000D02*
X201196700Y-104500000D01*
X164000000Y-100303300D02*
X164000000Y-95000000D01*
X168196700Y-104500000D02*
X164000000Y-100303300D01*
X180500000Y-104500000D02*
X168196700Y-104500000D01*
X131000000Y-100303300D02*
X131000000Y-95000000D01*
X135196700Y-104500000D02*
X131000000Y-100303300D01*
X147353000Y-104500000D02*
X135196700Y-104500000D01*
X98000000Y-100303300D02*
X98000000Y-95000000D01*
X102196700Y-104500000D02*
X98000000Y-100303300D01*
X114500000Y-104500000D02*
X102196700Y-104500000D01*
X65000000Y-100303300D02*
X65000000Y-95000000D01*
X69196700Y-104500000D02*
X65000000Y-100303300D01*
X81500000Y-104500000D02*
X69196700Y-104500000D01*
X225009000Y-121445234D02*
X225009000Y-123213000D01*
X225009000Y-112659002D02*
X225009000Y-121445234D01*
X228168002Y-109500000D02*
X225009000Y-112659002D01*
X246000000Y-109500000D02*
X228168002Y-109500000D01*
X195037000Y-114052998D02*
X195037000Y-122751000D01*
X212885000Y-109500000D02*
X199589998Y-109500000D01*
X199589998Y-109500000D02*
X195037000Y-114052998D01*
X164811000Y-113945234D02*
X164811000Y-122751000D01*
X180500000Y-109500000D02*
X169256234Y-109500000D01*
X169256234Y-109500000D02*
X164811000Y-113945234D01*
X121377000Y-113818234D02*
X121377000Y-122624000D01*
X147353000Y-109500000D02*
X125695234Y-109500000D01*
X125695234Y-109500000D02*
X121377000Y-113818234D01*
X90897000Y-113818234D02*
X90897000Y-122497000D01*
X114500000Y-109500000D02*
X95215234Y-109500000D01*
X95215234Y-109500000D02*
X90897000Y-113818234D01*
X59528000Y-114052998D02*
X59528000Y-121445234D01*
X64080998Y-109500000D02*
X59528000Y-114052998D01*
X81500000Y-109500000D02*
X64080998Y-109500000D01*
X59528000Y-115713001D02*
X59528000Y-122751000D01*
X225009000Y-68500000D02*
X225009000Y-76000000D01*
X242342000Y-95100766D02*
X242342000Y-99499999D01*
X225009000Y-77767766D02*
X242342000Y-95100766D01*
X225009000Y-76000000D02*
X225009000Y-77767766D01*
X246000000Y-99500000D02*
X242342000Y-99499999D01*
X242342000Y-99499999D02*
X238500000Y-99499999D01*
X212885000Y-99500000D02*
X209068000Y-99499999D01*
X209068000Y-99499999D02*
X205385000Y-99500000D01*
X209068000Y-94945001D02*
X209068000Y-99499999D01*
X195037000Y-80914002D02*
X209068000Y-94945001D01*
X195037000Y-69035000D02*
X195037000Y-80914002D01*
X180500000Y-99500000D02*
X173000000Y-99500000D01*
X173000000Y-97732234D02*
X173000000Y-99500000D01*
X173000000Y-93294002D02*
X173000000Y-97732234D01*
X164811000Y-85105002D02*
X173000000Y-93294002D01*
X164811000Y-76000000D02*
X164811000Y-85105002D01*
X164811000Y-69035000D02*
X164811000Y-76000000D01*
X147353000Y-99499999D02*
X139853000Y-99500000D01*
X133520000Y-70321766D02*
X133503000Y-68969000D01*
X133520000Y-84827002D02*
X133520000Y-70321766D01*
X139853000Y-99500000D02*
X139853000Y-91160002D01*
X139853000Y-91160002D02*
X133520000Y-84827002D01*
X114500000Y-99499999D02*
X107000000Y-99500000D01*
X107000000Y-97732234D02*
X107000000Y-99500000D01*
X103340000Y-69033000D02*
X103340000Y-81499998D01*
X103340000Y-81499998D02*
X102499999Y-82339999D01*
X102499999Y-82339999D02*
X102499999Y-89139997D01*
X102499999Y-89139997D02*
X107000000Y-93639998D01*
X107000000Y-93639998D02*
X107000000Y-97732234D01*
X81500000Y-99500000D02*
X74000000Y-99500000D01*
X73420000Y-77821767D02*
X73420000Y-76054000D01*
X69499999Y-81741767D02*
X73420000Y-77821767D01*
X69499999Y-87965001D02*
X69499999Y-81741767D01*
X72750001Y-91215003D02*
X69499999Y-87965001D01*
X72750001Y-98250001D02*
X72750001Y-91215003D01*
X74000000Y-99500000D02*
X72750001Y-98250001D01*
X73420000Y-69084000D02*
X73420000Y-76054000D01*
D17*
X247976000Y-137976000D02*
X52024001Y-137976000D01*
X52024001Y-129392959D01*
X53306110Y-130675067D01*
X53423677Y-130818323D01*
X53995298Y-131287440D01*
X54647455Y-131636025D01*
X55355087Y-131850683D01*
X55906578Y-131905000D01*
X55906579Y-131905000D01*
X56091001Y-131923164D01*
X56275421Y-131905000D01*
X148960195Y-131905000D01*
X149457903Y-132004000D01*
X150542097Y-132004000D01*
X151039805Y-131905000D01*
X216884578Y-131905000D01*
X217069000Y-131923164D01*
X217253422Y-131905000D01*
X217804913Y-131850683D01*
X218512545Y-131636025D01*
X219164702Y-131287440D01*
X219736323Y-130818323D01*
X219853894Y-130675062D01*
X222520885Y-128008073D01*
X222872440Y-127579702D01*
X223221025Y-126927545D01*
X223402983Y-126327709D01*
X223661590Y-126465937D01*
X224322097Y-126666300D01*
X225009000Y-126733954D01*
X225695904Y-126666300D01*
X226356411Y-126465937D01*
X226965137Y-126140566D01*
X227498690Y-125702690D01*
X227936566Y-125169137D01*
X228261937Y-124560411D01*
X228462300Y-123899904D01*
X228513000Y-123385136D01*
X228513000Y-114110406D01*
X229619406Y-113004000D01*
X244409012Y-113004000D01*
X244199854Y-113045604D01*
X243695018Y-113254714D01*
X243240678Y-113558295D01*
X242854294Y-113944679D01*
X242550713Y-114399019D01*
X242341603Y-114903855D01*
X242235000Y-115439786D01*
X242235000Y-115986216D01*
X242341603Y-116522147D01*
X242550713Y-117026983D01*
X242854294Y-117481323D01*
X243240678Y-117867707D01*
X243695018Y-118171288D01*
X244199854Y-118380398D01*
X244735785Y-118487001D01*
X245282215Y-118487001D01*
X245818146Y-118380398D01*
X246322982Y-118171288D01*
X246777322Y-117867707D01*
X247163706Y-117481323D01*
X247467287Y-117026983D01*
X247676397Y-116522147D01*
X247783000Y-115986216D01*
X247783000Y-115439786D01*
X247676397Y-114903855D01*
X247467287Y-114399019D01*
X247163706Y-113944679D01*
X246777322Y-113558295D01*
X246322982Y-113254714D01*
X245818146Y-113045604D01*
X245608988Y-113004000D01*
X246172137Y-113004000D01*
X246686904Y-112953300D01*
X247347411Y-112752937D01*
X247956137Y-112427566D01*
X247976000Y-112411265D01*
X247976000Y-137976000D01*
G04 #@! TA.AperFunction,Conductor*
D21*
G36*
X247976000Y-137976000D02*
G01*
X52024001Y-137976000D01*
X52024001Y-129392959D01*
X53306110Y-130675067D01*
X53423677Y-130818323D01*
X53995298Y-131287440D01*
X54647455Y-131636025D01*
X55355087Y-131850683D01*
X55906578Y-131905000D01*
X55906579Y-131905000D01*
X56091001Y-131923164D01*
X56275421Y-131905000D01*
X148960195Y-131905000D01*
X149457903Y-132004000D01*
X150542097Y-132004000D01*
X151039805Y-131905000D01*
X216884578Y-131905000D01*
X217069000Y-131923164D01*
X217253422Y-131905000D01*
X217804913Y-131850683D01*
X218512545Y-131636025D01*
X219164702Y-131287440D01*
X219736323Y-130818323D01*
X219853894Y-130675062D01*
X222520885Y-128008073D01*
X222872440Y-127579702D01*
X223221025Y-126927545D01*
X223402983Y-126327709D01*
X223661590Y-126465937D01*
X224322097Y-126666300D01*
X225009000Y-126733954D01*
X225695904Y-126666300D01*
X226356411Y-126465937D01*
X226965137Y-126140566D01*
X227498690Y-125702690D01*
X227936566Y-125169137D01*
X228261937Y-124560411D01*
X228462300Y-123899904D01*
X228513000Y-123385136D01*
X228513000Y-114110406D01*
X229619406Y-113004000D01*
X244409012Y-113004000D01*
X244199854Y-113045604D01*
X243695018Y-113254714D01*
X243240678Y-113558295D01*
X242854294Y-113944679D01*
X242550713Y-114399019D01*
X242341603Y-114903855D01*
X242235000Y-115439786D01*
X242235000Y-115986216D01*
X242341603Y-116522147D01*
X242550713Y-117026983D01*
X242854294Y-117481323D01*
X243240678Y-117867707D01*
X243695018Y-118171288D01*
X244199854Y-118380398D01*
X244735785Y-118487001D01*
X245282215Y-118487001D01*
X245818146Y-118380398D01*
X246322982Y-118171288D01*
X246777322Y-117867707D01*
X247163706Y-117481323D01*
X247467287Y-117026983D01*
X247676397Y-116522147D01*
X247783000Y-115986216D01*
X247783000Y-115439786D01*
X247676397Y-114903855D01*
X247467287Y-114399019D01*
X247163706Y-113944679D01*
X246777322Y-113558295D01*
X246322982Y-113254714D01*
X245818146Y-113045604D01*
X245608988Y-113004000D01*
X246172137Y-113004000D01*
X246686904Y-112953300D01*
X247347411Y-112752937D01*
X247956137Y-112427566D01*
X247976000Y-112411265D01*
X247976000Y-137976000D01*
G37*
G04 #@! TD.AperFunction*
D17*
X146491404Y-67775236D02*
X147392878Y-68377582D01*
X148394542Y-68792485D01*
X149457903Y-69004000D01*
X150542097Y-69004000D01*
X151605458Y-68792485D01*
X152607122Y-68377582D01*
X153508596Y-67775236D01*
X154029832Y-67254000D01*
X156307000Y-67254000D01*
X156306999Y-76172136D01*
X156357699Y-76686903D01*
X156558062Y-77347410D01*
X156883433Y-77956136D01*
X157321309Y-78489689D01*
X157854862Y-78927565D01*
X158463588Y-79252936D01*
X159124095Y-79453299D01*
X159810999Y-79520953D01*
X160497902Y-79453300D01*
X161158409Y-79252937D01*
X161307000Y-79173513D01*
X161307001Y-84932865D01*
X161290047Y-85105002D01*
X161357701Y-85791906D01*
X161558063Y-86452412D01*
X161883434Y-87061139D01*
X162211579Y-87460984D01*
X162211582Y-87460987D01*
X162321311Y-87594692D01*
X162455016Y-87704421D01*
X164246595Y-89496000D01*
X163457903Y-89496000D01*
X162394542Y-89707515D01*
X161392878Y-90122418D01*
X160491404Y-90724764D01*
X159724764Y-91491404D01*
X159122418Y-92392878D01*
X158707515Y-93394542D01*
X158496000Y-94457903D01*
X158496000Y-95542097D01*
X158707515Y-96605458D01*
X159122418Y-97607122D01*
X159724764Y-98508596D01*
X160491404Y-99275236D01*
X160496000Y-99278307D01*
X160496000Y-100131172D01*
X160479047Y-100303300D01*
X160496000Y-100475427D01*
X160496000Y-100475436D01*
X160546700Y-100990203D01*
X160747063Y-101650710D01*
X161072434Y-102259437D01*
X161273142Y-102504000D01*
X161510310Y-102792990D01*
X161644020Y-102902723D01*
X165597281Y-106855985D01*
X165707010Y-106989690D01*
X165840715Y-107099419D01*
X165840717Y-107099421D01*
X166240562Y-107427566D01*
X166327040Y-107473789D01*
X162455020Y-111345811D01*
X162321310Y-111455544D01*
X162211579Y-111589252D01*
X161883434Y-111989097D01*
X161649068Y-112427566D01*
X161558063Y-112597824D01*
X161538262Y-112663098D01*
X161158410Y-112460063D01*
X160497903Y-112259700D01*
X159811000Y-112192046D01*
X159124096Y-112259700D01*
X158463589Y-112460063D01*
X157854863Y-112785434D01*
X157321310Y-113223310D01*
X156883434Y-113756864D01*
X156558063Y-114365590D01*
X156357700Y-115026097D01*
X156307000Y-115540864D01*
X156307001Y-124397000D01*
X155086396Y-124397000D01*
X154877582Y-123892878D01*
X154275236Y-122991404D01*
X153508596Y-122224764D01*
X152607122Y-121622418D01*
X151605458Y-121207515D01*
X150542097Y-120996000D01*
X149457903Y-120996000D01*
X148394542Y-121207515D01*
X147392878Y-121622418D01*
X146491404Y-122224764D01*
X145724764Y-122991404D01*
X145122418Y-123892878D01*
X144913604Y-124397000D01*
X124402455Y-124397000D01*
X124629937Y-123971411D01*
X124830300Y-123310904D01*
X124881000Y-122796137D01*
X124881000Y-115269637D01*
X127146638Y-113004000D01*
X140361687Y-113004000D01*
X140063018Y-113127713D01*
X139608678Y-113431294D01*
X139222294Y-113817678D01*
X138918713Y-114272018D01*
X138709603Y-114776854D01*
X138603000Y-115312785D01*
X138603000Y-115859215D01*
X138709603Y-116395146D01*
X138918713Y-116899982D01*
X139222294Y-117354322D01*
X139608678Y-117740706D01*
X140063018Y-118044287D01*
X140567854Y-118253397D01*
X141103785Y-118360000D01*
X141650215Y-118360000D01*
X142186146Y-118253397D01*
X142690982Y-118044287D01*
X143145322Y-117740706D01*
X143531706Y-117354322D01*
X143835287Y-116899982D01*
X144044397Y-116395146D01*
X144100320Y-116114001D01*
X147738643Y-116114001D01*
X147825970Y-116122602D01*
X147913297Y-116114001D01*
X147913308Y-116114001D01*
X148174519Y-116088274D01*
X148509673Y-115986606D01*
X148818553Y-115821506D01*
X149089288Y-115599319D01*
X149144963Y-115531480D01*
X152302494Y-112373950D01*
X152370328Y-112318280D01*
X152425998Y-112250446D01*
X152426003Y-112250441D01*
X152592515Y-112047545D01*
X152757615Y-111738665D01*
X152859283Y-111403511D01*
X152866320Y-111332061D01*
X152885010Y-111142300D01*
X152885010Y-111142292D01*
X152893611Y-111054962D01*
X152885010Y-110967632D01*
X152885010Y-95841336D01*
X152893611Y-95754008D01*
X152885010Y-95666681D01*
X152885010Y-95666671D01*
X152859283Y-95405460D01*
X152757615Y-95070306D01*
X152592515Y-94761426D01*
X152509601Y-94660395D01*
X152426003Y-94558530D01*
X152425998Y-94558525D01*
X152370328Y-94490691D01*
X152302494Y-94435021D01*
X142627000Y-84759528D01*
X142627000Y-84226785D01*
X142520397Y-83690854D01*
X142311287Y-83186018D01*
X142007706Y-82731678D01*
X141621322Y-82345294D01*
X141166982Y-82041713D01*
X140662146Y-81832603D01*
X140126215Y-81726000D01*
X139579785Y-81726000D01*
X139043854Y-81832603D01*
X138539018Y-82041713D01*
X138084678Y-82345294D01*
X137698294Y-82731678D01*
X137394713Y-83186018D01*
X137230607Y-83582205D01*
X137024000Y-83375599D01*
X137024000Y-79227514D01*
X137172589Y-79306937D01*
X137833096Y-79507300D01*
X138520000Y-79574954D01*
X139206903Y-79507300D01*
X139867410Y-79306937D01*
X140476136Y-78981566D01*
X141009690Y-78543690D01*
X141447566Y-78010137D01*
X141772937Y-77401411D01*
X141973300Y-76740904D01*
X142024000Y-76226137D01*
X142024000Y-67254000D01*
X145970168Y-67254000D01*
X146491404Y-67775236D01*
G04 #@! TA.AperFunction,Conductor*
D21*
G36*
X146491404Y-67775236D02*
G01*
X147392878Y-68377582D01*
X148394542Y-68792485D01*
X149457903Y-69004000D01*
X150542097Y-69004000D01*
X151605458Y-68792485D01*
X152607122Y-68377582D01*
X153508596Y-67775236D01*
X154029832Y-67254000D01*
X156307000Y-67254000D01*
X156306999Y-76172136D01*
X156357699Y-76686903D01*
X156558062Y-77347410D01*
X156883433Y-77956136D01*
X157321309Y-78489689D01*
X157854862Y-78927565D01*
X158463588Y-79252936D01*
X159124095Y-79453299D01*
X159810999Y-79520953D01*
X160497902Y-79453300D01*
X161158409Y-79252937D01*
X161307000Y-79173513D01*
X161307001Y-84932865D01*
X161290047Y-85105002D01*
X161357701Y-85791906D01*
X161558063Y-86452412D01*
X161883434Y-87061139D01*
X162211579Y-87460984D01*
X162211582Y-87460987D01*
X162321311Y-87594692D01*
X162455016Y-87704421D01*
X164246595Y-89496000D01*
X163457903Y-89496000D01*
X162394542Y-89707515D01*
X161392878Y-90122418D01*
X160491404Y-90724764D01*
X159724764Y-91491404D01*
X159122418Y-92392878D01*
X158707515Y-93394542D01*
X158496000Y-94457903D01*
X158496000Y-95542097D01*
X158707515Y-96605458D01*
X159122418Y-97607122D01*
X159724764Y-98508596D01*
X160491404Y-99275236D01*
X160496000Y-99278307D01*
X160496000Y-100131172D01*
X160479047Y-100303300D01*
X160496000Y-100475427D01*
X160496000Y-100475436D01*
X160546700Y-100990203D01*
X160747063Y-101650710D01*
X161072434Y-102259437D01*
X161273142Y-102504000D01*
X161510310Y-102792990D01*
X161644020Y-102902723D01*
X165597281Y-106855985D01*
X165707010Y-106989690D01*
X165840715Y-107099419D01*
X165840717Y-107099421D01*
X166240562Y-107427566D01*
X166327040Y-107473789D01*
X162455020Y-111345811D01*
X162321310Y-111455544D01*
X162211579Y-111589252D01*
X161883434Y-111989097D01*
X161649068Y-112427566D01*
X161558063Y-112597824D01*
X161538262Y-112663098D01*
X161158410Y-112460063D01*
X160497903Y-112259700D01*
X159811000Y-112192046D01*
X159124096Y-112259700D01*
X158463589Y-112460063D01*
X157854863Y-112785434D01*
X157321310Y-113223310D01*
X156883434Y-113756864D01*
X156558063Y-114365590D01*
X156357700Y-115026097D01*
X156307000Y-115540864D01*
X156307001Y-124397000D01*
X155086396Y-124397000D01*
X154877582Y-123892878D01*
X154275236Y-122991404D01*
X153508596Y-122224764D01*
X152607122Y-121622418D01*
X151605458Y-121207515D01*
X150542097Y-120996000D01*
X149457903Y-120996000D01*
X148394542Y-121207515D01*
X147392878Y-121622418D01*
X146491404Y-122224764D01*
X145724764Y-122991404D01*
X145122418Y-123892878D01*
X144913604Y-124397000D01*
X124402455Y-124397000D01*
X124629937Y-123971411D01*
X124830300Y-123310904D01*
X124881000Y-122796137D01*
X124881000Y-115269637D01*
X127146638Y-113004000D01*
X140361687Y-113004000D01*
X140063018Y-113127713D01*
X139608678Y-113431294D01*
X139222294Y-113817678D01*
X138918713Y-114272018D01*
X138709603Y-114776854D01*
X138603000Y-115312785D01*
X138603000Y-115859215D01*
X138709603Y-116395146D01*
X138918713Y-116899982D01*
X139222294Y-117354322D01*
X139608678Y-117740706D01*
X140063018Y-118044287D01*
X140567854Y-118253397D01*
X141103785Y-118360000D01*
X141650215Y-118360000D01*
X142186146Y-118253397D01*
X142690982Y-118044287D01*
X143145322Y-117740706D01*
X143531706Y-117354322D01*
X143835287Y-116899982D01*
X144044397Y-116395146D01*
X144100320Y-116114001D01*
X147738643Y-116114001D01*
X147825970Y-116122602D01*
X147913297Y-116114001D01*
X147913308Y-116114001D01*
X148174519Y-116088274D01*
X148509673Y-115986606D01*
X148818553Y-115821506D01*
X149089288Y-115599319D01*
X149144963Y-115531480D01*
X152302494Y-112373950D01*
X152370328Y-112318280D01*
X152425998Y-112250446D01*
X152426003Y-112250441D01*
X152592515Y-112047545D01*
X152757615Y-111738665D01*
X152859283Y-111403511D01*
X152866320Y-111332061D01*
X152885010Y-111142300D01*
X152885010Y-111142292D01*
X152893611Y-111054962D01*
X152885010Y-110967632D01*
X152885010Y-95841336D01*
X152893611Y-95754008D01*
X152885010Y-95666681D01*
X152885010Y-95666671D01*
X152859283Y-95405460D01*
X152757615Y-95070306D01*
X152592515Y-94761426D01*
X152509601Y-94660395D01*
X152426003Y-94558530D01*
X152425998Y-94558525D01*
X152370328Y-94490691D01*
X152302494Y-94435021D01*
X142627000Y-84759528D01*
X142627000Y-84226785D01*
X142520397Y-83690854D01*
X142311287Y-83186018D01*
X142007706Y-82731678D01*
X141621322Y-82345294D01*
X141166982Y-82041713D01*
X140662146Y-81832603D01*
X140126215Y-81726000D01*
X139579785Y-81726000D01*
X139043854Y-81832603D01*
X138539018Y-82041713D01*
X138084678Y-82345294D01*
X137698294Y-82731678D01*
X137394713Y-83186018D01*
X137230607Y-83582205D01*
X137024000Y-83375599D01*
X137024000Y-79227514D01*
X137172589Y-79306937D01*
X137833096Y-79507300D01*
X138520000Y-79574954D01*
X139206903Y-79507300D01*
X139867410Y-79306937D01*
X140476136Y-78981566D01*
X141009690Y-78543690D01*
X141447566Y-78010137D01*
X141772937Y-77401411D01*
X141973300Y-76740904D01*
X142024000Y-76226137D01*
X142024000Y-67254000D01*
X145970168Y-67254000D01*
X146491404Y-67775236D01*
G37*
G04 #@! TD.AperFunction*
D17*
X109583018Y-113127713D02*
X109128678Y-113431294D01*
X108742294Y-113817678D01*
X108438713Y-114272018D01*
X108229603Y-114776854D01*
X108123000Y-115312785D01*
X108123000Y-115859215D01*
X108229603Y-116395146D01*
X108438713Y-116899982D01*
X108742294Y-117354322D01*
X109128678Y-117740706D01*
X109583018Y-118044287D01*
X110087854Y-118253397D01*
X110623785Y-118360000D01*
X111170215Y-118360000D01*
X111706146Y-118253397D01*
X112210982Y-118044287D01*
X112665322Y-117740706D01*
X112872999Y-117533029D01*
X112873000Y-124397000D01*
X93854572Y-124397000D01*
X94149937Y-123844411D01*
X94350300Y-123183904D01*
X94401000Y-122669137D01*
X94401000Y-115269637D01*
X96666638Y-113004000D01*
X109881687Y-113004000D01*
X109583018Y-113127713D01*
G04 #@! TA.AperFunction,Conductor*
D21*
G36*
X109583018Y-113127713D02*
G01*
X109128678Y-113431294D01*
X108742294Y-113817678D01*
X108438713Y-114272018D01*
X108229603Y-114776854D01*
X108123000Y-115312785D01*
X108123000Y-115859215D01*
X108229603Y-116395146D01*
X108438713Y-116899982D01*
X108742294Y-117354322D01*
X109128678Y-117740706D01*
X109583018Y-118044287D01*
X110087854Y-118253397D01*
X110623785Y-118360000D01*
X111170215Y-118360000D01*
X111706146Y-118253397D01*
X112210982Y-118044287D01*
X112665322Y-117740706D01*
X112872999Y-117533029D01*
X112873000Y-124397000D01*
X93854572Y-124397000D01*
X94149937Y-123844411D01*
X94350300Y-123183904D01*
X94401000Y-122669137D01*
X94401000Y-115269637D01*
X96666638Y-113004000D01*
X109881687Y-113004000D01*
X109583018Y-113127713D01*
G37*
G04 #@! TD.AperFunction*
D17*
X183033000Y-113567973D02*
X182656294Y-113944679D01*
X182352713Y-114399019D01*
X182143603Y-114903855D01*
X182037000Y-115439786D01*
X182037000Y-115986216D01*
X182143603Y-116522147D01*
X182352713Y-117026983D01*
X182656294Y-117481323D01*
X183042678Y-117867707D01*
X183497018Y-118171288D01*
X184001854Y-118380398D01*
X184537785Y-118487001D01*
X185084215Y-118487001D01*
X185620146Y-118380398D01*
X186124982Y-118171288D01*
X186533000Y-117898658D01*
X186533001Y-124397000D01*
X167904338Y-124397000D01*
X168063937Y-124098411D01*
X168264300Y-123437904D01*
X168315000Y-122923137D01*
X168315000Y-115396637D01*
X170707639Y-113004000D01*
X180672137Y-113004000D01*
X181186904Y-112953300D01*
X181847411Y-112752937D01*
X182456137Y-112427566D01*
X182989690Y-111989690D01*
X183033000Y-111936916D01*
X183033000Y-113567973D01*
G04 #@! TA.AperFunction,Conductor*
D21*
G36*
X183033000Y-113567973D02*
G01*
X182656294Y-113944679D01*
X182352713Y-114399019D01*
X182143603Y-114903855D01*
X182037000Y-115439786D01*
X182037000Y-115986216D01*
X182143603Y-116522147D01*
X182352713Y-117026983D01*
X182656294Y-117481323D01*
X183042678Y-117867707D01*
X183497018Y-118171288D01*
X184001854Y-118380398D01*
X184537785Y-118487001D01*
X185084215Y-118487001D01*
X185620146Y-118380398D01*
X186124982Y-118171288D01*
X186533000Y-117898658D01*
X186533001Y-124397000D01*
X167904338Y-124397000D01*
X168063937Y-124098411D01*
X168264300Y-123437904D01*
X168315000Y-122923137D01*
X168315000Y-115396637D01*
X170707639Y-113004000D01*
X180672137Y-113004000D01*
X181186904Y-112953300D01*
X181847411Y-112752937D01*
X182456137Y-112427566D01*
X182989690Y-111989690D01*
X183033000Y-111936916D01*
X183033000Y-113567973D01*
G37*
G04 #@! TD.AperFunction*
D17*
X100087063Y-67685590D02*
X99886700Y-68346097D01*
X99836000Y-68860864D01*
X99836001Y-80062704D01*
X99572433Y-80383862D01*
X99405949Y-80695332D01*
X99247062Y-80992589D01*
X99046699Y-81653096D01*
X98995999Y-82167863D01*
X98995999Y-82167872D01*
X98979046Y-82339999D01*
X98995999Y-82512127D01*
X98996000Y-88967860D01*
X98979046Y-89139997D01*
X99023541Y-89591765D01*
X98542097Y-89496000D01*
X97457903Y-89496000D01*
X96394542Y-89707515D01*
X95392878Y-90122418D01*
X94491404Y-90724764D01*
X93724764Y-91491404D01*
X93122418Y-92392878D01*
X92707515Y-93394542D01*
X92496000Y-94457903D01*
X92496000Y-95542097D01*
X92707515Y-96605458D01*
X93122418Y-97607122D01*
X93724764Y-98508596D01*
X94491404Y-99275236D01*
X94496000Y-99278307D01*
X94496000Y-100131172D01*
X94479047Y-100303300D01*
X94496000Y-100475427D01*
X94496000Y-100475436D01*
X94546700Y-100990203D01*
X94747063Y-101650710D01*
X95072434Y-102259437D01*
X95273142Y-102504000D01*
X95510310Y-102792990D01*
X95644020Y-102902723D01*
X98737296Y-105996000D01*
X95387360Y-105996000D01*
X95215233Y-105979047D01*
X95043106Y-105996000D01*
X95043097Y-105996000D01*
X94528330Y-106046700D01*
X93867823Y-106247063D01*
X93259096Y-106572434D01*
X92859251Y-106900579D01*
X92725544Y-107010310D01*
X92615815Y-107144015D01*
X88541020Y-111218811D01*
X88407310Y-111328544D01*
X88297579Y-111462252D01*
X87969434Y-111862097D01*
X87717698Y-112333063D01*
X87644063Y-112470824D01*
X87624262Y-112536098D01*
X87244410Y-112333063D01*
X86583903Y-112132700D01*
X85897000Y-112065046D01*
X85210096Y-112132700D01*
X84549589Y-112333063D01*
X83940863Y-112658434D01*
X83407310Y-113096310D01*
X82969434Y-113629864D01*
X82644063Y-114238590D01*
X82443700Y-114899097D01*
X82393000Y-115413864D01*
X82393001Y-124397000D01*
X62621338Y-124397000D01*
X62780937Y-124098411D01*
X62981300Y-123437904D01*
X63032000Y-122923137D01*
X63032000Y-115504401D01*
X65532402Y-113004000D01*
X78928007Y-113004000D01*
X78718854Y-113045603D01*
X78214018Y-113254713D01*
X77759678Y-113558294D01*
X77373294Y-113944678D01*
X77069713Y-114399018D01*
X76860603Y-114903854D01*
X76754000Y-115439785D01*
X76754000Y-115986215D01*
X76860603Y-116522146D01*
X77069713Y-117026982D01*
X77373294Y-117481322D01*
X77759678Y-117867706D01*
X78214018Y-118171287D01*
X78718854Y-118380397D01*
X79254785Y-118487000D01*
X79801215Y-118487000D01*
X80337146Y-118380397D01*
X80841982Y-118171287D01*
X81296322Y-117867706D01*
X81682706Y-117481322D01*
X81986287Y-117026982D01*
X82195397Y-116522146D01*
X82302000Y-115986215D01*
X82302000Y-115439785D01*
X82195397Y-114903854D01*
X81986287Y-114399018D01*
X81682706Y-113944678D01*
X81296322Y-113558294D01*
X80841982Y-113254713D01*
X80337146Y-113045603D01*
X80127993Y-113004000D01*
X81672137Y-113004000D01*
X82186904Y-112953300D01*
X82847411Y-112752937D01*
X83456137Y-112427566D01*
X83989690Y-111989690D01*
X84427566Y-111456137D01*
X84752937Y-110847411D01*
X84758413Y-110829359D01*
X84905522Y-110976468D01*
X85220644Y-111187026D01*
X85570790Y-111332061D01*
X85942503Y-111406000D01*
X86321497Y-111406000D01*
X86693210Y-111332061D01*
X87043356Y-111187026D01*
X87358478Y-110976468D01*
X87626468Y-110708478D01*
X87837026Y-110393356D01*
X87982061Y-110043210D01*
X88056000Y-109671497D01*
X88056000Y-109292503D01*
X87982061Y-108920790D01*
X87910000Y-108746819D01*
X87910000Y-96719327D01*
X87918601Y-96632000D01*
X87910000Y-96544672D01*
X87910000Y-96544662D01*
X87884273Y-96283451D01*
X87782605Y-95948297D01*
X87617505Y-95639417D01*
X87577483Y-95590650D01*
X87450993Y-95436521D01*
X87450988Y-95436516D01*
X87395318Y-95368682D01*
X87327484Y-95313012D01*
X76774000Y-84759529D01*
X76774000Y-84226785D01*
X76667397Y-83690854D01*
X76458287Y-83186018D01*
X76154706Y-82731678D01*
X75768322Y-82345294D01*
X75313982Y-82041713D01*
X74809146Y-81832603D01*
X74438328Y-81758843D01*
X75775991Y-80421181D01*
X75909690Y-80311457D01*
X76019414Y-80177758D01*
X76019421Y-80177751D01*
X76347566Y-79777905D01*
X76672937Y-79169178D01*
X76692738Y-79103902D01*
X77072589Y-79306937D01*
X77733096Y-79507300D01*
X78420000Y-79574954D01*
X79106904Y-79507300D01*
X79767411Y-79306937D01*
X80376137Y-78981566D01*
X80909690Y-78543690D01*
X81347566Y-78010137D01*
X81356463Y-77993491D01*
X81571678Y-78208706D01*
X82026018Y-78512287D01*
X82530854Y-78721397D01*
X83066785Y-78828000D01*
X83613215Y-78828000D01*
X84149146Y-78721397D01*
X84653982Y-78512287D01*
X85108322Y-78208706D01*
X85494706Y-77822322D01*
X85798287Y-77367982D01*
X86007397Y-76863146D01*
X86114000Y-76327215D01*
X86114000Y-75780785D01*
X86015065Y-75283406D01*
X91520759Y-69777713D01*
X91548379Y-69772219D01*
X91916723Y-69619645D01*
X92248225Y-69398143D01*
X92530143Y-69116225D01*
X92751645Y-68784723D01*
X92904219Y-68416379D01*
X92982000Y-68025347D01*
X92982000Y-67626653D01*
X92907875Y-67254000D01*
X100317753Y-67254000D01*
X100087063Y-67685590D01*
G04 #@! TA.AperFunction,Conductor*
D21*
G36*
X100087063Y-67685590D02*
G01*
X99886700Y-68346097D01*
X99836000Y-68860864D01*
X99836001Y-80062704D01*
X99572433Y-80383862D01*
X99405949Y-80695332D01*
X99247062Y-80992589D01*
X99046699Y-81653096D01*
X98995999Y-82167863D01*
X98995999Y-82167872D01*
X98979046Y-82339999D01*
X98995999Y-82512127D01*
X98996000Y-88967860D01*
X98979046Y-89139997D01*
X99023541Y-89591765D01*
X98542097Y-89496000D01*
X97457903Y-89496000D01*
X96394542Y-89707515D01*
X95392878Y-90122418D01*
X94491404Y-90724764D01*
X93724764Y-91491404D01*
X93122418Y-92392878D01*
X92707515Y-93394542D01*
X92496000Y-94457903D01*
X92496000Y-95542097D01*
X92707515Y-96605458D01*
X93122418Y-97607122D01*
X93724764Y-98508596D01*
X94491404Y-99275236D01*
X94496000Y-99278307D01*
X94496000Y-100131172D01*
X94479047Y-100303300D01*
X94496000Y-100475427D01*
X94496000Y-100475436D01*
X94546700Y-100990203D01*
X94747063Y-101650710D01*
X95072434Y-102259437D01*
X95273142Y-102504000D01*
X95510310Y-102792990D01*
X95644020Y-102902723D01*
X98737296Y-105996000D01*
X95387360Y-105996000D01*
X95215233Y-105979047D01*
X95043106Y-105996000D01*
X95043097Y-105996000D01*
X94528330Y-106046700D01*
X93867823Y-106247063D01*
X93259096Y-106572434D01*
X92859251Y-106900579D01*
X92725544Y-107010310D01*
X92615815Y-107144015D01*
X88541020Y-111218811D01*
X88407310Y-111328544D01*
X88297579Y-111462252D01*
X87969434Y-111862097D01*
X87717698Y-112333063D01*
X87644063Y-112470824D01*
X87624262Y-112536098D01*
X87244410Y-112333063D01*
X86583903Y-112132700D01*
X85897000Y-112065046D01*
X85210096Y-112132700D01*
X84549589Y-112333063D01*
X83940863Y-112658434D01*
X83407310Y-113096310D01*
X82969434Y-113629864D01*
X82644063Y-114238590D01*
X82443700Y-114899097D01*
X82393000Y-115413864D01*
X82393001Y-124397000D01*
X62621338Y-124397000D01*
X62780937Y-124098411D01*
X62981300Y-123437904D01*
X63032000Y-122923137D01*
X63032000Y-115504401D01*
X65532402Y-113004000D01*
X78928007Y-113004000D01*
X78718854Y-113045603D01*
X78214018Y-113254713D01*
X77759678Y-113558294D01*
X77373294Y-113944678D01*
X77069713Y-114399018D01*
X76860603Y-114903854D01*
X76754000Y-115439785D01*
X76754000Y-115986215D01*
X76860603Y-116522146D01*
X77069713Y-117026982D01*
X77373294Y-117481322D01*
X77759678Y-117867706D01*
X78214018Y-118171287D01*
X78718854Y-118380397D01*
X79254785Y-118487000D01*
X79801215Y-118487000D01*
X80337146Y-118380397D01*
X80841982Y-118171287D01*
X81296322Y-117867706D01*
X81682706Y-117481322D01*
X81986287Y-117026982D01*
X82195397Y-116522146D01*
X82302000Y-115986215D01*
X82302000Y-115439785D01*
X82195397Y-114903854D01*
X81986287Y-114399018D01*
X81682706Y-113944678D01*
X81296322Y-113558294D01*
X80841982Y-113254713D01*
X80337146Y-113045603D01*
X80127993Y-113004000D01*
X81672137Y-113004000D01*
X82186904Y-112953300D01*
X82847411Y-112752937D01*
X83456137Y-112427566D01*
X83989690Y-111989690D01*
X84427566Y-111456137D01*
X84752937Y-110847411D01*
X84758413Y-110829359D01*
X84905522Y-110976468D01*
X85220644Y-111187026D01*
X85570790Y-111332061D01*
X85942503Y-111406000D01*
X86321497Y-111406000D01*
X86693210Y-111332061D01*
X87043356Y-111187026D01*
X87358478Y-110976468D01*
X87626468Y-110708478D01*
X87837026Y-110393356D01*
X87982061Y-110043210D01*
X88056000Y-109671497D01*
X88056000Y-109292503D01*
X87982061Y-108920790D01*
X87910000Y-108746819D01*
X87910000Y-96719327D01*
X87918601Y-96632000D01*
X87910000Y-96544672D01*
X87910000Y-96544662D01*
X87884273Y-96283451D01*
X87782605Y-95948297D01*
X87617505Y-95639417D01*
X87577483Y-95590650D01*
X87450993Y-95436521D01*
X87450988Y-95436516D01*
X87395318Y-95368682D01*
X87327484Y-95313012D01*
X76774000Y-84759529D01*
X76774000Y-84226785D01*
X76667397Y-83690854D01*
X76458287Y-83186018D01*
X76154706Y-82731678D01*
X75768322Y-82345294D01*
X75313982Y-82041713D01*
X74809146Y-81832603D01*
X74438328Y-81758843D01*
X75775991Y-80421181D01*
X75909690Y-80311457D01*
X76019414Y-80177758D01*
X76019421Y-80177751D01*
X76347566Y-79777905D01*
X76672937Y-79169178D01*
X76692738Y-79103902D01*
X77072589Y-79306937D01*
X77733096Y-79507300D01*
X78420000Y-79574954D01*
X79106904Y-79507300D01*
X79767411Y-79306937D01*
X80376137Y-78981566D01*
X80909690Y-78543690D01*
X81347566Y-78010137D01*
X81356463Y-77993491D01*
X81571678Y-78208706D01*
X82026018Y-78512287D01*
X82530854Y-78721397D01*
X83066785Y-78828000D01*
X83613215Y-78828000D01*
X84149146Y-78721397D01*
X84653982Y-78512287D01*
X85108322Y-78208706D01*
X85494706Y-77822322D01*
X85798287Y-77367982D01*
X86007397Y-76863146D01*
X86114000Y-76327215D01*
X86114000Y-75780785D01*
X86015065Y-75283406D01*
X91520759Y-69777713D01*
X91548379Y-69772219D01*
X91916723Y-69619645D01*
X92248225Y-69398143D01*
X92530143Y-69116225D01*
X92751645Y-68784723D01*
X92904219Y-68416379D01*
X92982000Y-68025347D01*
X92982000Y-67626653D01*
X92907875Y-67254000D01*
X100317753Y-67254000D01*
X100087063Y-67685590D01*
G37*
G04 #@! TD.AperFunction*
D17*
X217458000Y-97319705D02*
X217458000Y-98266337D01*
X217458001Y-98266347D01*
X217458000Y-110777528D01*
X215296529Y-112939000D01*
X214763785Y-112939000D01*
X214227854Y-113045603D01*
X213723018Y-113254713D01*
X213268678Y-113558294D01*
X212882294Y-113944678D01*
X212578713Y-114399018D01*
X212369603Y-114903854D01*
X212263000Y-115439785D01*
X212263000Y-115986215D01*
X212369603Y-116522146D01*
X212578713Y-117026982D01*
X212882294Y-117481322D01*
X213268678Y-117867706D01*
X213723018Y-118171287D01*
X214227854Y-118380397D01*
X214763785Y-118487000D01*
X215310215Y-118487000D01*
X215846146Y-118380397D01*
X216350982Y-118171287D01*
X216505000Y-118068375D01*
X216505001Y-123040854D01*
X216505000Y-123040864D01*
X216505000Y-123406042D01*
X215514043Y-124397000D01*
X198130338Y-124397000D01*
X198289937Y-124098411D01*
X198490300Y-123437904D01*
X198541000Y-122923137D01*
X198541000Y-115504401D01*
X201041402Y-113004000D01*
X213057137Y-113004000D01*
X213571904Y-112953300D01*
X214232411Y-112752937D01*
X214841137Y-112427566D01*
X215374690Y-111989690D01*
X215812566Y-111456137D01*
X216137937Y-110847411D01*
X216338300Y-110186904D01*
X216405954Y-109500000D01*
X216338300Y-108813096D01*
X216137937Y-108152589D01*
X215812566Y-107543863D01*
X215374690Y-107010310D01*
X215362127Y-107000000D01*
X215374690Y-106989690D01*
X215812566Y-106456137D01*
X216137937Y-105847411D01*
X216338300Y-105186904D01*
X216405954Y-104500000D01*
X216338300Y-103813096D01*
X216137937Y-103152589D01*
X215812566Y-102543863D01*
X215374690Y-102010310D01*
X215362127Y-102000000D01*
X215374689Y-101989690D01*
X215812565Y-101456137D01*
X216137936Y-100847411D01*
X216338299Y-100186904D01*
X216405953Y-99500000D01*
X216338300Y-98813097D01*
X216137937Y-98152590D01*
X215812566Y-97543864D01*
X215374690Y-97010311D01*
X214841137Y-96572435D01*
X214232411Y-96247064D01*
X213571904Y-96046701D01*
X213057137Y-95996001D01*
X212572000Y-95996001D01*
X212572000Y-95117128D01*
X212588953Y-94945001D01*
X212572000Y-94772874D01*
X212572000Y-94772864D01*
X212521300Y-94258097D01*
X212320937Y-93597590D01*
X212078825Y-93144630D01*
X211995566Y-92988863D01*
X211667421Y-92589018D01*
X211667419Y-92589016D01*
X211557690Y-92455311D01*
X211423986Y-92345583D01*
X206230670Y-87152268D01*
X206698982Y-86958287D01*
X206937326Y-86799031D01*
X217458000Y-97319705D01*
G04 #@! TA.AperFunction,Conductor*
D21*
G36*
X217458000Y-97319705D02*
G01*
X217458000Y-98266337D01*
X217458001Y-98266347D01*
X217458000Y-110777528D01*
X215296529Y-112939000D01*
X214763785Y-112939000D01*
X214227854Y-113045603D01*
X213723018Y-113254713D01*
X213268678Y-113558294D01*
X212882294Y-113944678D01*
X212578713Y-114399018D01*
X212369603Y-114903854D01*
X212263000Y-115439785D01*
X212263000Y-115986215D01*
X212369603Y-116522146D01*
X212578713Y-117026982D01*
X212882294Y-117481322D01*
X213268678Y-117867706D01*
X213723018Y-118171287D01*
X214227854Y-118380397D01*
X214763785Y-118487000D01*
X215310215Y-118487000D01*
X215846146Y-118380397D01*
X216350982Y-118171287D01*
X216505000Y-118068375D01*
X216505001Y-123040854D01*
X216505000Y-123040864D01*
X216505000Y-123406042D01*
X215514043Y-124397000D01*
X198130338Y-124397000D01*
X198289937Y-124098411D01*
X198490300Y-123437904D01*
X198541000Y-122923137D01*
X198541000Y-115504401D01*
X201041402Y-113004000D01*
X213057137Y-113004000D01*
X213571904Y-112953300D01*
X214232411Y-112752937D01*
X214841137Y-112427566D01*
X215374690Y-111989690D01*
X215812566Y-111456137D01*
X216137937Y-110847411D01*
X216338300Y-110186904D01*
X216405954Y-109500000D01*
X216338300Y-108813096D01*
X216137937Y-108152589D01*
X215812566Y-107543863D01*
X215374690Y-107010310D01*
X215362127Y-107000000D01*
X215374690Y-106989690D01*
X215812566Y-106456137D01*
X216137937Y-105847411D01*
X216338300Y-105186904D01*
X216405954Y-104500000D01*
X216338300Y-103813096D01*
X216137937Y-103152589D01*
X215812566Y-102543863D01*
X215374690Y-102010310D01*
X215362127Y-102000000D01*
X215374689Y-101989690D01*
X215812565Y-101456137D01*
X216137936Y-100847411D01*
X216338299Y-100186904D01*
X216405953Y-99500000D01*
X216338300Y-98813097D01*
X216137937Y-98152590D01*
X215812566Y-97543864D01*
X215374690Y-97010311D01*
X214841137Y-96572435D01*
X214232411Y-96247064D01*
X213571904Y-96046701D01*
X213057137Y-95996001D01*
X212572000Y-95996001D01*
X212572000Y-95117128D01*
X212588953Y-94945001D01*
X212572000Y-94772874D01*
X212572000Y-94772864D01*
X212521300Y-94258097D01*
X212320937Y-93597590D01*
X212078825Y-93144630D01*
X211995566Y-92988863D01*
X211667421Y-92589018D01*
X211667419Y-92589016D01*
X211557690Y-92455311D01*
X211423986Y-92345583D01*
X206230670Y-87152268D01*
X206698982Y-86958287D01*
X206937326Y-86799031D01*
X217458000Y-97319705D01*
G37*
G04 #@! TD.AperFunction*
D17*
X186533000Y-76172136D02*
X186583700Y-76686903D01*
X186784063Y-77347410D01*
X187109434Y-77956136D01*
X187547310Y-78489690D01*
X188080863Y-78927566D01*
X188689589Y-79252937D01*
X189350096Y-79453300D01*
X190037000Y-79520954D01*
X190723903Y-79453300D01*
X191384410Y-79252937D01*
X191533001Y-79173513D01*
X191533001Y-80741865D01*
X191516047Y-80914002D01*
X191583701Y-81600906D01*
X191784063Y-82261412D01*
X192109434Y-82870139D01*
X192437579Y-83269985D01*
X192437587Y-83269993D01*
X192547311Y-83403692D01*
X192681010Y-83513416D01*
X199065782Y-89898188D01*
X198605458Y-89707515D01*
X197542097Y-89496000D01*
X196457903Y-89496000D01*
X195394542Y-89707515D01*
X194392878Y-90122418D01*
X193491404Y-90724764D01*
X192724764Y-91491404D01*
X192122418Y-92392878D01*
X191707515Y-93394542D01*
X191496000Y-94457903D01*
X191496000Y-95542097D01*
X191707515Y-96605458D01*
X192122418Y-97607122D01*
X192724764Y-98508596D01*
X193491404Y-99275236D01*
X193496000Y-99278307D01*
X193496000Y-100131172D01*
X193479047Y-100303300D01*
X193496000Y-100475427D01*
X193496000Y-100475436D01*
X193546700Y-100990203D01*
X193747063Y-101650710D01*
X194072434Y-102259437D01*
X194273142Y-102504000D01*
X194510310Y-102792990D01*
X194644020Y-102902723D01*
X198076913Y-106335617D01*
X197633860Y-106572434D01*
X197234015Y-106900579D01*
X197100308Y-107010310D01*
X196990579Y-107144015D01*
X192681020Y-111453575D01*
X192547310Y-111563308D01*
X192437579Y-111697016D01*
X192109434Y-112096861D01*
X191841665Y-112597823D01*
X191797327Y-112680773D01*
X191384410Y-112460064D01*
X190723903Y-112259701D01*
X190037000Y-112192047D01*
X189350096Y-112259701D01*
X188689589Y-112460064D01*
X188080863Y-112785435D01*
X187547310Y-113223311D01*
X187109434Y-113756865D01*
X186989784Y-113980714D01*
X186965706Y-113944679D01*
X186589000Y-113567973D01*
X186589000Y-96398327D01*
X186597601Y-96310999D01*
X186589000Y-96223672D01*
X186589000Y-96223662D01*
X186563273Y-95962451D01*
X186461605Y-95627297D01*
X186333567Y-95387755D01*
X186296505Y-95318416D01*
X186129992Y-95115521D01*
X186074318Y-95047682D01*
X186006478Y-94992007D01*
X175774000Y-84759529D01*
X175774000Y-84226785D01*
X175667397Y-83690854D01*
X175458287Y-83186018D01*
X175154706Y-82731678D01*
X174778000Y-82354972D01*
X174778000Y-79992471D01*
X183468760Y-71301712D01*
X183496379Y-71296218D01*
X183864723Y-71143644D01*
X183895256Y-71123243D01*
X184001854Y-71167397D01*
X184537785Y-71274000D01*
X185084215Y-71274000D01*
X185620146Y-71167397D01*
X186124982Y-70958287D01*
X186533000Y-70685657D01*
X186533000Y-76172136D01*
G04 #@! TA.AperFunction,Conductor*
D21*
G36*
X186533000Y-76172136D02*
G01*
X186583700Y-76686903D01*
X186784063Y-77347410D01*
X187109434Y-77956136D01*
X187547310Y-78489690D01*
X188080863Y-78927566D01*
X188689589Y-79252937D01*
X189350096Y-79453300D01*
X190037000Y-79520954D01*
X190723903Y-79453300D01*
X191384410Y-79252937D01*
X191533001Y-79173513D01*
X191533001Y-80741865D01*
X191516047Y-80914002D01*
X191583701Y-81600906D01*
X191784063Y-82261412D01*
X192109434Y-82870139D01*
X192437579Y-83269985D01*
X192437587Y-83269993D01*
X192547311Y-83403692D01*
X192681010Y-83513416D01*
X199065782Y-89898188D01*
X198605458Y-89707515D01*
X197542097Y-89496000D01*
X196457903Y-89496000D01*
X195394542Y-89707515D01*
X194392878Y-90122418D01*
X193491404Y-90724764D01*
X192724764Y-91491404D01*
X192122418Y-92392878D01*
X191707515Y-93394542D01*
X191496000Y-94457903D01*
X191496000Y-95542097D01*
X191707515Y-96605458D01*
X192122418Y-97607122D01*
X192724764Y-98508596D01*
X193491404Y-99275236D01*
X193496000Y-99278307D01*
X193496000Y-100131172D01*
X193479047Y-100303300D01*
X193496000Y-100475427D01*
X193496000Y-100475436D01*
X193546700Y-100990203D01*
X193747063Y-101650710D01*
X194072434Y-102259437D01*
X194273142Y-102504000D01*
X194510310Y-102792990D01*
X194644020Y-102902723D01*
X198076913Y-106335617D01*
X197633860Y-106572434D01*
X197234015Y-106900579D01*
X197100308Y-107010310D01*
X196990579Y-107144015D01*
X192681020Y-111453575D01*
X192547310Y-111563308D01*
X192437579Y-111697016D01*
X192109434Y-112096861D01*
X191841665Y-112597823D01*
X191797327Y-112680773D01*
X191384410Y-112460064D01*
X190723903Y-112259701D01*
X190037000Y-112192047D01*
X189350096Y-112259701D01*
X188689589Y-112460064D01*
X188080863Y-112785435D01*
X187547310Y-113223311D01*
X187109434Y-113756865D01*
X186989784Y-113980714D01*
X186965706Y-113944679D01*
X186589000Y-113567973D01*
X186589000Y-96398327D01*
X186597601Y-96310999D01*
X186589000Y-96223672D01*
X186589000Y-96223662D01*
X186563273Y-95962451D01*
X186461605Y-95627297D01*
X186333567Y-95387755D01*
X186296505Y-95318416D01*
X186129992Y-95115521D01*
X186074318Y-95047682D01*
X186006478Y-94992007D01*
X175774000Y-84759529D01*
X175774000Y-84226785D01*
X175667397Y-83690854D01*
X175458287Y-83186018D01*
X175154706Y-82731678D01*
X174778000Y-82354972D01*
X174778000Y-79992471D01*
X183468760Y-71301712D01*
X183496379Y-71296218D01*
X183864723Y-71143644D01*
X183895256Y-71123243D01*
X184001854Y-71167397D01*
X184537785Y-71274000D01*
X185084215Y-71274000D01*
X185620146Y-71167397D01*
X186124982Y-70958287D01*
X186533000Y-70685657D01*
X186533000Y-76172136D01*
G37*
G04 #@! TD.AperFunction*
D17*
X116916217Y-52273956D02*
X116681846Y-52712434D01*
X116537521Y-53188210D01*
X116501000Y-53559011D01*
X116501000Y-54406988D01*
X116537521Y-54777789D01*
X116681846Y-55253565D01*
X116916217Y-55692043D01*
X117231627Y-56076373D01*
X117615956Y-56391783D01*
X118054434Y-56626154D01*
X118530210Y-56770479D01*
X119025000Y-56819212D01*
X119519789Y-56770479D01*
X119995565Y-56626154D01*
X120295000Y-56466103D01*
X120594434Y-56626154D01*
X121070210Y-56770479D01*
X121565000Y-56819212D01*
X122059789Y-56770479D01*
X122535565Y-56626154D01*
X122835000Y-56466103D01*
X123134434Y-56626154D01*
X123610210Y-56770479D01*
X124105000Y-56819212D01*
X124599789Y-56770479D01*
X125075565Y-56626154D01*
X125375000Y-56466103D01*
X125674434Y-56626154D01*
X126150210Y-56770479D01*
X126645000Y-56819212D01*
X127139789Y-56770479D01*
X127615565Y-56626154D01*
X127915000Y-56466103D01*
X128214434Y-56626154D01*
X128690210Y-56770479D01*
X129185000Y-56819212D01*
X129679789Y-56770479D01*
X130059462Y-56655307D01*
X130138969Y-56697804D01*
X130426244Y-56784948D01*
X130725000Y-56814373D01*
X132725000Y-56814373D01*
X133023756Y-56784948D01*
X133311031Y-56697804D01*
X133575785Y-56556290D01*
X133807844Y-56365844D01*
X133998290Y-56133785D01*
X134139804Y-55869031D01*
X134226948Y-55581756D01*
X134256373Y-55283000D01*
X134256373Y-52683000D01*
X134226948Y-52384244D01*
X134139804Y-52096969D01*
X134100801Y-52024000D01*
X166651352Y-52024000D01*
X166446218Y-52273956D01*
X166211847Y-52712434D01*
X166067522Y-53188210D01*
X166031001Y-53559011D01*
X166031001Y-54406988D01*
X166067522Y-54777789D01*
X166211847Y-55253565D01*
X166446218Y-55692043D01*
X166761628Y-56076373D01*
X167145957Y-56391783D01*
X167584435Y-56626154D01*
X168060211Y-56770479D01*
X168555001Y-56819212D01*
X169049790Y-56770479D01*
X169525566Y-56626154D01*
X169825001Y-56466103D01*
X170124435Y-56626154D01*
X170600211Y-56770479D01*
X171095001Y-56819212D01*
X171589790Y-56770479D01*
X172065566Y-56626154D01*
X172365001Y-56466103D01*
X172664435Y-56626154D01*
X173140211Y-56770479D01*
X173635001Y-56819212D01*
X174129790Y-56770479D01*
X174605566Y-56626154D01*
X174905001Y-56466103D01*
X175204435Y-56626154D01*
X175680211Y-56770479D01*
X176175001Y-56819212D01*
X176669790Y-56770479D01*
X177145566Y-56626154D01*
X177445001Y-56466103D01*
X177744435Y-56626154D01*
X178220211Y-56770479D01*
X178715001Y-56819212D01*
X179209790Y-56770479D01*
X179685566Y-56626154D01*
X179985001Y-56466103D01*
X180284435Y-56626154D01*
X180760211Y-56770479D01*
X181255001Y-56819212D01*
X181749790Y-56770479D01*
X182225566Y-56626154D01*
X182525001Y-56466103D01*
X182824435Y-56626154D01*
X183300211Y-56770479D01*
X183795001Y-56819212D01*
X184289790Y-56770479D01*
X184669463Y-56655307D01*
X184748970Y-56697804D01*
X185036245Y-56784948D01*
X185335001Y-56814373D01*
X187335001Y-56814373D01*
X187633757Y-56784948D01*
X187921032Y-56697804D01*
X188185786Y-56556290D01*
X188417845Y-56365844D01*
X188608291Y-56133785D01*
X188749805Y-55869031D01*
X188836949Y-55581756D01*
X188866374Y-55283000D01*
X188866374Y-52683000D01*
X188836949Y-52384244D01*
X188749805Y-52096969D01*
X188710802Y-52024000D01*
X247976001Y-52024000D01*
X247976000Y-96588737D01*
X247956137Y-96572435D01*
X247347411Y-96247064D01*
X246686904Y-96046701D01*
X246172137Y-95996001D01*
X245846000Y-95996001D01*
X245846000Y-95272893D01*
X245862953Y-95100766D01*
X245846000Y-94928639D01*
X245846000Y-94928629D01*
X245795300Y-94413862D01*
X245594937Y-93753355D01*
X245568927Y-93704693D01*
X245269566Y-93144628D01*
X244941421Y-92744783D01*
X244941419Y-92744781D01*
X244831690Y-92611076D01*
X244697986Y-92501348D01*
X239347959Y-87151321D01*
X239813982Y-86958288D01*
X240268322Y-86654707D01*
X240654706Y-86268323D01*
X240958287Y-85813983D01*
X241167397Y-85309147D01*
X241274000Y-84773216D01*
X241274000Y-84226786D01*
X241167397Y-83690855D01*
X240958287Y-83186019D01*
X240654706Y-82731679D01*
X240268322Y-82345295D01*
X239813982Y-82041714D01*
X239309146Y-81832604D01*
X238773215Y-81726001D01*
X238226785Y-81726001D01*
X237690854Y-81832604D01*
X237186018Y-82041714D01*
X236731678Y-82345295D01*
X236345294Y-82731679D01*
X236041713Y-83186019D01*
X235848680Y-83652042D01*
X228513000Y-76316363D01*
X228513000Y-68327863D01*
X228506479Y-68261653D01*
X235111000Y-68261653D01*
X235111000Y-68660347D01*
X235188781Y-69051379D01*
X235341355Y-69419723D01*
X235562857Y-69751225D01*
X235844775Y-70033143D01*
X236176277Y-70254645D01*
X236544621Y-70407219D01*
X236935653Y-70485000D01*
X237334347Y-70485000D01*
X237725379Y-70407219D01*
X238093723Y-70254645D01*
X238117137Y-70239000D01*
X242834702Y-70239000D01*
X242854294Y-70268322D01*
X243240678Y-70654706D01*
X243695018Y-70958287D01*
X244199854Y-71167397D01*
X244735785Y-71274000D01*
X245282215Y-71274000D01*
X245818146Y-71167397D01*
X246322982Y-70958287D01*
X246777322Y-70654706D01*
X247163706Y-70268322D01*
X247467287Y-69813982D01*
X247676397Y-69309146D01*
X247783000Y-68773215D01*
X247783000Y-68226785D01*
X247676397Y-67690854D01*
X247467287Y-67186018D01*
X247163706Y-66731678D01*
X246777322Y-66345294D01*
X246322982Y-66041713D01*
X245818146Y-65832603D01*
X245282215Y-65726000D01*
X244735785Y-65726000D01*
X244199854Y-65832603D01*
X243695018Y-66041713D01*
X243240678Y-66345294D01*
X242902972Y-66683000D01*
X238117137Y-66683000D01*
X238093723Y-66667355D01*
X237725379Y-66514781D01*
X237334347Y-66437000D01*
X236935653Y-66437000D01*
X236544621Y-66514781D01*
X236176277Y-66667355D01*
X235844775Y-66888857D01*
X235562857Y-67170775D01*
X235341355Y-67502277D01*
X235188781Y-67870621D01*
X235111000Y-68261653D01*
X228506479Y-68261653D01*
X228462300Y-67813096D01*
X228261937Y-67152589D01*
X227936566Y-66543863D01*
X227498690Y-66010310D01*
X226965136Y-65572434D01*
X226356410Y-65247063D01*
X225695903Y-65046700D01*
X225009000Y-64979046D01*
X224322096Y-65046700D01*
X223661589Y-65247063D01*
X223357496Y-65409604D01*
X223261936Y-65094587D01*
X222936565Y-64485861D01*
X222731437Y-64235912D01*
X222608420Y-64086015D01*
X222608418Y-64086013D01*
X222498689Y-63952308D01*
X222364986Y-63842581D01*
X219422985Y-60900579D01*
X219361922Y-60850466D01*
X219347323Y-60832677D01*
X218775702Y-60363560D01*
X218123545Y-60014975D01*
X217415913Y-59800317D01*
X216864422Y-59746000D01*
X216680000Y-59727836D01*
X216495578Y-59746000D01*
X154029832Y-59746000D01*
X153508596Y-59224764D01*
X152607122Y-58622418D01*
X151605458Y-58207515D01*
X150542097Y-57996000D01*
X149457903Y-57996000D01*
X148394542Y-58207515D01*
X147392878Y-58622418D01*
X146491404Y-59224764D01*
X145970168Y-59746000D01*
X81548419Y-59746000D01*
X81363997Y-59727836D01*
X80628085Y-59800317D01*
X79920453Y-60014975D01*
X79268296Y-60363560D01*
X79030888Y-60558396D01*
X78908645Y-60263277D01*
X78687143Y-59931775D01*
X78405225Y-59649857D01*
X78073723Y-59428355D01*
X77705379Y-59275781D01*
X77314347Y-59198000D01*
X76915653Y-59198000D01*
X76524621Y-59275781D01*
X76156277Y-59428355D01*
X76132863Y-59444000D01*
X73312671Y-59444000D01*
X73225341Y-59435399D01*
X73138011Y-59444000D01*
X73138003Y-59444000D01*
X72876792Y-59469727D01*
X72541638Y-59571395D01*
X72232758Y-59736495D01*
X72029862Y-59903007D01*
X72029857Y-59903012D01*
X71962023Y-59958682D01*
X71906353Y-60026516D01*
X63804522Y-68128349D01*
X63736682Y-68184024D01*
X63681008Y-68251863D01*
X63681007Y-68251864D01*
X63561818Y-68397097D01*
X63514495Y-68454760D01*
X63349395Y-68763640D01*
X63247727Y-69098794D01*
X63222000Y-69360005D01*
X63222000Y-69360015D01*
X63213399Y-69447342D01*
X63222000Y-69534669D01*
X63222001Y-84764817D01*
X63149939Y-84938790D01*
X63076000Y-85310503D01*
X63076000Y-85689497D01*
X63149939Y-86061210D01*
X63294974Y-86411356D01*
X63505532Y-86726478D01*
X63773522Y-86994468D01*
X64088644Y-87205026D01*
X64438790Y-87350061D01*
X64810503Y-87424000D01*
X65189497Y-87424000D01*
X65561210Y-87350061D01*
X65911356Y-87205026D01*
X65995999Y-87148469D01*
X65995999Y-87792873D01*
X65979046Y-87965001D01*
X65995999Y-88137128D01*
X65995999Y-88137137D01*
X66046699Y-88651904D01*
X66194761Y-89139997D01*
X66247062Y-89312411D01*
X66440736Y-89674750D01*
X65542097Y-89496000D01*
X64457903Y-89496000D01*
X63394542Y-89707515D01*
X62392878Y-90122418D01*
X61491404Y-90724764D01*
X60724764Y-91491404D01*
X60122418Y-92392878D01*
X59707515Y-93394542D01*
X59496000Y-94457903D01*
X59496000Y-95542097D01*
X59707515Y-96605458D01*
X60122418Y-97607122D01*
X60724764Y-98508596D01*
X61491404Y-99275236D01*
X61496000Y-99278307D01*
X61496000Y-100131172D01*
X61479047Y-100303300D01*
X61496000Y-100475427D01*
X61496000Y-100475436D01*
X61546700Y-100990203D01*
X61747063Y-101650710D01*
X62072434Y-102259437D01*
X62273142Y-102504000D01*
X62510310Y-102792990D01*
X62644020Y-102902723D01*
X65737296Y-105996000D01*
X64253125Y-105996000D01*
X64080998Y-105979047D01*
X63908871Y-105996000D01*
X63908861Y-105996000D01*
X63394094Y-106046700D01*
X62733587Y-106247063D01*
X62124860Y-106572434D01*
X61725015Y-106900579D01*
X61591308Y-107010310D01*
X61481579Y-107144015D01*
X57172020Y-111453575D01*
X57038310Y-111563308D01*
X56928579Y-111697016D01*
X56600434Y-112096861D01*
X56350621Y-112564229D01*
X55721535Y-112227976D01*
X55013903Y-112013318D01*
X54277990Y-111940837D01*
X53542078Y-112013317D01*
X52834446Y-112227975D01*
X52182289Y-112576560D01*
X52024000Y-112706464D01*
X52024000Y-78457484D01*
X52106018Y-78512287D01*
X52610854Y-78721397D01*
X53146785Y-78828000D01*
X53693215Y-78828000D01*
X54229146Y-78721397D01*
X54733982Y-78512287D01*
X55188322Y-78208706D01*
X55574706Y-77822322D01*
X55878287Y-77367982D01*
X56087397Y-76863146D01*
X56194000Y-76327215D01*
X56194000Y-75780785D01*
X56087397Y-75244854D01*
X55878287Y-74740018D01*
X55574706Y-74285678D01*
X55188322Y-73899294D01*
X54733982Y-73595713D01*
X54229146Y-73386603D01*
X53693215Y-73280000D01*
X53146785Y-73280000D01*
X52610854Y-73386603D01*
X52106018Y-73595713D01*
X52024000Y-73650516D01*
X52023999Y-52024000D01*
X117121351Y-52024000D01*
X116916217Y-52273956D01*
G04 #@! TA.AperFunction,Conductor*
D21*
G36*
X116916217Y-52273956D02*
G01*
X116681846Y-52712434D01*
X116537521Y-53188210D01*
X116501000Y-53559011D01*
X116501000Y-54406988D01*
X116537521Y-54777789D01*
X116681846Y-55253565D01*
X116916217Y-55692043D01*
X117231627Y-56076373D01*
X117615956Y-56391783D01*
X118054434Y-56626154D01*
X118530210Y-56770479D01*
X119025000Y-56819212D01*
X119519789Y-56770479D01*
X119995565Y-56626154D01*
X120295000Y-56466103D01*
X120594434Y-56626154D01*
X121070210Y-56770479D01*
X121565000Y-56819212D01*
X122059789Y-56770479D01*
X122535565Y-56626154D01*
X122835000Y-56466103D01*
X123134434Y-56626154D01*
X123610210Y-56770479D01*
X124105000Y-56819212D01*
X124599789Y-56770479D01*
X125075565Y-56626154D01*
X125375000Y-56466103D01*
X125674434Y-56626154D01*
X126150210Y-56770479D01*
X126645000Y-56819212D01*
X127139789Y-56770479D01*
X127615565Y-56626154D01*
X127915000Y-56466103D01*
X128214434Y-56626154D01*
X128690210Y-56770479D01*
X129185000Y-56819212D01*
X129679789Y-56770479D01*
X130059462Y-56655307D01*
X130138969Y-56697804D01*
X130426244Y-56784948D01*
X130725000Y-56814373D01*
X132725000Y-56814373D01*
X133023756Y-56784948D01*
X133311031Y-56697804D01*
X133575785Y-56556290D01*
X133807844Y-56365844D01*
X133998290Y-56133785D01*
X134139804Y-55869031D01*
X134226948Y-55581756D01*
X134256373Y-55283000D01*
X134256373Y-52683000D01*
X134226948Y-52384244D01*
X134139804Y-52096969D01*
X134100801Y-52024000D01*
X166651352Y-52024000D01*
X166446218Y-52273956D01*
X166211847Y-52712434D01*
X166067522Y-53188210D01*
X166031001Y-53559011D01*
X166031001Y-54406988D01*
X166067522Y-54777789D01*
X166211847Y-55253565D01*
X166446218Y-55692043D01*
X166761628Y-56076373D01*
X167145957Y-56391783D01*
X167584435Y-56626154D01*
X168060211Y-56770479D01*
X168555001Y-56819212D01*
X169049790Y-56770479D01*
X169525566Y-56626154D01*
X169825001Y-56466103D01*
X170124435Y-56626154D01*
X170600211Y-56770479D01*
X171095001Y-56819212D01*
X171589790Y-56770479D01*
X172065566Y-56626154D01*
X172365001Y-56466103D01*
X172664435Y-56626154D01*
X173140211Y-56770479D01*
X173635001Y-56819212D01*
X174129790Y-56770479D01*
X174605566Y-56626154D01*
X174905001Y-56466103D01*
X175204435Y-56626154D01*
X175680211Y-56770479D01*
X176175001Y-56819212D01*
X176669790Y-56770479D01*
X177145566Y-56626154D01*
X177445001Y-56466103D01*
X177744435Y-56626154D01*
X178220211Y-56770479D01*
X178715001Y-56819212D01*
X179209790Y-56770479D01*
X179685566Y-56626154D01*
X179985001Y-56466103D01*
X180284435Y-56626154D01*
X180760211Y-56770479D01*
X181255001Y-56819212D01*
X181749790Y-56770479D01*
X182225566Y-56626154D01*
X182525001Y-56466103D01*
X182824435Y-56626154D01*
X183300211Y-56770479D01*
X183795001Y-56819212D01*
X184289790Y-56770479D01*
X184669463Y-56655307D01*
X184748970Y-56697804D01*
X185036245Y-56784948D01*
X185335001Y-56814373D01*
X187335001Y-56814373D01*
X187633757Y-56784948D01*
X187921032Y-56697804D01*
X188185786Y-56556290D01*
X188417845Y-56365844D01*
X188608291Y-56133785D01*
X188749805Y-55869031D01*
X188836949Y-55581756D01*
X188866374Y-55283000D01*
X188866374Y-52683000D01*
X188836949Y-52384244D01*
X188749805Y-52096969D01*
X188710802Y-52024000D01*
X247976001Y-52024000D01*
X247976000Y-96588737D01*
X247956137Y-96572435D01*
X247347411Y-96247064D01*
X246686904Y-96046701D01*
X246172137Y-95996001D01*
X245846000Y-95996001D01*
X245846000Y-95272893D01*
X245862953Y-95100766D01*
X245846000Y-94928639D01*
X245846000Y-94928629D01*
X245795300Y-94413862D01*
X245594937Y-93753355D01*
X245568927Y-93704693D01*
X245269566Y-93144628D01*
X244941421Y-92744783D01*
X244941419Y-92744781D01*
X244831690Y-92611076D01*
X244697986Y-92501348D01*
X239347959Y-87151321D01*
X239813982Y-86958288D01*
X240268322Y-86654707D01*
X240654706Y-86268323D01*
X240958287Y-85813983D01*
X241167397Y-85309147D01*
X241274000Y-84773216D01*
X241274000Y-84226786D01*
X241167397Y-83690855D01*
X240958287Y-83186019D01*
X240654706Y-82731679D01*
X240268322Y-82345295D01*
X239813982Y-82041714D01*
X239309146Y-81832604D01*
X238773215Y-81726001D01*
X238226785Y-81726001D01*
X237690854Y-81832604D01*
X237186018Y-82041714D01*
X236731678Y-82345295D01*
X236345294Y-82731679D01*
X236041713Y-83186019D01*
X235848680Y-83652042D01*
X228513000Y-76316363D01*
X228513000Y-68327863D01*
X228506479Y-68261653D01*
X235111000Y-68261653D01*
X235111000Y-68660347D01*
X235188781Y-69051379D01*
X235341355Y-69419723D01*
X235562857Y-69751225D01*
X235844775Y-70033143D01*
X236176277Y-70254645D01*
X236544621Y-70407219D01*
X236935653Y-70485000D01*
X237334347Y-70485000D01*
X237725379Y-70407219D01*
X238093723Y-70254645D01*
X238117137Y-70239000D01*
X242834702Y-70239000D01*
X242854294Y-70268322D01*
X243240678Y-70654706D01*
X243695018Y-70958287D01*
X244199854Y-71167397D01*
X244735785Y-71274000D01*
X245282215Y-71274000D01*
X245818146Y-71167397D01*
X246322982Y-70958287D01*
X246777322Y-70654706D01*
X247163706Y-70268322D01*
X247467287Y-69813982D01*
X247676397Y-69309146D01*
X247783000Y-68773215D01*
X247783000Y-68226785D01*
X247676397Y-67690854D01*
X247467287Y-67186018D01*
X247163706Y-66731678D01*
X246777322Y-66345294D01*
X246322982Y-66041713D01*
X245818146Y-65832603D01*
X245282215Y-65726000D01*
X244735785Y-65726000D01*
X244199854Y-65832603D01*
X243695018Y-66041713D01*
X243240678Y-66345294D01*
X242902972Y-66683000D01*
X238117137Y-66683000D01*
X238093723Y-66667355D01*
X237725379Y-66514781D01*
X237334347Y-66437000D01*
X236935653Y-66437000D01*
X236544621Y-66514781D01*
X236176277Y-66667355D01*
X235844775Y-66888857D01*
X235562857Y-67170775D01*
X235341355Y-67502277D01*
X235188781Y-67870621D01*
X235111000Y-68261653D01*
X228506479Y-68261653D01*
X228462300Y-67813096D01*
X228261937Y-67152589D01*
X227936566Y-66543863D01*
X227498690Y-66010310D01*
X226965136Y-65572434D01*
X226356410Y-65247063D01*
X225695903Y-65046700D01*
X225009000Y-64979046D01*
X224322096Y-65046700D01*
X223661589Y-65247063D01*
X223357496Y-65409604D01*
X223261936Y-65094587D01*
X222936565Y-64485861D01*
X222731437Y-64235912D01*
X222608420Y-64086015D01*
X222608418Y-64086013D01*
X222498689Y-63952308D01*
X222364986Y-63842581D01*
X219422985Y-60900579D01*
X219361922Y-60850466D01*
X219347323Y-60832677D01*
X218775702Y-60363560D01*
X218123545Y-60014975D01*
X217415913Y-59800317D01*
X216864422Y-59746000D01*
X216680000Y-59727836D01*
X216495578Y-59746000D01*
X154029832Y-59746000D01*
X153508596Y-59224764D01*
X152607122Y-58622418D01*
X151605458Y-58207515D01*
X150542097Y-57996000D01*
X149457903Y-57996000D01*
X148394542Y-58207515D01*
X147392878Y-58622418D01*
X146491404Y-59224764D01*
X145970168Y-59746000D01*
X81548419Y-59746000D01*
X81363997Y-59727836D01*
X80628085Y-59800317D01*
X79920453Y-60014975D01*
X79268296Y-60363560D01*
X79030888Y-60558396D01*
X78908645Y-60263277D01*
X78687143Y-59931775D01*
X78405225Y-59649857D01*
X78073723Y-59428355D01*
X77705379Y-59275781D01*
X77314347Y-59198000D01*
X76915653Y-59198000D01*
X76524621Y-59275781D01*
X76156277Y-59428355D01*
X76132863Y-59444000D01*
X73312671Y-59444000D01*
X73225341Y-59435399D01*
X73138011Y-59444000D01*
X73138003Y-59444000D01*
X72876792Y-59469727D01*
X72541638Y-59571395D01*
X72232758Y-59736495D01*
X72029862Y-59903007D01*
X72029857Y-59903012D01*
X71962023Y-59958682D01*
X71906353Y-60026516D01*
X63804522Y-68128349D01*
X63736682Y-68184024D01*
X63681008Y-68251863D01*
X63681007Y-68251864D01*
X63561818Y-68397097D01*
X63514495Y-68454760D01*
X63349395Y-68763640D01*
X63247727Y-69098794D01*
X63222000Y-69360005D01*
X63222000Y-69360015D01*
X63213399Y-69447342D01*
X63222000Y-69534669D01*
X63222001Y-84764817D01*
X63149939Y-84938790D01*
X63076000Y-85310503D01*
X63076000Y-85689497D01*
X63149939Y-86061210D01*
X63294974Y-86411356D01*
X63505532Y-86726478D01*
X63773522Y-86994468D01*
X64088644Y-87205026D01*
X64438790Y-87350061D01*
X64810503Y-87424000D01*
X65189497Y-87424000D01*
X65561210Y-87350061D01*
X65911356Y-87205026D01*
X65995999Y-87148469D01*
X65995999Y-87792873D01*
X65979046Y-87965001D01*
X65995999Y-88137128D01*
X65995999Y-88137137D01*
X66046699Y-88651904D01*
X66194761Y-89139997D01*
X66247062Y-89312411D01*
X66440736Y-89674750D01*
X65542097Y-89496000D01*
X64457903Y-89496000D01*
X63394542Y-89707515D01*
X62392878Y-90122418D01*
X61491404Y-90724764D01*
X60724764Y-91491404D01*
X60122418Y-92392878D01*
X59707515Y-93394542D01*
X59496000Y-94457903D01*
X59496000Y-95542097D01*
X59707515Y-96605458D01*
X60122418Y-97607122D01*
X60724764Y-98508596D01*
X61491404Y-99275236D01*
X61496000Y-99278307D01*
X61496000Y-100131172D01*
X61479047Y-100303300D01*
X61496000Y-100475427D01*
X61496000Y-100475436D01*
X61546700Y-100990203D01*
X61747063Y-101650710D01*
X62072434Y-102259437D01*
X62273142Y-102504000D01*
X62510310Y-102792990D01*
X62644020Y-102902723D01*
X65737296Y-105996000D01*
X64253125Y-105996000D01*
X64080998Y-105979047D01*
X63908871Y-105996000D01*
X63908861Y-105996000D01*
X63394094Y-106046700D01*
X62733587Y-106247063D01*
X62124860Y-106572434D01*
X61725015Y-106900579D01*
X61591308Y-107010310D01*
X61481579Y-107144015D01*
X57172020Y-111453575D01*
X57038310Y-111563308D01*
X56928579Y-111697016D01*
X56600434Y-112096861D01*
X56350621Y-112564229D01*
X55721535Y-112227976D01*
X55013903Y-112013318D01*
X54277990Y-111940837D01*
X53542078Y-112013317D01*
X52834446Y-112227975D01*
X52182289Y-112576560D01*
X52024000Y-112706464D01*
X52024000Y-78457484D01*
X52106018Y-78512287D01*
X52610854Y-78721397D01*
X53146785Y-78828000D01*
X53693215Y-78828000D01*
X54229146Y-78721397D01*
X54733982Y-78512287D01*
X55188322Y-78208706D01*
X55574706Y-77822322D01*
X55878287Y-77367982D01*
X56087397Y-76863146D01*
X56194000Y-76327215D01*
X56194000Y-75780785D01*
X56087397Y-75244854D01*
X55878287Y-74740018D01*
X55574706Y-74285678D01*
X55188322Y-73899294D01*
X54733982Y-73595713D01*
X54229146Y-73386603D01*
X53693215Y-73280000D01*
X53146785Y-73280000D01*
X52610854Y-73386603D01*
X52106018Y-73595713D01*
X52024000Y-73650516D01*
X52023999Y-52024000D01*
X117121351Y-52024000D01*
X116916217Y-52273956D01*
G37*
G04 #@! TD.AperFunction*
D17*
X212412828Y-69413501D02*
X212578713Y-69813983D01*
X212882294Y-70268323D01*
X213268678Y-70654707D01*
X213723018Y-70958288D01*
X214227854Y-71167398D01*
X214763785Y-71274001D01*
X215310215Y-71274001D01*
X215846146Y-71167398D01*
X216350982Y-70958288D01*
X216504999Y-70855377D01*
X216505000Y-76172137D01*
X216555700Y-76686904D01*
X216756063Y-77347411D01*
X217081434Y-77956137D01*
X217519310Y-78489690D01*
X218052863Y-78927566D01*
X218661589Y-79252937D01*
X219322096Y-79453300D01*
X220008999Y-79520954D01*
X220695903Y-79453300D01*
X221356410Y-79252937D01*
X221736262Y-79049902D01*
X221756063Y-79115177D01*
X222001819Y-79574954D01*
X222081434Y-79723903D01*
X222294905Y-79984017D01*
X222519311Y-80257456D01*
X222653016Y-80367185D01*
X232267623Y-89981793D01*
X231605458Y-89707515D01*
X230542097Y-89496000D01*
X229457903Y-89496000D01*
X228394542Y-89707515D01*
X227392878Y-90122418D01*
X226491404Y-90724764D01*
X225724764Y-91491404D01*
X225122418Y-92392878D01*
X224707515Y-93394542D01*
X224496000Y-94457903D01*
X224496000Y-95542097D01*
X224707515Y-96605458D01*
X225122418Y-97607122D01*
X225724764Y-98508596D01*
X226491404Y-99275236D01*
X226496000Y-99278307D01*
X226496000Y-100131172D01*
X226479047Y-100303300D01*
X226496000Y-100475427D01*
X226496000Y-100475436D01*
X226546700Y-100990203D01*
X226747063Y-101650710D01*
X227072434Y-102259437D01*
X227273142Y-102504000D01*
X227510310Y-102792990D01*
X227644020Y-102902723D01*
X230737296Y-105996000D01*
X228340128Y-105996000D01*
X228168001Y-105979047D01*
X227995874Y-105996000D01*
X227995865Y-105996000D01*
X227481098Y-106046700D01*
X226820591Y-106247063D01*
X226211865Y-106572434D01*
X226211863Y-106572435D01*
X226211864Y-106572435D01*
X225812018Y-106900579D01*
X225812011Y-106900586D01*
X225678312Y-107010310D01*
X225568587Y-107144010D01*
X222653020Y-110059579D01*
X222519310Y-110169312D01*
X222409579Y-110303020D01*
X222081434Y-110702865D01*
X221841366Y-111152001D01*
X221756063Y-111311592D01*
X221555700Y-111972099D01*
X221505000Y-112486866D01*
X221505000Y-112486875D01*
X221500077Y-112536855D01*
X221356410Y-112460063D01*
X220831483Y-112300828D01*
X220886605Y-112197703D01*
X220988273Y-111862549D01*
X221000474Y-111738665D01*
X221014000Y-111601338D01*
X221014000Y-111601330D01*
X221022601Y-111514000D01*
X221014000Y-111426670D01*
X221014000Y-96670561D01*
X221022601Y-96583233D01*
X221014000Y-96495906D01*
X221014000Y-96495896D01*
X220988273Y-96234685D01*
X220886605Y-95899531D01*
X220741093Y-95627297D01*
X220721505Y-95590650D01*
X220554992Y-95387755D01*
X220499318Y-95319916D01*
X220431479Y-95264242D01*
X208471759Y-83304522D01*
X208416084Y-83236682D01*
X208145349Y-83014495D01*
X207836469Y-82849395D01*
X207562915Y-82766413D01*
X207539706Y-82731678D01*
X207163000Y-82354972D01*
X207163000Y-70453328D01*
X207171601Y-70365998D01*
X207163000Y-70278668D01*
X207163000Y-70278660D01*
X207137273Y-70017449D01*
X207035605Y-69682295D01*
X206891931Y-69413500D01*
X212412828Y-69413501D01*
G04 #@! TA.AperFunction,Conductor*
D21*
G36*
X212412828Y-69413501D02*
G01*
X212578713Y-69813983D01*
X212882294Y-70268323D01*
X213268678Y-70654707D01*
X213723018Y-70958288D01*
X214227854Y-71167398D01*
X214763785Y-71274001D01*
X215310215Y-71274001D01*
X215846146Y-71167398D01*
X216350982Y-70958288D01*
X216504999Y-70855377D01*
X216505000Y-76172137D01*
X216555700Y-76686904D01*
X216756063Y-77347411D01*
X217081434Y-77956137D01*
X217519310Y-78489690D01*
X218052863Y-78927566D01*
X218661589Y-79252937D01*
X219322096Y-79453300D01*
X220008999Y-79520954D01*
X220695903Y-79453300D01*
X221356410Y-79252937D01*
X221736262Y-79049902D01*
X221756063Y-79115177D01*
X222001819Y-79574954D01*
X222081434Y-79723903D01*
X222294905Y-79984017D01*
X222519311Y-80257456D01*
X222653016Y-80367185D01*
X232267623Y-89981793D01*
X231605458Y-89707515D01*
X230542097Y-89496000D01*
X229457903Y-89496000D01*
X228394542Y-89707515D01*
X227392878Y-90122418D01*
X226491404Y-90724764D01*
X225724764Y-91491404D01*
X225122418Y-92392878D01*
X224707515Y-93394542D01*
X224496000Y-94457903D01*
X224496000Y-95542097D01*
X224707515Y-96605458D01*
X225122418Y-97607122D01*
X225724764Y-98508596D01*
X226491404Y-99275236D01*
X226496000Y-99278307D01*
X226496000Y-100131172D01*
X226479047Y-100303300D01*
X226496000Y-100475427D01*
X226496000Y-100475436D01*
X226546700Y-100990203D01*
X226747063Y-101650710D01*
X227072434Y-102259437D01*
X227273142Y-102504000D01*
X227510310Y-102792990D01*
X227644020Y-102902723D01*
X230737296Y-105996000D01*
X228340128Y-105996000D01*
X228168001Y-105979047D01*
X227995874Y-105996000D01*
X227995865Y-105996000D01*
X227481098Y-106046700D01*
X226820591Y-106247063D01*
X226211865Y-106572434D01*
X226211863Y-106572435D01*
X226211864Y-106572435D01*
X225812018Y-106900579D01*
X225812011Y-106900586D01*
X225678312Y-107010310D01*
X225568587Y-107144010D01*
X222653020Y-110059579D01*
X222519310Y-110169312D01*
X222409579Y-110303020D01*
X222081434Y-110702865D01*
X221841366Y-111152001D01*
X221756063Y-111311592D01*
X221555700Y-111972099D01*
X221505000Y-112486866D01*
X221505000Y-112486875D01*
X221500077Y-112536855D01*
X221356410Y-112460063D01*
X220831483Y-112300828D01*
X220886605Y-112197703D01*
X220988273Y-111862549D01*
X221000474Y-111738665D01*
X221014000Y-111601338D01*
X221014000Y-111601330D01*
X221022601Y-111514000D01*
X221014000Y-111426670D01*
X221014000Y-96670561D01*
X221022601Y-96583233D01*
X221014000Y-96495906D01*
X221014000Y-96495896D01*
X220988273Y-96234685D01*
X220886605Y-95899531D01*
X220741093Y-95627297D01*
X220721505Y-95590650D01*
X220554992Y-95387755D01*
X220499318Y-95319916D01*
X220431479Y-95264242D01*
X208471759Y-83304522D01*
X208416084Y-83236682D01*
X208145349Y-83014495D01*
X207836469Y-82849395D01*
X207562915Y-82766413D01*
X207539706Y-82731678D01*
X207163000Y-82354972D01*
X207163000Y-70453328D01*
X207171601Y-70365998D01*
X207163000Y-70278668D01*
X207163000Y-70278660D01*
X207137273Y-70017449D01*
X207035605Y-69682295D01*
X206891931Y-69413500D01*
X212412828Y-69413501D01*
G37*
G04 #@! TD.AperFunction*
D17*
X124486001Y-82676663D02*
X124477399Y-82764000D01*
X124486001Y-82851338D01*
X124511728Y-83112549D01*
X124532495Y-83181007D01*
X124613395Y-83447702D01*
X124778495Y-83756582D01*
X124945007Y-83959478D01*
X124945013Y-83959484D01*
X125000683Y-84027318D01*
X125068517Y-84082988D01*
X127222912Y-86237383D01*
X127294974Y-86411356D01*
X127505532Y-86726478D01*
X127773522Y-86994468D01*
X128088644Y-87205026D01*
X128438790Y-87350061D01*
X128810503Y-87424000D01*
X129189497Y-87424000D01*
X129561210Y-87350061D01*
X129911356Y-87205026D01*
X130226478Y-86994468D01*
X130494468Y-86726478D01*
X130532069Y-86670204D01*
X130592434Y-86783139D01*
X130758512Y-86985505D01*
X131030310Y-87316692D01*
X131164020Y-87426425D01*
X134369250Y-90631656D01*
X133607122Y-90122418D01*
X132605458Y-89707515D01*
X131542097Y-89496000D01*
X130457903Y-89496000D01*
X129394542Y-89707515D01*
X128392878Y-90122418D01*
X127491404Y-90724764D01*
X126724764Y-91491404D01*
X126122418Y-92392878D01*
X125707515Y-93394542D01*
X125496000Y-94457903D01*
X125496000Y-95542097D01*
X125707515Y-96605458D01*
X126122418Y-97607122D01*
X126724764Y-98508596D01*
X127491404Y-99275236D01*
X127496000Y-99278307D01*
X127496000Y-100131172D01*
X127479047Y-100303300D01*
X127496000Y-100475427D01*
X127496000Y-100475436D01*
X127546700Y-100990203D01*
X127747063Y-101650710D01*
X128072434Y-102259437D01*
X128273142Y-102504000D01*
X128510310Y-102792990D01*
X128644020Y-102902723D01*
X131737296Y-105996000D01*
X125867360Y-105996000D01*
X125695233Y-105979047D01*
X125523106Y-105996000D01*
X125523097Y-105996000D01*
X125008330Y-106046700D01*
X124347823Y-106247063D01*
X123739096Y-106572434D01*
X123339251Y-106900579D01*
X123205544Y-107010310D01*
X123095815Y-107144015D01*
X120504848Y-109734983D01*
X120568000Y-109417498D01*
X120568000Y-109038504D01*
X120494061Y-108666791D01*
X120421999Y-108492818D01*
X120422001Y-96231327D01*
X120430602Y-96143999D01*
X120422001Y-96056672D01*
X120422001Y-96056663D01*
X120396274Y-95795452D01*
X120294606Y-95460298D01*
X120281897Y-95436521D01*
X120129506Y-95151416D01*
X119962993Y-94948521D01*
X119962989Y-94948517D01*
X119907319Y-94880683D01*
X119839485Y-94825013D01*
X110042472Y-85028001D01*
X112657672Y-85028001D01*
X112744999Y-85036602D01*
X112832326Y-85028001D01*
X112832337Y-85028001D01*
X113093548Y-85002274D01*
X113428702Y-84900606D01*
X113737582Y-84735506D01*
X114008317Y-84513319D01*
X114063992Y-84445479D01*
X117422993Y-81086479D01*
X117422998Y-81086473D01*
X124486000Y-74023472D01*
X124486001Y-82676663D01*
G04 #@! TA.AperFunction,Conductor*
D21*
G36*
X124486001Y-82676663D02*
G01*
X124477399Y-82764000D01*
X124486001Y-82851338D01*
X124511728Y-83112549D01*
X124532495Y-83181007D01*
X124613395Y-83447702D01*
X124778495Y-83756582D01*
X124945007Y-83959478D01*
X124945013Y-83959484D01*
X125000683Y-84027318D01*
X125068517Y-84082988D01*
X127222912Y-86237383D01*
X127294974Y-86411356D01*
X127505532Y-86726478D01*
X127773522Y-86994468D01*
X128088644Y-87205026D01*
X128438790Y-87350061D01*
X128810503Y-87424000D01*
X129189497Y-87424000D01*
X129561210Y-87350061D01*
X129911356Y-87205026D01*
X130226478Y-86994468D01*
X130494468Y-86726478D01*
X130532069Y-86670204D01*
X130592434Y-86783139D01*
X130758512Y-86985505D01*
X131030310Y-87316692D01*
X131164020Y-87426425D01*
X134369250Y-90631656D01*
X133607122Y-90122418D01*
X132605458Y-89707515D01*
X131542097Y-89496000D01*
X130457903Y-89496000D01*
X129394542Y-89707515D01*
X128392878Y-90122418D01*
X127491404Y-90724764D01*
X126724764Y-91491404D01*
X126122418Y-92392878D01*
X125707515Y-93394542D01*
X125496000Y-94457903D01*
X125496000Y-95542097D01*
X125707515Y-96605458D01*
X126122418Y-97607122D01*
X126724764Y-98508596D01*
X127491404Y-99275236D01*
X127496000Y-99278307D01*
X127496000Y-100131172D01*
X127479047Y-100303300D01*
X127496000Y-100475427D01*
X127496000Y-100475436D01*
X127546700Y-100990203D01*
X127747063Y-101650710D01*
X128072434Y-102259437D01*
X128273142Y-102504000D01*
X128510310Y-102792990D01*
X128644020Y-102902723D01*
X131737296Y-105996000D01*
X125867360Y-105996000D01*
X125695233Y-105979047D01*
X125523106Y-105996000D01*
X125523097Y-105996000D01*
X125008330Y-106046700D01*
X124347823Y-106247063D01*
X123739096Y-106572434D01*
X123339251Y-106900579D01*
X123205544Y-107010310D01*
X123095815Y-107144015D01*
X120504848Y-109734983D01*
X120568000Y-109417498D01*
X120568000Y-109038504D01*
X120494061Y-108666791D01*
X120421999Y-108492818D01*
X120422001Y-96231327D01*
X120430602Y-96143999D01*
X120422001Y-96056672D01*
X120422001Y-96056663D01*
X120396274Y-95795452D01*
X120294606Y-95460298D01*
X120281897Y-95436521D01*
X120129506Y-95151416D01*
X119962993Y-94948521D01*
X119962989Y-94948517D01*
X119907319Y-94880683D01*
X119839485Y-94825013D01*
X110042472Y-85028001D01*
X112657672Y-85028001D01*
X112744999Y-85036602D01*
X112832326Y-85028001D01*
X112832337Y-85028001D01*
X113093548Y-85002274D01*
X113428702Y-84900606D01*
X113737582Y-84735506D01*
X114008317Y-84513319D01*
X114063992Y-84445479D01*
X117422993Y-81086479D01*
X117422998Y-81086473D01*
X124486000Y-74023472D01*
X124486001Y-82676663D01*
G37*
G04 #@! TD.AperFunction*
D17*
X238285957Y-96000126D02*
X237813096Y-96046699D01*
X237152589Y-96247062D01*
X236543863Y-96572433D01*
X236010310Y-97010309D01*
X235572434Y-97543862D01*
X235247063Y-98152588D01*
X235046700Y-98813095D01*
X234979046Y-99499999D01*
X235046700Y-100186903D01*
X235137137Y-100485033D01*
X233717968Y-99065864D01*
X234275236Y-98508596D01*
X234877582Y-97607122D01*
X235292485Y-96605458D01*
X235504000Y-95542097D01*
X235504000Y-94457903D01*
X235292485Y-93394542D01*
X235018207Y-92732377D01*
X238285957Y-96000126D01*
G04 #@! TA.AperFunction,Conductor*
D21*
G36*
X238285957Y-96000126D02*
G01*
X237813096Y-96046699D01*
X237152589Y-96247062D01*
X236543863Y-96572433D01*
X236010310Y-97010309D01*
X235572434Y-97543862D01*
X235247063Y-98152588D01*
X235046700Y-98813095D01*
X234979046Y-99499999D01*
X235046700Y-100186903D01*
X235137137Y-100485033D01*
X233717968Y-99065864D01*
X234275236Y-98508596D01*
X234877582Y-97607122D01*
X235292485Y-96605458D01*
X235504000Y-95542097D01*
X235504000Y-94457903D01*
X235292485Y-93394542D01*
X235018207Y-92732377D01*
X238285957Y-96000126D01*
G37*
G04 #@! TD.AperFunction*
D17*
X84354001Y-97368473D02*
X84354001Y-97454224D01*
X83989690Y-97010310D01*
X83456137Y-96572434D01*
X82847411Y-96247063D01*
X82186904Y-96046700D01*
X81672137Y-95996000D01*
X76254001Y-95996000D01*
X76254001Y-91387130D01*
X76270954Y-91215003D01*
X76254001Y-91042876D01*
X76254001Y-91042866D01*
X76203301Y-90528099D01*
X76002938Y-89867592D01*
X75706188Y-89312412D01*
X75677567Y-89258865D01*
X75349422Y-88859020D01*
X75349420Y-88859018D01*
X75239691Y-88725313D01*
X75105986Y-88615584D01*
X73764402Y-87274000D01*
X74259529Y-87274000D01*
X84354001Y-97368473D01*
G04 #@! TA.AperFunction,Conductor*
D21*
G36*
X84354001Y-97368473D02*
G01*
X84354001Y-97454224D01*
X83989690Y-97010310D01*
X83456137Y-96572434D01*
X82847411Y-96247063D01*
X82186904Y-96046700D01*
X81672137Y-95996000D01*
X76254001Y-95996000D01*
X76254001Y-91387130D01*
X76270954Y-91215003D01*
X76254001Y-91042876D01*
X76254001Y-91042866D01*
X76203301Y-90528099D01*
X76002938Y-89867592D01*
X75706188Y-89312412D01*
X75677567Y-89258865D01*
X75349422Y-88859020D01*
X75349420Y-88859018D01*
X75239691Y-88725313D01*
X75105986Y-88615584D01*
X73764402Y-87274000D01*
X74259529Y-87274000D01*
X84354001Y-97368473D01*
G37*
G04 #@! TD.AperFunction*
D17*
X171686018Y-86958287D02*
X172190854Y-87167397D01*
X172726785Y-87274000D01*
X173259529Y-87274000D01*
X183033001Y-97047472D01*
X183033001Y-97063085D01*
X182989690Y-97010310D01*
X182456137Y-96572434D01*
X181847411Y-96247063D01*
X181186904Y-96046700D01*
X180672137Y-95996000D01*
X176504000Y-95996000D01*
X176504000Y-93466129D01*
X176520953Y-93294002D01*
X176504000Y-93121875D01*
X176504000Y-93121865D01*
X176453300Y-92607098D01*
X176252937Y-91946591D01*
X176146287Y-91747063D01*
X175927566Y-91337864D01*
X175599421Y-90938019D01*
X175599419Y-90938017D01*
X175489690Y-90804312D01*
X175355986Y-90694584D01*
X171486122Y-86824720D01*
X171686018Y-86958287D01*
G04 #@! TA.AperFunction,Conductor*
D21*
G36*
X171686018Y-86958287D02*
G01*
X172190854Y-87167397D01*
X172726785Y-87274000D01*
X173259529Y-87274000D01*
X183033001Y-97047472D01*
X183033001Y-97063085D01*
X182989690Y-97010310D01*
X182456137Y-96572434D01*
X181847411Y-96247063D01*
X181186904Y-96046700D01*
X180672137Y-95996000D01*
X176504000Y-95996000D01*
X176504000Y-93466129D01*
X176520953Y-93294002D01*
X176504000Y-93121875D01*
X176504000Y-93121865D01*
X176453300Y-92607098D01*
X176252937Y-91946591D01*
X176146287Y-91747063D01*
X175927566Y-91337864D01*
X175599421Y-90938019D01*
X175599419Y-90938017D01*
X175489690Y-90804312D01*
X175355986Y-90694584D01*
X171486122Y-86824720D01*
X171686018Y-86958287D01*
G37*
G04 #@! TD.AperFunction*
D17*
X106190854Y-87167397D02*
X106726785Y-87274000D01*
X107259529Y-87274000D01*
X116866002Y-96880472D01*
X116866002Y-96908802D01*
X116456136Y-96572433D01*
X115847410Y-96247062D01*
X115186903Y-96046699D01*
X114672136Y-95995999D01*
X110504000Y-95996000D01*
X110504000Y-93812124D01*
X110520953Y-93639997D01*
X110504000Y-93467870D01*
X110504000Y-93467861D01*
X110453300Y-92953094D01*
X110252937Y-92292587D01*
X110014715Y-91846905D01*
X109927566Y-91683860D01*
X109599421Y-91284014D01*
X109599414Y-91284007D01*
X109489690Y-91150308D01*
X109355991Y-91040585D01*
X106003999Y-87688594D01*
X106003999Y-87089999D01*
X106190854Y-87167397D01*
G04 #@! TA.AperFunction,Conductor*
D21*
G36*
X106190854Y-87167397D02*
G01*
X106726785Y-87274000D01*
X107259529Y-87274000D01*
X116866002Y-96880472D01*
X116866002Y-96908802D01*
X116456136Y-96572433D01*
X115847410Y-96247062D01*
X115186903Y-96046699D01*
X114672136Y-95995999D01*
X110504000Y-95996000D01*
X110504000Y-93812124D01*
X110520953Y-93639997D01*
X110504000Y-93467870D01*
X110504000Y-93467861D01*
X110453300Y-92953094D01*
X110252937Y-92292587D01*
X110014715Y-91846905D01*
X109927566Y-91683860D01*
X109599421Y-91284014D01*
X109599414Y-91284007D01*
X109489690Y-91150308D01*
X109355991Y-91040585D01*
X106003999Y-87688594D01*
X106003999Y-87089999D01*
X106190854Y-87167397D01*
G37*
G04 #@! TD.AperFunction*
D17*
X149329011Y-96490482D02*
X149329011Y-96588744D01*
X149309136Y-96572433D01*
X148700410Y-96247062D01*
X148039903Y-96046699D01*
X147525136Y-95995999D01*
X143357000Y-95996000D01*
X143357000Y-91332128D01*
X143373953Y-91160001D01*
X143357000Y-90987874D01*
X143357000Y-90987865D01*
X143306300Y-90473098D01*
X143303980Y-90465450D01*
X149329011Y-96490482D01*
G04 #@! TA.AperFunction,Conductor*
D21*
G36*
X149329011Y-96490482D02*
G01*
X149329011Y-96588744D01*
X149309136Y-96572433D01*
X148700410Y-96247062D01*
X148039903Y-96046699D01*
X147525136Y-95995999D01*
X143357000Y-95996000D01*
X143357000Y-91332128D01*
X143373953Y-91160001D01*
X143357000Y-90987874D01*
X143357000Y-90987865D01*
X143306300Y-90473098D01*
X143303980Y-90465450D01*
X149329011Y-96490482D01*
G37*
G04 #@! TD.AperFunction*
D17*
X179485000Y-67626653D02*
X179485000Y-68025347D01*
X179562781Y-68416379D01*
X179715355Y-68784723D01*
X179936857Y-69116225D01*
X180218775Y-69398143D01*
X180293473Y-69448055D01*
X171804517Y-77937012D01*
X171736683Y-77992682D01*
X171681013Y-78060516D01*
X171681007Y-78060522D01*
X171514495Y-78263418D01*
X171349395Y-78572298D01*
X171304167Y-78721397D01*
X171247728Y-78907451D01*
X171232900Y-79058000D01*
X171213399Y-79256000D01*
X171222001Y-79343337D01*
X171222000Y-82354972D01*
X170845294Y-82731678D01*
X170541713Y-83186018D01*
X170332603Y-83690854D01*
X170226000Y-84226785D01*
X170226000Y-84773215D01*
X170332603Y-85309146D01*
X170541713Y-85813982D01*
X170675280Y-86013878D01*
X168315000Y-83653599D01*
X168315000Y-68862863D01*
X168264300Y-68348096D01*
X168063937Y-67687589D01*
X167832179Y-67254000D01*
X179559125Y-67254000D01*
X179485000Y-67626653D01*
G04 #@! TA.AperFunction,Conductor*
D21*
G36*
X179485000Y-67626653D02*
G01*
X179485000Y-68025347D01*
X179562781Y-68416379D01*
X179715355Y-68784723D01*
X179936857Y-69116225D01*
X180218775Y-69398143D01*
X180293473Y-69448055D01*
X171804517Y-77937012D01*
X171736683Y-77992682D01*
X171681013Y-78060516D01*
X171681007Y-78060522D01*
X171514495Y-78263418D01*
X171349395Y-78572298D01*
X171304167Y-78721397D01*
X171247728Y-78907451D01*
X171232900Y-79058000D01*
X171213399Y-79256000D01*
X171222001Y-79343337D01*
X171222000Y-82354972D01*
X170845294Y-82731678D01*
X170541713Y-83186018D01*
X170332603Y-83690854D01*
X170226000Y-84226785D01*
X170226000Y-84773215D01*
X170332603Y-85309146D01*
X170541713Y-85813982D01*
X170675280Y-86013878D01*
X168315000Y-83653599D01*
X168315000Y-68862863D01*
X168264300Y-68348096D01*
X168063937Y-67687589D01*
X167832179Y-67254000D01*
X179559125Y-67254000D01*
X179485000Y-67626653D01*
G37*
G04 #@! TD.AperFunction*
D17*
X130016000Y-83864895D02*
X129911356Y-83794974D01*
X129737383Y-83722912D01*
X128042000Y-82027529D01*
X128042000Y-74531471D01*
X129620759Y-72952713D01*
X129648379Y-72947219D01*
X130016001Y-72794944D01*
X130016000Y-83864895D01*
G04 #@! TA.AperFunction,Conductor*
D21*
G36*
X130016000Y-83864895D02*
G01*
X129911356Y-83794974D01*
X129737383Y-83722912D01*
X128042000Y-82027529D01*
X128042000Y-74531471D01*
X129620759Y-72952713D01*
X129648379Y-72947219D01*
X130016001Y-72794944D01*
X130016000Y-83864895D01*
G37*
G04 #@! TD.AperFunction*
D17*
X200921000Y-67509503D02*
X200921000Y-67888497D01*
X200994939Y-68260210D01*
X201139974Y-68610356D01*
X201350532Y-68925478D01*
X201618522Y-69193468D01*
X201933644Y-69404026D01*
X201937555Y-69405646D01*
X202028976Y-69626356D01*
X202239534Y-69941478D01*
X202507524Y-70209468D01*
X202822646Y-70420026D01*
X202996619Y-70492088D01*
X203607001Y-71102471D01*
X203607000Y-82354972D01*
X203230294Y-82731678D01*
X202926713Y-83186018D01*
X202732732Y-83654330D01*
X198541000Y-79462599D01*
X198541000Y-68862863D01*
X198490300Y-68348096D01*
X198289937Y-67687589D01*
X198058179Y-67254000D01*
X200971823Y-67254000D01*
X200921000Y-67509503D01*
G04 #@! TA.AperFunction,Conductor*
D21*
G36*
X200921000Y-67509503D02*
G01*
X200921000Y-67888497D01*
X200994939Y-68260210D01*
X201139974Y-68610356D01*
X201350532Y-68925478D01*
X201618522Y-69193468D01*
X201933644Y-69404026D01*
X201937555Y-69405646D01*
X202028976Y-69626356D01*
X202239534Y-69941478D01*
X202507524Y-70209468D01*
X202822646Y-70420026D01*
X202996619Y-70492088D01*
X203607001Y-71102471D01*
X203607000Y-82354972D01*
X203230294Y-82731678D01*
X202926713Y-83186018D01*
X202732732Y-83654330D01*
X198541000Y-79462599D01*
X198541000Y-68862863D01*
X198490300Y-68348096D01*
X198289937Y-67687589D01*
X198058179Y-67254000D01*
X200971823Y-67254000D01*
X200921000Y-67509503D01*
G37*
G04 #@! TD.AperFunction*
D17*
X111751678Y-78208706D02*
X112206018Y-78512287D01*
X112710854Y-78721397D01*
X113246785Y-78828000D01*
X113793215Y-78828000D01*
X114329146Y-78721397D01*
X114833982Y-78512287D01*
X115238599Y-78241930D01*
X114908527Y-78572002D01*
X114908521Y-78572007D01*
X112008528Y-81472001D01*
X108337329Y-81472001D01*
X108249999Y-81463400D01*
X108162669Y-81472001D01*
X108162661Y-81472001D01*
X107901450Y-81497728D01*
X107566296Y-81599396D01*
X107314189Y-81734150D01*
X107273215Y-81726000D01*
X106838695Y-81726000D01*
X106844000Y-81672135D01*
X106844000Y-81672125D01*
X106860953Y-81499998D01*
X106844000Y-81327871D01*
X106844000Y-79227514D01*
X106992589Y-79306937D01*
X107653096Y-79507300D01*
X108340000Y-79574954D01*
X109026903Y-79507300D01*
X109687410Y-79306937D01*
X110296136Y-78981566D01*
X110829690Y-78543690D01*
X111267566Y-78010137D01*
X111367028Y-77824056D01*
X111751678Y-78208706D01*
G04 #@! TA.AperFunction,Conductor*
D21*
G36*
X111751678Y-78208706D02*
G01*
X112206018Y-78512287D01*
X112710854Y-78721397D01*
X113246785Y-78828000D01*
X113793215Y-78828000D01*
X114329146Y-78721397D01*
X114833982Y-78512287D01*
X115238599Y-78241930D01*
X114908527Y-78572002D01*
X114908521Y-78572007D01*
X112008528Y-81472001D01*
X108337329Y-81472001D01*
X108249999Y-81463400D01*
X108162669Y-81472001D01*
X108162661Y-81472001D01*
X107901450Y-81497728D01*
X107566296Y-81599396D01*
X107314189Y-81734150D01*
X107273215Y-81726000D01*
X106838695Y-81726000D01*
X106844000Y-81672135D01*
X106844000Y-81672125D01*
X106860953Y-81499998D01*
X106844000Y-81327871D01*
X106844000Y-79227514D01*
X106992589Y-79306937D01*
X107653096Y-79507300D01*
X108340000Y-79574954D01*
X109026903Y-79507300D01*
X109687410Y-79306937D01*
X110296136Y-78981566D01*
X110829690Y-78543690D01*
X111267566Y-78010137D01*
X111367028Y-77824056D01*
X111751678Y-78208706D01*
G37*
G04 #@! TD.AperFunction*
D17*
X76156277Y-63015645D02*
X76427183Y-63127859D01*
X75792433Y-63762609D01*
X75440877Y-64190980D01*
X75092292Y-64843137D01*
X74877634Y-65550769D01*
X74845896Y-65873014D01*
X74767410Y-65831063D01*
X74500905Y-65750219D01*
X74296234Y-65665442D01*
X73715868Y-65550000D01*
X73124132Y-65550000D01*
X72543766Y-65665442D01*
X72339098Y-65750218D01*
X72072589Y-65831063D01*
X71463863Y-66156434D01*
X70930310Y-66594310D01*
X70492434Y-67127864D01*
X70167063Y-67736590D01*
X69966700Y-68397097D01*
X69916000Y-68911864D01*
X69916001Y-75881853D01*
X69916000Y-75881863D01*
X69916000Y-76370363D01*
X67144009Y-79142353D01*
X67010310Y-79252077D01*
X66900586Y-79385776D01*
X66900578Y-79385784D01*
X66778000Y-79535146D01*
X66778000Y-70183813D01*
X73961813Y-63000000D01*
X76132863Y-63000000D01*
X76156277Y-63015645D01*
G04 #@! TA.AperFunction,Conductor*
D21*
G36*
X76156277Y-63015645D02*
G01*
X76427183Y-63127859D01*
X75792433Y-63762609D01*
X75440877Y-64190980D01*
X75092292Y-64843137D01*
X74877634Y-65550769D01*
X74845896Y-65873014D01*
X74767410Y-65831063D01*
X74500905Y-65750219D01*
X74296234Y-65665442D01*
X73715868Y-65550000D01*
X73124132Y-65550000D01*
X72543766Y-65665442D01*
X72339098Y-65750218D01*
X72072589Y-65831063D01*
X71463863Y-66156434D01*
X70930310Y-66594310D01*
X70492434Y-67127864D01*
X70167063Y-67736590D01*
X69966700Y-68397097D01*
X69916000Y-68911864D01*
X69916001Y-75881853D01*
X69916000Y-75881863D01*
X69916000Y-76370363D01*
X67144009Y-79142353D01*
X67010310Y-79252077D01*
X66900586Y-79385776D01*
X66900578Y-79385784D01*
X66778000Y-79535146D01*
X66778000Y-70183813D01*
X73961813Y-63000000D01*
X76132863Y-63000000D01*
X76156277Y-63015645D01*
G37*
G04 #@! TD.AperFunction*
D17*
X124444781Y-67489621D02*
X124439287Y-67517241D01*
X117680529Y-74276000D01*
X115665028Y-74276000D01*
X115288322Y-73899294D01*
X114833982Y-73595713D01*
X114329146Y-73386603D01*
X113793215Y-73280000D01*
X113246785Y-73280000D01*
X112710854Y-73386603D01*
X112206018Y-73595713D01*
X111844000Y-73837606D01*
X111844000Y-67254000D01*
X124542379Y-67254000D01*
X124444781Y-67489621D01*
G04 #@! TA.AperFunction,Conductor*
D21*
G36*
X124444781Y-67489621D02*
G01*
X124439287Y-67517241D01*
X117680529Y-74276000D01*
X115665028Y-74276000D01*
X115288322Y-73899294D01*
X114833982Y-73595713D01*
X114329146Y-73386603D01*
X113793215Y-73280000D01*
X113246785Y-73280000D01*
X112710854Y-73386603D01*
X112206018Y-73595713D01*
X111844000Y-73837606D01*
X111844000Y-67254000D01*
X124542379Y-67254000D01*
X124444781Y-67489621D01*
G37*
G04 #@! TD.AperFunction*
D17*
X89006287Y-67263241D02*
X82970346Y-73299183D01*
X82530854Y-73386603D01*
X82026018Y-73595713D01*
X81924000Y-73663879D01*
X81924000Y-68248954D01*
X82918955Y-67254000D01*
X89008125Y-67254000D01*
X89006287Y-67263241D01*
G04 #@! TA.AperFunction,Conductor*
D21*
G36*
X89006287Y-67263241D02*
G01*
X82970346Y-73299183D01*
X82530854Y-73386603D01*
X82026018Y-73595713D01*
X81924000Y-73663879D01*
X81924000Y-68248954D01*
X82918955Y-67254000D01*
X89008125Y-67254000D01*
X89006287Y-67263241D01*
G37*
G04 #@! TD.AperFunction*
D17*
X130233389Y-67662572D02*
X130041342Y-68325544D01*
X129997114Y-68840908D01*
X130001641Y-69201108D01*
X129648379Y-69054781D01*
X129257347Y-68977000D01*
X128858653Y-68977000D01*
X128467621Y-69054781D01*
X128354709Y-69101551D01*
X128337219Y-69013621D01*
X128266131Y-68842000D01*
X128337219Y-68670379D01*
X128415000Y-68279347D01*
X128415000Y-67880653D01*
X128337219Y-67489621D01*
X128239621Y-67254000D01*
X130445218Y-67254000D01*
X130233389Y-67662572D01*
G04 #@! TA.AperFunction,Conductor*
D21*
G36*
X130233389Y-67662572D02*
G01*
X130041342Y-68325544D01*
X129997114Y-68840908D01*
X130001641Y-69201108D01*
X129648379Y-69054781D01*
X129257347Y-68977000D01*
X128858653Y-68977000D01*
X128467621Y-69054781D01*
X128354709Y-69101551D01*
X128337219Y-69013621D01*
X128266131Y-68842000D01*
X128337219Y-68670379D01*
X128415000Y-68279347D01*
X128415000Y-67880653D01*
X128337219Y-67489621D01*
X128239621Y-67254000D01*
X130445218Y-67254000D01*
X130233389Y-67662572D01*
G37*
G04 #@! TD.AperFunction*
M02*
