G04 #@! TF.GenerationSoftware,KiCad,Pcbnew,(5.1.10)-1*
G04 #@! TF.CreationDate,2023-09-11T23:26:28+08:00*
G04 #@! TF.ProjectId,AntennaSwitch_6x2_RelayBoard,416e7465-6e6e-4615-9377-697463685f36,rev?*
G04 #@! TF.SameCoordinates,Original*
G04 #@! TF.FileFunction,Legend,Top*
G04 #@! TF.FilePolarity,Positive*
%FSLAX46Y46*%
G04 Gerber Fmt 4.6, Leading zero omitted, Abs format (unit mm)*
G04 Created by KiCad (PCBNEW (5.1.10)-1) date 2023-09-11 23:26:28*
%MOMM*%
%LPD*%
G01*
G04 APERTURE LIST*
%ADD10C,0.200000*%
%ADD11C,0.150000*%
%ADD12C,1.000000*%
%ADD13C,0.300000*%
G04 APERTURE END LIST*
D10*
X165142857Y-128500000D02*
X165857142Y-128500000D01*
X165000000Y-128928571D02*
X165500000Y-127428571D01*
X166000000Y-128928571D01*
X165607142Y-63642857D02*
X165821428Y-63714285D01*
X165892857Y-63785714D01*
X165964285Y-63928571D01*
X165964285Y-64142857D01*
X165892857Y-64285714D01*
X165821428Y-64357142D01*
X165678571Y-64428571D01*
X165107142Y-64428571D01*
X165107142Y-62928571D01*
X165607142Y-62928571D01*
X165750000Y-63000000D01*
X165821428Y-63071428D01*
X165892857Y-63214285D01*
X165892857Y-63357142D01*
X165821428Y-63500000D01*
X165750000Y-63571428D01*
X165607142Y-63642857D01*
X165107142Y-63642857D01*
X53880000Y-54253571D02*
X53594285Y-54253571D01*
X53451428Y-54325000D01*
X53380000Y-54396428D01*
X53237142Y-54610714D01*
X53165714Y-54896428D01*
X53165714Y-55467857D01*
X53237142Y-55610714D01*
X53308571Y-55682142D01*
X53451428Y-55753571D01*
X53737142Y-55753571D01*
X53880000Y-55682142D01*
X53951428Y-55610714D01*
X54022857Y-55467857D01*
X54022857Y-55110714D01*
X53951428Y-54967857D01*
X53880000Y-54896428D01*
X53737142Y-54825000D01*
X53451428Y-54825000D01*
X53308571Y-54896428D01*
X53237142Y-54967857D01*
X53165714Y-55110714D01*
X54522857Y-55753571D02*
X55308571Y-54753571D01*
X54522857Y-54753571D02*
X55308571Y-55753571D01*
X55808571Y-54396428D02*
X55880000Y-54325000D01*
X56022857Y-54253571D01*
X56380000Y-54253571D01*
X56522857Y-54325000D01*
X56594285Y-54396428D01*
X56665714Y-54539285D01*
X56665714Y-54682142D01*
X56594285Y-54896428D01*
X55737142Y-55753571D01*
X56665714Y-55753571D01*
X58380000Y-55325000D02*
X59094285Y-55325000D01*
X58237142Y-55753571D02*
X58737142Y-54253571D01*
X59237142Y-55753571D01*
X59737142Y-54753571D02*
X59737142Y-55753571D01*
X59737142Y-54896428D02*
X59808571Y-54825000D01*
X59951428Y-54753571D01*
X60165714Y-54753571D01*
X60308571Y-54825000D01*
X60380000Y-54967857D01*
X60380000Y-55753571D01*
X60880000Y-54753571D02*
X61451428Y-54753571D01*
X61094285Y-54253571D02*
X61094285Y-55539285D01*
X61165714Y-55682142D01*
X61308571Y-55753571D01*
X61451428Y-55753571D01*
X62522857Y-55682142D02*
X62380000Y-55753571D01*
X62094285Y-55753571D01*
X61951428Y-55682142D01*
X61880000Y-55539285D01*
X61880000Y-54967857D01*
X61951428Y-54825000D01*
X62094285Y-54753571D01*
X62380000Y-54753571D01*
X62522857Y-54825000D01*
X62594285Y-54967857D01*
X62594285Y-55110714D01*
X61880000Y-55253571D01*
X63237142Y-54753571D02*
X63237142Y-55753571D01*
X63237142Y-54896428D02*
X63308571Y-54825000D01*
X63451428Y-54753571D01*
X63665714Y-54753571D01*
X63808571Y-54825000D01*
X63880000Y-54967857D01*
X63880000Y-55753571D01*
X64594285Y-54753571D02*
X64594285Y-55753571D01*
X64594285Y-54896428D02*
X64665714Y-54825000D01*
X64808571Y-54753571D01*
X65022857Y-54753571D01*
X65165714Y-54825000D01*
X65237142Y-54967857D01*
X65237142Y-55753571D01*
X66594285Y-55753571D02*
X66594285Y-54967857D01*
X66522857Y-54825000D01*
X66380000Y-54753571D01*
X66094285Y-54753571D01*
X65951428Y-54825000D01*
X66594285Y-55682142D02*
X66451428Y-55753571D01*
X66094285Y-55753571D01*
X65951428Y-55682142D01*
X65880000Y-55539285D01*
X65880000Y-55396428D01*
X65951428Y-55253571D01*
X66094285Y-55182142D01*
X66451428Y-55182142D01*
X66594285Y-55110714D01*
X68380000Y-55682142D02*
X68594285Y-55753571D01*
X68951428Y-55753571D01*
X69094285Y-55682142D01*
X69165714Y-55610714D01*
X69237142Y-55467857D01*
X69237142Y-55325000D01*
X69165714Y-55182142D01*
X69094285Y-55110714D01*
X68951428Y-55039285D01*
X68665714Y-54967857D01*
X68522857Y-54896428D01*
X68451428Y-54825000D01*
X68380000Y-54682142D01*
X68380000Y-54539285D01*
X68451428Y-54396428D01*
X68522857Y-54325000D01*
X68665714Y-54253571D01*
X69022857Y-54253571D01*
X69237142Y-54325000D01*
X69737142Y-54753571D02*
X70022857Y-55753571D01*
X70308571Y-55039285D01*
X70594285Y-55753571D01*
X70880000Y-54753571D01*
X71451428Y-55753571D02*
X71451428Y-54753571D01*
X71451428Y-54253571D02*
X71380000Y-54325000D01*
X71451428Y-54396428D01*
X71522857Y-54325000D01*
X71451428Y-54253571D01*
X71451428Y-54396428D01*
X71951428Y-54753571D02*
X72522857Y-54753571D01*
X72165714Y-54253571D02*
X72165714Y-55539285D01*
X72237142Y-55682142D01*
X72380000Y-55753571D01*
X72522857Y-55753571D01*
X73665714Y-55682142D02*
X73522857Y-55753571D01*
X73237142Y-55753571D01*
X73094285Y-55682142D01*
X73022857Y-55610714D01*
X72951428Y-55467857D01*
X72951428Y-55039285D01*
X73022857Y-54896428D01*
X73094285Y-54825000D01*
X73237142Y-54753571D01*
X73522857Y-54753571D01*
X73665714Y-54825000D01*
X74308571Y-55753571D02*
X74308571Y-54253571D01*
X74951428Y-55753571D02*
X74951428Y-54967857D01*
X74880000Y-54825000D01*
X74737142Y-54753571D01*
X74522857Y-54753571D01*
X74380000Y-54825000D01*
X74308571Y-54896428D01*
X54094285Y-58203571D02*
X53594285Y-57489285D01*
X53237142Y-58203571D02*
X53237142Y-56703571D01*
X53808571Y-56703571D01*
X53951428Y-56775000D01*
X54022857Y-56846428D01*
X54094285Y-56989285D01*
X54094285Y-57203571D01*
X54022857Y-57346428D01*
X53951428Y-57417857D01*
X53808571Y-57489285D01*
X53237142Y-57489285D01*
X55308571Y-58132142D02*
X55165714Y-58203571D01*
X54880000Y-58203571D01*
X54737142Y-58132142D01*
X54665714Y-57989285D01*
X54665714Y-57417857D01*
X54737142Y-57275000D01*
X54880000Y-57203571D01*
X55165714Y-57203571D01*
X55308571Y-57275000D01*
X55380000Y-57417857D01*
X55380000Y-57560714D01*
X54665714Y-57703571D01*
X56237142Y-58203571D02*
X56094285Y-58132142D01*
X56022857Y-57989285D01*
X56022857Y-56703571D01*
X57451428Y-58203571D02*
X57451428Y-57417857D01*
X57380000Y-57275000D01*
X57237142Y-57203571D01*
X56951428Y-57203571D01*
X56808571Y-57275000D01*
X57451428Y-58132142D02*
X57308571Y-58203571D01*
X56951428Y-58203571D01*
X56808571Y-58132142D01*
X56737142Y-57989285D01*
X56737142Y-57846428D01*
X56808571Y-57703571D01*
X56951428Y-57632142D01*
X57308571Y-57632142D01*
X57451428Y-57560714D01*
X58022857Y-57203571D02*
X58380000Y-58203571D01*
X58737142Y-57203571D02*
X58380000Y-58203571D01*
X58237142Y-58560714D01*
X58165714Y-58632142D01*
X58022857Y-58703571D01*
X60951428Y-57417857D02*
X61165714Y-57489285D01*
X61237142Y-57560714D01*
X61308571Y-57703571D01*
X61308571Y-57917857D01*
X61237142Y-58060714D01*
X61165714Y-58132142D01*
X61022857Y-58203571D01*
X60451428Y-58203571D01*
X60451428Y-56703571D01*
X60951428Y-56703571D01*
X61094285Y-56775000D01*
X61165714Y-56846428D01*
X61237142Y-56989285D01*
X61237142Y-57132142D01*
X61165714Y-57275000D01*
X61094285Y-57346428D01*
X60951428Y-57417857D01*
X60451428Y-57417857D01*
X62165714Y-58203571D02*
X62022857Y-58132142D01*
X61951428Y-58060714D01*
X61880000Y-57917857D01*
X61880000Y-57489285D01*
X61951428Y-57346428D01*
X62022857Y-57275000D01*
X62165714Y-57203571D01*
X62380000Y-57203571D01*
X62522857Y-57275000D01*
X62594285Y-57346428D01*
X62665714Y-57489285D01*
X62665714Y-57917857D01*
X62594285Y-58060714D01*
X62522857Y-58132142D01*
X62380000Y-58203571D01*
X62165714Y-58203571D01*
X63951428Y-58203571D02*
X63951428Y-57417857D01*
X63880000Y-57275000D01*
X63737142Y-57203571D01*
X63451428Y-57203571D01*
X63308571Y-57275000D01*
X63951428Y-58132142D02*
X63808571Y-58203571D01*
X63451428Y-58203571D01*
X63308571Y-58132142D01*
X63237142Y-57989285D01*
X63237142Y-57846428D01*
X63308571Y-57703571D01*
X63451428Y-57632142D01*
X63808571Y-57632142D01*
X63951428Y-57560714D01*
X64665714Y-58203571D02*
X64665714Y-57203571D01*
X64665714Y-57489285D02*
X64737142Y-57346428D01*
X64808571Y-57275000D01*
X64951428Y-57203571D01*
X65094285Y-57203571D01*
X66237142Y-58203571D02*
X66237142Y-56703571D01*
X66237142Y-58132142D02*
X66094285Y-58203571D01*
X65808571Y-58203571D01*
X65665714Y-58132142D01*
X65594285Y-58060714D01*
X65522857Y-57917857D01*
X65522857Y-57489285D01*
X65594285Y-57346428D01*
X65665714Y-57275000D01*
X65808571Y-57203571D01*
X66094285Y-57203571D01*
X66237142Y-57275000D01*
X67880000Y-56703571D02*
X68380000Y-58203571D01*
X68880000Y-56703571D01*
X69237142Y-56703571D02*
X70165714Y-56703571D01*
X69665714Y-57275000D01*
X69880000Y-57275000D01*
X70022857Y-57346428D01*
X70094285Y-57417857D01*
X70165714Y-57560714D01*
X70165714Y-57917857D01*
X70094285Y-58060714D01*
X70022857Y-58132142D01*
X69880000Y-58203571D01*
X69451428Y-58203571D01*
X69308571Y-58132142D01*
X69237142Y-58060714D01*
X70808571Y-58060714D02*
X70880000Y-58132142D01*
X70808571Y-58203571D01*
X70737142Y-58132142D01*
X70808571Y-58060714D01*
X70808571Y-58203571D01*
X71808571Y-56703571D02*
X71951428Y-56703571D01*
X72094285Y-56775000D01*
X72165714Y-56846428D01*
X72237142Y-56989285D01*
X72308571Y-57275000D01*
X72308571Y-57632142D01*
X72237142Y-57917857D01*
X72165714Y-58060714D01*
X72094285Y-58132142D01*
X71951428Y-58203571D01*
X71808571Y-58203571D01*
X71665714Y-58132142D01*
X71594285Y-58060714D01*
X71522857Y-57917857D01*
X71451428Y-57632142D01*
X71451428Y-57275000D01*
X71522857Y-56989285D01*
X71594285Y-56846428D01*
X71665714Y-56775000D01*
X71808571Y-56703571D01*
X53951428Y-60653571D02*
X53237142Y-60653571D01*
X53237142Y-59153571D01*
X54451428Y-59153571D02*
X54451428Y-60367857D01*
X54522857Y-60510714D01*
X54594285Y-60582142D01*
X54737142Y-60653571D01*
X55022857Y-60653571D01*
X55165714Y-60582142D01*
X55237142Y-60510714D01*
X55308571Y-60367857D01*
X55308571Y-59153571D01*
X56094285Y-60582142D02*
X56094285Y-60653571D01*
X56022857Y-60796428D01*
X55951428Y-60867857D01*
X57737142Y-59153571D02*
X58737142Y-59153571D01*
X57737142Y-60653571D01*
X58737142Y-60653571D01*
X59880000Y-60582142D02*
X59737142Y-60653571D01*
X59451428Y-60653571D01*
X59308571Y-60582142D01*
X59237142Y-60439285D01*
X59237142Y-59867857D01*
X59308571Y-59725000D01*
X59451428Y-59653571D01*
X59737142Y-59653571D01*
X59880000Y-59725000D01*
X59951428Y-59867857D01*
X59951428Y-60010714D01*
X59237142Y-60153571D01*
X60594285Y-59653571D02*
X60594285Y-60653571D01*
X60594285Y-59796428D02*
X60665714Y-59725000D01*
X60808571Y-59653571D01*
X61022857Y-59653571D01*
X61165714Y-59725000D01*
X61237142Y-59867857D01*
X61237142Y-60653571D01*
X61951428Y-60653571D02*
X61951428Y-59653571D01*
X61951428Y-59153571D02*
X61880000Y-59225000D01*
X61951428Y-59296428D01*
X62022857Y-59225000D01*
X61951428Y-59153571D01*
X61951428Y-59296428D01*
X62665714Y-59653571D02*
X62665714Y-60653571D01*
X62665714Y-59796428D02*
X62737142Y-59725000D01*
X62880000Y-59653571D01*
X63094285Y-59653571D01*
X63237142Y-59725000D01*
X63308571Y-59867857D01*
X63308571Y-60653571D01*
X64665714Y-59653571D02*
X64665714Y-60867857D01*
X64594285Y-61010714D01*
X64522857Y-61082142D01*
X64380000Y-61153571D01*
X64165714Y-61153571D01*
X64022857Y-61082142D01*
X64665714Y-60582142D02*
X64522857Y-60653571D01*
X64237142Y-60653571D01*
X64094285Y-60582142D01*
X64022857Y-60510714D01*
X63951428Y-60367857D01*
X63951428Y-59939285D01*
X64022857Y-59796428D01*
X64094285Y-59725000D01*
X64237142Y-59653571D01*
X64522857Y-59653571D01*
X64665714Y-59725000D01*
X67022857Y-59867857D02*
X67237142Y-59939285D01*
X67308571Y-60010714D01*
X67380000Y-60153571D01*
X67380000Y-60367857D01*
X67308571Y-60510714D01*
X67237142Y-60582142D01*
X67094285Y-60653571D01*
X66522857Y-60653571D01*
X66522857Y-59153571D01*
X67022857Y-59153571D01*
X67165714Y-59225000D01*
X67237142Y-59296428D01*
X67308571Y-59439285D01*
X67308571Y-59582142D01*
X67237142Y-59725000D01*
X67165714Y-59796428D01*
X67022857Y-59867857D01*
X66522857Y-59867857D01*
X68022857Y-60653571D02*
X68022857Y-59153571D01*
X69380000Y-59653571D02*
X69380000Y-60653571D01*
X69022857Y-59082142D02*
X68665714Y-60153571D01*
X69594285Y-60153571D01*
X70022857Y-59153571D02*
X70380000Y-60653571D01*
X70665714Y-59582142D01*
X70951428Y-60653571D01*
X71308571Y-59153571D01*
X72165714Y-59153571D02*
X72451428Y-59153571D01*
X72594285Y-59225000D01*
X72737142Y-59367857D01*
X72808571Y-59653571D01*
X72808571Y-60153571D01*
X72737142Y-60439285D01*
X72594285Y-60582142D01*
X72451428Y-60653571D01*
X72165714Y-60653571D01*
X72022857Y-60582142D01*
X71880000Y-60439285D01*
X71808571Y-60153571D01*
X71808571Y-59653571D01*
X71880000Y-59367857D01*
X72022857Y-59225000D01*
X72165714Y-59153571D01*
X73451428Y-60653571D02*
X73451428Y-59153571D01*
X74022857Y-59153571D01*
X74165714Y-59225000D01*
X74237142Y-59296428D01*
X74308571Y-59439285D01*
X74308571Y-59653571D01*
X74237142Y-59796428D01*
X74165714Y-59867857D01*
X74022857Y-59939285D01*
X73451428Y-59939285D01*
X53165714Y-63032142D02*
X53380000Y-63103571D01*
X53737142Y-63103571D01*
X53880000Y-63032142D01*
X53951428Y-62960714D01*
X54022857Y-62817857D01*
X54022857Y-62675000D01*
X53951428Y-62532142D01*
X53880000Y-62460714D01*
X53737142Y-62389285D01*
X53451428Y-62317857D01*
X53308571Y-62246428D01*
X53237142Y-62175000D01*
X53165714Y-62032142D01*
X53165714Y-61889285D01*
X53237142Y-61746428D01*
X53308571Y-61675000D01*
X53451428Y-61603571D01*
X53808571Y-61603571D01*
X54022857Y-61675000D01*
X55237142Y-63032142D02*
X55094285Y-63103571D01*
X54808571Y-63103571D01*
X54665714Y-63032142D01*
X54594285Y-62889285D01*
X54594285Y-62317857D01*
X54665714Y-62175000D01*
X54808571Y-62103571D01*
X55094285Y-62103571D01*
X55237142Y-62175000D01*
X55308571Y-62317857D01*
X55308571Y-62460714D01*
X54594285Y-62603571D01*
X55951428Y-62103571D02*
X55951428Y-63603571D01*
X55951428Y-62175000D02*
X56094285Y-62103571D01*
X56380000Y-62103571D01*
X56522857Y-62175000D01*
X56594285Y-62246428D01*
X56665714Y-62389285D01*
X56665714Y-62817857D01*
X56594285Y-62960714D01*
X56522857Y-63032142D01*
X56380000Y-63103571D01*
X56094285Y-63103571D01*
X55951428Y-63032142D01*
X57094285Y-62103571D02*
X57665714Y-62103571D01*
X57308571Y-61603571D02*
X57308571Y-62889285D01*
X57380000Y-63032142D01*
X57522857Y-63103571D01*
X57665714Y-63103571D01*
X58165714Y-62960714D02*
X58237142Y-63032142D01*
X58165714Y-63103571D01*
X58094285Y-63032142D01*
X58165714Y-62960714D01*
X58165714Y-63103571D01*
X59951428Y-61746428D02*
X60022857Y-61675000D01*
X60165714Y-61603571D01*
X60522857Y-61603571D01*
X60665714Y-61675000D01*
X60737142Y-61746428D01*
X60808571Y-61889285D01*
X60808571Y-62032142D01*
X60737142Y-62246428D01*
X59880000Y-63103571D01*
X60808571Y-63103571D01*
X61522857Y-63032142D02*
X61522857Y-63103571D01*
X61451428Y-63246428D01*
X61380000Y-63317857D01*
X63237142Y-61746428D02*
X63308571Y-61675000D01*
X63451428Y-61603571D01*
X63808571Y-61603571D01*
X63951428Y-61675000D01*
X64022857Y-61746428D01*
X64094285Y-61889285D01*
X64094285Y-62032142D01*
X64022857Y-62246428D01*
X63165714Y-63103571D01*
X64094285Y-63103571D01*
X65022857Y-61603571D02*
X65165714Y-61603571D01*
X65308571Y-61675000D01*
X65380000Y-61746428D01*
X65451428Y-61889285D01*
X65522857Y-62175000D01*
X65522857Y-62532142D01*
X65451428Y-62817857D01*
X65380000Y-62960714D01*
X65308571Y-63032142D01*
X65165714Y-63103571D01*
X65022857Y-63103571D01*
X64880000Y-63032142D01*
X64808571Y-62960714D01*
X64737142Y-62817857D01*
X64665714Y-62532142D01*
X64665714Y-62175000D01*
X64737142Y-61889285D01*
X64808571Y-61746428D01*
X64880000Y-61675000D01*
X65022857Y-61603571D01*
X66094285Y-61746428D02*
X66165714Y-61675000D01*
X66308571Y-61603571D01*
X66665714Y-61603571D01*
X66808571Y-61675000D01*
X66880000Y-61746428D01*
X66951428Y-61889285D01*
X66951428Y-62032142D01*
X66880000Y-62246428D01*
X66022857Y-63103571D01*
X66951428Y-63103571D01*
X67451428Y-61603571D02*
X68380000Y-61603571D01*
X67880000Y-62175000D01*
X68094285Y-62175000D01*
X68237142Y-62246428D01*
X68308571Y-62317857D01*
X68380000Y-62460714D01*
X68380000Y-62817857D01*
X68308571Y-62960714D01*
X68237142Y-63032142D01*
X68094285Y-63103571D01*
X67665714Y-63103571D01*
X67522857Y-63032142D01*
X67451428Y-62960714D01*
D11*
X63380952Y-109648666D02*
X63857142Y-109648666D01*
X63285714Y-109934380D02*
X63619047Y-108934380D01*
X63952380Y-109934380D01*
X64285714Y-109934380D02*
X64285714Y-108934380D01*
X64857142Y-109934380D01*
X64857142Y-108934380D01*
X65190476Y-108934380D02*
X65761904Y-108934380D01*
X65476190Y-109934380D02*
X65476190Y-108934380D01*
X66523809Y-108934380D02*
X66333333Y-108934380D01*
X66238095Y-108982000D01*
X66190476Y-109029619D01*
X66095238Y-109172476D01*
X66047619Y-109362952D01*
X66047619Y-109743904D01*
X66095238Y-109839142D01*
X66142857Y-109886761D01*
X66238095Y-109934380D01*
X66428571Y-109934380D01*
X66523809Y-109886761D01*
X66571428Y-109839142D01*
X66619047Y-109743904D01*
X66619047Y-109505809D01*
X66571428Y-109410571D01*
X66523809Y-109362952D01*
X66428571Y-109315333D01*
X66238095Y-109315333D01*
X66142857Y-109362952D01*
X66095238Y-109410571D01*
X66047619Y-109505809D01*
X96450952Y-109775666D02*
X96927142Y-109775666D01*
X96355714Y-110061380D02*
X96689047Y-109061380D01*
X97022380Y-110061380D01*
X97355714Y-110061380D02*
X97355714Y-109061380D01*
X97927142Y-110061380D01*
X97927142Y-109061380D01*
X98260476Y-109061380D02*
X98831904Y-109061380D01*
X98546190Y-110061380D02*
X98546190Y-109061380D01*
X99641428Y-109061380D02*
X99165238Y-109061380D01*
X99117619Y-109537571D01*
X99165238Y-109489952D01*
X99260476Y-109442333D01*
X99498571Y-109442333D01*
X99593809Y-109489952D01*
X99641428Y-109537571D01*
X99689047Y-109632809D01*
X99689047Y-109870904D01*
X99641428Y-109966142D01*
X99593809Y-110013761D01*
X99498571Y-110061380D01*
X99260476Y-110061380D01*
X99165238Y-110013761D01*
X99117619Y-109966142D01*
X129470952Y-109648666D02*
X129947142Y-109648666D01*
X129375714Y-109934380D02*
X129709047Y-108934380D01*
X130042380Y-109934380D01*
X130375714Y-109934380D02*
X130375714Y-108934380D01*
X130947142Y-109934380D01*
X130947142Y-108934380D01*
X131280476Y-108934380D02*
X131851904Y-108934380D01*
X131566190Y-109934380D02*
X131566190Y-108934380D01*
X132613809Y-109267714D02*
X132613809Y-109934380D01*
X132375714Y-108886761D02*
X132137619Y-109601047D01*
X132756666Y-109601047D01*
X163506952Y-109648666D02*
X163983142Y-109648666D01*
X163411714Y-109934380D02*
X163745047Y-108934380D01*
X164078380Y-109934380D01*
X164411714Y-109934380D02*
X164411714Y-108934380D01*
X164983142Y-109934380D01*
X164983142Y-108934380D01*
X165316476Y-108934380D02*
X165887904Y-108934380D01*
X165602190Y-109934380D02*
X165602190Y-108934380D01*
X166126000Y-108934380D02*
X166745047Y-108934380D01*
X166411714Y-109315333D01*
X166554571Y-109315333D01*
X166649809Y-109362952D01*
X166697428Y-109410571D01*
X166745047Y-109505809D01*
X166745047Y-109743904D01*
X166697428Y-109839142D01*
X166649809Y-109886761D01*
X166554571Y-109934380D01*
X166268857Y-109934380D01*
X166173619Y-109886761D01*
X166126000Y-109839142D01*
X196145952Y-109648666D02*
X196622142Y-109648666D01*
X196050714Y-109934380D02*
X196384047Y-108934380D01*
X196717380Y-109934380D01*
X197050714Y-109934380D02*
X197050714Y-108934380D01*
X197622142Y-109934380D01*
X197622142Y-108934380D01*
X197955476Y-108934380D02*
X198526904Y-108934380D01*
X198241190Y-109934380D02*
X198241190Y-108934380D01*
X198812619Y-109029619D02*
X198860238Y-108982000D01*
X198955476Y-108934380D01*
X199193571Y-108934380D01*
X199288809Y-108982000D01*
X199336428Y-109029619D01*
X199384047Y-109124857D01*
X199384047Y-109220095D01*
X199336428Y-109362952D01*
X198765000Y-109934380D01*
X199384047Y-109934380D01*
X228149952Y-109521666D02*
X228626142Y-109521666D01*
X228054714Y-109807380D02*
X228388047Y-108807380D01*
X228721380Y-109807380D01*
X229054714Y-109807380D02*
X229054714Y-108807380D01*
X229626142Y-109807380D01*
X229626142Y-108807380D01*
X229959476Y-108807380D02*
X230530904Y-108807380D01*
X230245190Y-109807380D02*
X230245190Y-108807380D01*
X231388047Y-109807380D02*
X230816619Y-109807380D01*
X231102333Y-109807380D02*
X231102333Y-108807380D01*
X231007095Y-108950238D01*
X230911857Y-109045476D01*
X230816619Y-109093095D01*
D10*
X135717571Y-54562428D02*
X135574714Y-54514809D01*
X135527095Y-54467190D01*
X135479476Y-54371952D01*
X135479476Y-54229095D01*
X135527095Y-54133857D01*
X135574714Y-54086238D01*
X135669952Y-54038619D01*
X136050904Y-54038619D01*
X136050904Y-55038619D01*
X135717571Y-55038619D01*
X135622333Y-54991000D01*
X135574714Y-54943380D01*
X135527095Y-54848142D01*
X135527095Y-54752904D01*
X135574714Y-54657666D01*
X135622333Y-54610047D01*
X135717571Y-54562428D01*
X136050904Y-54562428D01*
D12*
X137500000Y-51000000D02*
X162500000Y-51000000D01*
X162500000Y-51000000D02*
X162500000Y-76000000D01*
X137500000Y-76000000D02*
X162500000Y-76000000D01*
X137500000Y-51000000D02*
X137500000Y-76000000D01*
D13*
X160870000Y-72620000D02*
G75*
G03*
X160870000Y-72620000I-1750000J0D01*
G01*
X142630000Y-72620000D02*
G75*
G03*
X142630000Y-72620000I-1750000J0D01*
G01*
X142630000Y-54380000D02*
G75*
G03*
X142630000Y-54380000I-1750000J0D01*
G01*
X157400000Y-63500000D02*
G75*
G03*
X157400000Y-63500000I-7400000J0D01*
G01*
D12*
X52500000Y-107500000D02*
X52500000Y-82500000D01*
X52500000Y-82500000D02*
X77500000Y-82500000D01*
X77500000Y-107500000D02*
X77500000Y-82500000D01*
X52500000Y-107500000D02*
X77500000Y-107500000D01*
D13*
X75870000Y-85880000D02*
G75*
G03*
X75870000Y-85880000I-1750000J0D01*
G01*
X75870000Y-104120000D02*
G75*
G03*
X75870000Y-104120000I-1750000J0D01*
G01*
X57630000Y-104120000D02*
G75*
G03*
X57630000Y-104120000I-1750000J0D01*
G01*
X72400000Y-95000000D02*
G75*
G03*
X72400000Y-95000000I-7400000J0D01*
G01*
D12*
X85500000Y-107500000D02*
X85500000Y-82500000D01*
X85500000Y-82500000D02*
X110500000Y-82500000D01*
X110500000Y-107500000D02*
X110500000Y-82500000D01*
X85500000Y-107500000D02*
X110500000Y-107500000D01*
D13*
X108870000Y-85880000D02*
G75*
G03*
X108870000Y-85880000I-1750000J0D01*
G01*
X108870000Y-104120000D02*
G75*
G03*
X108870000Y-104120000I-1750000J0D01*
G01*
X90630000Y-104120000D02*
G75*
G03*
X90630000Y-104120000I-1750000J0D01*
G01*
X105400000Y-95000000D02*
G75*
G03*
X105400000Y-95000000I-7400000J0D01*
G01*
D12*
X118500000Y-107500000D02*
X118500000Y-82500000D01*
X118500000Y-82500000D02*
X143500000Y-82500000D01*
X143500000Y-107500000D02*
X143500000Y-82500000D01*
X118500000Y-107500000D02*
X143500000Y-107500000D01*
D13*
X141870000Y-85880000D02*
G75*
G03*
X141870000Y-85880000I-1750000J0D01*
G01*
X141870000Y-104120000D02*
G75*
G03*
X141870000Y-104120000I-1750000J0D01*
G01*
X123630000Y-104120000D02*
G75*
G03*
X123630000Y-104120000I-1750000J0D01*
G01*
X138400000Y-95000000D02*
G75*
G03*
X138400000Y-95000000I-7400000J0D01*
G01*
D12*
X151500000Y-107500000D02*
X151500000Y-82500000D01*
X151500000Y-82500000D02*
X176500000Y-82500000D01*
X176500000Y-107500000D02*
X176500000Y-82500000D01*
X151500000Y-107500000D02*
X176500000Y-107500000D01*
D13*
X174870000Y-85880000D02*
G75*
G03*
X174870000Y-85880000I-1750000J0D01*
G01*
X174870000Y-104120000D02*
G75*
G03*
X174870000Y-104120000I-1750000J0D01*
G01*
X156630000Y-104120000D02*
G75*
G03*
X156630000Y-104120000I-1750000J0D01*
G01*
X171400000Y-95000000D02*
G75*
G03*
X171400000Y-95000000I-7400000J0D01*
G01*
D12*
X184500000Y-107500000D02*
X184500000Y-82500000D01*
X184500000Y-82500000D02*
X209500000Y-82500000D01*
X209500000Y-107500000D02*
X209500000Y-82500000D01*
X184500000Y-107500000D02*
X209500000Y-107500000D01*
D13*
X207870000Y-85880000D02*
G75*
G03*
X207870000Y-85880000I-1750000J0D01*
G01*
X207870000Y-104120000D02*
G75*
G03*
X207870000Y-104120000I-1750000J0D01*
G01*
X189630000Y-104120000D02*
G75*
G03*
X189630000Y-104120000I-1750000J0D01*
G01*
X204400000Y-95000000D02*
G75*
G03*
X204400000Y-95000000I-7400000J0D01*
G01*
D12*
X217500000Y-107500000D02*
X217500000Y-82500000D01*
X217500000Y-82500000D02*
X242500000Y-82500000D01*
X242500000Y-107500000D02*
X242500000Y-82500000D01*
X217500000Y-107500000D02*
X242500000Y-107500000D01*
D13*
X240870000Y-85880000D02*
G75*
G03*
X240870000Y-85880000I-1750000J0D01*
G01*
X240870000Y-104120000D02*
G75*
G03*
X240870000Y-104120000I-1750000J0D01*
G01*
X222630000Y-104120000D02*
G75*
G03*
X222630000Y-104120000I-1750000J0D01*
G01*
X237400000Y-95000000D02*
G75*
G03*
X237400000Y-95000000I-7400000J0D01*
G01*
D12*
X162500000Y-139000000D02*
X137500000Y-139000000D01*
X137500000Y-139000000D02*
X137500000Y-114000000D01*
X162500000Y-114000000D02*
X137500000Y-114000000D01*
X162500000Y-139000000D02*
X162500000Y-114000000D01*
D13*
X142630000Y-117380000D02*
G75*
G03*
X142630000Y-117380000I-1750000J0D01*
G01*
X160870000Y-117380000D02*
G75*
G03*
X160870000Y-117380000I-1750000J0D01*
G01*
X160870000Y-135620000D02*
G75*
G03*
X160870000Y-135620000I-1750000J0D01*
G01*
X157400000Y-126500000D02*
G75*
G03*
X157400000Y-126500000I-7400000J0D01*
G01*
D11*
X50228380Y-95333333D02*
X50942666Y-95333333D01*
X51085523Y-95380952D01*
X51180761Y-95476190D01*
X51228380Y-95619047D01*
X51228380Y-95714285D01*
X50228380Y-94952380D02*
X50228380Y-94285714D01*
X51228380Y-94714285D01*
X83228380Y-95333333D02*
X83942666Y-95333333D01*
X84085523Y-95380952D01*
X84180761Y-95476190D01*
X84228380Y-95619047D01*
X84228380Y-95714285D01*
X83228380Y-94428571D02*
X83228380Y-94619047D01*
X83276000Y-94714285D01*
X83323619Y-94761904D01*
X83466476Y-94857142D01*
X83656952Y-94904761D01*
X84037904Y-94904761D01*
X84133142Y-94857142D01*
X84180761Y-94809523D01*
X84228380Y-94714285D01*
X84228380Y-94523809D01*
X84180761Y-94428571D01*
X84133142Y-94380952D01*
X84037904Y-94333333D01*
X83799809Y-94333333D01*
X83704571Y-94380952D01*
X83656952Y-94428571D01*
X83609333Y-94523809D01*
X83609333Y-94714285D01*
X83656952Y-94809523D01*
X83704571Y-94857142D01*
X83799809Y-94904761D01*
X116228380Y-95333333D02*
X116942666Y-95333333D01*
X117085523Y-95380952D01*
X117180761Y-95476190D01*
X117228380Y-95619047D01*
X117228380Y-95714285D01*
X116228380Y-94380952D02*
X116228380Y-94857142D01*
X116704571Y-94904761D01*
X116656952Y-94857142D01*
X116609333Y-94761904D01*
X116609333Y-94523809D01*
X116656952Y-94428571D01*
X116704571Y-94380952D01*
X116799809Y-94333333D01*
X117037904Y-94333333D01*
X117133142Y-94380952D01*
X117180761Y-94428571D01*
X117228380Y-94523809D01*
X117228380Y-94761904D01*
X117180761Y-94857142D01*
X117133142Y-94904761D01*
X149228380Y-95333333D02*
X149942666Y-95333333D01*
X150085523Y-95380952D01*
X150180761Y-95476190D01*
X150228380Y-95619047D01*
X150228380Y-95714285D01*
X149561714Y-94428571D02*
X150228380Y-94428571D01*
X149180761Y-94666666D02*
X149895047Y-94904761D01*
X149895047Y-94285714D01*
X182228380Y-95333333D02*
X182942666Y-95333333D01*
X183085523Y-95380952D01*
X183180761Y-95476190D01*
X183228380Y-95619047D01*
X183228380Y-95714285D01*
X182228380Y-94952380D02*
X182228380Y-94333333D01*
X182609333Y-94666666D01*
X182609333Y-94523809D01*
X182656952Y-94428571D01*
X182704571Y-94380952D01*
X182799809Y-94333333D01*
X183037904Y-94333333D01*
X183133142Y-94380952D01*
X183180761Y-94428571D01*
X183228380Y-94523809D01*
X183228380Y-94809523D01*
X183180761Y-94904761D01*
X183133142Y-94952380D01*
M02*
