G04 #@! TF.GenerationSoftware,KiCad,Pcbnew,(5.1.10)-1*
G04 #@! TF.CreationDate,2023-09-11T23:26:28+08:00*
G04 #@! TF.ProjectId,AntennaSwitch_6x2_RelayBoard,416e7465-6e6e-4615-9377-697463685f36,rev?*
G04 #@! TF.SameCoordinates,Original*
G04 #@! TF.FileFunction,Legend,Bot*
G04 #@! TF.FilePolarity,Positive*
%FSLAX46Y46*%
G04 Gerber Fmt 4.6, Leading zero omitted, Abs format (unit mm)*
G04 Created by KiCad (PCBNEW (5.1.10)-1) date 2023-09-11 23:26:28*
%MOMM*%
%LPD*%
G01*
G04 APERTURE LIST*
%ADD10C,0.200000*%
%ADD11C,0.500000*%
%ADD12C,0.150000*%
%ADD13C,0.250000*%
%ADD14C,0.120000*%
G04 APERTURE END LIST*
D10*
X134190476Y-54558380D02*
X134000000Y-54558380D01*
X133904761Y-54510761D01*
X133857142Y-54463142D01*
X133761904Y-54320285D01*
X133714285Y-54129809D01*
X133714285Y-53748857D01*
X133761904Y-53653619D01*
X133809523Y-53606000D01*
X133904761Y-53558380D01*
X134095238Y-53558380D01*
X134190476Y-53606000D01*
X134238095Y-53653619D01*
X134285714Y-53748857D01*
X134285714Y-53986952D01*
X134238095Y-54082190D01*
X134190476Y-54129809D01*
X134095238Y-54177428D01*
X133904761Y-54177428D01*
X133809523Y-54129809D01*
X133761904Y-54082190D01*
X133714285Y-53986952D01*
X166095238Y-53986952D02*
X166190476Y-53939333D01*
X166238095Y-53891714D01*
X166285714Y-53796476D01*
X166285714Y-53748857D01*
X166238095Y-53653619D01*
X166190476Y-53606000D01*
X166095238Y-53558380D01*
X165904761Y-53558380D01*
X165809523Y-53606000D01*
X165761904Y-53653619D01*
X165714285Y-53748857D01*
X165714285Y-53796476D01*
X165761904Y-53891714D01*
X165809523Y-53939333D01*
X165904761Y-53986952D01*
X166095238Y-53986952D01*
X166190476Y-54034571D01*
X166238095Y-54082190D01*
X166285714Y-54177428D01*
X166285714Y-54367904D01*
X166238095Y-54463142D01*
X166190476Y-54510761D01*
X166095238Y-54558380D01*
X165904761Y-54558380D01*
X165809523Y-54510761D01*
X165761904Y-54463142D01*
X165714285Y-54367904D01*
X165714285Y-54177428D01*
X165761904Y-54082190D01*
X165809523Y-54034571D01*
X165904761Y-53986952D01*
D11*
X248900000Y-112300000D02*
X55150000Y-112300000D01*
D12*
X55130952Y-80095238D02*
X55273809Y-80047619D01*
X55511904Y-80047619D01*
X55607142Y-80095238D01*
X55654761Y-80142857D01*
X55702380Y-80238095D01*
X55702380Y-80333333D01*
X55654761Y-80428571D01*
X55607142Y-80476190D01*
X55511904Y-80523809D01*
X55321428Y-80571428D01*
X55226190Y-80619047D01*
X55178571Y-80666666D01*
X55130952Y-80761904D01*
X55130952Y-80857142D01*
X55178571Y-80952380D01*
X55226190Y-81000000D01*
X55321428Y-81047619D01*
X55559523Y-81047619D01*
X55702380Y-81000000D01*
X56130952Y-80047619D02*
X56130952Y-81047619D01*
X56559523Y-80047619D02*
X56559523Y-80571428D01*
X56511904Y-80666666D01*
X56416666Y-80714285D01*
X56273809Y-80714285D01*
X56178571Y-80666666D01*
X56130952Y-80619047D01*
X57035714Y-80047619D02*
X57035714Y-80714285D01*
X57035714Y-81047619D02*
X56988095Y-81000000D01*
X57035714Y-80952380D01*
X57083333Y-81000000D01*
X57035714Y-81047619D01*
X57035714Y-80952380D01*
X57892857Y-80095238D02*
X57797619Y-80047619D01*
X57607142Y-80047619D01*
X57511904Y-80095238D01*
X57464285Y-80190476D01*
X57464285Y-80571428D01*
X57511904Y-80666666D01*
X57607142Y-80714285D01*
X57797619Y-80714285D01*
X57892857Y-80666666D01*
X57940476Y-80571428D01*
X57940476Y-80476190D01*
X57464285Y-80380952D01*
X58511904Y-80047619D02*
X58416666Y-80095238D01*
X58369047Y-80190476D01*
X58369047Y-81047619D01*
X59321428Y-80047619D02*
X59321428Y-81047619D01*
X59321428Y-80095238D02*
X59226190Y-80047619D01*
X59035714Y-80047619D01*
X58940476Y-80095238D01*
X58892857Y-80142857D01*
X58845238Y-80238095D01*
X58845238Y-80523809D01*
X58892857Y-80619047D01*
X58940476Y-80666666D01*
X59035714Y-80714285D01*
X59226190Y-80714285D01*
X59321428Y-80666666D01*
D11*
X248750000Y-79500000D02*
X55000000Y-79500000D01*
D10*
X73120000Y-54503571D02*
X73405714Y-54503571D01*
X73548571Y-54575000D01*
X73620000Y-54646428D01*
X73762857Y-54860714D01*
X73834285Y-55146428D01*
X73834285Y-55717857D01*
X73762857Y-55860714D01*
X73691428Y-55932142D01*
X73548571Y-56003571D01*
X73262857Y-56003571D01*
X73120000Y-55932142D01*
X73048571Y-55860714D01*
X72977142Y-55717857D01*
X72977142Y-55360714D01*
X73048571Y-55217857D01*
X73120000Y-55146428D01*
X73262857Y-55075000D01*
X73548571Y-55075000D01*
X73691428Y-55146428D01*
X73762857Y-55217857D01*
X73834285Y-55360714D01*
X72477142Y-56003571D02*
X71691428Y-55003571D01*
X72477142Y-55003571D02*
X71691428Y-56003571D01*
X71191428Y-54646428D02*
X71120000Y-54575000D01*
X70977142Y-54503571D01*
X70620000Y-54503571D01*
X70477142Y-54575000D01*
X70405714Y-54646428D01*
X70334285Y-54789285D01*
X70334285Y-54932142D01*
X70405714Y-55146428D01*
X71262857Y-56003571D01*
X70334285Y-56003571D01*
X68620000Y-55575000D02*
X67905714Y-55575000D01*
X68762857Y-56003571D02*
X68262857Y-54503571D01*
X67762857Y-56003571D01*
X67262857Y-55003571D02*
X67262857Y-56003571D01*
X67262857Y-55146428D02*
X67191428Y-55075000D01*
X67048571Y-55003571D01*
X66834285Y-55003571D01*
X66691428Y-55075000D01*
X66620000Y-55217857D01*
X66620000Y-56003571D01*
X66120000Y-55003571D02*
X65548571Y-55003571D01*
X65905714Y-54503571D02*
X65905714Y-55789285D01*
X65834285Y-55932142D01*
X65691428Y-56003571D01*
X65548571Y-56003571D01*
X64477142Y-55932142D02*
X64620000Y-56003571D01*
X64905714Y-56003571D01*
X65048571Y-55932142D01*
X65120000Y-55789285D01*
X65120000Y-55217857D01*
X65048571Y-55075000D01*
X64905714Y-55003571D01*
X64620000Y-55003571D01*
X64477142Y-55075000D01*
X64405714Y-55217857D01*
X64405714Y-55360714D01*
X65120000Y-55503571D01*
X63762857Y-55003571D02*
X63762857Y-56003571D01*
X63762857Y-55146428D02*
X63691428Y-55075000D01*
X63548571Y-55003571D01*
X63334285Y-55003571D01*
X63191428Y-55075000D01*
X63120000Y-55217857D01*
X63120000Y-56003571D01*
X62405714Y-55003571D02*
X62405714Y-56003571D01*
X62405714Y-55146428D02*
X62334285Y-55075000D01*
X62191428Y-55003571D01*
X61977142Y-55003571D01*
X61834285Y-55075000D01*
X61762857Y-55217857D01*
X61762857Y-56003571D01*
X60405714Y-56003571D02*
X60405714Y-55217857D01*
X60477142Y-55075000D01*
X60620000Y-55003571D01*
X60905714Y-55003571D01*
X61048571Y-55075000D01*
X60405714Y-55932142D02*
X60548571Y-56003571D01*
X60905714Y-56003571D01*
X61048571Y-55932142D01*
X61120000Y-55789285D01*
X61120000Y-55646428D01*
X61048571Y-55503571D01*
X60905714Y-55432142D01*
X60548571Y-55432142D01*
X60405714Y-55360714D01*
X58620000Y-55932142D02*
X58405714Y-56003571D01*
X58048571Y-56003571D01*
X57905714Y-55932142D01*
X57834285Y-55860714D01*
X57762857Y-55717857D01*
X57762857Y-55575000D01*
X57834285Y-55432142D01*
X57905714Y-55360714D01*
X58048571Y-55289285D01*
X58334285Y-55217857D01*
X58477142Y-55146428D01*
X58548571Y-55075000D01*
X58620000Y-54932142D01*
X58620000Y-54789285D01*
X58548571Y-54646428D01*
X58477142Y-54575000D01*
X58334285Y-54503571D01*
X57977142Y-54503571D01*
X57762857Y-54575000D01*
X57262857Y-55003571D02*
X56977142Y-56003571D01*
X56691428Y-55289285D01*
X56405714Y-56003571D01*
X56120000Y-55003571D01*
X55548571Y-56003571D02*
X55548571Y-55003571D01*
X55548571Y-54503571D02*
X55620000Y-54575000D01*
X55548571Y-54646428D01*
X55477142Y-54575000D01*
X55548571Y-54503571D01*
X55548571Y-54646428D01*
X55048571Y-55003571D02*
X54477142Y-55003571D01*
X54834285Y-54503571D02*
X54834285Y-55789285D01*
X54762857Y-55932142D01*
X54620000Y-56003571D01*
X54477142Y-56003571D01*
X53334285Y-55932142D02*
X53477142Y-56003571D01*
X53762857Y-56003571D01*
X53905714Y-55932142D01*
X53977142Y-55860714D01*
X54048571Y-55717857D01*
X54048571Y-55289285D01*
X53977142Y-55146428D01*
X53905714Y-55075000D01*
X53762857Y-55003571D01*
X53477142Y-55003571D01*
X53334285Y-55075000D01*
X52691428Y-56003571D02*
X52691428Y-54503571D01*
X52048571Y-56003571D02*
X52048571Y-55217857D01*
X52120000Y-55075000D01*
X52262857Y-55003571D01*
X52477142Y-55003571D01*
X52620000Y-55075000D01*
X52691428Y-55146428D01*
X72905714Y-58453571D02*
X73405714Y-57739285D01*
X73762857Y-58453571D02*
X73762857Y-56953571D01*
X73191428Y-56953571D01*
X73048571Y-57025000D01*
X72977142Y-57096428D01*
X72905714Y-57239285D01*
X72905714Y-57453571D01*
X72977142Y-57596428D01*
X73048571Y-57667857D01*
X73191428Y-57739285D01*
X73762857Y-57739285D01*
X71691428Y-58382142D02*
X71834285Y-58453571D01*
X72120000Y-58453571D01*
X72262857Y-58382142D01*
X72334285Y-58239285D01*
X72334285Y-57667857D01*
X72262857Y-57525000D01*
X72120000Y-57453571D01*
X71834285Y-57453571D01*
X71691428Y-57525000D01*
X71620000Y-57667857D01*
X71620000Y-57810714D01*
X72334285Y-57953571D01*
X70762857Y-58453571D02*
X70905714Y-58382142D01*
X70977142Y-58239285D01*
X70977142Y-56953571D01*
X69548571Y-58453571D02*
X69548571Y-57667857D01*
X69620000Y-57525000D01*
X69762857Y-57453571D01*
X70048571Y-57453571D01*
X70191428Y-57525000D01*
X69548571Y-58382142D02*
X69691428Y-58453571D01*
X70048571Y-58453571D01*
X70191428Y-58382142D01*
X70262857Y-58239285D01*
X70262857Y-58096428D01*
X70191428Y-57953571D01*
X70048571Y-57882142D01*
X69691428Y-57882142D01*
X69548571Y-57810714D01*
X68977142Y-57453571D02*
X68620000Y-58453571D01*
X68262857Y-57453571D02*
X68620000Y-58453571D01*
X68762857Y-58810714D01*
X68834285Y-58882142D01*
X68977142Y-58953571D01*
X66048571Y-57667857D02*
X65834285Y-57739285D01*
X65762857Y-57810714D01*
X65691428Y-57953571D01*
X65691428Y-58167857D01*
X65762857Y-58310714D01*
X65834285Y-58382142D01*
X65977142Y-58453571D01*
X66548571Y-58453571D01*
X66548571Y-56953571D01*
X66048571Y-56953571D01*
X65905714Y-57025000D01*
X65834285Y-57096428D01*
X65762857Y-57239285D01*
X65762857Y-57382142D01*
X65834285Y-57525000D01*
X65905714Y-57596428D01*
X66048571Y-57667857D01*
X66548571Y-57667857D01*
X64834285Y-58453571D02*
X64977142Y-58382142D01*
X65048571Y-58310714D01*
X65120000Y-58167857D01*
X65120000Y-57739285D01*
X65048571Y-57596428D01*
X64977142Y-57525000D01*
X64834285Y-57453571D01*
X64620000Y-57453571D01*
X64477142Y-57525000D01*
X64405714Y-57596428D01*
X64334285Y-57739285D01*
X64334285Y-58167857D01*
X64405714Y-58310714D01*
X64477142Y-58382142D01*
X64620000Y-58453571D01*
X64834285Y-58453571D01*
X63048571Y-58453571D02*
X63048571Y-57667857D01*
X63120000Y-57525000D01*
X63262857Y-57453571D01*
X63548571Y-57453571D01*
X63691428Y-57525000D01*
X63048571Y-58382142D02*
X63191428Y-58453571D01*
X63548571Y-58453571D01*
X63691428Y-58382142D01*
X63762857Y-58239285D01*
X63762857Y-58096428D01*
X63691428Y-57953571D01*
X63548571Y-57882142D01*
X63191428Y-57882142D01*
X63048571Y-57810714D01*
X62334285Y-58453571D02*
X62334285Y-57453571D01*
X62334285Y-57739285D02*
X62262857Y-57596428D01*
X62191428Y-57525000D01*
X62048571Y-57453571D01*
X61905714Y-57453571D01*
X60762857Y-58453571D02*
X60762857Y-56953571D01*
X60762857Y-58382142D02*
X60905714Y-58453571D01*
X61191428Y-58453571D01*
X61334285Y-58382142D01*
X61405714Y-58310714D01*
X61477142Y-58167857D01*
X61477142Y-57739285D01*
X61405714Y-57596428D01*
X61334285Y-57525000D01*
X61191428Y-57453571D01*
X60905714Y-57453571D01*
X60762857Y-57525000D01*
X59120000Y-56953571D02*
X58620000Y-58453571D01*
X58120000Y-56953571D01*
X57762857Y-56953571D02*
X56834285Y-56953571D01*
X57334285Y-57525000D01*
X57120000Y-57525000D01*
X56977142Y-57596428D01*
X56905714Y-57667857D01*
X56834285Y-57810714D01*
X56834285Y-58167857D01*
X56905714Y-58310714D01*
X56977142Y-58382142D01*
X57120000Y-58453571D01*
X57548571Y-58453571D01*
X57691428Y-58382142D01*
X57762857Y-58310714D01*
X56191428Y-58310714D02*
X56120000Y-58382142D01*
X56191428Y-58453571D01*
X56262857Y-58382142D01*
X56191428Y-58310714D01*
X56191428Y-58453571D01*
X55191428Y-56953571D02*
X55048571Y-56953571D01*
X54905714Y-57025000D01*
X54834285Y-57096428D01*
X54762857Y-57239285D01*
X54691428Y-57525000D01*
X54691428Y-57882142D01*
X54762857Y-58167857D01*
X54834285Y-58310714D01*
X54905714Y-58382142D01*
X55048571Y-58453571D01*
X55191428Y-58453571D01*
X55334285Y-58382142D01*
X55405714Y-58310714D01*
X55477142Y-58167857D01*
X55548571Y-57882142D01*
X55548571Y-57525000D01*
X55477142Y-57239285D01*
X55405714Y-57096428D01*
X55334285Y-57025000D01*
X55191428Y-56953571D01*
X73048571Y-60903571D02*
X73762857Y-60903571D01*
X73762857Y-59403571D01*
X72548571Y-59403571D02*
X72548571Y-60617857D01*
X72477142Y-60760714D01*
X72405714Y-60832142D01*
X72262857Y-60903571D01*
X71977142Y-60903571D01*
X71834285Y-60832142D01*
X71762857Y-60760714D01*
X71691428Y-60617857D01*
X71691428Y-59403571D01*
X70905714Y-60832142D02*
X70905714Y-60903571D01*
X70977142Y-61046428D01*
X71048571Y-61117857D01*
X69262857Y-59403571D02*
X68262857Y-59403571D01*
X69262857Y-60903571D01*
X68262857Y-60903571D01*
X67120000Y-60832142D02*
X67262857Y-60903571D01*
X67548571Y-60903571D01*
X67691428Y-60832142D01*
X67762857Y-60689285D01*
X67762857Y-60117857D01*
X67691428Y-59975000D01*
X67548571Y-59903571D01*
X67262857Y-59903571D01*
X67120000Y-59975000D01*
X67048571Y-60117857D01*
X67048571Y-60260714D01*
X67762857Y-60403571D01*
X66405714Y-59903571D02*
X66405714Y-60903571D01*
X66405714Y-60046428D02*
X66334285Y-59975000D01*
X66191428Y-59903571D01*
X65977142Y-59903571D01*
X65834285Y-59975000D01*
X65762857Y-60117857D01*
X65762857Y-60903571D01*
X65048571Y-60903571D02*
X65048571Y-59903571D01*
X65048571Y-59403571D02*
X65120000Y-59475000D01*
X65048571Y-59546428D01*
X64977142Y-59475000D01*
X65048571Y-59403571D01*
X65048571Y-59546428D01*
X64334285Y-59903571D02*
X64334285Y-60903571D01*
X64334285Y-60046428D02*
X64262857Y-59975000D01*
X64120000Y-59903571D01*
X63905714Y-59903571D01*
X63762857Y-59975000D01*
X63691428Y-60117857D01*
X63691428Y-60903571D01*
X62334285Y-59903571D02*
X62334285Y-61117857D01*
X62405714Y-61260714D01*
X62477142Y-61332142D01*
X62620000Y-61403571D01*
X62834285Y-61403571D01*
X62977142Y-61332142D01*
X62334285Y-60832142D02*
X62477142Y-60903571D01*
X62762857Y-60903571D01*
X62905714Y-60832142D01*
X62977142Y-60760714D01*
X63048571Y-60617857D01*
X63048571Y-60189285D01*
X62977142Y-60046428D01*
X62905714Y-59975000D01*
X62762857Y-59903571D01*
X62477142Y-59903571D01*
X62334285Y-59975000D01*
X59977142Y-60117857D02*
X59762857Y-60189285D01*
X59691428Y-60260714D01*
X59620000Y-60403571D01*
X59620000Y-60617857D01*
X59691428Y-60760714D01*
X59762857Y-60832142D01*
X59905714Y-60903571D01*
X60477142Y-60903571D01*
X60477142Y-59403571D01*
X59977142Y-59403571D01*
X59834285Y-59475000D01*
X59762857Y-59546428D01*
X59691428Y-59689285D01*
X59691428Y-59832142D01*
X59762857Y-59975000D01*
X59834285Y-60046428D01*
X59977142Y-60117857D01*
X60477142Y-60117857D01*
X58977142Y-60903571D02*
X58977142Y-59403571D01*
X57620000Y-59903571D02*
X57620000Y-60903571D01*
X57977142Y-59332142D02*
X58334285Y-60403571D01*
X57405714Y-60403571D01*
X56977142Y-59403571D02*
X56620000Y-60903571D01*
X56334285Y-59832142D01*
X56048571Y-60903571D01*
X55691428Y-59403571D01*
X54834285Y-59403571D02*
X54548571Y-59403571D01*
X54405714Y-59475000D01*
X54262857Y-59617857D01*
X54191428Y-59903571D01*
X54191428Y-60403571D01*
X54262857Y-60689285D01*
X54405714Y-60832142D01*
X54548571Y-60903571D01*
X54834285Y-60903571D01*
X54977142Y-60832142D01*
X55120000Y-60689285D01*
X55191428Y-60403571D01*
X55191428Y-59903571D01*
X55120000Y-59617857D01*
X54977142Y-59475000D01*
X54834285Y-59403571D01*
X53548571Y-60903571D02*
X53548571Y-59403571D01*
X52977142Y-59403571D01*
X52834285Y-59475000D01*
X52762857Y-59546428D01*
X52691428Y-59689285D01*
X52691428Y-59903571D01*
X52762857Y-60046428D01*
X52834285Y-60117857D01*
X52977142Y-60189285D01*
X53548571Y-60189285D01*
X73834285Y-63282142D02*
X73620000Y-63353571D01*
X73262857Y-63353571D01*
X73120000Y-63282142D01*
X73048571Y-63210714D01*
X72977142Y-63067857D01*
X72977142Y-62925000D01*
X73048571Y-62782142D01*
X73120000Y-62710714D01*
X73262857Y-62639285D01*
X73548571Y-62567857D01*
X73691428Y-62496428D01*
X73762857Y-62425000D01*
X73834285Y-62282142D01*
X73834285Y-62139285D01*
X73762857Y-61996428D01*
X73691428Y-61925000D01*
X73548571Y-61853571D01*
X73191428Y-61853571D01*
X72977142Y-61925000D01*
X71762857Y-63282142D02*
X71905714Y-63353571D01*
X72191428Y-63353571D01*
X72334285Y-63282142D01*
X72405714Y-63139285D01*
X72405714Y-62567857D01*
X72334285Y-62425000D01*
X72191428Y-62353571D01*
X71905714Y-62353571D01*
X71762857Y-62425000D01*
X71691428Y-62567857D01*
X71691428Y-62710714D01*
X72405714Y-62853571D01*
X71048571Y-62353571D02*
X71048571Y-63853571D01*
X71048571Y-62425000D02*
X70905714Y-62353571D01*
X70620000Y-62353571D01*
X70477142Y-62425000D01*
X70405714Y-62496428D01*
X70334285Y-62639285D01*
X70334285Y-63067857D01*
X70405714Y-63210714D01*
X70477142Y-63282142D01*
X70620000Y-63353571D01*
X70905714Y-63353571D01*
X71048571Y-63282142D01*
X69905714Y-62353571D02*
X69334285Y-62353571D01*
X69691428Y-61853571D02*
X69691428Y-63139285D01*
X69620000Y-63282142D01*
X69477142Y-63353571D01*
X69334285Y-63353571D01*
X68834285Y-63210714D02*
X68762857Y-63282142D01*
X68834285Y-63353571D01*
X68905714Y-63282142D01*
X68834285Y-63210714D01*
X68834285Y-63353571D01*
X67048571Y-61996428D02*
X66977142Y-61925000D01*
X66834285Y-61853571D01*
X66477142Y-61853571D01*
X66334285Y-61925000D01*
X66262857Y-61996428D01*
X66191428Y-62139285D01*
X66191428Y-62282142D01*
X66262857Y-62496428D01*
X67120000Y-63353571D01*
X66191428Y-63353571D01*
X65477142Y-63282142D02*
X65477142Y-63353571D01*
X65548571Y-63496428D01*
X65620000Y-63567857D01*
X63762857Y-61996428D02*
X63691428Y-61925000D01*
X63548571Y-61853571D01*
X63191428Y-61853571D01*
X63048571Y-61925000D01*
X62977142Y-61996428D01*
X62905714Y-62139285D01*
X62905714Y-62282142D01*
X62977142Y-62496428D01*
X63834285Y-63353571D01*
X62905714Y-63353571D01*
X61977142Y-61853571D02*
X61834285Y-61853571D01*
X61691428Y-61925000D01*
X61620000Y-61996428D01*
X61548571Y-62139285D01*
X61477142Y-62425000D01*
X61477142Y-62782142D01*
X61548571Y-63067857D01*
X61620000Y-63210714D01*
X61691428Y-63282142D01*
X61834285Y-63353571D01*
X61977142Y-63353571D01*
X62120000Y-63282142D01*
X62191428Y-63210714D01*
X62262857Y-63067857D01*
X62334285Y-62782142D01*
X62334285Y-62425000D01*
X62262857Y-62139285D01*
X62191428Y-61996428D01*
X62120000Y-61925000D01*
X61977142Y-61853571D01*
X60905714Y-61996428D02*
X60834285Y-61925000D01*
X60691428Y-61853571D01*
X60334285Y-61853571D01*
X60191428Y-61925000D01*
X60120000Y-61996428D01*
X60048571Y-62139285D01*
X60048571Y-62282142D01*
X60120000Y-62496428D01*
X60977142Y-63353571D01*
X60048571Y-63353571D01*
X59548571Y-61853571D02*
X58620000Y-61853571D01*
X59120000Y-62425000D01*
X58905714Y-62425000D01*
X58762857Y-62496428D01*
X58691428Y-62567857D01*
X58620000Y-62710714D01*
X58620000Y-63067857D01*
X58691428Y-63210714D01*
X58762857Y-63282142D01*
X58905714Y-63353571D01*
X59334285Y-63353571D01*
X59477142Y-63282142D01*
X59548571Y-63210714D01*
D12*
X188573595Y-56007071D02*
X189335500Y-56007071D01*
X188954547Y-55626119D02*
X188954547Y-56388023D01*
X190335500Y-55626119D02*
X189764071Y-55626119D01*
X190049785Y-55626119D02*
X190049785Y-56626119D01*
X189954547Y-56483261D01*
X189859309Y-56388023D01*
X189764071Y-56340404D01*
X190716452Y-56530880D02*
X190764071Y-56578500D01*
X190859309Y-56626119D01*
X191097404Y-56626119D01*
X191192642Y-56578500D01*
X191240261Y-56530880D01*
X191287880Y-56435642D01*
X191287880Y-56340404D01*
X191240261Y-56197547D01*
X190668833Y-55626119D01*
X191287880Y-55626119D01*
X191573595Y-56626119D02*
X191906928Y-55626119D01*
X192240261Y-56626119D01*
X159007428Y-62674619D02*
X159007428Y-63674619D01*
X159007428Y-63198428D02*
X159578857Y-63198428D01*
X159578857Y-62674619D02*
X159578857Y-63674619D01*
X160055047Y-62674619D02*
X160055047Y-63674619D01*
X161055047Y-63627000D02*
X160959809Y-63674619D01*
X160816952Y-63674619D01*
X160674095Y-63627000D01*
X160578857Y-63531761D01*
X160531238Y-63436523D01*
X160483619Y-63246047D01*
X160483619Y-63103190D01*
X160531238Y-62912714D01*
X160578857Y-62817476D01*
X160674095Y-62722238D01*
X160816952Y-62674619D01*
X160912190Y-62674619D01*
X161055047Y-62722238D01*
X161102666Y-62769857D01*
X161102666Y-63103190D01*
X160912190Y-63103190D01*
X161531238Y-62674619D02*
X161531238Y-63674619D01*
X161531238Y-63198428D02*
X162102666Y-63198428D01*
X162102666Y-62674619D02*
X162102666Y-63674619D01*
X163816952Y-62674619D02*
X163340761Y-62674619D01*
X163340761Y-63674619D01*
X164150285Y-63198428D02*
X164483619Y-63198428D01*
X164626476Y-62674619D02*
X164150285Y-62674619D01*
X164150285Y-63674619D01*
X164626476Y-63674619D01*
X164912190Y-63674619D02*
X165245523Y-62674619D01*
X165578857Y-63674619D01*
X165912190Y-63198428D02*
X166245523Y-63198428D01*
X166388380Y-62674619D02*
X165912190Y-62674619D01*
X165912190Y-63674619D01*
X166388380Y-63674619D01*
X167293142Y-62674619D02*
X166816952Y-62674619D01*
X166816952Y-63674619D01*
X168340761Y-62722238D02*
X168483619Y-62674619D01*
X168721714Y-62674619D01*
X168816952Y-62722238D01*
X168864571Y-62769857D01*
X168912190Y-62865095D01*
X168912190Y-62960333D01*
X168864571Y-63055571D01*
X168816952Y-63103190D01*
X168721714Y-63150809D01*
X168531238Y-63198428D01*
X168436000Y-63246047D01*
X168388380Y-63293666D01*
X168340761Y-63388904D01*
X168340761Y-63484142D01*
X168388380Y-63579380D01*
X168436000Y-63627000D01*
X168531238Y-63674619D01*
X168769333Y-63674619D01*
X168912190Y-63627000D01*
X169531238Y-63674619D02*
X169721714Y-63674619D01*
X169816952Y-63627000D01*
X169912190Y-63531761D01*
X169959809Y-63341285D01*
X169959809Y-63007952D01*
X169912190Y-62817476D01*
X169816952Y-62722238D01*
X169721714Y-62674619D01*
X169531238Y-62674619D01*
X169436000Y-62722238D01*
X169340761Y-62817476D01*
X169293142Y-63007952D01*
X169293142Y-63341285D01*
X169340761Y-63531761D01*
X169436000Y-63627000D01*
X169531238Y-63674619D01*
X170388380Y-63674619D02*
X170388380Y-62865095D01*
X170436000Y-62769857D01*
X170483619Y-62722238D01*
X170578857Y-62674619D01*
X170769333Y-62674619D01*
X170864571Y-62722238D01*
X170912190Y-62769857D01*
X170959809Y-62865095D01*
X170959809Y-63674619D01*
X172007428Y-62674619D02*
X171674095Y-63150809D01*
X171436000Y-62674619D02*
X171436000Y-63674619D01*
X171816952Y-63674619D01*
X171912190Y-63627000D01*
X171959809Y-63579380D01*
X172007428Y-63484142D01*
X172007428Y-63341285D01*
X171959809Y-63246047D01*
X171912190Y-63198428D01*
X171816952Y-63150809D01*
X171436000Y-63150809D01*
X173007428Y-62769857D02*
X172959809Y-62722238D01*
X172816952Y-62674619D01*
X172721714Y-62674619D01*
X172578857Y-62722238D01*
X172483619Y-62817476D01*
X172436000Y-62912714D01*
X172388380Y-63103190D01*
X172388380Y-63246047D01*
X172436000Y-63436523D01*
X172483619Y-63531761D01*
X172578857Y-63627000D01*
X172721714Y-63674619D01*
X172816952Y-63674619D01*
X172959809Y-63627000D01*
X173007428Y-63579380D01*
X173436000Y-63198428D02*
X173769333Y-63198428D01*
X173912190Y-62674619D02*
X173436000Y-62674619D01*
X173436000Y-63674619D01*
X173912190Y-63674619D01*
X175102666Y-62674619D02*
X175102666Y-63674619D01*
X175340761Y-63674619D01*
X175483619Y-63627000D01*
X175578857Y-63531761D01*
X175626476Y-63436523D01*
X175674095Y-63246047D01*
X175674095Y-63103190D01*
X175626476Y-62912714D01*
X175578857Y-62817476D01*
X175483619Y-62722238D01*
X175340761Y-62674619D01*
X175102666Y-62674619D01*
X176674095Y-62674619D02*
X176340761Y-63150809D01*
X176102666Y-62674619D02*
X176102666Y-63674619D01*
X176483619Y-63674619D01*
X176578857Y-63627000D01*
X176626476Y-63579380D01*
X176674095Y-63484142D01*
X176674095Y-63341285D01*
X176626476Y-63246047D01*
X176578857Y-63198428D01*
X176483619Y-63150809D01*
X176102666Y-63150809D01*
X177102666Y-62674619D02*
X177102666Y-63674619D01*
X177436000Y-63674619D02*
X177769333Y-62674619D01*
X178102666Y-63674619D01*
X178436000Y-63198428D02*
X178769333Y-63198428D01*
X178912190Y-62674619D02*
X178436000Y-62674619D01*
X178436000Y-63674619D01*
X178912190Y-63674619D01*
D10*
X110960476Y-54181380D02*
X111531904Y-54181380D01*
X111246190Y-54181380D02*
X111246190Y-53181380D01*
X111341428Y-53324238D01*
X111436666Y-53419476D01*
X111531904Y-53467095D01*
X110103333Y-53181380D02*
X110293809Y-53181380D01*
X110389047Y-53229000D01*
X110436666Y-53276619D01*
X110531904Y-53419476D01*
X110579523Y-53609952D01*
X110579523Y-53990904D01*
X110531904Y-54086142D01*
X110484285Y-54133761D01*
X110389047Y-54181380D01*
X110198571Y-54181380D01*
X110103333Y-54133761D01*
X110055714Y-54086142D01*
X110008095Y-53990904D01*
X110008095Y-53752809D01*
X110055714Y-53657571D01*
X110103333Y-53609952D01*
X110198571Y-53562333D01*
X110389047Y-53562333D01*
X110484285Y-53609952D01*
X110531904Y-53657571D01*
X110579523Y-53752809D01*
X188964285Y-54308380D02*
X189535714Y-54308380D01*
X189250000Y-54308380D02*
X189250000Y-53308380D01*
X189345238Y-53451238D01*
X189440476Y-53546476D01*
X189535714Y-53594095D01*
D12*
X149957428Y-71199428D02*
X150100285Y-71151809D01*
X150147904Y-71104190D01*
X150195523Y-71008952D01*
X150195523Y-70866095D01*
X150147904Y-70770857D01*
X150100285Y-70723238D01*
X150005047Y-70675619D01*
X149624095Y-70675619D01*
X149624095Y-71675619D01*
X149957428Y-71675619D01*
X150052666Y-71628000D01*
X150100285Y-71580380D01*
X150147904Y-71485142D01*
X150147904Y-71389904D01*
X150100285Y-71294666D01*
X150052666Y-71247047D01*
X149957428Y-71199428D01*
X149624095Y-71199428D01*
X150251095Y-134032666D02*
X149774904Y-134032666D01*
X150346333Y-134318380D02*
X150013000Y-133318380D01*
X149679666Y-134318380D01*
X66669047Y-102028666D02*
X66192857Y-102028666D01*
X66764285Y-102314380D02*
X66430952Y-101314380D01*
X66097619Y-102314380D01*
X65764285Y-102314380D02*
X65764285Y-101314380D01*
X65192857Y-102314380D01*
X65192857Y-101314380D01*
X64859523Y-101314380D02*
X64288095Y-101314380D01*
X64573809Y-102314380D02*
X64573809Y-101314380D01*
X63526190Y-101314380D02*
X63716666Y-101314380D01*
X63811904Y-101362000D01*
X63859523Y-101409619D01*
X63954761Y-101552476D01*
X64002380Y-101742952D01*
X64002380Y-102123904D01*
X63954761Y-102219142D01*
X63907142Y-102266761D01*
X63811904Y-102314380D01*
X63621428Y-102314380D01*
X63526190Y-102266761D01*
X63478571Y-102219142D01*
X63430952Y-102123904D01*
X63430952Y-101885809D01*
X63478571Y-101790571D01*
X63526190Y-101742952D01*
X63621428Y-101695333D01*
X63811904Y-101695333D01*
X63907142Y-101742952D01*
X63954761Y-101790571D01*
X64002380Y-101885809D01*
X99562047Y-101901666D02*
X99085857Y-101901666D01*
X99657285Y-102187380D02*
X99323952Y-101187380D01*
X98990619Y-102187380D01*
X98657285Y-102187380D02*
X98657285Y-101187380D01*
X98085857Y-102187380D01*
X98085857Y-101187380D01*
X97752523Y-101187380D02*
X97181095Y-101187380D01*
X97466809Y-102187380D02*
X97466809Y-101187380D01*
X96371571Y-101187380D02*
X96847761Y-101187380D01*
X96895380Y-101663571D01*
X96847761Y-101615952D01*
X96752523Y-101568333D01*
X96514428Y-101568333D01*
X96419190Y-101615952D01*
X96371571Y-101663571D01*
X96323952Y-101758809D01*
X96323952Y-101996904D01*
X96371571Y-102092142D01*
X96419190Y-102139761D01*
X96514428Y-102187380D01*
X96752523Y-102187380D01*
X96847761Y-102139761D01*
X96895380Y-102092142D01*
X132582047Y-102155666D02*
X132105857Y-102155666D01*
X132677285Y-102441380D02*
X132343952Y-101441380D01*
X132010619Y-102441380D01*
X131677285Y-102441380D02*
X131677285Y-101441380D01*
X131105857Y-102441380D01*
X131105857Y-101441380D01*
X130772523Y-101441380D02*
X130201095Y-101441380D01*
X130486809Y-102441380D02*
X130486809Y-101441380D01*
X129439190Y-101774714D02*
X129439190Y-102441380D01*
X129677285Y-101393761D02*
X129915380Y-102108047D01*
X129296333Y-102108047D01*
X165348047Y-102282666D02*
X164871857Y-102282666D01*
X165443285Y-102568380D02*
X165109952Y-101568380D01*
X164776619Y-102568380D01*
X164443285Y-102568380D02*
X164443285Y-101568380D01*
X163871857Y-102568380D01*
X163871857Y-101568380D01*
X163538523Y-101568380D02*
X162967095Y-101568380D01*
X163252809Y-102568380D02*
X163252809Y-101568380D01*
X162729000Y-101568380D02*
X162109952Y-101568380D01*
X162443285Y-101949333D01*
X162300428Y-101949333D01*
X162205190Y-101996952D01*
X162157571Y-102044571D01*
X162109952Y-102139809D01*
X162109952Y-102377904D01*
X162157571Y-102473142D01*
X162205190Y-102520761D01*
X162300428Y-102568380D01*
X162586142Y-102568380D01*
X162681380Y-102520761D01*
X162729000Y-102473142D01*
X198495047Y-102409666D02*
X198018857Y-102409666D01*
X198590285Y-102695380D02*
X198256952Y-101695380D01*
X197923619Y-102695380D01*
X197590285Y-102695380D02*
X197590285Y-101695380D01*
X197018857Y-102695380D01*
X197018857Y-101695380D01*
X196685523Y-101695380D02*
X196114095Y-101695380D01*
X196399809Y-102695380D02*
X196399809Y-101695380D01*
X195828380Y-101790619D02*
X195780761Y-101743000D01*
X195685523Y-101695380D01*
X195447428Y-101695380D01*
X195352190Y-101743000D01*
X195304571Y-101790619D01*
X195256952Y-101885857D01*
X195256952Y-101981095D01*
X195304571Y-102123952D01*
X195876000Y-102695380D01*
X195256952Y-102695380D01*
X231388047Y-102409666D02*
X230911857Y-102409666D01*
X231483285Y-102695380D02*
X231149952Y-101695380D01*
X230816619Y-102695380D01*
X230483285Y-102695380D02*
X230483285Y-101695380D01*
X229911857Y-102695380D01*
X229911857Y-101695380D01*
X229578523Y-101695380D02*
X229007095Y-101695380D01*
X229292809Y-102695380D02*
X229292809Y-101695380D01*
X228149952Y-102695380D02*
X228721380Y-102695380D01*
X228435666Y-102695380D02*
X228435666Y-101695380D01*
X228530904Y-101838238D01*
X228626142Y-101933476D01*
X228721380Y-101981095D01*
D10*
X191251500Y-55035000D02*
X192171500Y-55035000D01*
X193071500Y-55035000D02*
X193991500Y-55035000D01*
X193071500Y-52965000D02*
X193991500Y-52965000D01*
X194391500Y-53365000D02*
X194391500Y-54635000D01*
X191251500Y-52965000D02*
X192171500Y-52965000D01*
X190851500Y-53365000D02*
X190851500Y-54635000D01*
X190851500Y-54635010D02*
G75*
G03*
X191251500Y-55035010I400000J0D01*
G01*
X191251500Y-52965000D02*
G75*
G03*
X190851500Y-53365000I0J-400000D01*
G01*
X194391500Y-53365000D02*
G75*
G03*
X193991500Y-52965000I-400000J0D01*
G01*
X193991500Y-55035000D02*
G75*
G03*
X194391500Y-54635000I0J400000D01*
G01*
X103731000Y-59763000D02*
X103731000Y-58363000D01*
X104031000Y-59763000D02*
X104031000Y-58363000D01*
X103031000Y-59763000D02*
X103031000Y-58363000D01*
X104031000Y-59763000D02*
X103031000Y-59763000D01*
X104031000Y-58363000D02*
X103031000Y-58363000D01*
X109065000Y-59763000D02*
X109065000Y-58363000D01*
X109365000Y-59763000D02*
X109365000Y-58363000D01*
X108365000Y-59763000D02*
X108365000Y-58363000D01*
X109365000Y-59763000D02*
X108365000Y-59763000D01*
X109365000Y-58363000D02*
X108365000Y-58363000D01*
X114398999Y-59763000D02*
X114398999Y-58363000D01*
X114698999Y-59763000D02*
X114698999Y-58363000D01*
X113698999Y-59763000D02*
X113698999Y-58363000D01*
X114698999Y-59763000D02*
X113698999Y-59763000D01*
X114698999Y-58363000D02*
X113698999Y-58363000D01*
X119733000Y-59763000D02*
X119733000Y-58363000D01*
X120033000Y-59763000D02*
X120033000Y-58363000D01*
X119033000Y-59763000D02*
X119033000Y-58363000D01*
X120033000Y-59763000D02*
X119033000Y-59763000D01*
X120033000Y-58363000D02*
X119033000Y-58363000D01*
X125067000Y-59762999D02*
X125067000Y-58362999D01*
X125367000Y-59762999D02*
X125367000Y-58362999D01*
X124367000Y-59762999D02*
X124367000Y-58362999D01*
X125367000Y-59762999D02*
X124367000Y-59762999D01*
X125367000Y-58362999D02*
X124367000Y-58362999D01*
X130401000Y-59763000D02*
X130401000Y-58363000D01*
X130701000Y-59763000D02*
X130701000Y-58363000D01*
X129701000Y-59763000D02*
X129701000Y-58363000D01*
X130701000Y-59763000D02*
X129701000Y-59763000D01*
X130701000Y-58363000D02*
X129701000Y-58363000D01*
X167231000Y-59763000D02*
X167231000Y-58363000D01*
X167531000Y-59763000D02*
X167531000Y-58363000D01*
X166531000Y-59763000D02*
X166531000Y-58363000D01*
X167531000Y-59763000D02*
X166531000Y-59763000D01*
X167531000Y-58363000D02*
X166531000Y-58363000D01*
X172564999Y-59763000D02*
X172564999Y-58363000D01*
X172864999Y-59763000D02*
X172864999Y-58363000D01*
X171864999Y-59763000D02*
X171864999Y-58363000D01*
X172864999Y-59763000D02*
X171864999Y-59763000D01*
X172864999Y-58363000D02*
X171864999Y-58363000D01*
X177899000Y-59763000D02*
X177899000Y-58363000D01*
X178199000Y-59763000D02*
X178199000Y-58363000D01*
X177199000Y-59763000D02*
X177199000Y-58363000D01*
X178199000Y-59763000D02*
X177199000Y-59763000D01*
X178199000Y-58363000D02*
X177199000Y-58363000D01*
X183233000Y-59762999D02*
X183233000Y-58362999D01*
X183533000Y-59762999D02*
X183533000Y-58362999D01*
X182533000Y-59762999D02*
X182533000Y-58362999D01*
X183533000Y-59762999D02*
X182533000Y-59762999D01*
X183533000Y-58362999D02*
X182533000Y-58362999D01*
X188567000Y-59763000D02*
X188567000Y-58363000D01*
X188867000Y-59763000D02*
X188867000Y-58363000D01*
X187867000Y-59763000D02*
X187867000Y-58363000D01*
X188867000Y-59763000D02*
X187867000Y-59763000D01*
X188867000Y-58363000D02*
X187867000Y-58363000D01*
X193901000Y-59763000D02*
X193901000Y-58363000D01*
X194201000Y-59763000D02*
X194201000Y-58363000D01*
X193201000Y-59763000D02*
X193201000Y-58363000D01*
X194201000Y-59763000D02*
X193201000Y-59763000D01*
X194201000Y-58363000D02*
X193201000Y-58363000D01*
D13*
X51320000Y-78754000D02*
X51320000Y-65854000D01*
X51320000Y-78754000D02*
X80520000Y-78754000D01*
X51320000Y-65800000D02*
X80520000Y-65800000D01*
X80530000Y-78754000D02*
X80530000Y-65854000D01*
X81240000Y-78754000D02*
X81240000Y-65854000D01*
X81240000Y-78754000D02*
X110440000Y-78754000D01*
X81240000Y-65800000D02*
X110440000Y-65800000D01*
X110450000Y-78754000D02*
X110450000Y-65854000D01*
X111420000Y-78754000D02*
X111420000Y-65854000D01*
X111420000Y-78754000D02*
X140620000Y-78754000D01*
X111420000Y-65800000D02*
X140620000Y-65800000D01*
X140630000Y-78754000D02*
X140630000Y-65854000D01*
X186911000Y-65800000D02*
X186911000Y-78700000D01*
X186911000Y-65800000D02*
X157711000Y-65800000D01*
X186911000Y-78754000D02*
X157711000Y-78754000D01*
X157701000Y-65800000D02*
X157701000Y-78700000D01*
X217137000Y-65800001D02*
X217137000Y-78700001D01*
X217137000Y-65800001D02*
X187937000Y-65800001D01*
X217137000Y-78754001D02*
X187937000Y-78754001D01*
X187927000Y-65800001D02*
X187927000Y-78700001D01*
X247109000Y-65800000D02*
X247109000Y-78700000D01*
X247109000Y-65800000D02*
X217909000Y-65800000D01*
X247109000Y-78754000D02*
X217909000Y-78754000D01*
X217899000Y-65800000D02*
X217899000Y-78700000D01*
X71300000Y-82400000D02*
X84200000Y-82400000D01*
X71300000Y-82400000D02*
X71300000Y-111600000D01*
X84254000Y-82400000D02*
X84254000Y-111600000D01*
X71300000Y-111610000D02*
X84200000Y-111610000D01*
X104300000Y-82400000D02*
X117200000Y-82400000D01*
X104300000Y-82400000D02*
X104300000Y-111600000D01*
X117254000Y-82400000D02*
X117254000Y-111600000D01*
X104300000Y-111610000D02*
X117200000Y-111610000D01*
X137153000Y-82400000D02*
X150053000Y-82400000D01*
X137153000Y-82400000D02*
X137153000Y-111600000D01*
X150107000Y-82400000D02*
X150107000Y-111600000D01*
X137153000Y-111610000D02*
X150053000Y-111610000D01*
X170300000Y-82400000D02*
X183200000Y-82400000D01*
X170300000Y-82400000D02*
X170300000Y-111600000D01*
X183254000Y-82400000D02*
X183254000Y-111600000D01*
X170300000Y-111610000D02*
X183200000Y-111610000D01*
X202685000Y-82400000D02*
X215585000Y-82400000D01*
X202685000Y-82400000D02*
X202685000Y-111600000D01*
X215639000Y-82400000D02*
X215639000Y-111600000D01*
X202685000Y-111610000D02*
X215585000Y-111610000D01*
X235800000Y-82400001D02*
X248700000Y-82400001D01*
X235800000Y-82400001D02*
X235800000Y-111600001D01*
X248754000Y-82400001D02*
X248754000Y-111600001D01*
X235800000Y-111610001D02*
X248700000Y-111610001D01*
X81628000Y-113013000D02*
X81628000Y-125913000D01*
X81628000Y-113013000D02*
X52428000Y-113013000D01*
X81628000Y-125967000D02*
X52428000Y-125967000D01*
X52418000Y-113013000D02*
X52418000Y-125913000D01*
X112997000Y-112886000D02*
X112997000Y-125786000D01*
X112997000Y-112886000D02*
X83797000Y-112886000D01*
X112997000Y-125840000D02*
X83797000Y-125840000D01*
X83787000Y-112886000D02*
X83787000Y-125786000D01*
X143477000Y-112886000D02*
X143477000Y-125786000D01*
X143477000Y-112886000D02*
X114277000Y-112886000D01*
X143477000Y-125840000D02*
X114277000Y-125840000D01*
X114267000Y-112886000D02*
X114267000Y-125786000D01*
X186911000Y-113013001D02*
X186911000Y-125913001D01*
X186911000Y-113013001D02*
X157711000Y-113013001D01*
X186911000Y-125967001D02*
X157711000Y-125967001D01*
X157701000Y-113013001D02*
X157701000Y-125913001D01*
X217137000Y-113013000D02*
X217137000Y-125913000D01*
X217137000Y-113013000D02*
X187937000Y-113013000D01*
X217137000Y-125967000D02*
X187937000Y-125967000D01*
X187927000Y-113013000D02*
X187927000Y-125913000D01*
X247109000Y-113013001D02*
X247109000Y-125913001D01*
X247109000Y-113013001D02*
X217909000Y-113013001D01*
X247109000Y-125967001D02*
X217909000Y-125967001D01*
X217899000Y-113013001D02*
X217899000Y-125913001D01*
D14*
X113145000Y-51583000D02*
X113145000Y-50963000D01*
X114745000Y-51583000D02*
X113145000Y-51583000D01*
X114745000Y-50963000D02*
X114745000Y-51583000D01*
X115685000Y-51583000D02*
X115685000Y-50963000D01*
X117285000Y-51583000D02*
X115685000Y-51583000D01*
X117285000Y-50963000D02*
X117285000Y-51583000D01*
X118225000Y-51583000D02*
X118225000Y-50963000D01*
X119825000Y-51583000D02*
X118225000Y-51583000D01*
X119825000Y-50963000D02*
X119825000Y-51583000D01*
X120765000Y-51583000D02*
X120765000Y-50963000D01*
X122365000Y-51583000D02*
X120765000Y-51583000D01*
X122365000Y-50963000D02*
X122365000Y-51583000D01*
X123305000Y-51583000D02*
X123305000Y-50963000D01*
X124905000Y-51583000D02*
X123305000Y-51583000D01*
X124905000Y-50963000D02*
X124905000Y-51583000D01*
X125845000Y-51583000D02*
X125845000Y-50963000D01*
X127445000Y-51583000D02*
X125845000Y-51583000D01*
X127445000Y-50963000D02*
X127445000Y-51583000D01*
X128385000Y-51583000D02*
X128385000Y-50963000D01*
X129985000Y-51583000D02*
X128385000Y-51583000D01*
X129985000Y-50963000D02*
X129985000Y-51583000D01*
X130925000Y-51583000D02*
X130925000Y-50963000D01*
X132525000Y-51583000D02*
X130925000Y-51583000D01*
X132525000Y-50963000D02*
X132525000Y-51583000D01*
X114195000Y-56963000D02*
X114195000Y-55963000D01*
X119025000Y-55533000D02*
X119025000Y-55963000D01*
X114195000Y-55533000D02*
X119025000Y-55533000D01*
X113945000Y-55963000D02*
X114195000Y-55533000D01*
X119025000Y-55963000D02*
X119025000Y-56963000D01*
X113945000Y-55963000D02*
X119025000Y-55963000D01*
X113945000Y-56963000D02*
X113945000Y-55963000D01*
X131475000Y-56963000D02*
X131475000Y-55963000D01*
X126645000Y-55533000D02*
X126645000Y-55963000D01*
X131475000Y-55533000D02*
X126645000Y-55533000D01*
X131725000Y-55963000D02*
X131475000Y-55533000D01*
X126645000Y-55963000D02*
X126645000Y-56963000D01*
X131725000Y-55963000D02*
X126645000Y-55963000D01*
X131725000Y-56963000D02*
X131725000Y-55963000D01*
X112575000Y-50963000D02*
X133095000Y-50963000D01*
X112575000Y-56963000D02*
X112575000Y-50963000D01*
X133095000Y-56963000D02*
X112575000Y-56963000D01*
X133095000Y-50963000D02*
X133095000Y-56963000D01*
X167755001Y-51583000D02*
X167755001Y-50963000D01*
X169355001Y-51583000D02*
X167755001Y-51583000D01*
X169355001Y-50963000D02*
X169355001Y-51583000D01*
X170295001Y-51583000D02*
X170295001Y-50963000D01*
X171895001Y-51583000D02*
X170295001Y-51583000D01*
X171895001Y-50963000D02*
X171895001Y-51583000D01*
X172835001Y-51583000D02*
X172835001Y-50963000D01*
X174435001Y-51583000D02*
X172835001Y-51583000D01*
X174435001Y-50963000D02*
X174435001Y-51583000D01*
X175375001Y-51583000D02*
X175375001Y-50963000D01*
X176975001Y-51583000D02*
X175375001Y-51583000D01*
X176975001Y-50963000D02*
X176975001Y-51583000D01*
X177915001Y-51583000D02*
X177915001Y-50963000D01*
X179515001Y-51583000D02*
X177915001Y-51583000D01*
X179515001Y-50963000D02*
X179515001Y-51583000D01*
X180455001Y-51583000D02*
X180455001Y-50963000D01*
X182055001Y-51583000D02*
X180455001Y-51583000D01*
X182055001Y-50963000D02*
X182055001Y-51583000D01*
X182995001Y-51583000D02*
X182995001Y-50963000D01*
X184595001Y-51583000D02*
X182995001Y-51583000D01*
X184595001Y-50963000D02*
X184595001Y-51583000D01*
X185535001Y-51583000D02*
X185535001Y-50963000D01*
X187135001Y-51583000D02*
X185535001Y-51583000D01*
X187135001Y-50963000D02*
X187135001Y-51583000D01*
X168805001Y-56963000D02*
X168805001Y-55963000D01*
X173635001Y-55533000D02*
X173635001Y-55963000D01*
X168805001Y-55533000D02*
X173635001Y-55533000D01*
X168555001Y-55963000D02*
X168805001Y-55533000D01*
X173635001Y-55963000D02*
X173635001Y-56963000D01*
X168555001Y-55963000D02*
X173635001Y-55963000D01*
X168555001Y-56963000D02*
X168555001Y-55963000D01*
X186085001Y-56963000D02*
X186085001Y-55963000D01*
X181255001Y-55533000D02*
X181255001Y-55963000D01*
X186085001Y-55533000D02*
X181255001Y-55533000D01*
X186335001Y-55963000D02*
X186085001Y-55533000D01*
X181255001Y-55963000D02*
X181255001Y-56963000D01*
X186335001Y-55963000D02*
X181255001Y-55963000D01*
X186335001Y-56963000D02*
X186335001Y-55963000D01*
X167185001Y-50963000D02*
X187705001Y-50963000D01*
X167185001Y-56963000D02*
X167185001Y-50963000D01*
X187705001Y-56963000D02*
X167185001Y-56963000D01*
X187705001Y-50963000D02*
X187705001Y-56963000D01*
D12*
X193740666Y-56516142D02*
X193788285Y-56563761D01*
X193931142Y-56611380D01*
X194026380Y-56611380D01*
X194169238Y-56563761D01*
X194264476Y-56468523D01*
X194312095Y-56373285D01*
X194359714Y-56182809D01*
X194359714Y-56039952D01*
X194312095Y-55849476D01*
X194264476Y-55754238D01*
X194169238Y-55659000D01*
X194026380Y-55611380D01*
X193931142Y-55611380D01*
X193788285Y-55659000D01*
X193740666Y-55706619D01*
X192788285Y-56611380D02*
X193359714Y-56611380D01*
X193074000Y-56611380D02*
X193074000Y-55611380D01*
X193169238Y-55754238D01*
X193264476Y-55849476D01*
X193359714Y-55897095D01*
X104935785Y-61229880D02*
X104935785Y-60229880D01*
X104697690Y-60229880D01*
X104554833Y-60277500D01*
X104459595Y-60372738D01*
X104411976Y-60467976D01*
X104364357Y-60658452D01*
X104364357Y-60801309D01*
X104411976Y-60991785D01*
X104459595Y-61087023D01*
X104554833Y-61182261D01*
X104697690Y-61229880D01*
X104935785Y-61229880D01*
X103411976Y-61229880D02*
X103983404Y-61229880D01*
X103697690Y-61229880D02*
X103697690Y-60229880D01*
X103792928Y-60372738D01*
X103888166Y-60467976D01*
X103983404Y-60515595D01*
X103031023Y-60325119D02*
X102983404Y-60277500D01*
X102888166Y-60229880D01*
X102650071Y-60229880D01*
X102554833Y-60277500D01*
X102507214Y-60325119D01*
X102459595Y-60420357D01*
X102459595Y-60515595D01*
X102507214Y-60658452D01*
X103078642Y-61229880D01*
X102459595Y-61229880D01*
X110079285Y-61229880D02*
X110079285Y-60229880D01*
X109841190Y-60229880D01*
X109698333Y-60277500D01*
X109603095Y-60372738D01*
X109555476Y-60467976D01*
X109507857Y-60658452D01*
X109507857Y-60801309D01*
X109555476Y-60991785D01*
X109603095Y-61087023D01*
X109698333Y-61182261D01*
X109841190Y-61229880D01*
X110079285Y-61229880D01*
X108555476Y-61229880D02*
X109126904Y-61229880D01*
X108841190Y-61229880D02*
X108841190Y-60229880D01*
X108936428Y-60372738D01*
X109031666Y-60467976D01*
X109126904Y-60515595D01*
X107603095Y-61229880D02*
X108174523Y-61229880D01*
X107888809Y-61229880D02*
X107888809Y-60229880D01*
X107984047Y-60372738D01*
X108079285Y-60467976D01*
X108174523Y-60515595D01*
X115413284Y-61229880D02*
X115413284Y-60229880D01*
X115175189Y-60229880D01*
X115032332Y-60277500D01*
X114937094Y-60372738D01*
X114889475Y-60467976D01*
X114841856Y-60658452D01*
X114841856Y-60801309D01*
X114889475Y-60991785D01*
X114937094Y-61087023D01*
X115032332Y-61182261D01*
X115175189Y-61229880D01*
X115413284Y-61229880D01*
X113889475Y-61229880D02*
X114460903Y-61229880D01*
X114175189Y-61229880D02*
X114175189Y-60229880D01*
X114270427Y-60372738D01*
X114365665Y-60467976D01*
X114460903Y-60515595D01*
X113270427Y-60229880D02*
X113175189Y-60229880D01*
X113079951Y-60277500D01*
X113032332Y-60325119D01*
X112984713Y-60420357D01*
X112937094Y-60610833D01*
X112937094Y-60848928D01*
X112984713Y-61039404D01*
X113032332Y-61134642D01*
X113079951Y-61182261D01*
X113175189Y-61229880D01*
X113270427Y-61229880D01*
X113365665Y-61182261D01*
X113413284Y-61134642D01*
X113460903Y-61039404D01*
X113508522Y-60848928D01*
X113508522Y-60610833D01*
X113460903Y-60420357D01*
X113413284Y-60325119D01*
X113365665Y-60277500D01*
X113270427Y-60229880D01*
X120207595Y-61293380D02*
X120207595Y-60293380D01*
X119969500Y-60293380D01*
X119826642Y-60341000D01*
X119731404Y-60436238D01*
X119683785Y-60531476D01*
X119636166Y-60721952D01*
X119636166Y-60864809D01*
X119683785Y-61055285D01*
X119731404Y-61150523D01*
X119826642Y-61245761D01*
X119969500Y-61293380D01*
X120207595Y-61293380D01*
X119159976Y-61293380D02*
X118969500Y-61293380D01*
X118874261Y-61245761D01*
X118826642Y-61198142D01*
X118731404Y-61055285D01*
X118683785Y-60864809D01*
X118683785Y-60483857D01*
X118731404Y-60388619D01*
X118779023Y-60341000D01*
X118874261Y-60293380D01*
X119064738Y-60293380D01*
X119159976Y-60341000D01*
X119207595Y-60388619D01*
X119255214Y-60483857D01*
X119255214Y-60721952D01*
X119207595Y-60817190D01*
X119159976Y-60864809D01*
X119064738Y-60912428D01*
X118874261Y-60912428D01*
X118779023Y-60864809D01*
X118731404Y-60817190D01*
X118683785Y-60721952D01*
X125478095Y-61229879D02*
X125478095Y-60229879D01*
X125240000Y-60229879D01*
X125097142Y-60277499D01*
X125001904Y-60372737D01*
X124954285Y-60467975D01*
X124906666Y-60658451D01*
X124906666Y-60801308D01*
X124954285Y-60991784D01*
X125001904Y-61087022D01*
X125097142Y-61182260D01*
X125240000Y-61229879D01*
X125478095Y-61229879D01*
X124335238Y-60658451D02*
X124430476Y-60610832D01*
X124478095Y-60563213D01*
X124525714Y-60467975D01*
X124525714Y-60420356D01*
X124478095Y-60325118D01*
X124430476Y-60277499D01*
X124335238Y-60229879D01*
X124144761Y-60229879D01*
X124049523Y-60277499D01*
X124001904Y-60325118D01*
X123954285Y-60420356D01*
X123954285Y-60467975D01*
X124001904Y-60563213D01*
X124049523Y-60610832D01*
X124144761Y-60658451D01*
X124335238Y-60658451D01*
X124430476Y-60706070D01*
X124478095Y-60753689D01*
X124525714Y-60848927D01*
X124525714Y-61039403D01*
X124478095Y-61134641D01*
X124430476Y-61182260D01*
X124335238Y-61229879D01*
X124144761Y-61229879D01*
X124049523Y-61182260D01*
X124001904Y-61134641D01*
X123954285Y-61039403D01*
X123954285Y-60848927D01*
X124001904Y-60753689D01*
X124049523Y-60706070D01*
X124144761Y-60658451D01*
X130939095Y-61166380D02*
X130939095Y-60166380D01*
X130701000Y-60166380D01*
X130558142Y-60214000D01*
X130462904Y-60309238D01*
X130415285Y-60404476D01*
X130367666Y-60594952D01*
X130367666Y-60737809D01*
X130415285Y-60928285D01*
X130462904Y-61023523D01*
X130558142Y-61118761D01*
X130701000Y-61166380D01*
X130939095Y-61166380D01*
X130034333Y-60166380D02*
X129367666Y-60166380D01*
X129796238Y-61166380D01*
X168023095Y-61039380D02*
X168023095Y-60039380D01*
X167785000Y-60039380D01*
X167642142Y-60087000D01*
X167546904Y-60182238D01*
X167499285Y-60277476D01*
X167451666Y-60467952D01*
X167451666Y-60610809D01*
X167499285Y-60801285D01*
X167546904Y-60896523D01*
X167642142Y-60991761D01*
X167785000Y-61039380D01*
X168023095Y-61039380D01*
X166594523Y-60039380D02*
X166785000Y-60039380D01*
X166880238Y-60087000D01*
X166927857Y-60134619D01*
X167023095Y-60277476D01*
X167070714Y-60467952D01*
X167070714Y-60848904D01*
X167023095Y-60944142D01*
X166975476Y-60991761D01*
X166880238Y-61039380D01*
X166689761Y-61039380D01*
X166594523Y-60991761D01*
X166546904Y-60944142D01*
X166499285Y-60848904D01*
X166499285Y-60610809D01*
X166546904Y-60515571D01*
X166594523Y-60467952D01*
X166689761Y-60420333D01*
X166880238Y-60420333D01*
X166975476Y-60467952D01*
X167023095Y-60515571D01*
X167070714Y-60610809D01*
X173166594Y-61102880D02*
X173166594Y-60102880D01*
X172928499Y-60102880D01*
X172785641Y-60150500D01*
X172690403Y-60245738D01*
X172642784Y-60340976D01*
X172595165Y-60531452D01*
X172595165Y-60674309D01*
X172642784Y-60864785D01*
X172690403Y-60960023D01*
X172785641Y-61055261D01*
X172928499Y-61102880D01*
X173166594Y-61102880D01*
X171690403Y-60102880D02*
X172166594Y-60102880D01*
X172214213Y-60579071D01*
X172166594Y-60531452D01*
X172071356Y-60483833D01*
X171833260Y-60483833D01*
X171738022Y-60531452D01*
X171690403Y-60579071D01*
X171642784Y-60674309D01*
X171642784Y-60912404D01*
X171690403Y-61007642D01*
X171738022Y-61055261D01*
X171833260Y-61102880D01*
X172071356Y-61102880D01*
X172166594Y-61055261D01*
X172214213Y-61007642D01*
X178564095Y-61102880D02*
X178564095Y-60102880D01*
X178326000Y-60102880D01*
X178183142Y-60150500D01*
X178087904Y-60245738D01*
X178040285Y-60340976D01*
X177992666Y-60531452D01*
X177992666Y-60674309D01*
X178040285Y-60864785D01*
X178087904Y-60960023D01*
X178183142Y-61055261D01*
X178326000Y-61102880D01*
X178564095Y-61102880D01*
X177135523Y-60436214D02*
X177135523Y-61102880D01*
X177373619Y-60055261D02*
X177611714Y-60769547D01*
X176992666Y-60769547D01*
X183771095Y-61102879D02*
X183771095Y-60102879D01*
X183533000Y-60102879D01*
X183390142Y-60150499D01*
X183294904Y-60245737D01*
X183247285Y-60340975D01*
X183199666Y-60531451D01*
X183199666Y-60674308D01*
X183247285Y-60864784D01*
X183294904Y-60960022D01*
X183390142Y-61055260D01*
X183533000Y-61102879D01*
X183771095Y-61102879D01*
X182866333Y-60102879D02*
X182247285Y-60102879D01*
X182580619Y-60483832D01*
X182437761Y-60483832D01*
X182342523Y-60531451D01*
X182294904Y-60579070D01*
X182247285Y-60674308D01*
X182247285Y-60912403D01*
X182294904Y-61007641D01*
X182342523Y-61055260D01*
X182437761Y-61102879D01*
X182723476Y-61102879D01*
X182818714Y-61055260D01*
X182866333Y-61007641D01*
X189105095Y-61102880D02*
X189105095Y-60102880D01*
X188867000Y-60102880D01*
X188724142Y-60150500D01*
X188628904Y-60245738D01*
X188581285Y-60340976D01*
X188533666Y-60531452D01*
X188533666Y-60674309D01*
X188581285Y-60864785D01*
X188628904Y-60960023D01*
X188724142Y-61055261D01*
X188867000Y-61102880D01*
X189105095Y-61102880D01*
X188152714Y-60198119D02*
X188105095Y-60150500D01*
X188009857Y-60102880D01*
X187771761Y-60102880D01*
X187676523Y-60150500D01*
X187628904Y-60198119D01*
X187581285Y-60293357D01*
X187581285Y-60388595D01*
X187628904Y-60531452D01*
X188200333Y-61102880D01*
X187581285Y-61102880D01*
X194502595Y-61102880D02*
X194502595Y-60102880D01*
X194264500Y-60102880D01*
X194121642Y-60150500D01*
X194026404Y-60245738D01*
X193978785Y-60340976D01*
X193931166Y-60531452D01*
X193931166Y-60674309D01*
X193978785Y-60864785D01*
X194026404Y-60960023D01*
X194121642Y-61055261D01*
X194264500Y-61102880D01*
X194502595Y-61102880D01*
X192978785Y-61102880D02*
X193550214Y-61102880D01*
X193264500Y-61102880D02*
X193264500Y-60102880D01*
X193359738Y-60245738D01*
X193454976Y-60340976D01*
X193550214Y-60388595D01*
X53964285Y-80062380D02*
X53964285Y-79062380D01*
X53392857Y-80062380D02*
X53821428Y-79490952D01*
X53392857Y-79062380D02*
X53964285Y-79633809D01*
X52440476Y-80062380D02*
X53011904Y-80062380D01*
X52726190Y-80062380D02*
X52726190Y-79062380D01*
X52821428Y-79205238D01*
X52916666Y-79300476D01*
X53011904Y-79348095D01*
X51869047Y-79490952D02*
X51964285Y-79443333D01*
X52011904Y-79395714D01*
X52059523Y-79300476D01*
X52059523Y-79252857D01*
X52011904Y-79157619D01*
X51964285Y-79110000D01*
X51869047Y-79062380D01*
X51678571Y-79062380D01*
X51583333Y-79110000D01*
X51535714Y-79157619D01*
X51488095Y-79252857D01*
X51488095Y-79300476D01*
X51535714Y-79395714D01*
X51583333Y-79443333D01*
X51678571Y-79490952D01*
X51869047Y-79490952D01*
X51964285Y-79538571D01*
X52011904Y-79586190D01*
X52059523Y-79681428D01*
X52059523Y-79871904D01*
X52011904Y-79967142D01*
X51964285Y-80014761D01*
X51869047Y-80062380D01*
X51678571Y-80062380D01*
X51583333Y-80014761D01*
X51535714Y-79967142D01*
X51488095Y-79871904D01*
X51488095Y-79681428D01*
X51535714Y-79586190D01*
X51583333Y-79538571D01*
X51678571Y-79490952D01*
X84464285Y-65202380D02*
X84464285Y-64202380D01*
X83892857Y-65202380D02*
X84321428Y-64630952D01*
X83892857Y-64202380D02*
X84464285Y-64773809D01*
X82940476Y-65202380D02*
X83511904Y-65202380D01*
X83226190Y-65202380D02*
X83226190Y-64202380D01*
X83321428Y-64345238D01*
X83416666Y-64440476D01*
X83511904Y-64488095D01*
X82607142Y-64202380D02*
X81940476Y-64202380D01*
X82369047Y-65202380D01*
X114714285Y-65202380D02*
X114714285Y-64202380D01*
X114142857Y-65202380D02*
X114571428Y-64630952D01*
X114142857Y-64202380D02*
X114714285Y-64773809D01*
X113190476Y-65202380D02*
X113761904Y-65202380D01*
X113476190Y-65202380D02*
X113476190Y-64202380D01*
X113571428Y-64345238D01*
X113666666Y-64440476D01*
X113761904Y-64488095D01*
X112333333Y-64202380D02*
X112523809Y-64202380D01*
X112619047Y-64250000D01*
X112666666Y-64297619D01*
X112761904Y-64440476D01*
X112809523Y-64630952D01*
X112809523Y-65011904D01*
X112761904Y-65107142D01*
X112714285Y-65154761D01*
X112619047Y-65202380D01*
X112428571Y-65202380D01*
X112333333Y-65154761D01*
X112285714Y-65107142D01*
X112238095Y-65011904D01*
X112238095Y-64773809D01*
X112285714Y-64678571D01*
X112333333Y-64630952D01*
X112428571Y-64583333D01*
X112619047Y-64583333D01*
X112714285Y-64630952D01*
X112761904Y-64678571D01*
X112809523Y-64773809D01*
X186025285Y-65396380D02*
X186025285Y-64396380D01*
X185453857Y-65396380D02*
X185882428Y-64824952D01*
X185453857Y-64396380D02*
X186025285Y-64967809D01*
X184501476Y-65396380D02*
X185072904Y-65396380D01*
X184787190Y-65396380D02*
X184787190Y-64396380D01*
X184882428Y-64539238D01*
X184977666Y-64634476D01*
X185072904Y-64682095D01*
X183596714Y-64396380D02*
X184072904Y-64396380D01*
X184120523Y-64872571D01*
X184072904Y-64824952D01*
X183977666Y-64777333D01*
X183739571Y-64777333D01*
X183644333Y-64824952D01*
X183596714Y-64872571D01*
X183549095Y-64967809D01*
X183549095Y-65205904D01*
X183596714Y-65301142D01*
X183644333Y-65348761D01*
X183739571Y-65396380D01*
X183977666Y-65396380D01*
X184072904Y-65348761D01*
X184120523Y-65301142D01*
X216251285Y-65396381D02*
X216251285Y-64396381D01*
X215679857Y-65396381D02*
X216108428Y-64824953D01*
X215679857Y-64396381D02*
X216251285Y-64967810D01*
X214727476Y-65396381D02*
X215298904Y-65396381D01*
X215013190Y-65396381D02*
X215013190Y-64396381D01*
X215108428Y-64539239D01*
X215203666Y-64634477D01*
X215298904Y-64682096D01*
X213870333Y-64729715D02*
X213870333Y-65396381D01*
X214108428Y-64348762D02*
X214346523Y-65063048D01*
X213727476Y-65063048D01*
X246223285Y-65396380D02*
X246223285Y-64396380D01*
X245651857Y-65396380D02*
X246080428Y-64824952D01*
X245651857Y-64396380D02*
X246223285Y-64967809D01*
X244699476Y-65396380D02*
X245270904Y-65396380D01*
X244985190Y-65396380D02*
X244985190Y-64396380D01*
X245080428Y-64539238D01*
X245175666Y-64634476D01*
X245270904Y-64682095D01*
X244366142Y-64396380D02*
X243747095Y-64396380D01*
X244080428Y-64777333D01*
X243937571Y-64777333D01*
X243842333Y-64824952D01*
X243794714Y-64872571D01*
X243747095Y-64967809D01*
X243747095Y-65205904D01*
X243794714Y-65301142D01*
X243842333Y-65348761D01*
X243937571Y-65396380D01*
X244223285Y-65396380D01*
X244318523Y-65348761D01*
X244366142Y-65301142D01*
X70702380Y-89035714D02*
X69702380Y-89035714D01*
X70702380Y-89607142D02*
X70130952Y-89178571D01*
X69702380Y-89607142D02*
X70273809Y-89035714D01*
X70702380Y-90559523D02*
X70702380Y-89988095D01*
X70702380Y-90273809D02*
X69702380Y-90273809D01*
X69845238Y-90178571D01*
X69940476Y-90083333D01*
X69988095Y-89988095D01*
X69797619Y-90940476D02*
X69750000Y-90988095D01*
X69702380Y-91083333D01*
X69702380Y-91321428D01*
X69750000Y-91416666D01*
X69797619Y-91464285D01*
X69892857Y-91511904D01*
X69988095Y-91511904D01*
X70130952Y-91464285D01*
X70702380Y-90892857D01*
X70702380Y-91511904D01*
X103896380Y-89035714D02*
X102896380Y-89035714D01*
X103896380Y-89607142D02*
X103324952Y-89178571D01*
X102896380Y-89607142D02*
X103467809Y-89035714D01*
X103896380Y-90559523D02*
X103896380Y-89988095D01*
X103896380Y-90273809D02*
X102896380Y-90273809D01*
X103039238Y-90178571D01*
X103134476Y-90083333D01*
X103182095Y-89988095D01*
X103896380Y-91511904D02*
X103896380Y-90940476D01*
X103896380Y-91226190D02*
X102896380Y-91226190D01*
X103039238Y-91130952D01*
X103134476Y-91035714D01*
X103182095Y-90940476D01*
X136749380Y-89035714D02*
X135749380Y-89035714D01*
X136749380Y-89607142D02*
X136177952Y-89178571D01*
X135749380Y-89607142D02*
X136320809Y-89035714D01*
X136749380Y-90559523D02*
X136749380Y-89988095D01*
X136749380Y-90273809D02*
X135749380Y-90273809D01*
X135892238Y-90178571D01*
X135987476Y-90083333D01*
X136035095Y-89988095D01*
X135749380Y-91178571D02*
X135749380Y-91273809D01*
X135797000Y-91369047D01*
X135844619Y-91416666D01*
X135939857Y-91464285D01*
X136130333Y-91511904D01*
X136368428Y-91511904D01*
X136558904Y-91464285D01*
X136654142Y-91416666D01*
X136701761Y-91369047D01*
X136749380Y-91273809D01*
X136749380Y-91178571D01*
X136701761Y-91083333D01*
X136654142Y-91035714D01*
X136558904Y-90988095D01*
X136368428Y-90940476D01*
X136130333Y-90940476D01*
X135939857Y-90988095D01*
X135844619Y-91035714D01*
X135797000Y-91083333D01*
X135749380Y-91178571D01*
X169896380Y-89988095D02*
X168896380Y-89988095D01*
X169896380Y-90559524D02*
X169324952Y-90130952D01*
X168896380Y-90559524D02*
X169467809Y-89988095D01*
X169896380Y-91035714D02*
X169896380Y-91226191D01*
X169848761Y-91321429D01*
X169801142Y-91369048D01*
X169658285Y-91464286D01*
X169467809Y-91511905D01*
X169086857Y-91511905D01*
X168991619Y-91464286D01*
X168944000Y-91416667D01*
X168896380Y-91321429D01*
X168896380Y-91130952D01*
X168944000Y-91035714D01*
X168991619Y-90988095D01*
X169086857Y-90940476D01*
X169324952Y-90940476D01*
X169420190Y-90988095D01*
X169467809Y-91035714D01*
X169515428Y-91130952D01*
X169515428Y-91321429D01*
X169467809Y-91416667D01*
X169420190Y-91464286D01*
X169324952Y-91511905D01*
X202281380Y-89988095D02*
X201281380Y-89988095D01*
X202281380Y-90559524D02*
X201709952Y-90130952D01*
X201281380Y-90559524D02*
X201852809Y-89988095D01*
X201709952Y-91130952D02*
X201662333Y-91035714D01*
X201614714Y-90988095D01*
X201519476Y-90940476D01*
X201471857Y-90940476D01*
X201376619Y-90988095D01*
X201329000Y-91035714D01*
X201281380Y-91130952D01*
X201281380Y-91321429D01*
X201329000Y-91416667D01*
X201376619Y-91464286D01*
X201471857Y-91511905D01*
X201519476Y-91511905D01*
X201614714Y-91464286D01*
X201662333Y-91416667D01*
X201709952Y-91321429D01*
X201709952Y-91130952D01*
X201757571Y-91035714D01*
X201805190Y-90988095D01*
X201900428Y-90940476D01*
X202090904Y-90940476D01*
X202186142Y-90988095D01*
X202233761Y-91035714D01*
X202281380Y-91130952D01*
X202281380Y-91321429D01*
X202233761Y-91416667D01*
X202186142Y-91464286D01*
X202090904Y-91511905D01*
X201900428Y-91511905D01*
X201805190Y-91464286D01*
X201757571Y-91416667D01*
X201709952Y-91321429D01*
X235396380Y-89988095D02*
X234396380Y-89988095D01*
X235396380Y-90559524D02*
X234824952Y-90130952D01*
X234396380Y-90559524D02*
X234967809Y-89988095D01*
X234396380Y-90892857D02*
X234396380Y-91559524D01*
X235396380Y-91130952D01*
X80266095Y-127702381D02*
X80266095Y-126702381D01*
X79694666Y-127702381D02*
X80123238Y-127130953D01*
X79694666Y-126702381D02*
X80266095Y-127273810D01*
X78837523Y-126702381D02*
X79028000Y-126702381D01*
X79123238Y-126750001D01*
X79170857Y-126797620D01*
X79266095Y-126940477D01*
X79313714Y-127130953D01*
X79313714Y-127511905D01*
X79266095Y-127607143D01*
X79218476Y-127654762D01*
X79123238Y-127702381D01*
X78932761Y-127702381D01*
X78837523Y-127654762D01*
X78789904Y-127607143D01*
X78742285Y-127511905D01*
X78742285Y-127273810D01*
X78789904Y-127178572D01*
X78837523Y-127130953D01*
X78932761Y-127083334D01*
X79123238Y-127083334D01*
X79218476Y-127130953D01*
X79266095Y-127178572D01*
X79313714Y-127273810D01*
X111635095Y-127702381D02*
X111635095Y-126702381D01*
X111063666Y-127702381D02*
X111492238Y-127130953D01*
X111063666Y-126702381D02*
X111635095Y-127273810D01*
X110158904Y-126702381D02*
X110635095Y-126702381D01*
X110682714Y-127178572D01*
X110635095Y-127130953D01*
X110539857Y-127083334D01*
X110301761Y-127083334D01*
X110206523Y-127130953D01*
X110158904Y-127178572D01*
X110111285Y-127273810D01*
X110111285Y-127511905D01*
X110158904Y-127607143D01*
X110206523Y-127654762D01*
X110301761Y-127702381D01*
X110539857Y-127702381D01*
X110635095Y-127654762D01*
X110682714Y-127607143D01*
X142115095Y-127702381D02*
X142115095Y-126702381D01*
X141543666Y-127702381D02*
X141972238Y-127130953D01*
X141543666Y-126702381D02*
X142115095Y-127273810D01*
X140686523Y-127035715D02*
X140686523Y-127702381D01*
X140924619Y-126654762D02*
X141162714Y-127369048D01*
X140543666Y-127369048D01*
X185549095Y-127702381D02*
X185549095Y-126702381D01*
X184977666Y-127702381D02*
X185406238Y-127130953D01*
X184977666Y-126702381D02*
X185549095Y-127273810D01*
X184644333Y-126702381D02*
X184025285Y-126702381D01*
X184358619Y-127083334D01*
X184215761Y-127083334D01*
X184120523Y-127130953D01*
X184072904Y-127178572D01*
X184025285Y-127273810D01*
X184025285Y-127511905D01*
X184072904Y-127607143D01*
X184120523Y-127654762D01*
X184215761Y-127702381D01*
X184501476Y-127702381D01*
X184596714Y-127654762D01*
X184644333Y-127607143D01*
X202138095Y-127702381D02*
X202138095Y-126702381D01*
X201566666Y-127702381D02*
X201995238Y-127130953D01*
X201566666Y-126702381D02*
X202138095Y-127273810D01*
X201185714Y-126797620D02*
X201138095Y-126750001D01*
X201042857Y-126702381D01*
X200804761Y-126702381D01*
X200709523Y-126750001D01*
X200661904Y-126797620D01*
X200614285Y-126892858D01*
X200614285Y-126988096D01*
X200661904Y-127130953D01*
X201233333Y-127702381D01*
X200614285Y-127702381D01*
X235438095Y-127702381D02*
X235438095Y-126702381D01*
X234866666Y-127702381D02*
X235295238Y-127130953D01*
X234866666Y-126702381D02*
X235438095Y-127273810D01*
X233914285Y-127702381D02*
X234485714Y-127702381D01*
X234200000Y-127702381D02*
X234200000Y-126702381D01*
X234295238Y-126845239D01*
X234390476Y-126940477D01*
X234485714Y-126988096D01*
M02*
