M48
; DRILL file {KiCad (5.1.10)-1} date 09/11/23 23:26:40
; FORMAT={-:-/ absolute / metric / decimal}
; #@! TF.CreationDate,2023-09-11T23:26:40+08:00
; #@! TF.GenerationSoftware,Kicad,Pcbnew,(5.1.10)-1
; #@! TF.FileFunction,Plated,1,2,PTH
FMAT,2
METRIC
T1C0.400
T2C0.600
T3C1.200
T4C1.300
T5C3.500
T6C4.400
%
G90
G05
T1
X52.145Y-52.697
X53.13Y-85.88
X53.239Y-131.453
X54.255Y-111.387
X54.505Y-83.498
X54.505Y-88.262
X55.345Y-52.697
X57.255Y-83.498
X57.255Y-88.262
X57.86Y-137.295
X57.938Y-108.593
X58.446Y-133.104
X58.63Y-85.88
X58.876Y-52.824
X60.224Y-98.687
X60.859Y-105.545
X61.06Y-137.295
X61.621Y-102.878
X62.076Y-52.824
X63.145Y-105.291
X64.26Y-137.295
X64.669Y-118.499
X64.669Y-120.531
X65.0Y-85.5
X65.276Y-52.824
X65.5Y-88.0
X66.574Y-78.494
X67.209Y-113.8
X67.46Y-137.295
X68.098Y-123.579
X68.476Y-52.824
X68.606Y-71.382
X68.606Y-73.414
X70.66Y-137.295
X70.765Y-132.977
X71.676Y-52.824
X71.908Y-113.8
X73.86Y-137.295
X74.876Y-52.824
X75.083Y-88.146
X75.337Y-63.0
X75.845Y-123.706
X75.972Y-82.558
X76.48Y-113.8
X76.734Y-80.145
X76.988Y-89.924
X77.06Y-137.295
X78.076Y-52.824
X78.385Y-92.718
X78.639Y-80.653
X79.147Y-58.809
X79.909Y-94.75
X80.26Y-137.295
X80.798Y-79.891
X80.798Y-118.499
X80.798Y-120.912
X81.276Y-52.824
X82.83Y-72.017
X83.46Y-137.295
X84.476Y-52.824
X84.608Y-58.936
X86.13Y-85.88
X86.132Y-109.482
X86.513Y-132.977
X86.66Y-137.295
X87.021Y-68.08
X87.505Y-83.498
X87.505Y-88.262
X87.676Y-52.824
X87.783Y-110.371
X89.86Y-137.295
X90.255Y-83.498
X90.255Y-88.262
X90.323Y-107.958
X90.876Y-52.824
X91.63Y-85.88
X92.101Y-58.936
X93.06Y-137.295
X93.498Y-99.449
X93.498Y-105.164
X93.752Y-101.989
X94.076Y-52.824
X95.022Y-68.08
X95.276Y-118.372
X95.276Y-120.531
X95.911Y-104.91
X96.26Y-137.295
X97.276Y-52.824
X97.816Y-86.368
X97.943Y-82.177
X97.943Y-132.977
X98.832Y-71.001
X98.832Y-73.414
X98.959Y-78.75
X98.959Y-123.452
X99.086Y-113.927
X99.213Y-59.063
X99.46Y-137.295
X100.476Y-52.824
X102.007Y-57.92
X102.66Y-137.295
X103.277Y-123.452
X103.658Y-113.8
X103.676Y-52.824
X105.86Y-137.295
X106.352Y-59.054
X106.876Y-52.824
X107.722Y-123.452
X107.849Y-80.526
X109.06Y-137.295
X109.246Y-89.162
X110.076Y-52.824
X111.659Y-92.337
X111.659Y-95.258
X111.659Y-132.977
X111.668Y-59.072
X112.26Y-137.295
X112.675Y-71.128
X112.675Y-73.668
X114.707Y-95.258
X115.46Y-137.295
X116.104Y-68.08
X117.02Y-59.054
X118.644Y-109.228
X118.66Y-137.295
X119.13Y-85.88
X119.406Y-68.08
X120.041Y-108.593
X120.505Y-83.498
X120.505Y-88.262
X121.438Y-106.815
X121.86Y-137.295
X123.255Y-83.498
X123.255Y-88.262
X123.543Y-57.866
X123.851Y-68.08
X123.851Y-132.977
X124.63Y-85.88
X125.06Y-137.295
X125.756Y-105.037
X126.518Y-99.322
X126.772Y-102.116
X128.26Y-137.295
X128.931Y-104.91
X128.94Y-57.802
X129.0Y-85.5
X129.185Y-73.287
X129.312Y-80.78
X129.693Y-113.927
X129.947Y-123.198
X130.5Y-87.25
X131.46Y-137.295
X131.979Y-132.977
X134.519Y-113.8
X134.66Y-137.295
X134.773Y-59.317
X135.676Y-52.824
X136.424Y-123.198
X137.313Y-113.8
X137.948Y-80.399
X138.498Y-134.245
X138.498Y-136.995
X140.88Y-132.87
X140.88Y-138.37
X141.25Y-59.317
X141.504Y-79.256
X142.52Y-71.382
X142.647Y-68.08
X142.647Y-75.7
X143.262Y-134.245
X143.262Y-136.995
X144.425Y-95.385
X144.425Y-91.575
X145.06Y-58.809
X145.06Y-68.08
X147.46Y-137.295
X150.66Y-137.295
X152.13Y-85.88
X153.505Y-83.498
X153.505Y-88.262
X153.86Y-137.295
X154.458Y-68.08
X154.839Y-58.809
X155.474Y-69.985
X155.474Y-74.684
X155.474Y-117.229
X155.601Y-120.277
X155.855Y-79.129
X156.236Y-112.53
X156.255Y-83.498
X156.255Y-88.262
X156.738Y-53.005
X156.738Y-55.755
X157.06Y-137.295
X157.63Y-85.88
X159.12Y-51.63
X159.12Y-57.13
X159.411Y-99.449
X160.173Y-103.513
X160.26Y-137.295
X160.427Y-80.526
X160.427Y-84.463
X160.681Y-87.257
X160.808Y-111.387
X161.502Y-53.005
X161.502Y-55.755
X162.332Y-109.228
X163.348Y-106.561
X163.46Y-137.295
X164.476Y-52.824
X165.634Y-57.92
X166.66Y-137.295
X169.19Y-73.541
X169.19Y-71.001
X169.317Y-79.256
X169.317Y-81.669
X169.825Y-58.936
X169.86Y-137.295
X170.079Y-118.626
X170.079Y-120.404
X172.111Y-68.08
X172.365Y-132.85
X172.619Y-114.181
X173.06Y-137.295
X173.381Y-123.96
X175.068Y-58.936
X175.54Y-89.289
X175.794Y-68.08
X176.175Y-114.181
X176.26Y-137.295
X177.699Y-92.591
X177.953Y-95.004
X177.953Y-132.85
X179.46Y-137.295
X179.477Y-68.08
X180.493Y-58.936
X181.001Y-95.131
X181.763Y-114.308
X181.89Y-123.96
X182.66Y-137.295
X185.13Y-85.88
X185.573Y-71.509
X185.573Y-73.668
X185.736Y-59.19
X185.86Y-137.295
X185.954Y-79.129
X186.505Y-83.498
X186.505Y-88.262
X187.732Y-132.85
X189.06Y-137.295
X189.129Y-80.399
X189.255Y-83.498
X189.255Y-88.262
X190.63Y-85.88
X191.17Y-59.054
X192.177Y-99.83
X192.26Y-137.295
X192.685Y-109.228
X193.193Y-103.386
X194.463Y-86.876
X195.46Y-137.295
X195.606Y-105.672
X198.654Y-132.85
X198.66Y-137.295
X199.289Y-78.494
X199.416Y-71.128
X199.416Y-73.414
X199.676Y-52.824
X200.686Y-80.78
X201.86Y-137.295
X201.956Y-113.546
X202.845Y-67.699
X202.876Y-52.824
X203.226Y-83.32
X203.48Y-123.452
X203.734Y-68.715
X205.06Y-137.295
X205.131Y-59.444
X206.076Y-52.824
X206.401Y-69.096
X208.052Y-88.146
X208.26Y-137.295
X209.276Y-52.824
X209.322Y-113.673
X209.83Y-132.85
X210.338Y-69.096
X210.973Y-90.686
X211.1Y-123.452
X211.46Y-137.295
X212.476Y-52.824
X213.513Y-93.988
X214.66Y-137.295
X215.037Y-59.444
X215.418Y-70.747
X215.418Y-72.271
X215.676Y-52.824
X216.688Y-79.51
X217.323Y-98.433
X217.323Y-104.021
X217.45Y-109.355
X217.86Y-137.295
X218.13Y-85.88
X218.876Y-52.824
X219.101Y-132.342
X219.505Y-83.498
X219.505Y-88.262
X219.736Y-80.653
X220.371Y-60.206
X221.06Y-137.295
X221.387Y-110.498
X221.768Y-81.034
X222.076Y-52.824
X222.255Y-83.498
X222.255Y-88.262
X222.657Y-128.786
X223.038Y-62.365
X223.63Y-85.88
X224.26Y-137.295
X224.562Y-64.016
X225.197Y-127.643
X225.276Y-52.824
X225.451Y-99.83
X226.721Y-86.495
X226.848Y-105.164
X227.356Y-64.651
X227.46Y-137.295
X228.476Y-52.824
X228.499Y-126.627
X228.626Y-88.527
X229.515Y-72.271
X229.642Y-119.134
X230.66Y-137.295
X231.676Y-52.824
X231.928Y-113.546
X232.055Y-78.367
X233.86Y-137.295
X234.341Y-98.687
X234.849Y-113.546
X234.876Y-52.824
X235.357Y-81.796
X236.373Y-95.766
X237.06Y-137.295
X238.076Y-52.824
X238.405Y-113.419
X240.26Y-137.295
X241.276Y-52.824
X242.215Y-113.546
X243.46Y-137.295
X244.476Y-52.824
X246.66Y-137.295
X247.041Y-95.131
X247.676Y-52.824
X247.93Y-113.292
T2
X77.115Y-61.222
X90.958Y-67.826
X126.391Y-68.08
X126.391Y-69.604
X129.058Y-71.001
X181.509Y-67.826
X182.906Y-69.35
X194.907Y-51.57
X195.035Y-53.856
X237.135Y-68.461
T3
X113.945Y-53.983
X116.485Y-53.983
X119.025Y-53.983
X121.565Y-53.983
X124.105Y-53.983
X126.645Y-53.983
X129.185Y-53.983
X131.725Y-53.983
X168.555Y-53.983
X171.095Y-53.983
X173.635Y-53.983
X176.175Y-53.983
X178.715Y-53.983
X181.255Y-53.983
X183.795Y-53.983
X186.335Y-53.983
T4
X53.42Y-68.554
X53.42Y-76.054
X54.528Y-115.713
X54.528Y-123.213
X59.528Y-115.713
X59.528Y-123.213
X64.528Y-115.713
X64.528Y-123.213
X68.42Y-68.554
X68.42Y-76.054
X73.42Y-68.554
X73.42Y-76.054
X74.0Y-84.5
X74.0Y-99.5
X74.0Y-104.5
X74.0Y-109.5
X78.42Y-68.554
X78.42Y-76.054
X79.528Y-115.713
X79.528Y-123.213
X81.5Y-84.5
X81.5Y-99.5
X81.5Y-104.5
X81.5Y-109.5
X83.34Y-68.554
X83.34Y-76.054
X85.897Y-115.586
X85.897Y-123.086
X90.897Y-115.586
X90.897Y-123.086
X95.897Y-115.586
X95.897Y-123.086
X98.34Y-68.554
X98.34Y-76.054
X103.34Y-68.554
X103.34Y-76.054
X107.0Y-84.5
X107.0Y-99.5
X107.0Y-104.5
X107.0Y-109.5
X108.34Y-68.554
X108.34Y-76.054
X110.897Y-115.586
X110.897Y-123.086
X113.52Y-68.554
X113.52Y-76.054
X114.5Y-84.5
X114.5Y-99.5
X114.5Y-104.5
X114.5Y-109.5
X116.377Y-115.586
X116.377Y-123.086
X121.377Y-115.586
X121.377Y-123.086
X126.377Y-115.586
X126.377Y-123.086
X128.52Y-68.554
X128.52Y-76.054
X133.52Y-68.554
X133.52Y-76.054
X138.52Y-68.554
X138.52Y-76.054
X139.853Y-84.5
X139.853Y-99.5
X139.853Y-104.5
X139.853Y-109.5
X141.377Y-115.586
X141.377Y-123.086
X147.353Y-84.5
X147.353Y-99.5
X147.353Y-104.5
X147.353Y-109.5
X159.811Y-68.5
X159.811Y-76.0
X159.811Y-115.713
X159.811Y-123.213
X164.811Y-68.5
X164.811Y-76.0
X164.811Y-115.713
X164.811Y-123.213
X169.811Y-68.5
X169.811Y-76.0
X169.811Y-115.713
X169.811Y-123.213
X173.0Y-84.5
X173.0Y-99.5
X173.0Y-104.5
X173.0Y-109.5
X180.5Y-84.5
X180.5Y-99.5
X180.5Y-104.5
X180.5Y-109.5
X184.811Y-68.5
X184.811Y-76.0
X184.811Y-115.713
X184.811Y-123.213
X190.037Y-68.5
X190.037Y-76.0
X190.037Y-115.713
X190.037Y-123.213
X195.037Y-68.5
X195.037Y-76.0
X195.037Y-115.713
X195.037Y-123.213
X200.037Y-68.5
X200.037Y-76.0
X200.037Y-115.713
X200.037Y-123.213
X205.385Y-84.5
X205.385Y-99.5
X205.385Y-104.5
X205.385Y-109.5
X212.885Y-84.5
X212.885Y-99.5
X212.885Y-104.5
X212.885Y-109.5
X215.037Y-68.5
X215.037Y-76.0
X215.037Y-115.713
X215.037Y-123.213
X220.009Y-68.5
X220.009Y-76.0
X220.009Y-115.713
X220.009Y-123.213
X225.009Y-68.5
X225.009Y-76.0
X225.009Y-115.713
X225.009Y-123.213
X230.009Y-68.5
X230.009Y-76.0
X230.009Y-115.713
X230.009Y-123.213
X238.5Y-84.5
X238.5Y-99.5
X238.5Y-104.5
X238.5Y-109.5
X245.009Y-68.5
X245.009Y-76.0
X245.009Y-115.713
X245.009Y-123.213
X246.0Y-84.5
X246.0Y-99.5
X246.0Y-104.5
X246.0Y-109.5
T5
X55.88Y-85.88
X88.88Y-85.88
X121.88Y-85.88
X140.88Y-135.62
X154.88Y-85.88
X159.12Y-54.38
X187.88Y-85.88
X220.88Y-85.88
T6
X65.0Y-95.0
X98.0Y-95.0
X131.0Y-95.0
X150.0Y-63.5
X150.0Y-126.5
X164.0Y-95.0
X197.0Y-95.0
X230.0Y-95.0
T0
M30
