M48
;DRILL file {KiCad (6.0.0-rc1-dev-882-gdbc9130da)} date 2019/8/28 14:52:49
;FORMAT={-:-/ absolute / metric / decimal}
FMAT,2
METRIC
T1C0.400
T2C0.600
T3C0.700
T4C0.800
T5C0.890
T6C0.900
T7C1.020
T8C1.100
T9C1.200
T10C1.400
T11C1.630
T12C2.000
T13C3.500
%
G90
G05
M71
T1
X51.705Y-115.1
X52.222Y-111.938
X52.273Y-120.879
X52.299Y-69.164
X52.324Y-90.653
X52.324Y-97.003
X52.4Y-84.506
X52.451Y-60.554
X52.451Y-65.227
X52.527Y-133.096
X52.654Y-139.624
X53.872Y-106.286
X54.102Y-70.358
X54.736Y-115.062
X55.244Y-90.754
X55.802Y-94.932
X55.84Y-109.817
X55.905Y-125.755
X56.971Y-90.526
X57.023Y-70.866
X57.379Y-84.506
X57.582Y-133.045
X57.633Y-139.573
X58.533Y-90.805
X59.182Y-51.791
X59.435Y-100.343
X59.461Y-97.714
X59.701Y-109.893
X60.071Y-148.184
X60.147Y-144.932
X60.554Y-130.099
X60.604Y-132.994
X60.604Y-138.608
X60.997Y-100.432
X62.089Y-113.538
X62.533Y-99.517
X63.144Y-51.765
X63.297Y-97.663
X63.714Y-113.271
X64.135Y-60.503
X64.16Y-148.158
X64.338Y-125.806
X64.962Y-113.227
X66.178Y-109.88
X66.548Y-123.482
X66.624Y-89.375
X66.966Y-64.3
X67.539Y-86.741
X68.25Y-146.507
X68.896Y-118.585
X68.919Y-120.738
X69.114Y-92.161
X69.563Y-123.159
X70.153Y-64.3
X70.663Y-60.554
X71.398Y-114.986
X72.009Y-88.519
X72.482Y-104.965
X72.868Y-103.601
X72.871Y-92.702
X72.935Y-123.274
X73.024Y-114.694
X73.697Y-105.277
X73.786Y-72.504
X73.973Y-146.621
X75.311Y-88.392
X75.719Y-123.274
X77.404Y-123.231
X77.761Y-132.799
X78.281Y-89.738
X78.878Y-60.655
X79.149Y-110.841
X79.331Y-133.271
X80.182Y-91.793
X80.644Y-90.627
X81.228Y-98.044
X81.991Y-66.726
X82.015Y-115.633
X82.022Y-104.125
X82.083Y-114.381
X82.145Y-113.129
X83.692Y-98.565
X83.711Y-126.468
X83.768Y-90.589
X83.819Y-88.319
X83.971Y-120.244
X83.995Y-105.794
X84.035Y-102.515
X84.074Y-146.05
X84.136Y-99.924
X84.136Y-96.431
X84.298Y-142.392
X84.619Y-127.338
X86.893Y-73.635
X86.97Y-77.724
X87.198Y-84.939
X87.376Y-81.661
X87.425Y-109.944
X87.489Y-101.816
X87.499Y-94.698
X87.59Y-100.305
X87.654Y-98.781
X87.748Y-104.192
X87.959Y-92.862
X88.738Y-83.747
X88.873Y-79.781
X89.015Y-96.31
X89.064Y-110.934
X89.102Y-112.204
X89.29Y-86.614
X89.661Y-53.162
X89.686Y-55.169
X89.711Y-51.168
X90.678Y-64.846
X91.527Y-55.575
X92.045Y-147.739
X92.526Y-94.035
X92.526Y-96.47
X92.543Y-51.054
X92.569Y-61.951
X92.81Y-103.95
X92.812Y-76.479
X92.899Y-106.502
X93.356Y-57.874
X94.353Y-57.874
X94.513Y-86.309
X94.639Y-52.299
X95.223Y-51.168
X95.35Y-57.874
X95.352Y-91.834
X95.944Y-60.741
X96.723Y-68.148
X97.471Y-60.896
X97.663Y-148.209
X98.806Y-56.54
X99.414Y-52.299
X100.098Y-121.896
X100.101Y-78.765
X100.443Y-123.101
X100.903Y-120.934
X100.903Y-87.033
X101.649Y-94.173
X101.656Y-92.769
X101.784Y-81.978
X102.108Y-148.209
X102.133Y-118.669
X102.665Y-76.556
X102.665Y-99.479
X103.022Y-51.74
X103.81Y-137.592
X103.835Y-140.36
X103.861Y-135.153
X103.937Y-126.619
X103.937Y-132.537
X104.512Y-103.95
X105.18Y-122.441
X105.207Y-108.128
X106.223Y-117.627
X106.475Y-122.352
X106.578Y-95.733
X106.629Y-148.107
X107.377Y-89.09
X107.479Y-102.87
X107.989Y-99.599
X108.271Y-122.102
X108.712Y-51.613
X108.888Y-109.601
X109.239Y-99.5
X109.988Y-100.506
X111.293Y-89.633
X111.299Y-109.541
X111.517Y-115.557
X111.555Y-111.303
X111.75Y-100.876
X111.989Y-148.107
X112.864Y-90.043
X113.03Y-114.046
X113.793Y-121.994
X113.873Y-109.634
X114.007Y-92.24
X114.294Y-72.687
X114.299Y-74.066
X114.376Y-51.613
X115.571Y-122.875
X116.629Y-74.163
X116.651Y-72.909
X116.737Y-104.201
X116.891Y-79.4
X116.942Y-77.216
X116.992Y-148.006
X117.068Y-98.438
X117.383Y-112.72
X117.755Y-82.963
X117.984Y-134.324
X118.05Y-117.918
X118.352Y-114.991
X118.41Y-110.429
X118.491Y-128.676
X118.796Y-52.705
X119.671Y-133.815
X119.724Y-109.322
X119.888Y-67.945
X119.888Y-69.545
X120.143Y-128.609
X120.269Y-72.771
X120.397Y-123.148
X120.687Y-134.958
X120.763Y-100.956
X120.842Y-108.754
X120.912Y-106.925
X120.966Y-84.328
X120.991Y-102.413
X121.034Y-99.731
X121.387Y-127.305
X121.488Y-67.945
X121.488Y-69.545
X121.703Y-128.862
X122.084Y-134.45
X122.25Y-75.565
X122.25Y-78.003
X122.25Y-80.442
X122.269Y-72.771
X122.372Y-89.882
X122.911Y-148.006
X122.936Y-113.792
X122.973Y-129.116
X123.088Y-67.945
X123.088Y-69.545
X123.139Y-115.418
X123.241Y-52.756
X123.85Y-94.691
X124.269Y-72.771
X124.624Y-129.116
X124.635Y-85.508
X124.636Y-109.88
X124.688Y-67.945
X124.688Y-69.545
X124.7Y-83.617
X124.816Y-117.526
X125.157Y-92.532
X126.06Y-115.316
X126.269Y-72.771
X126.308Y-81.606
X126.423Y-84.506
X126.453Y-82.738
X126.509Y-88.028
X126.533Y-89.154
X126.746Y-66.866
X126.746Y-68.866
X126.746Y-70.866
X126.96Y-78.867
X127.341Y-90.716
X127.672Y-117.432
X127.799Y-113.358
X128.092Y-53.213
X128.27Y-147.93
X128.778Y-58.014
X128.784Y-63.567
X128.815Y-92.621
X129.093Y-116.266
X129.196Y-110.447
X129.376Y-74.436
X130.025Y-86.881
X130.027Y-82.388
X130.097Y-97.015
X130.242Y-110.578
X130.471Y-120.372
X130.491Y-95.923
X131.215Y-74.168
X132.715Y-122.174
X132.879Y-109.685
X132.929Y-82.55
X132.929Y-83.693
X133.26Y-108.669
X133.501Y-74.041
X134.01Y-148.107
X134.572Y-98.799
X134.688Y-105.53
X134.771Y-81.661
X134.95Y-77.419
X135.038Y-97.853
X135.05Y-96.723
X135.279Y-89.789
X135.382Y-113.248
X135.541Y-108.758
X136.143Y-59.538
X136.144Y-55.982
X136.347Y-109.398
X136.5Y-53.162
X136.625Y-96.596
X136.803Y-81.724
X137.058Y-102.794
X137.311Y-89.789
X137.363Y-104.597
X137.482Y-119.881
X137.677Y-107.899
X137.719Y-74.549
X137.795Y-72.161
X137.806Y-76.51
X138.016Y-96.571
X138.049Y-101.727
X138.198Y-115.409
X138.582Y-147.955
X138.625Y-118.865
X138.835Y-89.789
X138.876Y-111.531
X138.887Y-53.162
X138.89Y-98.901
X139.018Y-97.098
X139.572Y-81.654
X139.948Y-96.658
X140.106Y-101.93
X140.288Y-57.744
X140.462Y-74.803
X141.097Y-106.604
X141.224Y-85.573
X141.328Y-97.804
X141.453Y-107.62
X141.684Y-96.152
X141.735Y-92.786
X142.011Y-105.915
X142.225Y-114.556
X142.392Y-104.216
X142.472Y-61.57
X142.615Y-97.765
X142.962Y-113.658
X142.977Y-98.781
X143.22Y-93.812
X144.018Y-77.089
X144.08Y-85.929
X144.182Y-81.394
X144.38Y-88.741
X145.102Y-103.117
X145.194Y-81.1
X145.263Y-84.658
X145.617Y-77.292
X145.923Y-97.993
X145.931Y-92.379
X145.999Y-55.245
X146.075Y-65.049
X146.075Y-67.742
X146.089Y-88.392
X146.159Y-103.012
X146.188Y-81.674
X146.406Y-94.818
X146.667Y-101.964
X146.704Y-96.215
X147.396Y-116.053
X147.422Y-120.929
X147.447Y-124.866
X147.498Y-99.771
X148.102Y-90.32
X148.133Y-135.382
X148.184Y-130.556
X148.184Y-139.548
X148.317Y-81.28
X148.757Y-105.657
X148.857Y-88.519
X142.943Y-143.812
X142.943Y-146.188
X145.0Y-142.625
X145.0Y-147.375
X147.057Y-143.812
X147.057Y-146.188
X51.943Y-52.812
X51.943Y-55.188
X54.0Y-51.625
X54.0Y-56.375
X56.057Y-52.812
X56.057Y-55.188
X52.943Y-143.812
X52.943Y-146.188
X55.0Y-142.625
X55.0Y-147.375
X57.057Y-143.812
X57.057Y-146.188
X142.342Y-70.822
X142.342Y-73.197
X144.399Y-69.634
X144.399Y-74.384
X146.456Y-70.822
X146.456Y-73.197
T2
X121.093Y-61.443
X126.873Y-64.643
T3
X99.973Y-54.839
X102.513Y-57.379
X105.053Y-54.839
T4
X113.919Y-81.763
X120.142Y-81.89
X106.488Y-69.544
X106.488Y-84.784
X109.028Y-69.544
X109.028Y-84.784
X111.568Y-69.544
X111.568Y-84.784
X114.108Y-69.544
X114.108Y-84.784
X116.648Y-69.544
X116.648Y-84.784
X106.488Y-128.664
X106.488Y-143.904
X109.028Y-128.664
X109.028Y-143.904
X111.568Y-128.664
X111.568Y-143.904
X114.108Y-128.664
X114.108Y-143.904
X116.648Y-128.664
X116.648Y-143.904
T5
X133.191Y-64.313
X134.461Y-66.853
X135.731Y-64.313
X137.001Y-66.853
X138.271Y-64.313
X139.541Y-66.853
X140.811Y-64.313
X142.081Y-66.853
T6
X70.268Y-125.991
X70.268Y-144.291
X72.768Y-125.991
X72.768Y-144.291
X75.268Y-125.991
X75.268Y-144.291
X77.768Y-125.991
X77.768Y-144.291
X80.268Y-125.991
X80.268Y-144.291
X52.599Y-73.479
X52.599Y-79.479
X55.099Y-73.479
X55.099Y-79.479
X57.599Y-73.479
X57.599Y-79.479
X74.065Y-63.373
X76.605Y-63.373
X145.313Y-117.284
X145.313Y-119.825
X145.313Y-122.364
X145.313Y-124.904
X52.599Y-129.867
X52.599Y-135.867
X55.099Y-129.867
X55.099Y-135.867
X57.599Y-129.867
X57.599Y-135.867
X70.268Y-68.041
X70.268Y-86.341
X72.768Y-68.041
X72.768Y-86.341
X75.268Y-68.041
X75.268Y-86.341
X77.768Y-68.041
X77.768Y-86.341
X80.268Y-68.041
X80.268Y-86.341
X84.149Y-63.373
X86.689Y-63.373
T7
X131.016Y-53.063
X133.556Y-53.063
X141.726Y-53.063
X144.266Y-53.063
T8
X130.914Y-124.278
X130.914Y-128.778
X137.414Y-124.278
X137.414Y-128.778
T9
X142.723Y-131.445
X97.56Y-93.853
X97.56Y-96.393
X97.56Y-98.933
X97.56Y-101.473
X97.56Y-104.013
X97.56Y-106.553
X97.56Y-109.093
X97.56Y-111.633
X97.56Y-126.187
X97.56Y-128.727
X97.56Y-131.267
X97.56Y-133.807
X97.56Y-136.347
X97.56Y-138.887
X97.56Y-141.427
X97.56Y-143.967
X97.56Y-71.45
X97.56Y-73.99
X97.56Y-76.53
X97.56Y-79.07
X97.56Y-81.61
X97.56Y-84.15
X97.56Y-86.69
X97.56Y-89.23
T10
X62.279Y-57.01
X67.359Y-57.01
X110.617Y-56.896
X115.697Y-56.896
X120.777Y-56.896
T11
X129.896Y-61.013
X145.386Y-61.013
T12
X67.268Y-76.091
X83.268Y-76.091
X67.268Y-136.241
X83.268Y-136.241
T13
X55.0Y-145.0
X144.399Y-72.009
X145.0Y-145.0
X54.0Y-54.0
T0
M30
