%TF.GenerationSoftware,KiCad,Pcbnew,(6.0.0-rc1-dev-882-gdbc9130da)*%
%TF.CreationDate,2019-10-30T14:39:13+08:00*%
%TF.ProjectId,AntennaSwitch_6x2_RelayBoard,416E74656E6E615377697463685F3678,rev?*%
%TF.SameCoordinates,Original*%
%TF.FileFunction,Legend,Bot*%
%TF.FilePolarity,Positive*%
%FSLAX46Y46*%
G04 Gerber Fmt 4.6, Leading zero omitted, Abs format (unit mm)*
G04 Created by KiCad (PCBNEW (6.0.0-rc1-dev-882-gdbc9130da)) date 2019/10/30 14:39:13*
%MOMM*%
%LPD*%
G01*
G04 APERTURE LIST*
%ADD10C,0.200000*%
%ADD11C,0.150000*%
%ADD12C,0.250000*%
%ADD13C,0.120000*%
G04 APERTURE END LIST*
D10*
X246964500Y-126885071D02*
X247250214Y-126885071D01*
X247393071Y-126956500D01*
X247464500Y-127027928D01*
X247607357Y-127242214D01*
X247678785Y-127527928D01*
X247678785Y-128099357D01*
X247607357Y-128242214D01*
X247535928Y-128313642D01*
X247393071Y-128385071D01*
X247107357Y-128385071D01*
X246964500Y-128313642D01*
X246893071Y-128242214D01*
X246821642Y-128099357D01*
X246821642Y-127742214D01*
X246893071Y-127599357D01*
X246964500Y-127527928D01*
X247107357Y-127456500D01*
X247393071Y-127456500D01*
X247535928Y-127527928D01*
X247607357Y-127599357D01*
X247678785Y-127742214D01*
X246321642Y-128385071D02*
X245535928Y-127385071D01*
X246321642Y-127385071D02*
X245535928Y-128385071D01*
X245035928Y-127027928D02*
X244964500Y-126956500D01*
X244821642Y-126885071D01*
X244464500Y-126885071D01*
X244321642Y-126956500D01*
X244250214Y-127027928D01*
X244178785Y-127170785D01*
X244178785Y-127313642D01*
X244250214Y-127527928D01*
X245107357Y-128385071D01*
X244178785Y-128385071D01*
X242464500Y-127956500D02*
X241750214Y-127956500D01*
X242607357Y-128385071D02*
X242107357Y-126885071D01*
X241607357Y-128385071D01*
X241107357Y-127385071D02*
X241107357Y-128385071D01*
X241107357Y-127527928D02*
X241035928Y-127456500D01*
X240893071Y-127385071D01*
X240678785Y-127385071D01*
X240535928Y-127456500D01*
X240464500Y-127599357D01*
X240464500Y-128385071D01*
X239964500Y-127385071D02*
X239393071Y-127385071D01*
X239750214Y-126885071D02*
X239750214Y-128170785D01*
X239678785Y-128313642D01*
X239535928Y-128385071D01*
X239393071Y-128385071D01*
X238321642Y-128313642D02*
X238464500Y-128385071D01*
X238750214Y-128385071D01*
X238893071Y-128313642D01*
X238964500Y-128170785D01*
X238964500Y-127599357D01*
X238893071Y-127456500D01*
X238750214Y-127385071D01*
X238464500Y-127385071D01*
X238321642Y-127456500D01*
X238250214Y-127599357D01*
X238250214Y-127742214D01*
X238964500Y-127885071D01*
X237607357Y-127385071D02*
X237607357Y-128385071D01*
X237607357Y-127527928D02*
X237535928Y-127456500D01*
X237393071Y-127385071D01*
X237178785Y-127385071D01*
X237035928Y-127456500D01*
X236964500Y-127599357D01*
X236964500Y-128385071D01*
X236250214Y-127385071D02*
X236250214Y-128385071D01*
X236250214Y-127527928D02*
X236178785Y-127456500D01*
X236035928Y-127385071D01*
X235821642Y-127385071D01*
X235678785Y-127456500D01*
X235607357Y-127599357D01*
X235607357Y-128385071D01*
X234250214Y-128385071D02*
X234250214Y-127599357D01*
X234321642Y-127456500D01*
X234464500Y-127385071D01*
X234750214Y-127385071D01*
X234893071Y-127456500D01*
X234250214Y-128313642D02*
X234393071Y-128385071D01*
X234750214Y-128385071D01*
X234893071Y-128313642D01*
X234964500Y-128170785D01*
X234964500Y-128027928D01*
X234893071Y-127885071D01*
X234750214Y-127813642D01*
X234393071Y-127813642D01*
X234250214Y-127742214D01*
X232464500Y-128313642D02*
X232250214Y-128385071D01*
X231893071Y-128385071D01*
X231750214Y-128313642D01*
X231678785Y-128242214D01*
X231607357Y-128099357D01*
X231607357Y-127956500D01*
X231678785Y-127813642D01*
X231750214Y-127742214D01*
X231893071Y-127670785D01*
X232178785Y-127599357D01*
X232321642Y-127527928D01*
X232393071Y-127456500D01*
X232464500Y-127313642D01*
X232464500Y-127170785D01*
X232393071Y-127027928D01*
X232321642Y-126956500D01*
X232178785Y-126885071D01*
X231821642Y-126885071D01*
X231607357Y-126956500D01*
X231107357Y-127385071D02*
X230821642Y-128385071D01*
X230535928Y-127670785D01*
X230250214Y-128385071D01*
X229964500Y-127385071D01*
X229393071Y-128385071D02*
X229393071Y-127385071D01*
X229393071Y-126885071D02*
X229464500Y-126956500D01*
X229393071Y-127027928D01*
X229321642Y-126956500D01*
X229393071Y-126885071D01*
X229393071Y-127027928D01*
X228893071Y-127385071D02*
X228321642Y-127385071D01*
X228678785Y-126885071D02*
X228678785Y-128170785D01*
X228607357Y-128313642D01*
X228464500Y-128385071D01*
X228321642Y-128385071D01*
X227178785Y-128313642D02*
X227321642Y-128385071D01*
X227607357Y-128385071D01*
X227750214Y-128313642D01*
X227821642Y-128242214D01*
X227893071Y-128099357D01*
X227893071Y-127670785D01*
X227821642Y-127527928D01*
X227750214Y-127456500D01*
X227607357Y-127385071D01*
X227321642Y-127385071D01*
X227178785Y-127456500D01*
X226535928Y-128385071D02*
X226535928Y-126885071D01*
X225893071Y-128385071D02*
X225893071Y-127599357D01*
X225964500Y-127456500D01*
X226107357Y-127385071D01*
X226321642Y-127385071D01*
X226464500Y-127456500D01*
X226535928Y-127527928D01*
X246750214Y-130835071D02*
X247250214Y-130120785D01*
X247607357Y-130835071D02*
X247607357Y-129335071D01*
X247035928Y-129335071D01*
X246893071Y-129406500D01*
X246821642Y-129477928D01*
X246750214Y-129620785D01*
X246750214Y-129835071D01*
X246821642Y-129977928D01*
X246893071Y-130049357D01*
X247035928Y-130120785D01*
X247607357Y-130120785D01*
X245535928Y-130763642D02*
X245678785Y-130835071D01*
X245964500Y-130835071D01*
X246107357Y-130763642D01*
X246178785Y-130620785D01*
X246178785Y-130049357D01*
X246107357Y-129906500D01*
X245964500Y-129835071D01*
X245678785Y-129835071D01*
X245535928Y-129906500D01*
X245464500Y-130049357D01*
X245464500Y-130192214D01*
X246178785Y-130335071D01*
X244607357Y-130835071D02*
X244750214Y-130763642D01*
X244821642Y-130620785D01*
X244821642Y-129335071D01*
X243393071Y-130835071D02*
X243393071Y-130049357D01*
X243464499Y-129906500D01*
X243607357Y-129835071D01*
X243893071Y-129835071D01*
X244035928Y-129906500D01*
X243393071Y-130763642D02*
X243535928Y-130835071D01*
X243893071Y-130835071D01*
X244035928Y-130763642D01*
X244107357Y-130620785D01*
X244107357Y-130477928D01*
X244035928Y-130335071D01*
X243893071Y-130263642D01*
X243535928Y-130263642D01*
X243393071Y-130192214D01*
X242821642Y-129835071D02*
X242464500Y-130835071D01*
X242107357Y-129835071D02*
X242464500Y-130835071D01*
X242607357Y-131192214D01*
X242678785Y-131263642D01*
X242821642Y-131335071D01*
X239893071Y-130049357D02*
X239678785Y-130120785D01*
X239607357Y-130192214D01*
X239535928Y-130335071D01*
X239535928Y-130549357D01*
X239607357Y-130692214D01*
X239678785Y-130763642D01*
X239821642Y-130835071D01*
X240393071Y-130835071D01*
X240393071Y-129335071D01*
X239893071Y-129335071D01*
X239750214Y-129406500D01*
X239678785Y-129477928D01*
X239607357Y-129620785D01*
X239607357Y-129763642D01*
X239678785Y-129906500D01*
X239750214Y-129977928D01*
X239893071Y-130049357D01*
X240393071Y-130049357D01*
X238678785Y-130835071D02*
X238821642Y-130763642D01*
X238893071Y-130692214D01*
X238964500Y-130549357D01*
X238964500Y-130120785D01*
X238893071Y-129977928D01*
X238821642Y-129906500D01*
X238678785Y-129835071D01*
X238464500Y-129835071D01*
X238321642Y-129906500D01*
X238250214Y-129977928D01*
X238178785Y-130120785D01*
X238178785Y-130549357D01*
X238250214Y-130692214D01*
X238321642Y-130763642D01*
X238464500Y-130835071D01*
X238678785Y-130835071D01*
X236893071Y-130835071D02*
X236893071Y-130049357D01*
X236964500Y-129906500D01*
X237107357Y-129835071D01*
X237393071Y-129835071D01*
X237535928Y-129906500D01*
X236893071Y-130763642D02*
X237035928Y-130835071D01*
X237393071Y-130835071D01*
X237535928Y-130763642D01*
X237607357Y-130620785D01*
X237607357Y-130477928D01*
X237535928Y-130335071D01*
X237393071Y-130263642D01*
X237035928Y-130263642D01*
X236893071Y-130192214D01*
X236178785Y-130835071D02*
X236178785Y-129835071D01*
X236178785Y-130120785D02*
X236107357Y-129977928D01*
X236035928Y-129906500D01*
X235893071Y-129835071D01*
X235750214Y-129835071D01*
X234607357Y-130835071D02*
X234607357Y-129335071D01*
X234607357Y-130763642D02*
X234750214Y-130835071D01*
X235035928Y-130835071D01*
X235178785Y-130763642D01*
X235250214Y-130692214D01*
X235321642Y-130549357D01*
X235321642Y-130120785D01*
X235250214Y-129977928D01*
X235178785Y-129906500D01*
X235035928Y-129835071D01*
X234750214Y-129835071D01*
X234607357Y-129906500D01*
X232964500Y-129335071D02*
X232464500Y-130835071D01*
X231964500Y-129335071D01*
X231178785Y-129335071D02*
X231035928Y-129335071D01*
X230893071Y-129406500D01*
X230821642Y-129477928D01*
X230750214Y-129620785D01*
X230678785Y-129906500D01*
X230678785Y-130263642D01*
X230750214Y-130549357D01*
X230821642Y-130692214D01*
X230893071Y-130763642D01*
X231035928Y-130835071D01*
X231178785Y-130835071D01*
X231321642Y-130763642D01*
X231393071Y-130692214D01*
X231464500Y-130549357D01*
X231535928Y-130263642D01*
X231535928Y-129906500D01*
X231464500Y-129620785D01*
X231393071Y-129477928D01*
X231321642Y-129406500D01*
X231178785Y-129335071D01*
X230035928Y-130692214D02*
X229964500Y-130763642D01*
X230035928Y-130835071D01*
X230107357Y-130763642D01*
X230035928Y-130692214D01*
X230035928Y-130835071D01*
X229393071Y-129477928D02*
X229321642Y-129406500D01*
X229178785Y-129335071D01*
X228821642Y-129335071D01*
X228678785Y-129406500D01*
X228607357Y-129477928D01*
X228535928Y-129620785D01*
X228535928Y-129763642D01*
X228607357Y-129977928D01*
X229464500Y-130835071D01*
X228535928Y-130835071D01*
X246893071Y-133285071D02*
X247607357Y-133285071D01*
X247607357Y-131785071D01*
X246393071Y-131785071D02*
X246393071Y-132999357D01*
X246321642Y-133142214D01*
X246250214Y-133213642D01*
X246107357Y-133285071D01*
X245821642Y-133285071D01*
X245678785Y-133213642D01*
X245607357Y-133142214D01*
X245535928Y-132999357D01*
X245535928Y-131785071D01*
X244750214Y-133213642D02*
X244750214Y-133285071D01*
X244821642Y-133427928D01*
X244893071Y-133499357D01*
X243107357Y-131785071D02*
X242107357Y-131785071D01*
X243107357Y-133285071D01*
X242107357Y-133285071D01*
X240964500Y-133213642D02*
X241107357Y-133285071D01*
X241393071Y-133285071D01*
X241535928Y-133213642D01*
X241607357Y-133070785D01*
X241607357Y-132499357D01*
X241535928Y-132356500D01*
X241393071Y-132285071D01*
X241107357Y-132285071D01*
X240964500Y-132356500D01*
X240893071Y-132499357D01*
X240893071Y-132642214D01*
X241607357Y-132785071D01*
X240250214Y-132285071D02*
X240250214Y-133285071D01*
X240250214Y-132427928D02*
X240178785Y-132356500D01*
X240035928Y-132285071D01*
X239821642Y-132285071D01*
X239678785Y-132356500D01*
X239607357Y-132499357D01*
X239607357Y-133285071D01*
X238893071Y-133285071D02*
X238893071Y-132285071D01*
X238893071Y-131785071D02*
X238964500Y-131856500D01*
X238893071Y-131927928D01*
X238821642Y-131856500D01*
X238893071Y-131785071D01*
X238893071Y-131927928D01*
X238178785Y-132285071D02*
X238178785Y-133285071D01*
X238178785Y-132427928D02*
X238107357Y-132356500D01*
X237964500Y-132285071D01*
X237750214Y-132285071D01*
X237607357Y-132356500D01*
X237535928Y-132499357D01*
X237535928Y-133285071D01*
X236178785Y-132285071D02*
X236178785Y-133499357D01*
X236250214Y-133642214D01*
X236321642Y-133713642D01*
X236464500Y-133785071D01*
X236678785Y-133785071D01*
X236821642Y-133713642D01*
X236178785Y-133213642D02*
X236321642Y-133285071D01*
X236607357Y-133285071D01*
X236750214Y-133213642D01*
X236821642Y-133142214D01*
X236893071Y-132999357D01*
X236893071Y-132570785D01*
X236821642Y-132427928D01*
X236750214Y-132356500D01*
X236607357Y-132285071D01*
X236321642Y-132285071D01*
X236178785Y-132356500D01*
X233821642Y-132499357D02*
X233607357Y-132570785D01*
X233535928Y-132642214D01*
X233464500Y-132785071D01*
X233464500Y-132999357D01*
X233535928Y-133142214D01*
X233607357Y-133213642D01*
X233750214Y-133285071D01*
X234321642Y-133285071D01*
X234321642Y-131785071D01*
X233821642Y-131785071D01*
X233678785Y-131856500D01*
X233607357Y-131927928D01*
X233535928Y-132070785D01*
X233535928Y-132213642D01*
X233607357Y-132356500D01*
X233678785Y-132427928D01*
X233821642Y-132499357D01*
X234321642Y-132499357D01*
X232821642Y-133285071D02*
X232821642Y-131785071D01*
X231464500Y-132285071D02*
X231464500Y-133285071D01*
X231821642Y-131713642D02*
X232178785Y-132785071D01*
X231250214Y-132785071D01*
X230821642Y-131785071D02*
X230464500Y-133285071D01*
X230178785Y-132213642D01*
X229893071Y-133285071D01*
X229535928Y-131785071D01*
X228678785Y-131785071D02*
X228393071Y-131785071D01*
X228250214Y-131856500D01*
X228107357Y-131999357D01*
X228035928Y-132285071D01*
X228035928Y-132785071D01*
X228107357Y-133070785D01*
X228250214Y-133213642D01*
X228393071Y-133285071D01*
X228678785Y-133285071D01*
X228821642Y-133213642D01*
X228964500Y-133070785D01*
X229035928Y-132785071D01*
X229035928Y-132285071D01*
X228964500Y-131999357D01*
X228821642Y-131856500D01*
X228678785Y-131785071D01*
X227393071Y-133285071D02*
X227393071Y-131785071D01*
X226821642Y-131785071D01*
X226678785Y-131856500D01*
X226607357Y-131927928D01*
X226535928Y-132070785D01*
X226535928Y-132285071D01*
X226607357Y-132427928D01*
X226678785Y-132499357D01*
X226821642Y-132570785D01*
X227393071Y-132570785D01*
X247678785Y-134377928D02*
X247607357Y-134306500D01*
X247464500Y-134235071D01*
X247107357Y-134235071D01*
X246964500Y-134306500D01*
X246893071Y-134377928D01*
X246821642Y-134520785D01*
X246821642Y-134663642D01*
X246893071Y-134877928D01*
X247750214Y-135735071D01*
X246821642Y-135735071D01*
X245893071Y-134235071D02*
X245750214Y-134235071D01*
X245607357Y-134306500D01*
X245535928Y-134377928D01*
X245464500Y-134520785D01*
X245393071Y-134806500D01*
X245393071Y-135163642D01*
X245464500Y-135449357D01*
X245535928Y-135592214D01*
X245607357Y-135663642D01*
X245750214Y-135735071D01*
X245893071Y-135735071D01*
X246035928Y-135663642D01*
X246107357Y-135592214D01*
X246178785Y-135449357D01*
X246250214Y-135163642D01*
X246250214Y-134806500D01*
X246178785Y-134520785D01*
X246107357Y-134377928D01*
X246035928Y-134306500D01*
X245893071Y-134235071D01*
X243964500Y-135735071D02*
X244821642Y-135735071D01*
X244393071Y-135735071D02*
X244393071Y-134235071D01*
X244535928Y-134449357D01*
X244678785Y-134592214D01*
X244821642Y-134663642D01*
X243250214Y-135735071D02*
X242964500Y-135735071D01*
X242821642Y-135663642D01*
X242750214Y-135592214D01*
X242607357Y-135377928D01*
X242535928Y-135092214D01*
X242535928Y-134520785D01*
X242607357Y-134377928D01*
X242678785Y-134306500D01*
X242821642Y-134235071D01*
X243107357Y-134235071D01*
X243250214Y-134306500D01*
X243321642Y-134377928D01*
X243393071Y-134520785D01*
X243393071Y-134877928D01*
X243321642Y-135020785D01*
X243250214Y-135092214D01*
X243107357Y-135163642D01*
X242821642Y-135163642D01*
X242678785Y-135092214D01*
X242607357Y-135020785D01*
X242535928Y-134877928D01*
X241893071Y-135592214D02*
X241821642Y-135663642D01*
X241893071Y-135735071D01*
X241964500Y-135663642D01*
X241893071Y-135592214D01*
X241893071Y-135735071D01*
X240393071Y-135735071D02*
X241250214Y-135735071D01*
X240821642Y-135735071D02*
X240821642Y-134235071D01*
X240964500Y-134449357D01*
X241107357Y-134592214D01*
X241250214Y-134663642D01*
X239464500Y-134235071D02*
X239321642Y-134235071D01*
X239178785Y-134306500D01*
X239107357Y-134377928D01*
X239035928Y-134520785D01*
X238964500Y-134806500D01*
X238964500Y-135163642D01*
X239035928Y-135449357D01*
X239107357Y-135592214D01*
X239178785Y-135663642D01*
X239321642Y-135735071D01*
X239464500Y-135735071D01*
X239607357Y-135663642D01*
X239678785Y-135592214D01*
X239750214Y-135449357D01*
X239821642Y-135163642D01*
X239821642Y-134806500D01*
X239750214Y-134520785D01*
X239678785Y-134377928D01*
X239607357Y-134306500D01*
X239464500Y-134235071D01*
X238321642Y-135592214D02*
X238250214Y-135663642D01*
X238321642Y-135735071D01*
X238393071Y-135663642D01*
X238321642Y-135592214D01*
X238321642Y-135735071D01*
X237750214Y-134235071D02*
X236821642Y-134235071D01*
X237321642Y-134806500D01*
X237107357Y-134806500D01*
X236964500Y-134877928D01*
X236893071Y-134949357D01*
X236821642Y-135092214D01*
X236821642Y-135449357D01*
X236893071Y-135592214D01*
X236964500Y-135663642D01*
X237107357Y-135735071D01*
X237535928Y-135735071D01*
X237678785Y-135663642D01*
X237750214Y-135592214D01*
X235893071Y-134235071D02*
X235750214Y-134235071D01*
X235607357Y-134306500D01*
X235535928Y-134377928D01*
X235464500Y-134520785D01*
X235393071Y-134806500D01*
X235393071Y-135163642D01*
X235464500Y-135449357D01*
X235535928Y-135592214D01*
X235607357Y-135663642D01*
X235750214Y-135735071D01*
X235893071Y-135735071D01*
X236035928Y-135663642D01*
X236107357Y-135592214D01*
X236178785Y-135449357D01*
X236250214Y-135163642D01*
X236250214Y-134806500D01*
X236178785Y-134520785D01*
X236107357Y-134377928D01*
X236035928Y-134306500D01*
X235893071Y-134235071D01*
D11*
X111426404Y-133992928D02*
X110664500Y-133992928D01*
X111045452Y-134373880D02*
X111045452Y-133611976D01*
X109664500Y-134373880D02*
X110235928Y-134373880D01*
X109950214Y-134373880D02*
X109950214Y-133373880D01*
X110045452Y-133516738D01*
X110140690Y-133611976D01*
X110235928Y-133659595D01*
X109283547Y-133469119D02*
X109235928Y-133421500D01*
X109140690Y-133373880D01*
X108902595Y-133373880D01*
X108807357Y-133421500D01*
X108759738Y-133469119D01*
X108712119Y-133564357D01*
X108712119Y-133659595D01*
X108759738Y-133802452D01*
X109331166Y-134373880D01*
X108712119Y-134373880D01*
X108426404Y-133373880D02*
X108093071Y-134373880D01*
X107759738Y-133373880D01*
X140992571Y-127325380D02*
X140992571Y-126325380D01*
X140992571Y-126801571D02*
X140421142Y-126801571D01*
X140421142Y-127325380D02*
X140421142Y-126325380D01*
X139944952Y-127325380D02*
X139944952Y-126325380D01*
X138944952Y-126373000D02*
X139040190Y-126325380D01*
X139183047Y-126325380D01*
X139325904Y-126373000D01*
X139421142Y-126468238D01*
X139468761Y-126563476D01*
X139516380Y-126753952D01*
X139516380Y-126896809D01*
X139468761Y-127087285D01*
X139421142Y-127182523D01*
X139325904Y-127277761D01*
X139183047Y-127325380D01*
X139087809Y-127325380D01*
X138944952Y-127277761D01*
X138897333Y-127230142D01*
X138897333Y-126896809D01*
X139087809Y-126896809D01*
X138468761Y-127325380D02*
X138468761Y-126325380D01*
X138468761Y-126801571D02*
X137897333Y-126801571D01*
X137897333Y-127325380D02*
X137897333Y-126325380D01*
X136183047Y-127325380D02*
X136659238Y-127325380D01*
X136659238Y-126325380D01*
X135849714Y-126801571D02*
X135516380Y-126801571D01*
X135373523Y-127325380D02*
X135849714Y-127325380D01*
X135849714Y-126325380D01*
X135373523Y-126325380D01*
X135087809Y-126325380D02*
X134754476Y-127325380D01*
X134421142Y-126325380D01*
X134087809Y-126801571D02*
X133754476Y-126801571D01*
X133611619Y-127325380D02*
X134087809Y-127325380D01*
X134087809Y-126325380D01*
X133611619Y-126325380D01*
X132706857Y-127325380D02*
X133183047Y-127325380D01*
X133183047Y-126325380D01*
X131659238Y-127277761D02*
X131516380Y-127325380D01*
X131278285Y-127325380D01*
X131183047Y-127277761D01*
X131135428Y-127230142D01*
X131087809Y-127134904D01*
X131087809Y-127039666D01*
X131135428Y-126944428D01*
X131183047Y-126896809D01*
X131278285Y-126849190D01*
X131468761Y-126801571D01*
X131564000Y-126753952D01*
X131611619Y-126706333D01*
X131659238Y-126611095D01*
X131659238Y-126515857D01*
X131611619Y-126420619D01*
X131564000Y-126373000D01*
X131468761Y-126325380D01*
X131230666Y-126325380D01*
X131087809Y-126373000D01*
X130468761Y-126325380D02*
X130278285Y-126325380D01*
X130183047Y-126373000D01*
X130087809Y-126468238D01*
X130040190Y-126658714D01*
X130040190Y-126992047D01*
X130087809Y-127182523D01*
X130183047Y-127277761D01*
X130278285Y-127325380D01*
X130468761Y-127325380D01*
X130564000Y-127277761D01*
X130659238Y-127182523D01*
X130706857Y-126992047D01*
X130706857Y-126658714D01*
X130659238Y-126468238D01*
X130564000Y-126373000D01*
X130468761Y-126325380D01*
X129611619Y-126325380D02*
X129611619Y-127134904D01*
X129564000Y-127230142D01*
X129516380Y-127277761D01*
X129421142Y-127325380D01*
X129230666Y-127325380D01*
X129135428Y-127277761D01*
X129087809Y-127230142D01*
X129040190Y-127134904D01*
X129040190Y-126325380D01*
X127992571Y-127325380D02*
X128325904Y-126849190D01*
X128564000Y-127325380D02*
X128564000Y-126325380D01*
X128183047Y-126325380D01*
X128087809Y-126373000D01*
X128040190Y-126420619D01*
X127992571Y-126515857D01*
X127992571Y-126658714D01*
X128040190Y-126753952D01*
X128087809Y-126801571D01*
X128183047Y-126849190D01*
X128564000Y-126849190D01*
X126992571Y-127230142D02*
X127040190Y-127277761D01*
X127183047Y-127325380D01*
X127278285Y-127325380D01*
X127421142Y-127277761D01*
X127516380Y-127182523D01*
X127564000Y-127087285D01*
X127611619Y-126896809D01*
X127611619Y-126753952D01*
X127564000Y-126563476D01*
X127516380Y-126468238D01*
X127421142Y-126373000D01*
X127278285Y-126325380D01*
X127183047Y-126325380D01*
X127040190Y-126373000D01*
X126992571Y-126420619D01*
X126564000Y-126801571D02*
X126230666Y-126801571D01*
X126087809Y-127325380D02*
X126564000Y-127325380D01*
X126564000Y-126325380D01*
X126087809Y-126325380D01*
X124897333Y-127325380D02*
X124897333Y-126325380D01*
X124659238Y-126325380D01*
X124516380Y-126373000D01*
X124421142Y-126468238D01*
X124373523Y-126563476D01*
X124325904Y-126753952D01*
X124325904Y-126896809D01*
X124373523Y-127087285D01*
X124421142Y-127182523D01*
X124516380Y-127277761D01*
X124659238Y-127325380D01*
X124897333Y-127325380D01*
X123325904Y-127325380D02*
X123659238Y-126849190D01*
X123897333Y-127325380D02*
X123897333Y-126325380D01*
X123516380Y-126325380D01*
X123421142Y-126373000D01*
X123373523Y-126420619D01*
X123325904Y-126515857D01*
X123325904Y-126658714D01*
X123373523Y-126753952D01*
X123421142Y-126801571D01*
X123516380Y-126849190D01*
X123897333Y-126849190D01*
X122897333Y-127325380D02*
X122897333Y-126325380D01*
X122564000Y-126325380D02*
X122230666Y-127325380D01*
X121897333Y-126325380D01*
X121564000Y-126801571D02*
X121230666Y-126801571D01*
X121087809Y-127325380D02*
X121564000Y-127325380D01*
X121564000Y-126325380D01*
X121087809Y-126325380D01*
D10*
X189158571Y-136199571D02*
X189015714Y-136247190D01*
X188968095Y-136294809D01*
X188920476Y-136390047D01*
X188920476Y-136532904D01*
X188968095Y-136628142D01*
X189015714Y-136675761D01*
X189110952Y-136723380D01*
X189491904Y-136723380D01*
X189491904Y-135723380D01*
X189158571Y-135723380D01*
X189063333Y-135771000D01*
X189015714Y-135818619D01*
X188968095Y-135913857D01*
X188968095Y-136009095D01*
X189015714Y-136104333D01*
X189063333Y-136151952D01*
X189158571Y-136199571D01*
X189491904Y-136199571D01*
X134604095Y-136310666D02*
X134127904Y-136310666D01*
X134699333Y-136596380D02*
X134366000Y-135596380D01*
X134032666Y-136596380D01*
D11*
X150042571Y-118800571D02*
X149899714Y-118848190D01*
X149852095Y-118895809D01*
X149804476Y-118991047D01*
X149804476Y-119133904D01*
X149852095Y-119229142D01*
X149899714Y-119276761D01*
X149994952Y-119324380D01*
X150375904Y-119324380D01*
X150375904Y-118324380D01*
X150042571Y-118324380D01*
X149947333Y-118372000D01*
X149899714Y-118419619D01*
X149852095Y-118514857D01*
X149852095Y-118610095D01*
X149899714Y-118705333D01*
X149947333Y-118752952D01*
X150042571Y-118800571D01*
X150375904Y-118800571D01*
X150225095Y-56300666D02*
X149748904Y-56300666D01*
X150320333Y-56586380D02*
X149987000Y-55586380D01*
X149653666Y-56586380D01*
X236569047Y-88304666D02*
X236092857Y-88304666D01*
X236664285Y-88590380D02*
X236330952Y-87590380D01*
X235997619Y-88590380D01*
X235664285Y-88590380D02*
X235664285Y-87590380D01*
X235092857Y-88590380D01*
X235092857Y-87590380D01*
X234759523Y-87590380D02*
X234188095Y-87590380D01*
X234473809Y-88590380D02*
X234473809Y-87590380D01*
X233426190Y-87590380D02*
X233616666Y-87590380D01*
X233711904Y-87638000D01*
X233759523Y-87685619D01*
X233854761Y-87828476D01*
X233902380Y-88018952D01*
X233902380Y-88399904D01*
X233854761Y-88495142D01*
X233807142Y-88542761D01*
X233711904Y-88590380D01*
X233521428Y-88590380D01*
X233426190Y-88542761D01*
X233378571Y-88495142D01*
X233330952Y-88399904D01*
X233330952Y-88161809D01*
X233378571Y-88066571D01*
X233426190Y-88018952D01*
X233521428Y-87971333D01*
X233711904Y-87971333D01*
X233807142Y-88018952D01*
X233854761Y-88066571D01*
X233902380Y-88161809D01*
X203676047Y-88431666D02*
X203199857Y-88431666D01*
X203771285Y-88717380D02*
X203437952Y-87717380D01*
X203104619Y-88717380D01*
X202771285Y-88717380D02*
X202771285Y-87717380D01*
X202199857Y-88717380D01*
X202199857Y-87717380D01*
X201866523Y-87717380D02*
X201295095Y-87717380D01*
X201580809Y-88717380D02*
X201580809Y-87717380D01*
X200485571Y-87717380D02*
X200961761Y-87717380D01*
X201009380Y-88193571D01*
X200961761Y-88145952D01*
X200866523Y-88098333D01*
X200628428Y-88098333D01*
X200533190Y-88145952D01*
X200485571Y-88193571D01*
X200437952Y-88288809D01*
X200437952Y-88526904D01*
X200485571Y-88622142D01*
X200533190Y-88669761D01*
X200628428Y-88717380D01*
X200866523Y-88717380D01*
X200961761Y-88669761D01*
X201009380Y-88622142D01*
X170656047Y-88177666D02*
X170179857Y-88177666D01*
X170751285Y-88463380D02*
X170417952Y-87463380D01*
X170084619Y-88463380D01*
X169751285Y-88463380D02*
X169751285Y-87463380D01*
X169179857Y-88463380D01*
X169179857Y-87463380D01*
X168846523Y-87463380D02*
X168275095Y-87463380D01*
X168560809Y-88463380D02*
X168560809Y-87463380D01*
X167513190Y-87796714D02*
X167513190Y-88463380D01*
X167751285Y-87415761D02*
X167989380Y-88130047D01*
X167370333Y-88130047D01*
X137890047Y-88050666D02*
X137413857Y-88050666D01*
X137985285Y-88336380D02*
X137651952Y-87336380D01*
X137318619Y-88336380D01*
X136985285Y-88336380D02*
X136985285Y-87336380D01*
X136413857Y-88336380D01*
X136413857Y-87336380D01*
X136080523Y-87336380D02*
X135509095Y-87336380D01*
X135794809Y-88336380D02*
X135794809Y-87336380D01*
X135271000Y-87336380D02*
X134651952Y-87336380D01*
X134985285Y-87717333D01*
X134842428Y-87717333D01*
X134747190Y-87764952D01*
X134699571Y-87812571D01*
X134651952Y-87907809D01*
X134651952Y-88145904D01*
X134699571Y-88241142D01*
X134747190Y-88288761D01*
X134842428Y-88336380D01*
X135128142Y-88336380D01*
X135223380Y-88288761D01*
X135271000Y-88241142D01*
X104743047Y-87923666D02*
X104266857Y-87923666D01*
X104838285Y-88209380D02*
X104504952Y-87209380D01*
X104171619Y-88209380D01*
X103838285Y-88209380D02*
X103838285Y-87209380D01*
X103266857Y-88209380D01*
X103266857Y-87209380D01*
X102933523Y-87209380D02*
X102362095Y-87209380D01*
X102647809Y-88209380D02*
X102647809Y-87209380D01*
X102076380Y-87304619D02*
X102028761Y-87257000D01*
X101933523Y-87209380D01*
X101695428Y-87209380D01*
X101600190Y-87257000D01*
X101552571Y-87304619D01*
X101504952Y-87399857D01*
X101504952Y-87495095D01*
X101552571Y-87637952D01*
X102124000Y-88209380D01*
X101504952Y-88209380D01*
X71850047Y-87923666D02*
X71373857Y-87923666D01*
X71945285Y-88209380D02*
X71611952Y-87209380D01*
X71278619Y-88209380D01*
X70945285Y-88209380D02*
X70945285Y-87209380D01*
X70373857Y-88209380D01*
X70373857Y-87209380D01*
X70040523Y-87209380D02*
X69469095Y-87209380D01*
X69754809Y-88209380D02*
X69754809Y-87209380D01*
X68611952Y-88209380D02*
X69183380Y-88209380D01*
X68897666Y-88209380D02*
X68897666Y-87209380D01*
X68992904Y-87352238D01*
X69088142Y-87447476D01*
X69183380Y-87495095D01*
D10*
X109148500Y-139065000D02*
X109148500Y-137795000D01*
X108748500Y-139465000D02*
X107828500Y-139465000D01*
X105608500Y-139065000D02*
X105608500Y-137795000D01*
X106928500Y-139465000D02*
X106008500Y-139465000D01*
X106928500Y-137395000D02*
X106008500Y-137395000D01*
X108748500Y-137395000D02*
X107828500Y-137395000D01*
X109148500Y-137794990D02*
G75*
G03X108748500Y-137394990I-400000J0D01*
G01*
X108748500Y-139465000D02*
G75*
G03X109148500Y-139065000I0J400000D01*
G01*
X105608500Y-139065000D02*
G75*
G03X106008500Y-139465000I400000J0D01*
G01*
X106008500Y-137395000D02*
G75*
G03X105608500Y-137795000I0J-400000D01*
G01*
X109148500Y-136779000D02*
X109148500Y-135509000D01*
X108748500Y-137179000D02*
X107828500Y-137179000D01*
X105608500Y-136779000D02*
X105608500Y-135509000D01*
X106928500Y-137179000D02*
X106008500Y-137179000D01*
X106928500Y-135109000D02*
X106008500Y-135109000D01*
X108748500Y-135109000D02*
X107828500Y-135109000D01*
X109148500Y-135508990D02*
G75*
G03X108748500Y-135108990I-400000J0D01*
G01*
X108748500Y-137179000D02*
G75*
G03X109148500Y-136779000I0J400000D01*
G01*
X105608500Y-136779000D02*
G75*
G03X106008500Y-137179000I400000J0D01*
G01*
X106008500Y-135109000D02*
G75*
G03X105608500Y-135509000I0J-400000D01*
G01*
X195969000Y-131637000D02*
X196969000Y-131637000D01*
X195969000Y-130237000D02*
X196969000Y-130237000D01*
X196969000Y-130237000D02*
X196969000Y-131637000D01*
X195969000Y-130237000D02*
X195969000Y-131637000D01*
X196269000Y-130237000D02*
X196269000Y-131637000D01*
X190635000Y-131637000D02*
X191635000Y-131637000D01*
X190635000Y-130237000D02*
X191635000Y-130237000D01*
X191635000Y-130237000D02*
X191635000Y-131637000D01*
X190635000Y-130237000D02*
X190635000Y-131637000D01*
X190935000Y-130237000D02*
X190935000Y-131637000D01*
X185301000Y-131637000D02*
X186301000Y-131637000D01*
X185301000Y-130237000D02*
X186301000Y-130237000D01*
X186301000Y-130237000D02*
X186301000Y-131637000D01*
X185301000Y-130237000D02*
X185301000Y-131637000D01*
X185601000Y-130237000D02*
X185601000Y-131637000D01*
X179967000Y-131637000D02*
X180967000Y-131637000D01*
X179967000Y-130237000D02*
X180967000Y-130237000D01*
X180967000Y-130237000D02*
X180967000Y-131637000D01*
X179967000Y-130237000D02*
X179967000Y-131637000D01*
X180267000Y-130237000D02*
X180267000Y-131637000D01*
X174633000Y-131637000D02*
X175633000Y-131637000D01*
X174633000Y-130237000D02*
X175633000Y-130237000D01*
X175633000Y-130237000D02*
X175633000Y-131637000D01*
X174633000Y-130237000D02*
X174633000Y-131637000D01*
X174933000Y-130237000D02*
X174933000Y-131637000D01*
X169299000Y-131637000D02*
X170299000Y-131637000D01*
X169299000Y-130237000D02*
X170299000Y-130237000D01*
X170299000Y-130237000D02*
X170299000Y-131637000D01*
X169299000Y-130237000D02*
X169299000Y-131637000D01*
X169599000Y-130237000D02*
X169599000Y-131637000D01*
X132469000Y-131637000D02*
X133469000Y-131637000D01*
X132469000Y-130237000D02*
X133469000Y-130237000D01*
X133469000Y-130237000D02*
X133469000Y-131637000D01*
X132469000Y-130237000D02*
X132469000Y-131637000D01*
X132769000Y-130237000D02*
X132769000Y-131637000D01*
X127135000Y-131637000D02*
X128135000Y-131637000D01*
X127135000Y-130237000D02*
X128135000Y-130237000D01*
X128135000Y-130237000D02*
X128135000Y-131637000D01*
X127135000Y-130237000D02*
X127135000Y-131637000D01*
X127435000Y-130237000D02*
X127435000Y-131637000D01*
X121801000Y-131637000D02*
X122801000Y-131637000D01*
X121801000Y-130237000D02*
X122801000Y-130237000D01*
X122801000Y-130237000D02*
X122801000Y-131637000D01*
X121801000Y-130237000D02*
X121801000Y-131637000D01*
X122101000Y-130237000D02*
X122101000Y-131637000D01*
X116467000Y-131637000D02*
X117467000Y-131637000D01*
X116467000Y-130237000D02*
X117467000Y-130237000D01*
X117467000Y-130237000D02*
X117467000Y-131637000D01*
X116467000Y-130237000D02*
X116467000Y-131637000D01*
X116767000Y-130237000D02*
X116767000Y-131637000D01*
X111133000Y-131637000D02*
X112133000Y-131637000D01*
X111133000Y-130237000D02*
X112133000Y-130237000D01*
X112133000Y-130237000D02*
X112133000Y-131637000D01*
X111133000Y-130237000D02*
X111133000Y-131637000D01*
X111433000Y-130237000D02*
X111433000Y-131637000D01*
X105799000Y-131637000D02*
X106799000Y-131637000D01*
X105799000Y-130237000D02*
X106799000Y-130237000D01*
X106799000Y-130237000D02*
X106799000Y-131637000D01*
X105799000Y-130237000D02*
X105799000Y-131637000D01*
X106099000Y-130237000D02*
X106099000Y-131637000D01*
D12*
X219470000Y-111246000D02*
X219470000Y-124146000D01*
X248680000Y-124200000D02*
X219480000Y-124200000D01*
X248680000Y-111246000D02*
X219480000Y-111246000D01*
X248680000Y-111246000D02*
X248680000Y-124146000D01*
X189550000Y-111246000D02*
X189550000Y-124146000D01*
X218760000Y-124200000D02*
X189560000Y-124200000D01*
X218760000Y-111246000D02*
X189560000Y-111246000D01*
X218760000Y-111246000D02*
X218760000Y-124146000D01*
X159370000Y-111246000D02*
X159370000Y-124146000D01*
X188580000Y-124200000D02*
X159380000Y-124200000D01*
X188580000Y-111246000D02*
X159380000Y-111246000D01*
X188580000Y-111246000D02*
X188580000Y-124146000D01*
X142299000Y-124200000D02*
X142299000Y-111300000D01*
X113089000Y-111246000D02*
X142289000Y-111246000D01*
X113089000Y-124200000D02*
X142289000Y-124200000D01*
X113089000Y-124200000D02*
X113089000Y-111300000D01*
X112073000Y-124200000D02*
X112073000Y-111300000D01*
X82863000Y-111246000D02*
X112063000Y-111246000D01*
X82863000Y-124200000D02*
X112063000Y-124200000D01*
X82863000Y-124200000D02*
X82863000Y-111300000D01*
X82101000Y-124200000D02*
X82101000Y-111300000D01*
X52891000Y-111246000D02*
X82091000Y-111246000D01*
X52891000Y-124200000D02*
X82091000Y-124200000D01*
X52891000Y-124200000D02*
X52891000Y-111300000D01*
X228700000Y-78390000D02*
X215800000Y-78390000D01*
X215746000Y-107600000D02*
X215746000Y-78400000D01*
X228700000Y-107600000D02*
X228700000Y-78400000D01*
X228700000Y-107600000D02*
X215800000Y-107600000D01*
X195700000Y-78390000D02*
X182800000Y-78390000D01*
X182746000Y-107600000D02*
X182746000Y-78400000D01*
X195700000Y-107600000D02*
X195700000Y-78400000D01*
X195700000Y-107600000D02*
X182800000Y-107600000D01*
X162847000Y-78390000D02*
X149947000Y-78390000D01*
X149893000Y-107600000D02*
X149893000Y-78400000D01*
X162847000Y-107600000D02*
X162847000Y-78400000D01*
X162847000Y-107600000D02*
X149947000Y-107600000D01*
X129700000Y-78390000D02*
X116800000Y-78390000D01*
X116746000Y-107600000D02*
X116746000Y-78400000D01*
X129700000Y-107600000D02*
X129700000Y-78400000D01*
X129700000Y-107600000D02*
X116800000Y-107600000D01*
X97315000Y-78390000D02*
X84415000Y-78390000D01*
X84361000Y-107600000D02*
X84361000Y-78400000D01*
X97315000Y-107600000D02*
X97315000Y-78400000D01*
X97315000Y-107600000D02*
X84415000Y-107600000D01*
X64200000Y-78390000D02*
X51300000Y-78390000D01*
X51246000Y-107600000D02*
X51246000Y-78400000D01*
X64200000Y-107600000D02*
X64200000Y-78400000D01*
X64200000Y-107600000D02*
X51300000Y-107600000D01*
X247582000Y-76987000D02*
X247582000Y-64087000D01*
X218372000Y-64033000D02*
X247572000Y-64033000D01*
X218372000Y-76987000D02*
X247572000Y-76987000D01*
X218372000Y-76987000D02*
X218372000Y-64087000D01*
X216213000Y-77114000D02*
X216213000Y-64214000D01*
X187003000Y-64160000D02*
X216203000Y-64160000D01*
X187003000Y-77114000D02*
X216203000Y-77114000D01*
X187003000Y-77114000D02*
X187003000Y-64214000D01*
X185733000Y-77114000D02*
X185733000Y-64214000D01*
X156523000Y-64160000D02*
X185723000Y-64160000D01*
X156523000Y-77114000D02*
X185723000Y-77114000D01*
X156523000Y-77114000D02*
X156523000Y-64214000D01*
X142299000Y-76987000D02*
X142299000Y-64087000D01*
X113089000Y-64033000D02*
X142289000Y-64033000D01*
X113089000Y-76987000D02*
X142289000Y-76987000D01*
X113089000Y-76987000D02*
X113089000Y-64087000D01*
X112073000Y-76987000D02*
X112073000Y-64087000D01*
X82863000Y-64033000D02*
X112063000Y-64033000D01*
X82863000Y-76987000D02*
X112063000Y-76987000D01*
X82863000Y-76987000D02*
X82863000Y-64087000D01*
X82101000Y-76987000D02*
X82101000Y-64087000D01*
X52891000Y-64033000D02*
X82091000Y-64033000D01*
X52891000Y-76987000D02*
X82091000Y-76987000D01*
X52891000Y-76987000D02*
X52891000Y-64087000D01*
D13*
X166905000Y-139037000D02*
X166905000Y-133037000D01*
X166905000Y-133037000D02*
X187425000Y-133037000D01*
X187425000Y-133037000D02*
X187425000Y-139037000D01*
X187425000Y-139037000D02*
X166905000Y-139037000D01*
X168275000Y-133037000D02*
X168275000Y-134037000D01*
X168275000Y-134037000D02*
X173355000Y-134037000D01*
X173355000Y-134037000D02*
X173355000Y-133037000D01*
X168275000Y-134037000D02*
X168525000Y-134467000D01*
X168525000Y-134467000D02*
X173355000Y-134467000D01*
X173355000Y-134467000D02*
X173355000Y-134037000D01*
X168525000Y-133037000D02*
X168525000Y-134037000D01*
X186055000Y-133037000D02*
X186055000Y-134037000D01*
X186055000Y-134037000D02*
X180975000Y-134037000D01*
X180975000Y-134037000D02*
X180975000Y-133037000D01*
X186055000Y-134037000D02*
X185805000Y-134467000D01*
X185805000Y-134467000D02*
X180975000Y-134467000D01*
X180975000Y-134467000D02*
X180975000Y-134037000D01*
X185805000Y-133037000D02*
X185805000Y-134037000D01*
X167475000Y-139037000D02*
X167475000Y-138417000D01*
X167475000Y-138417000D02*
X169075000Y-138417000D01*
X169075000Y-138417000D02*
X169075000Y-139037000D01*
X170015000Y-139037000D02*
X170015000Y-138417000D01*
X170015000Y-138417000D02*
X171615000Y-138417000D01*
X171615000Y-138417000D02*
X171615000Y-139037000D01*
X172555000Y-139037000D02*
X172555000Y-138417000D01*
X172555000Y-138417000D02*
X174155000Y-138417000D01*
X174155000Y-138417000D02*
X174155000Y-139037000D01*
X175095000Y-139037000D02*
X175095000Y-138417000D01*
X175095000Y-138417000D02*
X176695000Y-138417000D01*
X176695000Y-138417000D02*
X176695000Y-139037000D01*
X177635000Y-139037000D02*
X177635000Y-138417000D01*
X177635000Y-138417000D02*
X179235000Y-138417000D01*
X179235000Y-138417000D02*
X179235000Y-139037000D01*
X180175000Y-139037000D02*
X180175000Y-138417000D01*
X180175000Y-138417000D02*
X181775000Y-138417000D01*
X181775000Y-138417000D02*
X181775000Y-139037000D01*
X182715000Y-139037000D02*
X182715000Y-138417000D01*
X182715000Y-138417000D02*
X184315000Y-138417000D01*
X184315000Y-138417000D02*
X184315000Y-139037000D01*
X185255000Y-139037000D02*
X185255000Y-138417000D01*
X185255000Y-138417000D02*
X186855000Y-138417000D01*
X186855000Y-138417000D02*
X186855000Y-139037000D01*
X112295000Y-139037000D02*
X112295000Y-133037000D01*
X112295000Y-133037000D02*
X132815000Y-133037000D01*
X132815000Y-133037000D02*
X132815000Y-139037000D01*
X132815000Y-139037000D02*
X112295000Y-139037000D01*
X113665000Y-133037000D02*
X113665000Y-134037000D01*
X113665000Y-134037000D02*
X118745000Y-134037000D01*
X118745000Y-134037000D02*
X118745000Y-133037000D01*
X113665000Y-134037000D02*
X113915000Y-134467000D01*
X113915000Y-134467000D02*
X118745000Y-134467000D01*
X118745000Y-134467000D02*
X118745000Y-134037000D01*
X113915000Y-133037000D02*
X113915000Y-134037000D01*
X131445000Y-133037000D02*
X131445000Y-134037000D01*
X131445000Y-134037000D02*
X126365000Y-134037000D01*
X126365000Y-134037000D02*
X126365000Y-133037000D01*
X131445000Y-134037000D02*
X131195000Y-134467000D01*
X131195000Y-134467000D02*
X126365000Y-134467000D01*
X126365000Y-134467000D02*
X126365000Y-134037000D01*
X131195000Y-133037000D02*
X131195000Y-134037000D01*
X112865000Y-139037000D02*
X112865000Y-138417000D01*
X112865000Y-138417000D02*
X114465000Y-138417000D01*
X114465000Y-138417000D02*
X114465000Y-139037000D01*
X115405000Y-139037000D02*
X115405000Y-138417000D01*
X115405000Y-138417000D02*
X117005000Y-138417000D01*
X117005000Y-138417000D02*
X117005000Y-139037000D01*
X117945000Y-139037000D02*
X117945000Y-138417000D01*
X117945000Y-138417000D02*
X119545000Y-138417000D01*
X119545000Y-138417000D02*
X119545000Y-139037000D01*
X120485000Y-139037000D02*
X120485000Y-138417000D01*
X120485000Y-138417000D02*
X122085000Y-138417000D01*
X122085000Y-138417000D02*
X122085000Y-139037000D01*
X123025000Y-139037000D02*
X123025000Y-138417000D01*
X123025000Y-138417000D02*
X124625000Y-138417000D01*
X124625000Y-138417000D02*
X124625000Y-139037000D01*
X125565000Y-139037000D02*
X125565000Y-138417000D01*
X125565000Y-138417000D02*
X127165000Y-138417000D01*
X127165000Y-138417000D02*
X127165000Y-139037000D01*
X128105000Y-139037000D02*
X128105000Y-138417000D01*
X128105000Y-138417000D02*
X129705000Y-138417000D01*
X129705000Y-138417000D02*
X129705000Y-139037000D01*
X130645000Y-139037000D02*
X130645000Y-138417000D01*
X130645000Y-138417000D02*
X132245000Y-138417000D01*
X132245000Y-138417000D02*
X132245000Y-139037000D01*
M02*
