%TF.GenerationSoftware,KiCad,Pcbnew,(6.0.0-rc1-dev-882-gdbc9130da)*%
%TF.CreationDate,2019-10-30T14:39:13+08:00*%
%TF.ProjectId,AntennaSwitch_6x2_RelayBoard,416E74656E6E615377697463685F3678,rev?*%
%TF.SameCoordinates,Original*%
%TF.FileFunction,Copper,L1,Top,Signal*%
%TF.FilePolarity,Positive*%
%FSLAX46Y46*%
G04 Gerber Fmt 4.6, Leading zero omitted, Abs format (unit mm)*
G04 Created by KiCad (PCBNEW (6.0.0-rc1-dev-882-gdbc9130da)) date 2019/10/30 14:39:13*
%MOMM*%
%LPD*%
G01*
G04 APERTURE LIST*
%ADD10C,2.500000*%
%ADD11R,2.000000X2.600000*%
%ADD12O,2.000000X2.600000*%
%ADD13C,0.800000*%
%ADD14C,7.500000*%
%ADD15C,1.000000*%
%ADD16C,0.508000*%
%ADD17C,0.381000*%
%ADD18C,3.500000*%
%ADD19C,4.000000*%
%ADD20C,0.350000*%
G04 APERTURE END LIST*
D10*
X221580000Y-121446000D03*
X226580000Y-121446000D03*
X231580000Y-121446000D03*
X221580000Y-113946000D03*
X226580000Y-113946000D03*
X231580000Y-113946000D03*
X246580000Y-121446000D03*
X246580000Y-113946000D03*
X191660000Y-121446000D03*
X196660000Y-121446000D03*
X201660000Y-121446000D03*
X191660000Y-113946000D03*
X196660000Y-113946000D03*
X201660000Y-113946000D03*
X216660000Y-121446000D03*
X216660000Y-113946000D03*
X161480000Y-121446000D03*
X166480000Y-121446000D03*
X171480000Y-121446000D03*
X161480000Y-113946000D03*
X166480000Y-113946000D03*
X171480000Y-113946000D03*
X186480000Y-121446000D03*
X186480000Y-113946000D03*
X140189000Y-114000000D03*
X135189000Y-114000000D03*
X130189000Y-114000000D03*
X140189000Y-121500000D03*
X135189000Y-121500000D03*
X130189000Y-121500000D03*
X115189000Y-114000000D03*
X115189000Y-121500000D03*
X109963000Y-114000000D03*
X104963000Y-114000000D03*
X99963000Y-114000000D03*
X109963000Y-121500000D03*
X104963000Y-121500000D03*
X99963000Y-121500000D03*
X84963000Y-114000000D03*
X84963000Y-121500000D03*
X79991000Y-114000000D03*
X74991000Y-114000000D03*
X69991000Y-114000000D03*
X79991000Y-121500000D03*
X74991000Y-121500000D03*
X69991000Y-121500000D03*
X54991000Y-114000000D03*
X54991000Y-121500000D03*
X218500000Y-80500000D03*
X218500000Y-85500000D03*
X218500000Y-90500000D03*
X226000000Y-80500000D03*
X226000000Y-85500000D03*
X226000000Y-90500000D03*
X218500000Y-105500000D03*
X226000000Y-105500000D03*
X185500000Y-80500000D03*
X185500000Y-85500000D03*
X185500000Y-90500000D03*
X193000000Y-80500000D03*
X193000000Y-85500000D03*
X193000000Y-90500000D03*
X185500000Y-105500000D03*
X193000000Y-105500000D03*
X152647000Y-80500000D03*
X152647000Y-85500000D03*
X152647000Y-90500000D03*
X160147000Y-80500000D03*
X160147000Y-85500000D03*
X160147000Y-90500000D03*
X152647000Y-105500000D03*
X160147000Y-105500000D03*
X119500000Y-80500000D03*
X119500000Y-85500000D03*
X119500000Y-90500000D03*
X127000000Y-80500000D03*
X127000000Y-85500000D03*
X127000000Y-90500000D03*
X119500000Y-105500000D03*
X127000000Y-105500000D03*
X87115000Y-80500000D03*
X87115000Y-85500000D03*
X87115000Y-90500000D03*
X94615000Y-80500000D03*
X94615000Y-85500000D03*
X94615000Y-90500000D03*
X87115000Y-105500000D03*
X94615000Y-105500000D03*
X54000000Y-80500000D03*
X54000000Y-85500000D03*
X54000000Y-90500000D03*
X61500000Y-80500000D03*
X61500000Y-85500000D03*
X61500000Y-90500000D03*
X54000000Y-105500000D03*
X61500000Y-105500000D03*
X245472000Y-66787000D03*
X240472000Y-66787000D03*
X235472000Y-66787000D03*
X245472000Y-74287000D03*
X240472000Y-74287000D03*
X235472000Y-74287000D03*
X220472000Y-66787000D03*
X220472000Y-74287000D03*
X214103000Y-66914000D03*
X209103000Y-66914000D03*
X204103000Y-66914000D03*
X214103000Y-74414000D03*
X209103000Y-74414000D03*
X204103000Y-74414000D03*
X189103000Y-66914000D03*
X189103000Y-74414000D03*
X183623000Y-66914000D03*
X178623000Y-66914000D03*
X173623000Y-66914000D03*
X183623000Y-74414000D03*
X178623000Y-74414000D03*
X173623000Y-74414000D03*
X158623000Y-66914000D03*
X158623000Y-74414000D03*
X140189000Y-66787000D03*
X135189000Y-66787000D03*
X130189000Y-66787000D03*
X140189000Y-74287000D03*
X135189000Y-74287000D03*
X130189000Y-74287000D03*
X115189000Y-66787000D03*
X115189000Y-74287000D03*
X109963000Y-66787000D03*
X104963000Y-66787000D03*
X99963000Y-66787000D03*
X109963000Y-74287000D03*
X104963000Y-74287000D03*
X99963000Y-74287000D03*
X84963000Y-66787000D03*
X84963000Y-74287000D03*
X79991000Y-66787000D03*
X74991000Y-66787000D03*
X69991000Y-66787000D03*
X79991000Y-74287000D03*
X74991000Y-74287000D03*
X69991000Y-74287000D03*
X54991000Y-66787000D03*
X54991000Y-74287000D03*
D11*
X168275000Y-136017000D03*
D12*
X170815000Y-136017000D03*
X173355000Y-136017000D03*
X175895000Y-136017000D03*
X178435000Y-136017000D03*
X180975000Y-136017000D03*
X183515000Y-136017000D03*
X186055000Y-136017000D03*
D11*
X113665000Y-136017000D03*
D12*
X116205000Y-136017000D03*
X118745000Y-136017000D03*
X121285000Y-136017000D03*
X123825000Y-136017000D03*
X126365000Y-136017000D03*
X128905000Y-136017000D03*
X131445000Y-136017000D03*
D13*
X138498430Y-136995000D03*
X138498430Y-134245000D03*
X140880000Y-132870000D03*
X143261570Y-134245000D03*
X143261570Y-136995000D03*
X140880000Y-138370000D03*
D14*
X140880000Y-135620000D03*
X150000000Y-126500000D03*
D13*
X245495000Y-106501570D03*
X242745000Y-106501570D03*
X241370000Y-104120000D03*
X242745000Y-101738430D03*
X245495000Y-101738430D03*
X246870000Y-104120000D03*
D14*
X244120000Y-104120000D03*
X235000000Y-95000000D03*
D13*
X212495000Y-106501570D03*
X209745000Y-106501570D03*
X208370000Y-104120000D03*
X209745000Y-101738430D03*
X212495000Y-101738430D03*
X213870000Y-104120000D03*
D14*
X211120000Y-104120000D03*
X202000000Y-95000000D03*
D13*
X179495000Y-106501570D03*
X176745000Y-106501570D03*
X175370000Y-104120000D03*
X176745000Y-101738430D03*
X179495000Y-101738430D03*
X180870000Y-104120000D03*
D14*
X178120000Y-104120000D03*
X169000000Y-95000000D03*
D13*
X146495000Y-106501570D03*
X143745000Y-106501570D03*
X142370000Y-104120000D03*
X143745000Y-101738430D03*
X146495000Y-101738430D03*
X147870000Y-104120000D03*
D14*
X145120000Y-104120000D03*
X136000000Y-95000000D03*
D13*
X113495000Y-106501570D03*
X110745000Y-106501570D03*
X109370000Y-104120000D03*
X110745000Y-101738430D03*
X113495000Y-101738430D03*
X114870000Y-104120000D03*
D14*
X112120000Y-104120000D03*
X103000000Y-95000000D03*
D13*
X80495000Y-106501570D03*
X77745000Y-106501570D03*
X76370000Y-104120000D03*
X77745000Y-101738430D03*
X80495000Y-101738430D03*
X81870000Y-104120000D03*
D14*
X79120000Y-104120000D03*
X70000000Y-95000000D03*
D13*
X161501570Y-53005000D03*
X161501570Y-55755000D03*
X159120000Y-57130000D03*
X156738430Y-55755000D03*
X156738430Y-53005000D03*
X159120000Y-51630000D03*
D14*
X159120000Y-54380000D03*
X150000000Y-63500000D03*
D13*
X244655000Y-137303000D03*
X247855000Y-137303000D03*
X52324000Y-137176000D03*
D15*
X104965500Y-136144000D03*
X105092500Y-138430000D03*
D13*
X171059868Y-132197868D03*
X176457368Y-132134368D03*
X182979767Y-130945969D03*
X188331868Y-130927868D03*
X193647767Y-130945969D03*
X197993000Y-132080000D03*
X134366000Y-132080000D03*
X130175000Y-131064000D03*
X124931798Y-131064000D03*
X119507000Y-131064000D03*
X114263798Y-130810000D03*
X108829868Y-130946132D03*
X53340000Y-52705000D03*
X56540000Y-52705000D03*
X59740000Y-52705000D03*
X62940000Y-52705000D03*
X66140000Y-52705000D03*
X69340000Y-52705000D03*
X72540000Y-52705000D03*
X75740000Y-52705000D03*
X78940000Y-52705000D03*
X82140000Y-52705000D03*
X85340000Y-52705000D03*
X88540000Y-52705000D03*
X91740000Y-52705000D03*
X94940000Y-52705000D03*
X98140000Y-52705000D03*
X101340000Y-52705000D03*
X104540000Y-52705000D03*
X107740000Y-52705000D03*
X110940000Y-52705000D03*
X114140000Y-52705000D03*
X117340000Y-52705000D03*
X120540000Y-52705000D03*
X123740000Y-52705000D03*
X126940000Y-52705000D03*
X130140000Y-52705000D03*
X133340000Y-52705000D03*
X136540000Y-52705000D03*
X139740000Y-52705000D03*
X142940000Y-52705000D03*
X146140000Y-52705000D03*
X149340000Y-52705000D03*
X152540000Y-52705000D03*
X165340000Y-52705000D03*
X168540000Y-52705000D03*
X171740000Y-52705000D03*
X174940000Y-52705000D03*
X178140000Y-52705000D03*
X181340000Y-52705000D03*
X184540000Y-52705000D03*
X187740000Y-52705000D03*
X190940000Y-52705000D03*
X194140000Y-52705000D03*
X197340000Y-52705000D03*
X200540000Y-52705000D03*
X203740000Y-52705000D03*
X206940000Y-52705000D03*
X210140000Y-52705000D03*
X213340000Y-52705000D03*
X216540000Y-52705000D03*
X219740000Y-52705000D03*
X222940000Y-52705000D03*
X226140000Y-52705000D03*
X229340000Y-52705000D03*
X232540000Y-52705000D03*
X235740000Y-52705000D03*
X238940000Y-52705000D03*
X242140000Y-52705000D03*
X55524000Y-137176000D03*
X58724000Y-137176000D03*
X61924000Y-137176000D03*
X65124000Y-137176000D03*
X68324000Y-137176000D03*
X71524000Y-137176000D03*
X74724000Y-137176000D03*
X77924000Y-137176000D03*
X81124000Y-137176000D03*
X84324000Y-137176000D03*
X87524000Y-137176000D03*
X90724000Y-137176000D03*
X93924000Y-137176000D03*
X97124000Y-137176000D03*
X100324000Y-137176000D03*
X135524000Y-137176000D03*
X164324000Y-137176000D03*
X189924000Y-137176000D03*
X193124000Y-137176000D03*
X196324000Y-137176000D03*
X199524000Y-137176000D03*
X202724000Y-137176000D03*
X205924000Y-137176000D03*
X209124000Y-137176000D03*
X212324000Y-137176000D03*
X215524000Y-137176000D03*
X218724000Y-137176000D03*
X221924000Y-137176000D03*
X225124000Y-137176000D03*
X228324000Y-137176000D03*
X231524000Y-137176000D03*
X234724000Y-137176000D03*
X237924000Y-137176000D03*
X241124000Y-137176000D03*
X120523000Y-121920000D03*
X124206000Y-121920000D03*
X127889000Y-121920000D03*
X93599000Y-120904000D03*
X89662000Y-120904000D03*
X84582000Y-117729000D03*
X80264000Y-109347000D03*
X70485000Y-117729000D03*
X67945000Y-111633000D03*
X64643000Y-108204000D03*
X73279000Y-103505000D03*
X71374000Y-101473000D03*
X76962000Y-127635000D03*
X79629000Y-129794000D03*
X84963000Y-130556000D03*
X94869000Y-130556000D03*
X145542000Y-121920000D03*
X154940000Y-121920000D03*
X154940000Y-131191000D03*
X145161000Y-131191000D03*
X158750000Y-130683000D03*
X165227000Y-130683000D03*
X176149000Y-121920000D03*
X180594000Y-121920000D03*
X183896000Y-121920000D03*
X204978000Y-121920000D03*
X212979000Y-121920000D03*
X200787000Y-130937000D03*
X207899000Y-131064000D03*
X215392000Y-131064000D03*
X224663000Y-127000000D03*
X217170000Y-117983000D03*
X219202000Y-110109000D03*
X223266000Y-109855000D03*
X221361000Y-109347000D03*
X220853000Y-131191000D03*
X73152000Y-84836000D03*
X75311000Y-82423000D03*
X78613000Y-79502000D03*
X68072000Y-76454000D03*
X57785000Y-76454000D03*
X65151000Y-76454000D03*
X74549000Y-90170000D03*
X65659000Y-91313000D03*
X63627000Y-94234000D03*
X52959000Y-94869000D03*
X78232000Y-108966000D03*
X61595000Y-76581000D03*
X52070000Y-76708000D03*
X70358000Y-70866000D03*
X71501000Y-63373000D03*
X74803000Y-62357000D03*
X77343000Y-61214000D03*
X80899000Y-57658000D03*
X90170000Y-57150000D03*
X101346000Y-57150000D03*
X112268000Y-57150000D03*
X122047000Y-57150000D03*
X127635000Y-57150000D03*
X168021000Y-57023000D03*
X176149000Y-57023000D03*
X188341000Y-57023000D03*
X202057000Y-57023000D03*
X213487000Y-57023000D03*
X229235000Y-57023000D03*
X241554000Y-56896000D03*
X246761000Y-58547000D03*
X248539000Y-60833000D03*
X245745000Y-78613000D03*
X235331000Y-71501000D03*
X235331000Y-69469000D03*
X242062000Y-81407000D03*
X239141000Y-84455000D03*
X236855000Y-84709000D03*
X223520000Y-76200000D03*
X228092000Y-76200000D03*
X232791000Y-76200000D03*
X238379000Y-87122000D03*
X235204000Y-104140000D03*
X224917000Y-101854000D03*
X221615000Y-97282000D03*
X220091000Y-95250000D03*
X217678000Y-95123000D03*
X224028000Y-107442000D03*
X129921000Y-71374000D03*
X129921000Y-69596000D03*
X144399000Y-69723000D03*
X144526000Y-72771000D03*
X118110000Y-66040000D03*
X126619000Y-66040000D03*
X88900000Y-66548000D03*
X96520000Y-66548000D03*
X163576000Y-66802000D03*
X170053000Y-66802000D03*
X192278000Y-66548000D03*
X196723000Y-66548000D03*
X201041000Y-66548000D03*
X224155000Y-66294000D03*
X231902000Y-66421000D03*
X105537000Y-103124000D03*
X104394000Y-84328000D03*
X106807000Y-86614000D03*
X107823000Y-90170000D03*
X107315000Y-80772000D03*
X98044000Y-76454000D03*
X90678000Y-76327000D03*
X96774000Y-106680000D03*
X99314000Y-109220000D03*
X100711000Y-111506000D03*
X100584000Y-116586000D03*
X100584000Y-118872000D03*
X84582000Y-119253000D03*
X83312000Y-110490000D03*
X72644000Y-125349000D03*
X75438000Y-125984000D03*
X118999000Y-94869000D03*
X122047000Y-94996000D03*
X122301000Y-97409000D03*
X124460000Y-100711000D03*
X130683000Y-108331000D03*
X130683000Y-110744000D03*
X130810000Y-116459000D03*
X130810000Y-118999000D03*
X144526000Y-120015000D03*
X144526000Y-115316000D03*
X144145000Y-110871000D03*
X139573000Y-109474000D03*
X139573000Y-105537000D03*
X139319000Y-102743000D03*
X140589000Y-90551000D03*
X139827000Y-86487000D03*
X136652000Y-83439000D03*
X137668000Y-80772000D03*
X139192000Y-78613000D03*
X143764000Y-77470000D03*
X123825000Y-75819000D03*
X118237000Y-75692000D03*
X127381000Y-75819000D03*
X162052000Y-109601000D03*
X155575000Y-94615000D03*
X155575000Y-98425000D03*
X170561000Y-103505000D03*
X170688000Y-109220000D03*
X170815000Y-116713000D03*
X157353000Y-121920000D03*
X157480000Y-118618000D03*
X157353000Y-114300000D03*
X158496000Y-110744000D03*
X201168000Y-118999000D03*
X201168000Y-116586000D03*
X201041000Y-111125000D03*
X202057000Y-107823000D03*
X202184000Y-103632000D03*
X185293000Y-94742000D03*
X188341000Y-94742000D03*
X188341000Y-97663000D03*
X190754000Y-100838000D03*
X192151000Y-109474000D03*
X187325000Y-118872000D03*
X187325000Y-116332000D03*
X231394000Y-118618000D03*
X231394000Y-116586000D03*
X233426000Y-111506000D03*
X223012000Y-100076000D03*
X162687000Y-76200000D03*
X165481000Y-76200000D03*
X170307000Y-76073000D03*
X196342000Y-76200000D03*
X200914000Y-76073000D03*
X204724000Y-71628000D03*
X204724000Y-69469000D03*
X219202000Y-69088000D03*
X219202000Y-71501000D03*
X212217000Y-79629000D03*
X209677000Y-82042000D03*
X206502000Y-84836000D03*
X204089000Y-85090000D03*
X206248000Y-88011000D03*
X206502000Y-90551000D03*
X173482000Y-90678000D03*
X173228000Y-87884000D03*
X171069000Y-85090000D03*
X174244000Y-84963000D03*
X178562000Y-83185000D03*
X179959000Y-81407000D03*
X239776000Y-91313000D03*
X114427000Y-116332000D03*
X114427000Y-118491000D03*
X114046000Y-110871000D03*
X110871000Y-109601000D03*
X86487000Y-96012000D03*
X89027000Y-99314000D03*
X91948000Y-101854000D03*
X82550000Y-80645000D03*
X82677000Y-85979000D03*
X82677000Y-91567000D03*
D15*
X62865000Y-121539000D03*
D13*
X96265998Y-121285000D03*
X97155000Y-122301000D03*
D15*
X117094000Y-120650000D03*
X118491000Y-122174000D03*
X173609000Y-121920000D03*
X209042000Y-122174000D03*
X170942000Y-118999000D03*
X170688000Y-105537000D03*
D13*
X181356000Y-80772000D03*
D15*
X173609000Y-120396000D03*
D13*
X213868000Y-80518000D03*
D15*
X222885000Y-128778000D03*
X234823000Y-105664000D03*
D16*
X55030000Y-121539000D02*
X54991000Y-121500000D01*
X62865000Y-121539000D02*
X55030000Y-121539000D01*
X94615000Y-119634002D02*
X95865999Y-120885001D01*
X95865999Y-120885001D02*
X96265998Y-121285000D01*
X94615000Y-105500000D02*
X94615000Y-119634002D01*
X84963000Y-74287000D02*
X80764000Y-78486000D01*
X80764000Y-78486000D02*
X80764000Y-91821000D01*
X80764000Y-93416766D02*
X80764000Y-92202000D01*
X92847234Y-105500000D02*
X80764000Y-93416766D01*
X94615000Y-105500000D02*
X92847234Y-105500000D01*
X80764000Y-91821000D02*
X80764000Y-92202000D01*
D17*
X85764000Y-122301000D02*
X84963000Y-121500000D01*
X97155000Y-122301000D02*
X85764000Y-122301000D01*
D16*
X115189000Y-93689000D02*
X127000000Y-105500000D01*
X115189000Y-74287000D02*
X115189000Y-93689000D01*
X117593999Y-120150001D02*
X117094000Y-120650000D01*
X127000000Y-110744000D02*
X117593999Y-120150001D01*
X127000000Y-105500000D02*
X127000000Y-110744000D01*
X115863000Y-122174000D02*
X115189000Y-121500000D01*
X118491000Y-122174000D02*
X115863000Y-122174000D01*
X181583000Y-113946000D02*
X186480000Y-113946000D01*
X173609000Y-121920000D02*
X181583000Y-113946000D01*
X216660000Y-114556000D02*
X216660000Y-113946000D01*
X209042000Y-122174000D02*
X216660000Y-114556000D01*
D18*
X183623000Y-74414000D02*
X183623000Y-62303010D01*
D19*
X202311000Y-61849000D02*
X213813990Y-61849000D01*
D18*
X214103000Y-62138010D02*
X213813990Y-61849000D01*
X214103000Y-74414000D02*
X214103000Y-62138010D01*
D19*
X184077010Y-61849000D02*
X194818000Y-61849000D01*
X200152000Y-61849000D02*
X202311000Y-61849000D01*
X194818000Y-61849000D02*
X200152000Y-61849000D01*
D18*
X242628634Y-62175868D02*
X242628634Y-61849000D01*
X245472000Y-65019234D02*
X242628634Y-62175868D01*
X245472000Y-66787000D02*
X245472000Y-65019234D01*
D19*
X200152000Y-61849000D02*
X242316000Y-61849000D01*
D18*
X245472000Y-66787000D02*
X245472000Y-74287000D01*
D19*
X194818000Y-61849000D02*
X173482000Y-61849000D01*
X173482000Y-61849000D02*
X147828000Y-61849000D01*
D18*
X140189000Y-61995000D02*
X140335000Y-61849000D01*
X140189000Y-74287000D02*
X140189000Y-61995000D01*
D19*
X109982000Y-61849000D02*
X140335000Y-61849000D01*
X140335000Y-61849000D02*
X173482000Y-61849000D01*
D18*
X109963000Y-61868000D02*
X109982000Y-61849000D01*
X109963000Y-74287000D02*
X109963000Y-61868000D01*
X79991000Y-74287000D02*
X79991000Y-66787000D01*
X79991000Y-66787000D02*
X79991000Y-65019234D01*
D19*
X82931000Y-61849000D02*
X109982000Y-61849000D01*
X80264000Y-64516000D02*
X82931000Y-61849000D01*
X109963000Y-126104001D02*
X110109000Y-126250001D01*
D18*
X221580000Y-113946000D02*
X221580000Y-121446000D01*
X221580000Y-123556002D02*
X221580000Y-113946000D01*
X191660000Y-113946000D02*
X191660000Y-126250001D01*
X161480000Y-126186001D02*
X161544000Y-126250001D01*
X161480000Y-113946000D02*
X161480000Y-126186001D01*
X140189000Y-126104001D02*
X140335000Y-126250001D01*
X140189000Y-114000000D02*
X140189000Y-126104001D01*
X109963000Y-114000000D02*
X109963000Y-126104001D01*
D19*
X218636002Y-126500000D02*
X221422683Y-123713319D01*
X150000000Y-126500000D02*
X218636002Y-126500000D01*
D18*
X82932998Y-126500000D02*
X79991000Y-123558002D01*
D19*
X83320000Y-126500000D02*
X83058000Y-126238000D01*
X150000000Y-126500000D02*
X83320000Y-126500000D01*
D18*
X79991000Y-123558002D02*
X79991000Y-114000000D01*
D16*
X158897001Y-104250001D02*
X160147000Y-105500000D01*
X148892990Y-94245990D02*
X158897001Y-104250001D01*
X148892990Y-78945039D02*
X148892990Y-94245990D01*
X152174030Y-75663999D02*
X148892990Y-78945039D01*
X157373001Y-75663999D02*
X152174030Y-75663999D01*
X158623000Y-74414000D02*
X157373001Y-75663999D01*
X173736000Y-116205000D02*
X173736000Y-108585000D01*
X170942000Y-118999000D02*
X173736000Y-116205000D01*
X173736000Y-108585000D02*
X170688000Y-105537000D01*
X181356000Y-93856000D02*
X193000000Y-105500000D01*
X181356000Y-80772000D02*
X181356000Y-93856000D01*
X187255001Y-106749999D02*
X183896000Y-110109000D01*
X191750001Y-106749999D02*
X187255001Y-106749999D01*
X193000000Y-105500000D02*
X191750001Y-106749999D01*
X173609000Y-120396000D02*
X183896000Y-110109000D01*
X213868000Y-93368000D02*
X226000000Y-105500000D01*
X213868000Y-80518000D02*
X213868000Y-93368000D01*
X226774658Y-128778000D02*
X222885000Y-128778000D01*
X235077000Y-120475658D02*
X226774658Y-128778000D01*
X234823000Y-105664000D02*
X235077000Y-105918000D01*
X235077000Y-105918000D02*
X235077000Y-120475658D01*
D18*
X70000000Y-89696700D02*
X70000000Y-95000000D01*
X65803300Y-85500000D02*
X70000000Y-89696700D01*
X54000000Y-85500000D02*
X65803300Y-85500000D01*
X103000000Y-89696700D02*
X103000000Y-95000000D01*
X98803300Y-85500000D02*
X103000000Y-89696700D01*
X87115000Y-85500000D02*
X98803300Y-85500000D01*
X136000000Y-89696700D02*
X136000000Y-95000000D01*
X131803300Y-85500000D02*
X136000000Y-89696700D01*
X119500000Y-85500000D02*
X131803300Y-85500000D01*
X169000000Y-89696700D02*
X169000000Y-95000000D01*
X164803300Y-85500000D02*
X169000000Y-89696700D01*
X152647000Y-85500000D02*
X164803300Y-85500000D01*
X202000000Y-89696700D02*
X202000000Y-95000000D01*
X197803300Y-85500000D02*
X202000000Y-89696700D01*
X185500000Y-85500000D02*
X197803300Y-85500000D01*
X235000000Y-89696700D02*
X235000000Y-95000000D01*
X230803300Y-85500000D02*
X235000000Y-89696700D01*
X218500000Y-85500000D02*
X230803300Y-85500000D01*
X74991000Y-68554766D02*
X74991000Y-66787000D01*
X74991000Y-77340998D02*
X74991000Y-68554766D01*
X71831998Y-80500000D02*
X74991000Y-77340998D01*
X54000000Y-80500000D02*
X71831998Y-80500000D01*
X104963000Y-75947002D02*
X104963000Y-67249000D01*
X87115000Y-80500000D02*
X100410002Y-80500000D01*
X100410002Y-80500000D02*
X104963000Y-75947002D01*
X135189000Y-76054766D02*
X135189000Y-67249000D01*
X119500000Y-80500000D02*
X130743766Y-80500000D01*
X130743766Y-80500000D02*
X135189000Y-76054766D01*
X178623000Y-76181766D02*
X178623000Y-67376000D01*
X152647000Y-80500000D02*
X174304766Y-80500000D01*
X174304766Y-80500000D02*
X178623000Y-76181766D01*
X209103000Y-76181766D02*
X209103000Y-67503000D01*
X185500000Y-80500000D02*
X204784766Y-80500000D01*
X204784766Y-80500000D02*
X209103000Y-76181766D01*
X240472000Y-75947002D02*
X240472000Y-68554766D01*
X235919002Y-80500000D02*
X240472000Y-75947002D01*
X218500000Y-80500000D02*
X235919002Y-80500000D01*
X240472000Y-74287000D02*
X240472000Y-67249000D01*
X74991000Y-121500000D02*
X74991000Y-114000000D01*
X57658000Y-94899234D02*
X57658000Y-90500000D01*
X74991000Y-112232234D02*
X57658000Y-94899234D01*
X74991000Y-114000000D02*
X74991000Y-112232234D01*
X54000000Y-90500000D02*
X57658000Y-90500000D01*
X57658000Y-90500000D02*
X61500000Y-90500000D01*
X87115000Y-90500000D02*
X90932000Y-90500000D01*
X90932000Y-90500000D02*
X94615000Y-90500000D01*
X90932000Y-95054998D02*
X90932000Y-90500000D01*
X104963000Y-109085998D02*
X90932000Y-95054998D01*
X104963000Y-120965000D02*
X104963000Y-109085998D01*
X119500000Y-90500000D02*
X127000000Y-90500000D01*
X127000000Y-92267766D02*
X127000000Y-90500000D01*
X127000000Y-96705998D02*
X127000000Y-92267766D01*
X135189000Y-104894998D02*
X127000000Y-96705998D01*
X135189000Y-114000000D02*
X135189000Y-104894998D01*
X135189000Y-120965000D02*
X135189000Y-114000000D01*
X152647000Y-90500000D02*
X160147000Y-90500000D01*
X166480000Y-119678234D02*
X166497000Y-121031000D01*
X166480000Y-105172998D02*
X166480000Y-119678234D01*
X160147000Y-90500000D02*
X160147000Y-98839998D01*
X160147000Y-98839998D02*
X166480000Y-105172998D01*
X185500000Y-90500000D02*
X193000000Y-90500000D01*
X193000000Y-92267766D02*
X193000000Y-90500000D01*
X196660000Y-120967000D02*
X196660000Y-108500002D01*
X196660000Y-108500002D02*
X197500001Y-107660001D01*
X197500001Y-107660001D02*
X197500001Y-100860003D01*
X197500001Y-100860003D02*
X193000000Y-96360002D01*
X193000000Y-96360002D02*
X193000000Y-92267766D01*
X218500000Y-90500000D02*
X226000000Y-90500000D01*
X226580000Y-112178234D02*
X226580000Y-113946000D01*
X230500001Y-108258233D02*
X226580000Y-112178234D01*
X230500001Y-102034999D02*
X230500001Y-108258233D01*
X227249999Y-98784997D02*
X230500001Y-102034999D01*
X227249999Y-91749999D02*
X227249999Y-98784997D01*
X226000000Y-90500000D02*
X227249999Y-91749999D01*
X226580000Y-120916000D02*
X226580000Y-113946000D01*
D16*
G36*
X247976001Y-111521686D02*
X247131783Y-111172000D01*
X246028217Y-111172000D01*
X245008655Y-111594316D01*
X244228316Y-112374655D01*
X243806000Y-113394217D01*
X243806000Y-114497783D01*
X244228316Y-115517345D01*
X245008655Y-116297684D01*
X246028217Y-116720000D01*
X247131783Y-116720000D01*
X247976001Y-116370314D01*
X247976001Y-137976000D01*
X182902081Y-137976000D01*
X183352556Y-137301815D01*
X183499000Y-136565591D01*
X183499000Y-135468408D01*
X183352556Y-134732184D01*
X182794703Y-133897297D01*
X181959815Y-133339444D01*
X180975000Y-133143552D01*
X179990184Y-133339444D01*
X179705000Y-133529998D01*
X179419815Y-133339444D01*
X178435000Y-133143552D01*
X177450184Y-133339444D01*
X177165000Y-133529998D01*
X176879815Y-133339444D01*
X175895000Y-133143552D01*
X174910184Y-133339444D01*
X174625000Y-133529998D01*
X174339815Y-133339444D01*
X173355000Y-133143552D01*
X172370184Y-133339444D01*
X172085000Y-133529998D01*
X171799815Y-133339444D01*
X170815000Y-133143552D01*
X169927498Y-133320087D01*
X169869635Y-133281424D01*
X169275000Y-133163144D01*
X167275000Y-133163144D01*
X166680365Y-133281424D01*
X166176258Y-133618258D01*
X165839424Y-134122365D01*
X165721144Y-134717000D01*
X165721144Y-137317000D01*
X165839424Y-137911635D01*
X165882431Y-137976000D01*
X133372081Y-137976000D01*
X133822556Y-137301815D01*
X133969000Y-136565591D01*
X133969000Y-135468408D01*
X133822556Y-134732184D01*
X133264703Y-133897297D01*
X132429815Y-133339444D01*
X131445000Y-133143552D01*
X130460184Y-133339444D01*
X130175000Y-133529998D01*
X129889815Y-133339444D01*
X128905000Y-133143552D01*
X127920184Y-133339444D01*
X127635000Y-133529998D01*
X127349815Y-133339444D01*
X126365000Y-133143552D01*
X125380184Y-133339444D01*
X125095000Y-133529998D01*
X124809815Y-133339444D01*
X123825000Y-133143552D01*
X122840184Y-133339444D01*
X122555000Y-133529998D01*
X122269815Y-133339444D01*
X121285000Y-133143552D01*
X120300184Y-133339444D01*
X120015000Y-133529998D01*
X119729815Y-133339444D01*
X118745000Y-133143552D01*
X117760184Y-133339444D01*
X117475000Y-133529998D01*
X117189815Y-133339444D01*
X116205000Y-133143552D01*
X115317498Y-133320087D01*
X115259635Y-133281424D01*
X114665000Y-133163144D01*
X112665000Y-133163144D01*
X112070365Y-133281424D01*
X111566258Y-133618258D01*
X111229424Y-134122365D01*
X111111144Y-134717000D01*
X111111144Y-137317000D01*
X111229424Y-137911635D01*
X111272431Y-137976000D01*
X52024000Y-137976000D01*
X52024000Y-120948217D01*
X52217000Y-120948217D01*
X52217000Y-122051783D01*
X52639316Y-123071345D01*
X53419655Y-123851684D01*
X54439217Y-124274000D01*
X55542783Y-124274000D01*
X56562345Y-123851684D01*
X57097029Y-123317000D01*
X61868503Y-123317000D01*
X62462401Y-123563000D01*
X63267599Y-123563000D01*
X64011504Y-123254865D01*
X64580865Y-122685504D01*
X64889000Y-121941599D01*
X64889000Y-121136401D01*
X64580865Y-120392496D01*
X64011504Y-119823135D01*
X63267599Y-119515000D01*
X62462401Y-119515000D01*
X61868503Y-119761000D01*
X57175029Y-119761000D01*
X56562345Y-119148316D01*
X55542783Y-118726000D01*
X54439217Y-118726000D01*
X53419655Y-119148316D01*
X52639316Y-119928655D01*
X52217000Y-120948217D01*
X52024000Y-120948217D01*
X52024000Y-93393903D01*
X52632807Y-93800695D01*
X53654889Y-94004000D01*
X54154000Y-94004000D01*
X54154000Y-94554122D01*
X54085353Y-94899234D01*
X54201731Y-95484302D01*
X54357305Y-96266426D01*
X55131757Y-97425477D01*
X55424333Y-97620970D01*
X60652042Y-102848680D01*
X59928655Y-103148316D01*
X59148316Y-103928655D01*
X58726000Y-104948217D01*
X58726000Y-106051783D01*
X59148316Y-107071345D01*
X59928655Y-107851684D01*
X60948217Y-108274000D01*
X62051783Y-108274000D01*
X63071345Y-107851684D01*
X63851684Y-107071345D01*
X64151320Y-106347958D01*
X71487000Y-113683638D01*
X71487000Y-114345110D01*
X71487001Y-114345115D01*
X71487000Y-121845110D01*
X71690305Y-122867192D01*
X72464757Y-124026243D01*
X73623807Y-124800695D01*
X74991000Y-125072647D01*
X76358192Y-124800695D01*
X76629484Y-124619424D01*
X76690305Y-124925194D01*
X77464757Y-126084245D01*
X77757332Y-126279737D01*
X80471434Y-128993841D01*
X80613517Y-129206483D01*
X81855262Y-130036190D01*
X82950265Y-130254000D01*
X82950269Y-130254000D01*
X83320000Y-130327544D01*
X83689731Y-130254000D01*
X145970168Y-130254000D01*
X146882234Y-131166066D01*
X148905186Y-132004000D01*
X151094814Y-132004000D01*
X153117766Y-131166066D01*
X154029832Y-130254000D01*
X218266271Y-130254000D01*
X218636002Y-130327544D01*
X219005733Y-130254000D01*
X219005737Y-130254000D01*
X220100740Y-130036190D01*
X220973770Y-129452850D01*
X221169135Y-129924504D01*
X221738496Y-130493865D01*
X222482401Y-130802000D01*
X223287599Y-130802000D01*
X223881497Y-130556000D01*
X226599542Y-130556000D01*
X226774658Y-130590833D01*
X226949774Y-130556000D01*
X226949775Y-130556000D01*
X227468399Y-130452839D01*
X228056525Y-130059867D01*
X228155723Y-129911406D01*
X236210408Y-121856722D01*
X236358867Y-121757525D01*
X236751839Y-121169399D01*
X236855000Y-120650775D01*
X236889833Y-120475658D01*
X236855000Y-120300541D01*
X236855000Y-106093115D01*
X236889833Y-105917999D01*
X236847000Y-105702665D01*
X236847000Y-105261401D01*
X236538865Y-104517496D01*
X235969504Y-103948135D01*
X235225599Y-103640000D01*
X234420401Y-103640000D01*
X234004001Y-103812478D01*
X234004001Y-102380110D01*
X234072648Y-102034999D01*
X233800696Y-100667806D01*
X233609372Y-100381470D01*
X233905186Y-100504000D01*
X236094814Y-100504000D01*
X238117766Y-99666066D01*
X239666066Y-98117766D01*
X240504000Y-96094814D01*
X240504000Y-93905186D01*
X239666066Y-91882234D01*
X238504000Y-90720168D01*
X238504000Y-90041810D01*
X238572647Y-89696699D01*
X238300695Y-88329507D01*
X238111708Y-88046668D01*
X237526243Y-87170457D01*
X237233670Y-86974967D01*
X234262703Y-84004000D01*
X235573891Y-84004000D01*
X235919002Y-84072647D01*
X236264113Y-84004000D01*
X237286195Y-83800695D01*
X238445245Y-83026243D01*
X238640738Y-82733668D01*
X242705670Y-78668735D01*
X242998243Y-78473245D01*
X243748864Y-77349861D01*
X244104808Y-77587695D01*
X245472000Y-77859647D01*
X246839193Y-77587695D01*
X247976000Y-76828105D01*
X247976001Y-111521686D01*
X247976001Y-111521686D01*
G37*
X247976001Y-111521686D02*
X247131783Y-111172000D01*
X246028217Y-111172000D01*
X245008655Y-111594316D01*
X244228316Y-112374655D01*
X243806000Y-113394217D01*
X243806000Y-114497783D01*
X244228316Y-115517345D01*
X245008655Y-116297684D01*
X246028217Y-116720000D01*
X247131783Y-116720000D01*
X247976001Y-116370314D01*
X247976001Y-137976000D01*
X182902081Y-137976000D01*
X183352556Y-137301815D01*
X183499000Y-136565591D01*
X183499000Y-135468408D01*
X183352556Y-134732184D01*
X182794703Y-133897297D01*
X181959815Y-133339444D01*
X180975000Y-133143552D01*
X179990184Y-133339444D01*
X179705000Y-133529998D01*
X179419815Y-133339444D01*
X178435000Y-133143552D01*
X177450184Y-133339444D01*
X177165000Y-133529998D01*
X176879815Y-133339444D01*
X175895000Y-133143552D01*
X174910184Y-133339444D01*
X174625000Y-133529998D01*
X174339815Y-133339444D01*
X173355000Y-133143552D01*
X172370184Y-133339444D01*
X172085000Y-133529998D01*
X171799815Y-133339444D01*
X170815000Y-133143552D01*
X169927498Y-133320087D01*
X169869635Y-133281424D01*
X169275000Y-133163144D01*
X167275000Y-133163144D01*
X166680365Y-133281424D01*
X166176258Y-133618258D01*
X165839424Y-134122365D01*
X165721144Y-134717000D01*
X165721144Y-137317000D01*
X165839424Y-137911635D01*
X165882431Y-137976000D01*
X133372081Y-137976000D01*
X133822556Y-137301815D01*
X133969000Y-136565591D01*
X133969000Y-135468408D01*
X133822556Y-134732184D01*
X133264703Y-133897297D01*
X132429815Y-133339444D01*
X131445000Y-133143552D01*
X130460184Y-133339444D01*
X130175000Y-133529998D01*
X129889815Y-133339444D01*
X128905000Y-133143552D01*
X127920184Y-133339444D01*
X127635000Y-133529998D01*
X127349815Y-133339444D01*
X126365000Y-133143552D01*
X125380184Y-133339444D01*
X125095000Y-133529998D01*
X124809815Y-133339444D01*
X123825000Y-133143552D01*
X122840184Y-133339444D01*
X122555000Y-133529998D01*
X122269815Y-133339444D01*
X121285000Y-133143552D01*
X120300184Y-133339444D01*
X120015000Y-133529998D01*
X119729815Y-133339444D01*
X118745000Y-133143552D01*
X117760184Y-133339444D01*
X117475000Y-133529998D01*
X117189815Y-133339444D01*
X116205000Y-133143552D01*
X115317498Y-133320087D01*
X115259635Y-133281424D01*
X114665000Y-133163144D01*
X112665000Y-133163144D01*
X112070365Y-133281424D01*
X111566258Y-133618258D01*
X111229424Y-134122365D01*
X111111144Y-134717000D01*
X111111144Y-137317000D01*
X111229424Y-137911635D01*
X111272431Y-137976000D01*
X52024000Y-137976000D01*
X52024000Y-120948217D01*
X52217000Y-120948217D01*
X52217000Y-122051783D01*
X52639316Y-123071345D01*
X53419655Y-123851684D01*
X54439217Y-124274000D01*
X55542783Y-124274000D01*
X56562345Y-123851684D01*
X57097029Y-123317000D01*
X61868503Y-123317000D01*
X62462401Y-123563000D01*
X63267599Y-123563000D01*
X64011504Y-123254865D01*
X64580865Y-122685504D01*
X64889000Y-121941599D01*
X64889000Y-121136401D01*
X64580865Y-120392496D01*
X64011504Y-119823135D01*
X63267599Y-119515000D01*
X62462401Y-119515000D01*
X61868503Y-119761000D01*
X57175029Y-119761000D01*
X56562345Y-119148316D01*
X55542783Y-118726000D01*
X54439217Y-118726000D01*
X53419655Y-119148316D01*
X52639316Y-119928655D01*
X52217000Y-120948217D01*
X52024000Y-120948217D01*
X52024000Y-93393903D01*
X52632807Y-93800695D01*
X53654889Y-94004000D01*
X54154000Y-94004000D01*
X54154000Y-94554122D01*
X54085353Y-94899234D01*
X54201731Y-95484302D01*
X54357305Y-96266426D01*
X55131757Y-97425477D01*
X55424333Y-97620970D01*
X60652042Y-102848680D01*
X59928655Y-103148316D01*
X59148316Y-103928655D01*
X58726000Y-104948217D01*
X58726000Y-106051783D01*
X59148316Y-107071345D01*
X59928655Y-107851684D01*
X60948217Y-108274000D01*
X62051783Y-108274000D01*
X63071345Y-107851684D01*
X63851684Y-107071345D01*
X64151320Y-106347958D01*
X71487000Y-113683638D01*
X71487000Y-114345110D01*
X71487001Y-114345115D01*
X71487000Y-121845110D01*
X71690305Y-122867192D01*
X72464757Y-124026243D01*
X73623807Y-124800695D01*
X74991000Y-125072647D01*
X76358192Y-124800695D01*
X76629484Y-124619424D01*
X76690305Y-124925194D01*
X77464757Y-126084245D01*
X77757332Y-126279737D01*
X80471434Y-128993841D01*
X80613517Y-129206483D01*
X81855262Y-130036190D01*
X82950265Y-130254000D01*
X82950269Y-130254000D01*
X83320000Y-130327544D01*
X83689731Y-130254000D01*
X145970168Y-130254000D01*
X146882234Y-131166066D01*
X148905186Y-132004000D01*
X151094814Y-132004000D01*
X153117766Y-131166066D01*
X154029832Y-130254000D01*
X218266271Y-130254000D01*
X218636002Y-130327544D01*
X219005733Y-130254000D01*
X219005737Y-130254000D01*
X220100740Y-130036190D01*
X220973770Y-129452850D01*
X221169135Y-129924504D01*
X221738496Y-130493865D01*
X222482401Y-130802000D01*
X223287599Y-130802000D01*
X223881497Y-130556000D01*
X226599542Y-130556000D01*
X226774658Y-130590833D01*
X226949774Y-130556000D01*
X226949775Y-130556000D01*
X227468399Y-130452839D01*
X228056525Y-130059867D01*
X228155723Y-129911406D01*
X236210408Y-121856722D01*
X236358867Y-121757525D01*
X236751839Y-121169399D01*
X236855000Y-120650775D01*
X236889833Y-120475658D01*
X236855000Y-120300541D01*
X236855000Y-106093115D01*
X236889833Y-105917999D01*
X236847000Y-105702665D01*
X236847000Y-105261401D01*
X236538865Y-104517496D01*
X235969504Y-103948135D01*
X235225599Y-103640000D01*
X234420401Y-103640000D01*
X234004001Y-103812478D01*
X234004001Y-102380110D01*
X234072648Y-102034999D01*
X233800696Y-100667806D01*
X233609372Y-100381470D01*
X233905186Y-100504000D01*
X236094814Y-100504000D01*
X238117766Y-99666066D01*
X239666066Y-98117766D01*
X240504000Y-96094814D01*
X240504000Y-93905186D01*
X239666066Y-91882234D01*
X238504000Y-90720168D01*
X238504000Y-90041810D01*
X238572647Y-89696699D01*
X238300695Y-88329507D01*
X238111708Y-88046668D01*
X237526243Y-87170457D01*
X237233670Y-86974967D01*
X234262703Y-84004000D01*
X235573891Y-84004000D01*
X235919002Y-84072647D01*
X236264113Y-84004000D01*
X237286195Y-83800695D01*
X238445245Y-83026243D01*
X238640738Y-82733668D01*
X242705670Y-78668735D01*
X242998243Y-78473245D01*
X243748864Y-77349861D01*
X244104808Y-77587695D01*
X245472000Y-77859647D01*
X246839193Y-77587695D01*
X247976000Y-76828105D01*
X247976001Y-111521686D01*
G36*
X233299001Y-119739185D02*
X226038187Y-127000000D01*
X223881497Y-127000000D01*
X223572818Y-126872141D01*
X224338603Y-126106356D01*
X224958873Y-125178057D01*
X225157456Y-124179711D01*
X225212807Y-124216695D01*
X225609920Y-124295686D01*
X225982467Y-124450000D01*
X226385709Y-124450000D01*
X226580000Y-124488647D01*
X226774291Y-124450000D01*
X227177533Y-124450000D01*
X227550081Y-124295686D01*
X227947192Y-124216695D01*
X229106243Y-123442243D01*
X229880695Y-122283193D01*
X230084000Y-121261111D01*
X230084000Y-113629637D01*
X232733671Y-110979967D01*
X233026244Y-110784476D01*
X233299000Y-110376267D01*
X233299001Y-119739185D01*
X233299001Y-119739185D01*
G37*
X233299001Y-119739185D02*
X226038187Y-127000000D01*
X223881497Y-127000000D01*
X223572818Y-126872141D01*
X224338603Y-126106356D01*
X224958873Y-125178057D01*
X225157456Y-124179711D01*
X225212807Y-124216695D01*
X225609920Y-124295686D01*
X225982467Y-124450000D01*
X226385709Y-124450000D01*
X226580000Y-124488647D01*
X226774291Y-124450000D01*
X227177533Y-124450000D01*
X227550081Y-124295686D01*
X227947192Y-124216695D01*
X229106243Y-123442243D01*
X229880695Y-122283193D01*
X230084000Y-121261111D01*
X230084000Y-113629637D01*
X232733671Y-110979967D01*
X233026244Y-110784476D01*
X233299000Y-110376267D01*
X233299001Y-119739185D01*
G36*
X184908655Y-116297684D02*
X185928217Y-116720000D01*
X187031783Y-116720000D01*
X188051345Y-116297684D01*
X188156000Y-116193029D01*
X188156001Y-122746000D01*
X175457622Y-122746000D01*
X175570865Y-122472606D01*
X182319472Y-115724000D01*
X184334971Y-115724000D01*
X184908655Y-116297684D01*
X184908655Y-116297684D01*
G37*
X184908655Y-116297684D02*
X185928217Y-116720000D01*
X187031783Y-116720000D01*
X188051345Y-116297684D01*
X188156000Y-116193029D01*
X188156001Y-122746000D01*
X175457622Y-122746000D01*
X175570865Y-122472606D01*
X182319472Y-115724000D01*
X184334971Y-115724000D01*
X184908655Y-116297684D01*
G36*
X237171306Y-65881807D02*
X236968001Y-66903889D01*
X236968001Y-72127413D01*
X236968000Y-74495598D01*
X234467599Y-76996000D01*
X221180707Y-76996000D01*
X222043345Y-76638684D01*
X222823684Y-75858345D01*
X223246000Y-74838783D01*
X223246000Y-73735217D01*
X222823684Y-72715655D01*
X222043345Y-71935316D01*
X221023783Y-71513000D01*
X219920217Y-71513000D01*
X218900655Y-71935316D01*
X218120316Y-72715655D01*
X217698000Y-73735217D01*
X217698000Y-74838783D01*
X218120316Y-75858345D01*
X218900655Y-76638684D01*
X219763293Y-76996000D01*
X218154889Y-76996000D01*
X217132807Y-77199305D01*
X215973757Y-77973757D01*
X215201087Y-79130141D01*
X214957858Y-78886912D01*
X214250707Y-78594000D01*
X213485293Y-78594000D01*
X212778142Y-78886912D01*
X212236912Y-79428142D01*
X211944000Y-80135293D01*
X211944000Y-80900707D01*
X212090000Y-81253182D01*
X212090001Y-93192879D01*
X212055167Y-93368000D01*
X212183831Y-94014833D01*
X212193162Y-94061741D01*
X212586134Y-94649867D01*
X212734592Y-94749063D01*
X223226000Y-105240472D01*
X223226000Y-106051783D01*
X223648316Y-107071345D01*
X224428655Y-107851684D01*
X225448217Y-108274000D01*
X225528831Y-108274000D01*
X224346332Y-109456498D01*
X224053757Y-109651991D01*
X223390047Y-110645305D01*
X223279305Y-110811042D01*
X223269442Y-110860625D01*
X222947193Y-110645305D01*
X221580000Y-110373353D01*
X220212807Y-110645305D01*
X219053757Y-111419757D01*
X218654427Y-112017398D01*
X218231345Y-111594316D01*
X217211783Y-111172000D01*
X216108217Y-111172000D01*
X215088655Y-111594316D01*
X214308316Y-112374655D01*
X213886000Y-113394217D01*
X213886000Y-114497783D01*
X213979065Y-114722463D01*
X208489394Y-120212135D01*
X207895496Y-120458135D01*
X207326135Y-121027496D01*
X207018000Y-121771401D01*
X207018000Y-122576599D01*
X207088168Y-122746000D01*
X199685535Y-122746000D01*
X199960695Y-122334193D01*
X200164000Y-121312111D01*
X200164000Y-109980077D01*
X200800696Y-109027194D01*
X201004001Y-108005112D01*
X201004001Y-108005111D01*
X201072648Y-107660001D01*
X201004001Y-107314890D01*
X201004001Y-101205108D01*
X201072647Y-100860002D01*
X201004001Y-100514896D01*
X201004001Y-100514892D01*
X201001834Y-100504000D01*
X203094814Y-100504000D01*
X205117766Y-99666066D01*
X206666066Y-98117766D01*
X207504000Y-96094814D01*
X207504000Y-93905186D01*
X206666066Y-91882234D01*
X205504000Y-90720168D01*
X205504000Y-90041810D01*
X205572647Y-89696699D01*
X205300695Y-88329507D01*
X205111708Y-88046668D01*
X204526243Y-87170457D01*
X204233670Y-86974967D01*
X201262703Y-84004000D01*
X204439655Y-84004000D01*
X204784766Y-84072647D01*
X205129877Y-84004000D01*
X206151959Y-83800695D01*
X207311009Y-83026243D01*
X207506502Y-82733668D01*
X211336670Y-78903499D01*
X211629243Y-78708009D01*
X212403695Y-77548959D01*
X212413558Y-77499375D01*
X212735807Y-77714695D01*
X214103000Y-77986647D01*
X215470192Y-77714695D01*
X216629243Y-76940243D01*
X217403695Y-75781193D01*
X217607000Y-74759111D01*
X217607000Y-65603000D01*
X237357599Y-65603000D01*
X237171306Y-65881807D01*
X237171306Y-65881807D01*
G37*
X237171306Y-65881807D02*
X236968001Y-66903889D01*
X236968001Y-72127413D01*
X236968000Y-74495598D01*
X234467599Y-76996000D01*
X221180707Y-76996000D01*
X222043345Y-76638684D01*
X222823684Y-75858345D01*
X223246000Y-74838783D01*
X223246000Y-73735217D01*
X222823684Y-72715655D01*
X222043345Y-71935316D01*
X221023783Y-71513000D01*
X219920217Y-71513000D01*
X218900655Y-71935316D01*
X218120316Y-72715655D01*
X217698000Y-73735217D01*
X217698000Y-74838783D01*
X218120316Y-75858345D01*
X218900655Y-76638684D01*
X219763293Y-76996000D01*
X218154889Y-76996000D01*
X217132807Y-77199305D01*
X215973757Y-77973757D01*
X215201087Y-79130141D01*
X214957858Y-78886912D01*
X214250707Y-78594000D01*
X213485293Y-78594000D01*
X212778142Y-78886912D01*
X212236912Y-79428142D01*
X211944000Y-80135293D01*
X211944000Y-80900707D01*
X212090000Y-81253182D01*
X212090001Y-93192879D01*
X212055167Y-93368000D01*
X212183831Y-94014833D01*
X212193162Y-94061741D01*
X212586134Y-94649867D01*
X212734592Y-94749063D01*
X223226000Y-105240472D01*
X223226000Y-106051783D01*
X223648316Y-107071345D01*
X224428655Y-107851684D01*
X225448217Y-108274000D01*
X225528831Y-108274000D01*
X224346332Y-109456498D01*
X224053757Y-109651991D01*
X223390047Y-110645305D01*
X223279305Y-110811042D01*
X223269442Y-110860625D01*
X222947193Y-110645305D01*
X221580000Y-110373353D01*
X220212807Y-110645305D01*
X219053757Y-111419757D01*
X218654427Y-112017398D01*
X218231345Y-111594316D01*
X217211783Y-111172000D01*
X216108217Y-111172000D01*
X215088655Y-111594316D01*
X214308316Y-112374655D01*
X213886000Y-113394217D01*
X213886000Y-114497783D01*
X213979065Y-114722463D01*
X208489394Y-120212135D01*
X207895496Y-120458135D01*
X207326135Y-121027496D01*
X207018000Y-121771401D01*
X207018000Y-122576599D01*
X207088168Y-122746000D01*
X199685535Y-122746000D01*
X199960695Y-122334193D01*
X200164000Y-121312111D01*
X200164000Y-109980077D01*
X200800696Y-109027194D01*
X201004001Y-108005112D01*
X201004001Y-108005111D01*
X201072648Y-107660001D01*
X201004001Y-107314890D01*
X201004001Y-101205108D01*
X201072647Y-100860002D01*
X201004001Y-100514896D01*
X201004001Y-100514892D01*
X201001834Y-100504000D01*
X203094814Y-100504000D01*
X205117766Y-99666066D01*
X206666066Y-98117766D01*
X207504000Y-96094814D01*
X207504000Y-93905186D01*
X206666066Y-91882234D01*
X205504000Y-90720168D01*
X205504000Y-90041810D01*
X205572647Y-89696699D01*
X205300695Y-88329507D01*
X205111708Y-88046668D01*
X204526243Y-87170457D01*
X204233670Y-86974967D01*
X201262703Y-84004000D01*
X204439655Y-84004000D01*
X204784766Y-84072647D01*
X205129877Y-84004000D01*
X206151959Y-83800695D01*
X207311009Y-83026243D01*
X207506502Y-82733668D01*
X211336670Y-78903499D01*
X211629243Y-78708009D01*
X212403695Y-77548959D01*
X212413558Y-77499375D01*
X212735807Y-77714695D01*
X214103000Y-77986647D01*
X215470192Y-77714695D01*
X216629243Y-76940243D01*
X217403695Y-75781193D01*
X217607000Y-74759111D01*
X217607000Y-65603000D01*
X237357599Y-65603000D01*
X237171306Y-65881807D01*
G36*
X218076001Y-117821169D02*
X218076000Y-121751045D01*
X217081046Y-122746000D01*
X210995832Y-122746000D01*
X211003865Y-122726606D01*
X217010472Y-116720000D01*
X217211783Y-116720000D01*
X218076000Y-116362030D01*
X218076001Y-117821169D01*
X218076001Y-117821169D01*
G37*
X218076001Y-117821169D02*
X218076000Y-121751045D01*
X217081046Y-122746000D01*
X210995832Y-122746000D01*
X211003865Y-122726606D01*
X217010472Y-116720000D01*
X217211783Y-116720000D01*
X218076000Y-116362030D01*
X218076001Y-117821169D01*
G36*
X101459001Y-110537404D02*
X101459000Y-121310110D01*
X101662305Y-122332192D01*
X101938802Y-122746000D01*
X99053197Y-122746000D01*
X99079000Y-122683707D01*
X99079000Y-121918293D01*
X98786088Y-121211142D01*
X98244858Y-120669912D01*
X98062445Y-120594354D01*
X97897086Y-120195142D01*
X97355856Y-119653912D01*
X97003382Y-119507912D01*
X96393000Y-118897531D01*
X96393000Y-107645029D01*
X96966684Y-107071345D01*
X97267268Y-106345670D01*
X101459001Y-110537404D01*
X101459001Y-110537404D01*
G37*
X101459001Y-110537404D02*
X101459000Y-121310110D01*
X101662305Y-122332192D01*
X101938802Y-122746000D01*
X99053197Y-122746000D01*
X99079000Y-122683707D01*
X99079000Y-121918293D01*
X98786088Y-121211142D01*
X98244858Y-120669912D01*
X98062445Y-120594354D01*
X97897086Y-120195142D01*
X97355856Y-119653912D01*
X97003382Y-119507912D01*
X96393000Y-118897531D01*
X96393000Y-107645029D01*
X96966684Y-107071345D01*
X97267268Y-106345670D01*
X101459001Y-110537404D01*
G36*
X131685001Y-106346403D02*
X131685000Y-114345110D01*
X131685001Y-114345115D01*
X131685000Y-121310110D01*
X131888305Y-122332192D01*
X132164802Y-122746000D01*
X120444832Y-122746000D01*
X120515000Y-122576599D01*
X120515000Y-121771401D01*
X120206865Y-121027496D01*
X119718920Y-120539551D01*
X128133408Y-112125064D01*
X128281867Y-112025867D01*
X128674839Y-111437741D01*
X128778000Y-110919117D01*
X128812833Y-110744001D01*
X128778000Y-110568885D01*
X128778000Y-107645029D01*
X129351684Y-107071345D01*
X129774000Y-106051783D01*
X129774000Y-104948217D01*
X129411385Y-104072787D01*
X131685001Y-106346403D01*
X131685001Y-106346403D01*
G37*
X131685001Y-106346403D02*
X131685000Y-114345110D01*
X131685001Y-114345115D01*
X131685000Y-121310110D01*
X131888305Y-122332192D01*
X132164802Y-122746000D01*
X120444832Y-122746000D01*
X120515000Y-122576599D01*
X120515000Y-121771401D01*
X120206865Y-121027496D01*
X119718920Y-120539551D01*
X128133408Y-112125064D01*
X128281867Y-112025867D01*
X128674839Y-111437741D01*
X128778000Y-110919117D01*
X128812833Y-110744001D01*
X128778000Y-110568885D01*
X128778000Y-107645029D01*
X129351684Y-107071345D01*
X129774000Y-106051783D01*
X129774000Y-104948217D01*
X129411385Y-104072787D01*
X131685001Y-106346403D01*
G36*
X145333934Y-66617766D02*
X146882234Y-68166066D01*
X148905186Y-69004000D01*
X151094814Y-69004000D01*
X153117766Y-68166066D01*
X154666066Y-66617766D01*
X155086396Y-65603000D01*
X175593457Y-65603000D01*
X175322306Y-66008807D01*
X175119001Y-67030889D01*
X175119000Y-74730362D01*
X172853363Y-76996000D01*
X159638312Y-76996000D01*
X160194345Y-76765684D01*
X160974684Y-75985345D01*
X161397000Y-74965783D01*
X161397000Y-73862217D01*
X160974684Y-72842655D01*
X160194345Y-72062316D01*
X159174783Y-71640000D01*
X158071217Y-71640000D01*
X157051655Y-72062316D01*
X156271316Y-72842655D01*
X155849000Y-73862217D01*
X155849000Y-73885999D01*
X152349145Y-73885999D01*
X152174029Y-73851166D01*
X151998913Y-73885999D01*
X151480289Y-73989160D01*
X150892163Y-74382132D01*
X150792967Y-74530590D01*
X147759584Y-77563974D01*
X147611123Y-77663172D01*
X147218151Y-78251299D01*
X147127269Y-78708191D01*
X147080157Y-78945039D01*
X147114990Y-79120155D01*
X147114991Y-94070869D01*
X147080157Y-94245990D01*
X147140664Y-94550175D01*
X147218152Y-94939731D01*
X147611124Y-95527857D01*
X147759582Y-95627053D01*
X157373000Y-105240472D01*
X157373000Y-106051783D01*
X157795316Y-107071345D01*
X158575655Y-107851684D01*
X159595217Y-108274000D01*
X160698783Y-108274000D01*
X161718345Y-107851684D01*
X162498684Y-107071345D01*
X162769393Y-106417795D01*
X162976000Y-106624403D01*
X162976000Y-110731372D01*
X162847192Y-110645305D01*
X161480000Y-110373353D01*
X160112807Y-110645305D01*
X158953757Y-111419757D01*
X158179305Y-112578808D01*
X157976000Y-113600890D01*
X157976001Y-122746000D01*
X154029832Y-122746000D01*
X153117766Y-121833934D01*
X151094814Y-120996000D01*
X148905186Y-120996000D01*
X146882234Y-121833934D01*
X145970168Y-122746000D01*
X143693000Y-122746000D01*
X143693000Y-113654889D01*
X143489695Y-112632807D01*
X142715243Y-111473757D01*
X141556192Y-110699305D01*
X140189000Y-110427353D01*
X138821807Y-110699305D01*
X138693000Y-110785371D01*
X138693000Y-105240109D01*
X138761647Y-104894998D01*
X138489695Y-103527805D01*
X138395108Y-103386245D01*
X137715243Y-102368755D01*
X137422670Y-102173264D01*
X135753406Y-100504000D01*
X137094814Y-100504000D01*
X139117766Y-99666066D01*
X140666066Y-98117766D01*
X141504000Y-96094814D01*
X141504000Y-93905186D01*
X140666066Y-91882234D01*
X139504000Y-90720168D01*
X139504000Y-90041810D01*
X139572647Y-89696699D01*
X139300695Y-88329507D01*
X139111708Y-88046668D01*
X138526243Y-87170457D01*
X138233670Y-86974967D01*
X134525036Y-83266332D01*
X134329543Y-82973757D01*
X133667665Y-82531504D01*
X137422670Y-78776499D01*
X137715243Y-78581009D01*
X138489695Y-77421959D01*
X138499558Y-77372375D01*
X138821807Y-77587695D01*
X140189000Y-77859647D01*
X141556192Y-77587695D01*
X142715243Y-76813243D01*
X143489695Y-75654193D01*
X143693000Y-74632111D01*
X143693000Y-65603000D01*
X144913604Y-65603000D01*
X145333934Y-66617766D01*
X145333934Y-66617766D01*
G37*
X145333934Y-66617766D02*
X146882234Y-68166066D01*
X148905186Y-69004000D01*
X151094814Y-69004000D01*
X153117766Y-68166066D01*
X154666066Y-66617766D01*
X155086396Y-65603000D01*
X175593457Y-65603000D01*
X175322306Y-66008807D01*
X175119001Y-67030889D01*
X175119000Y-74730362D01*
X172853363Y-76996000D01*
X159638312Y-76996000D01*
X160194345Y-76765684D01*
X160974684Y-75985345D01*
X161397000Y-74965783D01*
X161397000Y-73862217D01*
X160974684Y-72842655D01*
X160194345Y-72062316D01*
X159174783Y-71640000D01*
X158071217Y-71640000D01*
X157051655Y-72062316D01*
X156271316Y-72842655D01*
X155849000Y-73862217D01*
X155849000Y-73885999D01*
X152349145Y-73885999D01*
X152174029Y-73851166D01*
X151998913Y-73885999D01*
X151480289Y-73989160D01*
X150892163Y-74382132D01*
X150792967Y-74530590D01*
X147759584Y-77563974D01*
X147611123Y-77663172D01*
X147218151Y-78251299D01*
X147127269Y-78708191D01*
X147080157Y-78945039D01*
X147114990Y-79120155D01*
X147114991Y-94070869D01*
X147080157Y-94245990D01*
X147140664Y-94550175D01*
X147218152Y-94939731D01*
X147611124Y-95527857D01*
X147759582Y-95627053D01*
X157373000Y-105240472D01*
X157373000Y-106051783D01*
X157795316Y-107071345D01*
X158575655Y-107851684D01*
X159595217Y-108274000D01*
X160698783Y-108274000D01*
X161718345Y-107851684D01*
X162498684Y-107071345D01*
X162769393Y-106417795D01*
X162976000Y-106624403D01*
X162976000Y-110731372D01*
X162847192Y-110645305D01*
X161480000Y-110373353D01*
X160112807Y-110645305D01*
X158953757Y-111419757D01*
X158179305Y-112578808D01*
X157976000Y-113600890D01*
X157976001Y-122746000D01*
X154029832Y-122746000D01*
X153117766Y-121833934D01*
X151094814Y-120996000D01*
X148905186Y-120996000D01*
X146882234Y-121833934D01*
X145970168Y-122746000D01*
X143693000Y-122746000D01*
X143693000Y-113654889D01*
X143489695Y-112632807D01*
X142715243Y-111473757D01*
X141556192Y-110699305D01*
X140189000Y-110427353D01*
X138821807Y-110699305D01*
X138693000Y-110785371D01*
X138693000Y-105240109D01*
X138761647Y-104894998D01*
X138489695Y-103527805D01*
X138395108Y-103386245D01*
X137715243Y-102368755D01*
X137422670Y-102173264D01*
X135753406Y-100504000D01*
X137094814Y-100504000D01*
X139117766Y-99666066D01*
X140666066Y-98117766D01*
X141504000Y-96094814D01*
X141504000Y-93905186D01*
X140666066Y-91882234D01*
X139504000Y-90720168D01*
X139504000Y-90041810D01*
X139572647Y-89696699D01*
X139300695Y-88329507D01*
X139111708Y-88046668D01*
X138526243Y-87170457D01*
X138233670Y-86974967D01*
X134525036Y-83266332D01*
X134329543Y-82973757D01*
X133667665Y-82531504D01*
X137422670Y-78776499D01*
X137715243Y-78581009D01*
X138489695Y-77421959D01*
X138499558Y-77372375D01*
X138821807Y-77587695D01*
X140189000Y-77859647D01*
X141556192Y-77587695D01*
X142715243Y-76813243D01*
X143489695Y-75654193D01*
X143693000Y-74632111D01*
X143693000Y-65603000D01*
X144913604Y-65603000D01*
X145333934Y-66617766D01*
G36*
X170539401Y-121023000D02*
X171344599Y-121023000D01*
X171629132Y-120905143D01*
X171733869Y-121158000D01*
X171585000Y-121517401D01*
X171585000Y-122322599D01*
X171760378Y-122746000D01*
X169561450Y-122746000D01*
X169814614Y-122356609D01*
X170005059Y-121332053D01*
X169998359Y-120798893D01*
X170539401Y-121023000D01*
X170539401Y-121023000D01*
G37*
X170539401Y-121023000D02*
X171344599Y-121023000D01*
X171629132Y-120905143D01*
X171733869Y-121158000D01*
X171585000Y-121517401D01*
X171585000Y-122322599D01*
X171760378Y-122746000D01*
X169561450Y-122746000D01*
X169814614Y-122356609D01*
X170005059Y-121332053D01*
X169998359Y-120798893D01*
X170539401Y-121023000D01*
G36*
X78623807Y-77587695D02*
X79155217Y-77693399D01*
X79089161Y-77792260D01*
X78997852Y-78251299D01*
X78951167Y-78486000D01*
X78986000Y-78661116D01*
X78986001Y-91645879D01*
X78986000Y-91645884D01*
X78986000Y-93241650D01*
X78951167Y-93416766D01*
X78986000Y-93591882D01*
X79089161Y-94110506D01*
X79482133Y-94698633D01*
X79630594Y-94797831D01*
X91466169Y-106633406D01*
X91565367Y-106781867D01*
X92153493Y-107174839D01*
X92419777Y-107227806D01*
X92837000Y-107645029D01*
X92837001Y-119458881D01*
X92802167Y-119634002D01*
X92940162Y-120327743D01*
X93113057Y-120586500D01*
X87587172Y-120586500D01*
X87314684Y-119928655D01*
X86534345Y-119148316D01*
X85514783Y-118726000D01*
X84411217Y-118726000D01*
X83495000Y-119105509D01*
X83495000Y-113654889D01*
X83291695Y-112632807D01*
X82517243Y-111473757D01*
X81358193Y-110699305D01*
X79991000Y-110427353D01*
X78623808Y-110699305D01*
X78301558Y-110914625D01*
X78291695Y-110865041D01*
X78144872Y-110645305D01*
X77517243Y-109705991D01*
X77224670Y-109510500D01*
X67732376Y-100018206D01*
X68905186Y-100504000D01*
X71094814Y-100504000D01*
X73117766Y-99666066D01*
X74666066Y-98117766D01*
X75504000Y-96094814D01*
X75504000Y-93905186D01*
X74666066Y-91882234D01*
X73504000Y-90720168D01*
X73504000Y-90041810D01*
X73572647Y-89696699D01*
X73300695Y-88329507D01*
X73111708Y-88046668D01*
X72526243Y-87170457D01*
X72233670Y-86974967D01*
X69262703Y-84004000D01*
X71486887Y-84004000D01*
X71831998Y-84072647D01*
X72177109Y-84004000D01*
X73199191Y-83800695D01*
X74358241Y-83026243D01*
X74553733Y-82733668D01*
X77224673Y-80062730D01*
X77517243Y-79867241D01*
X78291695Y-78708191D01*
X78495000Y-77686109D01*
X78495000Y-77686105D01*
X78527390Y-77523271D01*
X78623807Y-77587695D01*
X78623807Y-77587695D01*
G37*
X78623807Y-77587695D02*
X79155217Y-77693399D01*
X79089161Y-77792260D01*
X78997852Y-78251299D01*
X78951167Y-78486000D01*
X78986000Y-78661116D01*
X78986001Y-91645879D01*
X78986000Y-91645884D01*
X78986000Y-93241650D01*
X78951167Y-93416766D01*
X78986000Y-93591882D01*
X79089161Y-94110506D01*
X79482133Y-94698633D01*
X79630594Y-94797831D01*
X91466169Y-106633406D01*
X91565367Y-106781867D01*
X92153493Y-107174839D01*
X92419777Y-107227806D01*
X92837000Y-107645029D01*
X92837001Y-119458881D01*
X92802167Y-119634002D01*
X92940162Y-120327743D01*
X93113057Y-120586500D01*
X87587172Y-120586500D01*
X87314684Y-119928655D01*
X86534345Y-119148316D01*
X85514783Y-118726000D01*
X84411217Y-118726000D01*
X83495000Y-119105509D01*
X83495000Y-113654889D01*
X83291695Y-112632807D01*
X82517243Y-111473757D01*
X81358193Y-110699305D01*
X79991000Y-110427353D01*
X78623808Y-110699305D01*
X78301558Y-110914625D01*
X78291695Y-110865041D01*
X78144872Y-110645305D01*
X77517243Y-109705991D01*
X77224670Y-109510500D01*
X67732376Y-100018206D01*
X68905186Y-100504000D01*
X71094814Y-100504000D01*
X73117766Y-99666066D01*
X74666066Y-98117766D01*
X75504000Y-96094814D01*
X75504000Y-93905186D01*
X74666066Y-91882234D01*
X73504000Y-90720168D01*
X73504000Y-90041810D01*
X73572647Y-89696699D01*
X73300695Y-88329507D01*
X73111708Y-88046668D01*
X72526243Y-87170457D01*
X72233670Y-86974967D01*
X69262703Y-84004000D01*
X71486887Y-84004000D01*
X71831998Y-84072647D01*
X72177109Y-84004000D01*
X73199191Y-83800695D01*
X74358241Y-83026243D01*
X74553733Y-82733668D01*
X77224673Y-80062730D01*
X77517243Y-79867241D01*
X78291695Y-78708191D01*
X78495000Y-77686109D01*
X78495000Y-77686105D01*
X78527390Y-77523271D01*
X78623807Y-77587695D01*
G36*
X113411000Y-76432029D02*
X113411001Y-93513879D01*
X113376167Y-93689000D01*
X113486960Y-94245990D01*
X113514162Y-94382741D01*
X113907134Y-94970867D01*
X114055592Y-95070063D01*
X124226000Y-105240472D01*
X124226000Y-106051783D01*
X124648316Y-107071345D01*
X125222000Y-107645029D01*
X125222001Y-110007527D01*
X116541394Y-118688135D01*
X116095381Y-118872879D01*
X115740783Y-118726000D01*
X114637217Y-118726000D01*
X113617655Y-119148316D01*
X113467000Y-119298971D01*
X113467000Y-113654889D01*
X113263695Y-112632807D01*
X112489243Y-111473757D01*
X111330192Y-110699305D01*
X109963000Y-110427353D01*
X108595807Y-110699305D01*
X108467000Y-110785371D01*
X108467000Y-109431103D01*
X108535646Y-109085997D01*
X108467000Y-108740891D01*
X108467000Y-108740887D01*
X108263695Y-107718805D01*
X107489243Y-106559755D01*
X107196673Y-106364266D01*
X100934218Y-100101812D01*
X101905186Y-100504000D01*
X104094814Y-100504000D01*
X106117766Y-99666066D01*
X107666066Y-98117766D01*
X108504000Y-96094814D01*
X108504000Y-93905186D01*
X107666066Y-91882234D01*
X106504000Y-90720168D01*
X106504000Y-90041810D01*
X106572647Y-89696699D01*
X106300695Y-88329507D01*
X106111708Y-88046668D01*
X105526243Y-87170457D01*
X105233670Y-86974967D01*
X101946363Y-83687660D01*
X102936245Y-83026243D01*
X103131738Y-82733668D01*
X107196670Y-78668735D01*
X107489243Y-78473245D01*
X108239864Y-77349861D01*
X108595807Y-77587695D01*
X109963000Y-77859647D01*
X111330192Y-77587695D01*
X112489243Y-76813243D01*
X113011140Y-76032169D01*
X113411000Y-76432029D01*
X113411000Y-76432029D01*
G37*
X113411000Y-76432029D02*
X113411001Y-93513879D01*
X113376167Y-93689000D01*
X113486960Y-94245990D01*
X113514162Y-94382741D01*
X113907134Y-94970867D01*
X114055592Y-95070063D01*
X124226000Y-105240472D01*
X124226000Y-106051783D01*
X124648316Y-107071345D01*
X125222000Y-107645029D01*
X125222001Y-110007527D01*
X116541394Y-118688135D01*
X116095381Y-118872879D01*
X115740783Y-118726000D01*
X114637217Y-118726000D01*
X113617655Y-119148316D01*
X113467000Y-119298971D01*
X113467000Y-113654889D01*
X113263695Y-112632807D01*
X112489243Y-111473757D01*
X111330192Y-110699305D01*
X109963000Y-110427353D01*
X108595807Y-110699305D01*
X108467000Y-110785371D01*
X108467000Y-109431103D01*
X108535646Y-109085997D01*
X108467000Y-108740891D01*
X108467000Y-108740887D01*
X108263695Y-107718805D01*
X107489243Y-106559755D01*
X107196673Y-106364266D01*
X100934218Y-100101812D01*
X101905186Y-100504000D01*
X104094814Y-100504000D01*
X106117766Y-99666066D01*
X107666066Y-98117766D01*
X108504000Y-96094814D01*
X108504000Y-93905186D01*
X107666066Y-91882234D01*
X106504000Y-90720168D01*
X106504000Y-90041810D01*
X106572647Y-89696699D01*
X106300695Y-88329507D01*
X106111708Y-88046668D01*
X105526243Y-87170457D01*
X105233670Y-86974967D01*
X101946363Y-83687660D01*
X102936245Y-83026243D01*
X103131738Y-82733668D01*
X107196670Y-78668735D01*
X107489243Y-78473245D01*
X108239864Y-77349861D01*
X108595807Y-77587695D01*
X109963000Y-77859647D01*
X111330192Y-77587695D01*
X112489243Y-76813243D01*
X113011140Y-76032169D01*
X113411000Y-76432029D01*
G36*
X170135394Y-107498865D02*
X171958001Y-109321473D01*
X171958000Y-115468528D01*
X170389394Y-117037135D01*
X169984000Y-117205054D01*
X169984000Y-107436156D01*
X170135394Y-107498865D01*
X170135394Y-107498865D01*
G37*
X170135394Y-107498865D02*
X171958001Y-109321473D01*
X171958000Y-115468528D01*
X170389394Y-117037135D01*
X169984000Y-117205054D01*
X169984000Y-107436156D01*
X170135394Y-107498865D01*
G36*
X179432000Y-80389293D02*
X179432000Y-81154707D01*
X179578000Y-81507182D01*
X179578001Y-93680879D01*
X179543167Y-93856000D01*
X179655575Y-94421107D01*
X179681162Y-94549741D01*
X180074134Y-95137867D01*
X180222592Y-95237063D01*
X189957527Y-104971999D01*
X187430118Y-104971999D01*
X187255001Y-104937166D01*
X187079884Y-104971999D01*
X186561260Y-105075160D01*
X185973134Y-105468132D01*
X185873938Y-105616590D01*
X182762593Y-108727936D01*
X182762590Y-108727938D01*
X175514000Y-115976529D01*
X175514000Y-108760117D01*
X175548833Y-108585000D01*
X175410839Y-107891258D01*
X175211441Y-107592838D01*
X175017867Y-107303133D01*
X174869408Y-107203936D01*
X172649865Y-104984394D01*
X172403865Y-104390496D01*
X171834504Y-103821135D01*
X171090599Y-103513000D01*
X170285401Y-103513000D01*
X169736866Y-103740210D01*
X169006243Y-102646755D01*
X168713673Y-102451266D01*
X165961167Y-99698761D01*
X167905186Y-100504000D01*
X170094814Y-100504000D01*
X172117766Y-99666066D01*
X173666066Y-98117766D01*
X174504000Y-96094814D01*
X174504000Y-93905186D01*
X173666066Y-91882234D01*
X172504000Y-90720168D01*
X172504000Y-90041810D01*
X172572647Y-89696699D01*
X172300695Y-88329507D01*
X172111708Y-88046668D01*
X171526243Y-87170457D01*
X171233670Y-86974967D01*
X168262703Y-84004000D01*
X173959655Y-84004000D01*
X174304766Y-84072647D01*
X174649877Y-84004000D01*
X175671959Y-83800695D01*
X176831009Y-83026243D01*
X177026502Y-82733668D01*
X179475221Y-80284949D01*
X179432000Y-80389293D01*
X179432000Y-80389293D01*
G37*
X179432000Y-80389293D02*
X179432000Y-81154707D01*
X179578000Y-81507182D01*
X179578001Y-93680879D01*
X179543167Y-93856000D01*
X179655575Y-94421107D01*
X179681162Y-94549741D01*
X180074134Y-95137867D01*
X180222592Y-95237063D01*
X189957527Y-104971999D01*
X187430118Y-104971999D01*
X187255001Y-104937166D01*
X187079884Y-104971999D01*
X186561260Y-105075160D01*
X185973134Y-105468132D01*
X185873938Y-105616590D01*
X182762593Y-108727936D01*
X182762590Y-108727938D01*
X175514000Y-115976529D01*
X175514000Y-108760117D01*
X175548833Y-108585000D01*
X175410839Y-107891258D01*
X175211441Y-107592838D01*
X175017867Y-107303133D01*
X174869408Y-107203936D01*
X172649865Y-104984394D01*
X172403865Y-104390496D01*
X171834504Y-103821135D01*
X171090599Y-103513000D01*
X170285401Y-103513000D01*
X169736866Y-103740210D01*
X169006243Y-102646755D01*
X168713673Y-102451266D01*
X165961167Y-99698761D01*
X167905186Y-100504000D01*
X170094814Y-100504000D01*
X172117766Y-99666066D01*
X173666066Y-98117766D01*
X174504000Y-96094814D01*
X174504000Y-93905186D01*
X173666066Y-91882234D01*
X172504000Y-90720168D01*
X172504000Y-90041810D01*
X172572647Y-89696699D01*
X172300695Y-88329507D01*
X172111708Y-88046668D01*
X171526243Y-87170457D01*
X171233670Y-86974967D01*
X168262703Y-84004000D01*
X173959655Y-84004000D01*
X174304766Y-84072647D01*
X174649877Y-84004000D01*
X175671959Y-83800695D01*
X176831009Y-83026243D01*
X177026502Y-82733668D01*
X179475221Y-80284949D01*
X179432000Y-80389293D01*
G36*
X193087353Y-108500002D02*
X193156001Y-108845118D01*
X193156001Y-110731372D01*
X193027192Y-110645305D01*
X191660000Y-110373353D01*
X190292807Y-110645305D01*
X189133757Y-111419757D01*
X188630285Y-112173256D01*
X188051345Y-111594316D01*
X187031783Y-111172000D01*
X185928217Y-111172000D01*
X184936824Y-111582648D01*
X185277062Y-111242410D01*
X185277064Y-111242407D01*
X187991473Y-108527999D01*
X191574885Y-108527999D01*
X191750001Y-108562832D01*
X191925117Y-108527999D01*
X191925118Y-108527999D01*
X192443742Y-108424838D01*
X192669488Y-108274000D01*
X193132308Y-108274000D01*
X193087353Y-108500002D01*
X193087353Y-108500002D01*
G37*
X193087353Y-108500002D02*
X193156001Y-108845118D01*
X193156001Y-110731372D01*
X193027192Y-110645305D01*
X191660000Y-110373353D01*
X190292807Y-110645305D01*
X189133757Y-111419757D01*
X188630285Y-112173256D01*
X188051345Y-111594316D01*
X187031783Y-111172000D01*
X185928217Y-111172000D01*
X184936824Y-111582648D01*
X185277062Y-111242410D01*
X185277064Y-111242407D01*
X187991473Y-108527999D01*
X191574885Y-108527999D01*
X191750001Y-108562832D01*
X191925117Y-108527999D01*
X191925118Y-108527999D01*
X192443742Y-108424838D01*
X192669488Y-108274000D01*
X193132308Y-108274000D01*
X193087353Y-108500002D01*
G36*
X101662306Y-65881807D02*
X101459001Y-66903889D01*
X101459000Y-74495598D01*
X98958599Y-76996000D01*
X86769889Y-76996000D01*
X85747807Y-77199305D01*
X84588757Y-77973757D01*
X83814305Y-79132807D01*
X83542353Y-80500000D01*
X83814305Y-81867193D01*
X84571222Y-83000000D01*
X83814305Y-84132807D01*
X83542353Y-85500000D01*
X83814305Y-86867193D01*
X84571222Y-88000000D01*
X83814305Y-89132807D01*
X83542353Y-90500000D01*
X83814305Y-91867193D01*
X84588757Y-93026243D01*
X85747807Y-93800695D01*
X86769889Y-94004000D01*
X87428000Y-94004000D01*
X87428000Y-94709886D01*
X87359353Y-95054998D01*
X87481453Y-95668833D01*
X87631305Y-96422190D01*
X88405757Y-97581241D01*
X88698333Y-97776734D01*
X93769330Y-102847732D01*
X93043655Y-103148316D01*
X93026838Y-103165133D01*
X82542000Y-92680295D01*
X82542000Y-79222471D01*
X84703472Y-77061000D01*
X85514783Y-77061000D01*
X86534345Y-76638684D01*
X87314684Y-75858345D01*
X87737000Y-74838783D01*
X87737000Y-73735217D01*
X87314684Y-72715655D01*
X86534345Y-71935316D01*
X85514783Y-71513000D01*
X84411217Y-71513000D01*
X83495000Y-71892509D01*
X83495000Y-66593957D01*
X84485957Y-65603000D01*
X101848599Y-65603000D01*
X101662306Y-65881807D01*
X101662306Y-65881807D01*
G37*
X101662306Y-65881807D02*
X101459001Y-66903889D01*
X101459000Y-74495598D01*
X98958599Y-76996000D01*
X86769889Y-76996000D01*
X85747807Y-77199305D01*
X84588757Y-77973757D01*
X83814305Y-79132807D01*
X83542353Y-80500000D01*
X83814305Y-81867193D01*
X84571222Y-83000000D01*
X83814305Y-84132807D01*
X83542353Y-85500000D01*
X83814305Y-86867193D01*
X84571222Y-88000000D01*
X83814305Y-89132807D01*
X83542353Y-90500000D01*
X83814305Y-91867193D01*
X84588757Y-93026243D01*
X85747807Y-93800695D01*
X86769889Y-94004000D01*
X87428000Y-94004000D01*
X87428000Y-94709886D01*
X87359353Y-95054998D01*
X87481453Y-95668833D01*
X87631305Y-96422190D01*
X88405757Y-97581241D01*
X88698333Y-97776734D01*
X93769330Y-102847732D01*
X93043655Y-103148316D01*
X93026838Y-103165133D01*
X82542000Y-92680295D01*
X82542000Y-79222471D01*
X84703472Y-77061000D01*
X85514783Y-77061000D01*
X86534345Y-76638684D01*
X87314684Y-75858345D01*
X87737000Y-74838783D01*
X87737000Y-73735217D01*
X87314684Y-72715655D01*
X86534345Y-71935316D01*
X85514783Y-71513000D01*
X84411217Y-71513000D01*
X83495000Y-71892509D01*
X83495000Y-66593957D01*
X84485957Y-65603000D01*
X101848599Y-65603000D01*
X101662306Y-65881807D01*
G36*
X118132807Y-93800695D02*
X119154889Y-94004000D01*
X123496001Y-94004000D01*
X123496000Y-96360886D01*
X123427353Y-96705998D01*
X123496000Y-97051108D01*
X123699305Y-98073190D01*
X124473757Y-99232241D01*
X124766333Y-99427734D01*
X128427213Y-103088615D01*
X127551783Y-102726000D01*
X126740472Y-102726000D01*
X117175543Y-93161072D01*
X118132807Y-93800695D01*
X118132807Y-93800695D01*
G37*
X118132807Y-93800695D02*
X119154889Y-94004000D01*
X123496001Y-94004000D01*
X123496000Y-96360886D01*
X123427353Y-96705998D01*
X123496000Y-97051108D01*
X123699305Y-98073190D01*
X124473757Y-99232241D01*
X124766333Y-99427734D01*
X128427213Y-103088615D01*
X127551783Y-102726000D01*
X126740472Y-102726000D01*
X117175543Y-93161072D01*
X118132807Y-93800695D01*
G36*
X184132807Y-93800695D02*
X185154889Y-94004000D01*
X189496001Y-94004000D01*
X189496000Y-96014890D01*
X189427353Y-96360002D01*
X189496000Y-96705112D01*
X189699305Y-97727194D01*
X190473757Y-98886245D01*
X190766332Y-99081737D01*
X193996002Y-102311408D01*
X193996002Y-102910001D01*
X193551783Y-102726000D01*
X192740472Y-102726000D01*
X183175543Y-93161072D01*
X184132807Y-93800695D01*
X184132807Y-93800695D01*
G37*
X184132807Y-93800695D02*
X185154889Y-94004000D01*
X189496001Y-94004000D01*
X189496000Y-96014890D01*
X189427353Y-96360002D01*
X189496000Y-96705112D01*
X189699305Y-97727194D01*
X190473757Y-98886245D01*
X190766332Y-99081737D01*
X193996002Y-102311408D01*
X193996002Y-102910001D01*
X193551783Y-102726000D01*
X192740472Y-102726000D01*
X183175543Y-93161072D01*
X184132807Y-93800695D01*
G36*
X217132807Y-93800695D02*
X218154889Y-94004000D01*
X223745999Y-94004000D01*
X223746000Y-98439881D01*
X223677352Y-98784997D01*
X223949304Y-100152189D01*
X224281326Y-100649095D01*
X224723757Y-101311240D01*
X225016329Y-101506730D01*
X226235599Y-102726000D01*
X225740472Y-102726000D01*
X216175543Y-93161072D01*
X217132807Y-93800695D01*
X217132807Y-93800695D01*
G37*
X217132807Y-93800695D02*
X218154889Y-94004000D01*
X223745999Y-94004000D01*
X223746000Y-98439881D01*
X223677352Y-98784997D01*
X223949304Y-100152189D01*
X224281326Y-100649095D01*
X224723757Y-101311240D01*
X225016329Y-101506730D01*
X226235599Y-102726000D01*
X225740472Y-102726000D01*
X216175543Y-93161072D01*
X217132807Y-93800695D01*
G36*
X151279807Y-93800695D02*
X152301889Y-94004000D01*
X156643000Y-94004000D01*
X156643001Y-98494882D01*
X156574353Y-98839998D01*
X156716602Y-99555130D01*
X150670990Y-93509519D01*
X150670990Y-93393897D01*
X151279807Y-93800695D01*
X151279807Y-93800695D01*
G37*
X151279807Y-93800695D02*
X152301889Y-94004000D01*
X156643000Y-94004000D01*
X156643001Y-98494882D01*
X156574353Y-98839998D01*
X156716602Y-99555130D01*
X150670990Y-93509519D01*
X150670990Y-93393897D01*
X151279807Y-93800695D01*
G36*
X66282032Y-90934136D02*
X65333934Y-91882234D01*
X64496000Y-93905186D01*
X64496000Y-96094814D01*
X64981794Y-97267625D01*
X61718169Y-94004000D01*
X61845111Y-94004000D01*
X62867193Y-93800695D01*
X64026243Y-93026243D01*
X64800695Y-91867193D01*
X65072647Y-90500000D01*
X64880150Y-89532253D01*
X66282032Y-90934136D01*
X66282032Y-90934136D01*
G37*
X66282032Y-90934136D02*
X65333934Y-91882234D01*
X64496000Y-93905186D01*
X64496000Y-96094814D01*
X64981794Y-97267625D01*
X61718169Y-94004000D01*
X61845111Y-94004000D01*
X62867193Y-93800695D01*
X64026243Y-93026243D01*
X64800695Y-91867193D01*
X65072647Y-90500000D01*
X64880150Y-89532253D01*
X66282032Y-90934136D01*
G36*
X131888306Y-65881807D02*
X131685001Y-66903889D01*
X131685000Y-74603362D01*
X129292363Y-76996000D01*
X119154889Y-76996000D01*
X118132807Y-77199305D01*
X116973757Y-77973757D01*
X116967000Y-77983870D01*
X116967000Y-76432029D01*
X117540684Y-75858345D01*
X117963000Y-74838783D01*
X117963000Y-73735217D01*
X117540684Y-72715655D01*
X116760345Y-71935316D01*
X115740783Y-71513000D01*
X114637217Y-71513000D01*
X113617655Y-71935316D01*
X113467000Y-72085971D01*
X113467000Y-65603000D01*
X132074599Y-65603000D01*
X131888306Y-65881807D01*
X131888306Y-65881807D01*
G37*
X131888306Y-65881807D02*
X131685001Y-66903889D01*
X131685000Y-74603362D01*
X129292363Y-76996000D01*
X119154889Y-76996000D01*
X118132807Y-77199305D01*
X116973757Y-77973757D01*
X116967000Y-77983870D01*
X116967000Y-76432029D01*
X117540684Y-75858345D01*
X117963000Y-74838783D01*
X117963000Y-73735217D01*
X117540684Y-72715655D01*
X116760345Y-71935316D01*
X115740783Y-71513000D01*
X114637217Y-71513000D01*
X113617655Y-71935316D01*
X113467000Y-72085971D01*
X113467000Y-65603000D01*
X132074599Y-65603000D01*
X131888306Y-65881807D01*
G36*
X247976000Y-62478129D02*
X247705670Y-62297500D01*
X245939100Y-60530931D01*
X245929329Y-60481808D01*
X245154877Y-59322757D01*
X245133268Y-59308318D01*
X245022483Y-59142517D01*
X243780738Y-58312810D01*
X242685735Y-58095000D01*
X151333821Y-58095000D01*
X151094814Y-57996000D01*
X148905186Y-57996000D01*
X148666179Y-58095000D01*
X83300735Y-58095000D01*
X82931000Y-58021455D01*
X81466262Y-58312810D01*
X81088290Y-58565363D01*
X80224517Y-59142517D01*
X80015079Y-59455963D01*
X77348080Y-62122964D01*
X76727810Y-63051263D01*
X76608065Y-63653264D01*
X76358193Y-63486305D01*
X74991000Y-63214353D01*
X73623808Y-63486305D01*
X72464758Y-64260757D01*
X71690305Y-65419807D01*
X71487000Y-66441889D01*
X71487000Y-68899876D01*
X71487001Y-68899881D01*
X71487000Y-75889594D01*
X70380594Y-76996000D01*
X55699707Y-76996000D01*
X56562345Y-76638684D01*
X57342684Y-75858345D01*
X57765000Y-74838783D01*
X57765000Y-73735217D01*
X57342684Y-72715655D01*
X56562345Y-71935316D01*
X55542783Y-71513000D01*
X54439217Y-71513000D01*
X53419655Y-71935316D01*
X52639316Y-72715655D01*
X52217000Y-73735217D01*
X52217000Y-74838783D01*
X52639316Y-75858345D01*
X53419655Y-76638684D01*
X54282293Y-76996000D01*
X53654889Y-76996000D01*
X52632807Y-77199305D01*
X52024000Y-77606097D01*
X52024000Y-52024000D01*
X247976000Y-52024000D01*
X247976000Y-62478129D01*
X247976000Y-62478129D01*
G37*
X247976000Y-62478129D02*
X247705670Y-62297500D01*
X245939100Y-60530931D01*
X245929329Y-60481808D01*
X245154877Y-59322757D01*
X245133268Y-59308318D01*
X245022483Y-59142517D01*
X243780738Y-58312810D01*
X242685735Y-58095000D01*
X151333821Y-58095000D01*
X151094814Y-57996000D01*
X148905186Y-57996000D01*
X148666179Y-58095000D01*
X83300735Y-58095000D01*
X82931000Y-58021455D01*
X81466262Y-58312810D01*
X81088290Y-58565363D01*
X80224517Y-59142517D01*
X80015079Y-59455963D01*
X77348080Y-62122964D01*
X76727810Y-63051263D01*
X76608065Y-63653264D01*
X76358193Y-63486305D01*
X74991000Y-63214353D01*
X73623808Y-63486305D01*
X72464758Y-64260757D01*
X71690305Y-65419807D01*
X71487000Y-66441889D01*
X71487000Y-68899876D01*
X71487001Y-68899881D01*
X71487000Y-75889594D01*
X70380594Y-76996000D01*
X55699707Y-76996000D01*
X56562345Y-76638684D01*
X57342684Y-75858345D01*
X57765000Y-74838783D01*
X57765000Y-73735217D01*
X57342684Y-72715655D01*
X56562345Y-71935316D01*
X55542783Y-71513000D01*
X54439217Y-71513000D01*
X53419655Y-71935316D01*
X52639316Y-72715655D01*
X52217000Y-73735217D01*
X52217000Y-74838783D01*
X52639316Y-75858345D01*
X53419655Y-76638684D01*
X54282293Y-76996000D01*
X53654889Y-76996000D01*
X52632807Y-77199305D01*
X52024000Y-77606097D01*
X52024000Y-52024000D01*
X247976000Y-52024000D01*
X247976000Y-62478129D01*
G36*
X205802306Y-66135807D02*
X205599001Y-67157889D01*
X205599000Y-74730362D01*
X203333363Y-76996000D01*
X190118312Y-76996000D01*
X190674345Y-76765684D01*
X191454684Y-75985345D01*
X191877000Y-74965783D01*
X191877000Y-73862217D01*
X191454684Y-72842655D01*
X190674345Y-72062316D01*
X189654783Y-71640000D01*
X188551217Y-71640000D01*
X187531655Y-72062316D01*
X187127000Y-72466971D01*
X187127000Y-65603000D01*
X206158316Y-65603000D01*
X205802306Y-66135807D01*
X205802306Y-66135807D01*
G37*
X205802306Y-66135807D02*
X205599001Y-67157889D01*
X205599000Y-74730362D01*
X203333363Y-76996000D01*
X190118312Y-76996000D01*
X190674345Y-76765684D01*
X191454684Y-75985345D01*
X191877000Y-74965783D01*
X191877000Y-73862217D01*
X191454684Y-72842655D01*
X190674345Y-72062316D01*
X189654783Y-71640000D01*
X188551217Y-71640000D01*
X187531655Y-72062316D01*
X187127000Y-72466971D01*
X187127000Y-65603000D01*
X206158316Y-65603000D01*
X205802306Y-66135807D01*
D20*
X244655000Y-137303000D03*
X247855000Y-137303000D03*
X52324000Y-137176000D03*
X104965500Y-136144000D03*
X105092500Y-138430000D03*
X171059868Y-132197868D03*
X176457368Y-132134368D03*
X182979767Y-130945969D03*
X188331868Y-130927868D03*
X193647767Y-130945969D03*
X197993000Y-132080000D03*
X134366000Y-132080000D03*
X130175000Y-131064000D03*
X124931798Y-131064000D03*
X119507000Y-131064000D03*
X114263798Y-130810000D03*
X108829868Y-130946132D03*
X53340000Y-52705000D03*
X56540000Y-52705000D03*
X59740000Y-52705000D03*
X62940000Y-52705000D03*
X66140000Y-52705000D03*
X69340000Y-52705000D03*
X72540000Y-52705000D03*
X75740000Y-52705000D03*
X78940000Y-52705000D03*
X82140000Y-52705000D03*
X85340000Y-52705000D03*
X88540000Y-52705000D03*
X91740000Y-52705000D03*
X94940000Y-52705000D03*
X98140000Y-52705000D03*
X101340000Y-52705000D03*
X104540000Y-52705000D03*
X107740000Y-52705000D03*
X110940000Y-52705000D03*
X114140000Y-52705000D03*
X117340000Y-52705000D03*
X120540000Y-52705000D03*
X123740000Y-52705000D03*
X126940000Y-52705000D03*
X130140000Y-52705000D03*
X133340000Y-52705000D03*
X136540000Y-52705000D03*
X139740000Y-52705000D03*
X142940000Y-52705000D03*
X146140000Y-52705000D03*
X149340000Y-52705000D03*
X152540000Y-52705000D03*
X165340000Y-52705000D03*
X168540000Y-52705000D03*
X171740000Y-52705000D03*
X174940000Y-52705000D03*
X178140000Y-52705000D03*
X181340000Y-52705000D03*
X184540000Y-52705000D03*
X187740000Y-52705000D03*
X190940000Y-52705000D03*
X194140000Y-52705000D03*
X197340000Y-52705000D03*
X200540000Y-52705000D03*
X203740000Y-52705000D03*
X206940000Y-52705000D03*
X210140000Y-52705000D03*
X213340000Y-52705000D03*
X216540000Y-52705000D03*
X219740000Y-52705000D03*
X222940000Y-52705000D03*
X226140000Y-52705000D03*
X229340000Y-52705000D03*
X232540000Y-52705000D03*
X235740000Y-52705000D03*
X238940000Y-52705000D03*
X242140000Y-52705000D03*
X55524000Y-137176000D03*
X58724000Y-137176000D03*
X61924000Y-137176000D03*
X65124000Y-137176000D03*
X68324000Y-137176000D03*
X71524000Y-137176000D03*
X74724000Y-137176000D03*
X77924000Y-137176000D03*
X81124000Y-137176000D03*
X84324000Y-137176000D03*
X87524000Y-137176000D03*
X90724000Y-137176000D03*
X93924000Y-137176000D03*
X97124000Y-137176000D03*
X100324000Y-137176000D03*
X135524000Y-137176000D03*
X164324000Y-137176000D03*
X189924000Y-137176000D03*
X193124000Y-137176000D03*
X196324000Y-137176000D03*
X199524000Y-137176000D03*
X202724000Y-137176000D03*
X205924000Y-137176000D03*
X209124000Y-137176000D03*
X212324000Y-137176000D03*
X215524000Y-137176000D03*
X218724000Y-137176000D03*
X221924000Y-137176000D03*
X225124000Y-137176000D03*
X228324000Y-137176000D03*
X231524000Y-137176000D03*
X234724000Y-137176000D03*
X237924000Y-137176000D03*
X241124000Y-137176000D03*
X120523000Y-121920000D03*
X124206000Y-121920000D03*
X127889000Y-121920000D03*
X93599000Y-120904000D03*
X89662000Y-120904000D03*
X84582000Y-117729000D03*
X80264000Y-109347000D03*
X70485000Y-117729000D03*
X67945000Y-111633000D03*
X64643000Y-108204000D03*
X73279000Y-103505000D03*
X71374000Y-101473000D03*
X76962000Y-127635000D03*
X79629000Y-129794000D03*
X84963000Y-130556000D03*
X94869000Y-130556000D03*
X145542000Y-121920000D03*
X154940000Y-121920000D03*
X154940000Y-131191000D03*
X145161000Y-131191000D03*
X158750000Y-130683000D03*
X165227000Y-130683000D03*
X176149000Y-121920000D03*
X180594000Y-121920000D03*
X183896000Y-121920000D03*
X204978000Y-121920000D03*
X212979000Y-121920000D03*
X200787000Y-130937000D03*
X207899000Y-131064000D03*
X215392000Y-131064000D03*
X224663000Y-127000000D03*
X217170000Y-117983000D03*
X219202000Y-110109000D03*
X223266000Y-109855000D03*
X221361000Y-109347000D03*
X220853000Y-131191000D03*
X73152000Y-84836000D03*
X75311000Y-82423000D03*
X78613000Y-79502000D03*
X68072000Y-76454000D03*
X57785000Y-76454000D03*
X65151000Y-76454000D03*
X74549000Y-90170000D03*
X65659000Y-91313000D03*
X63627000Y-94234000D03*
X52959000Y-94869000D03*
X78232000Y-108966000D03*
X61595000Y-76581000D03*
X52070000Y-76708000D03*
X70358000Y-70866000D03*
X71501000Y-63373000D03*
X74803000Y-62357000D03*
X77343000Y-61214000D03*
X80899000Y-57658000D03*
X90170000Y-57150000D03*
X101346000Y-57150000D03*
X112268000Y-57150000D03*
X122047000Y-57150000D03*
X127635000Y-57150000D03*
X168021000Y-57023000D03*
X176149000Y-57023000D03*
X188341000Y-57023000D03*
X202057000Y-57023000D03*
X213487000Y-57023000D03*
X229235000Y-57023000D03*
X241554000Y-56896000D03*
X246761000Y-58547000D03*
X248539000Y-60833000D03*
X245745000Y-78613000D03*
X235331000Y-71501000D03*
X235331000Y-69469000D03*
X242062000Y-81407000D03*
X239141000Y-84455000D03*
X236855000Y-84709000D03*
X223520000Y-76200000D03*
X228092000Y-76200000D03*
X232791000Y-76200000D03*
X238379000Y-87122000D03*
X235204000Y-104140000D03*
X224917000Y-101854000D03*
X221615000Y-97282000D03*
X220091000Y-95250000D03*
X217678000Y-95123000D03*
X224028000Y-107442000D03*
X129921000Y-71374000D03*
X129921000Y-69596000D03*
X144399000Y-69723000D03*
X144526000Y-72771000D03*
X118110000Y-66040000D03*
X126619000Y-66040000D03*
X88900000Y-66548000D03*
X96520000Y-66548000D03*
X163576000Y-66802000D03*
X170053000Y-66802000D03*
X192278000Y-66548000D03*
X196723000Y-66548000D03*
X201041000Y-66548000D03*
X224155000Y-66294000D03*
X231902000Y-66421000D03*
X105537000Y-103124000D03*
X104394000Y-84328000D03*
X106807000Y-86614000D03*
X107823000Y-90170000D03*
X107315000Y-80772000D03*
X98044000Y-76454000D03*
X90678000Y-76327000D03*
X96774000Y-106680000D03*
X99314000Y-109220000D03*
X100711000Y-111506000D03*
X100584000Y-116586000D03*
X100584000Y-118872000D03*
X84582000Y-119253000D03*
X83312000Y-110490000D03*
X72644000Y-125349000D03*
X75438000Y-125984000D03*
X118999000Y-94869000D03*
X122047000Y-94996000D03*
X122301000Y-97409000D03*
X124460000Y-100711000D03*
X130683000Y-108331000D03*
X130683000Y-110744000D03*
X130810000Y-116459000D03*
X130810000Y-118999000D03*
X144526000Y-120015000D03*
X144526000Y-115316000D03*
X144145000Y-110871000D03*
X139573000Y-109474000D03*
X139573000Y-105537000D03*
X139319000Y-102743000D03*
X140589000Y-90551000D03*
X139827000Y-86487000D03*
X136652000Y-83439000D03*
X137668000Y-80772000D03*
X139192000Y-78613000D03*
X143764000Y-77470000D03*
X123825000Y-75819000D03*
X118237000Y-75692000D03*
X127381000Y-75819000D03*
X162052000Y-109601000D03*
X155575000Y-94615000D03*
X155575000Y-98425000D03*
X170561000Y-103505000D03*
X170688000Y-109220000D03*
X170815000Y-116713000D03*
X157353000Y-121920000D03*
X157480000Y-118618000D03*
X157353000Y-114300000D03*
X158496000Y-110744000D03*
X201168000Y-118999000D03*
X201168000Y-116586000D03*
X201041000Y-111125000D03*
X202057000Y-107823000D03*
X202184000Y-103632000D03*
X185293000Y-94742000D03*
X188341000Y-94742000D03*
X188341000Y-97663000D03*
X190754000Y-100838000D03*
X192151000Y-109474000D03*
X187325000Y-118872000D03*
X187325000Y-116332000D03*
X231394000Y-118618000D03*
X231394000Y-116586000D03*
X233426000Y-111506000D03*
X223012000Y-100076000D03*
X162687000Y-76200000D03*
X165481000Y-76200000D03*
X170307000Y-76073000D03*
X196342000Y-76200000D03*
X200914000Y-76073000D03*
X204724000Y-71628000D03*
X204724000Y-69469000D03*
X219202000Y-69088000D03*
X219202000Y-71501000D03*
X212217000Y-79629000D03*
X209677000Y-82042000D03*
X206502000Y-84836000D03*
X204089000Y-85090000D03*
X206248000Y-88011000D03*
X206502000Y-90551000D03*
X173482000Y-90678000D03*
X173228000Y-87884000D03*
X171069000Y-85090000D03*
X174244000Y-84963000D03*
X178562000Y-83185000D03*
X179959000Y-81407000D03*
X239776000Y-91313000D03*
X114427000Y-116332000D03*
X114427000Y-118491000D03*
X114046000Y-110871000D03*
X110871000Y-109601000D03*
X86487000Y-96012000D03*
X89027000Y-99314000D03*
X91948000Y-101854000D03*
X82550000Y-80645000D03*
X82677000Y-85979000D03*
X82677000Y-91567000D03*
X62865000Y-121539000D03*
X96265998Y-121285000D03*
X97155000Y-122301000D03*
X117094000Y-120650000D03*
X118491000Y-122174000D03*
X173609000Y-121920000D03*
X209042000Y-122174000D03*
X170942000Y-118999000D03*
X170688000Y-105537000D03*
X181356000Y-80772000D03*
X173609000Y-120396000D03*
X213868000Y-80518000D03*
X222885000Y-128778000D03*
X234823000Y-105664000D03*
X221580000Y-121446000D03*
X226580000Y-121446000D03*
X231580000Y-121446000D03*
X221580000Y-113946000D03*
X226580000Y-113946000D03*
X231580000Y-113946000D03*
X246580000Y-121446000D03*
X246580000Y-113946000D03*
X191660000Y-121446000D03*
X196660000Y-121446000D03*
X201660000Y-121446000D03*
X191660000Y-113946000D03*
X196660000Y-113946000D03*
X201660000Y-113946000D03*
X216660000Y-121446000D03*
X216660000Y-113946000D03*
X161480000Y-121446000D03*
X166480000Y-121446000D03*
X171480000Y-121446000D03*
X161480000Y-113946000D03*
X166480000Y-113946000D03*
X171480000Y-113946000D03*
X186480000Y-121446000D03*
X186480000Y-113946000D03*
X140189000Y-114000000D03*
X135189000Y-114000000D03*
X130189000Y-114000000D03*
X140189000Y-121500000D03*
X135189000Y-121500000D03*
X130189000Y-121500000D03*
X115189000Y-114000000D03*
X115189000Y-121500000D03*
X109963000Y-114000000D03*
X104963000Y-114000000D03*
X99963000Y-114000000D03*
X109963000Y-121500000D03*
X104963000Y-121500000D03*
X99963000Y-121500000D03*
X84963000Y-114000000D03*
X84963000Y-121500000D03*
X79991000Y-114000000D03*
X74991000Y-114000000D03*
X69991000Y-114000000D03*
X79991000Y-121500000D03*
X74991000Y-121500000D03*
X69991000Y-121500000D03*
X54991000Y-114000000D03*
X54991000Y-121500000D03*
X218500000Y-80500000D03*
X218500000Y-85500000D03*
X218500000Y-90500000D03*
X226000000Y-80500000D03*
X226000000Y-85500000D03*
X226000000Y-90500000D03*
X218500000Y-105500000D03*
X226000000Y-105500000D03*
X185500000Y-80500000D03*
X185500000Y-85500000D03*
X185500000Y-90500000D03*
X193000000Y-80500000D03*
X193000000Y-85500000D03*
X193000000Y-90500000D03*
X185500000Y-105500000D03*
X193000000Y-105500000D03*
X152647000Y-80500000D03*
X152647000Y-85500000D03*
X152647000Y-90500000D03*
X160147000Y-80500000D03*
X160147000Y-85500000D03*
X160147000Y-90500000D03*
X152647000Y-105500000D03*
X160147000Y-105500000D03*
X119500000Y-80500000D03*
X119500000Y-85500000D03*
X119500000Y-90500000D03*
X127000000Y-80500000D03*
X127000000Y-85500000D03*
X127000000Y-90500000D03*
X119500000Y-105500000D03*
X127000000Y-105500000D03*
X87115000Y-80500000D03*
X87115000Y-85500000D03*
X87115000Y-90500000D03*
X94615000Y-80500000D03*
X94615000Y-85500000D03*
X94615000Y-90500000D03*
X87115000Y-105500000D03*
X94615000Y-105500000D03*
X54000000Y-80500000D03*
X54000000Y-85500000D03*
X54000000Y-90500000D03*
X61500000Y-80500000D03*
X61500000Y-85500000D03*
X61500000Y-90500000D03*
X54000000Y-105500000D03*
X61500000Y-105500000D03*
X245472000Y-66787000D03*
X240472000Y-66787000D03*
X235472000Y-66787000D03*
X245472000Y-74287000D03*
X240472000Y-74287000D03*
X235472000Y-74287000D03*
X220472000Y-66787000D03*
X220472000Y-74287000D03*
X214103000Y-66914000D03*
X209103000Y-66914000D03*
X204103000Y-66914000D03*
X214103000Y-74414000D03*
X209103000Y-74414000D03*
X204103000Y-74414000D03*
X189103000Y-66914000D03*
X189103000Y-74414000D03*
X183623000Y-66914000D03*
X178623000Y-66914000D03*
X173623000Y-66914000D03*
X183623000Y-74414000D03*
X178623000Y-74414000D03*
X173623000Y-74414000D03*
X158623000Y-66914000D03*
X158623000Y-74414000D03*
X140189000Y-66787000D03*
X135189000Y-66787000D03*
X130189000Y-66787000D03*
X140189000Y-74287000D03*
X135189000Y-74287000D03*
X130189000Y-74287000D03*
X115189000Y-66787000D03*
X115189000Y-74287000D03*
X109963000Y-66787000D03*
X104963000Y-66787000D03*
X99963000Y-66787000D03*
X109963000Y-74287000D03*
X104963000Y-74287000D03*
X99963000Y-74287000D03*
X84963000Y-66787000D03*
X84963000Y-74287000D03*
X79991000Y-66787000D03*
X74991000Y-66787000D03*
X69991000Y-66787000D03*
X79991000Y-74287000D03*
X74991000Y-74287000D03*
X69991000Y-74287000D03*
X54991000Y-66787000D03*
X54991000Y-74287000D03*
X168275000Y-136017000D03*
X170815000Y-136017000D03*
X173355000Y-136017000D03*
X175895000Y-136017000D03*
X178435000Y-136017000D03*
X180975000Y-136017000D03*
X183515000Y-136017000D03*
X186055000Y-136017000D03*
X113665000Y-136017000D03*
X116205000Y-136017000D03*
X118745000Y-136017000D03*
X121285000Y-136017000D03*
X123825000Y-136017000D03*
X126365000Y-136017000D03*
X128905000Y-136017000D03*
X131445000Y-136017000D03*
X138498430Y-136995000D03*
X138498430Y-134245000D03*
X140880000Y-132870000D03*
X143261570Y-134245000D03*
X143261570Y-136995000D03*
X140880000Y-138370000D03*
X140880000Y-135620000D03*
X150000000Y-126500000D03*
X245495000Y-106501570D03*
X242745000Y-106501570D03*
X241370000Y-104120000D03*
X242745000Y-101738430D03*
X245495000Y-101738430D03*
X246870000Y-104120000D03*
X244120000Y-104120000D03*
X235000000Y-95000000D03*
X212495000Y-106501570D03*
X209745000Y-106501570D03*
X208370000Y-104120000D03*
X209745000Y-101738430D03*
X212495000Y-101738430D03*
X213870000Y-104120000D03*
X211120000Y-104120000D03*
X202000000Y-95000000D03*
X179495000Y-106501570D03*
X176745000Y-106501570D03*
X175370000Y-104120000D03*
X176745000Y-101738430D03*
X179495000Y-101738430D03*
X180870000Y-104120000D03*
X178120000Y-104120000D03*
X169000000Y-95000000D03*
X146495000Y-106501570D03*
X143745000Y-106501570D03*
X142370000Y-104120000D03*
X143745000Y-101738430D03*
X146495000Y-101738430D03*
X147870000Y-104120000D03*
X145120000Y-104120000D03*
X136000000Y-95000000D03*
X113495000Y-106501570D03*
X110745000Y-106501570D03*
X109370000Y-104120000D03*
X110745000Y-101738430D03*
X113495000Y-101738430D03*
X114870000Y-104120000D03*
X112120000Y-104120000D03*
X103000000Y-95000000D03*
X80495000Y-106501570D03*
X77745000Y-106501570D03*
X76370000Y-104120000D03*
X77745000Y-101738430D03*
X80495000Y-101738430D03*
X81870000Y-104120000D03*
X79120000Y-104120000D03*
X70000000Y-95000000D03*
X161501570Y-53005000D03*
X161501570Y-55755000D03*
X159120000Y-57130000D03*
X156738430Y-55755000D03*
X156738430Y-53005000D03*
X159120000Y-51630000D03*
X159120000Y-54380000D03*
X150000000Y-63500000D03*
M02*
