M48
; DRILL file {KiCad (5.1.10)-1} date 09/11/23 22:03:52
; FORMAT={-:-/ absolute / metric / decimal}
; #@! TF.CreationDate,2023-09-11T22:03:52+08:00
; #@! TF.GenerationSoftware,Kicad,Pcbnew,(5.1.10)-1
; #@! TF.FileFunction,Plated,1,2,PTH
FMAT,2
METRIC
T1C0.300
T2C0.400
T3C0.635
T4C0.800
T5C0.890
T6C0.900
T7C1.000
T8C1.020
T9C1.400
T10C1.630
T11C2.000
T12C3.500
%
G90
G05
T1
X47.622Y-61.378
X47.75Y-91.25
X48.25Y-99.0
X48.635Y-105.719
X48.784Y-72.928
X48.806Y-64.444
X48.892Y-109.783
X48.892Y-117.149
X49.063Y-124.515
X49.717Y-112.577
X49.952Y-88.701
X50.479Y-113.72
X50.485Y-111.155
X50.49Y-114.863
X50.577Y-95.178
X50.607Y-109.783
X50.968Y-99.496
X51.349Y-108.513
X51.857Y-89.971
X52.106Y-117.094
X52.594Y-72.928
X52.619Y-119.816
X52.75Y-98.0
X52.873Y-112.704
X53.0Y-121.848
X53.127Y-100.639
X53.508Y-66.73
X53.66Y-78.16
X53.965Y-82.224
X54.143Y-104.83
X54.27Y-106.354
X54.299Y-83.526
X54.397Y-109.402
X54.423Y-87.64
X54.651Y-118.927
X55.21Y-138.282
X56.043Y-95.046
X56.048Y-102.417
X56.183Y-115.998
X56.353Y-72.928
X56.5Y-63.555
X56.556Y-97.972
X56.805Y-94.284
X56.937Y-103.433
X57.074Y-118.977
X57.184Y-80.823
X57.562Y-99.822
X57.651Y-116.824
X57.826Y-95.94
X57.953Y-88.955
X58.0Y-83.5
X58.08Y-118.292
X58.199Y-72.019
X58.207Y-91.749
X58.243Y-124.332
X58.248Y-110.758
X58.588Y-97.845
X58.619Y-95.286
X58.715Y-93.273
X58.73Y-80.503
X59.096Y-112.45
X59.115Y-90.968
X59.401Y-137.037
X59.553Y-123.633
X59.639Y-96.978
X59.731Y-85.399
X59.807Y-77.5
X59.858Y-92.638
X59.858Y-104.957
X59.873Y-111.124
X59.921Y-86.701
X59.962Y-84.045
X60.214Y-72.928
X60.366Y-119.308
X60.493Y-67.238
X60.493Y-89.209
X60.493Y-97.877
X60.874Y-83.697
X61.077Y-71.581
X61.382Y-104.83
X61.403Y-84.489
X61.826Y-89.463
X62.05Y-116.903
X62.398Y-91.749
X62.615Y-77.953
X62.779Y-98.099
X62.779Y-104.703
X62.839Y-76.645
X62.877Y-78.869
X63.023Y-80.344
X63.033Y-63.809
X63.141Y-90.222
X63.795Y-105.084
X63.795Y-112.577
X63.816Y-73.004
X63.961Y-78.693
X63.966Y-82.043
X64.684Y-87.279
X64.684Y-98.099
X64.933Y-78.304
X65.051Y-75.284
X65.065Y-116.26
X65.192Y-121.848
X65.305Y-85.668
X65.319Y-111.942
X65.573Y-110.926
X65.97Y-67.485
X66.208Y-90.479
X66.208Y-92.384
X66.208Y-102.671
X66.335Y-120.415
X67.097Y-66.984
X67.834Y-72.877
X67.986Y-117.53
X68.06Y-77.981
X68.638Y-79.617
X69.104Y-85.247
X69.205Y-71.607
X69.51Y-63.936
X69.564Y-80.724
X69.626Y-78.486
X69.641Y-77.534
X69.831Y-79.416
X69.866Y-90.149
X70.018Y-108.894
X70.018Y-114.609
X70.028Y-81.556
X70.119Y-85.151
X70.145Y-118.292
X70.653Y-97.337
X70.75Y-121.25
X70.78Y-111.815
X70.905Y-85.73
X71.186Y-77.374
X71.25Y-127.5
X71.517Y-74.223
X71.542Y-103.103
X71.542Y-109.656
X71.542Y-117.276
X71.669Y-112.45
X71.876Y-73.008
X71.89Y-86.003
X72.431Y-107.497
X72.685Y-109.021
X72.685Y-114.863
X72.939Y-99.115
X73.015Y-86.771
X73.345Y-88.155
X73.564Y-70.208
X73.593Y-111.208
X73.601Y-71.36
X73.701Y-118.292
X73.828Y-77.374
X73.937Y-80.676
X74.209Y-67.619
X74.758Y-85.033
X74.909Y-81.246
X75.04Y-77.374
X75.183Y-83.165
X75.229Y-97.575
X75.25Y-133.5
X75.292Y-68.113
X75.38Y-79.715
X75.454Y-84.078
X75.482Y-85.662
X75.549Y-71.614
X75.555Y-89.641
X75.606Y-72.826
X75.606Y-86.669
X75.606Y-70.54
X75.733Y-130.865
X76.1Y-109.1
X76.1Y-115.6
X76.222Y-80.848
X76.241Y-63.936
X76.698Y-91.216
X77.044Y-79.687
X77.361Y-70.588
X77.512Y-126.039
X77.587Y-72.597
X77.765Y-97.21
X77.868Y-83.079
X77.892Y-88.955
X78.019Y-87.812
X78.274Y-127.944
X78.522Y-80.848
X78.654Y-86.923
X78.678Y-78.411
X78.899Y-85.131
X79.112Y-126.039
X79.416Y-118.419
X79.458Y-72.653
X79.622Y-70.588
X79.67Y-96.702
X79.67Y-116.895
X79.68Y-71.605
X79.874Y-127.944
X79.888Y-84.961
X79.901Y-77.774
X79.924Y-89.082
X79.924Y-90.085
X80.051Y-67.619
X80.246Y-80.643
X80.287Y-83.432
X80.302Y-82.008
X80.375Y-115.244
X80.389Y-76.421
X80.432Y-88.193
X80.712Y-126.039
X81.065Y-72.387
X81.096Y-82.909
X81.27Y-81.601
X81.337Y-80.293
X81.397Y-77.627
X81.436Y-78.985
X81.474Y-127.944
X81.642Y-109.793
X81.642Y-111.494
X82.312Y-126.039
X82.38Y-108.209
X82.85Y-64.063
X83.074Y-124.261
X83.074Y-127.944
X83.175Y-72.674
X83.266Y-108.559
X83.347Y-95.438
X83.353Y-93.019
X83.467Y-71.569
X83.912Y-126.039
X83.969Y-107.917
X84.674Y-124.261
X84.674Y-127.944
X85.004Y-78.287
X85.427Y-107.064
X85.512Y-126.039
X85.752Y-72.699
X86.071Y-98.328
X86.074Y-62.574
X86.274Y-124.261
X86.274Y-127.944
X86.985Y-72.775
X87.426Y-104.399
X87.676Y-62.574
X88.118Y-89.294
X88.23Y-104.5
X88.433Y-82.351
X89.576Y-82.859
X89.916Y-104.548
X90.211Y-106.865
X90.231Y-100.855
X90.592Y-89.59
X90.795Y-72.623
X91.006Y-105.305
X91.354Y-116.006
X91.481Y-117.403
X91.5Y-119.25
X91.9Y-112.5
X92.208Y-82.57
X92.243Y-67.492
X92.878Y-99.877
X92.968Y-98.758
X93.056Y-68.254
X93.056Y-70.718
X93.259Y-90.117
X93.281Y-91.425
X93.5Y-128.85
X93.513Y-95.434
X93.566Y-96.843
X93.67Y-94.024
X93.742Y-114.126
X93.79Y-92.716
X93.894Y-97.845
X94.385Y-90.949
X94.402Y-89.285
X94.537Y-96.281
X94.602Y-93.565
X94.624Y-92.257
X94.721Y-94.873
X96.739Y-67.543
X96.993Y-86.39
X97.171Y-104.322
X97.577Y-119.181
X97.75Y-137.1
X97.75Y-139.1
X98.237Y-97.921
X98.466Y-88.447
X98.466Y-90.606
X98.8Y-141.1
X98.807Y-70.738
X99.083Y-96.678
X99.221Y-118.119
X99.482Y-101.337
X99.5Y-142.5
X99.826Y-92.929
X99.99Y-97.337
X100.0Y-139.0
X100.752Y-90.479
X100.828Y-92.841
X100.904Y-113.618
X101.006Y-100.004
X101.209Y-86.745
X101.26Y-102.392
X101.5Y-141.0
X101.586Y-94.763
X102.126Y-93.035
X102.48Y-103.293
X102.5Y-142.5
X102.53Y-95.94
X102.581Y-83.189
X102.632Y-121.289
X102.911Y-97.733
X102.987Y-68.203
X103.003Y-92.46
X103.4Y-128.4
X103.75Y-141.35
X104.181Y-85.145
X104.562Y-116.006
X105.226Y-85.581
X106.25Y-141.35
X106.7Y-132.4
X106.7Y-133.2
X106.721Y-87.685
X107.75Y-93.5
X107.75Y-138.25
X107.827Y-71.465
X107.94Y-57.662
X108.169Y-99.953
X108.181Y-101.401
X108.524Y-95.229
X108.753Y-65.079
X109.815Y-80.024
X110.149Y-80.916
X110.871Y-81.537
X111.369Y-101.731
X111.8Y-86.95
X111.928Y-78.668
X111.992Y-108.576
X112.0Y-89.75
X112.817Y-107.878
X112.9Y-86.8
X112.944Y-79.684
X113.0Y-59.9
X113.5Y-119.1
X113.579Y-107.0
X113.579Y-80.827
X113.579Y-115.371
X113.579Y-116.641
X114.089Y-104.31
X115.0Y-109.0
X115.23Y-104.53
X115.547Y-101.02
X116.1Y-59.9
X116.652Y-125.81
X116.704Y-103.486
X116.881Y-94.67
X117.5Y-109.0
X117.6Y-86.8
X119.0Y-126.877
X119.1Y-59.9
X120.0Y-109.0
X120.208Y-94.546
X121.3Y-123.2
X121.3Y-124.1
X121.5Y-63.5
X121.79Y-86.69
X122.4Y-63.5
X123.1Y-89.5
T2
X48.403Y-83.195
X48.403Y-85.57
X50.46Y-82.008
X50.46Y-86.758
X52.517Y-83.195
X52.517Y-85.57
X74.26Y-102.398
X74.26Y-104.773
X76.317Y-101.21
X76.317Y-105.96
X78.374Y-102.398
X78.374Y-104.773
X121.943Y-57.812
X121.943Y-60.188
X121.943Y-139.812
X121.943Y-142.188
X124.0Y-56.625
X124.0Y-61.375
X124.0Y-138.625
X124.0Y-143.375
X126.057Y-57.812
X126.057Y-60.188
X126.057Y-139.812
X126.057Y-142.188
T3
X56.492Y-85.208
X116.348Y-98.531
T4
X93.92Y-59.11
X93.92Y-74.35
X93.92Y-109.783
X93.92Y-125.023
X96.46Y-59.11
X96.46Y-74.35
X96.46Y-109.783
X96.46Y-125.023
X99.0Y-59.11
X99.0Y-74.35
X99.0Y-109.783
X99.0Y-125.023
X101.54Y-59.11
X101.54Y-74.35
X101.54Y-109.783
X101.54Y-125.023
X104.08Y-59.11
X104.08Y-74.35
X104.08Y-109.783
X104.08Y-125.023
T5
X52.734Y-128.198
X54.004Y-130.738
X55.274Y-128.198
X56.544Y-130.738
X57.814Y-128.198
X59.084Y-130.738
X60.354Y-128.198
X61.624Y-130.738
T6
X109.039Y-92.297
X109.039Y-97.297
X109.947Y-105.313
X111.039Y-92.297
X111.039Y-97.297
X112.487Y-105.313
X113.024Y-113.079
X113.024Y-131.379
X113.024Y-65.454
X113.024Y-83.754
X113.039Y-92.297
X113.039Y-97.297
X115.524Y-113.079
X115.524Y-131.379
X115.524Y-65.454
X115.524Y-83.754
X118.024Y-113.079
X118.024Y-131.379
X118.024Y-65.454
X118.024Y-83.754
X120.524Y-113.079
X120.524Y-131.379
X120.524Y-65.454
X120.524Y-83.754
X121.358Y-92.297
X121.358Y-97.297
X122.494Y-105.313
X123.024Y-113.079
X123.024Y-131.379
X123.024Y-65.454
X123.024Y-83.754
X123.358Y-92.297
X123.358Y-97.297
X125.034Y-105.313
X125.358Y-92.297
X125.358Y-97.297
T7
X49.1Y-59.0
X51.6Y-59.0
X54.1Y-59.0
X56.6Y-59.0
X59.1Y-59.0
X61.6Y-59.0
X64.1Y-59.0
X65.446Y-83.342
X66.6Y-59.0
X67.986Y-83.342
X70.526Y-83.342
X72.5Y-59.0
X73.066Y-83.342
X75.0Y-59.0
X77.5Y-59.0
X80.0Y-59.0
X82.5Y-59.0
X84.242Y-111.561
X84.242Y-114.101
X84.242Y-116.641
X84.242Y-119.181
X84.242Y-121.721
X85.0Y-59.0
X86.782Y-111.561
X86.782Y-114.101
X86.782Y-116.641
X86.782Y-119.181
X86.782Y-121.721
X87.5Y-59.0
X90.0Y-59.0
T8
X50.549Y-141.988
X53.089Y-141.988
X61.259Y-141.988
X63.799Y-141.988
T9
X72.431Y-138.358
X77.511Y-138.358
X82.591Y-138.358
X111.166Y-138.331
X116.246Y-138.331
T10
X49.429Y-134.038
X64.919Y-134.038
T11
X110.024Y-121.129
X110.024Y-73.504
X126.024Y-121.129
X126.024Y-73.504
T12
X50.46Y-84.383
X76.317Y-103.585
X124.0Y-59.0
X124.0Y-141.0
T0
M30
