G04 #@! TF.GenerationSoftware,KiCad,Pcbnew,(5.1.10)-1*
G04 #@! TF.CreationDate,2023-09-11T22:03:16+08:00*
G04 #@! TF.ProjectId,AntennaSwitch_6x2,416e7465-6e6e-4615-9377-697463685f36,rev?*
G04 #@! TF.SameCoordinates,Original*
G04 #@! TF.FileFunction,Soldermask,Bot*
G04 #@! TF.FilePolarity,Negative*
%FSLAX46Y46*%
G04 Gerber Fmt 4.6, Leading zero omitted, Abs format (unit mm)*
G04 Created by KiCad (PCBNEW (5.1.10)-1) date 2023-09-11 22:03:16*
%MOMM*%
%LPD*%
G01*
G04 APERTURE LIST*
%ADD10C,3.102000*%
%ADD11C,2.002000*%
%ADD12C,1.702000*%
%ADD13C,1.245000*%
%ADD14O,1.626000X2.626000*%
%ADD15C,0.902000*%
%ADD16C,6.102000*%
%ADD17C,1.802000*%
%ADD18O,2.182000X3.702000*%
%ADD19O,1.802000X1.802000*%
%ADD20C,2.102000*%
%ADD21C,3.552000*%
%ADD22C,3.352000*%
%ADD23C,1.852000*%
%ADD24C,1.902000*%
G04 APERTURE END LIST*
D10*
X110024000Y-121129000D03*
X126024000Y-121129000D03*
D11*
X123024000Y-113079000D03*
X120524000Y-113079000D03*
X118024000Y-113079000D03*
X115524000Y-113079000D03*
X113024000Y-113079000D03*
X113024000Y-131379000D03*
X115524000Y-131379000D03*
X118024000Y-131379000D03*
X120524000Y-131379000D03*
X123024000Y-131379000D03*
D10*
X110024001Y-73504000D03*
X126024001Y-73504000D03*
D11*
X123024001Y-65454000D03*
X120524001Y-65454000D03*
X118024001Y-65454000D03*
X115524001Y-65454000D03*
X113024001Y-65454000D03*
X113024001Y-83754000D03*
X115524001Y-83754000D03*
X118024001Y-83754000D03*
X120524001Y-83754000D03*
X123024001Y-83754000D03*
D12*
X113039000Y-97297000D03*
X111039000Y-97297000D03*
X109039000Y-97297000D03*
X113039000Y-92297000D03*
X111039000Y-92297000D03*
X109039000Y-92297000D03*
X125358000Y-97297000D03*
X123358000Y-97297000D03*
X121358000Y-97297000D03*
X125358000Y-92297000D03*
X123358000Y-92297000D03*
X121358000Y-92297000D03*
D13*
X116347600Y-98530800D03*
X56492000Y-85208000D03*
D14*
X104080000Y-109783001D03*
X101540000Y-109783001D03*
X99000000Y-109783001D03*
X96460000Y-109783001D03*
X93920000Y-109783001D03*
X93920000Y-125023001D03*
X96460000Y-125023001D03*
X99000000Y-125023001D03*
X101540000Y-125023001D03*
X104080000Y-125023001D03*
D15*
X74260190Y-104772900D03*
X74260190Y-102397900D03*
X76317000Y-101210400D03*
X78373810Y-102397900D03*
X78373810Y-104772900D03*
X76317000Y-105960400D03*
D16*
X76317000Y-103585400D03*
D15*
X48403190Y-85570500D03*
X48403190Y-83195500D03*
X50460000Y-82008000D03*
X52516810Y-83195500D03*
X52516810Y-85570500D03*
X50460000Y-86758000D03*
D16*
X50460000Y-84383000D03*
D15*
X121943190Y-60187500D03*
X121943190Y-57812500D03*
X124000000Y-56625000D03*
X126056810Y-57812500D03*
X126056810Y-60187500D03*
X124000000Y-61375000D03*
D16*
X124000000Y-59000000D03*
D15*
X121943190Y-142187500D03*
X121943190Y-139812500D03*
X124000000Y-138625000D03*
X126056810Y-139812500D03*
X126056810Y-142187500D03*
X124000000Y-143375000D03*
D16*
X124000000Y-141000000D03*
G36*
G01*
X85092000Y-122622000D02*
X83392000Y-122622000D01*
G75*
G02*
X83341000Y-122571000I0J51000D01*
G01*
X83341000Y-120871000D01*
G75*
G02*
X83392000Y-120820000I51000J0D01*
G01*
X85092000Y-120820000D01*
G75*
G02*
X85143000Y-120871000I0J-51000D01*
G01*
X85143000Y-122571000D01*
G75*
G02*
X85092000Y-122622000I-51000J0D01*
G01*
G37*
D17*
X86782000Y-121721000D03*
X84242000Y-119181000D03*
X86782000Y-119181000D03*
X84242000Y-116641000D03*
X86782000Y-116641000D03*
X84242000Y-114101000D03*
X86782000Y-114101000D03*
X84242000Y-111561000D03*
X86782000Y-111561000D03*
D14*
X104080000Y-59110000D03*
X101540000Y-59110000D03*
X99000000Y-59110000D03*
X96460000Y-59110000D03*
X93920000Y-59110000D03*
X93920000Y-74350000D03*
X96460000Y-74350000D03*
X99000000Y-74350000D03*
X101540000Y-74350000D03*
X104080000Y-74350000D03*
G36*
G01*
X117337000Y-136531000D02*
X117337000Y-140131000D01*
G75*
G02*
X117286000Y-140182000I-51000J0D01*
G01*
X115206000Y-140182000D01*
G75*
G02*
X115155000Y-140131000I0J51000D01*
G01*
X115155000Y-136531000D01*
G75*
G02*
X115206000Y-136480000I51000J0D01*
G01*
X117286000Y-136480000D01*
G75*
G02*
X117337000Y-136531000I0J-51000D01*
G01*
G37*
D18*
X111166000Y-138331000D03*
G36*
G01*
X83682000Y-136558000D02*
X83682000Y-140158000D01*
G75*
G02*
X83631000Y-140209000I-51000J0D01*
G01*
X81551000Y-140209000D01*
G75*
G02*
X81500000Y-140158000I0J51000D01*
G01*
X81500000Y-136558000D01*
G75*
G02*
X81551000Y-136507000I51000J0D01*
G01*
X83631000Y-136507000D01*
G75*
G02*
X83682000Y-136558000I0J-51000D01*
G01*
G37*
X77511000Y-138358000D03*
X72431000Y-138358000D03*
G36*
G01*
X73916000Y-84243000D02*
X72216000Y-84243000D01*
G75*
G02*
X72165000Y-84192000I0J51000D01*
G01*
X72165000Y-82492000D01*
G75*
G02*
X72216000Y-82441000I51000J0D01*
G01*
X73916000Y-82441000D01*
G75*
G02*
X73967000Y-82492000I0J-51000D01*
G01*
X73967000Y-84192000D01*
G75*
G02*
X73916000Y-84243000I-51000J0D01*
G01*
G37*
D19*
X70526000Y-83342000D03*
X67986000Y-83342000D03*
X65446000Y-83342000D03*
D20*
X50548999Y-141988000D03*
X53088999Y-141988000D03*
X61258999Y-141988000D03*
X63798999Y-141988000D03*
D21*
X49428999Y-134038000D03*
X64918999Y-134038000D03*
D11*
X54003999Y-130738000D03*
X56543999Y-130738000D03*
X59083999Y-130738000D03*
X61623999Y-130738000D03*
X52733999Y-128198000D03*
X55273999Y-128198000D03*
X60353999Y-128198000D03*
X57813999Y-128198000D03*
D22*
X62888999Y-137088000D03*
X51458999Y-137088000D03*
G36*
G01*
X48174000Y-59875000D02*
X48174000Y-58125000D01*
G75*
G02*
X48225000Y-58074000I51000J0D01*
G01*
X49975000Y-58074000D01*
G75*
G02*
X50026000Y-58125000I0J-51000D01*
G01*
X50026000Y-59875000D01*
G75*
G02*
X49975000Y-59926000I-51000J0D01*
G01*
X48225000Y-59926000D01*
G75*
G02*
X48174000Y-59875000I0J51000D01*
G01*
G37*
D23*
X51600000Y-59000000D03*
X54100000Y-59000000D03*
X56600000Y-59000000D03*
X59100000Y-59000000D03*
X61600000Y-59000000D03*
X64100000Y-59000000D03*
X66600000Y-59000000D03*
G36*
G01*
X71574000Y-59875000D02*
X71574000Y-58125000D01*
G75*
G02*
X71625000Y-58074000I51000J0D01*
G01*
X73375000Y-58074000D01*
G75*
G02*
X73426000Y-58125000I0J-51000D01*
G01*
X73426000Y-59875000D01*
G75*
G02*
X73375000Y-59926000I-51000J0D01*
G01*
X71625000Y-59926000D01*
G75*
G02*
X71574000Y-59875000I0J51000D01*
G01*
G37*
X75000000Y-59000000D03*
X77500000Y-59000000D03*
X80000000Y-59000000D03*
X82500000Y-59000000D03*
X85000000Y-59000000D03*
X87500000Y-59000000D03*
X90000000Y-59000000D03*
G36*
G01*
X125985400Y-104412600D02*
X125985400Y-106212600D01*
G75*
G02*
X125934400Y-106263600I-51000J0D01*
G01*
X124134400Y-106263600D01*
G75*
G02*
X124083400Y-106212600I0J51000D01*
G01*
X124083400Y-104412600D01*
G75*
G02*
X124134400Y-104361600I51000J0D01*
G01*
X125934400Y-104361600D01*
G75*
G02*
X125985400Y-104412600I0J-51000D01*
G01*
G37*
D24*
X122494400Y-105312600D03*
G36*
G01*
X113437800Y-104412600D02*
X113437800Y-106212600D01*
G75*
G02*
X113386800Y-106263600I-51000J0D01*
G01*
X111586800Y-106263600D01*
G75*
G02*
X111535800Y-106212600I0J51000D01*
G01*
X111535800Y-104412600D01*
G75*
G02*
X111586800Y-104361600I51000J0D01*
G01*
X113386800Y-104361600D01*
G75*
G02*
X113437800Y-104412600I0J-51000D01*
G01*
G37*
X109946800Y-105312600D03*
M02*
