G04 #@! TF.GenerationSoftware,KiCad,Pcbnew,(5.1.10)-1*
G04 #@! TF.CreationDate,2023-09-11T22:03:16+08:00*
G04 #@! TF.ProjectId,AntennaSwitch_6x2,416e7465-6e6e-4615-9377-697463685f36,rev?*
G04 #@! TF.SameCoordinates,Original*
G04 #@! TF.FileFunction,Paste,Top*
G04 #@! TF.FilePolarity,Positive*
%FSLAX46Y46*%
G04 Gerber Fmt 4.6, Leading zero omitted, Abs format (unit mm)*
G04 Created by KiCad (PCBNEW (5.1.10)-1) date 2023-09-11 22:03:16*
%MOMM*%
%LPD*%
G01*
G04 APERTURE LIST*
%ADD10R,0.650000X1.060000*%
%ADD11R,0.930000X0.980000*%
%ADD12R,1.470000X1.160000*%
%ADD13R,1.800000X2.500000*%
%ADD14R,1.000000X1.000000*%
%ADD15R,1.130000X1.800000*%
%ADD16R,2.000000X2.000000*%
%ADD17R,1.100000X0.600000*%
%ADD18O,1.700000X0.320000*%
%ADD19O,1.800000X0.280000*%
%ADD20O,0.280000X1.800000*%
%ADD21R,0.980000X0.930000*%
%ADD22R,1.000000X2.200000*%
%ADD23R,3.500000X2.200000*%
%ADD24R,1.160000X1.470000*%
%ADD25R,2.000000X0.600000*%
%ADD26R,1.400000X1.200000*%
%ADD27R,1.250000X0.700000*%
%ADD28R,0.700000X1.250000*%
%ADD29R,1.780000X3.700000*%
G04 APERTURE END LIST*
D10*
X68800000Y-122900000D03*
X70700000Y-122900000D03*
X70700000Y-125100000D03*
X69750000Y-125100000D03*
X68800000Y-125100000D03*
D11*
X100230000Y-142500000D03*
X101770000Y-142500000D03*
D12*
X106250000Y-139890000D03*
X106250000Y-138110000D03*
D13*
X103400000Y-134200000D03*
X103400000Y-130200000D03*
D14*
X119100000Y-60650000D03*
X119100000Y-63150000D03*
X116100000Y-60650000D03*
X116100000Y-63150000D03*
X113000000Y-60650000D03*
X113000000Y-63150000D03*
X110550000Y-86950000D03*
X110550000Y-84450000D03*
X113750000Y-86800000D03*
X116250000Y-86800000D03*
X121050000Y-86800000D03*
X118550000Y-86800000D03*
X120000000Y-108250000D03*
X120000000Y-110750000D03*
X117500000Y-108250000D03*
X117500000Y-110750000D03*
X115000000Y-108250000D03*
X115000000Y-110750000D03*
X90700000Y-127650000D03*
X90700000Y-125150000D03*
X88400000Y-127650000D03*
X88400000Y-125150000D03*
X91100000Y-112450000D03*
X91100000Y-114950000D03*
D12*
X93500000Y-130460000D03*
X93500000Y-132240000D03*
D15*
X117490000Y-134350000D03*
X114510000Y-134350000D03*
D16*
X106900000Y-134350000D03*
X111100000Y-134350000D03*
D14*
X111250000Y-89700000D03*
X108750000Y-89700000D03*
X119749999Y-89500000D03*
X122249999Y-89500000D03*
D17*
X99150000Y-137150000D03*
X99150000Y-138100000D03*
X99150000Y-139050000D03*
X96350000Y-139050000D03*
X96350000Y-138100000D03*
X96350000Y-137150000D03*
D11*
X113230001Y-89750000D03*
X114770001Y-89750000D03*
X124230000Y-89500000D03*
X125770000Y-89500000D03*
D18*
X55535000Y-81380000D03*
X55535000Y-80730000D03*
X55535000Y-80080000D03*
X55535000Y-79430000D03*
X55535000Y-78780000D03*
X55535000Y-78130000D03*
X55535000Y-77480000D03*
X61235000Y-77480000D03*
X61235000Y-78130000D03*
X61235000Y-78780000D03*
X61235000Y-79430000D03*
X61235000Y-80080000D03*
X61235000Y-80730000D03*
X61235000Y-81380000D03*
X66406000Y-81328999D03*
X66406000Y-80678999D03*
X66406000Y-80028999D03*
X66406000Y-79378999D03*
X66406000Y-78728999D03*
X66406000Y-78078999D03*
X66406000Y-77428999D03*
X72106000Y-77428999D03*
X72106000Y-78078999D03*
X72106000Y-78728999D03*
X72106000Y-79378999D03*
X72106000Y-80028999D03*
X72106000Y-80678999D03*
X72106000Y-81328999D03*
D11*
X47430000Y-75671000D03*
X48970000Y-75671000D03*
X51030000Y-75700000D03*
X52570000Y-75700000D03*
X54618000Y-75620000D03*
X56158000Y-75620000D03*
X58420000Y-75620000D03*
X59960000Y-75620000D03*
X62238000Y-75620000D03*
X63778000Y-75620000D03*
X66098000Y-75670999D03*
X67638000Y-75670999D03*
X69858000Y-75619999D03*
X71398000Y-75619999D03*
X73718000Y-75620000D03*
X75258000Y-75620000D03*
X77478000Y-75671000D03*
X79018000Y-75671000D03*
X81338400Y-75620000D03*
X82878400Y-75620000D03*
X85054800Y-75620000D03*
X86594800Y-75620000D03*
X88958400Y-75620000D03*
X90498400Y-75620000D03*
D15*
X88475200Y-130738000D03*
X85495200Y-130738000D03*
D11*
X112618500Y-100384999D03*
X114158500Y-100384999D03*
X108935500Y-100321500D03*
X110475500Y-100321500D03*
D19*
X81518000Y-101178000D03*
X81518000Y-100678000D03*
X81518000Y-100178000D03*
X81518000Y-99678000D03*
X81518000Y-99178000D03*
X81518000Y-98678000D03*
X81518000Y-98178000D03*
X81518000Y-97678000D03*
X81518000Y-97178000D03*
X81518000Y-96678000D03*
X81518000Y-96178000D03*
X81518000Y-95678000D03*
X81518000Y-95178000D03*
X81518000Y-94678000D03*
X81518000Y-94178000D03*
X81518000Y-93678000D03*
X81518000Y-93178000D03*
X81518000Y-92678000D03*
X81518000Y-92178000D03*
X81518000Y-91678000D03*
X81518000Y-91178000D03*
X81518000Y-90678000D03*
X81518000Y-90178000D03*
X81518000Y-89678000D03*
X81518000Y-89178000D03*
D20*
X83068000Y-87628000D03*
X83568000Y-87628000D03*
X84068000Y-87628000D03*
X84568000Y-87628000D03*
X85068000Y-87628000D03*
X85568000Y-87628000D03*
X86068000Y-87628000D03*
X86568000Y-87628000D03*
X87068000Y-87628000D03*
X87568000Y-87628000D03*
X88068000Y-87628000D03*
X88568000Y-87628000D03*
X89068000Y-87628000D03*
X89568000Y-87628000D03*
X90068000Y-87628000D03*
X90568000Y-87628000D03*
X91068000Y-87628000D03*
X91568000Y-87628000D03*
X92068000Y-87628000D03*
X92568000Y-87628000D03*
X93068000Y-87628000D03*
X93568000Y-87628000D03*
X94068000Y-87628000D03*
X94568000Y-87628000D03*
X95068000Y-87628000D03*
D19*
X96618000Y-89178000D03*
X96618000Y-89678000D03*
X96618000Y-90178000D03*
X96618000Y-90678000D03*
X96618000Y-91178000D03*
X96618000Y-91678000D03*
X96618000Y-92178000D03*
X96618000Y-92678000D03*
X96618000Y-93178000D03*
X96618000Y-93678000D03*
X96618000Y-94178000D03*
X96618000Y-94678000D03*
X96618000Y-95178000D03*
X96618000Y-95678000D03*
X96618000Y-96178000D03*
X96618000Y-96678000D03*
X96618000Y-97178000D03*
X96618000Y-97678000D03*
X96618000Y-98178000D03*
X96618000Y-98678000D03*
X96618000Y-99178000D03*
X96618000Y-99678000D03*
X96618000Y-100178000D03*
X96618000Y-100678000D03*
X96618000Y-101178000D03*
D20*
X95068000Y-102728000D03*
X94568000Y-102728000D03*
X94068000Y-102728000D03*
X93568000Y-102728000D03*
X93068000Y-102728000D03*
X92568000Y-102728000D03*
X92068000Y-102728000D03*
X91568000Y-102728000D03*
X91068000Y-102728000D03*
X90568000Y-102728000D03*
X90068000Y-102728000D03*
X89568000Y-102728000D03*
X89068000Y-102728000D03*
X88568000Y-102728000D03*
X88068000Y-102728000D03*
X87568000Y-102728000D03*
X87068000Y-102728000D03*
X86568000Y-102728000D03*
X86068000Y-102728000D03*
X85568000Y-102728000D03*
X85068000Y-102728000D03*
X84568000Y-102728000D03*
X84068000Y-102728000D03*
X83568000Y-102728000D03*
X83068000Y-102728000D03*
D11*
X60874000Y-85399000D03*
X62414000Y-85399000D03*
D21*
X88814000Y-83994000D03*
X88814000Y-85534000D03*
D22*
X82097000Y-130690001D03*
D23*
X79797000Y-124690001D03*
D22*
X79797000Y-130690001D03*
X77497000Y-130690001D03*
D11*
X64057000Y-121594001D03*
X62517000Y-121594001D03*
D21*
X101500000Y-139620000D03*
X101500000Y-138080000D03*
X94250000Y-136370000D03*
X94250000Y-134830000D03*
D11*
X97430000Y-134850000D03*
X98970000Y-134850000D03*
D21*
X71923000Y-97575000D03*
X71923000Y-99115000D03*
X66335000Y-119696999D03*
X66335000Y-118156999D03*
X64684000Y-98980000D03*
X64684000Y-100520000D03*
D11*
X60104000Y-90479000D03*
X61644000Y-90479000D03*
X51451000Y-113720000D03*
X52991000Y-113720000D03*
X71533000Y-113370800D03*
X69993000Y-113370800D03*
X71532999Y-107592200D03*
X69992999Y-107592200D03*
X51324000Y-107243000D03*
X52864000Y-107243000D03*
D21*
X58720000Y-99005999D03*
X58720000Y-100545999D03*
D11*
X67739999Y-116260000D03*
X66199999Y-116260000D03*
X60826000Y-92689001D03*
X62366000Y-92689001D03*
X100879000Y-91876000D03*
X99339000Y-91876000D03*
X60904000Y-87126000D03*
X62444000Y-87126000D03*
D21*
X47750000Y-92210000D03*
X47750000Y-93750000D03*
X60620000Y-98980000D03*
X60620000Y-100520000D03*
D11*
X51451000Y-111180000D03*
X52991000Y-111180000D03*
D21*
X54651000Y-117665000D03*
X54651000Y-116125000D03*
D11*
X71532999Y-116260000D03*
X69992999Y-116260000D03*
X71529000Y-110481501D03*
X69989000Y-110481501D03*
X71528000Y-104703000D03*
X69988000Y-104703000D03*
D21*
X56205000Y-99006000D03*
X56205000Y-100546000D03*
X62809000Y-100547000D03*
X62809000Y-99007000D03*
X53999000Y-121975000D03*
X53999000Y-123515000D03*
D11*
X70520000Y-127500000D03*
X68980000Y-127500000D03*
X101022000Y-98734000D03*
X99482000Y-98734000D03*
D21*
X90845999Y-82716000D03*
X90845999Y-84256000D03*
D11*
X77749000Y-91241000D03*
X79289000Y-91241000D03*
X77749000Y-98226000D03*
X79289000Y-98226000D03*
D21*
X89068000Y-107124000D03*
X89068000Y-105584000D03*
X86655000Y-107124000D03*
X86655000Y-105584000D03*
D24*
X76367000Y-133532000D03*
X78147000Y-133532000D03*
D25*
X55069000Y-91241000D03*
X50169000Y-93781000D03*
X50169000Y-92511000D03*
X50169000Y-91241000D03*
X50169000Y-89971000D03*
X55069000Y-89971000D03*
X55069000Y-92511000D03*
X55069000Y-93781000D03*
D20*
X65934000Y-87547000D03*
X66434000Y-87547000D03*
X66934000Y-87547000D03*
X67434000Y-87547000D03*
X67934000Y-87547000D03*
X68434000Y-87547000D03*
X68934000Y-87547000D03*
X69434000Y-87547000D03*
X69934000Y-87547000D03*
X70434000Y-87547000D03*
X70934000Y-87547000D03*
X71434000Y-87547000D03*
D19*
X72734000Y-88847000D03*
X72734000Y-89347000D03*
X72734000Y-89847000D03*
X72734000Y-90347000D03*
X72734000Y-90847000D03*
X72734000Y-91347000D03*
X72734000Y-91847000D03*
X72734000Y-92347000D03*
X72734000Y-92847000D03*
X72734000Y-93347000D03*
X72734000Y-93847000D03*
X72734000Y-94347000D03*
D20*
X71434000Y-95647000D03*
X70934000Y-95647000D03*
X70434000Y-95647000D03*
X69934000Y-95647000D03*
X69434000Y-95647000D03*
X68934000Y-95647000D03*
X68434000Y-95647000D03*
X67934000Y-95647000D03*
X67434000Y-95647000D03*
X66934000Y-95647000D03*
X66434000Y-95647000D03*
X65934000Y-95647000D03*
D19*
X64634000Y-94347000D03*
X64634000Y-93847000D03*
X64634000Y-93347000D03*
X64634000Y-92847000D03*
X64634000Y-92347000D03*
X64634000Y-91847000D03*
X64634000Y-91347000D03*
X64634000Y-90847000D03*
X64634000Y-90347000D03*
X64634000Y-89847000D03*
X64634000Y-89347000D03*
X64634000Y-88847000D03*
X56065000Y-112466800D03*
X56065000Y-111966800D03*
X56065000Y-111466800D03*
X56065000Y-110966800D03*
X56065000Y-110466800D03*
X56065000Y-109966800D03*
X56065000Y-109466800D03*
X56065000Y-108966800D03*
X56065000Y-108466800D03*
X56065000Y-107966800D03*
X56065000Y-107466800D03*
X56065000Y-106966800D03*
X56065000Y-106466800D03*
X56065000Y-105966800D03*
X56065000Y-105466800D03*
X56065000Y-104966800D03*
D20*
X57865000Y-103166800D03*
X58365000Y-103166800D03*
X58865000Y-103166800D03*
X59365000Y-103166800D03*
X59865000Y-103166800D03*
X60365000Y-103166800D03*
X60865000Y-103166800D03*
X61365000Y-103166800D03*
X61865000Y-103166800D03*
X62365000Y-103166800D03*
X62865000Y-103166800D03*
X63365000Y-103166800D03*
X63865000Y-103166800D03*
X64365000Y-103166800D03*
X64865000Y-103166800D03*
X65365000Y-103166800D03*
D19*
X67165000Y-104966800D03*
X67165000Y-105466800D03*
X67165000Y-105966800D03*
X67165000Y-106466800D03*
X67165000Y-106966800D03*
X67165000Y-107466800D03*
X67165000Y-107966800D03*
X67165000Y-108466800D03*
X67165000Y-108966800D03*
X67165000Y-109466800D03*
X67165000Y-109966800D03*
X67165000Y-110466800D03*
X67165000Y-110966800D03*
X67165000Y-111466800D03*
X67165000Y-111966800D03*
X67165000Y-112466800D03*
D20*
X65365000Y-114266800D03*
X64865000Y-114266800D03*
X64365000Y-114266800D03*
X63865000Y-114266800D03*
X63365000Y-114266800D03*
X62865000Y-114266800D03*
X62365000Y-114266800D03*
X61865000Y-114266800D03*
X61365000Y-114266800D03*
X60865000Y-114266800D03*
X60365000Y-114266800D03*
X59865000Y-114266800D03*
X59365000Y-114266800D03*
X58865000Y-114266800D03*
X58365000Y-114266800D03*
X57865000Y-114266800D03*
D11*
X97770000Y-141100000D03*
X96230000Y-141100000D03*
X115230000Y-105500000D03*
X116770000Y-105500000D03*
D21*
X94250000Y-140100000D03*
X94250000Y-138560000D03*
X48301000Y-96694000D03*
X48301000Y-98234000D03*
D11*
X52627000Y-115752000D03*
X51087000Y-115752000D03*
X67867000Y-85399000D03*
X66327000Y-85399000D03*
X61730000Y-124500000D03*
X63270000Y-124500000D03*
X58230000Y-125500000D03*
X59770000Y-125500000D03*
X56564000Y-140143999D03*
X55024000Y-140143999D03*
D21*
X67000000Y-139112000D03*
X67000000Y-140652000D03*
D11*
X57230001Y-133500000D03*
X58770001Y-133500000D03*
X54230000Y-125500000D03*
X55770000Y-125500000D03*
D21*
X89400000Y-64452000D03*
X89400000Y-62912000D03*
D11*
X105205000Y-77525000D03*
X103665000Y-77525000D03*
X101902999Y-77525000D03*
X100362999Y-77525000D03*
D21*
X101895000Y-104949000D03*
X101895000Y-106489000D03*
D11*
X108070000Y-113600000D03*
X106530000Y-113600000D03*
X108100000Y-124500000D03*
X106560000Y-124500000D03*
D21*
X103800001Y-104949000D03*
X103800001Y-106489000D03*
D11*
X108070000Y-115750000D03*
X106530000Y-115750000D03*
X108070000Y-117900000D03*
X106530000Y-117900000D03*
D21*
X50587000Y-97980000D03*
X50587000Y-96440000D03*
D11*
X62406000Y-94543000D03*
X60866000Y-94543000D03*
D21*
X51793000Y-68770000D03*
X51793000Y-67230000D03*
X54078999Y-65087000D03*
X54078999Y-63547000D03*
X58143000Y-68770000D03*
X58143000Y-67230000D03*
X60683000Y-65341000D03*
X60683000Y-63801000D03*
X64874001Y-69024000D03*
X64874001Y-67484000D03*
X67287000Y-65341000D03*
X67287000Y-63801000D03*
X71605000Y-69151000D03*
X71605000Y-67611000D03*
X74018000Y-65603001D03*
X74018000Y-64063001D03*
X78209000Y-69151000D03*
X78209000Y-67611000D03*
X80749000Y-65595000D03*
X80749000Y-64055000D03*
X84432000Y-69278000D03*
X84432000Y-67738000D03*
X87226000Y-65643000D03*
X87226000Y-64103000D03*
D11*
X116230000Y-92500000D03*
X117770000Y-92500000D03*
D21*
X109388000Y-62903000D03*
X109388000Y-61363000D03*
X106975000Y-63944000D03*
X106975000Y-62404000D03*
X106975000Y-67881000D03*
X106975000Y-66341000D03*
X91481000Y-64452000D03*
X91481000Y-62912000D03*
D11*
X95172001Y-77525000D03*
X93632001Y-77525000D03*
X98601000Y-77525000D03*
X97061000Y-77525000D03*
X108170000Y-126600000D03*
X106630000Y-126600000D03*
X108070000Y-109300000D03*
X106530000Y-109300000D03*
X108070000Y-111450000D03*
X106530000Y-111450000D03*
D26*
X62166000Y-119777600D03*
X64366000Y-119777600D03*
X64366000Y-118077600D03*
X62166000Y-118077600D03*
D27*
X47621999Y-68127000D03*
X50121999Y-67177000D03*
X50121999Y-69077000D03*
X49908000Y-64444000D03*
X52408000Y-63494000D03*
X52408000Y-65394000D03*
X53972000Y-68126999D03*
X56472000Y-67176999D03*
X56472000Y-69076999D03*
X56512000Y-64444000D03*
X59012000Y-63494000D03*
X59012000Y-65394000D03*
X60386000Y-68254000D03*
X62886000Y-67304000D03*
X62886000Y-69204000D03*
X63116000Y-64698000D03*
X65616000Y-63748000D03*
X65616000Y-65648000D03*
X67434000Y-68381000D03*
X69934000Y-67431000D03*
X69934000Y-69331000D03*
X69720000Y-64825000D03*
X72220000Y-63875000D03*
X72220000Y-65775000D03*
X74038001Y-68508000D03*
X76538001Y-67558000D03*
X76538001Y-69458000D03*
X76324000Y-64825000D03*
X78824000Y-63875000D03*
X78824000Y-65775000D03*
X80007000Y-68508000D03*
X82507000Y-67558000D03*
X82507000Y-69458000D03*
X82928000Y-64825000D03*
X85428000Y-63875000D03*
X85428000Y-65775000D03*
D28*
X48200000Y-71449000D03*
X49150000Y-73949000D03*
X47250000Y-73949000D03*
X51800000Y-71449000D03*
X52750000Y-73949000D03*
X50850000Y-73949000D03*
X55424000Y-71449000D03*
X56374000Y-73949000D03*
X54474000Y-73949000D03*
X59240000Y-71449001D03*
X60190000Y-73949001D03*
X58290000Y-73949001D03*
X63056000Y-71449000D03*
X64006000Y-73949000D03*
X62106000Y-73949000D03*
X66872000Y-71449001D03*
X67822000Y-73949001D03*
X65922000Y-73949001D03*
X70687000Y-71449000D03*
X71637000Y-73949000D03*
X69737000Y-73949000D03*
X74503000Y-71449000D03*
X75453000Y-73949000D03*
X73553000Y-73949000D03*
X78319000Y-71449000D03*
X79269000Y-73949000D03*
X77369000Y-73949000D03*
X82134500Y-71449000D03*
X83084500Y-73949000D03*
X81184500Y-73949000D03*
X85950300Y-71449000D03*
X86900300Y-73949000D03*
X85000300Y-73949000D03*
X89766000Y-71449000D03*
X90716000Y-73949000D03*
X88816000Y-73949000D03*
D27*
X106868000Y-58729000D03*
X109368000Y-57779000D03*
X109368000Y-59679000D03*
X97490000Y-105780000D03*
X99990000Y-104830000D03*
X99990000Y-106730000D03*
D29*
X99385000Y-131300000D03*
X96215000Y-131300000D03*
D24*
X84140000Y-133500000D03*
X82360000Y-133500000D03*
D12*
X103750000Y-139990000D03*
X103750000Y-138210000D03*
D24*
X50188000Y-124515000D03*
X51968000Y-124515000D03*
X70640000Y-120250000D03*
X68860000Y-120250000D03*
M02*
