%TF.GenerationSoftware,KiCad,Pcbnew,(5.1.4)-1*%
%TF.CreationDate,2019-11-01T19:47:46+08:00*%
%TF.ProjectId,AntennaSwitch_6x2,416e7465-6e6e-4615-9377-697463685f36,rev?*%
%TF.SameCoordinates,Original*%
%TF.FileFunction,Paste,Top*%
%TF.FilePolarity,Positive*%
%FSLAX46Y46*%
G04 Gerber Fmt 4.6, Leading zero omitted, Abs format (unit mm)*
G04 Created by KiCad (PCBNEW (5.1.4)-1) date 2019-11-01 19:47:46*
%MOMM*%
%LPD*%
G04 APERTURE LIST*
%ADD10O,1.700000X0.320000*%
%ADD11R,0.930000X0.980000*%
%ADD12R,1.130000X1.800000*%
%ADD13O,1.800000X0.280000*%
%ADD14O,0.280000X1.800000*%
%ADD15R,0.980000X0.930000*%
%ADD16R,1.000000X2.200000*%
%ADD17R,3.500000X2.200000*%
%ADD18R,0.900000X1.500000*%
%ADD19R,2.000000X2.000000*%
%ADD20R,2.200000X1.000000*%
%ADD21R,2.200000X3.500000*%
%ADD22R,1.160000X1.470000*%
%ADD23R,0.400000X2.000000*%
%ADD24R,2.000000X0.600000*%
%ADD25R,1.400000X1.200000*%
%ADD26R,1.250000X0.700000*%
%ADD27R,0.700000X1.250000*%
%ADD28R,1.780000X3.700000*%
%ADD29R,3.500000X3.500000*%
%ADD30R,1.470000X1.160000*%
G04 APERTURE END LIST*
D10*
X124465000Y-113620000D03*
X124465000Y-114270000D03*
X124465000Y-114920000D03*
X124465000Y-115570000D03*
X124465000Y-116220000D03*
X124465000Y-116870000D03*
X124465000Y-117520000D03*
X118765000Y-117520000D03*
X118765000Y-116870000D03*
X118765000Y-116220000D03*
X118765000Y-115570000D03*
X118765000Y-114920000D03*
X118765000Y-114270000D03*
X118765000Y-113620000D03*
X113594000Y-113671000D03*
X113594000Y-114321000D03*
X113594000Y-114971000D03*
X113594000Y-115621000D03*
X113594000Y-116271000D03*
X113594000Y-116921000D03*
X113594000Y-117571000D03*
X107894000Y-117571000D03*
X107894000Y-116921000D03*
X107894000Y-116271000D03*
X107894000Y-115621000D03*
X107894000Y-114971000D03*
X107894000Y-114321000D03*
X107894000Y-113671000D03*
D11*
X132850000Y-119329000D03*
X131310000Y-119329000D03*
X129091000Y-119380000D03*
X127551000Y-119380000D03*
X125382000Y-119380000D03*
X123842000Y-119380000D03*
X121580000Y-119380000D03*
X120040000Y-119380000D03*
X117762000Y-119380000D03*
X116222000Y-119380000D03*
X113902000Y-119329000D03*
X112362000Y-119329000D03*
X110142000Y-119380000D03*
X108602000Y-119380000D03*
X106282000Y-119380000D03*
X104742000Y-119380000D03*
X102522000Y-119329000D03*
X100982000Y-119329000D03*
X98661600Y-119380000D03*
X97121600Y-119380000D03*
X94945200Y-119380000D03*
X93405200Y-119380000D03*
X91041600Y-119380000D03*
X89501600Y-119380000D03*
D12*
X91524800Y-64262000D03*
X94504800Y-64262000D03*
D11*
X67381500Y-94615000D03*
X65841500Y-94615000D03*
X71064500Y-94678500D03*
X69524500Y-94678500D03*
D13*
X98482000Y-93822000D03*
X98482000Y-94322000D03*
X98482000Y-94822000D03*
X98482000Y-95322000D03*
X98482000Y-95822000D03*
X98482000Y-96322000D03*
X98482000Y-96822000D03*
X98482000Y-97322000D03*
X98482000Y-97822000D03*
X98482000Y-98322000D03*
X98482000Y-98822000D03*
X98482000Y-99322000D03*
X98482000Y-99822000D03*
X98482000Y-100322000D03*
X98482000Y-100822000D03*
X98482000Y-101322000D03*
X98482000Y-101822000D03*
X98482000Y-102322000D03*
X98482000Y-102822000D03*
X98482000Y-103322000D03*
X98482000Y-103822000D03*
X98482000Y-104322000D03*
X98482000Y-104822000D03*
X98482000Y-105322000D03*
X98482000Y-105822000D03*
D14*
X96932000Y-107372000D03*
X96432000Y-107372000D03*
X95932000Y-107372000D03*
X95432000Y-107372000D03*
X94932000Y-107372000D03*
X94432000Y-107372000D03*
X93932000Y-107372000D03*
X93432000Y-107372000D03*
X92932000Y-107372000D03*
X92432000Y-107372000D03*
X91932000Y-107372000D03*
X91432000Y-107372000D03*
X90932000Y-107372000D03*
X90432000Y-107372000D03*
X89932000Y-107372000D03*
X89432000Y-107372000D03*
X88932000Y-107372000D03*
X88432000Y-107372000D03*
X87932000Y-107372000D03*
X87432000Y-107372000D03*
X86932000Y-107372000D03*
X86432000Y-107372000D03*
X85932000Y-107372000D03*
X85432000Y-107372000D03*
X84932000Y-107372000D03*
D13*
X83382000Y-105822000D03*
X83382000Y-105322000D03*
X83382000Y-104822000D03*
X83382000Y-104322000D03*
X83382000Y-103822000D03*
X83382000Y-103322000D03*
X83382000Y-102822000D03*
X83382000Y-102322000D03*
X83382000Y-101822000D03*
X83382000Y-101322000D03*
X83382000Y-100822000D03*
X83382000Y-100322000D03*
X83382000Y-99822000D03*
X83382000Y-99322000D03*
X83382000Y-98822000D03*
X83382000Y-98322000D03*
X83382000Y-97822000D03*
X83382000Y-97322000D03*
X83382000Y-96822000D03*
X83382000Y-96322000D03*
X83382000Y-95822000D03*
X83382000Y-95322000D03*
X83382000Y-94822000D03*
X83382000Y-94322000D03*
X83382000Y-93822000D03*
D14*
X84932000Y-92272000D03*
X85432000Y-92272000D03*
X85932000Y-92272000D03*
X86432000Y-92272000D03*
X86932000Y-92272000D03*
X87432000Y-92272000D03*
X87932000Y-92272000D03*
X88432000Y-92272000D03*
X88932000Y-92272000D03*
X89432000Y-92272000D03*
X89932000Y-92272000D03*
X90432000Y-92272000D03*
X90932000Y-92272000D03*
X91432000Y-92272000D03*
X91932000Y-92272000D03*
X92432000Y-92272000D03*
X92932000Y-92272000D03*
X93432000Y-92272000D03*
X93932000Y-92272000D03*
X94432000Y-92272000D03*
X94932000Y-92272000D03*
X95432000Y-92272000D03*
X95932000Y-92272000D03*
X96432000Y-92272000D03*
X96932000Y-92272000D03*
D11*
X119126000Y-109601000D03*
X117586000Y-109601000D03*
D15*
X91186000Y-111006000D03*
X91186000Y-109466000D03*
D16*
X97903000Y-64310000D03*
D17*
X100203000Y-70310000D03*
D16*
X100203000Y-64310000D03*
X102503000Y-64310000D03*
D11*
X115943000Y-73406000D03*
X117483000Y-73406000D03*
D18*
X67725600Y-52476400D03*
X71225600Y-52476400D03*
D19*
X74803000Y-61654000D03*
X74803000Y-65854000D03*
D15*
X76943200Y-54652800D03*
X76943200Y-56192800D03*
X83699600Y-57294400D03*
X83699600Y-58834400D03*
D11*
X81142200Y-60248800D03*
X79602200Y-60248800D03*
D15*
X108077000Y-97425000D03*
X108077000Y-95885000D03*
X113665000Y-75303000D03*
X113665000Y-76843000D03*
X115316000Y-96020000D03*
X115316000Y-94480000D03*
D11*
X119896000Y-104521000D03*
X118356000Y-104521000D03*
X128549000Y-81280000D03*
X127009000Y-81280000D03*
X108467000Y-81629200D03*
X110007000Y-81629200D03*
X108467000Y-87407800D03*
X110007000Y-87407800D03*
X128676000Y-87757000D03*
X127136000Y-87757000D03*
D15*
X121280000Y-95994000D03*
X121280000Y-94454000D03*
D11*
X112260000Y-78740000D03*
X113800000Y-78740000D03*
X119174000Y-102311000D03*
X117634000Y-102311000D03*
X79121000Y-103124000D03*
X80661000Y-103124000D03*
X119096000Y-107874000D03*
X117556000Y-107874000D03*
D15*
X132080000Y-102243000D03*
X132080000Y-100703000D03*
X119380000Y-96020000D03*
X119380000Y-94480000D03*
D11*
X128549000Y-83820000D03*
X127009000Y-83820000D03*
D15*
X125349000Y-77335000D03*
X125349000Y-78875000D03*
D11*
X108467000Y-78740000D03*
X110007000Y-78740000D03*
X108471000Y-84518500D03*
X110011000Y-84518500D03*
X108472000Y-90297000D03*
X110012000Y-90297000D03*
D15*
X123795000Y-95994000D03*
X123795000Y-94454000D03*
X117191000Y-94453000D03*
X117191000Y-95993000D03*
X126001000Y-73025000D03*
X126001000Y-71485000D03*
D11*
X110871000Y-63754000D03*
X112411000Y-63754000D03*
X78978000Y-96266000D03*
X80518000Y-96266000D03*
D15*
X89154000Y-112284000D03*
X89154000Y-110744000D03*
D11*
X102251000Y-103759000D03*
X100711000Y-103759000D03*
X102251000Y-96774000D03*
X100711000Y-96774000D03*
D15*
X90932000Y-87876000D03*
X90932000Y-89416000D03*
X93345000Y-87876000D03*
X93345000Y-89416000D03*
D20*
X112499000Y-66178400D03*
D21*
X106499000Y-68478400D03*
D20*
X112499000Y-68478400D03*
X112499000Y-70778400D03*
D22*
X103633000Y-61468000D03*
X101853000Y-61468000D03*
D11*
X75520800Y-51765200D03*
X77060800Y-51765200D03*
D23*
X81342200Y-54093800D03*
X80702200Y-54093800D03*
X80042200Y-54093800D03*
X79402200Y-54093800D03*
X79402200Y-57513800D03*
X80042200Y-57513800D03*
X80702200Y-57513800D03*
X81342200Y-57513800D03*
D24*
X124931000Y-103759000D03*
X129831000Y-101219000D03*
X129831000Y-102489000D03*
X129831000Y-103759000D03*
X129831000Y-105029000D03*
X124931000Y-105029000D03*
X124931000Y-102489000D03*
X124931000Y-101219000D03*
D14*
X114066000Y-107453000D03*
X113566000Y-107453000D03*
X113066000Y-107453000D03*
X112566000Y-107453000D03*
X112066000Y-107453000D03*
X111566000Y-107453000D03*
X111066000Y-107453000D03*
X110566000Y-107453000D03*
X110066000Y-107453000D03*
X109566000Y-107453000D03*
X109066000Y-107453000D03*
X108566000Y-107453000D03*
D13*
X107266000Y-106153000D03*
X107266000Y-105653000D03*
X107266000Y-105153000D03*
X107266000Y-104653000D03*
X107266000Y-104153000D03*
X107266000Y-103653000D03*
X107266000Y-103153000D03*
X107266000Y-102653000D03*
X107266000Y-102153000D03*
X107266000Y-101653000D03*
X107266000Y-101153000D03*
X107266000Y-100653000D03*
D14*
X108566000Y-99353000D03*
X109066000Y-99353000D03*
X109566000Y-99353000D03*
X110066000Y-99353000D03*
X110566000Y-99353000D03*
X111066000Y-99353000D03*
X111566000Y-99353000D03*
X112066000Y-99353000D03*
X112566000Y-99353000D03*
X113066000Y-99353000D03*
X113566000Y-99353000D03*
X114066000Y-99353000D03*
D13*
X115366000Y-100653000D03*
X115366000Y-101153000D03*
X115366000Y-101653000D03*
X115366000Y-102153000D03*
X115366000Y-102653000D03*
X115366000Y-103153000D03*
X115366000Y-103653000D03*
X115366000Y-104153000D03*
X115366000Y-104653000D03*
X115366000Y-105153000D03*
X115366000Y-105653000D03*
X115366000Y-106153000D03*
X123935000Y-82533200D03*
X123935000Y-83033200D03*
X123935000Y-83533200D03*
X123935000Y-84033200D03*
X123935000Y-84533200D03*
X123935000Y-85033200D03*
X123935000Y-85533200D03*
X123935000Y-86033200D03*
X123935000Y-86533200D03*
X123935000Y-87033200D03*
X123935000Y-87533200D03*
X123935000Y-88033200D03*
X123935000Y-88533200D03*
X123935000Y-89033200D03*
X123935000Y-89533200D03*
X123935000Y-90033200D03*
D14*
X122135000Y-91833200D03*
X121635000Y-91833200D03*
X121135000Y-91833200D03*
X120635000Y-91833200D03*
X120135000Y-91833200D03*
X119635000Y-91833200D03*
X119135000Y-91833200D03*
X118635000Y-91833200D03*
X118135000Y-91833200D03*
X117635000Y-91833200D03*
X117135000Y-91833200D03*
X116635000Y-91833200D03*
X116135000Y-91833200D03*
X115635000Y-91833200D03*
X115135000Y-91833200D03*
X114635000Y-91833200D03*
D13*
X112835000Y-90033200D03*
X112835000Y-89533200D03*
X112835000Y-89033200D03*
X112835000Y-88533200D03*
X112835000Y-88033200D03*
X112835000Y-87533200D03*
X112835000Y-87033200D03*
X112835000Y-86533200D03*
X112835000Y-86033200D03*
X112835000Y-85533200D03*
X112835000Y-85033200D03*
X112835000Y-84533200D03*
X112835000Y-84033200D03*
X112835000Y-83533200D03*
X112835000Y-83033200D03*
X112835000Y-82533200D03*
D14*
X114635000Y-80733200D03*
X115135000Y-80733200D03*
X115635000Y-80733200D03*
X116135000Y-80733200D03*
X116635000Y-80733200D03*
X117135000Y-80733200D03*
X117635000Y-80733200D03*
X118135000Y-80733200D03*
X118635000Y-80733200D03*
X119135000Y-80733200D03*
X119635000Y-80733200D03*
X120135000Y-80733200D03*
X120635000Y-80733200D03*
X121135000Y-80733200D03*
X121635000Y-80733200D03*
X122135000Y-80733200D03*
D11*
X80507200Y-51765200D03*
X78967200Y-51765200D03*
X84622000Y-54660800D03*
X83082000Y-54660800D03*
X64770000Y-89500000D03*
X63230000Y-89500000D03*
X83082000Y-52679600D03*
X84622000Y-52679600D03*
D15*
X77070200Y-60264800D03*
X77070200Y-58724800D03*
X131699000Y-98306000D03*
X131699000Y-96766000D03*
D11*
X127373000Y-79248000D03*
X128913000Y-79248000D03*
X112133000Y-109601000D03*
X113673000Y-109601000D03*
X118270000Y-70500000D03*
X116730000Y-70500000D03*
X121770000Y-69500000D03*
X120230000Y-69500000D03*
X123436000Y-54856000D03*
X124976000Y-54856000D03*
D15*
X113538000Y-55888000D03*
X113538000Y-54348000D03*
D11*
X122770000Y-61500000D03*
X121230000Y-61500000D03*
X125770000Y-69500000D03*
X124230000Y-69500000D03*
D15*
X90297000Y-130548000D03*
X90297000Y-132088000D03*
D11*
X74795000Y-117475000D03*
X76335000Y-117475000D03*
X78097000Y-117475000D03*
X79637000Y-117475000D03*
D15*
X78105000Y-90051000D03*
X78105000Y-88511000D03*
D11*
X71747000Y-80179300D03*
X73287000Y-80179300D03*
X71747000Y-73003800D03*
X73287000Y-73003800D03*
D15*
X76200000Y-90051000D03*
X76200000Y-88511000D03*
D11*
X71747000Y-77787500D03*
X73287000Y-77787500D03*
X71747000Y-75395700D03*
X73287000Y-75395700D03*
D15*
X129413000Y-97020000D03*
X129413000Y-98560000D03*
D11*
X117594000Y-100457000D03*
X119134000Y-100457000D03*
D15*
X128207000Y-126230000D03*
X128207000Y-127770000D03*
X125921000Y-129913000D03*
X125921000Y-131453000D03*
X121857000Y-126230000D03*
X121857000Y-127770000D03*
X119317000Y-129659000D03*
X119317000Y-131199000D03*
X115126000Y-125976000D03*
X115126000Y-127516000D03*
X112713000Y-129659000D03*
X112713000Y-131199000D03*
X108395000Y-125849000D03*
X108395000Y-127389000D03*
X105982000Y-129397000D03*
X105982000Y-130937000D03*
X101791000Y-125849000D03*
X101791000Y-127389000D03*
X99251000Y-129405000D03*
X99251000Y-130945000D03*
X95568000Y-125722000D03*
X95568000Y-127262000D03*
X92774000Y-129357000D03*
X92774000Y-130897000D03*
D11*
X63770000Y-102500000D03*
X62230000Y-102500000D03*
D15*
X70612000Y-132097000D03*
X70612000Y-133637000D03*
X73025000Y-131056000D03*
X73025000Y-132596000D03*
X73025000Y-127119000D03*
X73025000Y-128659000D03*
X88519000Y-130548000D03*
X88519000Y-132088000D03*
D11*
X84828000Y-117475000D03*
X86368000Y-117475000D03*
X81399000Y-117475000D03*
X82939000Y-117475000D03*
X71747000Y-70612000D03*
X73287000Y-70612000D03*
X71747000Y-84963000D03*
X73287000Y-84963000D03*
X71747000Y-82571200D03*
X73287000Y-82571200D03*
D25*
X117834000Y-75222400D03*
X115634000Y-75222400D03*
X115634000Y-76922400D03*
X117834000Y-76922400D03*
D26*
X132378000Y-126873000D03*
X129878000Y-127823000D03*
X129878000Y-125923000D03*
X130092000Y-130556000D03*
X127592000Y-131506000D03*
X127592000Y-129606000D03*
X126028000Y-126873000D03*
X123528000Y-127823000D03*
X123528000Y-125923000D03*
X123488000Y-130556000D03*
X120988000Y-131506000D03*
X120988000Y-129606000D03*
X119614000Y-126746000D03*
X117114000Y-127696000D03*
X117114000Y-125796000D03*
X116884000Y-130302000D03*
X114384000Y-131252000D03*
X114384000Y-129352000D03*
X112566000Y-126619000D03*
X110066000Y-127569000D03*
X110066000Y-125669000D03*
X110280000Y-130175000D03*
X107780000Y-131125000D03*
X107780000Y-129225000D03*
X105962000Y-126492000D03*
X103462000Y-127442000D03*
X103462000Y-125542000D03*
X103676000Y-130175000D03*
X101176000Y-131125000D03*
X101176000Y-129225000D03*
X99993000Y-126492000D03*
X97493000Y-127442000D03*
X97493000Y-125542000D03*
X97072000Y-130175000D03*
X94572000Y-131125000D03*
X94572000Y-129225000D03*
D27*
X132207000Y-123551000D03*
X131257000Y-121051000D03*
X133157000Y-121051000D03*
X128391000Y-123551000D03*
X127441000Y-121051000D03*
X129341000Y-121051000D03*
X124576000Y-123551000D03*
X123626000Y-121051000D03*
X125526000Y-121051000D03*
X120760000Y-123551000D03*
X119810000Y-121051000D03*
X121710000Y-121051000D03*
X116944000Y-123551000D03*
X115994000Y-121051000D03*
X117894000Y-121051000D03*
X113128000Y-123551000D03*
X112178000Y-121051000D03*
X114078000Y-121051000D03*
X109313000Y-123551000D03*
X108363000Y-121051000D03*
X110263000Y-121051000D03*
X105497000Y-123551000D03*
X104547000Y-121051000D03*
X106447000Y-121051000D03*
X101681000Y-123551000D03*
X100731000Y-121051000D03*
X102631000Y-121051000D03*
X97865500Y-123551000D03*
X96915500Y-121051000D03*
X98815500Y-121051000D03*
X94049700Y-123551000D03*
X93099700Y-121051000D03*
X94999700Y-121051000D03*
X90234000Y-123551000D03*
X89284000Y-121051000D03*
X91184000Y-121051000D03*
D26*
X73132000Y-136271000D03*
X70632000Y-137221000D03*
X70632000Y-135321000D03*
X82510000Y-89220000D03*
X80010000Y-90170000D03*
X80010000Y-88270000D03*
D28*
X77898200Y-63931800D03*
X81068200Y-63931800D03*
D29*
X71120000Y-66138000D03*
X71120000Y-59338000D03*
D30*
X86087200Y-57174400D03*
X86087200Y-58954400D03*
X74276200Y-54532800D03*
X74276200Y-56312800D03*
D22*
X129812000Y-70485000D03*
X128032000Y-70485000D03*
D30*
X111506000Y-75566000D03*
X111506000Y-73786000D03*
M02*
