%TF.GenerationSoftware,KiCad,Pcbnew,(6.0.0-rc1-dev-882-gdbc9130da)*%
%TF.CreationDate,2019-08-28T14:52:49+08:00*%
%TF.ProjectId,AntennaSwitch_6x2,416E74656E6E615377697463685F3678,rev?*%
%TF.SameCoordinates,Original*%
%TF.FileFunction,Legend,Bot*%
%TF.FilePolarity,Positive*%
%FSLAX46Y46*%
G04 Gerber Fmt 4.6, Leading zero omitted, Abs format (unit mm)*
G04 Created by KiCad (PCBNEW (6.0.0-rc1-dev-882-gdbc9130da)) date 2019/8/28 14:52:49*
%MOMM*%
%LPD*%
G01*
G04 APERTURE LIST*
%ADD10C,0.254000*%
%ADD11C,0.150000*%
%ADD12C,0.120000*%
%ADD13C,0.381000*%
%ADD14C,0.152400*%
G04 APERTURE END LIST*
D10*
X97428857Y-114700857D02*
X97214571Y-114772285D01*
X97143142Y-114843714D01*
X97071714Y-114986571D01*
X97071714Y-115200857D01*
X97143142Y-115343714D01*
X97214571Y-115415142D01*
X97357428Y-115486571D01*
X97928857Y-115486571D01*
X97928857Y-113986571D01*
X97428857Y-113986571D01*
X97286000Y-114058000D01*
X97214571Y-114129428D01*
X97143142Y-114272285D01*
X97143142Y-114415142D01*
X97214571Y-114558000D01*
X97286000Y-114629428D01*
X97428857Y-114700857D01*
X97928857Y-114700857D01*
X98401142Y-68576000D02*
X97686857Y-68576000D01*
X98544000Y-69004571D02*
X98044000Y-67504571D01*
X97544000Y-69004571D01*
D11*
X143371819Y-128468380D02*
X143705152Y-127992190D01*
X143943247Y-128468380D02*
X143943247Y-127468380D01*
X143562295Y-127468380D01*
X143467057Y-127516000D01*
X143419438Y-127563619D01*
X143371819Y-127658857D01*
X143371819Y-127801714D01*
X143419438Y-127896952D01*
X143467057Y-127944571D01*
X143562295Y-127992190D01*
X143943247Y-127992190D01*
X142990866Y-128420761D02*
X142848009Y-128468380D01*
X142609914Y-128468380D01*
X142514676Y-128420761D01*
X142467057Y-128373142D01*
X142419438Y-128277904D01*
X142419438Y-128182666D01*
X142467057Y-128087428D01*
X142514676Y-128039809D01*
X142609914Y-127992190D01*
X142800390Y-127944571D01*
X142895628Y-127896952D01*
X142943247Y-127849333D01*
X142990866Y-127754095D01*
X142990866Y-127658857D01*
X142943247Y-127563619D01*
X142895628Y-127516000D01*
X142800390Y-127468380D01*
X142562295Y-127468380D01*
X142419438Y-127516000D01*
X142133723Y-127468380D02*
X141562295Y-127468380D01*
X141848009Y-128468380D02*
X141848009Y-127468380D01*
X139250609Y-70188580D02*
X139583942Y-69712390D01*
X139822038Y-70188580D02*
X139822038Y-69188580D01*
X139441085Y-69188580D01*
X139345847Y-69236200D01*
X139298228Y-69283819D01*
X139250609Y-69379057D01*
X139250609Y-69521914D01*
X139298228Y-69617152D01*
X139345847Y-69664771D01*
X139441085Y-69712390D01*
X139822038Y-69712390D01*
X138536323Y-69188580D02*
X138536323Y-69902866D01*
X138583942Y-70045723D01*
X138679180Y-70140961D01*
X138822038Y-70188580D01*
X138917276Y-70188580D01*
X137631561Y-69521914D02*
X137631561Y-70188580D01*
X137869657Y-69140961D02*
X138107752Y-69855247D01*
X137488704Y-69855247D01*
X136631561Y-69188580D02*
X137107752Y-69188580D01*
X137155371Y-69664771D01*
X137107752Y-69617152D01*
X137012514Y-69569533D01*
X136774419Y-69569533D01*
X136679180Y-69617152D01*
X136631561Y-69664771D01*
X136583942Y-69760009D01*
X136583942Y-69998104D01*
X136631561Y-70093342D01*
X136679180Y-70140961D01*
X136774419Y-70188580D01*
X137012514Y-70188580D01*
X137107752Y-70140961D01*
X137155371Y-70093342D01*
X141083942Y-71314771D02*
X140750609Y-71314771D01*
X140607752Y-71838580D02*
X141083942Y-71838580D01*
X141083942Y-70838580D01*
X140607752Y-70838580D01*
X140322038Y-71171914D02*
X139941085Y-71171914D01*
X140179180Y-70838580D02*
X140179180Y-71695723D01*
X140131561Y-71790961D01*
X140036323Y-71838580D01*
X139941085Y-71838580D01*
X139607752Y-71838580D02*
X139607752Y-70838580D01*
X139179180Y-71838580D02*
X139179180Y-71314771D01*
X139226800Y-71219533D01*
X139322038Y-71171914D01*
X139464895Y-71171914D01*
X139560133Y-71219533D01*
X139607752Y-71267152D01*
X138322038Y-71790961D02*
X138417276Y-71838580D01*
X138607752Y-71838580D01*
X138702990Y-71790961D01*
X138750609Y-71695723D01*
X138750609Y-71314771D01*
X138702990Y-71219533D01*
X138607752Y-71171914D01*
X138417276Y-71171914D01*
X138322038Y-71219533D01*
X138274419Y-71314771D01*
X138274419Y-71410009D01*
X138750609Y-71505247D01*
X137845847Y-71838580D02*
X137845847Y-71171914D01*
X137845847Y-71362390D02*
X137798228Y-71267152D01*
X137750609Y-71219533D01*
X137655371Y-71171914D01*
X137560133Y-71171914D01*
X137226800Y-71171914D02*
X137226800Y-71838580D01*
X137226800Y-71267152D02*
X137179180Y-71219533D01*
X137083942Y-71171914D01*
X136941085Y-71171914D01*
X136845847Y-71219533D01*
X136798228Y-71314771D01*
X136798228Y-71838580D01*
X135941085Y-71790961D02*
X136036323Y-71838580D01*
X136226800Y-71838580D01*
X136322038Y-71790961D01*
X136369657Y-71695723D01*
X136369657Y-71314771D01*
X136322038Y-71219533D01*
X136226800Y-71171914D01*
X136036323Y-71171914D01*
X135941085Y-71219533D01*
X135893466Y-71314771D01*
X135893466Y-71410009D01*
X136369657Y-71505247D01*
X135607752Y-71171914D02*
X135226800Y-71171914D01*
X135464895Y-70838580D02*
X135464895Y-71695723D01*
X135417276Y-71790961D01*
X135322038Y-71838580D01*
X135226800Y-71838580D01*
X116585904Y-60002800D02*
X116681142Y-59955180D01*
X116824000Y-59955180D01*
X116966857Y-60002800D01*
X117062095Y-60098038D01*
X117109714Y-60193276D01*
X117157333Y-60383752D01*
X117157333Y-60526609D01*
X117109714Y-60717085D01*
X117062095Y-60812323D01*
X116966857Y-60907561D01*
X116824000Y-60955180D01*
X116728761Y-60955180D01*
X116585904Y-60907561D01*
X116538285Y-60859942D01*
X116538285Y-60526609D01*
X116728761Y-60526609D01*
X116109714Y-60955180D02*
X116109714Y-59955180D01*
X115538285Y-60955180D01*
X115538285Y-59955180D01*
X115062095Y-60955180D02*
X115062095Y-59955180D01*
X114824000Y-59955180D01*
X114681142Y-60002800D01*
X114585904Y-60098038D01*
X114538285Y-60193276D01*
X114490666Y-60383752D01*
X114490666Y-60526609D01*
X114538285Y-60717085D01*
X114585904Y-60812323D01*
X114681142Y-60907561D01*
X114824000Y-60955180D01*
X115062095Y-60955180D01*
X120984971Y-60431371D02*
X120842114Y-60478990D01*
X120794495Y-60526609D01*
X120746876Y-60621847D01*
X120746876Y-60764704D01*
X120794495Y-60859942D01*
X120842114Y-60907561D01*
X120937352Y-60955180D01*
X121318304Y-60955180D01*
X121318304Y-59955180D01*
X120984971Y-59955180D01*
X120889733Y-60002800D01*
X120842114Y-60050419D01*
X120794495Y-60145657D01*
X120794495Y-60240895D01*
X120842114Y-60336133D01*
X120889733Y-60383752D01*
X120984971Y-60431371D01*
X121318304Y-60431371D01*
X110880495Y-60771066D02*
X110404304Y-60771066D01*
X110975733Y-61056780D02*
X110642400Y-60056780D01*
X110309066Y-61056780D01*
X126233180Y-54691161D02*
X125756990Y-54357828D01*
X126233180Y-54119733D02*
X125233180Y-54119733D01*
X125233180Y-54500685D01*
X125280800Y-54595923D01*
X125328419Y-54643542D01*
X125423657Y-54691161D01*
X125566514Y-54691161D01*
X125661752Y-54643542D01*
X125709371Y-54595923D01*
X125756990Y-54500685D01*
X125756990Y-54119733D01*
X126185561Y-55072114D02*
X126233180Y-55214971D01*
X126233180Y-55453066D01*
X126185561Y-55548304D01*
X126137942Y-55595923D01*
X126042704Y-55643542D01*
X125947466Y-55643542D01*
X125852228Y-55595923D01*
X125804609Y-55548304D01*
X125756990Y-55453066D01*
X125709371Y-55262590D01*
X125661752Y-55167352D01*
X125614133Y-55119733D01*
X125518895Y-55072114D01*
X125423657Y-55072114D01*
X125328419Y-55119733D01*
X125280800Y-55167352D01*
X125233180Y-55262590D01*
X125233180Y-55500685D01*
X125280800Y-55643542D01*
X125566514Y-56500685D02*
X126233180Y-56500685D01*
X125185561Y-56262590D02*
X125899847Y-56024495D01*
X125899847Y-56643542D01*
X125661752Y-57167352D02*
X125614133Y-57072114D01*
X125566514Y-57024495D01*
X125471276Y-56976876D01*
X125423657Y-56976876D01*
X125328419Y-57024495D01*
X125280800Y-57072114D01*
X125233180Y-57167352D01*
X125233180Y-57357828D01*
X125280800Y-57453066D01*
X125328419Y-57500685D01*
X125423657Y-57548304D01*
X125471276Y-57548304D01*
X125566514Y-57500685D01*
X125614133Y-57453066D01*
X125661752Y-57357828D01*
X125661752Y-57167352D01*
X125709371Y-57072114D01*
X125756990Y-57024495D01*
X125852228Y-56976876D01*
X126042704Y-56976876D01*
X126137942Y-57024495D01*
X126185561Y-57072114D01*
X126233180Y-57167352D01*
X126233180Y-57357828D01*
X126185561Y-57453066D01*
X126137942Y-57500685D01*
X126042704Y-57548304D01*
X125852228Y-57548304D01*
X125756990Y-57500685D01*
X125709371Y-57453066D01*
X125661752Y-57357828D01*
X125233180Y-58453066D02*
X125233180Y-57976876D01*
X125709371Y-57929257D01*
X125661752Y-57976876D01*
X125614133Y-58072114D01*
X125614133Y-58310209D01*
X125661752Y-58405447D01*
X125709371Y-58453066D01*
X125804609Y-58500685D01*
X126042704Y-58500685D01*
X126137942Y-58453066D01*
X126185561Y-58405447D01*
X126233180Y-58310209D01*
X126233180Y-58072114D01*
X126185561Y-57976876D01*
X126137942Y-57929257D01*
X105060552Y-59667104D02*
X105060552Y-58867104D01*
X104755790Y-58867104D01*
X104679600Y-58905200D01*
X104641504Y-58943295D01*
X104603409Y-59019485D01*
X104603409Y-59133771D01*
X104641504Y-59209961D01*
X104679600Y-59248057D01*
X104755790Y-59286152D01*
X105060552Y-59286152D01*
X104146266Y-59667104D02*
X104222457Y-59629009D01*
X104260552Y-59590914D01*
X104298647Y-59514723D01*
X104298647Y-59286152D01*
X104260552Y-59209961D01*
X104222457Y-59171866D01*
X104146266Y-59133771D01*
X104031980Y-59133771D01*
X103955790Y-59171866D01*
X103917695Y-59209961D01*
X103879600Y-59286152D01*
X103879600Y-59514723D01*
X103917695Y-59590914D01*
X103955790Y-59629009D01*
X104031980Y-59667104D01*
X104146266Y-59667104D01*
X103612933Y-59133771D02*
X103460552Y-59667104D01*
X103308171Y-59286152D01*
X103155790Y-59667104D01*
X103003409Y-59133771D01*
X102393885Y-59629009D02*
X102470076Y-59667104D01*
X102622457Y-59667104D01*
X102698647Y-59629009D01*
X102736742Y-59552819D01*
X102736742Y-59248057D01*
X102698647Y-59171866D01*
X102622457Y-59133771D01*
X102470076Y-59133771D01*
X102393885Y-59171866D01*
X102355790Y-59248057D01*
X102355790Y-59324247D01*
X102736742Y-59400438D01*
X102012933Y-59667104D02*
X102012933Y-59133771D01*
X102012933Y-59286152D02*
X101974838Y-59209961D01*
X101936742Y-59171866D01*
X101860552Y-59133771D01*
X101784361Y-59133771D01*
X105708171Y-60598057D02*
X105974838Y-60598057D01*
X105974838Y-61017104D02*
X105974838Y-60217104D01*
X105593885Y-60217104D01*
X105289123Y-61017104D02*
X105289123Y-60483771D01*
X105289123Y-60636152D02*
X105251028Y-60559961D01*
X105212933Y-60521866D01*
X105136742Y-60483771D01*
X105060552Y-60483771D01*
X104489123Y-60979009D02*
X104565314Y-61017104D01*
X104717695Y-61017104D01*
X104793885Y-60979009D01*
X104831980Y-60902819D01*
X104831980Y-60598057D01*
X104793885Y-60521866D01*
X104717695Y-60483771D01*
X104565314Y-60483771D01*
X104489123Y-60521866D01*
X104451028Y-60598057D01*
X104451028Y-60674247D01*
X104831980Y-60750438D01*
X103765314Y-60483771D02*
X103765314Y-61283771D01*
X103765314Y-60979009D02*
X103841504Y-61017104D01*
X103993885Y-61017104D01*
X104070076Y-60979009D01*
X104108171Y-60940914D01*
X104146266Y-60864723D01*
X104146266Y-60636152D01*
X104108171Y-60559961D01*
X104070076Y-60521866D01*
X103993885Y-60483771D01*
X103841504Y-60483771D01*
X103765314Y-60521866D01*
X102812933Y-60788533D02*
X102431980Y-60788533D01*
X102889123Y-61017104D02*
X102622457Y-60217104D01*
X102355790Y-61017104D01*
X101746266Y-61017104D02*
X101746266Y-60217104D01*
X101746266Y-60979009D02*
X101822457Y-61017104D01*
X101974838Y-61017104D01*
X102051028Y-60979009D01*
X102089123Y-60940914D01*
X102127219Y-60864723D01*
X102127219Y-60636152D01*
X102089123Y-60559961D01*
X102051028Y-60521866D01*
X101974838Y-60483771D01*
X101822457Y-60483771D01*
X101746266Y-60521866D01*
X101365314Y-60483771D02*
X101365314Y-61169485D01*
X101403409Y-61245676D01*
X101479600Y-61283771D01*
X101517695Y-61283771D01*
X101365314Y-60217104D02*
X101403409Y-60255200D01*
X101365314Y-60293295D01*
X101327219Y-60255200D01*
X101365314Y-60217104D01*
X101365314Y-60293295D01*
X100984361Y-60940914D02*
X100946266Y-60979009D01*
X100984361Y-61017104D01*
X101022457Y-60979009D01*
X100984361Y-60940914D01*
X100984361Y-61017104D01*
X107270076Y-61567104D02*
X107651028Y-61567104D01*
X107689123Y-61948057D01*
X107651028Y-61909961D01*
X107574838Y-61871866D01*
X107384361Y-61871866D01*
X107308171Y-61909961D01*
X107270076Y-61948057D01*
X107231980Y-62024247D01*
X107231980Y-62214723D01*
X107270076Y-62290914D01*
X107308171Y-62329009D01*
X107384361Y-62367104D01*
X107574838Y-62367104D01*
X107651028Y-62329009D01*
X107689123Y-62290914D01*
X106736742Y-61567104D02*
X106660552Y-61567104D01*
X106584361Y-61605200D01*
X106546266Y-61643295D01*
X106508171Y-61719485D01*
X106470076Y-61871866D01*
X106470076Y-62062342D01*
X106508171Y-62214723D01*
X106546266Y-62290914D01*
X106584361Y-62329009D01*
X106660552Y-62367104D01*
X106736742Y-62367104D01*
X106812933Y-62329009D01*
X106851028Y-62290914D01*
X106889123Y-62214723D01*
X106927219Y-62062342D01*
X106927219Y-61871866D01*
X106889123Y-61719485D01*
X106851028Y-61643295D01*
X106812933Y-61605200D01*
X106736742Y-61567104D01*
X105974838Y-61567104D02*
X105898647Y-61567104D01*
X105822457Y-61605200D01*
X105784361Y-61643295D01*
X105746266Y-61719485D01*
X105708171Y-61871866D01*
X105708171Y-62062342D01*
X105746266Y-62214723D01*
X105784361Y-62290914D01*
X105822457Y-62329009D01*
X105898647Y-62367104D01*
X105974838Y-62367104D01*
X106051028Y-62329009D01*
X106089123Y-62290914D01*
X106127219Y-62214723D01*
X106165314Y-62062342D01*
X106165314Y-61871866D01*
X106127219Y-61719485D01*
X106089123Y-61643295D01*
X106051028Y-61605200D01*
X105974838Y-61567104D01*
X105365314Y-62367104D02*
X105365314Y-61567104D01*
X104908171Y-62367104D02*
X105251028Y-61909961D01*
X104908171Y-61567104D02*
X105365314Y-62024247D01*
X104565314Y-62367104D02*
X104565314Y-61567104D01*
X104565314Y-61948057D02*
X104108171Y-61948057D01*
X104108171Y-62367104D02*
X104108171Y-61567104D01*
X103803409Y-61833771D02*
X103384361Y-61833771D01*
X103803409Y-62367104D01*
X103384361Y-62367104D01*
X103079600Y-62062342D02*
X102470076Y-62062342D01*
X102127219Y-61643295D02*
X102089123Y-61605200D01*
X102012933Y-61567104D01*
X101822457Y-61567104D01*
X101746266Y-61605200D01*
X101708171Y-61643295D01*
X101670076Y-61719485D01*
X101670076Y-61795676D01*
X101708171Y-61909961D01*
X102165314Y-62367104D01*
X101670076Y-62367104D01*
X101327219Y-62367104D02*
X101327219Y-61567104D01*
X101060552Y-62138533D01*
X100793885Y-61567104D01*
X100793885Y-62367104D01*
X100412933Y-62367104D02*
X100412933Y-61567104D01*
X100412933Y-61948057D02*
X99955790Y-61948057D01*
X99955790Y-62367104D02*
X99955790Y-61567104D01*
X99651028Y-61833771D02*
X99231980Y-61833771D01*
X99651028Y-62367104D01*
X99231980Y-62367104D01*
X68122704Y-60561600D02*
X68217942Y-60513980D01*
X68360800Y-60513980D01*
X68503657Y-60561600D01*
X68598895Y-60656838D01*
X68646514Y-60752076D01*
X68694133Y-60942552D01*
X68694133Y-61085409D01*
X68646514Y-61275885D01*
X68598895Y-61371123D01*
X68503657Y-61466361D01*
X68360800Y-61513980D01*
X68265561Y-61513980D01*
X68122704Y-61466361D01*
X68075085Y-61418742D01*
X68075085Y-61085409D01*
X68265561Y-61085409D01*
X67646514Y-61513980D02*
X67646514Y-60513980D01*
X67075085Y-61513980D01*
X67075085Y-60513980D01*
X66598895Y-61513980D02*
X66598895Y-60513980D01*
X66360800Y-60513980D01*
X66217942Y-60561600D01*
X66122704Y-60656838D01*
X66075085Y-60752076D01*
X66027466Y-60942552D01*
X66027466Y-61085409D01*
X66075085Y-61275885D01*
X66122704Y-61371123D01*
X66217942Y-61466361D01*
X66360800Y-61513980D01*
X66598895Y-61513980D01*
X63899847Y-61513980D02*
X64471276Y-61513980D01*
X64185561Y-61513980D02*
X64185561Y-60513980D01*
X64280800Y-60656838D01*
X64376038Y-60752076D01*
X64471276Y-60799695D01*
X63518895Y-60609219D02*
X63471276Y-60561600D01*
X63376038Y-60513980D01*
X63137942Y-60513980D01*
X63042704Y-60561600D01*
X62995085Y-60609219D01*
X62947466Y-60704457D01*
X62947466Y-60799695D01*
X62995085Y-60942552D01*
X63566514Y-61513980D01*
X62947466Y-61513980D01*
X62661752Y-60513980D02*
X62328419Y-61513980D01*
X61995085Y-60513980D01*
X61661752Y-61513980D02*
X61661752Y-60513980D01*
X61423657Y-60513980D01*
X61280800Y-60561600D01*
X61185561Y-60656838D01*
X61137942Y-60752076D01*
X61090323Y-60942552D01*
X61090323Y-61085409D01*
X61137942Y-61275885D01*
X61185561Y-61371123D01*
X61280800Y-61466361D01*
X61423657Y-61513980D01*
X61661752Y-61513980D01*
X60090323Y-61418742D02*
X60137942Y-61466361D01*
X60280800Y-61513980D01*
X60376038Y-61513980D01*
X60518895Y-61466361D01*
X60614133Y-61371123D01*
X60661752Y-61275885D01*
X60709371Y-61085409D01*
X60709371Y-60942552D01*
X60661752Y-60752076D01*
X60614133Y-60656838D01*
X60518895Y-60561600D01*
X60376038Y-60513980D01*
X60280800Y-60513980D01*
X60137942Y-60561600D01*
X60090323Y-60609219D01*
X56850019Y-58826019D02*
X57850019Y-58826019D01*
X57850019Y-58445066D01*
X57802400Y-58349828D01*
X57754780Y-58302209D01*
X57659542Y-58254590D01*
X57516685Y-58254590D01*
X57421447Y-58302209D01*
X57373828Y-58349828D01*
X57326209Y-58445066D01*
X57326209Y-58826019D01*
X56850019Y-57683161D02*
X56897638Y-57778400D01*
X56945257Y-57826019D01*
X57040495Y-57873638D01*
X57326209Y-57873638D01*
X57421447Y-57826019D01*
X57469066Y-57778400D01*
X57516685Y-57683161D01*
X57516685Y-57540304D01*
X57469066Y-57445066D01*
X57421447Y-57397447D01*
X57326209Y-57349828D01*
X57040495Y-57349828D01*
X56945257Y-57397447D01*
X56897638Y-57445066D01*
X56850019Y-57540304D01*
X56850019Y-57683161D01*
X57516685Y-57016495D02*
X56850019Y-56826019D01*
X57326209Y-56635542D01*
X56850019Y-56445066D01*
X57516685Y-56254590D01*
X56897638Y-55492685D02*
X56850019Y-55587923D01*
X56850019Y-55778400D01*
X56897638Y-55873638D01*
X56992876Y-55921257D01*
X57373828Y-55921257D01*
X57469066Y-55873638D01*
X57516685Y-55778400D01*
X57516685Y-55587923D01*
X57469066Y-55492685D01*
X57373828Y-55445066D01*
X57278590Y-55445066D01*
X57183352Y-55921257D01*
X56850019Y-55016495D02*
X57516685Y-55016495D01*
X57326209Y-55016495D02*
X57421447Y-54968876D01*
X57469066Y-54921257D01*
X57516685Y-54826019D01*
X57516685Y-54730780D01*
X56850019Y-53635542D02*
X57850019Y-53635542D01*
X57516685Y-53159352D02*
X56850019Y-53159352D01*
X57421447Y-53159352D02*
X57469066Y-53111733D01*
X57516685Y-53016495D01*
X57516685Y-52873638D01*
X57469066Y-52778400D01*
X57373828Y-52730780D01*
X56850019Y-52730780D01*
X115791738Y-97979361D02*
X115648880Y-98026980D01*
X115410785Y-98026980D01*
X115315547Y-97979361D01*
X115267928Y-97931742D01*
X115220309Y-97836504D01*
X115220309Y-97741266D01*
X115267928Y-97646028D01*
X115315547Y-97598409D01*
X115410785Y-97550790D01*
X115601261Y-97503171D01*
X115696500Y-97455552D01*
X115744119Y-97407933D01*
X115791738Y-97312695D01*
X115791738Y-97217457D01*
X115744119Y-97122219D01*
X115696500Y-97074600D01*
X115601261Y-97026980D01*
X115363166Y-97026980D01*
X115220309Y-97074600D01*
X114791738Y-97503171D02*
X114458404Y-97503171D01*
X114315547Y-98026980D02*
X114791738Y-98026980D01*
X114791738Y-97026980D01*
X114315547Y-97026980D01*
X113410785Y-98026980D02*
X113886976Y-98026980D01*
X113886976Y-97026980D01*
X113172690Y-98026980D02*
X112648880Y-97360314D01*
X113172690Y-97360314D02*
X112648880Y-98026980D01*
X112506023Y-98122219D02*
X111744119Y-98122219D01*
X111601261Y-98026980D02*
X111077452Y-97360314D01*
X111601261Y-97360314D02*
X111077452Y-98026980D01*
X109982214Y-97741266D02*
X109506023Y-97741266D01*
X110077452Y-98026980D02*
X109744119Y-97026980D01*
X109410785Y-98026980D01*
X108506023Y-98026980D02*
X108839357Y-97550790D01*
X109077452Y-98026980D02*
X109077452Y-97026980D01*
X108696500Y-97026980D01*
X108601261Y-97074600D01*
X108553642Y-97122219D01*
X108506023Y-97217457D01*
X108506023Y-97360314D01*
X108553642Y-97455552D01*
X108601261Y-97503171D01*
X108696500Y-97550790D01*
X109077452Y-97550790D01*
X108077452Y-97503171D02*
X107744119Y-97503171D01*
X107601261Y-98026980D02*
X108077452Y-98026980D01*
X108077452Y-97026980D01*
X107601261Y-97026980D01*
X116625071Y-99676980D02*
X117101261Y-99676980D01*
X117101261Y-98676980D01*
X116101261Y-98676980D02*
X115910785Y-98676980D01*
X115815547Y-98724600D01*
X115720309Y-98819838D01*
X115672690Y-99010314D01*
X115672690Y-99343647D01*
X115720309Y-99534123D01*
X115815547Y-99629361D01*
X115910785Y-99676980D01*
X116101261Y-99676980D01*
X116196500Y-99629361D01*
X116291738Y-99534123D01*
X116339357Y-99343647D01*
X116339357Y-99010314D01*
X116291738Y-98819838D01*
X116196500Y-98724600D01*
X116101261Y-98676980D01*
X115339357Y-98676980D02*
X115101261Y-99676980D01*
X114910785Y-98962695D01*
X114720309Y-99676980D01*
X114482214Y-98676980D01*
X113339357Y-99153171D02*
X113006023Y-99153171D01*
X112863166Y-99676980D02*
X113339357Y-99676980D01*
X113339357Y-98676980D01*
X112863166Y-98676980D01*
X112101261Y-99153171D02*
X112434595Y-99153171D01*
X112434595Y-99676980D02*
X112434595Y-98676980D01*
X111958404Y-98676980D01*
X111244119Y-99153171D02*
X111577452Y-99153171D01*
X111577452Y-99676980D02*
X111577452Y-98676980D01*
X111101261Y-98676980D01*
X110720309Y-99153171D02*
X110386976Y-99153171D01*
X110244119Y-99676980D02*
X110720309Y-99676980D01*
X110720309Y-98676980D01*
X110244119Y-98676980D01*
X109244119Y-99581742D02*
X109291738Y-99629361D01*
X109434595Y-99676980D01*
X109529833Y-99676980D01*
X109672690Y-99629361D01*
X109767928Y-99534123D01*
X109815547Y-99438885D01*
X109863166Y-99248409D01*
X109863166Y-99105552D01*
X109815547Y-98915076D01*
X109767928Y-98819838D01*
X109672690Y-98724600D01*
X109529833Y-98676980D01*
X109434595Y-98676980D01*
X109291738Y-98724600D01*
X109244119Y-98772219D01*
X108958404Y-98676980D02*
X108386976Y-98676980D01*
X108672690Y-99676980D02*
X108672690Y-98676980D01*
X108053642Y-99676980D02*
X108053642Y-98676980D01*
X107720309Y-98676980D02*
X107386976Y-99676980D01*
X107053642Y-98676980D01*
X106720309Y-99153171D02*
X106386976Y-99153171D01*
X106244119Y-99676980D02*
X106720309Y-99676980D01*
X106720309Y-98676980D01*
X106244119Y-98676980D01*
X116199752Y-134891971D02*
X116056895Y-134939590D01*
X116009276Y-134987209D01*
X115961657Y-135082447D01*
X115961657Y-135225304D01*
X116009276Y-135320542D01*
X116056895Y-135368161D01*
X116152133Y-135415780D01*
X116533085Y-135415780D01*
X116533085Y-134415780D01*
X116199752Y-134415780D01*
X116104514Y-134463400D01*
X116056895Y-134511019D01*
X116009276Y-134606257D01*
X116009276Y-134701495D01*
X116056895Y-134796733D01*
X116104514Y-134844352D01*
X116199752Y-134891971D01*
X116533085Y-134891971D01*
X114961657Y-135320542D02*
X115009276Y-135368161D01*
X115152133Y-135415780D01*
X115247371Y-135415780D01*
X115390228Y-135368161D01*
X115485466Y-135272923D01*
X115533085Y-135177685D01*
X115580704Y-134987209D01*
X115580704Y-134844352D01*
X115533085Y-134653876D01*
X115485466Y-134558638D01*
X115390228Y-134463400D01*
X115247371Y-134415780D01*
X115152133Y-134415780D01*
X115009276Y-134463400D01*
X114961657Y-134511019D01*
X114533085Y-135415780D02*
X114533085Y-134415780D01*
X114294990Y-134415780D01*
X114152133Y-134463400D01*
X114056895Y-134558638D01*
X114009276Y-134653876D01*
X113961657Y-134844352D01*
X113961657Y-134987209D01*
X114009276Y-135177685D01*
X114056895Y-135272923D01*
X114152133Y-135368161D01*
X114294990Y-135415780D01*
X114533085Y-135415780D01*
X113628323Y-135415780D02*
X113104514Y-134749114D01*
X113628323Y-134749114D02*
X113104514Y-135415780D01*
X112961657Y-135511019D02*
X112199752Y-135511019D01*
X112056895Y-135415780D02*
X111533085Y-134749114D01*
X112056895Y-134749114D02*
X111533085Y-135415780D01*
X110437847Y-135130066D02*
X109961657Y-135130066D01*
X110533085Y-135415780D02*
X110199752Y-134415780D01*
X109866419Y-135415780D01*
X108961657Y-135415780D02*
X109294990Y-134939590D01*
X109533085Y-135415780D02*
X109533085Y-134415780D01*
X109152133Y-134415780D01*
X109056895Y-134463400D01*
X109009276Y-134511019D01*
X108961657Y-134606257D01*
X108961657Y-134749114D01*
X109009276Y-134844352D01*
X109056895Y-134891971D01*
X109152133Y-134939590D01*
X109533085Y-134939590D01*
X108533085Y-134891971D02*
X108199752Y-134891971D01*
X108056895Y-135415780D02*
X108533085Y-135415780D01*
X108533085Y-134415780D01*
X108056895Y-134415780D01*
X118009276Y-137065780D02*
X118009276Y-136065780D01*
X118009276Y-136541971D02*
X117437847Y-136541971D01*
X117437847Y-137065780D02*
X117437847Y-136065780D01*
X116961657Y-137065780D02*
X116961657Y-136065780D01*
X115961657Y-136113400D02*
X116056895Y-136065780D01*
X116199752Y-136065780D01*
X116342609Y-136113400D01*
X116437847Y-136208638D01*
X116485466Y-136303876D01*
X116533085Y-136494352D01*
X116533085Y-136637209D01*
X116485466Y-136827685D01*
X116437847Y-136922923D01*
X116342609Y-137018161D01*
X116199752Y-137065780D01*
X116104514Y-137065780D01*
X115961657Y-137018161D01*
X115914038Y-136970542D01*
X115914038Y-136637209D01*
X116104514Y-136637209D01*
X115485466Y-137065780D02*
X115485466Y-136065780D01*
X115485466Y-136541971D02*
X114914038Y-136541971D01*
X114914038Y-137065780D02*
X114914038Y-136065780D01*
X113675942Y-136541971D02*
X113342609Y-136541971D01*
X113199752Y-137065780D02*
X113675942Y-137065780D01*
X113675942Y-136065780D01*
X113199752Y-136065780D01*
X112437847Y-136541971D02*
X112771180Y-136541971D01*
X112771180Y-137065780D02*
X112771180Y-136065780D01*
X112294990Y-136065780D01*
X111580704Y-136541971D02*
X111914038Y-136541971D01*
X111914038Y-137065780D02*
X111914038Y-136065780D01*
X111437847Y-136065780D01*
X111056895Y-136541971D02*
X110723561Y-136541971D01*
X110580704Y-137065780D02*
X111056895Y-137065780D01*
X111056895Y-136065780D01*
X110580704Y-136065780D01*
X109580704Y-136970542D02*
X109628323Y-137018161D01*
X109771180Y-137065780D01*
X109866419Y-137065780D01*
X110009276Y-137018161D01*
X110104514Y-136922923D01*
X110152133Y-136827685D01*
X110199752Y-136637209D01*
X110199752Y-136494352D01*
X110152133Y-136303876D01*
X110104514Y-136208638D01*
X110009276Y-136113400D01*
X109866419Y-136065780D01*
X109771180Y-136065780D01*
X109628323Y-136113400D01*
X109580704Y-136161019D01*
X109294990Y-136065780D02*
X108723561Y-136065780D01*
X109009276Y-137065780D02*
X109009276Y-136065780D01*
X108390228Y-137065780D02*
X108390228Y-136065780D01*
X108056895Y-136065780D02*
X107723561Y-137065780D01*
X107390228Y-136065780D01*
X107056895Y-136541971D02*
X106723561Y-136541971D01*
X106580704Y-137065780D02*
X107056895Y-137065780D01*
X107056895Y-136065780D01*
X106580704Y-136065780D01*
X104584300Y-126371342D02*
X103974776Y-126371342D01*
X104279538Y-126676104D02*
X104279538Y-126066580D01*
X103670014Y-125876104D02*
X103174776Y-125876104D01*
X103441442Y-126180866D01*
X103327157Y-126180866D01*
X103250966Y-126218961D01*
X103212871Y-126257057D01*
X103174776Y-126333247D01*
X103174776Y-126523723D01*
X103212871Y-126599914D01*
X103250966Y-126638009D01*
X103327157Y-126676104D01*
X103555728Y-126676104D01*
X103631919Y-126638009D01*
X103670014Y-126599914D01*
X102831919Y-126599914D02*
X102793823Y-126638009D01*
X102831919Y-126676104D01*
X102870014Y-126638009D01*
X102831919Y-126599914D01*
X102831919Y-126676104D01*
X102527157Y-125876104D02*
X102031919Y-125876104D01*
X102298585Y-126180866D01*
X102184300Y-126180866D01*
X102108109Y-126218961D01*
X102070014Y-126257057D01*
X102031919Y-126333247D01*
X102031919Y-126523723D01*
X102070014Y-126599914D01*
X102108109Y-126638009D01*
X102184300Y-126676104D01*
X102412871Y-126676104D01*
X102489061Y-126638009D01*
X102527157Y-126599914D01*
X101803347Y-125876104D02*
X101536680Y-126676104D01*
X101270014Y-125876104D01*
X102882623Y-143694200D02*
X102958814Y-143656104D01*
X103073100Y-143656104D01*
X103187385Y-143694200D01*
X103263576Y-143770390D01*
X103301671Y-143846580D01*
X103339766Y-143998961D01*
X103339766Y-144113247D01*
X103301671Y-144265628D01*
X103263576Y-144341819D01*
X103187385Y-144418009D01*
X103073100Y-144456104D01*
X102996909Y-144456104D01*
X102882623Y-144418009D01*
X102844528Y-144379914D01*
X102844528Y-144113247D01*
X102996909Y-144113247D01*
X102501671Y-144456104D02*
X102501671Y-143656104D01*
X102044528Y-144456104D01*
X102044528Y-143656104D01*
X101663576Y-144456104D02*
X101663576Y-143656104D01*
X101473100Y-143656104D01*
X101358814Y-143694200D01*
X101282623Y-143770390D01*
X101244528Y-143846580D01*
X101206433Y-143998961D01*
X101206433Y-144113247D01*
X101244528Y-144265628D01*
X101282623Y-144341819D01*
X101358814Y-144418009D01*
X101473100Y-144456104D01*
X101663576Y-144456104D01*
X105060523Y-141293857D02*
X104946238Y-141331952D01*
X104908142Y-141370047D01*
X104870047Y-141446238D01*
X104870047Y-141560523D01*
X104908142Y-141636714D01*
X104946238Y-141674809D01*
X105022428Y-141712904D01*
X105327190Y-141712904D01*
X105327190Y-140912904D01*
X105060523Y-140912904D01*
X104984333Y-140951000D01*
X104946238Y-140989095D01*
X104908142Y-141065285D01*
X104908142Y-141141476D01*
X104946238Y-141217666D01*
X104984333Y-141255761D01*
X105060523Y-141293857D01*
X105327190Y-141293857D01*
X104070047Y-141636714D02*
X104108142Y-141674809D01*
X104222428Y-141712904D01*
X104298619Y-141712904D01*
X104412904Y-141674809D01*
X104489095Y-141598619D01*
X104527190Y-141522428D01*
X104565285Y-141370047D01*
X104565285Y-141255761D01*
X104527190Y-141103380D01*
X104489095Y-141027190D01*
X104412904Y-140951000D01*
X104298619Y-140912904D01*
X104222428Y-140912904D01*
X104108142Y-140951000D01*
X104070047Y-140989095D01*
X103727190Y-141712904D02*
X103727190Y-140912904D01*
X103536714Y-140912904D01*
X103422428Y-140951000D01*
X103346238Y-141027190D01*
X103308142Y-141103380D01*
X103270047Y-141255761D01*
X103270047Y-141370047D01*
X103308142Y-141522428D01*
X103346238Y-141598619D01*
X103422428Y-141674809D01*
X103536714Y-141712904D01*
X103727190Y-141712904D01*
X102965285Y-140989095D02*
X102927190Y-140951000D01*
X102851000Y-140912904D01*
X102660523Y-140912904D01*
X102584333Y-140951000D01*
X102546238Y-140989095D01*
X102508142Y-141065285D01*
X102508142Y-141141476D01*
X102546238Y-141255761D01*
X103003380Y-141712904D01*
X102508142Y-141712904D01*
X102355761Y-141789095D02*
X101746238Y-141789095D01*
X101403380Y-140912904D02*
X101327190Y-140912904D01*
X101251000Y-140951000D01*
X101212904Y-140989095D01*
X101174809Y-141065285D01*
X101136714Y-141217666D01*
X101136714Y-141408142D01*
X101174809Y-141560523D01*
X101212904Y-141636714D01*
X101251000Y-141674809D01*
X101327190Y-141712904D01*
X101403380Y-141712904D01*
X101479571Y-141674809D01*
X101517666Y-141636714D01*
X101555761Y-141560523D01*
X101593857Y-141408142D01*
X101593857Y-141217666D01*
X101555761Y-141065285D01*
X101517666Y-140989095D01*
X101479571Y-140951000D01*
X101403380Y-140912904D01*
X104997023Y-138626857D02*
X104882738Y-138664952D01*
X104844642Y-138703047D01*
X104806547Y-138779238D01*
X104806547Y-138893523D01*
X104844642Y-138969714D01*
X104882738Y-139007809D01*
X104958928Y-139045904D01*
X105263690Y-139045904D01*
X105263690Y-138245904D01*
X104997023Y-138245904D01*
X104920833Y-138284000D01*
X104882738Y-138322095D01*
X104844642Y-138398285D01*
X104844642Y-138474476D01*
X104882738Y-138550666D01*
X104920833Y-138588761D01*
X104997023Y-138626857D01*
X105263690Y-138626857D01*
X104006547Y-138969714D02*
X104044642Y-139007809D01*
X104158928Y-139045904D01*
X104235119Y-139045904D01*
X104349404Y-139007809D01*
X104425595Y-138931619D01*
X104463690Y-138855428D01*
X104501785Y-138703047D01*
X104501785Y-138588761D01*
X104463690Y-138436380D01*
X104425595Y-138360190D01*
X104349404Y-138284000D01*
X104235119Y-138245904D01*
X104158928Y-138245904D01*
X104044642Y-138284000D01*
X104006547Y-138322095D01*
X103663690Y-139045904D02*
X103663690Y-138245904D01*
X103473214Y-138245904D01*
X103358928Y-138284000D01*
X103282738Y-138360190D01*
X103244642Y-138436380D01*
X103206547Y-138588761D01*
X103206547Y-138703047D01*
X103244642Y-138855428D01*
X103282738Y-138931619D01*
X103358928Y-139007809D01*
X103473214Y-139045904D01*
X103663690Y-139045904D01*
X102901785Y-138322095D02*
X102863690Y-138284000D01*
X102787500Y-138245904D01*
X102597023Y-138245904D01*
X102520833Y-138284000D01*
X102482738Y-138322095D01*
X102444642Y-138398285D01*
X102444642Y-138474476D01*
X102482738Y-138588761D01*
X102939880Y-139045904D01*
X102444642Y-139045904D01*
X102292261Y-139122095D02*
X101682738Y-139122095D01*
X101073214Y-139045904D02*
X101530357Y-139045904D01*
X101301785Y-139045904D02*
X101301785Y-138245904D01*
X101377976Y-138360190D01*
X101454166Y-138436380D01*
X101530357Y-138474476D01*
X104997023Y-136277357D02*
X104882738Y-136315452D01*
X104844642Y-136353547D01*
X104806547Y-136429738D01*
X104806547Y-136544023D01*
X104844642Y-136620214D01*
X104882738Y-136658309D01*
X104958928Y-136696404D01*
X105263690Y-136696404D01*
X105263690Y-135896404D01*
X104997023Y-135896404D01*
X104920833Y-135934500D01*
X104882738Y-135972595D01*
X104844642Y-136048785D01*
X104844642Y-136124976D01*
X104882738Y-136201166D01*
X104920833Y-136239261D01*
X104997023Y-136277357D01*
X105263690Y-136277357D01*
X104006547Y-136620214D02*
X104044642Y-136658309D01*
X104158928Y-136696404D01*
X104235119Y-136696404D01*
X104349404Y-136658309D01*
X104425595Y-136582119D01*
X104463690Y-136505928D01*
X104501785Y-136353547D01*
X104501785Y-136239261D01*
X104463690Y-136086880D01*
X104425595Y-136010690D01*
X104349404Y-135934500D01*
X104235119Y-135896404D01*
X104158928Y-135896404D01*
X104044642Y-135934500D01*
X104006547Y-135972595D01*
X103663690Y-136696404D02*
X103663690Y-135896404D01*
X103473214Y-135896404D01*
X103358928Y-135934500D01*
X103282738Y-136010690D01*
X103244642Y-136086880D01*
X103206547Y-136239261D01*
X103206547Y-136353547D01*
X103244642Y-136505928D01*
X103282738Y-136582119D01*
X103358928Y-136658309D01*
X103473214Y-136696404D01*
X103663690Y-136696404D01*
X102901785Y-135972595D02*
X102863690Y-135934500D01*
X102787500Y-135896404D01*
X102597023Y-135896404D01*
X102520833Y-135934500D01*
X102482738Y-135972595D01*
X102444642Y-136048785D01*
X102444642Y-136124976D01*
X102482738Y-136239261D01*
X102939880Y-136696404D01*
X102444642Y-136696404D01*
X102292261Y-136772595D02*
X101682738Y-136772595D01*
X101530357Y-135972595D02*
X101492261Y-135934500D01*
X101416071Y-135896404D01*
X101225595Y-135896404D01*
X101149404Y-135934500D01*
X101111309Y-135972595D01*
X101073214Y-136048785D01*
X101073214Y-136124976D01*
X101111309Y-136239261D01*
X101568452Y-136696404D01*
X101073214Y-136696404D01*
X104933523Y-133864357D02*
X104819238Y-133902452D01*
X104781142Y-133940547D01*
X104743047Y-134016738D01*
X104743047Y-134131023D01*
X104781142Y-134207214D01*
X104819238Y-134245309D01*
X104895428Y-134283404D01*
X105200190Y-134283404D01*
X105200190Y-133483404D01*
X104933523Y-133483404D01*
X104857333Y-133521500D01*
X104819238Y-133559595D01*
X104781142Y-133635785D01*
X104781142Y-133711976D01*
X104819238Y-133788166D01*
X104857333Y-133826261D01*
X104933523Y-133864357D01*
X105200190Y-133864357D01*
X103943047Y-134207214D02*
X103981142Y-134245309D01*
X104095428Y-134283404D01*
X104171619Y-134283404D01*
X104285904Y-134245309D01*
X104362095Y-134169119D01*
X104400190Y-134092928D01*
X104438285Y-133940547D01*
X104438285Y-133826261D01*
X104400190Y-133673880D01*
X104362095Y-133597690D01*
X104285904Y-133521500D01*
X104171619Y-133483404D01*
X104095428Y-133483404D01*
X103981142Y-133521500D01*
X103943047Y-133559595D01*
X103600190Y-134283404D02*
X103600190Y-133483404D01*
X103409714Y-133483404D01*
X103295428Y-133521500D01*
X103219238Y-133597690D01*
X103181142Y-133673880D01*
X103143047Y-133826261D01*
X103143047Y-133940547D01*
X103181142Y-134092928D01*
X103219238Y-134169119D01*
X103295428Y-134245309D01*
X103409714Y-134283404D01*
X103600190Y-134283404D01*
X102381142Y-134283404D02*
X102838285Y-134283404D01*
X102609714Y-134283404D02*
X102609714Y-133483404D01*
X102685904Y-133597690D01*
X102762095Y-133673880D01*
X102838285Y-133711976D01*
X102228761Y-134359595D02*
X101619238Y-134359595D01*
X101276380Y-133483404D02*
X101200190Y-133483404D01*
X101124000Y-133521500D01*
X101085904Y-133559595D01*
X101047809Y-133635785D01*
X101009714Y-133788166D01*
X101009714Y-133978642D01*
X101047809Y-134131023D01*
X101085904Y-134207214D01*
X101124000Y-134245309D01*
X101200190Y-134283404D01*
X101276380Y-134283404D01*
X101352571Y-134245309D01*
X101390666Y-134207214D01*
X101428761Y-134131023D01*
X101466857Y-133978642D01*
X101466857Y-133788166D01*
X101428761Y-133635785D01*
X101390666Y-133559595D01*
X101352571Y-133521500D01*
X101276380Y-133483404D01*
X104933523Y-131260857D02*
X104819238Y-131298952D01*
X104781142Y-131337047D01*
X104743047Y-131413238D01*
X104743047Y-131527523D01*
X104781142Y-131603714D01*
X104819238Y-131641809D01*
X104895428Y-131679904D01*
X105200190Y-131679904D01*
X105200190Y-130879904D01*
X104933523Y-130879904D01*
X104857333Y-130918000D01*
X104819238Y-130956095D01*
X104781142Y-131032285D01*
X104781142Y-131108476D01*
X104819238Y-131184666D01*
X104857333Y-131222761D01*
X104933523Y-131260857D01*
X105200190Y-131260857D01*
X103943047Y-131603714D02*
X103981142Y-131641809D01*
X104095428Y-131679904D01*
X104171619Y-131679904D01*
X104285904Y-131641809D01*
X104362095Y-131565619D01*
X104400190Y-131489428D01*
X104438285Y-131337047D01*
X104438285Y-131222761D01*
X104400190Y-131070380D01*
X104362095Y-130994190D01*
X104285904Y-130918000D01*
X104171619Y-130879904D01*
X104095428Y-130879904D01*
X103981142Y-130918000D01*
X103943047Y-130956095D01*
X103600190Y-131679904D02*
X103600190Y-130879904D01*
X103409714Y-130879904D01*
X103295428Y-130918000D01*
X103219238Y-130994190D01*
X103181142Y-131070380D01*
X103143047Y-131222761D01*
X103143047Y-131337047D01*
X103181142Y-131489428D01*
X103219238Y-131565619D01*
X103295428Y-131641809D01*
X103409714Y-131679904D01*
X103600190Y-131679904D01*
X102381142Y-131679904D02*
X102838285Y-131679904D01*
X102609714Y-131679904D02*
X102609714Y-130879904D01*
X102685904Y-130994190D01*
X102762095Y-131070380D01*
X102838285Y-131108476D01*
X102228761Y-131756095D02*
X101619238Y-131756095D01*
X101009714Y-131679904D02*
X101466857Y-131679904D01*
X101238285Y-131679904D02*
X101238285Y-130879904D01*
X101314476Y-130994190D01*
X101390666Y-131070380D01*
X101466857Y-131108476D01*
X104870023Y-128593857D02*
X104755738Y-128631952D01*
X104717642Y-128670047D01*
X104679547Y-128746238D01*
X104679547Y-128860523D01*
X104717642Y-128936714D01*
X104755738Y-128974809D01*
X104831928Y-129012904D01*
X105136690Y-129012904D01*
X105136690Y-128212904D01*
X104870023Y-128212904D01*
X104793833Y-128251000D01*
X104755738Y-128289095D01*
X104717642Y-128365285D01*
X104717642Y-128441476D01*
X104755738Y-128517666D01*
X104793833Y-128555761D01*
X104870023Y-128593857D01*
X105136690Y-128593857D01*
X103879547Y-128936714D02*
X103917642Y-128974809D01*
X104031928Y-129012904D01*
X104108119Y-129012904D01*
X104222404Y-128974809D01*
X104298595Y-128898619D01*
X104336690Y-128822428D01*
X104374785Y-128670047D01*
X104374785Y-128555761D01*
X104336690Y-128403380D01*
X104298595Y-128327190D01*
X104222404Y-128251000D01*
X104108119Y-128212904D01*
X104031928Y-128212904D01*
X103917642Y-128251000D01*
X103879547Y-128289095D01*
X103536690Y-129012904D02*
X103536690Y-128212904D01*
X103346214Y-128212904D01*
X103231928Y-128251000D01*
X103155738Y-128327190D01*
X103117642Y-128403380D01*
X103079547Y-128555761D01*
X103079547Y-128670047D01*
X103117642Y-128822428D01*
X103155738Y-128898619D01*
X103231928Y-128974809D01*
X103346214Y-129012904D01*
X103536690Y-129012904D01*
X102317642Y-129012904D02*
X102774785Y-129012904D01*
X102546214Y-129012904D02*
X102546214Y-128212904D01*
X102622404Y-128327190D01*
X102698595Y-128403380D01*
X102774785Y-128441476D01*
X102165261Y-129089095D02*
X101555738Y-129089095D01*
X101403357Y-128289095D02*
X101365261Y-128251000D01*
X101289071Y-128212904D01*
X101098595Y-128212904D01*
X101022404Y-128251000D01*
X100984309Y-128289095D01*
X100946214Y-128365285D01*
X100946214Y-128441476D01*
X100984309Y-128555761D01*
X101441452Y-129012904D01*
X100946214Y-129012904D01*
X115791738Y-78319761D02*
X115648880Y-78367380D01*
X115410785Y-78367380D01*
X115315547Y-78319761D01*
X115267928Y-78272142D01*
X115220309Y-78176904D01*
X115220309Y-78081666D01*
X115267928Y-77986428D01*
X115315547Y-77938809D01*
X115410785Y-77891190D01*
X115601261Y-77843571D01*
X115696500Y-77795952D01*
X115744119Y-77748333D01*
X115791738Y-77653095D01*
X115791738Y-77557857D01*
X115744119Y-77462619D01*
X115696500Y-77415000D01*
X115601261Y-77367380D01*
X115363166Y-77367380D01*
X115220309Y-77415000D01*
X114791738Y-77843571D02*
X114458404Y-77843571D01*
X114315547Y-78367380D02*
X114791738Y-78367380D01*
X114791738Y-77367380D01*
X114315547Y-77367380D01*
X113410785Y-78367380D02*
X113886976Y-78367380D01*
X113886976Y-77367380D01*
X113172690Y-78367380D02*
X112648880Y-77700714D01*
X113172690Y-77700714D02*
X112648880Y-78367380D01*
X112506023Y-78462619D02*
X111744119Y-78462619D01*
X111601261Y-78367380D02*
X111077452Y-77700714D01*
X111601261Y-77700714D02*
X111077452Y-78367380D01*
X109982214Y-78081666D02*
X109506023Y-78081666D01*
X110077452Y-78367380D02*
X109744119Y-77367380D01*
X109410785Y-78367380D01*
X108506023Y-78367380D02*
X108839357Y-77891190D01*
X109077452Y-78367380D02*
X109077452Y-77367380D01*
X108696500Y-77367380D01*
X108601261Y-77415000D01*
X108553642Y-77462619D01*
X108506023Y-77557857D01*
X108506023Y-77700714D01*
X108553642Y-77795952D01*
X108601261Y-77843571D01*
X108696500Y-77891190D01*
X109077452Y-77891190D01*
X108077452Y-77843571D02*
X107744119Y-77843571D01*
X107601261Y-78367380D02*
X108077452Y-78367380D01*
X108077452Y-77367380D01*
X107601261Y-77367380D01*
X116625071Y-80017380D02*
X117101261Y-80017380D01*
X117101261Y-79017380D01*
X116101261Y-79017380D02*
X115910785Y-79017380D01*
X115815547Y-79065000D01*
X115720309Y-79160238D01*
X115672690Y-79350714D01*
X115672690Y-79684047D01*
X115720309Y-79874523D01*
X115815547Y-79969761D01*
X115910785Y-80017380D01*
X116101261Y-80017380D01*
X116196500Y-79969761D01*
X116291738Y-79874523D01*
X116339357Y-79684047D01*
X116339357Y-79350714D01*
X116291738Y-79160238D01*
X116196500Y-79065000D01*
X116101261Y-79017380D01*
X115339357Y-79017380D02*
X115101261Y-80017380D01*
X114910785Y-79303095D01*
X114720309Y-80017380D01*
X114482214Y-79017380D01*
X113339357Y-79493571D02*
X113006023Y-79493571D01*
X112863166Y-80017380D02*
X113339357Y-80017380D01*
X113339357Y-79017380D01*
X112863166Y-79017380D01*
X112101261Y-79493571D02*
X112434595Y-79493571D01*
X112434595Y-80017380D02*
X112434595Y-79017380D01*
X111958404Y-79017380D01*
X111244119Y-79493571D02*
X111577452Y-79493571D01*
X111577452Y-80017380D02*
X111577452Y-79017380D01*
X111101261Y-79017380D01*
X110720309Y-79493571D02*
X110386976Y-79493571D01*
X110244119Y-80017380D02*
X110720309Y-80017380D01*
X110720309Y-79017380D01*
X110244119Y-79017380D01*
X109244119Y-79922142D02*
X109291738Y-79969761D01*
X109434595Y-80017380D01*
X109529833Y-80017380D01*
X109672690Y-79969761D01*
X109767928Y-79874523D01*
X109815547Y-79779285D01*
X109863166Y-79588809D01*
X109863166Y-79445952D01*
X109815547Y-79255476D01*
X109767928Y-79160238D01*
X109672690Y-79065000D01*
X109529833Y-79017380D01*
X109434595Y-79017380D01*
X109291738Y-79065000D01*
X109244119Y-79112619D01*
X108958404Y-79017380D02*
X108386976Y-79017380D01*
X108672690Y-80017380D02*
X108672690Y-79017380D01*
X108053642Y-80017380D02*
X108053642Y-79017380D01*
X107720309Y-79017380D02*
X107386976Y-80017380D01*
X107053642Y-79017380D01*
X106720309Y-79493571D02*
X106386976Y-79493571D01*
X106244119Y-80017380D02*
X106720309Y-80017380D01*
X106720309Y-79017380D01*
X106244119Y-79017380D01*
X102781023Y-111233000D02*
X102857214Y-111194904D01*
X102971500Y-111194904D01*
X103085785Y-111233000D01*
X103161976Y-111309190D01*
X103200071Y-111385380D01*
X103238166Y-111537761D01*
X103238166Y-111652047D01*
X103200071Y-111804428D01*
X103161976Y-111880619D01*
X103085785Y-111956809D01*
X102971500Y-111994904D01*
X102895309Y-111994904D01*
X102781023Y-111956809D01*
X102742928Y-111918714D01*
X102742928Y-111652047D01*
X102895309Y-111652047D01*
X102400071Y-111994904D02*
X102400071Y-111194904D01*
X101942928Y-111994904D01*
X101942928Y-111194904D01*
X101561976Y-111994904D02*
X101561976Y-111194904D01*
X101371500Y-111194904D01*
X101257214Y-111233000D01*
X101181023Y-111309190D01*
X101142928Y-111385380D01*
X101104833Y-111537761D01*
X101104833Y-111652047D01*
X101142928Y-111804428D01*
X101181023Y-111880619D01*
X101257214Y-111956809D01*
X101371500Y-111994904D01*
X101561976Y-111994904D01*
X102717523Y-108629500D02*
X102793714Y-108591404D01*
X102908000Y-108591404D01*
X103022285Y-108629500D01*
X103098476Y-108705690D01*
X103136571Y-108781880D01*
X103174666Y-108934261D01*
X103174666Y-109048547D01*
X103136571Y-109200928D01*
X103098476Y-109277119D01*
X103022285Y-109353309D01*
X102908000Y-109391404D01*
X102831809Y-109391404D01*
X102717523Y-109353309D01*
X102679428Y-109315214D01*
X102679428Y-109048547D01*
X102831809Y-109048547D01*
X102336571Y-109391404D02*
X102336571Y-108591404D01*
X101879428Y-109391404D01*
X101879428Y-108591404D01*
X101498476Y-109391404D02*
X101498476Y-108591404D01*
X101308000Y-108591404D01*
X101193714Y-108629500D01*
X101117523Y-108705690D01*
X101079428Y-108781880D01*
X101041333Y-108934261D01*
X101041333Y-109048547D01*
X101079428Y-109200928D01*
X101117523Y-109277119D01*
X101193714Y-109353309D01*
X101308000Y-109391404D01*
X101498476Y-109391404D01*
X105231952Y-106813309D02*
X105117666Y-106851404D01*
X104927190Y-106851404D01*
X104851000Y-106813309D01*
X104812904Y-106775214D01*
X104774809Y-106699023D01*
X104774809Y-106622833D01*
X104812904Y-106546642D01*
X104851000Y-106508547D01*
X104927190Y-106470452D01*
X105079571Y-106432357D01*
X105155761Y-106394261D01*
X105193857Y-106356166D01*
X105231952Y-106279976D01*
X105231952Y-106203785D01*
X105193857Y-106127595D01*
X105155761Y-106089500D01*
X105079571Y-106051404D01*
X104889095Y-106051404D01*
X104774809Y-106089500D01*
X104431952Y-106432357D02*
X104165285Y-106432357D01*
X104051000Y-106851404D02*
X104431952Y-106851404D01*
X104431952Y-106051404D01*
X104051000Y-106051404D01*
X103327190Y-106851404D02*
X103708142Y-106851404D01*
X103708142Y-106051404D01*
X103098619Y-106127595D02*
X103060523Y-106089500D01*
X102984333Y-106051404D01*
X102793857Y-106051404D01*
X102717666Y-106089500D01*
X102679571Y-106127595D01*
X102641476Y-106203785D01*
X102641476Y-106279976D01*
X102679571Y-106394261D01*
X103136714Y-106851404D01*
X102641476Y-106851404D01*
X102489095Y-106927595D02*
X101879571Y-106927595D01*
X101308142Y-106051404D02*
X101689095Y-106051404D01*
X101727190Y-106432357D01*
X101689095Y-106394261D01*
X101612904Y-106356166D01*
X101422428Y-106356166D01*
X101346238Y-106394261D01*
X101308142Y-106432357D01*
X101270047Y-106508547D01*
X101270047Y-106699023D01*
X101308142Y-106775214D01*
X101346238Y-106813309D01*
X101422428Y-106851404D01*
X101612904Y-106851404D01*
X101689095Y-106813309D01*
X101727190Y-106775214D01*
X105231952Y-104463809D02*
X105117666Y-104501904D01*
X104927190Y-104501904D01*
X104851000Y-104463809D01*
X104812904Y-104425714D01*
X104774809Y-104349523D01*
X104774809Y-104273333D01*
X104812904Y-104197142D01*
X104851000Y-104159047D01*
X104927190Y-104120952D01*
X105079571Y-104082857D01*
X105155761Y-104044761D01*
X105193857Y-104006666D01*
X105231952Y-103930476D01*
X105231952Y-103854285D01*
X105193857Y-103778095D01*
X105155761Y-103740000D01*
X105079571Y-103701904D01*
X104889095Y-103701904D01*
X104774809Y-103740000D01*
X104431952Y-104082857D02*
X104165285Y-104082857D01*
X104051000Y-104501904D02*
X104431952Y-104501904D01*
X104431952Y-103701904D01*
X104051000Y-103701904D01*
X103327190Y-104501904D02*
X103708142Y-104501904D01*
X103708142Y-103701904D01*
X102641476Y-104501904D02*
X103098619Y-104501904D01*
X102870047Y-104501904D02*
X102870047Y-103701904D01*
X102946238Y-103816190D01*
X103022428Y-103892380D01*
X103098619Y-103930476D01*
X102489095Y-104578095D02*
X101879571Y-104578095D01*
X101308142Y-103701904D02*
X101689095Y-103701904D01*
X101727190Y-104082857D01*
X101689095Y-104044761D01*
X101612904Y-104006666D01*
X101422428Y-104006666D01*
X101346238Y-104044761D01*
X101308142Y-104082857D01*
X101270047Y-104159047D01*
X101270047Y-104349523D01*
X101308142Y-104425714D01*
X101346238Y-104463809D01*
X101422428Y-104501904D01*
X101612904Y-104501904D01*
X101689095Y-104463809D01*
X101727190Y-104425714D01*
X105231952Y-101796809D02*
X105117666Y-101834904D01*
X104927190Y-101834904D01*
X104851000Y-101796809D01*
X104812904Y-101758714D01*
X104774809Y-101682523D01*
X104774809Y-101606333D01*
X104812904Y-101530142D01*
X104851000Y-101492047D01*
X104927190Y-101453952D01*
X105079571Y-101415857D01*
X105155761Y-101377761D01*
X105193857Y-101339666D01*
X105231952Y-101263476D01*
X105231952Y-101187285D01*
X105193857Y-101111095D01*
X105155761Y-101073000D01*
X105079571Y-101034904D01*
X104889095Y-101034904D01*
X104774809Y-101073000D01*
X104431952Y-101415857D02*
X104165285Y-101415857D01*
X104051000Y-101834904D02*
X104431952Y-101834904D01*
X104431952Y-101034904D01*
X104051000Y-101034904D01*
X103327190Y-101834904D02*
X103708142Y-101834904D01*
X103708142Y-101034904D01*
X103098619Y-101111095D02*
X103060523Y-101073000D01*
X102984333Y-101034904D01*
X102793857Y-101034904D01*
X102717666Y-101073000D01*
X102679571Y-101111095D01*
X102641476Y-101187285D01*
X102641476Y-101263476D01*
X102679571Y-101377761D01*
X103136714Y-101834904D01*
X102641476Y-101834904D01*
X102489095Y-101911095D02*
X101879571Y-101911095D01*
X101346238Y-101301571D02*
X101346238Y-101834904D01*
X101536714Y-100996809D02*
X101727190Y-101568238D01*
X101231952Y-101568238D01*
X105231952Y-99193309D02*
X105117666Y-99231404D01*
X104927190Y-99231404D01*
X104851000Y-99193309D01*
X104812904Y-99155214D01*
X104774809Y-99079023D01*
X104774809Y-99002833D01*
X104812904Y-98926642D01*
X104851000Y-98888547D01*
X104927190Y-98850452D01*
X105079571Y-98812357D01*
X105155761Y-98774261D01*
X105193857Y-98736166D01*
X105231952Y-98659976D01*
X105231952Y-98583785D01*
X105193857Y-98507595D01*
X105155761Y-98469500D01*
X105079571Y-98431404D01*
X104889095Y-98431404D01*
X104774809Y-98469500D01*
X104431952Y-98812357D02*
X104165285Y-98812357D01*
X104051000Y-99231404D02*
X104431952Y-99231404D01*
X104431952Y-98431404D01*
X104051000Y-98431404D01*
X103327190Y-99231404D02*
X103708142Y-99231404D01*
X103708142Y-98431404D01*
X102641476Y-99231404D02*
X103098619Y-99231404D01*
X102870047Y-99231404D02*
X102870047Y-98431404D01*
X102946238Y-98545690D01*
X103022428Y-98621880D01*
X103098619Y-98659976D01*
X102489095Y-99307595D02*
X101879571Y-99307595D01*
X101346238Y-98698071D02*
X101346238Y-99231404D01*
X101536714Y-98393309D02*
X101727190Y-98964738D01*
X101231952Y-98964738D01*
X105231952Y-96653309D02*
X105117666Y-96691404D01*
X104927190Y-96691404D01*
X104851000Y-96653309D01*
X104812904Y-96615214D01*
X104774809Y-96539023D01*
X104774809Y-96462833D01*
X104812904Y-96386642D01*
X104851000Y-96348547D01*
X104927190Y-96310452D01*
X105079571Y-96272357D01*
X105155761Y-96234261D01*
X105193857Y-96196166D01*
X105231952Y-96119976D01*
X105231952Y-96043785D01*
X105193857Y-95967595D01*
X105155761Y-95929500D01*
X105079571Y-95891404D01*
X104889095Y-95891404D01*
X104774809Y-95929500D01*
X104431952Y-96272357D02*
X104165285Y-96272357D01*
X104051000Y-96691404D02*
X104431952Y-96691404D01*
X104431952Y-95891404D01*
X104051000Y-95891404D01*
X103327190Y-96691404D02*
X103708142Y-96691404D01*
X103708142Y-95891404D01*
X103098619Y-95967595D02*
X103060523Y-95929500D01*
X102984333Y-95891404D01*
X102793857Y-95891404D01*
X102717666Y-95929500D01*
X102679571Y-95967595D01*
X102641476Y-96043785D01*
X102641476Y-96119976D01*
X102679571Y-96234261D01*
X103136714Y-96691404D01*
X102641476Y-96691404D01*
X102489095Y-96767595D02*
X101879571Y-96767595D01*
X101765285Y-95891404D02*
X101270047Y-95891404D01*
X101536714Y-96196166D01*
X101422428Y-96196166D01*
X101346238Y-96234261D01*
X101308142Y-96272357D01*
X101270047Y-96348547D01*
X101270047Y-96539023D01*
X101308142Y-96615214D01*
X101346238Y-96653309D01*
X101422428Y-96691404D01*
X101651000Y-96691404D01*
X101727190Y-96653309D01*
X101765285Y-96615214D01*
X105231952Y-94176809D02*
X105117666Y-94214904D01*
X104927190Y-94214904D01*
X104851000Y-94176809D01*
X104812904Y-94138714D01*
X104774809Y-94062523D01*
X104774809Y-93986333D01*
X104812904Y-93910142D01*
X104851000Y-93872047D01*
X104927190Y-93833952D01*
X105079571Y-93795857D01*
X105155761Y-93757761D01*
X105193857Y-93719666D01*
X105231952Y-93643476D01*
X105231952Y-93567285D01*
X105193857Y-93491095D01*
X105155761Y-93453000D01*
X105079571Y-93414904D01*
X104889095Y-93414904D01*
X104774809Y-93453000D01*
X104431952Y-93795857D02*
X104165285Y-93795857D01*
X104051000Y-94214904D02*
X104431952Y-94214904D01*
X104431952Y-93414904D01*
X104051000Y-93414904D01*
X103327190Y-94214904D02*
X103708142Y-94214904D01*
X103708142Y-93414904D01*
X102641476Y-94214904D02*
X103098619Y-94214904D01*
X102870047Y-94214904D02*
X102870047Y-93414904D01*
X102946238Y-93529190D01*
X103022428Y-93605380D01*
X103098619Y-93643476D01*
X102489095Y-94291095D02*
X101879571Y-94291095D01*
X101765285Y-93414904D02*
X101270047Y-93414904D01*
X101536714Y-93719666D01*
X101422428Y-93719666D01*
X101346238Y-93757761D01*
X101308142Y-93795857D01*
X101270047Y-93872047D01*
X101270047Y-94062523D01*
X101308142Y-94138714D01*
X101346238Y-94176809D01*
X101422428Y-94214904D01*
X101651000Y-94214904D01*
X101727190Y-94176809D01*
X101765285Y-94138714D01*
X105231952Y-89541309D02*
X105117666Y-89579404D01*
X104927190Y-89579404D01*
X104851000Y-89541309D01*
X104812904Y-89503214D01*
X104774809Y-89427023D01*
X104774809Y-89350833D01*
X104812904Y-89274642D01*
X104851000Y-89236547D01*
X104927190Y-89198452D01*
X105079571Y-89160357D01*
X105155761Y-89122261D01*
X105193857Y-89084166D01*
X105231952Y-89007976D01*
X105231952Y-88931785D01*
X105193857Y-88855595D01*
X105155761Y-88817500D01*
X105079571Y-88779404D01*
X104889095Y-88779404D01*
X104774809Y-88817500D01*
X104431952Y-89160357D02*
X104165285Y-89160357D01*
X104051000Y-89579404D02*
X104431952Y-89579404D01*
X104431952Y-88779404D01*
X104051000Y-88779404D01*
X103327190Y-89579404D02*
X103708142Y-89579404D01*
X103708142Y-88779404D01*
X103098619Y-88855595D02*
X103060523Y-88817500D01*
X102984333Y-88779404D01*
X102793857Y-88779404D01*
X102717666Y-88817500D01*
X102679571Y-88855595D01*
X102641476Y-88931785D01*
X102641476Y-89007976D01*
X102679571Y-89122261D01*
X103136714Y-89579404D01*
X102641476Y-89579404D01*
X102489095Y-89655595D02*
X101879571Y-89655595D01*
X101727190Y-88855595D02*
X101689095Y-88817500D01*
X101612904Y-88779404D01*
X101422428Y-88779404D01*
X101346238Y-88817500D01*
X101308142Y-88855595D01*
X101270047Y-88931785D01*
X101270047Y-89007976D01*
X101308142Y-89122261D01*
X101765285Y-89579404D01*
X101270047Y-89579404D01*
X105231952Y-87001309D02*
X105117666Y-87039404D01*
X104927190Y-87039404D01*
X104851000Y-87001309D01*
X104812904Y-86963214D01*
X104774809Y-86887023D01*
X104774809Y-86810833D01*
X104812904Y-86734642D01*
X104851000Y-86696547D01*
X104927190Y-86658452D01*
X105079571Y-86620357D01*
X105155761Y-86582261D01*
X105193857Y-86544166D01*
X105231952Y-86467976D01*
X105231952Y-86391785D01*
X105193857Y-86315595D01*
X105155761Y-86277500D01*
X105079571Y-86239404D01*
X104889095Y-86239404D01*
X104774809Y-86277500D01*
X104431952Y-86620357D02*
X104165285Y-86620357D01*
X104051000Y-87039404D02*
X104431952Y-87039404D01*
X104431952Y-86239404D01*
X104051000Y-86239404D01*
X103327190Y-87039404D02*
X103708142Y-87039404D01*
X103708142Y-86239404D01*
X102641476Y-87039404D02*
X103098619Y-87039404D01*
X102870047Y-87039404D02*
X102870047Y-86239404D01*
X102946238Y-86353690D01*
X103022428Y-86429880D01*
X103098619Y-86467976D01*
X102489095Y-87115595D02*
X101879571Y-87115595D01*
X101727190Y-86315595D02*
X101689095Y-86277500D01*
X101612904Y-86239404D01*
X101422428Y-86239404D01*
X101346238Y-86277500D01*
X101308142Y-86315595D01*
X101270047Y-86391785D01*
X101270047Y-86467976D01*
X101308142Y-86582261D01*
X101765285Y-87039404D01*
X101270047Y-87039404D01*
X105231952Y-84461309D02*
X105117666Y-84499404D01*
X104927190Y-84499404D01*
X104851000Y-84461309D01*
X104812904Y-84423214D01*
X104774809Y-84347023D01*
X104774809Y-84270833D01*
X104812904Y-84194642D01*
X104851000Y-84156547D01*
X104927190Y-84118452D01*
X105079571Y-84080357D01*
X105155761Y-84042261D01*
X105193857Y-84004166D01*
X105231952Y-83927976D01*
X105231952Y-83851785D01*
X105193857Y-83775595D01*
X105155761Y-83737500D01*
X105079571Y-83699404D01*
X104889095Y-83699404D01*
X104774809Y-83737500D01*
X104431952Y-84080357D02*
X104165285Y-84080357D01*
X104051000Y-84499404D02*
X104431952Y-84499404D01*
X104431952Y-83699404D01*
X104051000Y-83699404D01*
X103327190Y-84499404D02*
X103708142Y-84499404D01*
X103708142Y-83699404D01*
X103098619Y-83775595D02*
X103060523Y-83737500D01*
X102984333Y-83699404D01*
X102793857Y-83699404D01*
X102717666Y-83737500D01*
X102679571Y-83775595D01*
X102641476Y-83851785D01*
X102641476Y-83927976D01*
X102679571Y-84042261D01*
X103136714Y-84499404D01*
X102641476Y-84499404D01*
X102489095Y-84575595D02*
X101879571Y-84575595D01*
X101270047Y-84499404D02*
X101727190Y-84499404D01*
X101498619Y-84499404D02*
X101498619Y-83699404D01*
X101574809Y-83813690D01*
X101651000Y-83889880D01*
X101727190Y-83927976D01*
X105168452Y-81921309D02*
X105054166Y-81959404D01*
X104863690Y-81959404D01*
X104787500Y-81921309D01*
X104749404Y-81883214D01*
X104711309Y-81807023D01*
X104711309Y-81730833D01*
X104749404Y-81654642D01*
X104787500Y-81616547D01*
X104863690Y-81578452D01*
X105016071Y-81540357D01*
X105092261Y-81502261D01*
X105130357Y-81464166D01*
X105168452Y-81387976D01*
X105168452Y-81311785D01*
X105130357Y-81235595D01*
X105092261Y-81197500D01*
X105016071Y-81159404D01*
X104825595Y-81159404D01*
X104711309Y-81197500D01*
X104368452Y-81540357D02*
X104101785Y-81540357D01*
X103987500Y-81959404D02*
X104368452Y-81959404D01*
X104368452Y-81159404D01*
X103987500Y-81159404D01*
X103263690Y-81959404D02*
X103644642Y-81959404D01*
X103644642Y-81159404D01*
X102577976Y-81959404D02*
X103035119Y-81959404D01*
X102806547Y-81959404D02*
X102806547Y-81159404D01*
X102882738Y-81273690D01*
X102958928Y-81349880D01*
X103035119Y-81387976D01*
X102425595Y-82035595D02*
X101816071Y-82035595D01*
X101206547Y-81959404D02*
X101663690Y-81959404D01*
X101435119Y-81959404D02*
X101435119Y-81159404D01*
X101511309Y-81273690D01*
X101587500Y-81349880D01*
X101663690Y-81387976D01*
X105168452Y-79317809D02*
X105054166Y-79355904D01*
X104863690Y-79355904D01*
X104787500Y-79317809D01*
X104749404Y-79279714D01*
X104711309Y-79203523D01*
X104711309Y-79127333D01*
X104749404Y-79051142D01*
X104787500Y-79013047D01*
X104863690Y-78974952D01*
X105016071Y-78936857D01*
X105092261Y-78898761D01*
X105130357Y-78860666D01*
X105168452Y-78784476D01*
X105168452Y-78708285D01*
X105130357Y-78632095D01*
X105092261Y-78594000D01*
X105016071Y-78555904D01*
X104825595Y-78555904D01*
X104711309Y-78594000D01*
X104368452Y-78936857D02*
X104101785Y-78936857D01*
X103987500Y-79355904D02*
X104368452Y-79355904D01*
X104368452Y-78555904D01*
X103987500Y-78555904D01*
X103263690Y-79355904D02*
X103644642Y-79355904D01*
X103644642Y-78555904D01*
X103035119Y-78632095D02*
X102997023Y-78594000D01*
X102920833Y-78555904D01*
X102730357Y-78555904D01*
X102654166Y-78594000D01*
X102616071Y-78632095D01*
X102577976Y-78708285D01*
X102577976Y-78784476D01*
X102616071Y-78898761D01*
X103073214Y-79355904D01*
X102577976Y-79355904D01*
X102425595Y-79432095D02*
X101816071Y-79432095D01*
X101473214Y-78555904D02*
X101397023Y-78555904D01*
X101320833Y-78594000D01*
X101282738Y-78632095D01*
X101244642Y-78708285D01*
X101206547Y-78860666D01*
X101206547Y-79051142D01*
X101244642Y-79203523D01*
X101282738Y-79279714D01*
X101320833Y-79317809D01*
X101397023Y-79355904D01*
X101473214Y-79355904D01*
X101549404Y-79317809D01*
X101587500Y-79279714D01*
X101625595Y-79203523D01*
X101663690Y-79051142D01*
X101663690Y-78860666D01*
X101625595Y-78708285D01*
X101587500Y-78632095D01*
X101549404Y-78594000D01*
X101473214Y-78555904D01*
X105168452Y-76650809D02*
X105054166Y-76688904D01*
X104863690Y-76688904D01*
X104787500Y-76650809D01*
X104749404Y-76612714D01*
X104711309Y-76536523D01*
X104711309Y-76460333D01*
X104749404Y-76384142D01*
X104787500Y-76346047D01*
X104863690Y-76307952D01*
X105016071Y-76269857D01*
X105092261Y-76231761D01*
X105130357Y-76193666D01*
X105168452Y-76117476D01*
X105168452Y-76041285D01*
X105130357Y-75965095D01*
X105092261Y-75927000D01*
X105016071Y-75888904D01*
X104825595Y-75888904D01*
X104711309Y-75927000D01*
X104368452Y-76269857D02*
X104101785Y-76269857D01*
X103987500Y-76688904D02*
X104368452Y-76688904D01*
X104368452Y-75888904D01*
X103987500Y-75888904D01*
X103263690Y-76688904D02*
X103644642Y-76688904D01*
X103644642Y-75888904D01*
X102577976Y-76688904D02*
X103035119Y-76688904D01*
X102806547Y-76688904D02*
X102806547Y-75888904D01*
X102882738Y-76003190D01*
X102958928Y-76079380D01*
X103035119Y-76117476D01*
X102425595Y-76765095D02*
X101816071Y-76765095D01*
X101473214Y-75888904D02*
X101397023Y-75888904D01*
X101320833Y-75927000D01*
X101282738Y-75965095D01*
X101244642Y-76041285D01*
X101206547Y-76193666D01*
X101206547Y-76384142D01*
X101244642Y-76536523D01*
X101282738Y-76612714D01*
X101320833Y-76650809D01*
X101397023Y-76688904D01*
X101473214Y-76688904D01*
X101549404Y-76650809D01*
X101587500Y-76612714D01*
X101625595Y-76536523D01*
X101663690Y-76384142D01*
X101663690Y-76193666D01*
X101625595Y-76041285D01*
X101587500Y-75965095D01*
X101549404Y-75927000D01*
X101473214Y-75888904D01*
X104216000Y-74098142D02*
X103606476Y-74098142D01*
X103911238Y-74402904D02*
X103911238Y-73793380D01*
X103301714Y-73602904D02*
X102806476Y-73602904D01*
X103073142Y-73907666D01*
X102958857Y-73907666D01*
X102882666Y-73945761D01*
X102844571Y-73983857D01*
X102806476Y-74060047D01*
X102806476Y-74250523D01*
X102844571Y-74326714D01*
X102882666Y-74364809D01*
X102958857Y-74402904D01*
X103187428Y-74402904D01*
X103263619Y-74364809D01*
X103301714Y-74326714D01*
X102463619Y-74326714D02*
X102425523Y-74364809D01*
X102463619Y-74402904D01*
X102501714Y-74364809D01*
X102463619Y-74326714D01*
X102463619Y-74402904D01*
X102158857Y-73602904D02*
X101663619Y-73602904D01*
X101930285Y-73907666D01*
X101816000Y-73907666D01*
X101739809Y-73945761D01*
X101701714Y-73983857D01*
X101663619Y-74060047D01*
X101663619Y-74250523D01*
X101701714Y-74326714D01*
X101739809Y-74364809D01*
X101816000Y-74402904D01*
X102044571Y-74402904D01*
X102120761Y-74364809D01*
X102158857Y-74326714D01*
X101435047Y-73602904D02*
X101168380Y-74402904D01*
X100901714Y-73602904D01*
X104152523Y-71621642D02*
X103543000Y-71621642D01*
X103847761Y-71926404D02*
X103847761Y-71316880D01*
X102743000Y-71926404D02*
X103200142Y-71926404D01*
X102971571Y-71926404D02*
X102971571Y-71126404D01*
X103047761Y-71240690D01*
X103123952Y-71316880D01*
X103200142Y-71354976D01*
X102438238Y-71202595D02*
X102400142Y-71164500D01*
X102323952Y-71126404D01*
X102133476Y-71126404D01*
X102057285Y-71164500D01*
X102019190Y-71202595D01*
X101981095Y-71278785D01*
X101981095Y-71354976D01*
X102019190Y-71469261D01*
X102476333Y-71926404D01*
X101981095Y-71926404D01*
X101752523Y-71126404D02*
X101485857Y-71926404D01*
X101219190Y-71126404D01*
X93160857Y-130645476D02*
X93160857Y-130912142D01*
X93579904Y-131026428D02*
X93579904Y-130645476D01*
X92779904Y-130645476D01*
X92779904Y-131026428D01*
X93579904Y-131293095D02*
X93046571Y-131712142D01*
X93046571Y-131293095D02*
X93579904Y-131712142D01*
X93046571Y-131902619D02*
X93046571Y-132207380D01*
X92779904Y-132016904D02*
X93465619Y-132016904D01*
X93541809Y-132055000D01*
X93579904Y-132131190D01*
X93579904Y-132207380D01*
X93541809Y-132778809D02*
X93579904Y-132702619D01*
X93579904Y-132550238D01*
X93541809Y-132474047D01*
X93465619Y-132435952D01*
X93160857Y-132435952D01*
X93084666Y-132474047D01*
X93046571Y-132550238D01*
X93046571Y-132702619D01*
X93084666Y-132778809D01*
X93160857Y-132816904D01*
X93237047Y-132816904D01*
X93313238Y-132435952D01*
X93579904Y-133159761D02*
X93046571Y-133159761D01*
X93198952Y-133159761D02*
X93122761Y-133197857D01*
X93084666Y-133235952D01*
X93046571Y-133312142D01*
X93046571Y-133388333D01*
X93046571Y-133655000D02*
X93579904Y-133655000D01*
X93122761Y-133655000D02*
X93084666Y-133693095D01*
X93046571Y-133769285D01*
X93046571Y-133883571D01*
X93084666Y-133959761D01*
X93160857Y-133997857D01*
X93579904Y-133997857D01*
X93579904Y-134721666D02*
X93160857Y-134721666D01*
X93084666Y-134683571D01*
X93046571Y-134607380D01*
X93046571Y-134455000D01*
X93084666Y-134378809D01*
X93541809Y-134721666D02*
X93579904Y-134645476D01*
X93579904Y-134455000D01*
X93541809Y-134378809D01*
X93465619Y-134340714D01*
X93389428Y-134340714D01*
X93313238Y-134378809D01*
X93275142Y-134455000D01*
X93275142Y-134645476D01*
X93237047Y-134721666D01*
X93579904Y-135216904D02*
X93541809Y-135140714D01*
X93465619Y-135102619D01*
X92779904Y-135102619D01*
X93160857Y-136397857D02*
X93198952Y-136512142D01*
X93237047Y-136550238D01*
X93313238Y-136588333D01*
X93427523Y-136588333D01*
X93503714Y-136550238D01*
X93541809Y-136512142D01*
X93579904Y-136435952D01*
X93579904Y-136131190D01*
X92779904Y-136131190D01*
X92779904Y-136397857D01*
X92818000Y-136474047D01*
X92856095Y-136512142D01*
X92932285Y-136550238D01*
X93008476Y-136550238D01*
X93084666Y-136512142D01*
X93122761Y-136474047D01*
X93160857Y-136397857D01*
X93160857Y-136131190D01*
X93503714Y-137388333D02*
X93541809Y-137350238D01*
X93579904Y-137235952D01*
X93579904Y-137159761D01*
X93541809Y-137045476D01*
X93465619Y-136969285D01*
X93389428Y-136931190D01*
X93237047Y-136893095D01*
X93122761Y-136893095D01*
X92970380Y-136931190D01*
X92894190Y-136969285D01*
X92818000Y-137045476D01*
X92779904Y-137159761D01*
X92779904Y-137235952D01*
X92818000Y-137350238D01*
X92856095Y-137388333D01*
X93579904Y-137731190D02*
X92779904Y-137731190D01*
X92779904Y-137921666D01*
X92818000Y-138035952D01*
X92894190Y-138112142D01*
X92970380Y-138150238D01*
X93122761Y-138188333D01*
X93237047Y-138188333D01*
X93389428Y-138150238D01*
X93465619Y-138112142D01*
X93541809Y-138035952D01*
X93579904Y-137921666D01*
X93579904Y-137731190D01*
X93579904Y-139140714D02*
X92779904Y-139140714D01*
X93046571Y-139521666D02*
X93579904Y-139521666D01*
X93122761Y-139521666D02*
X93084666Y-139559761D01*
X93046571Y-139635952D01*
X93046571Y-139750238D01*
X93084666Y-139826428D01*
X93160857Y-139864523D01*
X93579904Y-139864523D01*
X92716404Y-99269976D02*
X92716404Y-99727119D01*
X93516404Y-99498547D02*
X92716404Y-99498547D01*
X92716404Y-100146166D02*
X92716404Y-100298547D01*
X92754500Y-100374738D01*
X92830690Y-100450928D01*
X92983071Y-100489023D01*
X93249738Y-100489023D01*
X93402119Y-100450928D01*
X93478309Y-100374738D01*
X93516404Y-100298547D01*
X93516404Y-100146166D01*
X93478309Y-100069976D01*
X93402119Y-99993785D01*
X93249738Y-99955690D01*
X92983071Y-99955690D01*
X92830690Y-99993785D01*
X92754500Y-100069976D01*
X92716404Y-100146166D01*
X93516404Y-101898547D02*
X93135452Y-101631880D01*
X93516404Y-101441404D02*
X92716404Y-101441404D01*
X92716404Y-101746166D01*
X92754500Y-101822357D01*
X92792595Y-101860452D01*
X92868785Y-101898547D01*
X92983071Y-101898547D01*
X93059261Y-101860452D01*
X93097357Y-101822357D01*
X93135452Y-101746166D01*
X93135452Y-101441404D01*
X93097357Y-102241404D02*
X93097357Y-102508071D01*
X93516404Y-102622357D02*
X93516404Y-102241404D01*
X92716404Y-102241404D01*
X92716404Y-102622357D01*
X93516404Y-103346166D02*
X93516404Y-102965214D01*
X92716404Y-102965214D01*
X93287833Y-103574738D02*
X93287833Y-103955690D01*
X93516404Y-103498547D02*
X92716404Y-103765214D01*
X93516404Y-104031880D01*
X93135452Y-104450928D02*
X93516404Y-104450928D01*
X92716404Y-104184261D02*
X93135452Y-104450928D01*
X92716404Y-104717595D01*
X92792595Y-105555690D02*
X92754500Y-105593785D01*
X92716404Y-105669976D01*
X92716404Y-105860452D01*
X92754500Y-105936642D01*
X92792595Y-105974738D01*
X92868785Y-106012833D01*
X92944976Y-106012833D01*
X93059261Y-105974738D01*
X93516404Y-105517595D01*
X93516404Y-106012833D01*
X92716404Y-77616476D02*
X92716404Y-78073619D01*
X93516404Y-77845047D02*
X92716404Y-77845047D01*
X92716404Y-78492666D02*
X92716404Y-78645047D01*
X92754500Y-78721238D01*
X92830690Y-78797428D01*
X92983071Y-78835523D01*
X93249738Y-78835523D01*
X93402119Y-78797428D01*
X93478309Y-78721238D01*
X93516404Y-78645047D01*
X93516404Y-78492666D01*
X93478309Y-78416476D01*
X93402119Y-78340285D01*
X93249738Y-78302190D01*
X92983071Y-78302190D01*
X92830690Y-78340285D01*
X92754500Y-78416476D01*
X92716404Y-78492666D01*
X93516404Y-80245047D02*
X93135452Y-79978380D01*
X93516404Y-79787904D02*
X92716404Y-79787904D01*
X92716404Y-80092666D01*
X92754500Y-80168857D01*
X92792595Y-80206952D01*
X92868785Y-80245047D01*
X92983071Y-80245047D01*
X93059261Y-80206952D01*
X93097357Y-80168857D01*
X93135452Y-80092666D01*
X93135452Y-79787904D01*
X93097357Y-80587904D02*
X93097357Y-80854571D01*
X93516404Y-80968857D02*
X93516404Y-80587904D01*
X92716404Y-80587904D01*
X92716404Y-80968857D01*
X93516404Y-81692666D02*
X93516404Y-81311714D01*
X92716404Y-81311714D01*
X93287833Y-81921238D02*
X93287833Y-82302190D01*
X93516404Y-81845047D02*
X92716404Y-82111714D01*
X93516404Y-82378380D01*
X93135452Y-82797428D02*
X93516404Y-82797428D01*
X92716404Y-82530761D02*
X93135452Y-82797428D01*
X92716404Y-83064095D01*
X93516404Y-84359333D02*
X93516404Y-83902190D01*
X93516404Y-84130761D02*
X92716404Y-84130761D01*
X92830690Y-84054571D01*
X92906880Y-83978380D01*
X92944976Y-83902190D01*
D12*
X145008600Y-131445000D02*
G75*
G03X145008600Y-131445000I-2286000J0D01*
G01*
X145691200Y-47042800D02*
X129591200Y-47042800D01*
X145691200Y-68642800D02*
X129591200Y-68642800D01*
X145691200Y-47042800D02*
X145691200Y-68642800D01*
X129591200Y-68642800D02*
X129591200Y-47042800D01*
X145691200Y-50042800D02*
X129591200Y-50062800D01*
X110317000Y-59776000D02*
X110917000Y-59776000D01*
X110617000Y-59176000D02*
X110317000Y-59776000D01*
X110917000Y-59776000D02*
X110617000Y-59176000D01*
X120027000Y-48316000D02*
X119777000Y-46816000D01*
X121527000Y-48316000D02*
X120027000Y-48316000D01*
X121777000Y-46816000D02*
X121527000Y-48316000D01*
X119777000Y-46816000D02*
X121777000Y-46816000D01*
X114947000Y-48316000D02*
X114697000Y-46816000D01*
X116447000Y-48316000D02*
X114947000Y-48316000D01*
X116697000Y-46816000D02*
X116447000Y-48316000D01*
X114697000Y-46816000D02*
X116697000Y-46816000D01*
X109867000Y-48316000D02*
X109617000Y-46816000D01*
X111367000Y-48316000D02*
X109867000Y-48316000D01*
X111617000Y-46816000D02*
X111367000Y-48316000D01*
X109617000Y-46816000D02*
X111617000Y-46816000D01*
X124397000Y-48316000D02*
X106997000Y-48316000D01*
X124397000Y-50116000D02*
X124397000Y-48316000D01*
X106997000Y-50116000D02*
X124397000Y-50116000D01*
X106997000Y-48316000D02*
X106997000Y-50116000D01*
X124397000Y-58976000D02*
X106997000Y-58976000D01*
X124397000Y-46816000D02*
X124397000Y-58976000D01*
X106997000Y-46816000D02*
X124397000Y-46816000D01*
X106997000Y-58976000D02*
X106997000Y-46816000D01*
D13*
X106013000Y-58338600D02*
X106013000Y-51338600D01*
X99013000Y-58338600D02*
X106013000Y-58338600D01*
X100013000Y-51838600D02*
G75*
G03X100013000Y-51838600I-500000J0D01*
G01*
X99013000Y-53338600D02*
X101013000Y-51338600D01*
X101013000Y-51338600D02*
X106013000Y-51338600D01*
X99013000Y-53338600D02*
X99013000Y-58338600D01*
D12*
X61979400Y-59890300D02*
X62579400Y-59890300D01*
X62279400Y-59290300D02*
X61979400Y-59890300D01*
X62579400Y-59890300D02*
X62279400Y-59290300D01*
X66609400Y-48430300D02*
X66359400Y-46930300D01*
X68109400Y-48430300D02*
X66609400Y-48430300D01*
X68359400Y-46930300D02*
X68109400Y-48430300D01*
X66359400Y-46930300D02*
X68359400Y-46930300D01*
X61529400Y-48430300D02*
X61279400Y-46930300D01*
X63029400Y-48430300D02*
X61529400Y-48430300D01*
X63279400Y-46930300D02*
X63029400Y-48430300D01*
X61279400Y-46930300D02*
X63279400Y-46930300D01*
X70979400Y-48430300D02*
X58659400Y-48430300D01*
X70979400Y-50230300D02*
X70979400Y-48430300D01*
X58659400Y-50230300D02*
X70979400Y-50230300D01*
X58659400Y-48430300D02*
X58659400Y-50230300D01*
X70979400Y-59090300D02*
X58659400Y-59090300D01*
X70979400Y-46930300D02*
X70979400Y-59090300D01*
X58659400Y-46930300D02*
X70979400Y-46930300D01*
X58659400Y-59090300D02*
X58659400Y-46930300D01*
X95160000Y-112433000D02*
X94540000Y-112433000D01*
X95160000Y-110833000D02*
X95160000Y-112433000D01*
X94540000Y-110833000D02*
X95160000Y-110833000D01*
X95160000Y-109893000D02*
X94540000Y-109893000D01*
X95160000Y-108293000D02*
X95160000Y-109893000D01*
X94540000Y-108293000D02*
X95160000Y-108293000D01*
X95160000Y-107353000D02*
X94540000Y-107353000D01*
X95160000Y-105753000D02*
X95160000Y-107353000D01*
X94540000Y-105753000D02*
X95160000Y-105753000D01*
X95160000Y-104813000D02*
X94540000Y-104813000D01*
X95160000Y-103213000D02*
X95160000Y-104813000D01*
X94540000Y-103213000D02*
X95160000Y-103213000D01*
X95160000Y-102273000D02*
X94540000Y-102273000D01*
X95160000Y-100673000D02*
X95160000Y-102273000D01*
X94540000Y-100673000D02*
X95160000Y-100673000D01*
X95160000Y-99733000D02*
X94540000Y-99733000D01*
X95160000Y-98133000D02*
X95160000Y-99733000D01*
X94540000Y-98133000D02*
X95160000Y-98133000D01*
X95160000Y-97193000D02*
X94540000Y-97193000D01*
X95160000Y-95593000D02*
X95160000Y-97193000D01*
X94540000Y-95593000D02*
X95160000Y-95593000D01*
X95160000Y-94653000D02*
X94540000Y-94653000D01*
X95160000Y-93053000D02*
X95160000Y-94653000D01*
X94540000Y-93053000D02*
X95160000Y-93053000D01*
X100540000Y-111383000D02*
X99540000Y-111383000D01*
X99110000Y-106553000D02*
X99540000Y-106553000D01*
X99110000Y-111383000D02*
X99110000Y-106553000D01*
X99540000Y-111633000D02*
X99110000Y-111383000D01*
X99540000Y-106553000D02*
X100540000Y-106553000D01*
X99540000Y-111633000D02*
X99540000Y-106553000D01*
X100540000Y-111633000D02*
X99540000Y-111633000D01*
X100540000Y-94103000D02*
X99540000Y-94103000D01*
X99110000Y-98933000D02*
X99540000Y-98933000D01*
X99110000Y-94103000D02*
X99110000Y-98933000D01*
X99540000Y-93853000D02*
X99110000Y-94103000D01*
X99540000Y-98933000D02*
X100540000Y-98933000D01*
X99540000Y-93853000D02*
X99540000Y-98933000D01*
X100540000Y-93853000D02*
X99540000Y-93853000D01*
X94540000Y-113003000D02*
X94540000Y-92483000D01*
X100540000Y-113003000D02*
X94540000Y-113003000D01*
X100540000Y-92483000D02*
X100540000Y-113003000D01*
X94540000Y-92483000D02*
X100540000Y-92483000D01*
X95160000Y-90030200D02*
X94540000Y-90030200D01*
X95160000Y-88430200D02*
X95160000Y-90030200D01*
X94540000Y-88430200D02*
X95160000Y-88430200D01*
X95160000Y-87490200D02*
X94540000Y-87490200D01*
X95160000Y-85890200D02*
X95160000Y-87490200D01*
X94540000Y-85890200D02*
X95160000Y-85890200D01*
X95160000Y-84950200D02*
X94540000Y-84950200D01*
X95160000Y-83350200D02*
X95160000Y-84950200D01*
X94540000Y-83350200D02*
X95160000Y-83350200D01*
X95160000Y-82410200D02*
X94540000Y-82410200D01*
X95160000Y-80810200D02*
X95160000Y-82410200D01*
X94540000Y-80810200D02*
X95160000Y-80810200D01*
X95160000Y-79870200D02*
X94540000Y-79870200D01*
X95160000Y-78270200D02*
X95160000Y-79870200D01*
X94540000Y-78270200D02*
X95160000Y-78270200D01*
X95160000Y-77330200D02*
X94540000Y-77330200D01*
X95160000Y-75730200D02*
X95160000Y-77330200D01*
X94540000Y-75730200D02*
X95160000Y-75730200D01*
X95160000Y-74790200D02*
X94540000Y-74790200D01*
X95160000Y-73190200D02*
X95160000Y-74790200D01*
X94540000Y-73190200D02*
X95160000Y-73190200D01*
X95160000Y-72250200D02*
X94540000Y-72250200D01*
X95160000Y-70650200D02*
X95160000Y-72250200D01*
X94540000Y-70650200D02*
X95160000Y-70650200D01*
X100540000Y-88980200D02*
X99540000Y-88980200D01*
X99110000Y-84150200D02*
X99540000Y-84150200D01*
X99110000Y-88980200D02*
X99110000Y-84150200D01*
X99540000Y-89230200D02*
X99110000Y-88980200D01*
X99540000Y-84150200D02*
X100540000Y-84150200D01*
X99540000Y-89230200D02*
X99540000Y-84150200D01*
X100540000Y-89230200D02*
X99540000Y-89230200D01*
X100540000Y-71700200D02*
X99540000Y-71700200D01*
X99110000Y-76530200D02*
X99540000Y-76530200D01*
X99110000Y-71700200D02*
X99110000Y-76530200D01*
X99540000Y-71450200D02*
X99110000Y-71700200D01*
X99540000Y-76530200D02*
X100540000Y-76530200D01*
X99540000Y-71450200D02*
X99540000Y-76530200D01*
X100540000Y-71450200D02*
X99540000Y-71450200D01*
X94540000Y-90600200D02*
X94540000Y-70080200D01*
X100540000Y-90600200D02*
X94540000Y-90600200D01*
X100540000Y-70080200D02*
X100540000Y-90600200D01*
X94540000Y-70080200D02*
X100540000Y-70080200D01*
X95160000Y-144767200D02*
X94540000Y-144767200D01*
X95160000Y-143167200D02*
X95160000Y-144767200D01*
X94540000Y-143167200D02*
X95160000Y-143167200D01*
X95160000Y-142227200D02*
X94540000Y-142227200D01*
X95160000Y-140627200D02*
X95160000Y-142227200D01*
X94540000Y-140627200D02*
X95160000Y-140627200D01*
X95160000Y-139687200D02*
X94540000Y-139687200D01*
X95160000Y-138087200D02*
X95160000Y-139687200D01*
X94540000Y-138087200D02*
X95160000Y-138087200D01*
X95160000Y-137147200D02*
X94540000Y-137147200D01*
X95160000Y-135547200D02*
X95160000Y-137147200D01*
X94540000Y-135547200D02*
X95160000Y-135547200D01*
X95160000Y-134607200D02*
X94540000Y-134607200D01*
X95160000Y-133007200D02*
X95160000Y-134607200D01*
X94540000Y-133007200D02*
X95160000Y-133007200D01*
X95160000Y-132067200D02*
X94540000Y-132067200D01*
X95160000Y-130467200D02*
X95160000Y-132067200D01*
X94540000Y-130467200D02*
X95160000Y-130467200D01*
X95160000Y-129527200D02*
X94540000Y-129527200D01*
X95160000Y-127927200D02*
X95160000Y-129527200D01*
X94540000Y-127927200D02*
X95160000Y-127927200D01*
X95160000Y-126987200D02*
X94540000Y-126987200D01*
X95160000Y-125387200D02*
X95160000Y-126987200D01*
X94540000Y-125387200D02*
X95160000Y-125387200D01*
X100540000Y-143717200D02*
X99540000Y-143717200D01*
X99110000Y-138887200D02*
X99540000Y-138887200D01*
X99110000Y-143717200D02*
X99110000Y-138887200D01*
X99540000Y-143967200D02*
X99110000Y-143717200D01*
X99540000Y-138887200D02*
X100540000Y-138887200D01*
X99540000Y-143967200D02*
X99540000Y-138887200D01*
X100540000Y-143967200D02*
X99540000Y-143967200D01*
X100540000Y-126437200D02*
X99540000Y-126437200D01*
X99110000Y-131267200D02*
X99540000Y-131267200D01*
X99110000Y-126437200D02*
X99110000Y-131267200D01*
X99540000Y-126187200D02*
X99110000Y-126437200D01*
X99540000Y-131267200D02*
X100540000Y-131267200D01*
X99540000Y-126187200D02*
X99540000Y-131267200D01*
X100540000Y-126187200D02*
X99540000Y-126187200D01*
X94540000Y-145337200D02*
X94540000Y-124817200D01*
X100540000Y-145337200D02*
X94540000Y-145337200D01*
X100540000Y-124817200D02*
X100540000Y-145337200D01*
X94540000Y-124817200D02*
X100540000Y-124817200D01*
D11*
X141074733Y-133843780D02*
X141074733Y-134558066D01*
X141122352Y-134700923D01*
X141217590Y-134796161D01*
X141360447Y-134843780D01*
X141455685Y-134843780D01*
X140455685Y-134272352D02*
X140550923Y-134224733D01*
X140598542Y-134177114D01*
X140646161Y-134081876D01*
X140646161Y-134034257D01*
X140598542Y-133939019D01*
X140550923Y-133891400D01*
X140455685Y-133843780D01*
X140265209Y-133843780D01*
X140169971Y-133891400D01*
X140122352Y-133939019D01*
X140074733Y-134034257D01*
X140074733Y-134081876D01*
X140122352Y-134177114D01*
X140169971Y-134224733D01*
X140265209Y-134272352D01*
X140455685Y-134272352D01*
X140550923Y-134319971D01*
X140598542Y-134367590D01*
X140646161Y-134462828D01*
X140646161Y-134653304D01*
X140598542Y-134748542D01*
X140550923Y-134796161D01*
X140455685Y-134843780D01*
X140265209Y-134843780D01*
X140169971Y-134796161D01*
X140122352Y-134748542D01*
X140074733Y-134653304D01*
X140074733Y-134462828D01*
X140122352Y-134367590D01*
X140169971Y-134319971D01*
X140265209Y-134272352D01*
X146272304Y-67449733D02*
X146843733Y-67449733D01*
X146958019Y-67411638D01*
X147034209Y-67335447D01*
X147072304Y-67221161D01*
X147072304Y-67144971D01*
X146538971Y-68173542D02*
X147072304Y-68173542D01*
X146234209Y-67983066D02*
X146805638Y-67792590D01*
X146805638Y-68287828D01*
X125241104Y-52666933D02*
X125812533Y-52666933D01*
X125926819Y-52628838D01*
X126003009Y-52552647D01*
X126041104Y-52438361D01*
X126041104Y-52362171D01*
X125241104Y-53390742D02*
X125241104Y-53238361D01*
X125279200Y-53162171D01*
X125317295Y-53124076D01*
X125431580Y-53047885D01*
X125583961Y-53009790D01*
X125888723Y-53009790D01*
X125964914Y-53047885D01*
X126003009Y-53085980D01*
X126041104Y-53162171D01*
X126041104Y-53314552D01*
X126003009Y-53390742D01*
X125964914Y-53428838D01*
X125888723Y-53466933D01*
X125698247Y-53466933D01*
X125622057Y-53428838D01*
X125583961Y-53390742D01*
X125545866Y-53314552D01*
X125545866Y-53162171D01*
X125583961Y-53085980D01*
X125622057Y-53047885D01*
X125698247Y-53009790D01*
D14*
X100529571Y-59577514D02*
X100783571Y-59214657D01*
X100965000Y-59577514D02*
X100965000Y-58815514D01*
X100674714Y-58815514D01*
X100602142Y-58851800D01*
X100565857Y-58888085D01*
X100529571Y-58960657D01*
X100529571Y-59069514D01*
X100565857Y-59142085D01*
X100602142Y-59178371D01*
X100674714Y-59214657D01*
X100965000Y-59214657D01*
X100311857Y-58815514D02*
X100057857Y-59577514D01*
X99803857Y-58815514D01*
X99150714Y-59577514D02*
X99586142Y-59577514D01*
X99368428Y-59577514D02*
X99368428Y-58815514D01*
X99441000Y-58924371D01*
X99513571Y-58996942D01*
X99586142Y-59033228D01*
D11*
X56864304Y-51346133D02*
X57435733Y-51346133D01*
X57550019Y-51308038D01*
X57626209Y-51231847D01*
X57664304Y-51117561D01*
X57664304Y-51041371D01*
X56864304Y-51650895D02*
X56864304Y-52184228D01*
X57664304Y-51841371D01*
X92621904Y-94586333D02*
X93193333Y-94586333D01*
X93307619Y-94548238D01*
X93383809Y-94472047D01*
X93421904Y-94357761D01*
X93421904Y-94281571D01*
X92621904Y-94891095D02*
X92621904Y-95386333D01*
X92926666Y-95119666D01*
X92926666Y-95233952D01*
X92964761Y-95310142D01*
X93002857Y-95348238D01*
X93079047Y-95386333D01*
X93269523Y-95386333D01*
X93345714Y-95348238D01*
X93383809Y-95310142D01*
X93421904Y-95233952D01*
X93421904Y-95005380D01*
X93383809Y-94929190D01*
X93345714Y-94891095D01*
X92621904Y-72183533D02*
X93193333Y-72183533D01*
X93307619Y-72145438D01*
X93383809Y-72069247D01*
X93421904Y-71954961D01*
X93421904Y-71878771D01*
X92698095Y-72526390D02*
X92660000Y-72564485D01*
X92621904Y-72640676D01*
X92621904Y-72831152D01*
X92660000Y-72907342D01*
X92698095Y-72945438D01*
X92774285Y-72983533D01*
X92850476Y-72983533D01*
X92964761Y-72945438D01*
X93421904Y-72488295D01*
X93421904Y-72983533D01*
X92621904Y-126920533D02*
X93193333Y-126920533D01*
X93307619Y-126882438D01*
X93383809Y-126806247D01*
X93421904Y-126691961D01*
X93421904Y-126615771D01*
X93421904Y-127720533D02*
X93421904Y-127263390D01*
X93421904Y-127491961D02*
X92621904Y-127491961D01*
X92736190Y-127415771D01*
X92812380Y-127339580D01*
X92850476Y-127263390D01*
M02*
