M48
; DRILL file {KiCad (5.1.4)-1} date 2019/11/1 19:47:46
; FORMAT={-:-/ absolute / metric / decimal}
; #@! TF.CreationDate,2019-11-01T19:47:46+08:00
; #@! TF.GenerationSoftware,Kicad,Pcbnew,(5.1.4)-1
; #@! TF.FileFunction,Plated,1,2,PTH
FMAT,2
METRIC
T1C0.400
T2C0.600
T3C0.635
T4C0.700
T5C0.800
T6C0.890
T7C0.900
T8C1.000
T9C1.020
T10C1.400
T11C1.630
T12C2.000
T13C3.500
%
G90
G05
T1
X60.071Y-100.33
X61.265Y-68.123
X63.119Y-100.33
X63.296Y-91.514
X63.348Y-69.19
X64.453Y-93.98
X64.973Y-85.649
X65.911Y-90.69
X66.294Y-76.581
X66.421Y-78.359
X66.421Y-79.629
X66.421Y-87.884
X66.421Y-114.173
X67.056Y-115.316
X67.183Y-87.122
X68.008Y-86.424
X68.072Y-112.522
X68.072Y-116.332
X68.631Y-93.269
X69.215Y-113.538
X69.977Y-114.554
X71.247Y-129.921
X71.282Y-123.872
X71.476Y-99.771
X71.529Y-112.474
X71.552Y-117.119
X71.819Y-93.599
X71.831Y-95.047
X72.06Y-137.526
X72.173Y-123.535
X73.279Y-107.315
X73.651Y-109.618
X74.774Y-109.419
X75.438Y-78.994
X75.743Y-124.892
X75.819Y-109.855
X76.886Y-102.514
X77.013Y-126.797
X77.089Y-97.267
X77.368Y-73.711
X77.419Y-111.811
X77.47Y-99.06
X77.52Y-91.707
X77.874Y-101.965
X78.232Y-57.658
X78.414Y-100.237
X78.74Y-92.608
X78.791Y-108.255
X78.994Y-94.996
X79.096Y-81.382
X79.172Y-102.159
X79.248Y-104.521
X79.629Y-55.88
X80.01Y-97.663
X80.174Y-102.071
X80.518Y-93.662
X80.775Y-125.118
X80.779Y-76.881
X80.917Y-98.322
X81.193Y-124.262
X81.534Y-104.394
X81.534Y-106.553
X81.763Y-97.079
X82.423Y-75.819
X83.007Y-108.61
X83.261Y-127.457
X85.279Y-100.127
X85.376Y-102.743
X85.398Y-101.435
X85.463Y-98.719
X85.598Y-105.715
X85.615Y-104.051
X85.623Y-124.231
X86.106Y-97.155
X86.21Y-102.284
X86.258Y-80.874
X86.33Y-100.976
X86.434Y-98.157
X86.487Y-99.566
X86.719Y-103.575
X86.741Y-104.883
X86.944Y-124.282
X86.944Y-126.746
X87.032Y-96.242
X87.122Y-95.123
X87.757Y-127.508
X87.792Y-112.43
X88.519Y-77.597
X88.646Y-78.994
X89.205Y-122.377
X89.408Y-105.41
X89.769Y-94.144
X89.789Y-88.135
X90.084Y-90.452
X90.297Y-75.311
X90.424Y-112.141
X91.77Y-90.5
X91.882Y-105.706
X92.574Y-90.601
X93.015Y-122.225
X93.726Y-67.056
X93.726Y-70.739
X93.929Y-96.672
X94.248Y-122.301
X94.488Y-68.961
X94.573Y-87.936
X95.326Y-67.056
X95.326Y-70.739
X96.031Y-87.083
X96.088Y-68.961
X96.533Y-123.431
X96.647Y-101.981
X96.653Y-99.562
X96.734Y-86.441
X96.825Y-122.326
X96.926Y-67.056
X96.926Y-70.739
X97.62Y-86.791
X97.688Y-68.961
X98.526Y-67.056
X98.564Y-116.015
X98.603Y-117.373
X98.663Y-114.707
X98.73Y-113.399
X98.904Y-112.091
X98.935Y-122.613
X99.288Y-68.961
X99.568Y-106.807
X99.611Y-118.579
X99.625Y-79.756
X99.698Y-112.992
X99.713Y-111.568
X99.754Y-114.357
X100.076Y-104.915
X100.076Y-105.918
X100.099Y-117.226
X100.112Y-110.039
X100.126Y-67.056
X100.319Y-123.395
X100.33Y-78.105
X100.33Y-98.298
X100.378Y-124.412
X100.542Y-122.347
X100.584Y-76.581
X100.888Y-68.961
X101.101Y-109.869
X101.322Y-116.589
X101.346Y-108.077
X101.478Y-114.152
X101.726Y-67.056
X101.981Y-107.188
X102.108Y-106.045
X102.132Y-111.921
X102.235Y-97.79
X102.413Y-122.403
X102.488Y-68.961
X102.639Y-124.412
X102.956Y-115.313
X103.302Y-103.784
X103.778Y-114.152
X104.394Y-108.331
X104.394Y-122.174
X104.394Y-124.46
X104.451Y-123.386
X104.518Y-109.338
X104.546Y-110.922
X104.62Y-115.285
X104.708Y-126.887
X104.817Y-111.835
X104.96Y-117.626
X105.091Y-113.754
X105.242Y-109.967
X105.791Y-127.381
X106.063Y-114.324
X106.172Y-65.913
X106.172Y-70.713
X106.172Y-72.313
X106.172Y-117.626
X106.399Y-123.64
X106.407Y-83.792
X106.436Y-124.792
X106.655Y-106.845
X106.985Y-108.229
X107.061Y-95.885
X107.315Y-80.137
X107.315Y-85.979
X107.569Y-87.503
X108.11Y-108.997
X108.124Y-121.992
X108.172Y-65.913
X108.172Y-67.513
X108.172Y-69.113
X108.172Y-70.713
X108.172Y-72.313
X108.331Y-82.55
X108.458Y-77.724
X108.458Y-85.344
X108.458Y-91.897
X108.483Y-120.777
X108.814Y-117.626
X109.095Y-109.27
X109.22Y-83.185
X109.347Y-97.663
X109.881Y-109.849
X109.972Y-113.444
X109.982Y-80.391
X109.982Y-86.106
X110.134Y-104.851
X110.169Y-115.584
X110.172Y-65.913
X110.172Y-67.513
X110.172Y-69.113
X110.172Y-70.713
X110.172Y-72.313
X110.359Y-117.466
X110.374Y-116.514
X110.436Y-114.276
X110.795Y-123.393
X110.896Y-109.753
X111.362Y-115.383
X111.94Y-117.019
X112.014Y-77.47
X112.166Y-122.123
X112.903Y-128.016
X113.665Y-73.914
X113.792Y-92.329
X113.792Y-102.616
X113.792Y-104.521
X114.03Y-127.515
X114.427Y-84.074
X114.681Y-83.058
X114.695Y-109.332
X114.808Y-73.152
X114.949Y-119.716
X115.067Y-116.696
X115.316Y-96.901
X115.316Y-107.721
X116.034Y-112.957
X116.039Y-116.307
X116.184Y-121.996
X116.205Y-82.423
X116.205Y-89.916
X116.859Y-104.778
X116.967Y-131.191
X116.977Y-114.656
X117.123Y-116.131
X117.161Y-118.355
X117.221Y-90.297
X117.221Y-96.901
X117.385Y-117.047
X117.602Y-103.251
X117.95Y-78.097
X118.174Y-105.537
X118.597Y-110.511
X118.618Y-90.17
X118.923Y-123.419
X119.126Y-111.303
X119.507Y-97.123
X119.507Y-105.791
X119.507Y-127.762
X119.634Y-75.692
X119.786Y-122.072
X120.038Y-110.955
X120.079Y-108.299
X120.142Y-90.043
X120.142Y-102.362
X120.17Y-83.919
X120.193Y-117.5
X120.269Y-109.601
X120.361Y-98.022
X120.447Y-71.367
X120.599Y-57.963
X120.885Y-104.032
X120.904Y-82.55
X121.27Y-114.497
X121.285Y-101.727
X121.381Y-99.714
X121.412Y-97.155
X121.752Y-84.242
X121.757Y-70.667
X121.793Y-103.251
X121.801Y-122.981
X121.92Y-76.708
X122.047Y-106.045
X122.174Y-99.06
X122.349Y-78.176
X122.816Y-114.177
X122.926Y-76.023
X123.063Y-91.567
X123.195Y-100.716
X123.444Y-97.028
X123.647Y-122.072
X123.952Y-131.445
X123.957Y-99.954
X124.79Y-56.718
X125.349Y-76.073
X125.577Y-107.36
X125.603Y-85.598
X125.701Y-111.474
X125.73Y-88.646
X125.857Y-90.17
X125.882Y-58.064
X126.035Y-112.776
X126.34Y-116.84
X126.492Y-128.27
X126.873Y-94.361
X127.0Y-73.152
X127.127Y-82.296
X127.381Y-75.184
X127.406Y-122.072
X128.651Y-86.487
X129.413Y-85.217
X129.51Y-80.137
X129.515Y-83.845
X129.521Y-81.28
X130.283Y-82.423
X130.937Y-70.485
X131.216Y-122.072
X131.318Y-85.217
X131.896Y-89.281
X127.483Y-109.429
X127.483Y-111.804
X129.54Y-108.242
X129.54Y-112.992
X131.597Y-109.429
X131.597Y-111.804
X51.943Y-134.812
X51.943Y-137.188
X54.0Y-133.625
X54.0Y-138.375
X56.057Y-134.812
X56.057Y-137.188
X101.626Y-90.227
X101.626Y-92.602
X103.683Y-89.04
X103.683Y-93.79
X105.74Y-90.227
X105.74Y-92.602
X51.943Y-52.812
X51.943Y-55.188
X54.0Y-51.625
X54.0Y-56.375
X56.057Y-52.812
X56.057Y-55.188
T2
X74.168Y-51.689
X74.295Y-52.959
X76.962Y-53.34
X78.359Y-53.467
X78.359Y-54.864
X84.201Y-56.007
X86.487Y-56.007
X91.567Y-112.649
X94.996Y-116.713
X97.15Y-130.937
X98.358Y-83.506
X99.949Y-127.381
X103.759Y-131.064
X106.299Y-76.708
X109.855Y-76.708
X110.49Y-131.064
X111.379Y-76.708
X122.438Y-95.178
X123.952Y-92.583
X128.143Y-105.029
X129.032Y-95.504
X129.423Y-99.822
X130.048Y-106.299
X131.842Y-102.878
T3
X63.652Y-96.469
X123.508Y-109.792
T4
X74.93Y-67.818
X76.327Y-67.691
X82.829Y-90.678
X88.994Y-89.695
X98.358Y-85.207
X104.267Y-64.135
X104.445Y-105.359
X104.771Y-97.425
X105.029Y-61.468
X105.537Y-64.135
X109.347Y-63.754
X114.681Y-69.342
X114.681Y-70.612
X114.935Y-78.74
X123.817Y-79.002
X127.894Y-77.906
X131.191Y-77.851
X86.798Y-54.305
X89.338Y-56.845
X91.878Y-54.305
T5
X76.089Y-69.977
X76.089Y-85.217
X78.629Y-69.977
X78.629Y-85.217
X81.169Y-69.977
X81.169Y-85.217
X83.709Y-69.977
X83.709Y-85.217
X86.249Y-69.977
X86.249Y-85.217
X76.089Y-120.65
X76.089Y-135.89
X78.629Y-120.65
X78.629Y-135.89
X81.169Y-120.65
X81.169Y-135.89
X83.709Y-120.65
X83.709Y-135.89
X86.249Y-120.65
X86.249Y-135.89
T6
X118.376Y-64.262
X119.646Y-66.802
X120.916Y-64.262
X122.186Y-66.802
X123.456Y-64.262
X124.726Y-66.802
X125.996Y-64.262
X127.266Y-66.802
T7
X54.966Y-89.687
X57.506Y-89.687
X54.642Y-97.703
X54.642Y-102.703
X56.642Y-97.703
X56.642Y-102.703
X58.642Y-97.703
X58.642Y-102.703
X54.976Y-111.246
X54.976Y-129.546
X57.476Y-111.246
X57.476Y-129.546
X59.976Y-111.246
X59.976Y-129.546
X62.476Y-111.246
X62.476Y-129.546
X64.976Y-111.246
X64.976Y-129.546
X67.513Y-89.687
X70.053Y-89.687
X54.976Y-63.621
X54.976Y-81.921
X57.476Y-63.621
X57.476Y-81.921
X59.976Y-63.621
X59.976Y-81.921
X62.476Y-63.621
X62.476Y-81.921
X64.976Y-63.621
X64.976Y-81.921
X66.961Y-97.703
X66.961Y-102.703
X68.961Y-97.703
X68.961Y-102.703
X70.961Y-97.703
X70.961Y-102.703
T8
X93.218Y-73.279
X93.218Y-75.819
X93.218Y-78.359
X93.218Y-80.899
X93.218Y-83.439
X95.758Y-73.279
X95.758Y-75.819
X95.758Y-78.359
X95.758Y-80.899
X95.758Y-83.439
X89.504Y-137.16
X92.004Y-137.16
X94.504Y-137.16
X97.004Y-137.16
X99.504Y-137.16
X102.004Y-137.16
X104.504Y-137.16
X107.004Y-137.16
X113.38Y-137.16
X115.88Y-137.16
X118.38Y-137.16
X120.88Y-137.16
X123.38Y-137.16
X125.88Y-137.16
X128.38Y-137.16
X130.88Y-137.16
X106.934Y-111.658
X109.474Y-111.658
X112.014Y-111.658
X114.554Y-111.658
T9
X116.201Y-53.012
X118.741Y-53.012
X126.911Y-53.012
X129.451Y-53.012
T10
X97.409Y-56.642
X102.489Y-56.642
X107.569Y-56.642
X61.754Y-56.769
X66.834Y-56.769
T11
X115.081Y-60.962
X130.571Y-60.962
T12
X51.976Y-121.496
X67.976Y-121.496
X51.976Y-73.871
X67.976Y-73.871
T13
X129.54Y-110.617
X54.0Y-136.0
X103.683Y-91.415
X54.0Y-54.0
T0
M30
