%TF.GenerationSoftware,KiCad,Pcbnew,(5.1.4)-1*%
%TF.CreationDate,2019-11-01T19:47:46+08:00*%
%TF.ProjectId,AntennaSwitch_6x2,416e7465-6e6e-4615-9377-697463685f36,rev?*%
%TF.SameCoordinates,Original*%
%TF.FileFunction,Legend,Bot*%
%TF.FilePolarity,Positive*%
%FSLAX46Y46*%
G04 Gerber Fmt 4.6, Leading zero omitted, Abs format (unit mm)*
G04 Created by KiCad (PCBNEW (5.1.4)-1) date 2019-11-01 19:47:46*
%MOMM*%
%LPD*%
G04 APERTURE LIST*
%ADD10C,0.150000*%
%ADD11C,0.170000*%
%ADD12C,0.381000*%
%ADD13C,0.120000*%
%ADD14C,0.152400*%
G04 APERTURE END LIST*
D10*
X104798642Y-112990261D02*
X104655785Y-113037880D01*
X104417690Y-113037880D01*
X104322452Y-112990261D01*
X104274833Y-112942642D01*
X104227214Y-112847404D01*
X104227214Y-112752166D01*
X104274833Y-112656928D01*
X104322452Y-112609309D01*
X104417690Y-112561690D01*
X104608166Y-112514071D01*
X104703404Y-112466452D01*
X104751023Y-112418833D01*
X104798642Y-112323595D01*
X104798642Y-112228357D01*
X104751023Y-112133119D01*
X104703404Y-112085500D01*
X104608166Y-112037880D01*
X104370071Y-112037880D01*
X104227214Y-112085500D01*
X103893880Y-112037880D02*
X103655785Y-113037880D01*
X103465309Y-112323595D01*
X103274833Y-113037880D01*
X103036738Y-112037880D01*
X102655785Y-113037880D02*
X102655785Y-112037880D01*
X102417690Y-112037880D01*
X102274833Y-112085500D01*
X102179595Y-112180738D01*
X102131976Y-112275976D01*
X102084357Y-112466452D01*
X102084357Y-112609309D01*
X102131976Y-112799785D01*
X102179595Y-112895023D01*
X102274833Y-112990261D01*
X102417690Y-113037880D01*
X102655785Y-113037880D01*
X125699204Y-112632980D02*
X125699204Y-111632980D01*
X125461109Y-111632980D01*
X125318252Y-111680600D01*
X125223014Y-111775838D01*
X125175395Y-111871076D01*
X125127776Y-112061552D01*
X125127776Y-112204409D01*
X125175395Y-112394885D01*
X125223014Y-112490123D01*
X125318252Y-112585361D01*
X125461109Y-112632980D01*
X125699204Y-112632980D01*
X124318252Y-112585361D02*
X124413490Y-112632980D01*
X124603966Y-112632980D01*
X124699204Y-112585361D01*
X124746823Y-112490123D01*
X124746823Y-112109171D01*
X124699204Y-112013933D01*
X124603966Y-111966314D01*
X124413490Y-111966314D01*
X124318252Y-112013933D01*
X124270633Y-112109171D01*
X124270633Y-112204409D01*
X124746823Y-112299647D01*
X123889680Y-112585361D02*
X123794442Y-112632980D01*
X123603966Y-112632980D01*
X123508728Y-112585361D01*
X123461109Y-112490123D01*
X123461109Y-112442504D01*
X123508728Y-112347266D01*
X123603966Y-112299647D01*
X123746823Y-112299647D01*
X123842061Y-112252028D01*
X123889680Y-112156790D01*
X123889680Y-112109171D01*
X123842061Y-112013933D01*
X123746823Y-111966314D01*
X123603966Y-111966314D01*
X123508728Y-112013933D01*
X123032538Y-112632980D02*
X123032538Y-111966314D01*
X123032538Y-111632980D02*
X123080157Y-111680600D01*
X123032538Y-111728219D01*
X122984919Y-111680600D01*
X123032538Y-111632980D01*
X123032538Y-111728219D01*
X122127776Y-111966314D02*
X122127776Y-112775838D01*
X122175395Y-112871076D01*
X122223014Y-112918695D01*
X122318252Y-112966314D01*
X122461109Y-112966314D01*
X122556347Y-112918695D01*
X122127776Y-112585361D02*
X122223014Y-112632980D01*
X122413490Y-112632980D01*
X122508728Y-112585361D01*
X122556347Y-112537742D01*
X122603966Y-112442504D01*
X122603966Y-112156790D01*
X122556347Y-112061552D01*
X122508728Y-112013933D01*
X122413490Y-111966314D01*
X122223014Y-111966314D01*
X122127776Y-112013933D01*
X121651585Y-111966314D02*
X121651585Y-112632980D01*
X121651585Y-112061552D02*
X121603966Y-112013933D01*
X121508728Y-111966314D01*
X121365871Y-111966314D01*
X121270633Y-112013933D01*
X121223014Y-112109171D01*
X121223014Y-112632980D01*
X120365871Y-112585361D02*
X120461109Y-112632980D01*
X120651585Y-112632980D01*
X120746823Y-112585361D01*
X120794442Y-112490123D01*
X120794442Y-112109171D01*
X120746823Y-112013933D01*
X120651585Y-111966314D01*
X120461109Y-111966314D01*
X120365871Y-112013933D01*
X120318252Y-112109171D01*
X120318252Y-112204409D01*
X120794442Y-112299647D01*
X119461109Y-112632980D02*
X119461109Y-111632980D01*
X119461109Y-112585361D02*
X119556347Y-112632980D01*
X119746823Y-112632980D01*
X119842061Y-112585361D01*
X119889680Y-112537742D01*
X119937300Y-112442504D01*
X119937300Y-112156790D01*
X119889680Y-112061552D01*
X119842061Y-112013933D01*
X119746823Y-111966314D01*
X119556347Y-111966314D01*
X119461109Y-112013933D01*
X118223014Y-112632980D02*
X118223014Y-111632980D01*
X118223014Y-112013933D02*
X118127776Y-111966314D01*
X117937300Y-111966314D01*
X117842061Y-112013933D01*
X117794442Y-112061552D01*
X117746823Y-112156790D01*
X117746823Y-112442504D01*
X117794442Y-112537742D01*
X117842061Y-112585361D01*
X117937300Y-112632980D01*
X118127776Y-112632980D01*
X118223014Y-112585361D01*
X117413490Y-111966314D02*
X117175395Y-112632980D01*
X116937300Y-111966314D02*
X117175395Y-112632980D01*
X117270633Y-112871076D01*
X117318252Y-112918695D01*
X117413490Y-112966314D01*
X116556347Y-112537742D02*
X116508728Y-112585361D01*
X116556347Y-112632980D01*
X116603966Y-112585361D01*
X116556347Y-112537742D01*
X116556347Y-112632980D01*
X116556347Y-112013933D02*
X116508728Y-112061552D01*
X116556347Y-112109171D01*
X116603966Y-112061552D01*
X116556347Y-112013933D01*
X116556347Y-112109171D01*
X125223014Y-114282980D02*
X125699204Y-114282980D01*
X125699204Y-113282980D01*
X124461109Y-113616314D02*
X124461109Y-114282980D01*
X124889680Y-113616314D02*
X124889680Y-114140123D01*
X124842061Y-114235361D01*
X124746823Y-114282980D01*
X124603966Y-114282980D01*
X124508728Y-114235361D01*
X124461109Y-114187742D01*
X123937300Y-114235361D02*
X123937300Y-114282980D01*
X123984919Y-114378219D01*
X124032538Y-114425838D01*
X122842061Y-113282980D02*
X122175395Y-113282980D01*
X122842061Y-114282980D01*
X122175395Y-114282980D01*
X121413490Y-114235361D02*
X121508728Y-114282980D01*
X121699204Y-114282980D01*
X121794442Y-114235361D01*
X121842061Y-114140123D01*
X121842061Y-113759171D01*
X121794442Y-113663933D01*
X121699204Y-113616314D01*
X121508728Y-113616314D01*
X121413490Y-113663933D01*
X121365871Y-113759171D01*
X121365871Y-113854409D01*
X121842061Y-113949647D01*
X120937300Y-113616314D02*
X120937300Y-114282980D01*
X120937300Y-113711552D02*
X120889680Y-113663933D01*
X120794442Y-113616314D01*
X120651585Y-113616314D01*
X120556347Y-113663933D01*
X120508728Y-113759171D01*
X120508728Y-114282980D01*
X120032538Y-114282980D02*
X120032538Y-113616314D01*
X120032538Y-113282980D02*
X120080157Y-113330600D01*
X120032538Y-113378219D01*
X119984919Y-113330600D01*
X120032538Y-113282980D01*
X120032538Y-113378219D01*
X119556347Y-113616314D02*
X119556347Y-114282980D01*
X119556347Y-113711552D02*
X119508728Y-113663933D01*
X119413490Y-113616314D01*
X119270633Y-113616314D01*
X119175395Y-113663933D01*
X119127776Y-113759171D01*
X119127776Y-114282980D01*
X118223014Y-113616314D02*
X118223014Y-114425838D01*
X118270633Y-114521076D01*
X118318252Y-114568695D01*
X118413490Y-114616314D01*
X118556347Y-114616314D01*
X118651585Y-114568695D01*
X118223014Y-114235361D02*
X118318252Y-114282980D01*
X118508728Y-114282980D01*
X118603966Y-114235361D01*
X118651585Y-114187742D01*
X118699204Y-114092504D01*
X118699204Y-113806790D01*
X118651585Y-113711552D01*
X118603966Y-113663933D01*
X118508728Y-113616314D01*
X118318252Y-113616314D01*
X118223014Y-113663933D01*
X125365871Y-115409171D02*
X125223014Y-115456790D01*
X125175395Y-115504409D01*
X125127776Y-115599647D01*
X125127776Y-115742504D01*
X125175395Y-115837742D01*
X125223014Y-115885361D01*
X125318252Y-115932980D01*
X125699204Y-115932980D01*
X125699204Y-114932980D01*
X125365871Y-114932980D01*
X125270633Y-114980600D01*
X125223014Y-115028219D01*
X125175395Y-115123457D01*
X125175395Y-115218695D01*
X125223014Y-115313933D01*
X125270633Y-115361552D01*
X125365871Y-115409171D01*
X125699204Y-115409171D01*
X124699204Y-115932980D02*
X124699204Y-114932980D01*
X123794442Y-115266314D02*
X123794442Y-115932980D01*
X124032538Y-114885361D02*
X124270633Y-115599647D01*
X123651585Y-115599647D01*
X123365871Y-114932980D02*
X123127776Y-115932980D01*
X122937300Y-115218695D01*
X122746823Y-115932980D01*
X122508728Y-114932980D01*
X121937300Y-114932980D02*
X121746823Y-114932980D01*
X121651585Y-114980600D01*
X121556347Y-115075838D01*
X121508728Y-115266314D01*
X121508728Y-115599647D01*
X121556347Y-115790123D01*
X121651585Y-115885361D01*
X121746823Y-115932980D01*
X121937300Y-115932980D01*
X122032538Y-115885361D01*
X122127776Y-115790123D01*
X122175395Y-115599647D01*
X122175395Y-115266314D01*
X122127776Y-115075838D01*
X122032538Y-114980600D01*
X121937300Y-114932980D01*
X121080157Y-115932980D02*
X121080157Y-114932980D01*
X120699204Y-114932980D01*
X120603966Y-114980600D01*
X120556347Y-115028219D01*
X120508728Y-115123457D01*
X120508728Y-115266314D01*
X120556347Y-115361552D01*
X120603966Y-115409171D01*
X120699204Y-115456790D01*
X121080157Y-115456790D01*
X125746823Y-116678219D02*
X125699204Y-116630600D01*
X125603966Y-116582980D01*
X125365871Y-116582980D01*
X125270633Y-116630600D01*
X125223014Y-116678219D01*
X125175395Y-116773457D01*
X125175395Y-116868695D01*
X125223014Y-117011552D01*
X125794442Y-117582980D01*
X125175395Y-117582980D01*
X124556347Y-116582980D02*
X124461109Y-116582980D01*
X124365871Y-116630600D01*
X124318252Y-116678219D01*
X124270633Y-116773457D01*
X124223014Y-116963933D01*
X124223014Y-117202028D01*
X124270633Y-117392504D01*
X124318252Y-117487742D01*
X124365871Y-117535361D01*
X124461109Y-117582980D01*
X124556347Y-117582980D01*
X124651585Y-117535361D01*
X124699204Y-117487742D01*
X124746823Y-117392504D01*
X124794442Y-117202028D01*
X124794442Y-116963933D01*
X124746823Y-116773457D01*
X124699204Y-116678219D01*
X124651585Y-116630600D01*
X124556347Y-116582980D01*
X123270633Y-117582980D02*
X123842061Y-117582980D01*
X123556347Y-117582980D02*
X123556347Y-116582980D01*
X123651585Y-116725838D01*
X123746823Y-116821076D01*
X123842061Y-116868695D01*
X122794442Y-117582980D02*
X122603966Y-117582980D01*
X122508728Y-117535361D01*
X122461109Y-117487742D01*
X122365871Y-117344885D01*
X122318252Y-117154409D01*
X122318252Y-116773457D01*
X122365871Y-116678219D01*
X122413490Y-116630600D01*
X122508728Y-116582980D01*
X122699204Y-116582980D01*
X122794442Y-116630600D01*
X122842061Y-116678219D01*
X122889680Y-116773457D01*
X122889680Y-117011552D01*
X122842061Y-117106790D01*
X122794442Y-117154409D01*
X122699204Y-117202028D01*
X122508728Y-117202028D01*
X122413490Y-117154409D01*
X122365871Y-117106790D01*
X122318252Y-117011552D01*
X121889680Y-117487742D02*
X121842061Y-117535361D01*
X121889680Y-117582980D01*
X121937300Y-117535361D01*
X121889680Y-117487742D01*
X121889680Y-117582980D01*
X120889680Y-117582980D02*
X121461109Y-117582980D01*
X121175395Y-117582980D02*
X121175395Y-116582980D01*
X121270633Y-116725838D01*
X121365871Y-116821076D01*
X121461109Y-116868695D01*
X119937300Y-117582980D02*
X120508728Y-117582980D01*
X120223014Y-117582980D02*
X120223014Y-116582980D01*
X120318252Y-116725838D01*
X120413490Y-116821076D01*
X120508728Y-116868695D01*
X119508728Y-117487742D02*
X119461109Y-117535361D01*
X119508728Y-117582980D01*
X119556347Y-117535361D01*
X119508728Y-117487742D01*
X119508728Y-117582980D01*
X118842061Y-116582980D02*
X118746823Y-116582980D01*
X118651585Y-116630600D01*
X118603966Y-116678219D01*
X118556347Y-116773457D01*
X118508728Y-116963933D01*
X118508728Y-117202028D01*
X118556347Y-117392504D01*
X118603966Y-117487742D01*
X118651585Y-117535361D01*
X118746823Y-117582980D01*
X118842061Y-117582980D01*
X118937300Y-117535361D01*
X118984919Y-117487742D01*
X119032538Y-117392504D01*
X119080157Y-117202028D01*
X119080157Y-116963933D01*
X119032538Y-116773457D01*
X118984919Y-116678219D01*
X118937300Y-116630600D01*
X118842061Y-116582980D01*
X117556347Y-117582980D02*
X118127776Y-117582980D01*
X117842061Y-117582980D02*
X117842061Y-116582980D01*
X117937300Y-116725838D01*
X118032538Y-116821076D01*
X118127776Y-116868695D01*
D11*
X130032833Y-121327980D02*
X130223309Y-121327980D01*
X130318547Y-121375600D01*
X130366166Y-121423219D01*
X130461404Y-121566076D01*
X130509023Y-121756552D01*
X130509023Y-122137504D01*
X130461404Y-122232742D01*
X130413785Y-122280361D01*
X130318547Y-122327980D01*
X130128071Y-122327980D01*
X130032833Y-122280361D01*
X129985214Y-122232742D01*
X129937595Y-122137504D01*
X129937595Y-121899409D01*
X129985214Y-121804171D01*
X130032833Y-121756552D01*
X130128071Y-121708933D01*
X130318547Y-121708933D01*
X130413785Y-121756552D01*
X130461404Y-121804171D01*
X130509023Y-121899409D01*
X129604261Y-122327980D02*
X129080452Y-121661314D01*
X129604261Y-121661314D02*
X129080452Y-122327980D01*
X128747119Y-121423219D02*
X128699500Y-121375600D01*
X128604261Y-121327980D01*
X128366166Y-121327980D01*
X128270928Y-121375600D01*
X128223309Y-121423219D01*
X128175690Y-121518457D01*
X128175690Y-121613695D01*
X128223309Y-121756552D01*
X128794738Y-122327980D01*
X128175690Y-122327980D01*
X127032833Y-122042266D02*
X126556642Y-122042266D01*
X127128071Y-122327980D02*
X126794738Y-121327980D01*
X126461404Y-122327980D01*
X126128071Y-121661314D02*
X126128071Y-122327980D01*
X126128071Y-121756552D02*
X126080452Y-121708933D01*
X125985214Y-121661314D01*
X125842357Y-121661314D01*
X125747119Y-121708933D01*
X125699500Y-121804171D01*
X125699500Y-122327980D01*
X125366166Y-121661314D02*
X124985214Y-121661314D01*
X125223309Y-121327980D02*
X125223309Y-122185123D01*
X125175690Y-122280361D01*
X125080452Y-122327980D01*
X124985214Y-122327980D01*
X124270928Y-122280361D02*
X124366166Y-122327980D01*
X124556642Y-122327980D01*
X124651880Y-122280361D01*
X124699500Y-122185123D01*
X124699500Y-121804171D01*
X124651880Y-121708933D01*
X124556642Y-121661314D01*
X124366166Y-121661314D01*
X124270928Y-121708933D01*
X124223309Y-121804171D01*
X124223309Y-121899409D01*
X124699500Y-121994647D01*
X123794738Y-121661314D02*
X123794738Y-122327980D01*
X123794738Y-121756552D02*
X123747119Y-121708933D01*
X123651880Y-121661314D01*
X123509023Y-121661314D01*
X123413785Y-121708933D01*
X123366166Y-121804171D01*
X123366166Y-122327980D01*
X122889976Y-121661314D02*
X122889976Y-122327980D01*
X122889976Y-121756552D02*
X122842357Y-121708933D01*
X122747119Y-121661314D01*
X122604261Y-121661314D01*
X122509023Y-121708933D01*
X122461404Y-121804171D01*
X122461404Y-122327980D01*
X121556642Y-122327980D02*
X121556642Y-121804171D01*
X121604261Y-121708933D01*
X121699500Y-121661314D01*
X121889976Y-121661314D01*
X121985214Y-121708933D01*
X121556642Y-122280361D02*
X121651880Y-122327980D01*
X121889976Y-122327980D01*
X121985214Y-122280361D01*
X122032833Y-122185123D01*
X122032833Y-122089885D01*
X121985214Y-121994647D01*
X121889976Y-121947028D01*
X121651880Y-121947028D01*
X121556642Y-121899409D01*
X120366166Y-122280361D02*
X120223309Y-122327980D01*
X119985214Y-122327980D01*
X119889976Y-122280361D01*
X119842357Y-122232742D01*
X119794738Y-122137504D01*
X119794738Y-122042266D01*
X119842357Y-121947028D01*
X119889976Y-121899409D01*
X119985214Y-121851790D01*
X120175690Y-121804171D01*
X120270928Y-121756552D01*
X120318547Y-121708933D01*
X120366166Y-121613695D01*
X120366166Y-121518457D01*
X120318547Y-121423219D01*
X120270928Y-121375600D01*
X120175690Y-121327980D01*
X119937595Y-121327980D01*
X119794738Y-121375600D01*
X119461404Y-121661314D02*
X119270928Y-122327980D01*
X119080452Y-121851790D01*
X118889976Y-122327980D01*
X118699500Y-121661314D01*
X118318547Y-122327980D02*
X118318547Y-121661314D01*
X118318547Y-121327980D02*
X118366166Y-121375600D01*
X118318547Y-121423219D01*
X118270928Y-121375600D01*
X118318547Y-121327980D01*
X118318547Y-121423219D01*
X117985214Y-121661314D02*
X117604261Y-121661314D01*
X117842357Y-121327980D02*
X117842357Y-122185123D01*
X117794738Y-122280361D01*
X117699500Y-122327980D01*
X117604261Y-122327980D01*
X116842357Y-122280361D02*
X116937595Y-122327980D01*
X117128071Y-122327980D01*
X117223309Y-122280361D01*
X117270928Y-122232742D01*
X117318547Y-122137504D01*
X117318547Y-121851790D01*
X117270928Y-121756552D01*
X117223309Y-121708933D01*
X117128071Y-121661314D01*
X116937595Y-121661314D01*
X116842357Y-121708933D01*
X116413785Y-122327980D02*
X116413785Y-121327980D01*
X115985214Y-122327980D02*
X115985214Y-121804171D01*
X116032833Y-121708933D01*
X116128071Y-121661314D01*
X116270928Y-121661314D01*
X116366166Y-121708933D01*
X116413785Y-121756552D01*
X129889976Y-123902742D02*
X129937595Y-123950361D01*
X130080452Y-123997980D01*
X130175690Y-123997980D01*
X130318547Y-123950361D01*
X130413785Y-123855123D01*
X130461404Y-123759885D01*
X130509023Y-123569409D01*
X130509023Y-123426552D01*
X130461404Y-123236076D01*
X130413785Y-123140838D01*
X130318547Y-123045600D01*
X130175690Y-122997980D01*
X130080452Y-122997980D01*
X129937595Y-123045600D01*
X129889976Y-123093219D01*
X129318547Y-123997980D02*
X129413785Y-123950361D01*
X129461404Y-123902742D01*
X129509023Y-123807504D01*
X129509023Y-123521790D01*
X129461404Y-123426552D01*
X129413785Y-123378933D01*
X129318547Y-123331314D01*
X129175690Y-123331314D01*
X129080452Y-123378933D01*
X129032833Y-123426552D01*
X128985214Y-123521790D01*
X128985214Y-123807504D01*
X129032833Y-123902742D01*
X129080452Y-123950361D01*
X129175690Y-123997980D01*
X129318547Y-123997980D01*
X128556642Y-123331314D02*
X128556642Y-123997980D01*
X128556642Y-123426552D02*
X128509023Y-123378933D01*
X128413785Y-123331314D01*
X128270928Y-123331314D01*
X128175690Y-123378933D01*
X128128071Y-123474171D01*
X128128071Y-123997980D01*
X127794738Y-123331314D02*
X127413785Y-123331314D01*
X127651880Y-122997980D02*
X127651880Y-123855123D01*
X127604261Y-123950361D01*
X127509023Y-123997980D01*
X127413785Y-123997980D01*
X127080452Y-123997980D02*
X127080452Y-123331314D01*
X127080452Y-123521790D02*
X127032833Y-123426552D01*
X126985214Y-123378933D01*
X126889976Y-123331314D01*
X126794738Y-123331314D01*
X126318547Y-123997980D02*
X126413785Y-123950361D01*
X126461404Y-123902742D01*
X126509023Y-123807504D01*
X126509023Y-123521790D01*
X126461404Y-123426552D01*
X126413785Y-123378933D01*
X126318547Y-123331314D01*
X126175690Y-123331314D01*
X126080452Y-123378933D01*
X126032833Y-123426552D01*
X125985214Y-123521790D01*
X125985214Y-123807504D01*
X126032833Y-123902742D01*
X126080452Y-123950361D01*
X126175690Y-123997980D01*
X126318547Y-123997980D01*
X125413785Y-123997980D02*
X125509023Y-123950361D01*
X125556642Y-123855123D01*
X125556642Y-122997980D01*
X123937595Y-123474171D02*
X123794738Y-123521790D01*
X123747119Y-123569409D01*
X123699500Y-123664647D01*
X123699500Y-123807504D01*
X123747119Y-123902742D01*
X123794738Y-123950361D01*
X123889976Y-123997980D01*
X124270928Y-123997980D01*
X124270928Y-122997980D01*
X123937595Y-122997980D01*
X123842357Y-123045600D01*
X123794738Y-123093219D01*
X123747119Y-123188457D01*
X123747119Y-123283695D01*
X123794738Y-123378933D01*
X123842357Y-123426552D01*
X123937595Y-123474171D01*
X124270928Y-123474171D01*
X123128071Y-123997980D02*
X123223309Y-123950361D01*
X123270928Y-123902742D01*
X123318547Y-123807504D01*
X123318547Y-123521790D01*
X123270928Y-123426552D01*
X123223309Y-123378933D01*
X123128071Y-123331314D01*
X122985214Y-123331314D01*
X122889976Y-123378933D01*
X122842357Y-123426552D01*
X122794738Y-123521790D01*
X122794738Y-123807504D01*
X122842357Y-123902742D01*
X122889976Y-123950361D01*
X122985214Y-123997980D01*
X123128071Y-123997980D01*
X121937595Y-123997980D02*
X121937595Y-123474171D01*
X121985214Y-123378933D01*
X122080452Y-123331314D01*
X122270928Y-123331314D01*
X122366166Y-123378933D01*
X121937595Y-123950361D02*
X122032833Y-123997980D01*
X122270928Y-123997980D01*
X122366166Y-123950361D01*
X122413785Y-123855123D01*
X122413785Y-123759885D01*
X122366166Y-123664647D01*
X122270928Y-123617028D01*
X122032833Y-123617028D01*
X121937595Y-123569409D01*
X121461404Y-123997980D02*
X121461404Y-123331314D01*
X121461404Y-123521790D02*
X121413785Y-123426552D01*
X121366166Y-123378933D01*
X121270928Y-123331314D01*
X121175690Y-123331314D01*
X120413785Y-123997980D02*
X120413785Y-122997980D01*
X120413785Y-123950361D02*
X120509023Y-123997980D01*
X120699500Y-123997980D01*
X120794738Y-123950361D01*
X120842357Y-123902742D01*
X120889976Y-123807504D01*
X120889976Y-123521790D01*
X120842357Y-123426552D01*
X120794738Y-123378933D01*
X120699500Y-123331314D01*
X120509023Y-123331314D01*
X120413785Y-123378933D01*
X119318547Y-122997980D02*
X118985214Y-123997980D01*
X118651880Y-122997980D01*
X118128071Y-122997980D02*
X118032833Y-122997980D01*
X117937595Y-123045600D01*
X117889976Y-123093219D01*
X117842357Y-123188457D01*
X117794738Y-123378933D01*
X117794738Y-123617028D01*
X117842357Y-123807504D01*
X117889976Y-123902742D01*
X117937595Y-123950361D01*
X118032833Y-123997980D01*
X118128071Y-123997980D01*
X118223309Y-123950361D01*
X118270928Y-123902742D01*
X118318547Y-123807504D01*
X118366166Y-123617028D01*
X118366166Y-123378933D01*
X118318547Y-123188457D01*
X118270928Y-123093219D01*
X118223309Y-123045600D01*
X118128071Y-122997980D01*
X117366166Y-123902742D02*
X117318547Y-123950361D01*
X117366166Y-123997980D01*
X117413785Y-123950361D01*
X117366166Y-123902742D01*
X117366166Y-123997980D01*
X116937595Y-123093219D02*
X116889976Y-123045600D01*
X116794738Y-122997980D01*
X116556642Y-122997980D01*
X116461404Y-123045600D01*
X116413785Y-123093219D01*
X116366166Y-123188457D01*
X116366166Y-123283695D01*
X116413785Y-123426552D01*
X116985214Y-123997980D01*
X116366166Y-123997980D01*
X130556642Y-125001314D02*
X130366166Y-125667980D01*
X130175690Y-125191790D01*
X129985214Y-125667980D01*
X129794738Y-125001314D01*
X128699500Y-124620361D02*
X129556642Y-125906076D01*
X127032833Y-125572742D02*
X127080452Y-125620361D01*
X127223309Y-125667980D01*
X127318547Y-125667980D01*
X127461404Y-125620361D01*
X127556642Y-125525123D01*
X127604261Y-125429885D01*
X127651880Y-125239409D01*
X127651880Y-125096552D01*
X127604261Y-124906076D01*
X127556642Y-124810838D01*
X127461404Y-124715600D01*
X127318547Y-124667980D01*
X127223309Y-124667980D01*
X127080452Y-124715600D01*
X127032833Y-124763219D01*
X126604261Y-125667980D02*
X126604261Y-124667980D01*
X126223309Y-124667980D01*
X126128071Y-124715600D01*
X126080452Y-124763219D01*
X126032833Y-124858457D01*
X126032833Y-125001314D01*
X126080452Y-125096552D01*
X126128071Y-125144171D01*
X126223309Y-125191790D01*
X126604261Y-125191790D01*
X125128071Y-125667980D02*
X125604261Y-125667980D01*
X125604261Y-124667980D01*
X124794738Y-125667980D02*
X124794738Y-124667980D01*
X124556642Y-124667980D01*
X124413785Y-124715600D01*
X124318547Y-124810838D01*
X124270928Y-124906076D01*
X124223309Y-125096552D01*
X124223309Y-125239409D01*
X124270928Y-125429885D01*
X124318547Y-125525123D01*
X124413785Y-125620361D01*
X124556642Y-125667980D01*
X124794738Y-125667980D01*
X123032833Y-125667980D02*
X123032833Y-124667980D01*
X122556642Y-125001314D02*
X122556642Y-125667980D01*
X122556642Y-125096552D02*
X122509023Y-125048933D01*
X122413785Y-125001314D01*
X122270928Y-125001314D01*
X122175690Y-125048933D01*
X122128071Y-125144171D01*
X122128071Y-125667980D01*
X121794738Y-125001314D02*
X121413785Y-125001314D01*
X121651880Y-124667980D02*
X121651880Y-125525123D01*
X121604261Y-125620361D01*
X121509023Y-125667980D01*
X121413785Y-125667980D01*
X120699500Y-125620361D02*
X120794738Y-125667980D01*
X120985214Y-125667980D01*
X121080452Y-125620361D01*
X121128071Y-125525123D01*
X121128071Y-125144171D01*
X121080452Y-125048933D01*
X120985214Y-125001314D01*
X120794738Y-125001314D01*
X120699500Y-125048933D01*
X120651880Y-125144171D01*
X120651880Y-125239409D01*
X121128071Y-125334647D01*
X120223309Y-125667980D02*
X120223309Y-125001314D01*
X120223309Y-125191790D02*
X120175690Y-125096552D01*
X120128071Y-125048933D01*
X120032833Y-125001314D01*
X119937595Y-125001314D01*
X119461404Y-125667980D02*
X119556642Y-125620361D01*
X119604261Y-125525123D01*
X119604261Y-124667980D01*
X118937595Y-125667980D02*
X119032833Y-125620361D01*
X119080452Y-125572742D01*
X119128071Y-125477504D01*
X119128071Y-125191790D01*
X119080452Y-125096552D01*
X119032833Y-125048933D01*
X118937595Y-125001314D01*
X118794738Y-125001314D01*
X118699500Y-125048933D01*
X118651880Y-125096552D01*
X118604261Y-125191790D01*
X118604261Y-125477504D01*
X118651880Y-125572742D01*
X118699500Y-125620361D01*
X118794738Y-125667980D01*
X118937595Y-125667980D01*
X117747119Y-125620361D02*
X117842357Y-125667980D01*
X118032833Y-125667980D01*
X118128071Y-125620361D01*
X118175690Y-125572742D01*
X118223309Y-125477504D01*
X118223309Y-125191790D01*
X118175690Y-125096552D01*
X118128071Y-125048933D01*
X118032833Y-125001314D01*
X117842357Y-125001314D01*
X117747119Y-125048933D01*
X117318547Y-125667980D02*
X117318547Y-124667980D01*
X117223309Y-125287028D02*
X116937595Y-125667980D01*
X116937595Y-125001314D02*
X117318547Y-125382266D01*
D10*
X116458904Y-114498500D02*
X116554142Y-114450880D01*
X116697000Y-114450880D01*
X116839857Y-114498500D01*
X116935095Y-114593738D01*
X116982714Y-114688976D01*
X117030333Y-114879452D01*
X117030333Y-115022309D01*
X116982714Y-115212785D01*
X116935095Y-115308023D01*
X116839857Y-115403261D01*
X116697000Y-115450880D01*
X116601761Y-115450880D01*
X116458904Y-115403261D01*
X116411285Y-115355642D01*
X116411285Y-115022309D01*
X116601761Y-115022309D01*
X115982714Y-115450880D02*
X115982714Y-114450880D01*
X115411285Y-115450880D01*
X115411285Y-114450880D01*
X114935095Y-115450880D02*
X114935095Y-114450880D01*
X114697000Y-114450880D01*
X114554142Y-114498500D01*
X114458904Y-114593738D01*
X114411285Y-114688976D01*
X114363666Y-114879452D01*
X114363666Y-115022309D01*
X114411285Y-115212785D01*
X114458904Y-115308023D01*
X114554142Y-115403261D01*
X114697000Y-115450880D01*
X114935095Y-115450880D01*
X108029190Y-114450880D02*
X107410142Y-114450880D01*
X107743476Y-114831833D01*
X107600619Y-114831833D01*
X107505380Y-114879452D01*
X107457761Y-114927071D01*
X107410142Y-115022309D01*
X107410142Y-115260404D01*
X107457761Y-115355642D01*
X107505380Y-115403261D01*
X107600619Y-115450880D01*
X107886333Y-115450880D01*
X107981571Y-115403261D01*
X108029190Y-115355642D01*
X106981571Y-115355642D02*
X106933952Y-115403261D01*
X106981571Y-115450880D01*
X107029190Y-115403261D01*
X106981571Y-115355642D01*
X106981571Y-115450880D01*
X106600619Y-114450880D02*
X105981571Y-114450880D01*
X106314904Y-114831833D01*
X106172047Y-114831833D01*
X106076809Y-114879452D01*
X106029190Y-114927071D01*
X105981571Y-115022309D01*
X105981571Y-115260404D01*
X106029190Y-115355642D01*
X106076809Y-115403261D01*
X106172047Y-115450880D01*
X106457761Y-115450880D01*
X106553000Y-115403261D01*
X106600619Y-115355642D01*
X105695857Y-114450880D02*
X105362523Y-115450880D01*
X105029190Y-114450880D01*
X113180738Y-115355642D02*
X113228357Y-115403261D01*
X113371214Y-115450880D01*
X113466452Y-115450880D01*
X113609309Y-115403261D01*
X113704547Y-115308023D01*
X113752166Y-115212785D01*
X113799785Y-115022309D01*
X113799785Y-114879452D01*
X113752166Y-114688976D01*
X113704547Y-114593738D01*
X113609309Y-114498500D01*
X113466452Y-114450880D01*
X113371214Y-114450880D01*
X113228357Y-114498500D01*
X113180738Y-114546119D01*
X112275976Y-115450880D02*
X112752166Y-115450880D01*
X112752166Y-114450880D01*
X111942642Y-115450880D02*
X111942642Y-114450880D01*
X111371214Y-115450880D02*
X111799785Y-114879452D01*
X111371214Y-114450880D02*
X111942642Y-115022309D01*
X109934309Y-115450880D02*
X109934309Y-114450880D01*
X109267642Y-114450880D02*
X109077166Y-114450880D01*
X108981928Y-114498500D01*
X108886690Y-114593738D01*
X108839071Y-114784214D01*
X108839071Y-115117547D01*
X108886690Y-115308023D01*
X108981928Y-115403261D01*
X109077166Y-115450880D01*
X109267642Y-115450880D01*
X109362880Y-115403261D01*
X109458119Y-115308023D01*
X109505738Y-115117547D01*
X109505738Y-114784214D01*
X109458119Y-114593738D01*
X109362880Y-114498500D01*
X109267642Y-114450880D01*
X126174142Y-69397571D02*
X125840809Y-69397571D01*
X125697952Y-69921380D02*
X126174142Y-69921380D01*
X126174142Y-68921380D01*
X125697952Y-68921380D01*
X125412238Y-69254714D02*
X125031285Y-69254714D01*
X125269380Y-68921380D02*
X125269380Y-69778523D01*
X125221761Y-69873761D01*
X125126523Y-69921380D01*
X125031285Y-69921380D01*
X124697952Y-69921380D02*
X124697952Y-68921380D01*
X124269380Y-69921380D02*
X124269380Y-69397571D01*
X124317000Y-69302333D01*
X124412238Y-69254714D01*
X124555095Y-69254714D01*
X124650333Y-69302333D01*
X124697952Y-69349952D01*
X123412238Y-69873761D02*
X123507476Y-69921380D01*
X123697952Y-69921380D01*
X123793190Y-69873761D01*
X123840809Y-69778523D01*
X123840809Y-69397571D01*
X123793190Y-69302333D01*
X123697952Y-69254714D01*
X123507476Y-69254714D01*
X123412238Y-69302333D01*
X123364619Y-69397571D01*
X123364619Y-69492809D01*
X123840809Y-69588047D01*
X122936047Y-69921380D02*
X122936047Y-69254714D01*
X122936047Y-69445190D02*
X122888428Y-69349952D01*
X122840809Y-69302333D01*
X122745571Y-69254714D01*
X122650333Y-69254714D01*
X122317000Y-69254714D02*
X122317000Y-69921380D01*
X122317000Y-69349952D02*
X122269380Y-69302333D01*
X122174142Y-69254714D01*
X122031285Y-69254714D01*
X121936047Y-69302333D01*
X121888428Y-69397571D01*
X121888428Y-69921380D01*
X121031285Y-69873761D02*
X121126523Y-69921380D01*
X121317000Y-69921380D01*
X121412238Y-69873761D01*
X121459857Y-69778523D01*
X121459857Y-69397571D01*
X121412238Y-69302333D01*
X121317000Y-69254714D01*
X121126523Y-69254714D01*
X121031285Y-69302333D01*
X120983666Y-69397571D01*
X120983666Y-69492809D01*
X121459857Y-69588047D01*
X120697952Y-69254714D02*
X120317000Y-69254714D01*
X120555095Y-68921380D02*
X120555095Y-69778523D01*
X120507476Y-69873761D01*
X120412238Y-69921380D01*
X120317000Y-69921380D01*
X107561071Y-60317071D02*
X107418214Y-60364690D01*
X107370595Y-60412309D01*
X107322976Y-60507547D01*
X107322976Y-60650404D01*
X107370595Y-60745642D01*
X107418214Y-60793261D01*
X107513452Y-60840880D01*
X107894404Y-60840880D01*
X107894404Y-59840880D01*
X107561071Y-59840880D01*
X107465833Y-59888500D01*
X107418214Y-59936119D01*
X107370595Y-60031357D01*
X107370595Y-60126595D01*
X107418214Y-60221833D01*
X107465833Y-60269452D01*
X107561071Y-60317071D01*
X107894404Y-60317071D01*
X97583595Y-60618666D02*
X97107404Y-60618666D01*
X97678833Y-60904380D02*
X97345500Y-59904380D01*
X97012166Y-60904380D01*
X103314404Y-60237714D02*
X103314404Y-60904380D01*
X103552500Y-59856761D02*
X103790595Y-60571047D01*
X103171547Y-60571047D01*
X102647738Y-60332952D02*
X102742976Y-60285333D01*
X102790595Y-60237714D01*
X102838214Y-60142476D01*
X102838214Y-60094857D01*
X102790595Y-59999619D01*
X102742976Y-59952000D01*
X102647738Y-59904380D01*
X102457261Y-59904380D01*
X102362023Y-59952000D01*
X102314404Y-59999619D01*
X102266785Y-60094857D01*
X102266785Y-60142476D01*
X102314404Y-60237714D01*
X102362023Y-60285333D01*
X102457261Y-60332952D01*
X102647738Y-60332952D01*
X102742976Y-60380571D01*
X102790595Y-60428190D01*
X102838214Y-60523428D01*
X102838214Y-60713904D01*
X102790595Y-60809142D01*
X102742976Y-60856761D01*
X102647738Y-60904380D01*
X102457261Y-60904380D01*
X102362023Y-60856761D01*
X102314404Y-60809142D01*
X102266785Y-60713904D01*
X102266785Y-60523428D01*
X102314404Y-60428190D01*
X102362023Y-60380571D01*
X102457261Y-60332952D01*
X101362023Y-59904380D02*
X101838214Y-59904380D01*
X101885833Y-60380571D01*
X101838214Y-60332952D01*
X101742976Y-60285333D01*
X101504880Y-60285333D01*
X101409642Y-60332952D01*
X101362023Y-60380571D01*
X101314404Y-60475809D01*
X101314404Y-60713904D01*
X101362023Y-60809142D01*
X101409642Y-60856761D01*
X101504880Y-60904380D01*
X101742976Y-60904380D01*
X101838214Y-60856761D01*
X101885833Y-60809142D01*
X94495357Y-61364880D02*
X94971547Y-61364880D01*
X95019166Y-61841071D01*
X94971547Y-61793452D01*
X94876309Y-61745833D01*
X94638214Y-61745833D01*
X94542976Y-61793452D01*
X94495357Y-61841071D01*
X94447738Y-61936309D01*
X94447738Y-62174404D01*
X94495357Y-62269642D01*
X94542976Y-62317261D01*
X94638214Y-62364880D01*
X94876309Y-62364880D01*
X94971547Y-62317261D01*
X95019166Y-62269642D01*
X93828690Y-61364880D02*
X93733452Y-61364880D01*
X93638214Y-61412500D01*
X93590595Y-61460119D01*
X93542976Y-61555357D01*
X93495357Y-61745833D01*
X93495357Y-61983928D01*
X93542976Y-62174404D01*
X93590595Y-62269642D01*
X93638214Y-62317261D01*
X93733452Y-62364880D01*
X93828690Y-62364880D01*
X93923928Y-62317261D01*
X93971547Y-62269642D01*
X94019166Y-62174404D01*
X94066785Y-61983928D01*
X94066785Y-61745833D01*
X94019166Y-61555357D01*
X93971547Y-61460119D01*
X93923928Y-61412500D01*
X93828690Y-61364880D01*
X92876309Y-61364880D02*
X92781071Y-61364880D01*
X92685833Y-61412500D01*
X92638214Y-61460119D01*
X92590595Y-61555357D01*
X92542976Y-61745833D01*
X92542976Y-61983928D01*
X92590595Y-62174404D01*
X92638214Y-62269642D01*
X92685833Y-62317261D01*
X92781071Y-62364880D01*
X92876309Y-62364880D01*
X92971547Y-62317261D01*
X93019166Y-62269642D01*
X93066785Y-62174404D01*
X93114404Y-61983928D01*
X93114404Y-61745833D01*
X93066785Y-61555357D01*
X93019166Y-61460119D01*
X92971547Y-61412500D01*
X92876309Y-61364880D01*
X92114404Y-62364880D02*
X92114404Y-61364880D01*
X92019166Y-61983928D02*
X91733452Y-62364880D01*
X91733452Y-61698214D02*
X92114404Y-62079166D01*
X91304880Y-62364880D02*
X91304880Y-61364880D01*
X91304880Y-61841071D02*
X90733452Y-61841071D01*
X90733452Y-62364880D02*
X90733452Y-61364880D01*
X90352500Y-61698214D02*
X89828690Y-61698214D01*
X90352500Y-62364880D01*
X89828690Y-62364880D01*
X89447738Y-61983928D02*
X88685833Y-61983928D01*
X88257261Y-61460119D02*
X88209642Y-61412500D01*
X88114404Y-61364880D01*
X87876309Y-61364880D01*
X87781071Y-61412500D01*
X87733452Y-61460119D01*
X87685833Y-61555357D01*
X87685833Y-61650595D01*
X87733452Y-61793452D01*
X88304880Y-62364880D01*
X87685833Y-62364880D01*
X87257261Y-62364880D02*
X87257261Y-61364880D01*
X86923928Y-62079166D01*
X86590595Y-61364880D01*
X86590595Y-62364880D01*
X86114404Y-62364880D02*
X86114404Y-61364880D01*
X86114404Y-61841071D02*
X85542976Y-61841071D01*
X85542976Y-62364880D02*
X85542976Y-61364880D01*
X85162023Y-61698214D02*
X84638214Y-61698214D01*
X85162023Y-62364880D01*
X84638214Y-62364880D01*
X91154000Y-60396428D02*
X90392095Y-60396428D01*
X90773047Y-60777380D02*
X90773047Y-60015476D01*
X89582571Y-60253571D02*
X89915904Y-60253571D01*
X89915904Y-60777380D02*
X89915904Y-59777380D01*
X89439714Y-59777380D01*
X89058761Y-60777380D02*
X89058761Y-60110714D01*
X89058761Y-60301190D02*
X89011142Y-60205952D01*
X88963523Y-60158333D01*
X88868285Y-60110714D01*
X88773047Y-60110714D01*
X88058761Y-60729761D02*
X88154000Y-60777380D01*
X88344476Y-60777380D01*
X88439714Y-60729761D01*
X88487333Y-60634523D01*
X88487333Y-60253571D01*
X88439714Y-60158333D01*
X88344476Y-60110714D01*
X88154000Y-60110714D01*
X88058761Y-60158333D01*
X88011142Y-60253571D01*
X88011142Y-60348809D01*
X88487333Y-60444047D01*
X87154000Y-60110714D02*
X87154000Y-61110714D01*
X87154000Y-60729761D02*
X87249238Y-60777380D01*
X87439714Y-60777380D01*
X87534952Y-60729761D01*
X87582571Y-60682142D01*
X87630190Y-60586904D01*
X87630190Y-60301190D01*
X87582571Y-60205952D01*
X87534952Y-60158333D01*
X87439714Y-60110714D01*
X87249238Y-60110714D01*
X87154000Y-60158333D01*
D11*
X90931998Y-59626501D02*
X90424000Y-59245500D01*
X90932000Y-59626500D02*
X90868500Y-58991500D01*
X90931450Y-59625177D02*
G75*
G03X87249000Y-59626500I-1840951J-763322D01*
G01*
D10*
X62166452Y-60269428D02*
X61404547Y-60269428D01*
X61785500Y-60650380D02*
X61785500Y-59888476D01*
X70008547Y-60269380D02*
X70579976Y-60269380D01*
X70294261Y-60269380D02*
X70294261Y-59269380D01*
X70389500Y-59412238D01*
X70484738Y-59507476D01*
X70579976Y-59555095D01*
X69627595Y-59364619D02*
X69579976Y-59317000D01*
X69484738Y-59269380D01*
X69246642Y-59269380D01*
X69151404Y-59317000D01*
X69103785Y-59364619D01*
X69056166Y-59459857D01*
X69056166Y-59555095D01*
X69103785Y-59697952D01*
X69675214Y-60269380D01*
X69056166Y-60269380D01*
X68770452Y-59269380D02*
X68437119Y-60269380D01*
X68103785Y-59269380D01*
X67770452Y-60269380D02*
X67770452Y-59269380D01*
X67532357Y-59269380D01*
X67389500Y-59317000D01*
X67294261Y-59412238D01*
X67246642Y-59507476D01*
X67199023Y-59697952D01*
X67199023Y-59840809D01*
X67246642Y-60031285D01*
X67294261Y-60126523D01*
X67389500Y-60221761D01*
X67532357Y-60269380D01*
X67770452Y-60269380D01*
X66199023Y-60174142D02*
X66246642Y-60221761D01*
X66389500Y-60269380D01*
X66484738Y-60269380D01*
X66627595Y-60221761D01*
X66722833Y-60126523D01*
X66770452Y-60031285D01*
X66818071Y-59840809D01*
X66818071Y-59697952D01*
X66770452Y-59507476D01*
X66722833Y-59412238D01*
X66627595Y-59317000D01*
X66484738Y-59269380D01*
X66389500Y-59269380D01*
X66246642Y-59317000D01*
X66199023Y-59364619D01*
X98958000Y-68209000D02*
X90018000Y-68209000D01*
X90018000Y-68209000D02*
X90018000Y-88509000D01*
X90018000Y-88509000D02*
X98958000Y-88509000D01*
X98958000Y-88509000D02*
X98958000Y-68209000D01*
X98958000Y-76134000D02*
X97658000Y-76134000D01*
X97658000Y-76134000D02*
X97658000Y-69409000D01*
X97658000Y-69409000D02*
X91318000Y-69409000D01*
X91318000Y-69409000D02*
X91318000Y-87309000D01*
X91318000Y-87309000D02*
X97658000Y-87309000D01*
X97658000Y-87309000D02*
X97658000Y-80584000D01*
X97658000Y-80584000D02*
X98958000Y-80584000D01*
X90018000Y-78109000D02*
X89818000Y-78109000D01*
X89818000Y-78109000D02*
X89818000Y-78609000D01*
X89818000Y-78609000D02*
X90018000Y-78609000D01*
X89918000Y-78109000D02*
X89918000Y-78609000D01*
X90018000Y-85589000D02*
X89818000Y-85589000D01*
X89818000Y-85589000D02*
X89818000Y-86089000D01*
X89818000Y-86089000D02*
X90018000Y-86089000D01*
X89918000Y-85589000D02*
X89918000Y-86089000D01*
X90018000Y-70629000D02*
X89818000Y-70629000D01*
X89818000Y-70629000D02*
X89818000Y-71129000D01*
X89818000Y-71129000D02*
X90018000Y-71129000D01*
X89918000Y-70629000D02*
X89918000Y-71129000D01*
X96358000Y-71079000D02*
X95158000Y-71079000D01*
X95158000Y-71079000D02*
X95758000Y-71679000D01*
X95758000Y-71679000D02*
X96358000Y-71079000D01*
D12*
X85838400Y-52805200D02*
X85838400Y-57805200D01*
X87838400Y-50805200D02*
X92838400Y-50805200D01*
X85838400Y-52805200D02*
X87838400Y-50805200D01*
X86838400Y-51305200D02*
G75*
G03X86838400Y-51305200I-500000J0D01*
G01*
X85838400Y-57805200D02*
X92838400Y-57805200D01*
X92838400Y-57805200D02*
X92838400Y-50805200D01*
D13*
X58134000Y-58849000D02*
X58134000Y-46689000D01*
X58134000Y-46689000D02*
X70454000Y-46689000D01*
X70454000Y-46689000D02*
X70454000Y-58849000D01*
X70454000Y-58849000D02*
X58134000Y-58849000D01*
X58134000Y-48189000D02*
X58134000Y-49989000D01*
X58134000Y-49989000D02*
X70454000Y-49989000D01*
X70454000Y-49989000D02*
X70454000Y-48189000D01*
X70454000Y-48189000D02*
X58134000Y-48189000D01*
X60754000Y-46689000D02*
X62754000Y-46689000D01*
X62754000Y-46689000D02*
X62504000Y-48189000D01*
X62504000Y-48189000D02*
X61004000Y-48189000D01*
X61004000Y-48189000D02*
X60754000Y-46689000D01*
X65834000Y-46689000D02*
X67834000Y-46689000D01*
X67834000Y-46689000D02*
X67584000Y-48189000D01*
X67584000Y-48189000D02*
X66084000Y-48189000D01*
X66084000Y-48189000D02*
X65834000Y-46689000D01*
X62054000Y-59649000D02*
X61754000Y-59049000D01*
X61754000Y-59049000D02*
X61454000Y-59649000D01*
X61454000Y-59649000D02*
X62054000Y-59649000D01*
X93789000Y-58722000D02*
X93789000Y-46562000D01*
X93789000Y-46562000D02*
X111189000Y-46562000D01*
X111189000Y-46562000D02*
X111189000Y-58722000D01*
X111189000Y-58722000D02*
X93789000Y-58722000D01*
X93789000Y-48062000D02*
X93789000Y-49862000D01*
X93789000Y-49862000D02*
X111189000Y-49862000D01*
X111189000Y-49862000D02*
X111189000Y-48062000D01*
X111189000Y-48062000D02*
X93789000Y-48062000D01*
X96409000Y-46562000D02*
X98409000Y-46562000D01*
X98409000Y-46562000D02*
X98159000Y-48062000D01*
X98159000Y-48062000D02*
X96659000Y-48062000D01*
X96659000Y-48062000D02*
X96409000Y-46562000D01*
X101489000Y-46562000D02*
X103489000Y-46562000D01*
X103489000Y-46562000D02*
X103239000Y-48062000D01*
X103239000Y-48062000D02*
X101739000Y-48062000D01*
X101739000Y-48062000D02*
X101489000Y-46562000D01*
X106569000Y-46562000D02*
X108569000Y-46562000D01*
X108569000Y-46562000D02*
X108319000Y-48062000D01*
X108319000Y-48062000D02*
X106819000Y-48062000D01*
X106819000Y-48062000D02*
X106569000Y-46562000D01*
X97709000Y-59522000D02*
X97409000Y-58922000D01*
X97409000Y-58922000D02*
X97109000Y-59522000D01*
X97109000Y-59522000D02*
X97709000Y-59522000D01*
X115884000Y-110328000D02*
X115884000Y-112988000D01*
X108204000Y-110328000D02*
X115884000Y-110328000D01*
X108204000Y-112988000D02*
X115884000Y-112988000D01*
X108204000Y-110328000D02*
X108204000Y-112988000D01*
X106934000Y-110328000D02*
X105604000Y-110328000D01*
X105604000Y-110328000D02*
X105604000Y-111658000D01*
X130876000Y-49992000D02*
X114776000Y-50012000D01*
X114776000Y-68592000D02*
X114776000Y-46992000D01*
X130876000Y-46992000D02*
X130876000Y-68592000D01*
X130876000Y-68592000D02*
X114776000Y-68592000D01*
X130876000Y-46992000D02*
X114776000Y-46992000D01*
X110830000Y-139610000D02*
X110830000Y-133660000D01*
X110830000Y-133660000D02*
X133430000Y-133660000D01*
X133430000Y-133660000D02*
X133430000Y-139610000D01*
X133430000Y-139610000D02*
X110830000Y-139610000D01*
X114130000Y-139610000D02*
X114130000Y-138860000D01*
X114130000Y-138860000D02*
X130130000Y-138860000D01*
X130130000Y-138860000D02*
X130130000Y-139610000D01*
X130130000Y-139610000D02*
X114130000Y-139610000D01*
X110830000Y-139610000D02*
X110830000Y-138860000D01*
X110830000Y-138860000D02*
X112630000Y-138860000D01*
X112630000Y-138860000D02*
X112630000Y-139610000D01*
X112630000Y-139610000D02*
X110830000Y-139610000D01*
X131630000Y-139610000D02*
X131630000Y-138860000D01*
X131630000Y-138860000D02*
X133430000Y-138860000D01*
X133430000Y-138860000D02*
X133430000Y-139610000D01*
X133430000Y-139610000D02*
X131630000Y-139610000D01*
X110830000Y-137360000D02*
X111580000Y-137360000D01*
X111580000Y-137360000D02*
X111580000Y-134410000D01*
X111580000Y-134410000D02*
X122130000Y-134410000D01*
X133430000Y-137360000D02*
X132680000Y-137360000D01*
X132680000Y-137360000D02*
X132680000Y-134410000D01*
X132680000Y-134410000D02*
X122130000Y-134410000D01*
X113030000Y-139910000D02*
X110530000Y-139910000D01*
X110530000Y-139910000D02*
X110530000Y-137410000D01*
X86954000Y-139610000D02*
X86954000Y-133660000D01*
X86954000Y-133660000D02*
X109554000Y-133660000D01*
X109554000Y-133660000D02*
X109554000Y-139610000D01*
X109554000Y-139610000D02*
X86954000Y-139610000D01*
X90254000Y-139610000D02*
X90254000Y-138860000D01*
X90254000Y-138860000D02*
X106254000Y-138860000D01*
X106254000Y-138860000D02*
X106254000Y-139610000D01*
X106254000Y-139610000D02*
X90254000Y-139610000D01*
X86954000Y-139610000D02*
X86954000Y-138860000D01*
X86954000Y-138860000D02*
X88754000Y-138860000D01*
X88754000Y-138860000D02*
X88754000Y-139610000D01*
X88754000Y-139610000D02*
X86954000Y-139610000D01*
X107754000Y-139610000D02*
X107754000Y-138860000D01*
X107754000Y-138860000D02*
X109554000Y-138860000D01*
X109554000Y-138860000D02*
X109554000Y-139610000D01*
X109554000Y-139610000D02*
X107754000Y-139610000D01*
X86954000Y-137360000D02*
X87704000Y-137360000D01*
X87704000Y-137360000D02*
X87704000Y-134410000D01*
X87704000Y-134410000D02*
X98254000Y-134410000D01*
X109554000Y-137360000D02*
X108804000Y-137360000D01*
X108804000Y-137360000D02*
X108804000Y-134410000D01*
X108804000Y-134410000D02*
X98254000Y-134410000D01*
X89154000Y-139910000D02*
X86654000Y-139910000D01*
X86654000Y-139910000D02*
X86654000Y-137410000D01*
D10*
X88210380Y-69945666D02*
X88924666Y-69945666D01*
X89067523Y-69898047D01*
X89162761Y-69802809D01*
X89210380Y-69659952D01*
X89210380Y-69564714D01*
X89210380Y-70945666D02*
X89210380Y-70374238D01*
X89210380Y-70659952D02*
X88210380Y-70659952D01*
X88353238Y-70564714D01*
X88448476Y-70469476D01*
X88496095Y-70374238D01*
D14*
X92719071Y-59145714D02*
X92973071Y-58782857D01*
X93154500Y-59145714D02*
X93154500Y-58383714D01*
X92864214Y-58383714D01*
X92791642Y-58420000D01*
X92755357Y-58456285D01*
X92719071Y-58528857D01*
X92719071Y-58637714D01*
X92755357Y-58710285D01*
X92791642Y-58746571D01*
X92864214Y-58782857D01*
X93154500Y-58782857D01*
X92501357Y-58383714D02*
X92247357Y-59145714D01*
X91993357Y-58383714D01*
X91340214Y-59145714D02*
X91775642Y-59145714D01*
X91557928Y-59145714D02*
X91557928Y-58383714D01*
X91630500Y-58492571D01*
X91703071Y-58565142D01*
X91775642Y-58601428D01*
D10*
X122463333Y-140112380D02*
X122463333Y-140826666D01*
X122510952Y-140969523D01*
X122606190Y-141064761D01*
X122749047Y-141112380D01*
X122844285Y-141112380D01*
X121558571Y-140445714D02*
X121558571Y-141112380D01*
X121796666Y-140064761D02*
X122034761Y-140779047D01*
X121415714Y-140779047D01*
X98587333Y-140112380D02*
X98587333Y-140826666D01*
X98634952Y-140969523D01*
X98730190Y-141064761D01*
X98873047Y-141112380D01*
X98968285Y-141112380D01*
X98206380Y-140112380D02*
X97587333Y-140112380D01*
X97920666Y-140493333D01*
X97777809Y-140493333D01*
X97682571Y-140540952D01*
X97634952Y-140588571D01*
X97587333Y-140683809D01*
X97587333Y-140921904D01*
X97634952Y-141017142D01*
X97682571Y-141064761D01*
X97777809Y-141112380D01*
X98063523Y-141112380D01*
X98158761Y-141064761D01*
X98206380Y-141017142D01*
M02*
