G04 Layer: BottomSilkscreenLayer*
G04 EasyEDA Pro v2.1.32.5533625a, 2023-09-11 21:51:51*
G04 Gerber Generator version 0.3*
G04 Scale: 100 percent, Rotated: No, Reflected: No *
G04 Dimensions in millimeters  *
G04 leading zeros omitted , absolute positions ,3 integer and 6 decimal *
G04 #@! TF.GenerationSoftware,KiCad,Pcbnew,(5.1.10)-1*
G04 #@! TF.CreationDate,2023-09-11T22:03:16+08:00*
G04 #@! TF.ProjectId,AntennaSwitch_6x2,416e7465-6e6e-4615-9377-697463685f36,rev?*
G04 #@! TF.SameCoordinates,Original*
G04 #@! TF.FileFunction,Soldermask,Top*
G04 #@! TF.FilePolarity,Negative*
%FSLAX46Y46*%
G04 Gerber Fmt 4.6, Leading zero omitted, Abs format (unit mm)*
G04 Created by KiCad (PCBNEW (5.1.10)-1) date 2023-09-11 22:03:16*
%MOMM*%
%LPD*%
G01*
G04 APERTURE LIST*
%ADD10C,3.102000*%
%ADD11C,2.002000*%
%ADD12C,1.702000*%
%ADD13O,1.802000X0.422000*%
%ADD14C,1.245000*%
%ADD15O,1.902000X0.382000*%
%ADD16O,0.382000X1.902000*%
%ADD17O,1.626000X2.626000*%
%ADD18C,0.902000*%
%ADD19C,6.102000*%
%ADD20C,1.802000*%
%ADD21O,2.182000X3.702000*%
%ADD22O,1.802000X1.802000*%
%ADD23C,2.102000*%
%ADD24C,3.552000*%
%ADD25C,3.352000*%
%ADD26C,1.852000*%
%ADD27C,1.902000*%
G04 APERTURE END LIST*
G36*
G01*
X69125001Y-123481000D02*
X68474999Y-123481000D01*
G75*
G02*
X68424000Y-123430001I0J50999D01*
G01*
X68424000Y-122369999D01*
G75*
G02*
X68474999Y-122319000I50999J0D01*
G01*
X69125001Y-122319000D01*
G75*
G02*
X69176000Y-122369999I0J-50999D01*
G01*
X69176000Y-123430001D01*
G75*
G02*
X69125001Y-123481000I-50999J0D01*
G01*
G37*
G36*
G01*
X71025001Y-123481000D02*
X70374999Y-123481000D01*
G75*
G02*
X70324000Y-123430001I0J50999D01*
G01*
X70324000Y-122369999D01*
G75*
G02*
X70374999Y-122319000I50999J0D01*
G01*
X71025001Y-122319000D01*
G75*
G02*
X71076000Y-122369999I0J-50999D01*
G01*
X71076000Y-123430001D01*
G75*
G02*
X71025001Y-123481000I-50999J0D01*
G01*
G37*
G36*
G01*
X71025001Y-125681000D02*
X70374999Y-125681000D01*
G75*
G02*
X70324000Y-125630001I0J50999D01*
G01*
X70324000Y-124569999D01*
G75*
G02*
X70374999Y-124519000I50999J0D01*
G01*
X71025001Y-124519000D01*
G75*
G02*
X71076000Y-124569999I0J-50999D01*
G01*
X71076000Y-125630001D01*
G75*
G02*
X71025001Y-125681000I-50999J0D01*
G01*
G37*
G36*
G01*
X70075001Y-125681000D02*
X69424999Y-125681000D01*
G75*
G02*
X69374000Y-125630001I0J50999D01*
G01*
X69374000Y-124569999D01*
G75*
G02*
X69424999Y-124519000I50999J0D01*
G01*
X70075001Y-124519000D01*
G75*
G02*
X70126000Y-124569999I0J-50999D01*
G01*
X70126000Y-125630001D01*
G75*
G02*
X70075001Y-125681000I-50999J0D01*
G01*
G37*
G36*
G01*
X69125001Y-125681000D02*
X68474999Y-125681000D01*
G75*
G02*
X68424000Y-125630001I0J50999D01*
G01*
X68424000Y-124569999D01*
G75*
G02*
X68474999Y-124519000I50999J0D01*
G01*
X69125001Y-124519000D01*
G75*
G02*
X69176000Y-124569999I0J-50999D01*
G01*
X69176000Y-125630001D01*
G75*
G02*
X69125001Y-125681000I-50999J0D01*
G01*
G37*
G36*
G01*
X100746000Y-142010000D02*
X100746000Y-142990000D01*
G75*
G02*
X100695000Y-143041000I-51000J0D01*
G01*
X99765000Y-143041000D01*
G75*
G02*
X99714000Y-142990000I0J51000D01*
G01*
X99714000Y-142010000D01*
G75*
G02*
X99765000Y-141959000I51000J0D01*
G01*
X100695000Y-141959000D01*
G75*
G02*
X100746000Y-142010000I0J-51000D01*
G01*
G37*
G36*
G01*
X102286000Y-142010000D02*
X102286000Y-142990000D01*
G75*
G02*
X102235000Y-143041000I-51000J0D01*
G01*
X101305000Y-143041000D01*
G75*
G02*
X101254000Y-142990000I0J51000D01*
G01*
X101254000Y-142010000D01*
G75*
G02*
X101305000Y-141959000I51000J0D01*
G01*
X102235000Y-141959000D01*
G75*
G02*
X102286000Y-142010000I0J-51000D01*
G01*
G37*
G36*
G01*
X105515000Y-139259000D02*
X106985000Y-139259000D01*
G75*
G02*
X107036000Y-139310000I0J-51000D01*
G01*
X107036000Y-140470000D01*
G75*
G02*
X106985000Y-140521000I-51000J0D01*
G01*
X105515000Y-140521000D01*
G75*
G02*
X105464000Y-140470000I0J51000D01*
G01*
X105464000Y-139310000D01*
G75*
G02*
X105515000Y-139259000I51000J0D01*
G01*
G37*
G36*
G01*
X105515000Y-137479000D02*
X106985000Y-137479000D01*
G75*
G02*
X107036000Y-137530000I0J-51000D01*
G01*
X107036000Y-138690000D01*
G75*
G02*
X106985000Y-138741000I-51000J0D01*
G01*
X105515000Y-138741000D01*
G75*
G02*
X105464000Y-138690000I0J51000D01*
G01*
X105464000Y-137530000D01*
G75*
G02*
X105515000Y-137479000I51000J0D01*
G01*
G37*
D10*
X110024000Y-121129000D03*
X126024000Y-121129000D03*
D11*
X123024000Y-113079000D03*
X120524000Y-113079000D03*
X118024000Y-113079000D03*
X115524000Y-113079000D03*
X113024000Y-113079000D03*
X113024000Y-131379000D03*
X115524000Y-131379000D03*
X118024000Y-131379000D03*
X120524000Y-131379000D03*
X123024000Y-131379000D03*
D10*
X110024001Y-73504000D03*
X126024001Y-73504000D03*
D11*
X123024001Y-65454000D03*
X120524001Y-65454000D03*
X118024001Y-65454000D03*
X115524001Y-65454000D03*
X113024001Y-65454000D03*
X113024001Y-83754000D03*
X115524001Y-83754000D03*
X118024001Y-83754000D03*
X120524001Y-83754000D03*
X123024001Y-83754000D03*
D12*
X113039000Y-97297000D03*
X111039000Y-97297000D03*
X109039000Y-97297000D03*
X113039000Y-92297000D03*
X111039000Y-92297000D03*
X109039000Y-92297000D03*
X125358000Y-97297000D03*
X123358000Y-97297000D03*
X121358000Y-97297000D03*
X125358000Y-92297000D03*
X123358000Y-92297000D03*
X121358000Y-92297000D03*
G36*
G01*
X102500000Y-132899000D02*
X104300000Y-132899000D01*
G75*
G02*
X104351000Y-132950000I0J-51000D01*
G01*
X104351000Y-135450000D01*
G75*
G02*
X104300000Y-135501000I-51000J0D01*
G01*
X102500000Y-135501000D01*
G75*
G02*
X102449000Y-135450000I0J51000D01*
G01*
X102449000Y-132950000D01*
G75*
G02*
X102500000Y-132899000I51000J0D01*
G01*
G37*
G36*
G01*
X102500000Y-128899000D02*
X104300000Y-128899000D01*
G75*
G02*
X104351000Y-128950000I0J-51000D01*
G01*
X104351000Y-131450000D01*
G75*
G02*
X104300000Y-131501000I-51000J0D01*
G01*
X102500000Y-131501000D01*
G75*
G02*
X102449000Y-131450000I0J51000D01*
G01*
X102449000Y-128950000D01*
G75*
G02*
X102500000Y-128899000I51000J0D01*
G01*
G37*
G36*
G01*
X119600000Y-61201000D02*
X118600000Y-61201000D01*
G75*
G02*
X118549000Y-61150000I0J51000D01*
G01*
X118549000Y-60150000D01*
G75*
G02*
X118600000Y-60099000I51000J0D01*
G01*
X119600000Y-60099000D01*
G75*
G02*
X119651000Y-60150000I0J-51000D01*
G01*
X119651000Y-61150000D01*
G75*
G02*
X119600000Y-61201000I-51000J0D01*
G01*
G37*
G36*
G01*
X119600000Y-63701000D02*
X118600000Y-63701000D01*
G75*
G02*
X118549000Y-63650000I0J51000D01*
G01*
X118549000Y-62650000D01*
G75*
G02*
X118600000Y-62599000I51000J0D01*
G01*
X119600000Y-62599000D01*
G75*
G02*
X119651000Y-62650000I0J-51000D01*
G01*
X119651000Y-63650000D01*
G75*
G02*
X119600000Y-63701000I-51000J0D01*
G01*
G37*
G36*
G01*
X116600000Y-61201000D02*
X115600000Y-61201000D01*
G75*
G02*
X115549000Y-61150000I0J51000D01*
G01*
X115549000Y-60150000D01*
G75*
G02*
X115600000Y-60099000I51000J0D01*
G01*
X116600000Y-60099000D01*
G75*
G02*
X116651000Y-60150000I0J-51000D01*
G01*
X116651000Y-61150000D01*
G75*
G02*
X116600000Y-61201000I-51000J0D01*
G01*
G37*
G36*
G01*
X116600000Y-63701000D02*
X115600000Y-63701000D01*
G75*
G02*
X115549000Y-63650000I0J51000D01*
G01*
X115549000Y-62650000D01*
G75*
G02*
X115600000Y-62599000I51000J0D01*
G01*
X116600000Y-62599000D01*
G75*
G02*
X116651000Y-62650000I0J-51000D01*
G01*
X116651000Y-63650000D01*
G75*
G02*
X116600000Y-63701000I-51000J0D01*
G01*
G37*
G36*
G01*
X113500000Y-61201000D02*
X112500000Y-61201000D01*
G75*
G02*
X112449000Y-61150000I0J51000D01*
G01*
X112449000Y-60150000D01*
G75*
G02*
X112500000Y-60099000I51000J0D01*
G01*
X113500000Y-60099000D01*
G75*
G02*
X113551000Y-60150000I0J-51000D01*
G01*
X113551000Y-61150000D01*
G75*
G02*
X113500000Y-61201000I-51000J0D01*
G01*
G37*
G36*
G01*
X113500000Y-63701000D02*
X112500000Y-63701000D01*
G75*
G02*
X112449000Y-63650000I0J51000D01*
G01*
X112449000Y-62650000D01*
G75*
G02*
X112500000Y-62599000I51000J0D01*
G01*
X113500000Y-62599000D01*
G75*
G02*
X113551000Y-62650000I0J-51000D01*
G01*
X113551000Y-63650000D01*
G75*
G02*
X113500000Y-63701000I-51000J0D01*
G01*
G37*
G36*
G01*
X110050000Y-86399000D02*
X111050000Y-86399000D01*
G75*
G02*
X111101000Y-86450000I0J-51000D01*
G01*
X111101000Y-87450000D01*
G75*
G02*
X111050000Y-87501000I-51000J0D01*
G01*
X110050000Y-87501000D01*
G75*
G02*
X109999000Y-87450000I0J51000D01*
G01*
X109999000Y-86450000D01*
G75*
G02*
X110050000Y-86399000I51000J0D01*
G01*
G37*
G36*
G01*
X110050000Y-83899000D02*
X111050000Y-83899000D01*
G75*
G02*
X111101000Y-83950000I0J-51000D01*
G01*
X111101000Y-84950000D01*
G75*
G02*
X111050000Y-85001000I-51000J0D01*
G01*
X110050000Y-85001000D01*
G75*
G02*
X109999000Y-84950000I0J51000D01*
G01*
X109999000Y-83950000D01*
G75*
G02*
X110050000Y-83899000I51000J0D01*
G01*
G37*
G36*
G01*
X114301000Y-86300000D02*
X114301000Y-87300000D01*
G75*
G02*
X114250000Y-87351000I-51000J0D01*
G01*
X113250000Y-87351000D01*
G75*
G02*
X113199000Y-87300000I0J51000D01*
G01*
X113199000Y-86300000D01*
G75*
G02*
X113250000Y-86249000I51000J0D01*
G01*
X114250000Y-86249000D01*
G75*
G02*
X114301000Y-86300000I0J-51000D01*
G01*
G37*
G36*
G01*
X116801000Y-86300000D02*
X116801000Y-87300000D01*
G75*
G02*
X116750000Y-87351000I-51000J0D01*
G01*
X115750000Y-87351000D01*
G75*
G02*
X115699000Y-87300000I0J51000D01*
G01*
X115699000Y-86300000D01*
G75*
G02*
X115750000Y-86249000I51000J0D01*
G01*
X116750000Y-86249000D01*
G75*
G02*
X116801000Y-86300000I0J-51000D01*
G01*
G37*
G36*
G01*
X120499000Y-87300000D02*
X120499000Y-86300000D01*
G75*
G02*
X120550000Y-86249000I51000J0D01*
G01*
X121550000Y-86249000D01*
G75*
G02*
X121601000Y-86300000I0J-51000D01*
G01*
X121601000Y-87300000D01*
G75*
G02*
X121550000Y-87351000I-51000J0D01*
G01*
X120550000Y-87351000D01*
G75*
G02*
X120499000Y-87300000I0J51000D01*
G01*
G37*
G36*
G01*
X117999000Y-87300000D02*
X117999000Y-86300000D01*
G75*
G02*
X118050000Y-86249000I51000J0D01*
G01*
X119050000Y-86249000D01*
G75*
G02*
X119101000Y-86300000I0J-51000D01*
G01*
X119101000Y-87300000D01*
G75*
G02*
X119050000Y-87351000I-51000J0D01*
G01*
X118050000Y-87351000D01*
G75*
G02*
X117999000Y-87300000I0J51000D01*
G01*
G37*
G36*
G01*
X120500000Y-108801000D02*
X119500000Y-108801000D01*
G75*
G02*
X119449000Y-108750000I0J51000D01*
G01*
X119449000Y-107750000D01*
G75*
G02*
X119500000Y-107699000I51000J0D01*
G01*
X120500000Y-107699000D01*
G75*
G02*
X120551000Y-107750000I0J-51000D01*
G01*
X120551000Y-108750000D01*
G75*
G02*
X120500000Y-108801000I-51000J0D01*
G01*
G37*
G36*
G01*
X120500000Y-111301000D02*
X119500000Y-111301000D01*
G75*
G02*
X119449000Y-111250000I0J51000D01*
G01*
X119449000Y-110250000D01*
G75*
G02*
X119500000Y-110199000I51000J0D01*
G01*
X120500000Y-110199000D01*
G75*
G02*
X120551000Y-110250000I0J-51000D01*
G01*
X120551000Y-111250000D01*
G75*
G02*
X120500000Y-111301000I-51000J0D01*
G01*
G37*
G36*
G01*
X118000000Y-108801000D02*
X117000000Y-108801000D01*
G75*
G02*
X116949000Y-108750000I0J51000D01*
G01*
X116949000Y-107750000D01*
G75*
G02*
X117000000Y-107699000I51000J0D01*
G01*
X118000000Y-107699000D01*
G75*
G02*
X118051000Y-107750000I0J-51000D01*
G01*
X118051000Y-108750000D01*
G75*
G02*
X118000000Y-108801000I-51000J0D01*
G01*
G37*
G36*
G01*
X118000000Y-111301000D02*
X117000000Y-111301000D01*
G75*
G02*
X116949000Y-111250000I0J51000D01*
G01*
X116949000Y-110250000D01*
G75*
G02*
X117000000Y-110199000I51000J0D01*
G01*
X118000000Y-110199000D01*
G75*
G02*
X118051000Y-110250000I0J-51000D01*
G01*
X118051000Y-111250000D01*
G75*
G02*
X118000000Y-111301000I-51000J0D01*
G01*
G37*
G36*
G01*
X115500000Y-108801000D02*
X114500000Y-108801000D01*
G75*
G02*
X114449000Y-108750000I0J51000D01*
G01*
X114449000Y-107750000D01*
G75*
G02*
X114500000Y-107699000I51000J0D01*
G01*
X115500000Y-107699000D01*
G75*
G02*
X115551000Y-107750000I0J-51000D01*
G01*
X115551000Y-108750000D01*
G75*
G02*
X115500000Y-108801000I-51000J0D01*
G01*
G37*
G36*
G01*
X115500000Y-111301000D02*
X114500000Y-111301000D01*
G75*
G02*
X114449000Y-111250000I0J51000D01*
G01*
X114449000Y-110250000D01*
G75*
G02*
X114500000Y-110199000I51000J0D01*
G01*
X115500000Y-110199000D01*
G75*
G02*
X115551000Y-110250000I0J-51000D01*
G01*
X115551000Y-111250000D01*
G75*
G02*
X115500000Y-111301000I-51000J0D01*
G01*
G37*
G36*
G01*
X90200000Y-127099000D02*
X91200000Y-127099000D01*
G75*
G02*
X91251000Y-127150000I0J-51000D01*
G01*
X91251000Y-128150000D01*
G75*
G02*
X91200000Y-128201000I-51000J0D01*
G01*
X90200000Y-128201000D01*
G75*
G02*
X90149000Y-128150000I0J51000D01*
G01*
X90149000Y-127150000D01*
G75*
G02*
X90200000Y-127099000I51000J0D01*
G01*
G37*
G36*
G01*
X90200000Y-124599000D02*
X91200000Y-124599000D01*
G75*
G02*
X91251000Y-124650000I0J-51000D01*
G01*
X91251000Y-125650000D01*
G75*
G02*
X91200000Y-125701000I-51000J0D01*
G01*
X90200000Y-125701000D01*
G75*
G02*
X90149000Y-125650000I0J51000D01*
G01*
X90149000Y-124650000D01*
G75*
G02*
X90200000Y-124599000I51000J0D01*
G01*
G37*
G36*
G01*
X87900000Y-127099000D02*
X88900000Y-127099000D01*
G75*
G02*
X88951000Y-127150000I0J-51000D01*
G01*
X88951000Y-128150000D01*
G75*
G02*
X88900000Y-128201000I-51000J0D01*
G01*
X87900000Y-128201000D01*
G75*
G02*
X87849000Y-128150000I0J51000D01*
G01*
X87849000Y-127150000D01*
G75*
G02*
X87900000Y-127099000I51000J0D01*
G01*
G37*
G36*
G01*
X87900000Y-124599000D02*
X88900000Y-124599000D01*
G75*
G02*
X88951000Y-124650000I0J-51000D01*
G01*
X88951000Y-125650000D01*
G75*
G02*
X88900000Y-125701000I-51000J0D01*
G01*
X87900000Y-125701000D01*
G75*
G02*
X87849000Y-125650000I0J51000D01*
G01*
X87849000Y-124650000D01*
G75*
G02*
X87900000Y-124599000I51000J0D01*
G01*
G37*
G36*
G01*
X91600000Y-113001000D02*
X90600000Y-113001000D01*
G75*
G02*
X90549000Y-112950000I0J51000D01*
G01*
X90549000Y-111950000D01*
G75*
G02*
X90600000Y-111899000I51000J0D01*
G01*
X91600000Y-111899000D01*
G75*
G02*
X91651000Y-111950000I0J-51000D01*
G01*
X91651000Y-112950000D01*
G75*
G02*
X91600000Y-113001000I-51000J0D01*
G01*
G37*
G36*
G01*
X91600000Y-115501000D02*
X90600000Y-115501000D01*
G75*
G02*
X90549000Y-115450000I0J51000D01*
G01*
X90549000Y-114450000D01*
G75*
G02*
X90600000Y-114399000I51000J0D01*
G01*
X91600000Y-114399000D01*
G75*
G02*
X91651000Y-114450000I0J-51000D01*
G01*
X91651000Y-115450000D01*
G75*
G02*
X91600000Y-115501000I-51000J0D01*
G01*
G37*
G36*
G01*
X94235000Y-131091000D02*
X92765000Y-131091000D01*
G75*
G02*
X92714000Y-131040000I0J51000D01*
G01*
X92714000Y-129880000D01*
G75*
G02*
X92765000Y-129829000I51000J0D01*
G01*
X94235000Y-129829000D01*
G75*
G02*
X94286000Y-129880000I0J-51000D01*
G01*
X94286000Y-131040000D01*
G75*
G02*
X94235000Y-131091000I-51000J0D01*
G01*
G37*
G36*
G01*
X94235000Y-132871000D02*
X92765000Y-132871000D01*
G75*
G02*
X92714000Y-132820000I0J51000D01*
G01*
X92714000Y-131660000D01*
G75*
G02*
X92765000Y-131609000I51000J0D01*
G01*
X94235000Y-131609000D01*
G75*
G02*
X94286000Y-131660000I0J-51000D01*
G01*
X94286000Y-132820000D01*
G75*
G02*
X94235000Y-132871000I-51000J0D01*
G01*
G37*
G36*
G01*
X116874000Y-135250000D02*
X116874000Y-133450000D01*
G75*
G02*
X116925000Y-133399000I51000J0D01*
G01*
X118055000Y-133399000D01*
G75*
G02*
X118106000Y-133450000I0J-51000D01*
G01*
X118106000Y-135250000D01*
G75*
G02*
X118055000Y-135301000I-51000J0D01*
G01*
X116925000Y-135301000D01*
G75*
G02*
X116874000Y-135250000I0J51000D01*
G01*
G37*
G36*
G01*
X113894000Y-135250000D02*
X113894000Y-133450000D01*
G75*
G02*
X113945000Y-133399000I51000J0D01*
G01*
X115075000Y-133399000D01*
G75*
G02*
X115126000Y-133450000I0J-51000D01*
G01*
X115126000Y-135250000D01*
G75*
G02*
X115075000Y-135301000I-51000J0D01*
G01*
X113945000Y-135301000D01*
G75*
G02*
X113894000Y-135250000I0J51000D01*
G01*
G37*
G36*
G01*
X105900000Y-133299000D02*
X107900000Y-133299000D01*
G75*
G02*
X107951000Y-133350000I0J-51000D01*
G01*
X107951000Y-135350000D01*
G75*
G02*
X107900000Y-135401000I-51000J0D01*
G01*
X105900000Y-135401000D01*
G75*
G02*
X105849000Y-135350000I0J51000D01*
G01*
X105849000Y-133350000D01*
G75*
G02*
X105900000Y-133299000I51000J0D01*
G01*
G37*
G36*
G01*
X110100000Y-133299000D02*
X112100000Y-133299000D01*
G75*
G02*
X112151000Y-133350000I0J-51000D01*
G01*
X112151000Y-135350000D01*
G75*
G02*
X112100000Y-135401000I-51000J0D01*
G01*
X110100000Y-135401000D01*
G75*
G02*
X110049000Y-135350000I0J51000D01*
G01*
X110049000Y-133350000D01*
G75*
G02*
X110100000Y-133299000I51000J0D01*
G01*
G37*
G36*
G01*
X110699000Y-90200000D02*
X110699000Y-89200000D01*
G75*
G02*
X110750000Y-89149000I51000J0D01*
G01*
X111750000Y-89149000D01*
G75*
G02*
X111801000Y-89200000I0J-51000D01*
G01*
X111801000Y-90200000D01*
G75*
G02*
X111750000Y-90251000I-51000J0D01*
G01*
X110750000Y-90251000D01*
G75*
G02*
X110699000Y-90200000I0J51000D01*
G01*
G37*
G36*
G01*
X108199000Y-90200000D02*
X108199000Y-89200000D01*
G75*
G02*
X108250000Y-89149000I51000J0D01*
G01*
X109250000Y-89149000D01*
G75*
G02*
X109301000Y-89200000I0J-51000D01*
G01*
X109301000Y-90200000D01*
G75*
G02*
X109250000Y-90251000I-51000J0D01*
G01*
X108250000Y-90251000D01*
G75*
G02*
X108199000Y-90200000I0J51000D01*
G01*
G37*
G36*
G01*
X120300999Y-89000000D02*
X120300999Y-90000000D01*
G75*
G02*
X120249999Y-90051000I-51000J0D01*
G01*
X119249999Y-90051000D01*
G75*
G02*
X119198999Y-90000000I0J51000D01*
G01*
X119198999Y-89000000D01*
G75*
G02*
X119249999Y-88949000I51000J0D01*
G01*
X120249999Y-88949000D01*
G75*
G02*
X120300999Y-89000000I0J-51000D01*
G01*
G37*
G36*
G01*
X122800999Y-89000000D02*
X122800999Y-90000000D01*
G75*
G02*
X122749999Y-90051000I-51000J0D01*
G01*
X121749999Y-90051000D01*
G75*
G02*
X121698999Y-90000000I0J51000D01*
G01*
X121698999Y-89000000D01*
G75*
G02*
X121749999Y-88949000I51000J0D01*
G01*
X122749999Y-88949000D01*
G75*
G02*
X122800999Y-89000000I0J-51000D01*
G01*
G37*
G36*
G01*
X99700000Y-137501000D02*
X98600000Y-137501000D01*
G75*
G02*
X98549000Y-137450000I0J51000D01*
G01*
X98549000Y-136850000D01*
G75*
G02*
X98600000Y-136799000I51000J0D01*
G01*
X99700000Y-136799000D01*
G75*
G02*
X99751000Y-136850000I0J-51000D01*
G01*
X99751000Y-137450000D01*
G75*
G02*
X99700000Y-137501000I-51000J0D01*
G01*
G37*
G36*
G01*
X99700000Y-138451000D02*
X98600000Y-138451000D01*
G75*
G02*
X98549000Y-138400000I0J51000D01*
G01*
X98549000Y-137800000D01*
G75*
G02*
X98600000Y-137749000I51000J0D01*
G01*
X99700000Y-137749000D01*
G75*
G02*
X99751000Y-137800000I0J-51000D01*
G01*
X99751000Y-138400000D01*
G75*
G02*
X99700000Y-138451000I-51000J0D01*
G01*
G37*
G36*
G01*
X99700000Y-139401000D02*
X98600000Y-139401000D01*
G75*
G02*
X98549000Y-139350000I0J51000D01*
G01*
X98549000Y-138750000D01*
G75*
G02*
X98600000Y-138699000I51000J0D01*
G01*
X99700000Y-138699000D01*
G75*
G02*
X99751000Y-138750000I0J-51000D01*
G01*
X99751000Y-139350000D01*
G75*
G02*
X99700000Y-139401000I-51000J0D01*
G01*
G37*
G36*
G01*
X96900000Y-139401000D02*
X95800000Y-139401000D01*
G75*
G02*
X95749000Y-139350000I0J51000D01*
G01*
X95749000Y-138750000D01*
G75*
G02*
X95800000Y-138699000I51000J0D01*
G01*
X96900000Y-138699000D01*
G75*
G02*
X96951000Y-138750000I0J-51000D01*
G01*
X96951000Y-139350000D01*
G75*
G02*
X96900000Y-139401000I-51000J0D01*
G01*
G37*
G36*
G01*
X96900000Y-138451000D02*
X95800000Y-138451000D01*
G75*
G02*
X95749000Y-138400000I0J51000D01*
G01*
X95749000Y-137800000D01*
G75*
G02*
X95800000Y-137749000I51000J0D01*
G01*
X96900000Y-137749000D01*
G75*
G02*
X96951000Y-137800000I0J-51000D01*
G01*
X96951000Y-138400000D01*
G75*
G02*
X96900000Y-138451000I-51000J0D01*
G01*
G37*
G36*
G01*
X96900000Y-137501000D02*
X95800000Y-137501000D01*
G75*
G02*
X95749000Y-137450000I0J51000D01*
G01*
X95749000Y-136850000D01*
G75*
G02*
X95800000Y-136799000I51000J0D01*
G01*
X96900000Y-136799000D01*
G75*
G02*
X96951000Y-136850000I0J-51000D01*
G01*
X96951000Y-137450000D01*
G75*
G02*
X96900000Y-137501000I-51000J0D01*
G01*
G37*
G36*
G01*
X113746001Y-89260000D02*
X113746001Y-90240000D01*
G75*
G02*
X113695001Y-90291000I-51000J0D01*
G01*
X112765001Y-90291000D01*
G75*
G02*
X112714001Y-90240000I0J51000D01*
G01*
X112714001Y-89260000D01*
G75*
G02*
X112765001Y-89209000I51000J0D01*
G01*
X113695001Y-89209000D01*
G75*
G02*
X113746001Y-89260000I0J-51000D01*
G01*
G37*
G36*
G01*
X115286001Y-89260000D02*
X115286001Y-90240000D01*
G75*
G02*
X115235001Y-90291000I-51000J0D01*
G01*
X114305001Y-90291000D01*
G75*
G02*
X114254001Y-90240000I0J51000D01*
G01*
X114254001Y-89260000D01*
G75*
G02*
X114305001Y-89209000I51000J0D01*
G01*
X115235001Y-89209000D01*
G75*
G02*
X115286001Y-89260000I0J-51000D01*
G01*
G37*
G36*
G01*
X124746000Y-89010000D02*
X124746000Y-89990000D01*
G75*
G02*
X124695000Y-90041000I-51000J0D01*
G01*
X123765000Y-90041000D01*
G75*
G02*
X123714000Y-89990000I0J51000D01*
G01*
X123714000Y-89010000D01*
G75*
G02*
X123765000Y-88959000I51000J0D01*
G01*
X124695000Y-88959000D01*
G75*
G02*
X124746000Y-89010000I0J-51000D01*
G01*
G37*
G36*
G01*
X126286000Y-89010000D02*
X126286000Y-89990000D01*
G75*
G02*
X126235000Y-90041000I-51000J0D01*
G01*
X125305000Y-90041000D01*
G75*
G02*
X125254000Y-89990000I0J51000D01*
G01*
X125254000Y-89010000D01*
G75*
G02*
X125305000Y-88959000I51000J0D01*
G01*
X126235000Y-88959000D01*
G75*
G02*
X126286000Y-89010000I0J-51000D01*
G01*
G37*
D13*
X55535000Y-81380000D03*
X55535000Y-80730000D03*
X55535000Y-80080000D03*
X55535000Y-79430000D03*
X55535000Y-78780000D03*
X55535000Y-78130000D03*
X55535000Y-77480000D03*
X61235000Y-77480000D03*
X61235000Y-78130000D03*
X61235000Y-78780000D03*
X61235000Y-79430000D03*
X61235000Y-80080000D03*
X61235000Y-80730000D03*
X61235000Y-81380000D03*
X66406000Y-81328999D03*
X66406000Y-80678999D03*
X66406000Y-80028999D03*
X66406000Y-79378999D03*
X66406000Y-78728999D03*
X66406000Y-78078999D03*
X66406000Y-77428999D03*
X72106000Y-77428999D03*
X72106000Y-78078999D03*
X72106000Y-78728999D03*
X72106000Y-79378999D03*
X72106000Y-80028999D03*
X72106000Y-80678999D03*
X72106000Y-81328999D03*
G36*
G01*
X47946000Y-75181000D02*
X47946000Y-76161000D01*
G75*
G02*
X47895000Y-76212000I-51000J0D01*
G01*
X46965000Y-76212000D01*
G75*
G02*
X46914000Y-76161000I0J51000D01*
G01*
X46914000Y-75181000D01*
G75*
G02*
X46965000Y-75130000I51000J0D01*
G01*
X47895000Y-75130000D01*
G75*
G02*
X47946000Y-75181000I0J-51000D01*
G01*
G37*
G36*
G01*
X49486000Y-75181000D02*
X49486000Y-76161000D01*
G75*
G02*
X49435000Y-76212000I-51000J0D01*
G01*
X48505000Y-76212000D01*
G75*
G02*
X48454000Y-76161000I0J51000D01*
G01*
X48454000Y-75181000D01*
G75*
G02*
X48505000Y-75130000I51000J0D01*
G01*
X49435000Y-75130000D01*
G75*
G02*
X49486000Y-75181000I0J-51000D01*
G01*
G37*
G36*
G01*
X51546000Y-75210000D02*
X51546000Y-76190000D01*
G75*
G02*
X51495000Y-76241000I-51000J0D01*
G01*
X50565000Y-76241000D01*
G75*
G02*
X50514000Y-76190000I0J51000D01*
G01*
X50514000Y-75210000D01*
G75*
G02*
X50565000Y-75159000I51000J0D01*
G01*
X51495000Y-75159000D01*
G75*
G02*
X51546000Y-75210000I0J-51000D01*
G01*
G37*
G36*
G01*
X53086000Y-75210000D02*
X53086000Y-76190000D01*
G75*
G02*
X53035000Y-76241000I-51000J0D01*
G01*
X52105000Y-76241000D01*
G75*
G02*
X52054000Y-76190000I0J51000D01*
G01*
X52054000Y-75210000D01*
G75*
G02*
X52105000Y-75159000I51000J0D01*
G01*
X53035000Y-75159000D01*
G75*
G02*
X53086000Y-75210000I0J-51000D01*
G01*
G37*
G36*
G01*
X55134000Y-75130000D02*
X55134000Y-76110000D01*
G75*
G02*
X55083000Y-76161000I-51000J0D01*
G01*
X54153000Y-76161000D01*
G75*
G02*
X54102000Y-76110000I0J51000D01*
G01*
X54102000Y-75130000D01*
G75*
G02*
X54153000Y-75079000I51000J0D01*
G01*
X55083000Y-75079000D01*
G75*
G02*
X55134000Y-75130000I0J-51000D01*
G01*
G37*
G36*
G01*
X56674000Y-75130000D02*
X56674000Y-76110000D01*
G75*
G02*
X56623000Y-76161000I-51000J0D01*
G01*
X55693000Y-76161000D01*
G75*
G02*
X55642000Y-76110000I0J51000D01*
G01*
X55642000Y-75130000D01*
G75*
G02*
X55693000Y-75079000I51000J0D01*
G01*
X56623000Y-75079000D01*
G75*
G02*
X56674000Y-75130000I0J-51000D01*
G01*
G37*
G36*
G01*
X58936000Y-75130000D02*
X58936000Y-76110000D01*
G75*
G02*
X58885000Y-76161000I-51000J0D01*
G01*
X57955000Y-76161000D01*
G75*
G02*
X57904000Y-76110000I0J51000D01*
G01*
X57904000Y-75130000D01*
G75*
G02*
X57955000Y-75079000I51000J0D01*
G01*
X58885000Y-75079000D01*
G75*
G02*
X58936000Y-75130000I0J-51000D01*
G01*
G37*
G36*
G01*
X60476000Y-75130000D02*
X60476000Y-76110000D01*
G75*
G02*
X60425000Y-76161000I-51000J0D01*
G01*
X59495000Y-76161000D01*
G75*
G02*
X59444000Y-76110000I0J51000D01*
G01*
X59444000Y-75130000D01*
G75*
G02*
X59495000Y-75079000I51000J0D01*
G01*
X60425000Y-75079000D01*
G75*
G02*
X60476000Y-75130000I0J-51000D01*
G01*
G37*
G36*
G01*
X62754000Y-75130000D02*
X62754000Y-76110000D01*
G75*
G02*
X62703000Y-76161000I-51000J0D01*
G01*
X61773000Y-76161000D01*
G75*
G02*
X61722000Y-76110000I0J51000D01*
G01*
X61722000Y-75130000D01*
G75*
G02*
X61773000Y-75079000I51000J0D01*
G01*
X62703000Y-75079000D01*
G75*
G02*
X62754000Y-75130000I0J-51000D01*
G01*
G37*
G36*
G01*
X64294000Y-75130000D02*
X64294000Y-76110000D01*
G75*
G02*
X64243000Y-76161000I-51000J0D01*
G01*
X63313000Y-76161000D01*
G75*
G02*
X63262000Y-76110000I0J51000D01*
G01*
X63262000Y-75130000D01*
G75*
G02*
X63313000Y-75079000I51000J0D01*
G01*
X64243000Y-75079000D01*
G75*
G02*
X64294000Y-75130000I0J-51000D01*
G01*
G37*
G36*
G01*
X66614000Y-75180999D02*
X66614000Y-76160999D01*
G75*
G02*
X66563000Y-76211999I-51000J0D01*
G01*
X65633000Y-76211999D01*
G75*
G02*
X65582000Y-76160999I0J51000D01*
G01*
X65582000Y-75180999D01*
G75*
G02*
X65633000Y-75129999I51000J0D01*
G01*
X66563000Y-75129999D01*
G75*
G02*
X66614000Y-75180999I0J-51000D01*
G01*
G37*
G36*
G01*
X68154000Y-75180999D02*
X68154000Y-76160999D01*
G75*
G02*
X68103000Y-76211999I-51000J0D01*
G01*
X67173000Y-76211999D01*
G75*
G02*
X67122000Y-76160999I0J51000D01*
G01*
X67122000Y-75180999D01*
G75*
G02*
X67173000Y-75129999I51000J0D01*
G01*
X68103000Y-75129999D01*
G75*
G02*
X68154000Y-75180999I0J-51000D01*
G01*
G37*
G36*
G01*
X70374000Y-75129999D02*
X70374000Y-76109999D01*
G75*
G02*
X70323000Y-76160999I-51000J0D01*
G01*
X69393000Y-76160999D01*
G75*
G02*
X69342000Y-76109999I0J51000D01*
G01*
X69342000Y-75129999D01*
G75*
G02*
X69393000Y-75078999I51000J0D01*
G01*
X70323000Y-75078999D01*
G75*
G02*
X70374000Y-75129999I0J-51000D01*
G01*
G37*
G36*
G01*
X71914000Y-75129999D02*
X71914000Y-76109999D01*
G75*
G02*
X71863000Y-76160999I-51000J0D01*
G01*
X70933000Y-76160999D01*
G75*
G02*
X70882000Y-76109999I0J51000D01*
G01*
X70882000Y-75129999D01*
G75*
G02*
X70933000Y-75078999I51000J0D01*
G01*
X71863000Y-75078999D01*
G75*
G02*
X71914000Y-75129999I0J-51000D01*
G01*
G37*
G36*
G01*
X74234000Y-75130000D02*
X74234000Y-76110000D01*
G75*
G02*
X74183000Y-76161000I-51000J0D01*
G01*
X73253000Y-76161000D01*
G75*
G02*
X73202000Y-76110000I0J51000D01*
G01*
X73202000Y-75130000D01*
G75*
G02*
X73253000Y-75079000I51000J0D01*
G01*
X74183000Y-75079000D01*
G75*
G02*
X74234000Y-75130000I0J-51000D01*
G01*
G37*
G36*
G01*
X75774000Y-75130000D02*
X75774000Y-76110000D01*
G75*
G02*
X75723000Y-76161000I-51000J0D01*
G01*
X74793000Y-76161000D01*
G75*
G02*
X74742000Y-76110000I0J51000D01*
G01*
X74742000Y-75130000D01*
G75*
G02*
X74793000Y-75079000I51000J0D01*
G01*
X75723000Y-75079000D01*
G75*
G02*
X75774000Y-75130000I0J-51000D01*
G01*
G37*
G36*
G01*
X77994000Y-75181000D02*
X77994000Y-76161000D01*
G75*
G02*
X77943000Y-76212000I-51000J0D01*
G01*
X77013000Y-76212000D01*
G75*
G02*
X76962000Y-76161000I0J51000D01*
G01*
X76962000Y-75181000D01*
G75*
G02*
X77013000Y-75130000I51000J0D01*
G01*
X77943000Y-75130000D01*
G75*
G02*
X77994000Y-75181000I0J-51000D01*
G01*
G37*
G36*
G01*
X79534000Y-75181000D02*
X79534000Y-76161000D01*
G75*
G02*
X79483000Y-76212000I-51000J0D01*
G01*
X78553000Y-76212000D01*
G75*
G02*
X78502000Y-76161000I0J51000D01*
G01*
X78502000Y-75181000D01*
G75*
G02*
X78553000Y-75130000I51000J0D01*
G01*
X79483000Y-75130000D01*
G75*
G02*
X79534000Y-75181000I0J-51000D01*
G01*
G37*
G36*
G01*
X81854400Y-75130000D02*
X81854400Y-76110000D01*
G75*
G02*
X81803400Y-76161000I-51000J0D01*
G01*
X80873400Y-76161000D01*
G75*
G02*
X80822400Y-76110000I0J51000D01*
G01*
X80822400Y-75130000D01*
G75*
G02*
X80873400Y-75079000I51000J0D01*
G01*
X81803400Y-75079000D01*
G75*
G02*
X81854400Y-75130000I0J-51000D01*
G01*
G37*
G36*
G01*
X83394400Y-75130000D02*
X83394400Y-76110000D01*
G75*
G02*
X83343400Y-76161000I-51000J0D01*
G01*
X82413400Y-76161000D01*
G75*
G02*
X82362400Y-76110000I0J51000D01*
G01*
X82362400Y-75130000D01*
G75*
G02*
X82413400Y-75079000I51000J0D01*
G01*
X83343400Y-75079000D01*
G75*
G02*
X83394400Y-75130000I0J-51000D01*
G01*
G37*
G36*
G01*
X85570800Y-75130000D02*
X85570800Y-76110000D01*
G75*
G02*
X85519800Y-76161000I-51000J0D01*
G01*
X84589800Y-76161000D01*
G75*
G02*
X84538800Y-76110000I0J51000D01*
G01*
X84538800Y-75130000D01*
G75*
G02*
X84589800Y-75079000I51000J0D01*
G01*
X85519800Y-75079000D01*
G75*
G02*
X85570800Y-75130000I0J-51000D01*
G01*
G37*
G36*
G01*
X87110800Y-75130000D02*
X87110800Y-76110000D01*
G75*
G02*
X87059800Y-76161000I-51000J0D01*
G01*
X86129800Y-76161000D01*
G75*
G02*
X86078800Y-76110000I0J51000D01*
G01*
X86078800Y-75130000D01*
G75*
G02*
X86129800Y-75079000I51000J0D01*
G01*
X87059800Y-75079000D01*
G75*
G02*
X87110800Y-75130000I0J-51000D01*
G01*
G37*
G36*
G01*
X89474400Y-75130000D02*
X89474400Y-76110000D01*
G75*
G02*
X89423400Y-76161000I-51000J0D01*
G01*
X88493400Y-76161000D01*
G75*
G02*
X88442400Y-76110000I0J51000D01*
G01*
X88442400Y-75130000D01*
G75*
G02*
X88493400Y-75079000I51000J0D01*
G01*
X89423400Y-75079000D01*
G75*
G02*
X89474400Y-75130000I0J-51000D01*
G01*
G37*
G36*
G01*
X91014400Y-75130000D02*
X91014400Y-76110000D01*
G75*
G02*
X90963400Y-76161000I-51000J0D01*
G01*
X90033400Y-76161000D01*
G75*
G02*
X89982400Y-76110000I0J51000D01*
G01*
X89982400Y-75130000D01*
G75*
G02*
X90033400Y-75079000I51000J0D01*
G01*
X90963400Y-75079000D01*
G75*
G02*
X91014400Y-75130000I0J-51000D01*
G01*
G37*
G36*
G01*
X87859200Y-131638000D02*
X87859200Y-129838000D01*
G75*
G02*
X87910200Y-129787000I51000J0D01*
G01*
X89040200Y-129787000D01*
G75*
G02*
X89091200Y-129838000I0J-51000D01*
G01*
X89091200Y-131638000D01*
G75*
G02*
X89040200Y-131689000I-51000J0D01*
G01*
X87910200Y-131689000D01*
G75*
G02*
X87859200Y-131638000I0J51000D01*
G01*
G37*
G36*
G01*
X84879200Y-131638000D02*
X84879200Y-129838000D01*
G75*
G02*
X84930200Y-129787000I51000J0D01*
G01*
X86060200Y-129787000D01*
G75*
G02*
X86111200Y-129838000I0J-51000D01*
G01*
X86111200Y-131638000D01*
G75*
G02*
X86060200Y-131689000I-51000J0D01*
G01*
X84930200Y-131689000D01*
G75*
G02*
X84879200Y-131638000I0J51000D01*
G01*
G37*
G36*
G01*
X113134500Y-99894999D02*
X113134500Y-100874999D01*
G75*
G02*
X113083500Y-100925999I-51000J0D01*
G01*
X112153500Y-100925999D01*
G75*
G02*
X112102500Y-100874999I0J51000D01*
G01*
X112102500Y-99894999D01*
G75*
G02*
X112153500Y-99843999I51000J0D01*
G01*
X113083500Y-99843999D01*
G75*
G02*
X113134500Y-99894999I0J-51000D01*
G01*
G37*
G36*
G01*
X114674500Y-99894999D02*
X114674500Y-100874999D01*
G75*
G02*
X114623500Y-100925999I-51000J0D01*
G01*
X113693500Y-100925999D01*
G75*
G02*
X113642500Y-100874999I0J51000D01*
G01*
X113642500Y-99894999D01*
G75*
G02*
X113693500Y-99843999I51000J0D01*
G01*
X114623500Y-99843999D01*
G75*
G02*
X114674500Y-99894999I0J-51000D01*
G01*
G37*
D14*
X116347600Y-98530800D03*
G36*
G01*
X109451500Y-99831500D02*
X109451500Y-100811500D01*
G75*
G02*
X109400500Y-100862500I-51000J0D01*
G01*
X108470500Y-100862500D01*
G75*
G02*
X108419500Y-100811500I0J51000D01*
G01*
X108419500Y-99831500D01*
G75*
G02*
X108470500Y-99780500I51000J0D01*
G01*
X109400500Y-99780500D01*
G75*
G02*
X109451500Y-99831500I0J-51000D01*
G01*
G37*
G36*
G01*
X110991500Y-99831500D02*
X110991500Y-100811500D01*
G75*
G02*
X110940500Y-100862500I-51000J0D01*
G01*
X110010500Y-100862500D01*
G75*
G02*
X109959500Y-100811500I0J51000D01*
G01*
X109959500Y-99831500D01*
G75*
G02*
X110010500Y-99780500I51000J0D01*
G01*
X110940500Y-99780500D01*
G75*
G02*
X110991500Y-99831500I0J-51000D01*
G01*
G37*
X56492000Y-85208000D03*
D15*
X81518000Y-101178000D03*
X81518000Y-100678000D03*
X81518000Y-100178000D03*
X81518000Y-99678000D03*
X81518000Y-99178000D03*
X81518000Y-98678000D03*
X81518000Y-98178000D03*
X81518000Y-97678000D03*
X81518000Y-97178000D03*
X81518000Y-96678000D03*
X81518000Y-96178000D03*
X81518000Y-95678000D03*
X81518000Y-95178000D03*
X81518000Y-94678000D03*
X81518000Y-94178000D03*
X81518000Y-93678000D03*
X81518000Y-93178000D03*
X81518000Y-92678000D03*
X81518000Y-92178000D03*
X81518000Y-91678000D03*
X81518000Y-91178000D03*
X81518000Y-90678000D03*
X81518000Y-90178000D03*
X81518000Y-89678000D03*
X81518000Y-89178000D03*
D16*
X83068000Y-87628000D03*
X83568000Y-87628000D03*
X84068000Y-87628000D03*
X84568000Y-87628000D03*
X85068000Y-87628000D03*
X85568000Y-87628000D03*
X86068000Y-87628000D03*
X86568000Y-87628000D03*
X87068000Y-87628000D03*
X87568000Y-87628000D03*
X88068000Y-87628000D03*
X88568000Y-87628000D03*
X89068000Y-87628000D03*
X89568000Y-87628000D03*
X90068000Y-87628000D03*
X90568000Y-87628000D03*
X91068000Y-87628000D03*
X91568000Y-87628000D03*
X92068000Y-87628000D03*
X92568000Y-87628000D03*
X93068000Y-87628000D03*
X93568000Y-87628000D03*
X94068000Y-87628000D03*
X94568000Y-87628000D03*
X95068000Y-87628000D03*
D15*
X96618000Y-89178000D03*
X96618000Y-89678000D03*
X96618000Y-90178000D03*
X96618000Y-90678000D03*
X96618000Y-91178000D03*
X96618000Y-91678000D03*
X96618000Y-92178000D03*
X96618000Y-92678000D03*
X96618000Y-93178000D03*
X96618000Y-93678000D03*
X96618000Y-94178000D03*
X96618000Y-94678000D03*
X96618000Y-95178000D03*
X96618000Y-95678000D03*
X96618000Y-96178000D03*
X96618000Y-96678000D03*
X96618000Y-97178000D03*
X96618000Y-97678000D03*
X96618000Y-98178000D03*
X96618000Y-98678000D03*
X96618000Y-99178000D03*
X96618000Y-99678000D03*
X96618000Y-100178000D03*
X96618000Y-100678000D03*
X96618000Y-101178000D03*
D16*
X95068000Y-102728000D03*
X94568000Y-102728000D03*
X94068000Y-102728000D03*
X93568000Y-102728000D03*
X93068000Y-102728000D03*
X92568000Y-102728000D03*
X92068000Y-102728000D03*
X91568000Y-102728000D03*
X91068000Y-102728000D03*
X90568000Y-102728000D03*
X90068000Y-102728000D03*
X89568000Y-102728000D03*
X89068000Y-102728000D03*
X88568000Y-102728000D03*
X88068000Y-102728000D03*
X87568000Y-102728000D03*
X87068000Y-102728000D03*
X86568000Y-102728000D03*
X86068000Y-102728000D03*
X85568000Y-102728000D03*
X85068000Y-102728000D03*
X84568000Y-102728000D03*
X84068000Y-102728000D03*
X83568000Y-102728000D03*
X83068000Y-102728000D03*
D17*
X104080000Y-109783001D03*
X101540000Y-109783001D03*
X99000000Y-109783001D03*
X96460000Y-109783001D03*
X93920000Y-109783001D03*
X93920000Y-125023001D03*
X96460000Y-125023001D03*
X99000000Y-125023001D03*
X101540000Y-125023001D03*
X104080000Y-125023001D03*
G36*
G01*
X61390000Y-84909000D02*
X61390000Y-85889000D01*
G75*
G02*
X61339000Y-85940000I-51000J0D01*
G01*
X60409000Y-85940000D01*
G75*
G02*
X60358000Y-85889000I0J51000D01*
G01*
X60358000Y-84909000D01*
G75*
G02*
X60409000Y-84858000I51000J0D01*
G01*
X61339000Y-84858000D01*
G75*
G02*
X61390000Y-84909000I0J-51000D01*
G01*
G37*
G36*
G01*
X62930000Y-84909000D02*
X62930000Y-85889000D01*
G75*
G02*
X62879000Y-85940000I-51000J0D01*
G01*
X61949000Y-85940000D01*
G75*
G02*
X61898000Y-85889000I0J51000D01*
G01*
X61898000Y-84909000D01*
G75*
G02*
X61949000Y-84858000I51000J0D01*
G01*
X62879000Y-84858000D01*
G75*
G02*
X62930000Y-84909000I0J-51000D01*
G01*
G37*
G36*
G01*
X89304000Y-84510000D02*
X88324000Y-84510000D01*
G75*
G02*
X88273000Y-84459000I0J51000D01*
G01*
X88273000Y-83529000D01*
G75*
G02*
X88324000Y-83478000I51000J0D01*
G01*
X89304000Y-83478000D01*
G75*
G02*
X89355000Y-83529000I0J-51000D01*
G01*
X89355000Y-84459000D01*
G75*
G02*
X89304000Y-84510000I-51000J0D01*
G01*
G37*
G36*
G01*
X89304000Y-86050000D02*
X88324000Y-86050000D01*
G75*
G02*
X88273000Y-85999000I0J51000D01*
G01*
X88273000Y-85069000D01*
G75*
G02*
X88324000Y-85018000I51000J0D01*
G01*
X89304000Y-85018000D01*
G75*
G02*
X89355000Y-85069000I0J-51000D01*
G01*
X89355000Y-85999000D01*
G75*
G02*
X89304000Y-86050000I-51000J0D01*
G01*
G37*
G36*
G01*
X82648000Y-129590001D02*
X82648000Y-131790001D01*
G75*
G02*
X82597000Y-131841001I-51000J0D01*
G01*
X81597000Y-131841001D01*
G75*
G02*
X81546000Y-131790001I0J51000D01*
G01*
X81546000Y-129590001D01*
G75*
G02*
X81597000Y-129539001I51000J0D01*
G01*
X82597000Y-129539001D01*
G75*
G02*
X82648000Y-129590001I0J-51000D01*
G01*
G37*
G36*
G01*
X81598000Y-123590001D02*
X81598000Y-125790001D01*
G75*
G02*
X81547000Y-125841001I-51000J0D01*
G01*
X78047000Y-125841001D01*
G75*
G02*
X77996000Y-125790001I0J51000D01*
G01*
X77996000Y-123590001D01*
G75*
G02*
X78047000Y-123539001I51000J0D01*
G01*
X81547000Y-123539001D01*
G75*
G02*
X81598000Y-123590001I0J-51000D01*
G01*
G37*
G36*
G01*
X80348000Y-129590001D02*
X80348000Y-131790001D01*
G75*
G02*
X80297000Y-131841001I-51000J0D01*
G01*
X79297000Y-131841001D01*
G75*
G02*
X79246000Y-131790001I0J51000D01*
G01*
X79246000Y-129590001D01*
G75*
G02*
X79297000Y-129539001I51000J0D01*
G01*
X80297000Y-129539001D01*
G75*
G02*
X80348000Y-129590001I0J-51000D01*
G01*
G37*
G36*
G01*
X78048000Y-129590001D02*
X78048000Y-131790001D01*
G75*
G02*
X77997000Y-131841001I-51000J0D01*
G01*
X76997000Y-131841001D01*
G75*
G02*
X76946000Y-131790001I0J51000D01*
G01*
X76946000Y-129590001D01*
G75*
G02*
X76997000Y-129539001I51000J0D01*
G01*
X77997000Y-129539001D01*
G75*
G02*
X78048000Y-129590001I0J-51000D01*
G01*
G37*
G36*
G01*
X63541000Y-122084001D02*
X63541000Y-121104001D01*
G75*
G02*
X63592000Y-121053001I51000J0D01*
G01*
X64522000Y-121053001D01*
G75*
G02*
X64573000Y-121104001I0J-51000D01*
G01*
X64573000Y-122084001D01*
G75*
G02*
X64522000Y-122135001I-51000J0D01*
G01*
X63592000Y-122135001D01*
G75*
G02*
X63541000Y-122084001I0J51000D01*
G01*
G37*
G36*
G01*
X62001000Y-122084001D02*
X62001000Y-121104001D01*
G75*
G02*
X62052000Y-121053001I51000J0D01*
G01*
X62982000Y-121053001D01*
G75*
G02*
X63033000Y-121104001I0J-51000D01*
G01*
X63033000Y-122084001D01*
G75*
G02*
X62982000Y-122135001I-51000J0D01*
G01*
X62052000Y-122135001D01*
G75*
G02*
X62001000Y-122084001I0J51000D01*
G01*
G37*
G36*
G01*
X101010000Y-139104000D02*
X101990000Y-139104000D01*
G75*
G02*
X102041000Y-139155000I0J-51000D01*
G01*
X102041000Y-140085000D01*
G75*
G02*
X101990000Y-140136000I-51000J0D01*
G01*
X101010000Y-140136000D01*
G75*
G02*
X100959000Y-140085000I0J51000D01*
G01*
X100959000Y-139155000D01*
G75*
G02*
X101010000Y-139104000I51000J0D01*
G01*
G37*
G36*
G01*
X101010000Y-137564000D02*
X101990000Y-137564000D01*
G75*
G02*
X102041000Y-137615000I0J-51000D01*
G01*
X102041000Y-138545000D01*
G75*
G02*
X101990000Y-138596000I-51000J0D01*
G01*
X101010000Y-138596000D01*
G75*
G02*
X100959000Y-138545000I0J51000D01*
G01*
X100959000Y-137615000D01*
G75*
G02*
X101010000Y-137564000I51000J0D01*
G01*
G37*
G36*
G01*
X93760000Y-135854000D02*
X94740000Y-135854000D01*
G75*
G02*
X94791000Y-135905000I0J-51000D01*
G01*
X94791000Y-136835000D01*
G75*
G02*
X94740000Y-136886000I-51000J0D01*
G01*
X93760000Y-136886000D01*
G75*
G02*
X93709000Y-136835000I0J51000D01*
G01*
X93709000Y-135905000D01*
G75*
G02*
X93760000Y-135854000I51000J0D01*
G01*
G37*
G36*
G01*
X93760000Y-134314000D02*
X94740000Y-134314000D01*
G75*
G02*
X94791000Y-134365000I0J-51000D01*
G01*
X94791000Y-135295000D01*
G75*
G02*
X94740000Y-135346000I-51000J0D01*
G01*
X93760000Y-135346000D01*
G75*
G02*
X93709000Y-135295000I0J51000D01*
G01*
X93709000Y-134365000D01*
G75*
G02*
X93760000Y-134314000I51000J0D01*
G01*
G37*
G36*
G01*
X97946000Y-134360000D02*
X97946000Y-135340000D01*
G75*
G02*
X97895000Y-135391000I-51000J0D01*
G01*
X96965000Y-135391000D01*
G75*
G02*
X96914000Y-135340000I0J51000D01*
G01*
X96914000Y-134360000D01*
G75*
G02*
X96965000Y-134309000I51000J0D01*
G01*
X97895000Y-134309000D01*
G75*
G02*
X97946000Y-134360000I0J-51000D01*
G01*
G37*
G36*
G01*
X99486000Y-134360000D02*
X99486000Y-135340000D01*
G75*
G02*
X99435000Y-135391000I-51000J0D01*
G01*
X98505000Y-135391000D01*
G75*
G02*
X98454000Y-135340000I0J51000D01*
G01*
X98454000Y-134360000D01*
G75*
G02*
X98505000Y-134309000I51000J0D01*
G01*
X99435000Y-134309000D01*
G75*
G02*
X99486000Y-134360000I0J-51000D01*
G01*
G37*
G36*
G01*
X72413000Y-98091000D02*
X71433000Y-98091000D01*
G75*
G02*
X71382000Y-98040000I0J51000D01*
G01*
X71382000Y-97110000D01*
G75*
G02*
X71433000Y-97059000I51000J0D01*
G01*
X72413000Y-97059000D01*
G75*
G02*
X72464000Y-97110000I0J-51000D01*
G01*
X72464000Y-98040000D01*
G75*
G02*
X72413000Y-98091000I-51000J0D01*
G01*
G37*
G36*
G01*
X72413000Y-99631000D02*
X71433000Y-99631000D01*
G75*
G02*
X71382000Y-99580000I0J51000D01*
G01*
X71382000Y-98650000D01*
G75*
G02*
X71433000Y-98599000I51000J0D01*
G01*
X72413000Y-98599000D01*
G75*
G02*
X72464000Y-98650000I0J-51000D01*
G01*
X72464000Y-99580000D01*
G75*
G02*
X72413000Y-99631000I-51000J0D01*
G01*
G37*
G36*
G01*
X65845000Y-119180999D02*
X66825000Y-119180999D01*
G75*
G02*
X66876000Y-119231999I0J-51000D01*
G01*
X66876000Y-120161999D01*
G75*
G02*
X66825000Y-120212999I-51000J0D01*
G01*
X65845000Y-120212999D01*
G75*
G02*
X65794000Y-120161999I0J51000D01*
G01*
X65794000Y-119231999D01*
G75*
G02*
X65845000Y-119180999I51000J0D01*
G01*
G37*
G36*
G01*
X65845000Y-117640999D02*
X66825000Y-117640999D01*
G75*
G02*
X66876000Y-117691999I0J-51000D01*
G01*
X66876000Y-118621999D01*
G75*
G02*
X66825000Y-118672999I-51000J0D01*
G01*
X65845000Y-118672999D01*
G75*
G02*
X65794000Y-118621999I0J51000D01*
G01*
X65794000Y-117691999D01*
G75*
G02*
X65845000Y-117640999I51000J0D01*
G01*
G37*
G36*
G01*
X65174000Y-99496000D02*
X64194000Y-99496000D01*
G75*
G02*
X64143000Y-99445000I0J51000D01*
G01*
X64143000Y-98515000D01*
G75*
G02*
X64194000Y-98464000I51000J0D01*
G01*
X65174000Y-98464000D01*
G75*
G02*
X65225000Y-98515000I0J-51000D01*
G01*
X65225000Y-99445000D01*
G75*
G02*
X65174000Y-99496000I-51000J0D01*
G01*
G37*
G36*
G01*
X65174000Y-101036000D02*
X64194000Y-101036000D01*
G75*
G02*
X64143000Y-100985000I0J51000D01*
G01*
X64143000Y-100055000D01*
G75*
G02*
X64194000Y-100004000I51000J0D01*
G01*
X65174000Y-100004000D01*
G75*
G02*
X65225000Y-100055000I0J-51000D01*
G01*
X65225000Y-100985000D01*
G75*
G02*
X65174000Y-101036000I-51000J0D01*
G01*
G37*
G36*
G01*
X60620000Y-89989000D02*
X60620000Y-90969000D01*
G75*
G02*
X60569000Y-91020000I-51000J0D01*
G01*
X59639000Y-91020000D01*
G75*
G02*
X59588000Y-90969000I0J51000D01*
G01*
X59588000Y-89989000D01*
G75*
G02*
X59639000Y-89938000I51000J0D01*
G01*
X60569000Y-89938000D01*
G75*
G02*
X60620000Y-89989000I0J-51000D01*
G01*
G37*
G36*
G01*
X62160000Y-89989000D02*
X62160000Y-90969000D01*
G75*
G02*
X62109000Y-91020000I-51000J0D01*
G01*
X61179000Y-91020000D01*
G75*
G02*
X61128000Y-90969000I0J51000D01*
G01*
X61128000Y-89989000D01*
G75*
G02*
X61179000Y-89938000I51000J0D01*
G01*
X62109000Y-89938000D01*
G75*
G02*
X62160000Y-89989000I0J-51000D01*
G01*
G37*
G36*
G01*
X51967000Y-113230000D02*
X51967000Y-114210000D01*
G75*
G02*
X51916000Y-114261000I-51000J0D01*
G01*
X50986000Y-114261000D01*
G75*
G02*
X50935000Y-114210000I0J51000D01*
G01*
X50935000Y-113230000D01*
G75*
G02*
X50986000Y-113179000I51000J0D01*
G01*
X51916000Y-113179000D01*
G75*
G02*
X51967000Y-113230000I0J-51000D01*
G01*
G37*
G36*
G01*
X53507000Y-113230000D02*
X53507000Y-114210000D01*
G75*
G02*
X53456000Y-114261000I-51000J0D01*
G01*
X52526000Y-114261000D01*
G75*
G02*
X52475000Y-114210000I0J51000D01*
G01*
X52475000Y-113230000D01*
G75*
G02*
X52526000Y-113179000I51000J0D01*
G01*
X53456000Y-113179000D01*
G75*
G02*
X53507000Y-113230000I0J-51000D01*
G01*
G37*
G36*
G01*
X71017000Y-113860800D02*
X71017000Y-112880800D01*
G75*
G02*
X71068000Y-112829800I51000J0D01*
G01*
X71998000Y-112829800D01*
G75*
G02*
X72049000Y-112880800I0J-51000D01*
G01*
X72049000Y-113860800D01*
G75*
G02*
X71998000Y-113911800I-51000J0D01*
G01*
X71068000Y-113911800D01*
G75*
G02*
X71017000Y-113860800I0J51000D01*
G01*
G37*
G36*
G01*
X69477000Y-113860800D02*
X69477000Y-112880800D01*
G75*
G02*
X69528000Y-112829800I51000J0D01*
G01*
X70458000Y-112829800D01*
G75*
G02*
X70509000Y-112880800I0J-51000D01*
G01*
X70509000Y-113860800D01*
G75*
G02*
X70458000Y-113911800I-51000J0D01*
G01*
X69528000Y-113911800D01*
G75*
G02*
X69477000Y-113860800I0J51000D01*
G01*
G37*
G36*
G01*
X71016999Y-108082200D02*
X71016999Y-107102200D01*
G75*
G02*
X71067999Y-107051200I51000J0D01*
G01*
X71997999Y-107051200D01*
G75*
G02*
X72048999Y-107102200I0J-51000D01*
G01*
X72048999Y-108082200D01*
G75*
G02*
X71997999Y-108133200I-51000J0D01*
G01*
X71067999Y-108133200D01*
G75*
G02*
X71016999Y-108082200I0J51000D01*
G01*
G37*
G36*
G01*
X69476999Y-108082200D02*
X69476999Y-107102200D01*
G75*
G02*
X69527999Y-107051200I51000J0D01*
G01*
X70457999Y-107051200D01*
G75*
G02*
X70508999Y-107102200I0J-51000D01*
G01*
X70508999Y-108082200D01*
G75*
G02*
X70457999Y-108133200I-51000J0D01*
G01*
X69527999Y-108133200D01*
G75*
G02*
X69476999Y-108082200I0J51000D01*
G01*
G37*
G36*
G01*
X51840000Y-106753000D02*
X51840000Y-107733000D01*
G75*
G02*
X51789000Y-107784000I-51000J0D01*
G01*
X50859000Y-107784000D01*
G75*
G02*
X50808000Y-107733000I0J51000D01*
G01*
X50808000Y-106753000D01*
G75*
G02*
X50859000Y-106702000I51000J0D01*
G01*
X51789000Y-106702000D01*
G75*
G02*
X51840000Y-106753000I0J-51000D01*
G01*
G37*
G36*
G01*
X53380000Y-106753000D02*
X53380000Y-107733000D01*
G75*
G02*
X53329000Y-107784000I-51000J0D01*
G01*
X52399000Y-107784000D01*
G75*
G02*
X52348000Y-107733000I0J51000D01*
G01*
X52348000Y-106753000D01*
G75*
G02*
X52399000Y-106702000I51000J0D01*
G01*
X53329000Y-106702000D01*
G75*
G02*
X53380000Y-106753000I0J-51000D01*
G01*
G37*
G36*
G01*
X59210000Y-99521999D02*
X58230000Y-99521999D01*
G75*
G02*
X58179000Y-99470999I0J51000D01*
G01*
X58179000Y-98540999D01*
G75*
G02*
X58230000Y-98489999I51000J0D01*
G01*
X59210000Y-98489999D01*
G75*
G02*
X59261000Y-98540999I0J-51000D01*
G01*
X59261000Y-99470999D01*
G75*
G02*
X59210000Y-99521999I-51000J0D01*
G01*
G37*
G36*
G01*
X59210000Y-101061999D02*
X58230000Y-101061999D01*
G75*
G02*
X58179000Y-101010999I0J51000D01*
G01*
X58179000Y-100080999D01*
G75*
G02*
X58230000Y-100029999I51000J0D01*
G01*
X59210000Y-100029999D01*
G75*
G02*
X59261000Y-100080999I0J-51000D01*
G01*
X59261000Y-101010999D01*
G75*
G02*
X59210000Y-101061999I-51000J0D01*
G01*
G37*
G36*
G01*
X67223999Y-116750000D02*
X67223999Y-115770000D01*
G75*
G02*
X67274999Y-115719000I51000J0D01*
G01*
X68204999Y-115719000D01*
G75*
G02*
X68255999Y-115770000I0J-51000D01*
G01*
X68255999Y-116750000D01*
G75*
G02*
X68204999Y-116801000I-51000J0D01*
G01*
X67274999Y-116801000D01*
G75*
G02*
X67223999Y-116750000I0J51000D01*
G01*
G37*
G36*
G01*
X65683999Y-116750000D02*
X65683999Y-115770000D01*
G75*
G02*
X65734999Y-115719000I51000J0D01*
G01*
X66664999Y-115719000D01*
G75*
G02*
X66715999Y-115770000I0J-51000D01*
G01*
X66715999Y-116750000D01*
G75*
G02*
X66664999Y-116801000I-51000J0D01*
G01*
X65734999Y-116801000D01*
G75*
G02*
X65683999Y-116750000I0J51000D01*
G01*
G37*
G36*
G01*
X61342000Y-92199001D02*
X61342000Y-93179001D01*
G75*
G02*
X61291000Y-93230001I-51000J0D01*
G01*
X60361000Y-93230001D01*
G75*
G02*
X60310000Y-93179001I0J51000D01*
G01*
X60310000Y-92199001D01*
G75*
G02*
X60361000Y-92148001I51000J0D01*
G01*
X61291000Y-92148001D01*
G75*
G02*
X61342000Y-92199001I0J-51000D01*
G01*
G37*
G36*
G01*
X62882000Y-92199001D02*
X62882000Y-93179001D01*
G75*
G02*
X62831000Y-93230001I-51000J0D01*
G01*
X61901000Y-93230001D01*
G75*
G02*
X61850000Y-93179001I0J51000D01*
G01*
X61850000Y-92199001D01*
G75*
G02*
X61901000Y-92148001I51000J0D01*
G01*
X62831000Y-92148001D01*
G75*
G02*
X62882000Y-92199001I0J-51000D01*
G01*
G37*
G36*
G01*
X100363000Y-92366000D02*
X100363000Y-91386000D01*
G75*
G02*
X100414000Y-91335000I51000J0D01*
G01*
X101344000Y-91335000D01*
G75*
G02*
X101395000Y-91386000I0J-51000D01*
G01*
X101395000Y-92366000D01*
G75*
G02*
X101344000Y-92417000I-51000J0D01*
G01*
X100414000Y-92417000D01*
G75*
G02*
X100363000Y-92366000I0J51000D01*
G01*
G37*
G36*
G01*
X98823000Y-92366000D02*
X98823000Y-91386000D01*
G75*
G02*
X98874000Y-91335000I51000J0D01*
G01*
X99804000Y-91335000D01*
G75*
G02*
X99855000Y-91386000I0J-51000D01*
G01*
X99855000Y-92366000D01*
G75*
G02*
X99804000Y-92417000I-51000J0D01*
G01*
X98874000Y-92417000D01*
G75*
G02*
X98823000Y-92366000I0J51000D01*
G01*
G37*
G36*
G01*
X61420000Y-86636000D02*
X61420000Y-87616000D01*
G75*
G02*
X61369000Y-87667000I-51000J0D01*
G01*
X60439000Y-87667000D01*
G75*
G02*
X60388000Y-87616000I0J51000D01*
G01*
X60388000Y-86636000D01*
G75*
G02*
X60439000Y-86585000I51000J0D01*
G01*
X61369000Y-86585000D01*
G75*
G02*
X61420000Y-86636000I0J-51000D01*
G01*
G37*
G36*
G01*
X62960000Y-86636000D02*
X62960000Y-87616000D01*
G75*
G02*
X62909000Y-87667000I-51000J0D01*
G01*
X61979000Y-87667000D01*
G75*
G02*
X61928000Y-87616000I0J51000D01*
G01*
X61928000Y-86636000D01*
G75*
G02*
X61979000Y-86585000I51000J0D01*
G01*
X62909000Y-86585000D01*
G75*
G02*
X62960000Y-86636000I0J-51000D01*
G01*
G37*
G36*
G01*
X48240000Y-92726000D02*
X47260000Y-92726000D01*
G75*
G02*
X47209000Y-92675000I0J51000D01*
G01*
X47209000Y-91745000D01*
G75*
G02*
X47260000Y-91694000I51000J0D01*
G01*
X48240000Y-91694000D01*
G75*
G02*
X48291000Y-91745000I0J-51000D01*
G01*
X48291000Y-92675000D01*
G75*
G02*
X48240000Y-92726000I-51000J0D01*
G01*
G37*
G36*
G01*
X48240000Y-94266000D02*
X47260000Y-94266000D01*
G75*
G02*
X47209000Y-94215000I0J51000D01*
G01*
X47209000Y-93285000D01*
G75*
G02*
X47260000Y-93234000I51000J0D01*
G01*
X48240000Y-93234000D01*
G75*
G02*
X48291000Y-93285000I0J-51000D01*
G01*
X48291000Y-94215000D01*
G75*
G02*
X48240000Y-94266000I-51000J0D01*
G01*
G37*
G36*
G01*
X61110000Y-99496000D02*
X60130000Y-99496000D01*
G75*
G02*
X60079000Y-99445000I0J51000D01*
G01*
X60079000Y-98515000D01*
G75*
G02*
X60130000Y-98464000I51000J0D01*
G01*
X61110000Y-98464000D01*
G75*
G02*
X61161000Y-98515000I0J-51000D01*
G01*
X61161000Y-99445000D01*
G75*
G02*
X61110000Y-99496000I-51000J0D01*
G01*
G37*
G36*
G01*
X61110000Y-101036000D02*
X60130000Y-101036000D01*
G75*
G02*
X60079000Y-100985000I0J51000D01*
G01*
X60079000Y-100055000D01*
G75*
G02*
X60130000Y-100004000I51000J0D01*
G01*
X61110000Y-100004000D01*
G75*
G02*
X61161000Y-100055000I0J-51000D01*
G01*
X61161000Y-100985000D01*
G75*
G02*
X61110000Y-101036000I-51000J0D01*
G01*
G37*
G36*
G01*
X51967000Y-110690000D02*
X51967000Y-111670000D01*
G75*
G02*
X51916000Y-111721000I-51000J0D01*
G01*
X50986000Y-111721000D01*
G75*
G02*
X50935000Y-111670000I0J51000D01*
G01*
X50935000Y-110690000D01*
G75*
G02*
X50986000Y-110639000I51000J0D01*
G01*
X51916000Y-110639000D01*
G75*
G02*
X51967000Y-110690000I0J-51000D01*
G01*
G37*
G36*
G01*
X53507000Y-110690000D02*
X53507000Y-111670000D01*
G75*
G02*
X53456000Y-111721000I-51000J0D01*
G01*
X52526000Y-111721000D01*
G75*
G02*
X52475000Y-111670000I0J51000D01*
G01*
X52475000Y-110690000D01*
G75*
G02*
X52526000Y-110639000I51000J0D01*
G01*
X53456000Y-110639000D01*
G75*
G02*
X53507000Y-110690000I0J-51000D01*
G01*
G37*
G36*
G01*
X54161000Y-117149000D02*
X55141000Y-117149000D01*
G75*
G02*
X55192000Y-117200000I0J-51000D01*
G01*
X55192000Y-118130000D01*
G75*
G02*
X55141000Y-118181000I-51000J0D01*
G01*
X54161000Y-118181000D01*
G75*
G02*
X54110000Y-118130000I0J51000D01*
G01*
X54110000Y-117200000D01*
G75*
G02*
X54161000Y-117149000I51000J0D01*
G01*
G37*
G36*
G01*
X54161000Y-115609000D02*
X55141000Y-115609000D01*
G75*
G02*
X55192000Y-115660000I0J-51000D01*
G01*
X55192000Y-116590000D01*
G75*
G02*
X55141000Y-116641000I-51000J0D01*
G01*
X54161000Y-116641000D01*
G75*
G02*
X54110000Y-116590000I0J51000D01*
G01*
X54110000Y-115660000D01*
G75*
G02*
X54161000Y-115609000I51000J0D01*
G01*
G37*
G36*
G01*
X71016999Y-116750000D02*
X71016999Y-115770000D01*
G75*
G02*
X71067999Y-115719000I51000J0D01*
G01*
X71997999Y-115719000D01*
G75*
G02*
X72048999Y-115770000I0J-51000D01*
G01*
X72048999Y-116750000D01*
G75*
G02*
X71997999Y-116801000I-51000J0D01*
G01*
X71067999Y-116801000D01*
G75*
G02*
X71016999Y-116750000I0J51000D01*
G01*
G37*
G36*
G01*
X69476999Y-116750000D02*
X69476999Y-115770000D01*
G75*
G02*
X69527999Y-115719000I51000J0D01*
G01*
X70457999Y-115719000D01*
G75*
G02*
X70508999Y-115770000I0J-51000D01*
G01*
X70508999Y-116750000D01*
G75*
G02*
X70457999Y-116801000I-51000J0D01*
G01*
X69527999Y-116801000D01*
G75*
G02*
X69476999Y-116750000I0J51000D01*
G01*
G37*
G36*
G01*
X71013000Y-110971501D02*
X71013000Y-109991501D01*
G75*
G02*
X71064000Y-109940501I51000J0D01*
G01*
X71994000Y-109940501D01*
G75*
G02*
X72045000Y-109991501I0J-51000D01*
G01*
X72045000Y-110971501D01*
G75*
G02*
X71994000Y-111022501I-51000J0D01*
G01*
X71064000Y-111022501D01*
G75*
G02*
X71013000Y-110971501I0J51000D01*
G01*
G37*
G36*
G01*
X69473000Y-110971501D02*
X69473000Y-109991501D01*
G75*
G02*
X69524000Y-109940501I51000J0D01*
G01*
X70454000Y-109940501D01*
G75*
G02*
X70505000Y-109991501I0J-51000D01*
G01*
X70505000Y-110971501D01*
G75*
G02*
X70454000Y-111022501I-51000J0D01*
G01*
X69524000Y-111022501D01*
G75*
G02*
X69473000Y-110971501I0J51000D01*
G01*
G37*
G36*
G01*
X71012000Y-105193000D02*
X71012000Y-104213000D01*
G75*
G02*
X71063000Y-104162000I51000J0D01*
G01*
X71993000Y-104162000D01*
G75*
G02*
X72044000Y-104213000I0J-51000D01*
G01*
X72044000Y-105193000D01*
G75*
G02*
X71993000Y-105244000I-51000J0D01*
G01*
X71063000Y-105244000D01*
G75*
G02*
X71012000Y-105193000I0J51000D01*
G01*
G37*
G36*
G01*
X69472000Y-105193000D02*
X69472000Y-104213000D01*
G75*
G02*
X69523000Y-104162000I51000J0D01*
G01*
X70453000Y-104162000D01*
G75*
G02*
X70504000Y-104213000I0J-51000D01*
G01*
X70504000Y-105193000D01*
G75*
G02*
X70453000Y-105244000I-51000J0D01*
G01*
X69523000Y-105244000D01*
G75*
G02*
X69472000Y-105193000I0J51000D01*
G01*
G37*
G36*
G01*
X56695000Y-99522000D02*
X55715000Y-99522000D01*
G75*
G02*
X55664000Y-99471000I0J51000D01*
G01*
X55664000Y-98541000D01*
G75*
G02*
X55715000Y-98490000I51000J0D01*
G01*
X56695000Y-98490000D01*
G75*
G02*
X56746000Y-98541000I0J-51000D01*
G01*
X56746000Y-99471000D01*
G75*
G02*
X56695000Y-99522000I-51000J0D01*
G01*
G37*
G36*
G01*
X56695000Y-101062000D02*
X55715000Y-101062000D01*
G75*
G02*
X55664000Y-101011000I0J51000D01*
G01*
X55664000Y-100081000D01*
G75*
G02*
X55715000Y-100030000I51000J0D01*
G01*
X56695000Y-100030000D01*
G75*
G02*
X56746000Y-100081000I0J-51000D01*
G01*
X56746000Y-101011000D01*
G75*
G02*
X56695000Y-101062000I-51000J0D01*
G01*
G37*
G36*
G01*
X62319000Y-100031000D02*
X63299000Y-100031000D01*
G75*
G02*
X63350000Y-100082000I0J-51000D01*
G01*
X63350000Y-101012000D01*
G75*
G02*
X63299000Y-101063000I-51000J0D01*
G01*
X62319000Y-101063000D01*
G75*
G02*
X62268000Y-101012000I0J51000D01*
G01*
X62268000Y-100082000D01*
G75*
G02*
X62319000Y-100031000I51000J0D01*
G01*
G37*
G36*
G01*
X62319000Y-98491000D02*
X63299000Y-98491000D01*
G75*
G02*
X63350000Y-98542000I0J-51000D01*
G01*
X63350000Y-99472000D01*
G75*
G02*
X63299000Y-99523000I-51000J0D01*
G01*
X62319000Y-99523000D01*
G75*
G02*
X62268000Y-99472000I0J51000D01*
G01*
X62268000Y-98542000D01*
G75*
G02*
X62319000Y-98491000I51000J0D01*
G01*
G37*
G36*
G01*
X54489000Y-122491000D02*
X53509000Y-122491000D01*
G75*
G02*
X53458000Y-122440000I0J51000D01*
G01*
X53458000Y-121510000D01*
G75*
G02*
X53509000Y-121459000I51000J0D01*
G01*
X54489000Y-121459000D01*
G75*
G02*
X54540000Y-121510000I0J-51000D01*
G01*
X54540000Y-122440000D01*
G75*
G02*
X54489000Y-122491000I-51000J0D01*
G01*
G37*
G36*
G01*
X54489000Y-124031000D02*
X53509000Y-124031000D01*
G75*
G02*
X53458000Y-123980000I0J51000D01*
G01*
X53458000Y-123050000D01*
G75*
G02*
X53509000Y-122999000I51000J0D01*
G01*
X54489000Y-122999000D01*
G75*
G02*
X54540000Y-123050000I0J-51000D01*
G01*
X54540000Y-123980000D01*
G75*
G02*
X54489000Y-124031000I-51000J0D01*
G01*
G37*
G36*
G01*
X70004000Y-127990000D02*
X70004000Y-127010000D01*
G75*
G02*
X70055000Y-126959000I51000J0D01*
G01*
X70985000Y-126959000D01*
G75*
G02*
X71036000Y-127010000I0J-51000D01*
G01*
X71036000Y-127990000D01*
G75*
G02*
X70985000Y-128041000I-51000J0D01*
G01*
X70055000Y-128041000D01*
G75*
G02*
X70004000Y-127990000I0J51000D01*
G01*
G37*
G36*
G01*
X68464000Y-127990000D02*
X68464000Y-127010000D01*
G75*
G02*
X68515000Y-126959000I51000J0D01*
G01*
X69445000Y-126959000D01*
G75*
G02*
X69496000Y-127010000I0J-51000D01*
G01*
X69496000Y-127990000D01*
G75*
G02*
X69445000Y-128041000I-51000J0D01*
G01*
X68515000Y-128041000D01*
G75*
G02*
X68464000Y-127990000I0J51000D01*
G01*
G37*
G36*
G01*
X100506000Y-99224000D02*
X100506000Y-98244000D01*
G75*
G02*
X100557000Y-98193000I51000J0D01*
G01*
X101487000Y-98193000D01*
G75*
G02*
X101538000Y-98244000I0J-51000D01*
G01*
X101538000Y-99224000D01*
G75*
G02*
X101487000Y-99275000I-51000J0D01*
G01*
X100557000Y-99275000D01*
G75*
G02*
X100506000Y-99224000I0J51000D01*
G01*
G37*
G36*
G01*
X98966000Y-99224000D02*
X98966000Y-98244000D01*
G75*
G02*
X99017000Y-98193000I51000J0D01*
G01*
X99947000Y-98193000D01*
G75*
G02*
X99998000Y-98244000I0J-51000D01*
G01*
X99998000Y-99224000D01*
G75*
G02*
X99947000Y-99275000I-51000J0D01*
G01*
X99017000Y-99275000D01*
G75*
G02*
X98966000Y-99224000I0J51000D01*
G01*
G37*
G36*
G01*
X91335999Y-83232000D02*
X90355999Y-83232000D01*
G75*
G02*
X90304999Y-83181000I0J51000D01*
G01*
X90304999Y-82251000D01*
G75*
G02*
X90355999Y-82200000I51000J0D01*
G01*
X91335999Y-82200000D01*
G75*
G02*
X91386999Y-82251000I0J-51000D01*
G01*
X91386999Y-83181000D01*
G75*
G02*
X91335999Y-83232000I-51000J0D01*
G01*
G37*
G36*
G01*
X91335999Y-84772000D02*
X90355999Y-84772000D01*
G75*
G02*
X90304999Y-84721000I0J51000D01*
G01*
X90304999Y-83791000D01*
G75*
G02*
X90355999Y-83740000I51000J0D01*
G01*
X91335999Y-83740000D01*
G75*
G02*
X91386999Y-83791000I0J-51000D01*
G01*
X91386999Y-84721000D01*
G75*
G02*
X91335999Y-84772000I-51000J0D01*
G01*
G37*
G36*
G01*
X78265000Y-90751000D02*
X78265000Y-91731000D01*
G75*
G02*
X78214000Y-91782000I-51000J0D01*
G01*
X77284000Y-91782000D01*
G75*
G02*
X77233000Y-91731000I0J51000D01*
G01*
X77233000Y-90751000D01*
G75*
G02*
X77284000Y-90700000I51000J0D01*
G01*
X78214000Y-90700000D01*
G75*
G02*
X78265000Y-90751000I0J-51000D01*
G01*
G37*
G36*
G01*
X79805000Y-90751000D02*
X79805000Y-91731000D01*
G75*
G02*
X79754000Y-91782000I-51000J0D01*
G01*
X78824000Y-91782000D01*
G75*
G02*
X78773000Y-91731000I0J51000D01*
G01*
X78773000Y-90751000D01*
G75*
G02*
X78824000Y-90700000I51000J0D01*
G01*
X79754000Y-90700000D01*
G75*
G02*
X79805000Y-90751000I0J-51000D01*
G01*
G37*
G36*
G01*
X78265000Y-97736000D02*
X78265000Y-98716000D01*
G75*
G02*
X78214000Y-98767000I-51000J0D01*
G01*
X77284000Y-98767000D01*
G75*
G02*
X77233000Y-98716000I0J51000D01*
G01*
X77233000Y-97736000D01*
G75*
G02*
X77284000Y-97685000I51000J0D01*
G01*
X78214000Y-97685000D01*
G75*
G02*
X78265000Y-97736000I0J-51000D01*
G01*
G37*
G36*
G01*
X79805000Y-97736000D02*
X79805000Y-98716000D01*
G75*
G02*
X79754000Y-98767000I-51000J0D01*
G01*
X78824000Y-98767000D01*
G75*
G02*
X78773000Y-98716000I0J51000D01*
G01*
X78773000Y-97736000D01*
G75*
G02*
X78824000Y-97685000I51000J0D01*
G01*
X79754000Y-97685000D01*
G75*
G02*
X79805000Y-97736000I0J-51000D01*
G01*
G37*
G36*
G01*
X88578000Y-106608000D02*
X89558000Y-106608000D01*
G75*
G02*
X89609000Y-106659000I0J-51000D01*
G01*
X89609000Y-107589000D01*
G75*
G02*
X89558000Y-107640000I-51000J0D01*
G01*
X88578000Y-107640000D01*
G75*
G02*
X88527000Y-107589000I0J51000D01*
G01*
X88527000Y-106659000D01*
G75*
G02*
X88578000Y-106608000I51000J0D01*
G01*
G37*
G36*
G01*
X88578000Y-105068000D02*
X89558000Y-105068000D01*
G75*
G02*
X89609000Y-105119000I0J-51000D01*
G01*
X89609000Y-106049000D01*
G75*
G02*
X89558000Y-106100000I-51000J0D01*
G01*
X88578000Y-106100000D01*
G75*
G02*
X88527000Y-106049000I0J51000D01*
G01*
X88527000Y-105119000D01*
G75*
G02*
X88578000Y-105068000I51000J0D01*
G01*
G37*
G36*
G01*
X86165000Y-106608000D02*
X87145000Y-106608000D01*
G75*
G02*
X87196000Y-106659000I0J-51000D01*
G01*
X87196000Y-107589000D01*
G75*
G02*
X87145000Y-107640000I-51000J0D01*
G01*
X86165000Y-107640000D01*
G75*
G02*
X86114000Y-107589000I0J51000D01*
G01*
X86114000Y-106659000D01*
G75*
G02*
X86165000Y-106608000I51000J0D01*
G01*
G37*
G36*
G01*
X86165000Y-105068000D02*
X87145000Y-105068000D01*
G75*
G02*
X87196000Y-105119000I0J-51000D01*
G01*
X87196000Y-106049000D01*
G75*
G02*
X87145000Y-106100000I-51000J0D01*
G01*
X86165000Y-106100000D01*
G75*
G02*
X86114000Y-106049000I0J51000D01*
G01*
X86114000Y-105119000D01*
G75*
G02*
X86165000Y-105068000I51000J0D01*
G01*
G37*
G36*
G01*
X76998000Y-132797000D02*
X76998000Y-134267000D01*
G75*
G02*
X76947000Y-134318000I-51000J0D01*
G01*
X75787000Y-134318000D01*
G75*
G02*
X75736000Y-134267000I0J51000D01*
G01*
X75736000Y-132797000D01*
G75*
G02*
X75787000Y-132746000I51000J0D01*
G01*
X76947000Y-132746000D01*
G75*
G02*
X76998000Y-132797000I0J-51000D01*
G01*
G37*
G36*
G01*
X78778000Y-132797000D02*
X78778000Y-134267000D01*
G75*
G02*
X78727000Y-134318000I-51000J0D01*
G01*
X77567000Y-134318000D01*
G75*
G02*
X77516000Y-134267000I0J51000D01*
G01*
X77516000Y-132797000D01*
G75*
G02*
X77567000Y-132746000I51000J0D01*
G01*
X78727000Y-132746000D01*
G75*
G02*
X78778000Y-132797000I0J-51000D01*
G01*
G37*
D18*
X74260190Y-104772900D03*
X74260190Y-102397900D03*
X76317000Y-101210400D03*
X78373810Y-102397900D03*
X78373810Y-104772900D03*
X76317000Y-105960400D03*
D19*
X76317000Y-103585400D03*
D18*
X48403190Y-85570500D03*
X48403190Y-83195500D03*
X50460000Y-82008000D03*
X52516810Y-83195500D03*
X52516810Y-85570500D03*
X50460000Y-86758000D03*
D19*
X50460000Y-84383000D03*
D18*
X121943190Y-60187500D03*
X121943190Y-57812500D03*
X124000000Y-56625000D03*
X126056810Y-57812500D03*
X126056810Y-60187500D03*
X124000000Y-61375000D03*
D19*
X124000000Y-59000000D03*
D18*
X121943190Y-142187500D03*
X121943190Y-139812500D03*
X124000000Y-138625000D03*
X126056810Y-139812500D03*
X126056810Y-142187500D03*
X124000000Y-143375000D03*
D19*
X124000000Y-141000000D03*
G36*
G01*
X56069000Y-91592000D02*
X54069000Y-91592000D01*
G75*
G02*
X54018000Y-91541000I0J51000D01*
G01*
X54018000Y-90941000D01*
G75*
G02*
X54069000Y-90890000I51000J0D01*
G01*
X56069000Y-90890000D01*
G75*
G02*
X56120000Y-90941000I0J-51000D01*
G01*
X56120000Y-91541000D01*
G75*
G02*
X56069000Y-91592000I-51000J0D01*
G01*
G37*
G36*
G01*
X51169000Y-94132000D02*
X49169000Y-94132000D01*
G75*
G02*
X49118000Y-94081000I0J51000D01*
G01*
X49118000Y-93481000D01*
G75*
G02*
X49169000Y-93430000I51000J0D01*
G01*
X51169000Y-93430000D01*
G75*
G02*
X51220000Y-93481000I0J-51000D01*
G01*
X51220000Y-94081000D01*
G75*
G02*
X51169000Y-94132000I-51000J0D01*
G01*
G37*
G36*
G01*
X51169000Y-92862000D02*
X49169000Y-92862000D01*
G75*
G02*
X49118000Y-92811000I0J51000D01*
G01*
X49118000Y-92211000D01*
G75*
G02*
X49169000Y-92160000I51000J0D01*
G01*
X51169000Y-92160000D01*
G75*
G02*
X51220000Y-92211000I0J-51000D01*
G01*
X51220000Y-92811000D01*
G75*
G02*
X51169000Y-92862000I-51000J0D01*
G01*
G37*
G36*
G01*
X51169000Y-91592000D02*
X49169000Y-91592000D01*
G75*
G02*
X49118000Y-91541000I0J51000D01*
G01*
X49118000Y-90941000D01*
G75*
G02*
X49169000Y-90890000I51000J0D01*
G01*
X51169000Y-90890000D01*
G75*
G02*
X51220000Y-90941000I0J-51000D01*
G01*
X51220000Y-91541000D01*
G75*
G02*
X51169000Y-91592000I-51000J0D01*
G01*
G37*
G36*
G01*
X51169000Y-90322000D02*
X49169000Y-90322000D01*
G75*
G02*
X49118000Y-90271000I0J51000D01*
G01*
X49118000Y-89671000D01*
G75*
G02*
X49169000Y-89620000I51000J0D01*
G01*
X51169000Y-89620000D01*
G75*
G02*
X51220000Y-89671000I0J-51000D01*
G01*
X51220000Y-90271000D01*
G75*
G02*
X51169000Y-90322000I-51000J0D01*
G01*
G37*
G36*
G01*
X56069000Y-90322000D02*
X54069000Y-90322000D01*
G75*
G02*
X54018000Y-90271000I0J51000D01*
G01*
X54018000Y-89671000D01*
G75*
G02*
X54069000Y-89620000I51000J0D01*
G01*
X56069000Y-89620000D01*
G75*
G02*
X56120000Y-89671000I0J-51000D01*
G01*
X56120000Y-90271000D01*
G75*
G02*
X56069000Y-90322000I-51000J0D01*
G01*
G37*
G36*
G01*
X56069000Y-92862000D02*
X54069000Y-92862000D01*
G75*
G02*
X54018000Y-92811000I0J51000D01*
G01*
X54018000Y-92211000D01*
G75*
G02*
X54069000Y-92160000I51000J0D01*
G01*
X56069000Y-92160000D01*
G75*
G02*
X56120000Y-92211000I0J-51000D01*
G01*
X56120000Y-92811000D01*
G75*
G02*
X56069000Y-92862000I-51000J0D01*
G01*
G37*
G36*
G01*
X56069000Y-94132000D02*
X54069000Y-94132000D01*
G75*
G02*
X54018000Y-94081000I0J51000D01*
G01*
X54018000Y-93481000D01*
G75*
G02*
X54069000Y-93430000I51000J0D01*
G01*
X56069000Y-93430000D01*
G75*
G02*
X56120000Y-93481000I0J-51000D01*
G01*
X56120000Y-94081000D01*
G75*
G02*
X56069000Y-94132000I-51000J0D01*
G01*
G37*
D16*
X65934000Y-87547000D03*
X66434000Y-87547000D03*
X66934000Y-87547000D03*
X67434000Y-87547000D03*
X67934000Y-87547000D03*
X68434000Y-87547000D03*
X68934000Y-87547000D03*
X69434000Y-87547000D03*
X69934000Y-87547000D03*
X70434000Y-87547000D03*
X70934000Y-87547000D03*
X71434000Y-87547000D03*
D15*
X72734000Y-88847000D03*
X72734000Y-89347000D03*
X72734000Y-89847000D03*
X72734000Y-90347000D03*
X72734000Y-90847000D03*
X72734000Y-91347000D03*
X72734000Y-91847000D03*
X72734000Y-92347000D03*
X72734000Y-92847000D03*
X72734000Y-93347000D03*
X72734000Y-93847000D03*
X72734000Y-94347000D03*
D16*
X71434000Y-95647000D03*
X70934000Y-95647000D03*
X70434000Y-95647000D03*
X69934000Y-95647000D03*
X69434000Y-95647000D03*
X68934000Y-95647000D03*
X68434000Y-95647000D03*
X67934000Y-95647000D03*
X67434000Y-95647000D03*
X66934000Y-95647000D03*
X66434000Y-95647000D03*
X65934000Y-95647000D03*
D15*
X64634000Y-94347000D03*
X64634000Y-93847000D03*
X64634000Y-93347000D03*
X64634000Y-92847000D03*
X64634000Y-92347000D03*
X64634000Y-91847000D03*
X64634000Y-91347000D03*
X64634000Y-90847000D03*
X64634000Y-90347000D03*
X64634000Y-89847000D03*
X64634000Y-89347000D03*
X64634000Y-88847000D03*
X56065000Y-112466800D03*
X56065000Y-111966800D03*
X56065000Y-111466800D03*
X56065000Y-110966800D03*
X56065000Y-110466800D03*
X56065000Y-109966800D03*
X56065000Y-109466800D03*
X56065000Y-108966800D03*
X56065000Y-108466800D03*
X56065000Y-107966800D03*
X56065000Y-107466800D03*
X56065000Y-106966800D03*
X56065000Y-106466800D03*
X56065000Y-105966800D03*
X56065000Y-105466800D03*
X56065000Y-104966800D03*
D16*
X57865000Y-103166800D03*
X58365000Y-103166800D03*
X58865000Y-103166800D03*
X59365000Y-103166800D03*
X59865000Y-103166800D03*
X60365000Y-103166800D03*
X60865000Y-103166800D03*
X61365000Y-103166800D03*
X61865000Y-103166800D03*
X62365000Y-103166800D03*
X62865000Y-103166800D03*
X63365000Y-103166800D03*
X63865000Y-103166800D03*
X64365000Y-103166800D03*
X64865000Y-103166800D03*
X65365000Y-103166800D03*
D15*
X67165000Y-104966800D03*
X67165000Y-105466800D03*
X67165000Y-105966800D03*
X67165000Y-106466800D03*
X67165000Y-106966800D03*
X67165000Y-107466800D03*
X67165000Y-107966800D03*
X67165000Y-108466800D03*
X67165000Y-108966800D03*
X67165000Y-109466800D03*
X67165000Y-109966800D03*
X67165000Y-110466800D03*
X67165000Y-110966800D03*
X67165000Y-111466800D03*
X67165000Y-111966800D03*
X67165000Y-112466800D03*
D16*
X65365000Y-114266800D03*
X64865000Y-114266800D03*
X64365000Y-114266800D03*
X63865000Y-114266800D03*
X63365000Y-114266800D03*
X62865000Y-114266800D03*
X62365000Y-114266800D03*
X61865000Y-114266800D03*
X61365000Y-114266800D03*
X60865000Y-114266800D03*
X60365000Y-114266800D03*
X59865000Y-114266800D03*
X59365000Y-114266800D03*
X58865000Y-114266800D03*
X58365000Y-114266800D03*
X57865000Y-114266800D03*
G36*
G01*
X85092000Y-122622000D02*
X83392000Y-122622000D01*
G75*
G02*
X83341000Y-122571000I0J51000D01*
G01*
X83341000Y-120871000D01*
G75*
G02*
X83392000Y-120820000I51000J0D01*
G01*
X85092000Y-120820000D01*
G75*
G02*
X85143000Y-120871000I0J-51000D01*
G01*
X85143000Y-122571000D01*
G75*
G02*
X85092000Y-122622000I-51000J0D01*
G01*
G37*
D20*
X86782000Y-121721000D03*
X84242000Y-119181000D03*
X86782000Y-119181000D03*
X84242000Y-116641000D03*
X86782000Y-116641000D03*
X84242000Y-114101000D03*
X86782000Y-114101000D03*
X84242000Y-111561000D03*
X86782000Y-111561000D03*
G36*
G01*
X97254000Y-141590000D02*
X97254000Y-140610000D01*
G75*
G02*
X97305000Y-140559000I51000J0D01*
G01*
X98235000Y-140559000D01*
G75*
G02*
X98286000Y-140610000I0J-51000D01*
G01*
X98286000Y-141590000D01*
G75*
G02*
X98235000Y-141641000I-51000J0D01*
G01*
X97305000Y-141641000D01*
G75*
G02*
X97254000Y-141590000I0J51000D01*
G01*
G37*
G36*
G01*
X95714000Y-141590000D02*
X95714000Y-140610000D01*
G75*
G02*
X95765000Y-140559000I51000J0D01*
G01*
X96695000Y-140559000D01*
G75*
G02*
X96746000Y-140610000I0J-51000D01*
G01*
X96746000Y-141590000D01*
G75*
G02*
X96695000Y-141641000I-51000J0D01*
G01*
X95765000Y-141641000D01*
G75*
G02*
X95714000Y-141590000I0J51000D01*
G01*
G37*
G36*
G01*
X115746000Y-105010000D02*
X115746000Y-105990000D01*
G75*
G02*
X115695000Y-106041000I-51000J0D01*
G01*
X114765000Y-106041000D01*
G75*
G02*
X114714000Y-105990000I0J51000D01*
G01*
X114714000Y-105010000D01*
G75*
G02*
X114765000Y-104959000I51000J0D01*
G01*
X115695000Y-104959000D01*
G75*
G02*
X115746000Y-105010000I0J-51000D01*
G01*
G37*
G36*
G01*
X117286000Y-105010000D02*
X117286000Y-105990000D01*
G75*
G02*
X117235000Y-106041000I-51000J0D01*
G01*
X116305000Y-106041000D01*
G75*
G02*
X116254000Y-105990000I0J51000D01*
G01*
X116254000Y-105010000D01*
G75*
G02*
X116305000Y-104959000I51000J0D01*
G01*
X117235000Y-104959000D01*
G75*
G02*
X117286000Y-105010000I0J-51000D01*
G01*
G37*
G36*
G01*
X93760000Y-139584000D02*
X94740000Y-139584000D01*
G75*
G02*
X94791000Y-139635000I0J-51000D01*
G01*
X94791000Y-140565000D01*
G75*
G02*
X94740000Y-140616000I-51000J0D01*
G01*
X93760000Y-140616000D01*
G75*
G02*
X93709000Y-140565000I0J51000D01*
G01*
X93709000Y-139635000D01*
G75*
G02*
X93760000Y-139584000I51000J0D01*
G01*
G37*
G36*
G01*
X93760000Y-138044000D02*
X94740000Y-138044000D01*
G75*
G02*
X94791000Y-138095000I0J-51000D01*
G01*
X94791000Y-139025000D01*
G75*
G02*
X94740000Y-139076000I-51000J0D01*
G01*
X93760000Y-139076000D01*
G75*
G02*
X93709000Y-139025000I0J51000D01*
G01*
X93709000Y-138095000D01*
G75*
G02*
X93760000Y-138044000I51000J0D01*
G01*
G37*
G36*
G01*
X48791000Y-97210000D02*
X47811000Y-97210000D01*
G75*
G02*
X47760000Y-97159000I0J51000D01*
G01*
X47760000Y-96229000D01*
G75*
G02*
X47811000Y-96178000I51000J0D01*
G01*
X48791000Y-96178000D01*
G75*
G02*
X48842000Y-96229000I0J-51000D01*
G01*
X48842000Y-97159000D01*
G75*
G02*
X48791000Y-97210000I-51000J0D01*
G01*
G37*
G36*
G01*
X48791000Y-98750000D02*
X47811000Y-98750000D01*
G75*
G02*
X47760000Y-98699000I0J51000D01*
G01*
X47760000Y-97769000D01*
G75*
G02*
X47811000Y-97718000I51000J0D01*
G01*
X48791000Y-97718000D01*
G75*
G02*
X48842000Y-97769000I0J-51000D01*
G01*
X48842000Y-98699000D01*
G75*
G02*
X48791000Y-98750000I-51000J0D01*
G01*
G37*
G36*
G01*
X52111000Y-116242000D02*
X52111000Y-115262000D01*
G75*
G02*
X52162000Y-115211000I51000J0D01*
G01*
X53092000Y-115211000D01*
G75*
G02*
X53143000Y-115262000I0J-51000D01*
G01*
X53143000Y-116242000D01*
G75*
G02*
X53092000Y-116293000I-51000J0D01*
G01*
X52162000Y-116293000D01*
G75*
G02*
X52111000Y-116242000I0J51000D01*
G01*
G37*
G36*
G01*
X50571000Y-116242000D02*
X50571000Y-115262000D01*
G75*
G02*
X50622000Y-115211000I51000J0D01*
G01*
X51552000Y-115211000D01*
G75*
G02*
X51603000Y-115262000I0J-51000D01*
G01*
X51603000Y-116242000D01*
G75*
G02*
X51552000Y-116293000I-51000J0D01*
G01*
X50622000Y-116293000D01*
G75*
G02*
X50571000Y-116242000I0J51000D01*
G01*
G37*
G36*
G01*
X67351000Y-85889000D02*
X67351000Y-84909000D01*
G75*
G02*
X67402000Y-84858000I51000J0D01*
G01*
X68332000Y-84858000D01*
G75*
G02*
X68383000Y-84909000I0J-51000D01*
G01*
X68383000Y-85889000D01*
G75*
G02*
X68332000Y-85940000I-51000J0D01*
G01*
X67402000Y-85940000D01*
G75*
G02*
X67351000Y-85889000I0J51000D01*
G01*
G37*
G36*
G01*
X65811000Y-85889000D02*
X65811000Y-84909000D01*
G75*
G02*
X65862000Y-84858000I51000J0D01*
G01*
X66792000Y-84858000D01*
G75*
G02*
X66843000Y-84909000I0J-51000D01*
G01*
X66843000Y-85889000D01*
G75*
G02*
X66792000Y-85940000I-51000J0D01*
G01*
X65862000Y-85940000D01*
G75*
G02*
X65811000Y-85889000I0J51000D01*
G01*
G37*
G36*
G01*
X62246000Y-124010000D02*
X62246000Y-124990000D01*
G75*
G02*
X62195000Y-125041000I-51000J0D01*
G01*
X61265000Y-125041000D01*
G75*
G02*
X61214000Y-124990000I0J51000D01*
G01*
X61214000Y-124010000D01*
G75*
G02*
X61265000Y-123959000I51000J0D01*
G01*
X62195000Y-123959000D01*
G75*
G02*
X62246000Y-124010000I0J-51000D01*
G01*
G37*
G36*
G01*
X63786000Y-124010000D02*
X63786000Y-124990000D01*
G75*
G02*
X63735000Y-125041000I-51000J0D01*
G01*
X62805000Y-125041000D01*
G75*
G02*
X62754000Y-124990000I0J51000D01*
G01*
X62754000Y-124010000D01*
G75*
G02*
X62805000Y-123959000I51000J0D01*
G01*
X63735000Y-123959000D01*
G75*
G02*
X63786000Y-124010000I0J-51000D01*
G01*
G37*
G36*
G01*
X58746000Y-125010000D02*
X58746000Y-125990000D01*
G75*
G02*
X58695000Y-126041000I-51000J0D01*
G01*
X57765000Y-126041000D01*
G75*
G02*
X57714000Y-125990000I0J51000D01*
G01*
X57714000Y-125010000D01*
G75*
G02*
X57765000Y-124959000I51000J0D01*
G01*
X58695000Y-124959000D01*
G75*
G02*
X58746000Y-125010000I0J-51000D01*
G01*
G37*
G36*
G01*
X60286000Y-125010000D02*
X60286000Y-125990000D01*
G75*
G02*
X60235000Y-126041000I-51000J0D01*
G01*
X59305000Y-126041000D01*
G75*
G02*
X59254000Y-125990000I0J51000D01*
G01*
X59254000Y-125010000D01*
G75*
G02*
X59305000Y-124959000I51000J0D01*
G01*
X60235000Y-124959000D01*
G75*
G02*
X60286000Y-125010000I0J-51000D01*
G01*
G37*
G36*
G01*
X56048000Y-140633999D02*
X56048000Y-139653999D01*
G75*
G02*
X56099000Y-139602999I51000J0D01*
G01*
X57029000Y-139602999D01*
G75*
G02*
X57080000Y-139653999I0J-51000D01*
G01*
X57080000Y-140633999D01*
G75*
G02*
X57029000Y-140684999I-51000J0D01*
G01*
X56099000Y-140684999D01*
G75*
G02*
X56048000Y-140633999I0J51000D01*
G01*
G37*
G36*
G01*
X54508000Y-140633999D02*
X54508000Y-139653999D01*
G75*
G02*
X54559000Y-139602999I51000J0D01*
G01*
X55489000Y-139602999D01*
G75*
G02*
X55540000Y-139653999I0J-51000D01*
G01*
X55540000Y-140633999D01*
G75*
G02*
X55489000Y-140684999I-51000J0D01*
G01*
X54559000Y-140684999D01*
G75*
G02*
X54508000Y-140633999I0J51000D01*
G01*
G37*
G36*
G01*
X67490000Y-139628000D02*
X66510000Y-139628000D01*
G75*
G02*
X66459000Y-139577000I0J51000D01*
G01*
X66459000Y-138647000D01*
G75*
G02*
X66510000Y-138596000I51000J0D01*
G01*
X67490000Y-138596000D01*
G75*
G02*
X67541000Y-138647000I0J-51000D01*
G01*
X67541000Y-139577000D01*
G75*
G02*
X67490000Y-139628000I-51000J0D01*
G01*
G37*
G36*
G01*
X67490000Y-141168000D02*
X66510000Y-141168000D01*
G75*
G02*
X66459000Y-141117000I0J51000D01*
G01*
X66459000Y-140187000D01*
G75*
G02*
X66510000Y-140136000I51000J0D01*
G01*
X67490000Y-140136000D01*
G75*
G02*
X67541000Y-140187000I0J-51000D01*
G01*
X67541000Y-141117000D01*
G75*
G02*
X67490000Y-141168000I-51000J0D01*
G01*
G37*
G36*
G01*
X57746001Y-133010000D02*
X57746001Y-133990000D01*
G75*
G02*
X57695001Y-134041000I-51000J0D01*
G01*
X56765001Y-134041000D01*
G75*
G02*
X56714001Y-133990000I0J51000D01*
G01*
X56714001Y-133010000D01*
G75*
G02*
X56765001Y-132959000I51000J0D01*
G01*
X57695001Y-132959000D01*
G75*
G02*
X57746001Y-133010000I0J-51000D01*
G01*
G37*
G36*
G01*
X59286001Y-133010000D02*
X59286001Y-133990000D01*
G75*
G02*
X59235001Y-134041000I-51000J0D01*
G01*
X58305001Y-134041000D01*
G75*
G02*
X58254001Y-133990000I0J51000D01*
G01*
X58254001Y-133010000D01*
G75*
G02*
X58305001Y-132959000I51000J0D01*
G01*
X59235001Y-132959000D01*
G75*
G02*
X59286001Y-133010000I0J-51000D01*
G01*
G37*
G36*
G01*
X54746000Y-125010000D02*
X54746000Y-125990000D01*
G75*
G02*
X54695000Y-126041000I-51000J0D01*
G01*
X53765000Y-126041000D01*
G75*
G02*
X53714000Y-125990000I0J51000D01*
G01*
X53714000Y-125010000D01*
G75*
G02*
X53765000Y-124959000I51000J0D01*
G01*
X54695000Y-124959000D01*
G75*
G02*
X54746000Y-125010000I0J-51000D01*
G01*
G37*
G36*
G01*
X56286000Y-125010000D02*
X56286000Y-125990000D01*
G75*
G02*
X56235000Y-126041000I-51000J0D01*
G01*
X55305000Y-126041000D01*
G75*
G02*
X55254000Y-125990000I0J51000D01*
G01*
X55254000Y-125010000D01*
G75*
G02*
X55305000Y-124959000I51000J0D01*
G01*
X56235000Y-124959000D01*
G75*
G02*
X56286000Y-125010000I0J-51000D01*
G01*
G37*
G36*
G01*
X88910000Y-63936000D02*
X89890000Y-63936000D01*
G75*
G02*
X89941000Y-63987000I0J-51000D01*
G01*
X89941000Y-64917000D01*
G75*
G02*
X89890000Y-64968000I-51000J0D01*
G01*
X88910000Y-64968000D01*
G75*
G02*
X88859000Y-64917000I0J51000D01*
G01*
X88859000Y-63987000D01*
G75*
G02*
X88910000Y-63936000I51000J0D01*
G01*
G37*
G36*
G01*
X88910000Y-62396000D02*
X89890000Y-62396000D01*
G75*
G02*
X89941000Y-62447000I0J-51000D01*
G01*
X89941000Y-63377000D01*
G75*
G02*
X89890000Y-63428000I-51000J0D01*
G01*
X88910000Y-63428000D01*
G75*
G02*
X88859000Y-63377000I0J51000D01*
G01*
X88859000Y-62447000D01*
G75*
G02*
X88910000Y-62396000I51000J0D01*
G01*
G37*
G36*
G01*
X104689000Y-78015000D02*
X104689000Y-77035000D01*
G75*
G02*
X104740000Y-76984000I51000J0D01*
G01*
X105670000Y-76984000D01*
G75*
G02*
X105721000Y-77035000I0J-51000D01*
G01*
X105721000Y-78015000D01*
G75*
G02*
X105670000Y-78066000I-51000J0D01*
G01*
X104740000Y-78066000D01*
G75*
G02*
X104689000Y-78015000I0J51000D01*
G01*
G37*
G36*
G01*
X103149000Y-78015000D02*
X103149000Y-77035000D01*
G75*
G02*
X103200000Y-76984000I51000J0D01*
G01*
X104130000Y-76984000D01*
G75*
G02*
X104181000Y-77035000I0J-51000D01*
G01*
X104181000Y-78015000D01*
G75*
G02*
X104130000Y-78066000I-51000J0D01*
G01*
X103200000Y-78066000D01*
G75*
G02*
X103149000Y-78015000I0J51000D01*
G01*
G37*
G36*
G01*
X101386999Y-78015000D02*
X101386999Y-77035000D01*
G75*
G02*
X101437999Y-76984000I51000J0D01*
G01*
X102367999Y-76984000D01*
G75*
G02*
X102418999Y-77035000I0J-51000D01*
G01*
X102418999Y-78015000D01*
G75*
G02*
X102367999Y-78066000I-51000J0D01*
G01*
X101437999Y-78066000D01*
G75*
G02*
X101386999Y-78015000I0J51000D01*
G01*
G37*
G36*
G01*
X99846999Y-78015000D02*
X99846999Y-77035000D01*
G75*
G02*
X99897999Y-76984000I51000J0D01*
G01*
X100827999Y-76984000D01*
G75*
G02*
X100878999Y-77035000I0J-51000D01*
G01*
X100878999Y-78015000D01*
G75*
G02*
X100827999Y-78066000I-51000J0D01*
G01*
X99897999Y-78066000D01*
G75*
G02*
X99846999Y-78015000I0J51000D01*
G01*
G37*
G36*
G01*
X102385000Y-105465000D02*
X101405000Y-105465000D01*
G75*
G02*
X101354000Y-105414000I0J51000D01*
G01*
X101354000Y-104484000D01*
G75*
G02*
X101405000Y-104433000I51000J0D01*
G01*
X102385000Y-104433000D01*
G75*
G02*
X102436000Y-104484000I0J-51000D01*
G01*
X102436000Y-105414000D01*
G75*
G02*
X102385000Y-105465000I-51000J0D01*
G01*
G37*
G36*
G01*
X102385000Y-107005000D02*
X101405000Y-107005000D01*
G75*
G02*
X101354000Y-106954000I0J51000D01*
G01*
X101354000Y-106024000D01*
G75*
G02*
X101405000Y-105973000I51000J0D01*
G01*
X102385000Y-105973000D01*
G75*
G02*
X102436000Y-106024000I0J-51000D01*
G01*
X102436000Y-106954000D01*
G75*
G02*
X102385000Y-107005000I-51000J0D01*
G01*
G37*
G36*
G01*
X107554000Y-114090000D02*
X107554000Y-113110000D01*
G75*
G02*
X107605000Y-113059000I51000J0D01*
G01*
X108535000Y-113059000D01*
G75*
G02*
X108586000Y-113110000I0J-51000D01*
G01*
X108586000Y-114090000D01*
G75*
G02*
X108535000Y-114141000I-51000J0D01*
G01*
X107605000Y-114141000D01*
G75*
G02*
X107554000Y-114090000I0J51000D01*
G01*
G37*
G36*
G01*
X106014000Y-114090000D02*
X106014000Y-113110000D01*
G75*
G02*
X106065000Y-113059000I51000J0D01*
G01*
X106995000Y-113059000D01*
G75*
G02*
X107046000Y-113110000I0J-51000D01*
G01*
X107046000Y-114090000D01*
G75*
G02*
X106995000Y-114141000I-51000J0D01*
G01*
X106065000Y-114141000D01*
G75*
G02*
X106014000Y-114090000I0J51000D01*
G01*
G37*
G36*
G01*
X107584000Y-124990000D02*
X107584000Y-124010000D01*
G75*
G02*
X107635000Y-123959000I51000J0D01*
G01*
X108565000Y-123959000D01*
G75*
G02*
X108616000Y-124010000I0J-51000D01*
G01*
X108616000Y-124990000D01*
G75*
G02*
X108565000Y-125041000I-51000J0D01*
G01*
X107635000Y-125041000D01*
G75*
G02*
X107584000Y-124990000I0J51000D01*
G01*
G37*
G36*
G01*
X106044000Y-124990000D02*
X106044000Y-124010000D01*
G75*
G02*
X106095000Y-123959000I51000J0D01*
G01*
X107025000Y-123959000D01*
G75*
G02*
X107076000Y-124010000I0J-51000D01*
G01*
X107076000Y-124990000D01*
G75*
G02*
X107025000Y-125041000I-51000J0D01*
G01*
X106095000Y-125041000D01*
G75*
G02*
X106044000Y-124990000I0J51000D01*
G01*
G37*
G36*
G01*
X104290001Y-105465000D02*
X103310001Y-105465000D01*
G75*
G02*
X103259001Y-105414000I0J51000D01*
G01*
X103259001Y-104484000D01*
G75*
G02*
X103310001Y-104433000I51000J0D01*
G01*
X104290001Y-104433000D01*
G75*
G02*
X104341001Y-104484000I0J-51000D01*
G01*
X104341001Y-105414000D01*
G75*
G02*
X104290001Y-105465000I-51000J0D01*
G01*
G37*
G36*
G01*
X104290001Y-107005000D02*
X103310001Y-107005000D01*
G75*
G02*
X103259001Y-106954000I0J51000D01*
G01*
X103259001Y-106024000D01*
G75*
G02*
X103310001Y-105973000I51000J0D01*
G01*
X104290001Y-105973000D01*
G75*
G02*
X104341001Y-106024000I0J-51000D01*
G01*
X104341001Y-106954000D01*
G75*
G02*
X104290001Y-107005000I-51000J0D01*
G01*
G37*
G36*
G01*
X107554000Y-116240000D02*
X107554000Y-115260000D01*
G75*
G02*
X107605000Y-115209000I51000J0D01*
G01*
X108535000Y-115209000D01*
G75*
G02*
X108586000Y-115260000I0J-51000D01*
G01*
X108586000Y-116240000D01*
G75*
G02*
X108535000Y-116291000I-51000J0D01*
G01*
X107605000Y-116291000D01*
G75*
G02*
X107554000Y-116240000I0J51000D01*
G01*
G37*
G36*
G01*
X106014000Y-116240000D02*
X106014000Y-115260000D01*
G75*
G02*
X106065000Y-115209000I51000J0D01*
G01*
X106995000Y-115209000D01*
G75*
G02*
X107046000Y-115260000I0J-51000D01*
G01*
X107046000Y-116240000D01*
G75*
G02*
X106995000Y-116291000I-51000J0D01*
G01*
X106065000Y-116291000D01*
G75*
G02*
X106014000Y-116240000I0J51000D01*
G01*
G37*
G36*
G01*
X107554000Y-118390000D02*
X107554000Y-117410000D01*
G75*
G02*
X107605000Y-117359000I51000J0D01*
G01*
X108535000Y-117359000D01*
G75*
G02*
X108586000Y-117410000I0J-51000D01*
G01*
X108586000Y-118390000D01*
G75*
G02*
X108535000Y-118441000I-51000J0D01*
G01*
X107605000Y-118441000D01*
G75*
G02*
X107554000Y-118390000I0J51000D01*
G01*
G37*
G36*
G01*
X106014000Y-118390000D02*
X106014000Y-117410000D01*
G75*
G02*
X106065000Y-117359000I51000J0D01*
G01*
X106995000Y-117359000D01*
G75*
G02*
X107046000Y-117410000I0J-51000D01*
G01*
X107046000Y-118390000D01*
G75*
G02*
X106995000Y-118441000I-51000J0D01*
G01*
X106065000Y-118441000D01*
G75*
G02*
X106014000Y-118390000I0J51000D01*
G01*
G37*
G36*
G01*
X50097000Y-97464000D02*
X51077000Y-97464000D01*
G75*
G02*
X51128000Y-97515000I0J-51000D01*
G01*
X51128000Y-98445000D01*
G75*
G02*
X51077000Y-98496000I-51000J0D01*
G01*
X50097000Y-98496000D01*
G75*
G02*
X50046000Y-98445000I0J51000D01*
G01*
X50046000Y-97515000D01*
G75*
G02*
X50097000Y-97464000I51000J0D01*
G01*
G37*
G36*
G01*
X50097000Y-95924000D02*
X51077000Y-95924000D01*
G75*
G02*
X51128000Y-95975000I0J-51000D01*
G01*
X51128000Y-96905000D01*
G75*
G02*
X51077000Y-96956000I-51000J0D01*
G01*
X50097000Y-96956000D01*
G75*
G02*
X50046000Y-96905000I0J51000D01*
G01*
X50046000Y-95975000D01*
G75*
G02*
X50097000Y-95924000I51000J0D01*
G01*
G37*
G36*
G01*
X61890000Y-95033000D02*
X61890000Y-94053000D01*
G75*
G02*
X61941000Y-94002000I51000J0D01*
G01*
X62871000Y-94002000D01*
G75*
G02*
X62922000Y-94053000I0J-51000D01*
G01*
X62922000Y-95033000D01*
G75*
G02*
X62871000Y-95084000I-51000J0D01*
G01*
X61941000Y-95084000D01*
G75*
G02*
X61890000Y-95033000I0J51000D01*
G01*
G37*
G36*
G01*
X60350000Y-95033000D02*
X60350000Y-94053000D01*
G75*
G02*
X60401000Y-94002000I51000J0D01*
G01*
X61331000Y-94002000D01*
G75*
G02*
X61382000Y-94053000I0J-51000D01*
G01*
X61382000Y-95033000D01*
G75*
G02*
X61331000Y-95084000I-51000J0D01*
G01*
X60401000Y-95084000D01*
G75*
G02*
X60350000Y-95033000I0J51000D01*
G01*
G37*
G36*
G01*
X51303000Y-68254000D02*
X52283000Y-68254000D01*
G75*
G02*
X52334000Y-68305000I0J-51000D01*
G01*
X52334000Y-69235000D01*
G75*
G02*
X52283000Y-69286000I-51000J0D01*
G01*
X51303000Y-69286000D01*
G75*
G02*
X51252000Y-69235000I0J51000D01*
G01*
X51252000Y-68305000D01*
G75*
G02*
X51303000Y-68254000I51000J0D01*
G01*
G37*
G36*
G01*
X51303000Y-66714000D02*
X52283000Y-66714000D01*
G75*
G02*
X52334000Y-66765000I0J-51000D01*
G01*
X52334000Y-67695000D01*
G75*
G02*
X52283000Y-67746000I-51000J0D01*
G01*
X51303000Y-67746000D01*
G75*
G02*
X51252000Y-67695000I0J51000D01*
G01*
X51252000Y-66765000D01*
G75*
G02*
X51303000Y-66714000I51000J0D01*
G01*
G37*
G36*
G01*
X53588999Y-64571000D02*
X54568999Y-64571000D01*
G75*
G02*
X54619999Y-64622000I0J-51000D01*
G01*
X54619999Y-65552000D01*
G75*
G02*
X54568999Y-65603000I-51000J0D01*
G01*
X53588999Y-65603000D01*
G75*
G02*
X53537999Y-65552000I0J51000D01*
G01*
X53537999Y-64622000D01*
G75*
G02*
X53588999Y-64571000I51000J0D01*
G01*
G37*
G36*
G01*
X53588999Y-63031000D02*
X54568999Y-63031000D01*
G75*
G02*
X54619999Y-63082000I0J-51000D01*
G01*
X54619999Y-64012000D01*
G75*
G02*
X54568999Y-64063000I-51000J0D01*
G01*
X53588999Y-64063000D01*
G75*
G02*
X53537999Y-64012000I0J51000D01*
G01*
X53537999Y-63082000D01*
G75*
G02*
X53588999Y-63031000I51000J0D01*
G01*
G37*
G36*
G01*
X57653000Y-68254000D02*
X58633000Y-68254000D01*
G75*
G02*
X58684000Y-68305000I0J-51000D01*
G01*
X58684000Y-69235000D01*
G75*
G02*
X58633000Y-69286000I-51000J0D01*
G01*
X57653000Y-69286000D01*
G75*
G02*
X57602000Y-69235000I0J51000D01*
G01*
X57602000Y-68305000D01*
G75*
G02*
X57653000Y-68254000I51000J0D01*
G01*
G37*
G36*
G01*
X57653000Y-66714000D02*
X58633000Y-66714000D01*
G75*
G02*
X58684000Y-66765000I0J-51000D01*
G01*
X58684000Y-67695000D01*
G75*
G02*
X58633000Y-67746000I-51000J0D01*
G01*
X57653000Y-67746000D01*
G75*
G02*
X57602000Y-67695000I0J51000D01*
G01*
X57602000Y-66765000D01*
G75*
G02*
X57653000Y-66714000I51000J0D01*
G01*
G37*
G36*
G01*
X60193000Y-64825000D02*
X61173000Y-64825000D01*
G75*
G02*
X61224000Y-64876000I0J-51000D01*
G01*
X61224000Y-65806000D01*
G75*
G02*
X61173000Y-65857000I-51000J0D01*
G01*
X60193000Y-65857000D01*
G75*
G02*
X60142000Y-65806000I0J51000D01*
G01*
X60142000Y-64876000D01*
G75*
G02*
X60193000Y-64825000I51000J0D01*
G01*
G37*
G36*
G01*
X60193000Y-63285000D02*
X61173000Y-63285000D01*
G75*
G02*
X61224000Y-63336000I0J-51000D01*
G01*
X61224000Y-64266000D01*
G75*
G02*
X61173000Y-64317000I-51000J0D01*
G01*
X60193000Y-64317000D01*
G75*
G02*
X60142000Y-64266000I0J51000D01*
G01*
X60142000Y-63336000D01*
G75*
G02*
X60193000Y-63285000I51000J0D01*
G01*
G37*
G36*
G01*
X64384001Y-68508000D02*
X65364001Y-68508000D01*
G75*
G02*
X65415001Y-68559000I0J-51000D01*
G01*
X65415001Y-69489000D01*
G75*
G02*
X65364001Y-69540000I-51000J0D01*
G01*
X64384001Y-69540000D01*
G75*
G02*
X64333001Y-69489000I0J51000D01*
G01*
X64333001Y-68559000D01*
G75*
G02*
X64384001Y-68508000I51000J0D01*
G01*
G37*
G36*
G01*
X64384001Y-66968000D02*
X65364001Y-66968000D01*
G75*
G02*
X65415001Y-67019000I0J-51000D01*
G01*
X65415001Y-67949000D01*
G75*
G02*
X65364001Y-68000000I-51000J0D01*
G01*
X64384001Y-68000000D01*
G75*
G02*
X64333001Y-67949000I0J51000D01*
G01*
X64333001Y-67019000D01*
G75*
G02*
X64384001Y-66968000I51000J0D01*
G01*
G37*
G36*
G01*
X66797000Y-64825000D02*
X67777000Y-64825000D01*
G75*
G02*
X67828000Y-64876000I0J-51000D01*
G01*
X67828000Y-65806000D01*
G75*
G02*
X67777000Y-65857000I-51000J0D01*
G01*
X66797000Y-65857000D01*
G75*
G02*
X66746000Y-65806000I0J51000D01*
G01*
X66746000Y-64876000D01*
G75*
G02*
X66797000Y-64825000I51000J0D01*
G01*
G37*
G36*
G01*
X66797000Y-63285000D02*
X67777000Y-63285000D01*
G75*
G02*
X67828000Y-63336000I0J-51000D01*
G01*
X67828000Y-64266000D01*
G75*
G02*
X67777000Y-64317000I-51000J0D01*
G01*
X66797000Y-64317000D01*
G75*
G02*
X66746000Y-64266000I0J51000D01*
G01*
X66746000Y-63336000D01*
G75*
G02*
X66797000Y-63285000I51000J0D01*
G01*
G37*
G36*
G01*
X71115000Y-68635000D02*
X72095000Y-68635000D01*
G75*
G02*
X72146000Y-68686000I0J-51000D01*
G01*
X72146000Y-69616000D01*
G75*
G02*
X72095000Y-69667000I-51000J0D01*
G01*
X71115000Y-69667000D01*
G75*
G02*
X71064000Y-69616000I0J51000D01*
G01*
X71064000Y-68686000D01*
G75*
G02*
X71115000Y-68635000I51000J0D01*
G01*
G37*
G36*
G01*
X71115000Y-67095000D02*
X72095000Y-67095000D01*
G75*
G02*
X72146000Y-67146000I0J-51000D01*
G01*
X72146000Y-68076000D01*
G75*
G02*
X72095000Y-68127000I-51000J0D01*
G01*
X71115000Y-68127000D01*
G75*
G02*
X71064000Y-68076000I0J51000D01*
G01*
X71064000Y-67146000D01*
G75*
G02*
X71115000Y-67095000I51000J0D01*
G01*
G37*
G36*
G01*
X73528000Y-65087001D02*
X74508000Y-65087001D01*
G75*
G02*
X74559000Y-65138001I0J-51000D01*
G01*
X74559000Y-66068001D01*
G75*
G02*
X74508000Y-66119001I-51000J0D01*
G01*
X73528000Y-66119001D01*
G75*
G02*
X73477000Y-66068001I0J51000D01*
G01*
X73477000Y-65138001D01*
G75*
G02*
X73528000Y-65087001I51000J0D01*
G01*
G37*
G36*
G01*
X73528000Y-63547001D02*
X74508000Y-63547001D01*
G75*
G02*
X74559000Y-63598001I0J-51000D01*
G01*
X74559000Y-64528001D01*
G75*
G02*
X74508000Y-64579001I-51000J0D01*
G01*
X73528000Y-64579001D01*
G75*
G02*
X73477000Y-64528001I0J51000D01*
G01*
X73477000Y-63598001D01*
G75*
G02*
X73528000Y-63547001I51000J0D01*
G01*
G37*
G36*
G01*
X77719000Y-68635000D02*
X78699000Y-68635000D01*
G75*
G02*
X78750000Y-68686000I0J-51000D01*
G01*
X78750000Y-69616000D01*
G75*
G02*
X78699000Y-69667000I-51000J0D01*
G01*
X77719000Y-69667000D01*
G75*
G02*
X77668000Y-69616000I0J51000D01*
G01*
X77668000Y-68686000D01*
G75*
G02*
X77719000Y-68635000I51000J0D01*
G01*
G37*
G36*
G01*
X77719000Y-67095000D02*
X78699000Y-67095000D01*
G75*
G02*
X78750000Y-67146000I0J-51000D01*
G01*
X78750000Y-68076000D01*
G75*
G02*
X78699000Y-68127000I-51000J0D01*
G01*
X77719000Y-68127000D01*
G75*
G02*
X77668000Y-68076000I0J51000D01*
G01*
X77668000Y-67146000D01*
G75*
G02*
X77719000Y-67095000I51000J0D01*
G01*
G37*
G36*
G01*
X80259000Y-65079000D02*
X81239000Y-65079000D01*
G75*
G02*
X81290000Y-65130000I0J-51000D01*
G01*
X81290000Y-66060000D01*
G75*
G02*
X81239000Y-66111000I-51000J0D01*
G01*
X80259000Y-66111000D01*
G75*
G02*
X80208000Y-66060000I0J51000D01*
G01*
X80208000Y-65130000D01*
G75*
G02*
X80259000Y-65079000I51000J0D01*
G01*
G37*
G36*
G01*
X80259000Y-63539000D02*
X81239000Y-63539000D01*
G75*
G02*
X81290000Y-63590000I0J-51000D01*
G01*
X81290000Y-64520000D01*
G75*
G02*
X81239000Y-64571000I-51000J0D01*
G01*
X80259000Y-64571000D01*
G75*
G02*
X80208000Y-64520000I0J51000D01*
G01*
X80208000Y-63590000D01*
G75*
G02*
X80259000Y-63539000I51000J0D01*
G01*
G37*
G36*
G01*
X83942000Y-68762000D02*
X84922000Y-68762000D01*
G75*
G02*
X84973000Y-68813000I0J-51000D01*
G01*
X84973000Y-69743000D01*
G75*
G02*
X84922000Y-69794000I-51000J0D01*
G01*
X83942000Y-69794000D01*
G75*
G02*
X83891000Y-69743000I0J51000D01*
G01*
X83891000Y-68813000D01*
G75*
G02*
X83942000Y-68762000I51000J0D01*
G01*
G37*
G36*
G01*
X83942000Y-67222000D02*
X84922000Y-67222000D01*
G75*
G02*
X84973000Y-67273000I0J-51000D01*
G01*
X84973000Y-68203000D01*
G75*
G02*
X84922000Y-68254000I-51000J0D01*
G01*
X83942000Y-68254000D01*
G75*
G02*
X83891000Y-68203000I0J51000D01*
G01*
X83891000Y-67273000D01*
G75*
G02*
X83942000Y-67222000I51000J0D01*
G01*
G37*
G36*
G01*
X86736000Y-65127000D02*
X87716000Y-65127000D01*
G75*
G02*
X87767000Y-65178000I0J-51000D01*
G01*
X87767000Y-66108000D01*
G75*
G02*
X87716000Y-66159000I-51000J0D01*
G01*
X86736000Y-66159000D01*
G75*
G02*
X86685000Y-66108000I0J51000D01*
G01*
X86685000Y-65178000D01*
G75*
G02*
X86736000Y-65127000I51000J0D01*
G01*
G37*
G36*
G01*
X86736000Y-63587000D02*
X87716000Y-63587000D01*
G75*
G02*
X87767000Y-63638000I0J-51000D01*
G01*
X87767000Y-64568000D01*
G75*
G02*
X87716000Y-64619000I-51000J0D01*
G01*
X86736000Y-64619000D01*
G75*
G02*
X86685000Y-64568000I0J51000D01*
G01*
X86685000Y-63638000D01*
G75*
G02*
X86736000Y-63587000I51000J0D01*
G01*
G37*
G36*
G01*
X116746000Y-92010000D02*
X116746000Y-92990000D01*
G75*
G02*
X116695000Y-93041000I-51000J0D01*
G01*
X115765000Y-93041000D01*
G75*
G02*
X115714000Y-92990000I0J51000D01*
G01*
X115714000Y-92010000D01*
G75*
G02*
X115765000Y-91959000I51000J0D01*
G01*
X116695000Y-91959000D01*
G75*
G02*
X116746000Y-92010000I0J-51000D01*
G01*
G37*
G36*
G01*
X118286000Y-92010000D02*
X118286000Y-92990000D01*
G75*
G02*
X118235000Y-93041000I-51000J0D01*
G01*
X117305000Y-93041000D01*
G75*
G02*
X117254000Y-92990000I0J51000D01*
G01*
X117254000Y-92010000D01*
G75*
G02*
X117305000Y-91959000I51000J0D01*
G01*
X118235000Y-91959000D01*
G75*
G02*
X118286000Y-92010000I0J-51000D01*
G01*
G37*
G36*
G01*
X108898000Y-62387000D02*
X109878000Y-62387000D01*
G75*
G02*
X109929000Y-62438000I0J-51000D01*
G01*
X109929000Y-63368000D01*
G75*
G02*
X109878000Y-63419000I-51000J0D01*
G01*
X108898000Y-63419000D01*
G75*
G02*
X108847000Y-63368000I0J51000D01*
G01*
X108847000Y-62438000D01*
G75*
G02*
X108898000Y-62387000I51000J0D01*
G01*
G37*
G36*
G01*
X108898000Y-60847000D02*
X109878000Y-60847000D01*
G75*
G02*
X109929000Y-60898000I0J-51000D01*
G01*
X109929000Y-61828000D01*
G75*
G02*
X109878000Y-61879000I-51000J0D01*
G01*
X108898000Y-61879000D01*
G75*
G02*
X108847000Y-61828000I0J51000D01*
G01*
X108847000Y-60898000D01*
G75*
G02*
X108898000Y-60847000I51000J0D01*
G01*
G37*
G36*
G01*
X106485000Y-63428000D02*
X107465000Y-63428000D01*
G75*
G02*
X107516000Y-63479000I0J-51000D01*
G01*
X107516000Y-64409000D01*
G75*
G02*
X107465000Y-64460000I-51000J0D01*
G01*
X106485000Y-64460000D01*
G75*
G02*
X106434000Y-64409000I0J51000D01*
G01*
X106434000Y-63479000D01*
G75*
G02*
X106485000Y-63428000I51000J0D01*
G01*
G37*
G36*
G01*
X106485000Y-61888000D02*
X107465000Y-61888000D01*
G75*
G02*
X107516000Y-61939000I0J-51000D01*
G01*
X107516000Y-62869000D01*
G75*
G02*
X107465000Y-62920000I-51000J0D01*
G01*
X106485000Y-62920000D01*
G75*
G02*
X106434000Y-62869000I0J51000D01*
G01*
X106434000Y-61939000D01*
G75*
G02*
X106485000Y-61888000I51000J0D01*
G01*
G37*
G36*
G01*
X106485000Y-67365000D02*
X107465000Y-67365000D01*
G75*
G02*
X107516000Y-67416000I0J-51000D01*
G01*
X107516000Y-68346000D01*
G75*
G02*
X107465000Y-68397000I-51000J0D01*
G01*
X106485000Y-68397000D01*
G75*
G02*
X106434000Y-68346000I0J51000D01*
G01*
X106434000Y-67416000D01*
G75*
G02*
X106485000Y-67365000I51000J0D01*
G01*
G37*
G36*
G01*
X106485000Y-65825000D02*
X107465000Y-65825000D01*
G75*
G02*
X107516000Y-65876000I0J-51000D01*
G01*
X107516000Y-66806000D01*
G75*
G02*
X107465000Y-66857000I-51000J0D01*
G01*
X106485000Y-66857000D01*
G75*
G02*
X106434000Y-66806000I0J51000D01*
G01*
X106434000Y-65876000D01*
G75*
G02*
X106485000Y-65825000I51000J0D01*
G01*
G37*
G36*
G01*
X90991000Y-63936000D02*
X91971000Y-63936000D01*
G75*
G02*
X92022000Y-63987000I0J-51000D01*
G01*
X92022000Y-64917000D01*
G75*
G02*
X91971000Y-64968000I-51000J0D01*
G01*
X90991000Y-64968000D01*
G75*
G02*
X90940000Y-64917000I0J51000D01*
G01*
X90940000Y-63987000D01*
G75*
G02*
X90991000Y-63936000I51000J0D01*
G01*
G37*
G36*
G01*
X90991000Y-62396000D02*
X91971000Y-62396000D01*
G75*
G02*
X92022000Y-62447000I0J-51000D01*
G01*
X92022000Y-63377000D01*
G75*
G02*
X91971000Y-63428000I-51000J0D01*
G01*
X90991000Y-63428000D01*
G75*
G02*
X90940000Y-63377000I0J51000D01*
G01*
X90940000Y-62447000D01*
G75*
G02*
X90991000Y-62396000I51000J0D01*
G01*
G37*
G36*
G01*
X94656001Y-78015000D02*
X94656001Y-77035000D01*
G75*
G02*
X94707001Y-76984000I51000J0D01*
G01*
X95637001Y-76984000D01*
G75*
G02*
X95688001Y-77035000I0J-51000D01*
G01*
X95688001Y-78015000D01*
G75*
G02*
X95637001Y-78066000I-51000J0D01*
G01*
X94707001Y-78066000D01*
G75*
G02*
X94656001Y-78015000I0J51000D01*
G01*
G37*
G36*
G01*
X93116001Y-78015000D02*
X93116001Y-77035000D01*
G75*
G02*
X93167001Y-76984000I51000J0D01*
G01*
X94097001Y-76984000D01*
G75*
G02*
X94148001Y-77035000I0J-51000D01*
G01*
X94148001Y-78015000D01*
G75*
G02*
X94097001Y-78066000I-51000J0D01*
G01*
X93167001Y-78066000D01*
G75*
G02*
X93116001Y-78015000I0J51000D01*
G01*
G37*
G36*
G01*
X98085000Y-78015000D02*
X98085000Y-77035000D01*
G75*
G02*
X98136000Y-76984000I51000J0D01*
G01*
X99066000Y-76984000D01*
G75*
G02*
X99117000Y-77035000I0J-51000D01*
G01*
X99117000Y-78015000D01*
G75*
G02*
X99066000Y-78066000I-51000J0D01*
G01*
X98136000Y-78066000D01*
G75*
G02*
X98085000Y-78015000I0J51000D01*
G01*
G37*
G36*
G01*
X96545000Y-78015000D02*
X96545000Y-77035000D01*
G75*
G02*
X96596000Y-76984000I51000J0D01*
G01*
X97526000Y-76984000D01*
G75*
G02*
X97577000Y-77035000I0J-51000D01*
G01*
X97577000Y-78015000D01*
G75*
G02*
X97526000Y-78066000I-51000J0D01*
G01*
X96596000Y-78066000D01*
G75*
G02*
X96545000Y-78015000I0J51000D01*
G01*
G37*
G36*
G01*
X107654000Y-127090000D02*
X107654000Y-126110000D01*
G75*
G02*
X107705000Y-126059000I51000J0D01*
G01*
X108635000Y-126059000D01*
G75*
G02*
X108686000Y-126110000I0J-51000D01*
G01*
X108686000Y-127090000D01*
G75*
G02*
X108635000Y-127141000I-51000J0D01*
G01*
X107705000Y-127141000D01*
G75*
G02*
X107654000Y-127090000I0J51000D01*
G01*
G37*
G36*
G01*
X106114000Y-127090000D02*
X106114000Y-126110000D01*
G75*
G02*
X106165000Y-126059000I51000J0D01*
G01*
X107095000Y-126059000D01*
G75*
G02*
X107146000Y-126110000I0J-51000D01*
G01*
X107146000Y-127090000D01*
G75*
G02*
X107095000Y-127141000I-51000J0D01*
G01*
X106165000Y-127141000D01*
G75*
G02*
X106114000Y-127090000I0J51000D01*
G01*
G37*
G36*
G01*
X107554000Y-109790000D02*
X107554000Y-108810000D01*
G75*
G02*
X107605000Y-108759000I51000J0D01*
G01*
X108535000Y-108759000D01*
G75*
G02*
X108586000Y-108810000I0J-51000D01*
G01*
X108586000Y-109790000D01*
G75*
G02*
X108535000Y-109841000I-51000J0D01*
G01*
X107605000Y-109841000D01*
G75*
G02*
X107554000Y-109790000I0J51000D01*
G01*
G37*
G36*
G01*
X106014000Y-109790000D02*
X106014000Y-108810000D01*
G75*
G02*
X106065000Y-108759000I51000J0D01*
G01*
X106995000Y-108759000D01*
G75*
G02*
X107046000Y-108810000I0J-51000D01*
G01*
X107046000Y-109790000D01*
G75*
G02*
X106995000Y-109841000I-51000J0D01*
G01*
X106065000Y-109841000D01*
G75*
G02*
X106014000Y-109790000I0J51000D01*
G01*
G37*
G36*
G01*
X107554000Y-111940000D02*
X107554000Y-110960000D01*
G75*
G02*
X107605000Y-110909000I51000J0D01*
G01*
X108535000Y-110909000D01*
G75*
G02*
X108586000Y-110960000I0J-51000D01*
G01*
X108586000Y-111940000D01*
G75*
G02*
X108535000Y-111991000I-51000J0D01*
G01*
X107605000Y-111991000D01*
G75*
G02*
X107554000Y-111940000I0J51000D01*
G01*
G37*
G36*
G01*
X106014000Y-111940000D02*
X106014000Y-110960000D01*
G75*
G02*
X106065000Y-110909000I51000J0D01*
G01*
X106995000Y-110909000D01*
G75*
G02*
X107046000Y-110960000I0J-51000D01*
G01*
X107046000Y-111940000D01*
G75*
G02*
X106995000Y-111991000I-51000J0D01*
G01*
X106065000Y-111991000D01*
G75*
G02*
X106014000Y-111940000I0J51000D01*
G01*
G37*
G36*
G01*
X61415000Y-120377601D02*
X61415000Y-119177599D01*
G75*
G02*
X61465999Y-119126600I50999J0D01*
G01*
X62866001Y-119126600D01*
G75*
G02*
X62917000Y-119177599I0J-50999D01*
G01*
X62917000Y-120377601D01*
G75*
G02*
X62866001Y-120428600I-50999J0D01*
G01*
X61465999Y-120428600D01*
G75*
G02*
X61415000Y-120377601I0J50999D01*
G01*
G37*
G36*
G01*
X63615000Y-120377601D02*
X63615000Y-119177599D01*
G75*
G02*
X63665999Y-119126600I50999J0D01*
G01*
X65066001Y-119126600D01*
G75*
G02*
X65117000Y-119177599I0J-50999D01*
G01*
X65117000Y-120377601D01*
G75*
G02*
X65066001Y-120428600I-50999J0D01*
G01*
X63665999Y-120428600D01*
G75*
G02*
X63615000Y-120377601I0J50999D01*
G01*
G37*
G36*
G01*
X63615000Y-118677601D02*
X63615000Y-117477599D01*
G75*
G02*
X63665999Y-117426600I50999J0D01*
G01*
X65066001Y-117426600D01*
G75*
G02*
X65117000Y-117477599I0J-50999D01*
G01*
X65117000Y-118677601D01*
G75*
G02*
X65066001Y-118728600I-50999J0D01*
G01*
X63665999Y-118728600D01*
G75*
G02*
X63615000Y-118677601I0J50999D01*
G01*
G37*
G36*
G01*
X61415000Y-118677601D02*
X61415000Y-117477599D01*
G75*
G02*
X61465999Y-117426600I50999J0D01*
G01*
X62866001Y-117426600D01*
G75*
G02*
X62917000Y-117477599I0J-50999D01*
G01*
X62917000Y-118677601D01*
G75*
G02*
X62866001Y-118728600I-50999J0D01*
G01*
X61465999Y-118728600D01*
G75*
G02*
X61415000Y-118677601I0J50999D01*
G01*
G37*
D17*
X104080000Y-59110000D03*
X101540000Y-59110000D03*
X99000000Y-59110000D03*
X96460000Y-59110000D03*
X93920000Y-59110000D03*
X93920000Y-74350000D03*
X96460000Y-74350000D03*
X99000000Y-74350000D03*
X101540000Y-74350000D03*
X104080000Y-74350000D03*
G36*
G01*
X46996998Y-67726000D02*
X48247000Y-67726000D01*
G75*
G02*
X48297999Y-67776999I0J-50999D01*
G01*
X48297999Y-68477001D01*
G75*
G02*
X48247000Y-68528000I-50999J0D01*
G01*
X46996998Y-68528000D01*
G75*
G02*
X46945999Y-68477001I0J50999D01*
G01*
X46945999Y-67776999D01*
G75*
G02*
X46996998Y-67726000I50999J0D01*
G01*
G37*
G36*
G01*
X49496998Y-66776000D02*
X50747000Y-66776000D01*
G75*
G02*
X50797999Y-66826999I0J-50999D01*
G01*
X50797999Y-67527001D01*
G75*
G02*
X50747000Y-67578000I-50999J0D01*
G01*
X49496998Y-67578000D01*
G75*
G02*
X49445999Y-67527001I0J50999D01*
G01*
X49445999Y-66826999D01*
G75*
G02*
X49496998Y-66776000I50999J0D01*
G01*
G37*
G36*
G01*
X49496998Y-68676000D02*
X50747000Y-68676000D01*
G75*
G02*
X50797999Y-68726999I0J-50999D01*
G01*
X50797999Y-69427001D01*
G75*
G02*
X50747000Y-69478000I-50999J0D01*
G01*
X49496998Y-69478000D01*
G75*
G02*
X49445999Y-69427001I0J50999D01*
G01*
X49445999Y-68726999D01*
G75*
G02*
X49496998Y-68676000I50999J0D01*
G01*
G37*
G36*
G01*
X49282999Y-64043000D02*
X50533001Y-64043000D01*
G75*
G02*
X50584000Y-64093999I0J-50999D01*
G01*
X50584000Y-64794001D01*
G75*
G02*
X50533001Y-64845000I-50999J0D01*
G01*
X49282999Y-64845000D01*
G75*
G02*
X49232000Y-64794001I0J50999D01*
G01*
X49232000Y-64093999D01*
G75*
G02*
X49282999Y-64043000I50999J0D01*
G01*
G37*
G36*
G01*
X51782999Y-63093000D02*
X53033001Y-63093000D01*
G75*
G02*
X53084000Y-63143999I0J-50999D01*
G01*
X53084000Y-63844001D01*
G75*
G02*
X53033001Y-63895000I-50999J0D01*
G01*
X51782999Y-63895000D01*
G75*
G02*
X51732000Y-63844001I0J50999D01*
G01*
X51732000Y-63143999D01*
G75*
G02*
X51782999Y-63093000I50999J0D01*
G01*
G37*
G36*
G01*
X51782999Y-64993000D02*
X53033001Y-64993000D01*
G75*
G02*
X53084000Y-65043999I0J-50999D01*
G01*
X53084000Y-65744001D01*
G75*
G02*
X53033001Y-65795000I-50999J0D01*
G01*
X51782999Y-65795000D01*
G75*
G02*
X51732000Y-65744001I0J50999D01*
G01*
X51732000Y-65043999D01*
G75*
G02*
X51782999Y-64993000I50999J0D01*
G01*
G37*
G36*
G01*
X53346999Y-67725999D02*
X54597001Y-67725999D01*
G75*
G02*
X54648000Y-67776998I0J-50999D01*
G01*
X54648000Y-68477000D01*
G75*
G02*
X54597001Y-68527999I-50999J0D01*
G01*
X53346999Y-68527999D01*
G75*
G02*
X53296000Y-68477000I0J50999D01*
G01*
X53296000Y-67776998D01*
G75*
G02*
X53346999Y-67725999I50999J0D01*
G01*
G37*
G36*
G01*
X55846999Y-66775999D02*
X57097001Y-66775999D01*
G75*
G02*
X57148000Y-66826998I0J-50999D01*
G01*
X57148000Y-67527000D01*
G75*
G02*
X57097001Y-67577999I-50999J0D01*
G01*
X55846999Y-67577999D01*
G75*
G02*
X55796000Y-67527000I0J50999D01*
G01*
X55796000Y-66826998D01*
G75*
G02*
X55846999Y-66775999I50999J0D01*
G01*
G37*
G36*
G01*
X55846999Y-68675999D02*
X57097001Y-68675999D01*
G75*
G02*
X57148000Y-68726998I0J-50999D01*
G01*
X57148000Y-69427000D01*
G75*
G02*
X57097001Y-69477999I-50999J0D01*
G01*
X55846999Y-69477999D01*
G75*
G02*
X55796000Y-69427000I0J50999D01*
G01*
X55796000Y-68726998D01*
G75*
G02*
X55846999Y-68675999I50999J0D01*
G01*
G37*
G36*
G01*
X55886999Y-64043000D02*
X57137001Y-64043000D01*
G75*
G02*
X57188000Y-64093999I0J-50999D01*
G01*
X57188000Y-64794001D01*
G75*
G02*
X57137001Y-64845000I-50999J0D01*
G01*
X55886999Y-64845000D01*
G75*
G02*
X55836000Y-64794001I0J50999D01*
G01*
X55836000Y-64093999D01*
G75*
G02*
X55886999Y-64043000I50999J0D01*
G01*
G37*
G36*
G01*
X58386999Y-63093000D02*
X59637001Y-63093000D01*
G75*
G02*
X59688000Y-63143999I0J-50999D01*
G01*
X59688000Y-63844001D01*
G75*
G02*
X59637001Y-63895000I-50999J0D01*
G01*
X58386999Y-63895000D01*
G75*
G02*
X58336000Y-63844001I0J50999D01*
G01*
X58336000Y-63143999D01*
G75*
G02*
X58386999Y-63093000I50999J0D01*
G01*
G37*
G36*
G01*
X58386999Y-64993000D02*
X59637001Y-64993000D01*
G75*
G02*
X59688000Y-65043999I0J-50999D01*
G01*
X59688000Y-65744001D01*
G75*
G02*
X59637001Y-65795000I-50999J0D01*
G01*
X58386999Y-65795000D01*
G75*
G02*
X58336000Y-65744001I0J50999D01*
G01*
X58336000Y-65043999D01*
G75*
G02*
X58386999Y-64993000I50999J0D01*
G01*
G37*
G36*
G01*
X59760999Y-67853000D02*
X61011001Y-67853000D01*
G75*
G02*
X61062000Y-67903999I0J-50999D01*
G01*
X61062000Y-68604001D01*
G75*
G02*
X61011001Y-68655000I-50999J0D01*
G01*
X59760999Y-68655000D01*
G75*
G02*
X59710000Y-68604001I0J50999D01*
G01*
X59710000Y-67903999D01*
G75*
G02*
X59760999Y-67853000I50999J0D01*
G01*
G37*
G36*
G01*
X62260999Y-66903000D02*
X63511001Y-66903000D01*
G75*
G02*
X63562000Y-66953999I0J-50999D01*
G01*
X63562000Y-67654001D01*
G75*
G02*
X63511001Y-67705000I-50999J0D01*
G01*
X62260999Y-67705000D01*
G75*
G02*
X62210000Y-67654001I0J50999D01*
G01*
X62210000Y-66953999D01*
G75*
G02*
X62260999Y-66903000I50999J0D01*
G01*
G37*
G36*
G01*
X62260999Y-68803000D02*
X63511001Y-68803000D01*
G75*
G02*
X63562000Y-68853999I0J-50999D01*
G01*
X63562000Y-69554001D01*
G75*
G02*
X63511001Y-69605000I-50999J0D01*
G01*
X62260999Y-69605000D01*
G75*
G02*
X62210000Y-69554001I0J50999D01*
G01*
X62210000Y-68853999D01*
G75*
G02*
X62260999Y-68803000I50999J0D01*
G01*
G37*
G36*
G01*
X62490999Y-64297000D02*
X63741001Y-64297000D01*
G75*
G02*
X63792000Y-64347999I0J-50999D01*
G01*
X63792000Y-65048001D01*
G75*
G02*
X63741001Y-65099000I-50999J0D01*
G01*
X62490999Y-65099000D01*
G75*
G02*
X62440000Y-65048001I0J50999D01*
G01*
X62440000Y-64347999D01*
G75*
G02*
X62490999Y-64297000I50999J0D01*
G01*
G37*
G36*
G01*
X64990999Y-63347000D02*
X66241001Y-63347000D01*
G75*
G02*
X66292000Y-63397999I0J-50999D01*
G01*
X66292000Y-64098001D01*
G75*
G02*
X66241001Y-64149000I-50999J0D01*
G01*
X64990999Y-64149000D01*
G75*
G02*
X64940000Y-64098001I0J50999D01*
G01*
X64940000Y-63397999D01*
G75*
G02*
X64990999Y-63347000I50999J0D01*
G01*
G37*
G36*
G01*
X64990999Y-65247000D02*
X66241001Y-65247000D01*
G75*
G02*
X66292000Y-65297999I0J-50999D01*
G01*
X66292000Y-65998001D01*
G75*
G02*
X66241001Y-66049000I-50999J0D01*
G01*
X64990999Y-66049000D01*
G75*
G02*
X64940000Y-65998001I0J50999D01*
G01*
X64940000Y-65297999D01*
G75*
G02*
X64990999Y-65247000I50999J0D01*
G01*
G37*
G36*
G01*
X66808999Y-67980000D02*
X68059001Y-67980000D01*
G75*
G02*
X68110000Y-68030999I0J-50999D01*
G01*
X68110000Y-68731001D01*
G75*
G02*
X68059001Y-68782000I-50999J0D01*
G01*
X66808999Y-68782000D01*
G75*
G02*
X66758000Y-68731001I0J50999D01*
G01*
X66758000Y-68030999D01*
G75*
G02*
X66808999Y-67980000I50999J0D01*
G01*
G37*
G36*
G01*
X69308999Y-67030000D02*
X70559001Y-67030000D01*
G75*
G02*
X70610000Y-67080999I0J-50999D01*
G01*
X70610000Y-67781001D01*
G75*
G02*
X70559001Y-67832000I-50999J0D01*
G01*
X69308999Y-67832000D01*
G75*
G02*
X69258000Y-67781001I0J50999D01*
G01*
X69258000Y-67080999D01*
G75*
G02*
X69308999Y-67030000I50999J0D01*
G01*
G37*
G36*
G01*
X69308999Y-68930000D02*
X70559001Y-68930000D01*
G75*
G02*
X70610000Y-68980999I0J-50999D01*
G01*
X70610000Y-69681001D01*
G75*
G02*
X70559001Y-69732000I-50999J0D01*
G01*
X69308999Y-69732000D01*
G75*
G02*
X69258000Y-69681001I0J50999D01*
G01*
X69258000Y-68980999D01*
G75*
G02*
X69308999Y-68930000I50999J0D01*
G01*
G37*
G36*
G01*
X69094999Y-64424000D02*
X70345001Y-64424000D01*
G75*
G02*
X70396000Y-64474999I0J-50999D01*
G01*
X70396000Y-65175001D01*
G75*
G02*
X70345001Y-65226000I-50999J0D01*
G01*
X69094999Y-65226000D01*
G75*
G02*
X69044000Y-65175001I0J50999D01*
G01*
X69044000Y-64474999D01*
G75*
G02*
X69094999Y-64424000I50999J0D01*
G01*
G37*
G36*
G01*
X71594999Y-63474000D02*
X72845001Y-63474000D01*
G75*
G02*
X72896000Y-63524999I0J-50999D01*
G01*
X72896000Y-64225001D01*
G75*
G02*
X72845001Y-64276000I-50999J0D01*
G01*
X71594999Y-64276000D01*
G75*
G02*
X71544000Y-64225001I0J50999D01*
G01*
X71544000Y-63524999D01*
G75*
G02*
X71594999Y-63474000I50999J0D01*
G01*
G37*
G36*
G01*
X71594999Y-65374000D02*
X72845001Y-65374000D01*
G75*
G02*
X72896000Y-65424999I0J-50999D01*
G01*
X72896000Y-66125001D01*
G75*
G02*
X72845001Y-66176000I-50999J0D01*
G01*
X71594999Y-66176000D01*
G75*
G02*
X71544000Y-66125001I0J50999D01*
G01*
X71544000Y-65424999D01*
G75*
G02*
X71594999Y-65374000I50999J0D01*
G01*
G37*
G36*
G01*
X73413000Y-68107000D02*
X74663002Y-68107000D01*
G75*
G02*
X74714001Y-68157999I0J-50999D01*
G01*
X74714001Y-68858001D01*
G75*
G02*
X74663002Y-68909000I-50999J0D01*
G01*
X73413000Y-68909000D01*
G75*
G02*
X73362001Y-68858001I0J50999D01*
G01*
X73362001Y-68157999D01*
G75*
G02*
X73413000Y-68107000I50999J0D01*
G01*
G37*
G36*
G01*
X75913000Y-67157000D02*
X77163002Y-67157000D01*
G75*
G02*
X77214001Y-67207999I0J-50999D01*
G01*
X77214001Y-67908001D01*
G75*
G02*
X77163002Y-67959000I-50999J0D01*
G01*
X75913000Y-67959000D01*
G75*
G02*
X75862001Y-67908001I0J50999D01*
G01*
X75862001Y-67207999D01*
G75*
G02*
X75913000Y-67157000I50999J0D01*
G01*
G37*
G36*
G01*
X75913000Y-69057000D02*
X77163002Y-69057000D01*
G75*
G02*
X77214001Y-69107999I0J-50999D01*
G01*
X77214001Y-69808001D01*
G75*
G02*
X77163002Y-69859000I-50999J0D01*
G01*
X75913000Y-69859000D01*
G75*
G02*
X75862001Y-69808001I0J50999D01*
G01*
X75862001Y-69107999D01*
G75*
G02*
X75913000Y-69057000I50999J0D01*
G01*
G37*
G36*
G01*
X75698999Y-64424000D02*
X76949001Y-64424000D01*
G75*
G02*
X77000000Y-64474999I0J-50999D01*
G01*
X77000000Y-65175001D01*
G75*
G02*
X76949001Y-65226000I-50999J0D01*
G01*
X75698999Y-65226000D01*
G75*
G02*
X75648000Y-65175001I0J50999D01*
G01*
X75648000Y-64474999D01*
G75*
G02*
X75698999Y-64424000I50999J0D01*
G01*
G37*
G36*
G01*
X78198999Y-63474000D02*
X79449001Y-63474000D01*
G75*
G02*
X79500000Y-63524999I0J-50999D01*
G01*
X79500000Y-64225001D01*
G75*
G02*
X79449001Y-64276000I-50999J0D01*
G01*
X78198999Y-64276000D01*
G75*
G02*
X78148000Y-64225001I0J50999D01*
G01*
X78148000Y-63524999D01*
G75*
G02*
X78198999Y-63474000I50999J0D01*
G01*
G37*
G36*
G01*
X78198999Y-65374000D02*
X79449001Y-65374000D01*
G75*
G02*
X79500000Y-65424999I0J-50999D01*
G01*
X79500000Y-66125001D01*
G75*
G02*
X79449001Y-66176000I-50999J0D01*
G01*
X78198999Y-66176000D01*
G75*
G02*
X78148000Y-66125001I0J50999D01*
G01*
X78148000Y-65424999D01*
G75*
G02*
X78198999Y-65374000I50999J0D01*
G01*
G37*
G36*
G01*
X79381999Y-68107000D02*
X80632001Y-68107000D01*
G75*
G02*
X80683000Y-68157999I0J-50999D01*
G01*
X80683000Y-68858001D01*
G75*
G02*
X80632001Y-68909000I-50999J0D01*
G01*
X79381999Y-68909000D01*
G75*
G02*
X79331000Y-68858001I0J50999D01*
G01*
X79331000Y-68157999D01*
G75*
G02*
X79381999Y-68107000I50999J0D01*
G01*
G37*
G36*
G01*
X81881999Y-67157000D02*
X83132001Y-67157000D01*
G75*
G02*
X83183000Y-67207999I0J-50999D01*
G01*
X83183000Y-67908001D01*
G75*
G02*
X83132001Y-67959000I-50999J0D01*
G01*
X81881999Y-67959000D01*
G75*
G02*
X81831000Y-67908001I0J50999D01*
G01*
X81831000Y-67207999D01*
G75*
G02*
X81881999Y-67157000I50999J0D01*
G01*
G37*
G36*
G01*
X81881999Y-69057000D02*
X83132001Y-69057000D01*
G75*
G02*
X83183000Y-69107999I0J-50999D01*
G01*
X83183000Y-69808001D01*
G75*
G02*
X83132001Y-69859000I-50999J0D01*
G01*
X81881999Y-69859000D01*
G75*
G02*
X81831000Y-69808001I0J50999D01*
G01*
X81831000Y-69107999D01*
G75*
G02*
X81881999Y-69057000I50999J0D01*
G01*
G37*
G36*
G01*
X82302999Y-64424000D02*
X83553001Y-64424000D01*
G75*
G02*
X83604000Y-64474999I0J-50999D01*
G01*
X83604000Y-65175001D01*
G75*
G02*
X83553001Y-65226000I-50999J0D01*
G01*
X82302999Y-65226000D01*
G75*
G02*
X82252000Y-65175001I0J50999D01*
G01*
X82252000Y-64474999D01*
G75*
G02*
X82302999Y-64424000I50999J0D01*
G01*
G37*
G36*
G01*
X84802999Y-63474000D02*
X86053001Y-63474000D01*
G75*
G02*
X86104000Y-63524999I0J-50999D01*
G01*
X86104000Y-64225001D01*
G75*
G02*
X86053001Y-64276000I-50999J0D01*
G01*
X84802999Y-64276000D01*
G75*
G02*
X84752000Y-64225001I0J50999D01*
G01*
X84752000Y-63524999D01*
G75*
G02*
X84802999Y-63474000I50999J0D01*
G01*
G37*
G36*
G01*
X84802999Y-65374000D02*
X86053001Y-65374000D01*
G75*
G02*
X86104000Y-65424999I0J-50999D01*
G01*
X86104000Y-66125001D01*
G75*
G02*
X86053001Y-66176000I-50999J0D01*
G01*
X84802999Y-66176000D01*
G75*
G02*
X84752000Y-66125001I0J50999D01*
G01*
X84752000Y-65424999D01*
G75*
G02*
X84802999Y-65374000I50999J0D01*
G01*
G37*
G36*
G01*
X48601000Y-70823999D02*
X48601000Y-72074001D01*
G75*
G02*
X48550001Y-72125000I-50999J0D01*
G01*
X47849999Y-72125000D01*
G75*
G02*
X47799000Y-72074001I0J50999D01*
G01*
X47799000Y-70823999D01*
G75*
G02*
X47849999Y-70773000I50999J0D01*
G01*
X48550001Y-70773000D01*
G75*
G02*
X48601000Y-70823999I0J-50999D01*
G01*
G37*
G36*
G01*
X49551000Y-73323999D02*
X49551000Y-74574001D01*
G75*
G02*
X49500001Y-74625000I-50999J0D01*
G01*
X48799999Y-74625000D01*
G75*
G02*
X48749000Y-74574001I0J50999D01*
G01*
X48749000Y-73323999D01*
G75*
G02*
X48799999Y-73273000I50999J0D01*
G01*
X49500001Y-73273000D01*
G75*
G02*
X49551000Y-73323999I0J-50999D01*
G01*
G37*
G36*
G01*
X47651000Y-73323999D02*
X47651000Y-74574001D01*
G75*
G02*
X47600001Y-74625000I-50999J0D01*
G01*
X46899999Y-74625000D01*
G75*
G02*
X46849000Y-74574001I0J50999D01*
G01*
X46849000Y-73323999D01*
G75*
G02*
X46899999Y-73273000I50999J0D01*
G01*
X47600001Y-73273000D01*
G75*
G02*
X47651000Y-73323999I0J-50999D01*
G01*
G37*
G36*
G01*
X52201000Y-70823999D02*
X52201000Y-72074001D01*
G75*
G02*
X52150001Y-72125000I-50999J0D01*
G01*
X51449999Y-72125000D01*
G75*
G02*
X51399000Y-72074001I0J50999D01*
G01*
X51399000Y-70823999D01*
G75*
G02*
X51449999Y-70773000I50999J0D01*
G01*
X52150001Y-70773000D01*
G75*
G02*
X52201000Y-70823999I0J-50999D01*
G01*
G37*
G36*
G01*
X53151000Y-73323999D02*
X53151000Y-74574001D01*
G75*
G02*
X53100001Y-74625000I-50999J0D01*
G01*
X52399999Y-74625000D01*
G75*
G02*
X52349000Y-74574001I0J50999D01*
G01*
X52349000Y-73323999D01*
G75*
G02*
X52399999Y-73273000I50999J0D01*
G01*
X53100001Y-73273000D01*
G75*
G02*
X53151000Y-73323999I0J-50999D01*
G01*
G37*
G36*
G01*
X51251000Y-73323999D02*
X51251000Y-74574001D01*
G75*
G02*
X51200001Y-74625000I-50999J0D01*
G01*
X50499999Y-74625000D01*
G75*
G02*
X50449000Y-74574001I0J50999D01*
G01*
X50449000Y-73323999D01*
G75*
G02*
X50499999Y-73273000I50999J0D01*
G01*
X51200001Y-73273000D01*
G75*
G02*
X51251000Y-73323999I0J-50999D01*
G01*
G37*
G36*
G01*
X55825000Y-70823999D02*
X55825000Y-72074001D01*
G75*
G02*
X55774001Y-72125000I-50999J0D01*
G01*
X55073999Y-72125000D01*
G75*
G02*
X55023000Y-72074001I0J50999D01*
G01*
X55023000Y-70823999D01*
G75*
G02*
X55073999Y-70773000I50999J0D01*
G01*
X55774001Y-70773000D01*
G75*
G02*
X55825000Y-70823999I0J-50999D01*
G01*
G37*
G36*
G01*
X56775000Y-73323999D02*
X56775000Y-74574001D01*
G75*
G02*
X56724001Y-74625000I-50999J0D01*
G01*
X56023999Y-74625000D01*
G75*
G02*
X55973000Y-74574001I0J50999D01*
G01*
X55973000Y-73323999D01*
G75*
G02*
X56023999Y-73273000I50999J0D01*
G01*
X56724001Y-73273000D01*
G75*
G02*
X56775000Y-73323999I0J-50999D01*
G01*
G37*
G36*
G01*
X54875000Y-73323999D02*
X54875000Y-74574001D01*
G75*
G02*
X54824001Y-74625000I-50999J0D01*
G01*
X54123999Y-74625000D01*
G75*
G02*
X54073000Y-74574001I0J50999D01*
G01*
X54073000Y-73323999D01*
G75*
G02*
X54123999Y-73273000I50999J0D01*
G01*
X54824001Y-73273000D01*
G75*
G02*
X54875000Y-73323999I0J-50999D01*
G01*
G37*
G36*
G01*
X59641000Y-70824000D02*
X59641000Y-72074002D01*
G75*
G02*
X59590001Y-72125001I-50999J0D01*
G01*
X58889999Y-72125001D01*
G75*
G02*
X58839000Y-72074002I0J50999D01*
G01*
X58839000Y-70824000D01*
G75*
G02*
X58889999Y-70773001I50999J0D01*
G01*
X59590001Y-70773001D01*
G75*
G02*
X59641000Y-70824000I0J-50999D01*
G01*
G37*
G36*
G01*
X60591000Y-73324000D02*
X60591000Y-74574002D01*
G75*
G02*
X60540001Y-74625001I-50999J0D01*
G01*
X59839999Y-74625001D01*
G75*
G02*
X59789000Y-74574002I0J50999D01*
G01*
X59789000Y-73324000D01*
G75*
G02*
X59839999Y-73273001I50999J0D01*
G01*
X60540001Y-73273001D01*
G75*
G02*
X60591000Y-73324000I0J-50999D01*
G01*
G37*
G36*
G01*
X58691000Y-73324000D02*
X58691000Y-74574002D01*
G75*
G02*
X58640001Y-74625001I-50999J0D01*
G01*
X57939999Y-74625001D01*
G75*
G02*
X57889000Y-74574002I0J50999D01*
G01*
X57889000Y-73324000D01*
G75*
G02*
X57939999Y-73273001I50999J0D01*
G01*
X58640001Y-73273001D01*
G75*
G02*
X58691000Y-73324000I0J-50999D01*
G01*
G37*
G36*
G01*
X63457000Y-70823999D02*
X63457000Y-72074001D01*
G75*
G02*
X63406001Y-72125000I-50999J0D01*
G01*
X62705999Y-72125000D01*
G75*
G02*
X62655000Y-72074001I0J50999D01*
G01*
X62655000Y-70823999D01*
G75*
G02*
X62705999Y-70773000I50999J0D01*
G01*
X63406001Y-70773000D01*
G75*
G02*
X63457000Y-70823999I0J-50999D01*
G01*
G37*
G36*
G01*
X64407000Y-73323999D02*
X64407000Y-74574001D01*
G75*
G02*
X64356001Y-74625000I-50999J0D01*
G01*
X63655999Y-74625000D01*
G75*
G02*
X63605000Y-74574001I0J50999D01*
G01*
X63605000Y-73323999D01*
G75*
G02*
X63655999Y-73273000I50999J0D01*
G01*
X64356001Y-73273000D01*
G75*
G02*
X64407000Y-73323999I0J-50999D01*
G01*
G37*
G36*
G01*
X62507000Y-73323999D02*
X62507000Y-74574001D01*
G75*
G02*
X62456001Y-74625000I-50999J0D01*
G01*
X61755999Y-74625000D01*
G75*
G02*
X61705000Y-74574001I0J50999D01*
G01*
X61705000Y-73323999D01*
G75*
G02*
X61755999Y-73273000I50999J0D01*
G01*
X62456001Y-73273000D01*
G75*
G02*
X62507000Y-73323999I0J-50999D01*
G01*
G37*
G36*
G01*
X67273000Y-70824000D02*
X67273000Y-72074002D01*
G75*
G02*
X67222001Y-72125001I-50999J0D01*
G01*
X66521999Y-72125001D01*
G75*
G02*
X66471000Y-72074002I0J50999D01*
G01*
X66471000Y-70824000D01*
G75*
G02*
X66521999Y-70773001I50999J0D01*
G01*
X67222001Y-70773001D01*
G75*
G02*
X67273000Y-70824000I0J-50999D01*
G01*
G37*
G36*
G01*
X68223000Y-73324000D02*
X68223000Y-74574002D01*
G75*
G02*
X68172001Y-74625001I-50999J0D01*
G01*
X67471999Y-74625001D01*
G75*
G02*
X67421000Y-74574002I0J50999D01*
G01*
X67421000Y-73324000D01*
G75*
G02*
X67471999Y-73273001I50999J0D01*
G01*
X68172001Y-73273001D01*
G75*
G02*
X68223000Y-73324000I0J-50999D01*
G01*
G37*
G36*
G01*
X66323000Y-73324000D02*
X66323000Y-74574002D01*
G75*
G02*
X66272001Y-74625001I-50999J0D01*
G01*
X65571999Y-74625001D01*
G75*
G02*
X65521000Y-74574002I0J50999D01*
G01*
X65521000Y-73324000D01*
G75*
G02*
X65571999Y-73273001I50999J0D01*
G01*
X66272001Y-73273001D01*
G75*
G02*
X66323000Y-73324000I0J-50999D01*
G01*
G37*
G36*
G01*
X71088000Y-70823999D02*
X71088000Y-72074001D01*
G75*
G02*
X71037001Y-72125000I-50999J0D01*
G01*
X70336999Y-72125000D01*
G75*
G02*
X70286000Y-72074001I0J50999D01*
G01*
X70286000Y-70823999D01*
G75*
G02*
X70336999Y-70773000I50999J0D01*
G01*
X71037001Y-70773000D01*
G75*
G02*
X71088000Y-70823999I0J-50999D01*
G01*
G37*
G36*
G01*
X72038000Y-73323999D02*
X72038000Y-74574001D01*
G75*
G02*
X71987001Y-74625000I-50999J0D01*
G01*
X71286999Y-74625000D01*
G75*
G02*
X71236000Y-74574001I0J50999D01*
G01*
X71236000Y-73323999D01*
G75*
G02*
X71286999Y-73273000I50999J0D01*
G01*
X71987001Y-73273000D01*
G75*
G02*
X72038000Y-73323999I0J-50999D01*
G01*
G37*
G36*
G01*
X70138000Y-73323999D02*
X70138000Y-74574001D01*
G75*
G02*
X70087001Y-74625000I-50999J0D01*
G01*
X69386999Y-74625000D01*
G75*
G02*
X69336000Y-74574001I0J50999D01*
G01*
X69336000Y-73323999D01*
G75*
G02*
X69386999Y-73273000I50999J0D01*
G01*
X70087001Y-73273000D01*
G75*
G02*
X70138000Y-73323999I0J-50999D01*
G01*
G37*
G36*
G01*
X74904000Y-70823999D02*
X74904000Y-72074001D01*
G75*
G02*
X74853001Y-72125000I-50999J0D01*
G01*
X74152999Y-72125000D01*
G75*
G02*
X74102000Y-72074001I0J50999D01*
G01*
X74102000Y-70823999D01*
G75*
G02*
X74152999Y-70773000I50999J0D01*
G01*
X74853001Y-70773000D01*
G75*
G02*
X74904000Y-70823999I0J-50999D01*
G01*
G37*
G36*
G01*
X75854000Y-73323999D02*
X75854000Y-74574001D01*
G75*
G02*
X75803001Y-74625000I-50999J0D01*
G01*
X75102999Y-74625000D01*
G75*
G02*
X75052000Y-74574001I0J50999D01*
G01*
X75052000Y-73323999D01*
G75*
G02*
X75102999Y-73273000I50999J0D01*
G01*
X75803001Y-73273000D01*
G75*
G02*
X75854000Y-73323999I0J-50999D01*
G01*
G37*
G36*
G01*
X73954000Y-73323999D02*
X73954000Y-74574001D01*
G75*
G02*
X73903001Y-74625000I-50999J0D01*
G01*
X73202999Y-74625000D01*
G75*
G02*
X73152000Y-74574001I0J50999D01*
G01*
X73152000Y-73323999D01*
G75*
G02*
X73202999Y-73273000I50999J0D01*
G01*
X73903001Y-73273000D01*
G75*
G02*
X73954000Y-73323999I0J-50999D01*
G01*
G37*
G36*
G01*
X78720000Y-70823999D02*
X78720000Y-72074001D01*
G75*
G02*
X78669001Y-72125000I-50999J0D01*
G01*
X77968999Y-72125000D01*
G75*
G02*
X77918000Y-72074001I0J50999D01*
G01*
X77918000Y-70823999D01*
G75*
G02*
X77968999Y-70773000I50999J0D01*
G01*
X78669001Y-70773000D01*
G75*
G02*
X78720000Y-70823999I0J-50999D01*
G01*
G37*
G36*
G01*
X79670000Y-73323999D02*
X79670000Y-74574001D01*
G75*
G02*
X79619001Y-74625000I-50999J0D01*
G01*
X78918999Y-74625000D01*
G75*
G02*
X78868000Y-74574001I0J50999D01*
G01*
X78868000Y-73323999D01*
G75*
G02*
X78918999Y-73273000I50999J0D01*
G01*
X79619001Y-73273000D01*
G75*
G02*
X79670000Y-73323999I0J-50999D01*
G01*
G37*
G36*
G01*
X77770000Y-73323999D02*
X77770000Y-74574001D01*
G75*
G02*
X77719001Y-74625000I-50999J0D01*
G01*
X77018999Y-74625000D01*
G75*
G02*
X76968000Y-74574001I0J50999D01*
G01*
X76968000Y-73323999D01*
G75*
G02*
X77018999Y-73273000I50999J0D01*
G01*
X77719001Y-73273000D01*
G75*
G02*
X77770000Y-73323999I0J-50999D01*
G01*
G37*
G36*
G01*
X82535500Y-70823999D02*
X82535500Y-72074001D01*
G75*
G02*
X82484501Y-72125000I-50999J0D01*
G01*
X81784499Y-72125000D01*
G75*
G02*
X81733500Y-72074001I0J50999D01*
G01*
X81733500Y-70823999D01*
G75*
G02*
X81784499Y-70773000I50999J0D01*
G01*
X82484501Y-70773000D01*
G75*
G02*
X82535500Y-70823999I0J-50999D01*
G01*
G37*
G36*
G01*
X83485500Y-73323999D02*
X83485500Y-74574001D01*
G75*
G02*
X83434501Y-74625000I-50999J0D01*
G01*
X82734499Y-74625000D01*
G75*
G02*
X82683500Y-74574001I0J50999D01*
G01*
X82683500Y-73323999D01*
G75*
G02*
X82734499Y-73273000I50999J0D01*
G01*
X83434501Y-73273000D01*
G75*
G02*
X83485500Y-73323999I0J-50999D01*
G01*
G37*
G36*
G01*
X81585500Y-73323999D02*
X81585500Y-74574001D01*
G75*
G02*
X81534501Y-74625000I-50999J0D01*
G01*
X80834499Y-74625000D01*
G75*
G02*
X80783500Y-74574001I0J50999D01*
G01*
X80783500Y-73323999D01*
G75*
G02*
X80834499Y-73273000I50999J0D01*
G01*
X81534501Y-73273000D01*
G75*
G02*
X81585500Y-73323999I0J-50999D01*
G01*
G37*
G36*
G01*
X86351300Y-70823999D02*
X86351300Y-72074001D01*
G75*
G02*
X86300301Y-72125000I-50999J0D01*
G01*
X85600299Y-72125000D01*
G75*
G02*
X85549300Y-72074001I0J50999D01*
G01*
X85549300Y-70823999D01*
G75*
G02*
X85600299Y-70773000I50999J0D01*
G01*
X86300301Y-70773000D01*
G75*
G02*
X86351300Y-70823999I0J-50999D01*
G01*
G37*
G36*
G01*
X87301300Y-73323999D02*
X87301300Y-74574001D01*
G75*
G02*
X87250301Y-74625000I-50999J0D01*
G01*
X86550299Y-74625000D01*
G75*
G02*
X86499300Y-74574001I0J50999D01*
G01*
X86499300Y-73323999D01*
G75*
G02*
X86550299Y-73273000I50999J0D01*
G01*
X87250301Y-73273000D01*
G75*
G02*
X87301300Y-73323999I0J-50999D01*
G01*
G37*
G36*
G01*
X85401300Y-73323999D02*
X85401300Y-74574001D01*
G75*
G02*
X85350301Y-74625000I-50999J0D01*
G01*
X84650299Y-74625000D01*
G75*
G02*
X84599300Y-74574001I0J50999D01*
G01*
X84599300Y-73323999D01*
G75*
G02*
X84650299Y-73273000I50999J0D01*
G01*
X85350301Y-73273000D01*
G75*
G02*
X85401300Y-73323999I0J-50999D01*
G01*
G37*
G36*
G01*
X90167000Y-70823999D02*
X90167000Y-72074001D01*
G75*
G02*
X90116001Y-72125000I-50999J0D01*
G01*
X89415999Y-72125000D01*
G75*
G02*
X89365000Y-72074001I0J50999D01*
G01*
X89365000Y-70823999D01*
G75*
G02*
X89415999Y-70773000I50999J0D01*
G01*
X90116001Y-70773000D01*
G75*
G02*
X90167000Y-70823999I0J-50999D01*
G01*
G37*
G36*
G01*
X91117000Y-73323999D02*
X91117000Y-74574001D01*
G75*
G02*
X91066001Y-74625000I-50999J0D01*
G01*
X90365999Y-74625000D01*
G75*
G02*
X90315000Y-74574001I0J50999D01*
G01*
X90315000Y-73323999D01*
G75*
G02*
X90365999Y-73273000I50999J0D01*
G01*
X91066001Y-73273000D01*
G75*
G02*
X91117000Y-73323999I0J-50999D01*
G01*
G37*
G36*
G01*
X89217000Y-73323999D02*
X89217000Y-74574001D01*
G75*
G02*
X89166001Y-74625000I-50999J0D01*
G01*
X88465999Y-74625000D01*
G75*
G02*
X88415000Y-74574001I0J50999D01*
G01*
X88415000Y-73323999D01*
G75*
G02*
X88465999Y-73273000I50999J0D01*
G01*
X89166001Y-73273000D01*
G75*
G02*
X89217000Y-73323999I0J-50999D01*
G01*
G37*
G36*
G01*
X106242999Y-58328000D02*
X107493001Y-58328000D01*
G75*
G02*
X107544000Y-58378999I0J-50999D01*
G01*
X107544000Y-59079001D01*
G75*
G02*
X107493001Y-59130000I-50999J0D01*
G01*
X106242999Y-59130000D01*
G75*
G02*
X106192000Y-59079001I0J50999D01*
G01*
X106192000Y-58378999D01*
G75*
G02*
X106242999Y-58328000I50999J0D01*
G01*
G37*
G36*
G01*
X108742999Y-57378000D02*
X109993001Y-57378000D01*
G75*
G02*
X110044000Y-57428999I0J-50999D01*
G01*
X110044000Y-58129001D01*
G75*
G02*
X109993001Y-58180000I-50999J0D01*
G01*
X108742999Y-58180000D01*
G75*
G02*
X108692000Y-58129001I0J50999D01*
G01*
X108692000Y-57428999D01*
G75*
G02*
X108742999Y-57378000I50999J0D01*
G01*
G37*
G36*
G01*
X108742999Y-59278000D02*
X109993001Y-59278000D01*
G75*
G02*
X110044000Y-59328999I0J-50999D01*
G01*
X110044000Y-60029001D01*
G75*
G02*
X109993001Y-60080000I-50999J0D01*
G01*
X108742999Y-60080000D01*
G75*
G02*
X108692000Y-60029001I0J50999D01*
G01*
X108692000Y-59328999D01*
G75*
G02*
X108742999Y-59278000I50999J0D01*
G01*
G37*
G36*
G01*
X96864999Y-105379000D02*
X98115001Y-105379000D01*
G75*
G02*
X98166000Y-105429999I0J-50999D01*
G01*
X98166000Y-106130001D01*
G75*
G02*
X98115001Y-106181000I-50999J0D01*
G01*
X96864999Y-106181000D01*
G75*
G02*
X96814000Y-106130001I0J50999D01*
G01*
X96814000Y-105429999D01*
G75*
G02*
X96864999Y-105379000I50999J0D01*
G01*
G37*
G36*
G01*
X99364999Y-104429000D02*
X100615001Y-104429000D01*
G75*
G02*
X100666000Y-104479999I0J-50999D01*
G01*
X100666000Y-105180001D01*
G75*
G02*
X100615001Y-105231000I-50999J0D01*
G01*
X99364999Y-105231000D01*
G75*
G02*
X99314000Y-105180001I0J50999D01*
G01*
X99314000Y-104479999D01*
G75*
G02*
X99364999Y-104429000I50999J0D01*
G01*
G37*
G36*
G01*
X99364999Y-106329000D02*
X100615001Y-106329000D01*
G75*
G02*
X100666000Y-106379999I0J-50999D01*
G01*
X100666000Y-107080001D01*
G75*
G02*
X100615001Y-107131000I-50999J0D01*
G01*
X99364999Y-107131000D01*
G75*
G02*
X99314000Y-107080001I0J50999D01*
G01*
X99314000Y-106379999D01*
G75*
G02*
X99364999Y-106329000I50999J0D01*
G01*
G37*
G36*
G01*
X100326000Y-129450000D02*
X100326000Y-133150000D01*
G75*
G02*
X100275000Y-133201000I-51000J0D01*
G01*
X98495000Y-133201000D01*
G75*
G02*
X98444000Y-133150000I0J51000D01*
G01*
X98444000Y-129450000D01*
G75*
G02*
X98495000Y-129399000I51000J0D01*
G01*
X100275000Y-129399000D01*
G75*
G02*
X100326000Y-129450000I0J-51000D01*
G01*
G37*
G36*
G01*
X97156000Y-129450000D02*
X97156000Y-133150000D01*
G75*
G02*
X97105000Y-133201000I-51000J0D01*
G01*
X95325000Y-133201000D01*
G75*
G02*
X95274000Y-133150000I0J51000D01*
G01*
X95274000Y-129450000D01*
G75*
G02*
X95325000Y-129399000I51000J0D01*
G01*
X97105000Y-129399000D01*
G75*
G02*
X97156000Y-129450000I0J-51000D01*
G01*
G37*
G36*
G01*
X117337000Y-136531000D02*
X117337000Y-140131000D01*
G75*
G02*
X117286000Y-140182000I-51000J0D01*
G01*
X115206000Y-140182000D01*
G75*
G02*
X115155000Y-140131000I0J51000D01*
G01*
X115155000Y-136531000D01*
G75*
G02*
X115206000Y-136480000I51000J0D01*
G01*
X117286000Y-136480000D01*
G75*
G02*
X117337000Y-136531000I0J-51000D01*
G01*
G37*
D21*
X111166000Y-138331000D03*
G36*
G01*
X83682000Y-136558000D02*
X83682000Y-140158000D01*
G75*
G02*
X83631000Y-140209000I-51000J0D01*
G01*
X81551000Y-140209000D01*
G75*
G02*
X81500000Y-140158000I0J51000D01*
G01*
X81500000Y-136558000D01*
G75*
G02*
X81551000Y-136507000I51000J0D01*
G01*
X83631000Y-136507000D01*
G75*
G02*
X83682000Y-136558000I0J-51000D01*
G01*
G37*
X77511000Y-138358000D03*
X72431000Y-138358000D03*
G36*
G01*
X73916000Y-84243000D02*
X72216000Y-84243000D01*
G75*
G02*
X72165000Y-84192000I0J51000D01*
G01*
X72165000Y-82492000D01*
G75*
G02*
X72216000Y-82441000I51000J0D01*
G01*
X73916000Y-82441000D01*
G75*
G02*
X73967000Y-82492000I0J-51000D01*
G01*
X73967000Y-84192000D01*
G75*
G02*
X73916000Y-84243000I-51000J0D01*
G01*
G37*
D22*
X70526000Y-83342000D03*
X67986000Y-83342000D03*
X65446000Y-83342000D03*
D23*
X50548999Y-141988000D03*
X53088999Y-141988000D03*
X61258999Y-141988000D03*
X63798999Y-141988000D03*
D24*
X49428999Y-134038000D03*
X64918999Y-134038000D03*
D11*
X54003999Y-130738000D03*
X56543999Y-130738000D03*
X59083999Y-130738000D03*
X61623999Y-130738000D03*
X52733999Y-128198000D03*
X55273999Y-128198000D03*
X60353999Y-128198000D03*
X57813999Y-128198000D03*
D25*
X62888999Y-137088000D03*
X51458999Y-137088000D03*
G36*
G01*
X48174000Y-59875000D02*
X48174000Y-58125000D01*
G75*
G02*
X48225000Y-58074000I51000J0D01*
G01*
X49975000Y-58074000D01*
G75*
G02*
X50026000Y-58125000I0J-51000D01*
G01*
X50026000Y-59875000D01*
G75*
G02*
X49975000Y-59926000I-51000J0D01*
G01*
X48225000Y-59926000D01*
G75*
G02*
X48174000Y-59875000I0J51000D01*
G01*
G37*
D26*
X51600000Y-59000000D03*
X54100000Y-59000000D03*
X56600000Y-59000000D03*
X59100000Y-59000000D03*
X61600000Y-59000000D03*
X64100000Y-59000000D03*
X66600000Y-59000000D03*
G36*
G01*
X71574000Y-59875000D02*
X71574000Y-58125000D01*
G75*
G02*
X71625000Y-58074000I51000J0D01*
G01*
X73375000Y-58074000D01*
G75*
G02*
X73426000Y-58125000I0J-51000D01*
G01*
X73426000Y-59875000D01*
G75*
G02*
X73375000Y-59926000I-51000J0D01*
G01*
X71625000Y-59926000D01*
G75*
G02*
X71574000Y-59875000I0J51000D01*
G01*
G37*
X75000000Y-59000000D03*
X77500000Y-59000000D03*
X80000000Y-59000000D03*
X82500000Y-59000000D03*
X85000000Y-59000000D03*
X87500000Y-59000000D03*
X90000000Y-59000000D03*
G36*
G01*
X125985400Y-104412600D02*
X125985400Y-106212600D01*
G75*
G02*
X125934400Y-106263600I-51000J0D01*
G01*
X124134400Y-106263600D01*
G75*
G02*
X124083400Y-106212600I0J51000D01*
G01*
X124083400Y-104412600D01*
G75*
G02*
X124134400Y-104361600I51000J0D01*
G01*
X125934400Y-104361600D01*
G75*
G02*
X125985400Y-104412600I0J-51000D01*
G01*
G37*
D27*
X122494400Y-105312600D03*
G36*
G01*
X113437800Y-104412600D02*
X113437800Y-106212600D01*
G75*
G02*
X113386800Y-106263600I-51000J0D01*
G01*
X111586800Y-106263600D01*
G75*
G02*
X111535800Y-106212600I0J51000D01*
G01*
X111535800Y-104412600D01*
G75*
G02*
X111586800Y-104361600I51000J0D01*
G01*
X113386800Y-104361600D01*
G75*
G02*
X113437800Y-104412600I0J-51000D01*
G01*
G37*
X109946800Y-105312600D03*
G36*
G01*
X83509000Y-134235000D02*
X83509000Y-132765000D01*
G75*
G02*
X83560000Y-132714000I51000J0D01*
G01*
X84720000Y-132714000D01*
G75*
G02*
X84771000Y-132765000I0J-51000D01*
G01*
X84771000Y-134235000D01*
G75*
G02*
X84720000Y-134286000I-51000J0D01*
G01*
X83560000Y-134286000D01*
G75*
G02*
X83509000Y-134235000I0J51000D01*
G01*
G37*
G36*
G01*
X81729000Y-134235000D02*
X81729000Y-132765000D01*
G75*
G02*
X81780000Y-132714000I51000J0D01*
G01*
X82940000Y-132714000D01*
G75*
G02*
X82991000Y-132765000I0J-51000D01*
G01*
X82991000Y-134235000D01*
G75*
G02*
X82940000Y-134286000I-51000J0D01*
G01*
X81780000Y-134286000D01*
G75*
G02*
X81729000Y-134235000I0J51000D01*
G01*
G37*
G36*
G01*
X103015000Y-139359000D02*
X104485000Y-139359000D01*
G75*
G02*
X104536000Y-139410000I0J-51000D01*
G01*
X104536000Y-140570000D01*
G75*
G02*
X104485000Y-140621000I-51000J0D01*
G01*
X103015000Y-140621000D01*
G75*
G02*
X102964000Y-140570000I0J51000D01*
G01*
X102964000Y-139410000D01*
G75*
G02*
X103015000Y-139359000I51000J0D01*
G01*
G37*
G36*
G01*
X103015000Y-137579000D02*
X104485000Y-137579000D01*
G75*
G02*
X104536000Y-137630000I0J-51000D01*
G01*
X104536000Y-138790000D01*
G75*
G02*
X104485000Y-138841000I-51000J0D01*
G01*
X103015000Y-138841000D01*
G75*
G02*
X102964000Y-138790000I0J51000D01*
G01*
X102964000Y-137630000D01*
G75*
G02*
X103015000Y-137579000I51000J0D01*
G01*
G37*
G36*
G01*
X50819000Y-123780000D02*
X50819000Y-125250000D01*
G75*
G02*
X50768000Y-125301000I-51000J0D01*
G01*
X49608000Y-125301000D01*
G75*
G02*
X49557000Y-125250000I0J51000D01*
G01*
X49557000Y-123780000D01*
G75*
G02*
X49608000Y-123729000I51000J0D01*
G01*
X50768000Y-123729000D01*
G75*
G02*
X50819000Y-123780000I0J-51000D01*
G01*
G37*
G36*
G01*
X52599000Y-123780000D02*
X52599000Y-125250000D01*
G75*
G02*
X52548000Y-125301000I-51000J0D01*
G01*
X51388000Y-125301000D01*
G75*
G02*
X51337000Y-125250000I0J51000D01*
G01*
X51337000Y-123780000D01*
G75*
G02*
X51388000Y-123729000I51000J0D01*
G01*
X52548000Y-123729000D01*
G75*
G02*
X52599000Y-123780000I0J-51000D01*
G01*
G37*
G36*
G01*
X70009000Y-120985000D02*
X70009000Y-119515000D01*
G75*
G02*
X70060000Y-119464000I51000J0D01*
G01*
X71220000Y-119464000D01*
G75*
G02*
X71271000Y-119515000I0J-51000D01*
G01*
X71271000Y-120985000D01*
G75*
G02*
X71220000Y-121036000I-51000J0D01*
G01*
X70060000Y-121036000D01*
G75*
G02*
X70009000Y-120985000I0J51000D01*
G01*
G37*
G36*
G01*
X68229000Y-120985000D02*
X68229000Y-119515000D01*
G75*
G02*
X68280000Y-119464000I51000J0D01*
G01*
X69440000Y-119464000D01*
G75*
G02*
X69491000Y-119515000I0J-51000D01*
G01*
X69491000Y-120985000D01*
G75*
G02*
X69440000Y-121036000I-51000J0D01*
G01*
X68280000Y-121036000D01*
G75*
G02*
X68229000Y-120985000I0J51000D01*
G01*
G37*
M02*
