M48
;DRILL file {KiCad (6.0.0-rc1-dev-882-gdbc9130da)} date 2019/10/30 14:39:13
;FORMAT={-:-/ absolute / metric / decimal}
FMAT,2
METRIC
T1C0.400
T2C0.600
T3C1.200
T4C1.300
T5C3.500
T6C4.400
%
G90
G05
M71
T1
X52.07Y-76.708
X52.324Y-137.176
X52.959Y-94.869
X53.34Y-52.705
X55.524Y-137.176
X56.54Y-52.705
X57.785Y-76.454
X58.724Y-137.176
X59.74Y-52.705
X61.595Y-76.581
X61.924Y-137.176
X62.94Y-52.705
X63.627Y-94.234
X64.643Y-108.204
X65.124Y-137.176
X65.151Y-76.454
X65.659Y-91.313
X66.14Y-52.705
X67.945Y-111.633
X68.072Y-76.454
X68.324Y-137.176
X69.34Y-52.705
X70.358Y-70.866
X70.485Y-117.729
X71.374Y-101.473
X71.501Y-63.373
X71.524Y-137.176
X72.54Y-52.705
X72.644Y-125.349
X73.152Y-84.836
X73.279Y-103.505
X74.549Y-90.17
X74.724Y-137.176
X74.803Y-62.357
X75.311Y-82.423
X75.438Y-125.984
X75.74Y-52.705
X76.962Y-127.635
X77.343Y-61.214
X77.924Y-137.176
X78.232Y-108.966
X78.613Y-79.502
X78.94Y-52.705
X79.629Y-129.794
X80.264Y-109.347
X80.899Y-57.658
X81.124Y-137.176
X82.14Y-52.705
X82.55Y-80.645
X82.677Y-85.979
X82.677Y-91.567
X83.312Y-110.49
X84.324Y-137.176
X84.582Y-117.729
X84.582Y-119.253
X84.963Y-130.556
X85.34Y-52.705
X86.487Y-96.012
X87.524Y-137.176
X88.54Y-52.705
X88.9Y-66.548
X89.027Y-99.314
X89.662Y-120.904
X90.17Y-57.15
X90.678Y-76.327
X90.724Y-137.176
X91.74Y-52.705
X91.948Y-101.854
X93.599Y-120.904
X93.924Y-137.176
X94.869Y-130.556
X94.94Y-52.705
X96.266Y-121.285
X96.52Y-66.548
X96.774Y-106.68
X97.124Y-137.176
X97.155Y-122.301
X98.044Y-76.454
X98.14Y-52.705
X99.314Y-109.22
X100.324Y-137.176
X100.584Y-116.586
X100.584Y-118.872
X100.711Y-111.506
X101.34Y-52.705
X101.346Y-57.15
X104.394Y-84.328
X104.54Y-52.705
X105.537Y-103.124
X106.807Y-86.614
X107.315Y-80.772
X107.74Y-52.705
X107.823Y-90.17
X108.83Y-130.946
X110.871Y-109.601
X110.94Y-52.705
X112.268Y-57.15
X114.046Y-110.871
X114.14Y-52.705
X114.264Y-130.81
X114.427Y-116.332
X114.427Y-118.491
X117.34Y-52.705
X118.11Y-66.04
X118.237Y-75.692
X118.999Y-94.869
X119.507Y-131.064
X120.523Y-121.92
X120.54Y-52.705
X122.047Y-57.15
X122.047Y-94.996
X122.301Y-97.409
X123.74Y-52.705
X123.825Y-75.819
X124.206Y-121.92
X124.46Y-100.711
X124.932Y-131.064
X126.619Y-66.04
X126.94Y-52.705
X127.381Y-75.819
X127.635Y-57.15
X127.889Y-121.92
X129.921Y-69.596
X129.921Y-71.374
X130.14Y-52.705
X130.175Y-131.064
X130.683Y-108.331
X130.683Y-110.744
X130.81Y-116.459
X130.81Y-118.999
X133.34Y-52.705
X134.366Y-132.08
X135.524Y-137.176
X136.54Y-52.705
X136.652Y-83.439
X137.668Y-80.772
X139.192Y-78.613
X139.319Y-102.743
X139.573Y-105.537
X139.573Y-109.474
X139.74Y-52.705
X139.827Y-86.487
X140.589Y-90.551
X142.94Y-52.705
X143.764Y-77.47
X144.145Y-110.871
X144.399Y-69.723
X144.526Y-72.771
X144.526Y-115.316
X144.526Y-120.015
X145.161Y-131.191
X145.542Y-121.92
X146.14Y-52.705
X149.34Y-52.705
X152.54Y-52.705
X154.94Y-121.92
X154.94Y-131.191
X155.575Y-94.615
X155.575Y-98.425
X157.353Y-114.3
X157.353Y-121.92
X157.48Y-118.618
X158.496Y-110.744
X158.75Y-130.683
X162.052Y-109.601
X162.687Y-76.2
X163.576Y-66.802
X164.324Y-137.176
X165.227Y-130.683
X165.34Y-52.705
X165.481Y-76.2
X168.021Y-57.023
X168.54Y-52.705
X170.053Y-66.802
X170.307Y-76.073
X170.561Y-103.505
X170.688Y-109.22
X170.815Y-116.713
X171.06Y-132.198
X171.069Y-85.09
X171.74Y-52.705
X173.228Y-87.884
X173.482Y-90.678
X174.244Y-84.963
X174.94Y-52.705
X176.149Y-57.023
X176.149Y-121.92
X176.457Y-132.134
X178.14Y-52.705
X178.562Y-83.185
X179.959Y-81.407
X180.594Y-121.92
X181.34Y-52.705
X181.356Y-80.772
X182.98Y-130.946
X183.896Y-121.92
X184.54Y-52.705
X185.293Y-94.742
X187.325Y-116.332
X187.325Y-118.872
X187.74Y-52.705
X188.332Y-130.928
X188.341Y-57.023
X188.341Y-94.742
X188.341Y-97.663
X189.924Y-137.176
X190.754Y-100.838
X190.94Y-52.705
X192.151Y-109.474
X192.278Y-66.548
X193.124Y-137.176
X193.648Y-130.946
X194.14Y-52.705
X196.324Y-137.176
X196.342Y-76.2
X196.723Y-66.548
X197.34Y-52.705
X197.993Y-132.08
X199.524Y-137.176
X200.54Y-52.705
X200.787Y-130.937
X200.914Y-76.073
X201.041Y-66.548
X201.041Y-111.125
X201.168Y-116.586
X201.168Y-118.999
X202.057Y-57.023
X202.057Y-107.823
X202.184Y-103.632
X202.724Y-137.176
X203.74Y-52.705
X204.089Y-85.09
X204.724Y-69.469
X204.724Y-71.628
X204.978Y-121.92
X205.924Y-137.176
X206.248Y-88.011
X206.502Y-84.836
X206.502Y-90.551
X206.94Y-52.705
X207.899Y-131.064
X209.124Y-137.176
X209.677Y-82.042
X210.14Y-52.705
X212.217Y-79.629
X212.324Y-137.176
X212.979Y-121.92
X213.34Y-52.705
X213.487Y-57.023
X213.868Y-80.518
X215.392Y-131.064
X215.524Y-137.176
X216.54Y-52.705
X217.17Y-117.983
X217.678Y-95.123
X218.724Y-137.176
X219.202Y-69.088
X219.202Y-71.501
X219.202Y-110.109
X219.74Y-52.705
X220.091Y-95.25
X220.853Y-131.191
X221.361Y-109.347
X221.615Y-97.282
X221.924Y-137.176
X222.94Y-52.705
X223.012Y-100.076
X223.266Y-109.855
X223.52Y-76.2
X224.028Y-107.442
X224.155Y-66.294
X224.663Y-127.0
X224.917Y-101.854
X225.124Y-137.176
X226.14Y-52.705
X228.092Y-76.2
X228.324Y-137.176
X229.235Y-57.023
X229.34Y-52.705
X231.394Y-116.586
X231.394Y-118.618
X231.524Y-137.176
X231.902Y-66.421
X232.54Y-52.705
X232.791Y-76.2
X233.426Y-111.506
X234.724Y-137.176
X235.204Y-104.14
X235.331Y-69.469
X235.331Y-71.501
X235.74Y-52.705
X236.855Y-84.709
X237.924Y-137.176
X238.379Y-87.122
X238.94Y-52.705
X239.141Y-84.455
X239.776Y-91.313
X241.124Y-137.176
X241.554Y-56.896
X242.062Y-81.407
X242.14Y-52.705
X244.655Y-137.303
X245.745Y-78.613
X246.761Y-58.547
X247.855Y-137.303
X248.539Y-60.833
X109.37Y-104.12
X110.745Y-101.738
X110.745Y-106.502
X113.495Y-101.738
X113.495Y-106.502
X114.87Y-104.12
X138.498Y-134.245
X138.498Y-136.995
X140.88Y-132.87
X140.88Y-138.37
X143.262Y-134.245
X143.262Y-136.995
X142.37Y-104.12
X143.745Y-101.738
X143.745Y-106.502
X146.495Y-101.738
X146.495Y-106.502
X147.87Y-104.12
X156.738Y-53.005
X156.738Y-55.755
X159.12Y-51.63
X159.12Y-57.13
X161.502Y-53.005
X161.502Y-55.755
X208.37Y-104.12
X209.745Y-101.738
X209.745Y-106.502
X212.495Y-101.738
X212.495Y-106.502
X213.87Y-104.12
X241.37Y-104.12
X242.745Y-101.738
X242.745Y-106.502
X245.495Y-101.738
X245.495Y-106.502
X246.87Y-104.12
X76.37Y-104.12
X77.745Y-101.738
X77.745Y-106.502
X80.495Y-101.738
X80.495Y-106.502
X81.87Y-104.12
X175.37Y-104.12
X176.745Y-101.738
X176.745Y-106.502
X179.495Y-101.738
X179.495Y-106.502
X180.87Y-104.12
T2
X62.865Y-121.539
X104.965Y-136.144
X105.093Y-138.43
X117.094Y-120.65
X118.491Y-122.174
X170.688Y-105.537
X170.942Y-118.999
X173.609Y-120.396
X173.609Y-121.92
X209.042Y-122.174
X222.885Y-128.778
X234.823Y-105.664
T3
X113.665Y-136.017
X116.205Y-136.017
X118.745Y-136.017
X121.285Y-136.017
X123.825Y-136.017
X126.365Y-136.017
X128.905Y-136.017
X131.445Y-136.017
X168.275Y-136.017
X170.815Y-136.017
X173.355Y-136.017
X175.895Y-136.017
X178.435Y-136.017
X180.975Y-136.017
X183.515Y-136.017
X186.055Y-136.017
T4
X119.5Y-80.5
X119.5Y-85.5
X119.5Y-90.5
X119.5Y-105.5
X127.0Y-80.5
X127.0Y-85.5
X127.0Y-90.5
X127.0Y-105.5
X84.963Y-114.0
X84.963Y-121.5
X99.963Y-114.0
X99.963Y-121.5
X104.963Y-114.0
X104.963Y-121.5
X109.963Y-114.0
X109.963Y-121.5
X115.189Y-114.0
X115.189Y-121.5
X130.189Y-114.0
X130.189Y-121.5
X135.189Y-114.0
X135.189Y-121.5
X140.189Y-114.0
X140.189Y-121.5
X185.5Y-80.5
X185.5Y-85.5
X185.5Y-90.5
X185.5Y-105.5
X193.0Y-80.5
X193.0Y-85.5
X193.0Y-90.5
X193.0Y-105.5
X87.115Y-80.5
X87.115Y-85.5
X87.115Y-90.5
X87.115Y-105.5
X94.615Y-80.5
X94.615Y-85.5
X94.615Y-90.5
X94.615Y-105.5
X115.189Y-66.787
X115.189Y-74.287
X130.189Y-66.787
X130.189Y-74.287
X135.189Y-66.787
X135.189Y-74.287
X140.189Y-66.787
X140.189Y-74.287
X54.0Y-80.5
X54.0Y-85.5
X54.0Y-90.5
X54.0Y-105.5
X61.5Y-80.5
X61.5Y-85.5
X61.5Y-90.5
X61.5Y-105.5
X189.103Y-66.914
X189.103Y-74.414
X204.103Y-66.914
X204.103Y-74.414
X209.103Y-66.914
X209.103Y-74.414
X214.103Y-66.914
X214.103Y-74.414
X191.66Y-113.946
X191.66Y-121.446
X196.66Y-113.946
X196.66Y-121.446
X201.66Y-113.946
X201.66Y-121.446
X216.66Y-113.946
X216.66Y-121.446
X152.647Y-80.5
X152.647Y-85.5
X152.647Y-90.5
X152.647Y-105.5
X160.147Y-80.5
X160.147Y-85.5
X160.147Y-90.5
X160.147Y-105.5
X221.58Y-113.946
X221.58Y-121.446
X226.58Y-113.946
X226.58Y-121.446
X231.58Y-113.946
X231.58Y-121.446
X246.58Y-113.946
X246.58Y-121.446
X161.48Y-113.946
X161.48Y-121.446
X166.48Y-113.946
X166.48Y-121.446
X171.48Y-113.946
X171.48Y-121.446
X186.48Y-113.946
X186.48Y-121.446
X54.991Y-114.0
X54.991Y-121.5
X69.991Y-114.0
X69.991Y-121.5
X74.991Y-114.0
X74.991Y-121.5
X79.991Y-114.0
X79.991Y-121.5
X158.623Y-66.914
X158.623Y-74.414
X173.623Y-66.914
X173.623Y-74.414
X178.623Y-66.914
X178.623Y-74.414
X183.623Y-66.914
X183.623Y-74.414
X54.991Y-66.787
X54.991Y-74.287
X69.991Y-66.787
X69.991Y-74.287
X74.991Y-66.787
X74.991Y-74.287
X79.991Y-66.787
X79.991Y-74.287
X218.5Y-80.5
X218.5Y-85.5
X218.5Y-90.5
X218.5Y-105.5
X226.0Y-80.5
X226.0Y-85.5
X226.0Y-90.5
X226.0Y-105.5
X84.963Y-66.787
X84.963Y-74.287
X99.963Y-66.787
X99.963Y-74.287
X104.963Y-66.787
X104.963Y-74.287
X109.963Y-66.787
X109.963Y-74.287
X220.472Y-66.787
X220.472Y-74.287
X235.472Y-66.787
X235.472Y-74.287
X240.472Y-66.787
X240.472Y-74.287
X245.472Y-66.787
X245.472Y-74.287
T5
X140.88Y-135.62
X145.12Y-104.12
X159.12Y-54.38
X211.12Y-104.12
X244.12Y-104.12
X79.12Y-104.12
X178.12Y-104.12
X112.12Y-104.12
T6
X70.0Y-95.0
X103.0Y-95.0
X150.0Y-126.5
X136.0Y-95.0
X150.0Y-63.5
X202.0Y-95.0
X235.0Y-95.0
X169.0Y-95.0
T0
M30
