%TF.GenerationSoftware,KiCad,Pcbnew,(6.0.0-rc1-dev-882-gdbc9130da)*%
%TF.CreationDate,2019-10-30T14:39:13+08:00*%
%TF.ProjectId,AntennaSwitch_6x2_RelayBoard,416E74656E6E615377697463685F3678,rev?*%
%TF.SameCoordinates,Original*%
%TF.FileFunction,Soldermask,Top*%
%TF.FilePolarity,Negative*%
%FSLAX46Y46*%
G04 Gerber Fmt 4.6, Leading zero omitted, Abs format (unit mm)*
G04 Created by KiCad (PCBNEW (6.0.0-rc1-dev-882-gdbc9130da)) date 2019/10/30 14:39:13*
%MOMM*%
%LPD*%
G01*
G04 APERTURE LIST*
%ADD10C,0.150000*%
%ADD11C,0.350000*%
G04 APERTURE END LIST*
D10*
X145288000Y-63627000D02*
X145034000Y-63627000D01*
D11*
G36*
X141988710Y-131965070D02*
X142680447Y-132251597D01*
X143302999Y-132667573D01*
X143832427Y-133197001D01*
X144248403Y-133819553D01*
X144534930Y-134511290D01*
X144681000Y-135245633D01*
X144681000Y-135994367D01*
X144534930Y-136728710D01*
X144248403Y-137420447D01*
X143832427Y-138042999D01*
X143302999Y-138572427D01*
X142680447Y-138988403D01*
X141988710Y-139274930D01*
X141254367Y-139421000D01*
X140505633Y-139421000D01*
X139771290Y-139274930D01*
X139079553Y-138988403D01*
X138457001Y-138572427D01*
X137927573Y-138042999D01*
X137511597Y-137420447D01*
X137225070Y-136728710D01*
X137079000Y-135994367D01*
X137079000Y-135245633D01*
X137225070Y-134511290D01*
X137511597Y-133819553D01*
X137927573Y-133197001D01*
X138457001Y-132667573D01*
X139079553Y-132251597D01*
X139771290Y-131965070D01*
X140505633Y-131819000D01*
X141254367Y-131819000D01*
X141988710Y-131965070D01*
X141988710Y-131965070D01*
G37*
G36*
X121491031Y-134681207D02*
X121689145Y-134741305D01*
X121871729Y-134838897D01*
X122031765Y-134970235D01*
X122031766Y-134970237D01*
X122031768Y-134970238D01*
X122110568Y-135066257D01*
X122163103Y-135130271D01*
X122260695Y-135312854D01*
X122320793Y-135510968D01*
X122336000Y-135665370D01*
X122336000Y-136368629D01*
X122320793Y-136523031D01*
X122314432Y-136544000D01*
X122260695Y-136721147D01*
X122228504Y-136781371D01*
X122163103Y-136903729D01*
X122031765Y-137063765D01*
X121871729Y-137195103D01*
X121689146Y-137292695D01*
X121491032Y-137352793D01*
X121285000Y-137373085D01*
X121078969Y-137352793D01*
X120880855Y-137292695D01*
X120698272Y-137195103D01*
X120538236Y-137063765D01*
X120518257Y-137039420D01*
X120406899Y-136903731D01*
X120309306Y-136721148D01*
X120289273Y-136655108D01*
X120249207Y-136523032D01*
X120234000Y-136368630D01*
X120234000Y-135665371D01*
X120249207Y-135510969D01*
X120309305Y-135312855D01*
X120406897Y-135130271D01*
X120538235Y-134970235D01*
X120538237Y-134970234D01*
X120538238Y-134970232D01*
X120698269Y-134838899D01*
X120698271Y-134838897D01*
X120880854Y-134741305D01*
X121078968Y-134681207D01*
X121285000Y-134660915D01*
X121491031Y-134681207D01*
X121491031Y-134681207D01*
G37*
G36*
X173561031Y-134681207D02*
X173759145Y-134741305D01*
X173941729Y-134838897D01*
X174101765Y-134970235D01*
X174101766Y-134970237D01*
X174101768Y-134970238D01*
X174180568Y-135066257D01*
X174233103Y-135130271D01*
X174330695Y-135312854D01*
X174390793Y-135510968D01*
X174406000Y-135665370D01*
X174406000Y-136368629D01*
X174390793Y-136523031D01*
X174384432Y-136544000D01*
X174330695Y-136721147D01*
X174298504Y-136781371D01*
X174233103Y-136903729D01*
X174101765Y-137063765D01*
X173941729Y-137195103D01*
X173759146Y-137292695D01*
X173561032Y-137352793D01*
X173355000Y-137373085D01*
X173148969Y-137352793D01*
X172950855Y-137292695D01*
X172768272Y-137195103D01*
X172608236Y-137063765D01*
X172588257Y-137039420D01*
X172476899Y-136903731D01*
X172379306Y-136721148D01*
X172359273Y-136655108D01*
X172319207Y-136523032D01*
X172304000Y-136368630D01*
X172304000Y-135665371D01*
X172319207Y-135510969D01*
X172379305Y-135312855D01*
X172476897Y-135130271D01*
X172608235Y-134970235D01*
X172608237Y-134970234D01*
X172608238Y-134970232D01*
X172768269Y-134838899D01*
X172768271Y-134838897D01*
X172950854Y-134741305D01*
X173148968Y-134681207D01*
X173355000Y-134660915D01*
X173561031Y-134681207D01*
X173561031Y-134681207D01*
G37*
G36*
X176101031Y-134681207D02*
X176299145Y-134741305D01*
X176481729Y-134838897D01*
X176641765Y-134970235D01*
X176641766Y-134970237D01*
X176641768Y-134970238D01*
X176720568Y-135066257D01*
X176773103Y-135130271D01*
X176870695Y-135312854D01*
X176930793Y-135510968D01*
X176946000Y-135665370D01*
X176946000Y-136368629D01*
X176930793Y-136523031D01*
X176924432Y-136544000D01*
X176870695Y-136721147D01*
X176838504Y-136781371D01*
X176773103Y-136903729D01*
X176641765Y-137063765D01*
X176481729Y-137195103D01*
X176299146Y-137292695D01*
X176101032Y-137352793D01*
X175895000Y-137373085D01*
X175688969Y-137352793D01*
X175490855Y-137292695D01*
X175308272Y-137195103D01*
X175148236Y-137063765D01*
X175128257Y-137039420D01*
X175016899Y-136903731D01*
X174919306Y-136721148D01*
X174899273Y-136655108D01*
X174859207Y-136523032D01*
X174844000Y-136368630D01*
X174844000Y-135665371D01*
X174859207Y-135510969D01*
X174919305Y-135312855D01*
X175016897Y-135130271D01*
X175148235Y-134970235D01*
X175148237Y-134970234D01*
X175148238Y-134970232D01*
X175308269Y-134838899D01*
X175308271Y-134838897D01*
X175490854Y-134741305D01*
X175688968Y-134681207D01*
X175895000Y-134660915D01*
X176101031Y-134681207D01*
X176101031Y-134681207D01*
G37*
G36*
X178641031Y-134681207D02*
X178839145Y-134741305D01*
X179021729Y-134838897D01*
X179181765Y-134970235D01*
X179181766Y-134970237D01*
X179181768Y-134970238D01*
X179260568Y-135066257D01*
X179313103Y-135130271D01*
X179410695Y-135312854D01*
X179470793Y-135510968D01*
X179486000Y-135665370D01*
X179486000Y-136368629D01*
X179470793Y-136523031D01*
X179464432Y-136544000D01*
X179410695Y-136721147D01*
X179378504Y-136781371D01*
X179313103Y-136903729D01*
X179181765Y-137063765D01*
X179021729Y-137195103D01*
X178839146Y-137292695D01*
X178641032Y-137352793D01*
X178435000Y-137373085D01*
X178228969Y-137352793D01*
X178030855Y-137292695D01*
X177848272Y-137195103D01*
X177688236Y-137063765D01*
X177668257Y-137039420D01*
X177556899Y-136903731D01*
X177459306Y-136721148D01*
X177439273Y-136655108D01*
X177399207Y-136523032D01*
X177384000Y-136368630D01*
X177384000Y-135665371D01*
X177399207Y-135510969D01*
X177459305Y-135312855D01*
X177556897Y-135130271D01*
X177688235Y-134970235D01*
X177688237Y-134970234D01*
X177688238Y-134970232D01*
X177848269Y-134838899D01*
X177848271Y-134838897D01*
X178030854Y-134741305D01*
X178228968Y-134681207D01*
X178435000Y-134660915D01*
X178641031Y-134681207D01*
X178641031Y-134681207D01*
G37*
G36*
X181181031Y-134681207D02*
X181379145Y-134741305D01*
X181561729Y-134838897D01*
X181721765Y-134970235D01*
X181721766Y-134970237D01*
X181721768Y-134970238D01*
X181800568Y-135066257D01*
X181853103Y-135130271D01*
X181950695Y-135312854D01*
X182010793Y-135510968D01*
X182026000Y-135665370D01*
X182026000Y-136368629D01*
X182010793Y-136523031D01*
X182004432Y-136544000D01*
X181950695Y-136721147D01*
X181918504Y-136781371D01*
X181853103Y-136903729D01*
X181721765Y-137063765D01*
X181561729Y-137195103D01*
X181379146Y-137292695D01*
X181181032Y-137352793D01*
X180975000Y-137373085D01*
X180768969Y-137352793D01*
X180570855Y-137292695D01*
X180388272Y-137195103D01*
X180228236Y-137063765D01*
X180208257Y-137039420D01*
X180096899Y-136903731D01*
X179999306Y-136721148D01*
X179979273Y-136655108D01*
X179939207Y-136523032D01*
X179924000Y-136368630D01*
X179924000Y-135665371D01*
X179939207Y-135510969D01*
X179999305Y-135312855D01*
X180096897Y-135130271D01*
X180228235Y-134970235D01*
X180228237Y-134970234D01*
X180228238Y-134970232D01*
X180388269Y-134838899D01*
X180388271Y-134838897D01*
X180570854Y-134741305D01*
X180768968Y-134681207D01*
X180975000Y-134660915D01*
X181181031Y-134681207D01*
X181181031Y-134681207D01*
G37*
G36*
X183721031Y-134681207D02*
X183919145Y-134741305D01*
X184101729Y-134838897D01*
X184261765Y-134970235D01*
X184261766Y-134970237D01*
X184261768Y-134970238D01*
X184340568Y-135066257D01*
X184393103Y-135130271D01*
X184490695Y-135312854D01*
X184550793Y-135510968D01*
X184566000Y-135665370D01*
X184566000Y-136368629D01*
X184550793Y-136523031D01*
X184544432Y-136544000D01*
X184490695Y-136721147D01*
X184458504Y-136781371D01*
X184393103Y-136903729D01*
X184261765Y-137063765D01*
X184101729Y-137195103D01*
X183919146Y-137292695D01*
X183721032Y-137352793D01*
X183515000Y-137373085D01*
X183308969Y-137352793D01*
X183110855Y-137292695D01*
X182928272Y-137195103D01*
X182768236Y-137063765D01*
X182748257Y-137039420D01*
X182636899Y-136903731D01*
X182539306Y-136721148D01*
X182519273Y-136655108D01*
X182479207Y-136523032D01*
X182464000Y-136368630D01*
X182464000Y-135665371D01*
X182479207Y-135510969D01*
X182539305Y-135312855D01*
X182636897Y-135130271D01*
X182768235Y-134970235D01*
X182768237Y-134970234D01*
X182768238Y-134970232D01*
X182928269Y-134838899D01*
X182928271Y-134838897D01*
X183110854Y-134741305D01*
X183308968Y-134681207D01*
X183515000Y-134660915D01*
X183721031Y-134681207D01*
X183721031Y-134681207D01*
G37*
G36*
X186261031Y-134681207D02*
X186459145Y-134741305D01*
X186641729Y-134838897D01*
X186801765Y-134970235D01*
X186801766Y-134970237D01*
X186801768Y-134970238D01*
X186880568Y-135066257D01*
X186933103Y-135130271D01*
X187030695Y-135312854D01*
X187090793Y-135510968D01*
X187106000Y-135665370D01*
X187106000Y-136368629D01*
X187090793Y-136523031D01*
X187084432Y-136544000D01*
X187030695Y-136721147D01*
X186998504Y-136781371D01*
X186933103Y-136903729D01*
X186801765Y-137063765D01*
X186641729Y-137195103D01*
X186459146Y-137292695D01*
X186261032Y-137352793D01*
X186055000Y-137373085D01*
X185848969Y-137352793D01*
X185650855Y-137292695D01*
X185468272Y-137195103D01*
X185308236Y-137063765D01*
X185288257Y-137039420D01*
X185176899Y-136903731D01*
X185079306Y-136721148D01*
X185059273Y-136655108D01*
X185019207Y-136523032D01*
X185004000Y-136368630D01*
X185004000Y-135665371D01*
X185019207Y-135510969D01*
X185079305Y-135312855D01*
X185176897Y-135130271D01*
X185308235Y-134970235D01*
X185308237Y-134970234D01*
X185308238Y-134970232D01*
X185468269Y-134838899D01*
X185468271Y-134838897D01*
X185650854Y-134741305D01*
X185848968Y-134681207D01*
X186055000Y-134660915D01*
X186261031Y-134681207D01*
X186261031Y-134681207D01*
G37*
G36*
X118951031Y-134681207D02*
X119149145Y-134741305D01*
X119331729Y-134838897D01*
X119491765Y-134970235D01*
X119491766Y-134970237D01*
X119491768Y-134970238D01*
X119570568Y-135066257D01*
X119623103Y-135130271D01*
X119720695Y-135312854D01*
X119780793Y-135510968D01*
X119796000Y-135665370D01*
X119796000Y-136368629D01*
X119780793Y-136523031D01*
X119774432Y-136544000D01*
X119720695Y-136721147D01*
X119688504Y-136781371D01*
X119623103Y-136903729D01*
X119491765Y-137063765D01*
X119331729Y-137195103D01*
X119149146Y-137292695D01*
X118951032Y-137352793D01*
X118745000Y-137373085D01*
X118538969Y-137352793D01*
X118340855Y-137292695D01*
X118158272Y-137195103D01*
X117998236Y-137063765D01*
X117978257Y-137039420D01*
X117866899Y-136903731D01*
X117769306Y-136721148D01*
X117749273Y-136655108D01*
X117709207Y-136523032D01*
X117694000Y-136368630D01*
X117694000Y-135665371D01*
X117709207Y-135510969D01*
X117769305Y-135312855D01*
X117866897Y-135130271D01*
X117998235Y-134970235D01*
X117998237Y-134970234D01*
X117998238Y-134970232D01*
X118158269Y-134838899D01*
X118158271Y-134838897D01*
X118340854Y-134741305D01*
X118538968Y-134681207D01*
X118745000Y-134660915D01*
X118951031Y-134681207D01*
X118951031Y-134681207D01*
G37*
G36*
X171021031Y-134681207D02*
X171219145Y-134741305D01*
X171401729Y-134838897D01*
X171561765Y-134970235D01*
X171561766Y-134970237D01*
X171561768Y-134970238D01*
X171640568Y-135066257D01*
X171693103Y-135130271D01*
X171790695Y-135312854D01*
X171850793Y-135510968D01*
X171866000Y-135665370D01*
X171866000Y-136368629D01*
X171850793Y-136523031D01*
X171844432Y-136544000D01*
X171790695Y-136721147D01*
X171758504Y-136781371D01*
X171693103Y-136903729D01*
X171561765Y-137063765D01*
X171401729Y-137195103D01*
X171219146Y-137292695D01*
X171021032Y-137352793D01*
X170815000Y-137373085D01*
X170608969Y-137352793D01*
X170410855Y-137292695D01*
X170228272Y-137195103D01*
X170068236Y-137063765D01*
X170048257Y-137039420D01*
X169936899Y-136903731D01*
X169839306Y-136721148D01*
X169819273Y-136655108D01*
X169779207Y-136523032D01*
X169764000Y-136368630D01*
X169764000Y-135665371D01*
X169779207Y-135510969D01*
X169839305Y-135312855D01*
X169936897Y-135130271D01*
X170068235Y-134970235D01*
X170068237Y-134970234D01*
X170068238Y-134970232D01*
X170228269Y-134838899D01*
X170228271Y-134838897D01*
X170410854Y-134741305D01*
X170608968Y-134681207D01*
X170815000Y-134660915D01*
X171021031Y-134681207D01*
X171021031Y-134681207D01*
G37*
G36*
X124031031Y-134681207D02*
X124229145Y-134741305D01*
X124411729Y-134838897D01*
X124571765Y-134970235D01*
X124571766Y-134970237D01*
X124571768Y-134970238D01*
X124650568Y-135066257D01*
X124703103Y-135130271D01*
X124800695Y-135312854D01*
X124860793Y-135510968D01*
X124876000Y-135665370D01*
X124876000Y-136368629D01*
X124860793Y-136523031D01*
X124854432Y-136544000D01*
X124800695Y-136721147D01*
X124768504Y-136781371D01*
X124703103Y-136903729D01*
X124571765Y-137063765D01*
X124411729Y-137195103D01*
X124229146Y-137292695D01*
X124031032Y-137352793D01*
X123825000Y-137373085D01*
X123618969Y-137352793D01*
X123420855Y-137292695D01*
X123238272Y-137195103D01*
X123078236Y-137063765D01*
X123058257Y-137039420D01*
X122946899Y-136903731D01*
X122849306Y-136721148D01*
X122829273Y-136655108D01*
X122789207Y-136523032D01*
X122774000Y-136368630D01*
X122774000Y-135665371D01*
X122789207Y-135510969D01*
X122849305Y-135312855D01*
X122946897Y-135130271D01*
X123078235Y-134970235D01*
X123078237Y-134970234D01*
X123078238Y-134970232D01*
X123238269Y-134838899D01*
X123238271Y-134838897D01*
X123420854Y-134741305D01*
X123618968Y-134681207D01*
X123825000Y-134660915D01*
X124031031Y-134681207D01*
X124031031Y-134681207D01*
G37*
G36*
X126571031Y-134681207D02*
X126769145Y-134741305D01*
X126951729Y-134838897D01*
X127111765Y-134970235D01*
X127111766Y-134970237D01*
X127111768Y-134970238D01*
X127190568Y-135066257D01*
X127243103Y-135130271D01*
X127340695Y-135312854D01*
X127400793Y-135510968D01*
X127416000Y-135665370D01*
X127416000Y-136368629D01*
X127400793Y-136523031D01*
X127394432Y-136544000D01*
X127340695Y-136721147D01*
X127308504Y-136781371D01*
X127243103Y-136903729D01*
X127111765Y-137063765D01*
X126951729Y-137195103D01*
X126769146Y-137292695D01*
X126571032Y-137352793D01*
X126365000Y-137373085D01*
X126158969Y-137352793D01*
X125960855Y-137292695D01*
X125778272Y-137195103D01*
X125618236Y-137063765D01*
X125598257Y-137039420D01*
X125486899Y-136903731D01*
X125389306Y-136721148D01*
X125369273Y-136655108D01*
X125329207Y-136523032D01*
X125314000Y-136368630D01*
X125314000Y-135665371D01*
X125329207Y-135510969D01*
X125389305Y-135312855D01*
X125486897Y-135130271D01*
X125618235Y-134970235D01*
X125618237Y-134970234D01*
X125618238Y-134970232D01*
X125778269Y-134838899D01*
X125778271Y-134838897D01*
X125960854Y-134741305D01*
X126158968Y-134681207D01*
X126365000Y-134660915D01*
X126571031Y-134681207D01*
X126571031Y-134681207D01*
G37*
G36*
X129111031Y-134681207D02*
X129309145Y-134741305D01*
X129491729Y-134838897D01*
X129651765Y-134970235D01*
X129651766Y-134970237D01*
X129651768Y-134970238D01*
X129730568Y-135066257D01*
X129783103Y-135130271D01*
X129880695Y-135312854D01*
X129940793Y-135510968D01*
X129956000Y-135665370D01*
X129956000Y-136368629D01*
X129940793Y-136523031D01*
X129934432Y-136544000D01*
X129880695Y-136721147D01*
X129848504Y-136781371D01*
X129783103Y-136903729D01*
X129651765Y-137063765D01*
X129491729Y-137195103D01*
X129309146Y-137292695D01*
X129111032Y-137352793D01*
X128905000Y-137373085D01*
X128698969Y-137352793D01*
X128500855Y-137292695D01*
X128318272Y-137195103D01*
X128158236Y-137063765D01*
X128138257Y-137039420D01*
X128026899Y-136903731D01*
X127929306Y-136721148D01*
X127909273Y-136655108D01*
X127869207Y-136523032D01*
X127854000Y-136368630D01*
X127854000Y-135665371D01*
X127869207Y-135510969D01*
X127929305Y-135312855D01*
X128026897Y-135130271D01*
X128158235Y-134970235D01*
X128158237Y-134970234D01*
X128158238Y-134970232D01*
X128318269Y-134838899D01*
X128318271Y-134838897D01*
X128500854Y-134741305D01*
X128698968Y-134681207D01*
X128905000Y-134660915D01*
X129111031Y-134681207D01*
X129111031Y-134681207D01*
G37*
G36*
X131651031Y-134681207D02*
X131849145Y-134741305D01*
X132031729Y-134838897D01*
X132191765Y-134970235D01*
X132191766Y-134970237D01*
X132191768Y-134970238D01*
X132270568Y-135066257D01*
X132323103Y-135130271D01*
X132420695Y-135312854D01*
X132480793Y-135510968D01*
X132496000Y-135665370D01*
X132496000Y-136368629D01*
X132480793Y-136523031D01*
X132474432Y-136544000D01*
X132420695Y-136721147D01*
X132388504Y-136781371D01*
X132323103Y-136903729D01*
X132191765Y-137063765D01*
X132031729Y-137195103D01*
X131849146Y-137292695D01*
X131651032Y-137352793D01*
X131445000Y-137373085D01*
X131238969Y-137352793D01*
X131040855Y-137292695D01*
X130858272Y-137195103D01*
X130698236Y-137063765D01*
X130678257Y-137039420D01*
X130566899Y-136903731D01*
X130469306Y-136721148D01*
X130449273Y-136655108D01*
X130409207Y-136523032D01*
X130394000Y-136368630D01*
X130394000Y-135665371D01*
X130409207Y-135510969D01*
X130469305Y-135312855D01*
X130566897Y-135130271D01*
X130698235Y-134970235D01*
X130698237Y-134970234D01*
X130698238Y-134970232D01*
X130858269Y-134838899D01*
X130858271Y-134838897D01*
X131040854Y-134741305D01*
X131238968Y-134681207D01*
X131445000Y-134660915D01*
X131651031Y-134681207D01*
X131651031Y-134681207D01*
G37*
G36*
X116411031Y-134681207D02*
X116609145Y-134741305D01*
X116791729Y-134838897D01*
X116951765Y-134970235D01*
X116951766Y-134970237D01*
X116951768Y-134970238D01*
X117030568Y-135066257D01*
X117083103Y-135130271D01*
X117180695Y-135312854D01*
X117240793Y-135510968D01*
X117256000Y-135665370D01*
X117256000Y-136368629D01*
X117240793Y-136523031D01*
X117234432Y-136544000D01*
X117180695Y-136721147D01*
X117148504Y-136781371D01*
X117083103Y-136903729D01*
X116951765Y-137063765D01*
X116791729Y-137195103D01*
X116609146Y-137292695D01*
X116411032Y-137352793D01*
X116205000Y-137373085D01*
X115998969Y-137352793D01*
X115800855Y-137292695D01*
X115618272Y-137195103D01*
X115458236Y-137063765D01*
X115438257Y-137039420D01*
X115326899Y-136903731D01*
X115229306Y-136721148D01*
X115209273Y-136655108D01*
X115169207Y-136523032D01*
X115154000Y-136368630D01*
X115154000Y-135665371D01*
X115169207Y-135510969D01*
X115229305Y-135312855D01*
X115326897Y-135130271D01*
X115458235Y-134970235D01*
X115458237Y-134970234D01*
X115458238Y-134970232D01*
X115618269Y-134838899D01*
X115618271Y-134838897D01*
X115800854Y-134741305D01*
X115998968Y-134681207D01*
X116205000Y-134660915D01*
X116411031Y-134681207D01*
X116411031Y-134681207D01*
G37*
G36*
X169326000Y-137368000D02*
X167224000Y-137368000D01*
X167224000Y-134666000D01*
X169326000Y-134666000D01*
X169326000Y-137368000D01*
X169326000Y-137368000D01*
G37*
G36*
X114716000Y-137368000D02*
X112614000Y-137368000D01*
X112614000Y-134666000D01*
X114716000Y-134666000D01*
X114716000Y-137368000D01*
X114716000Y-137368000D01*
G37*
G36*
X151108710Y-122845070D02*
X151800447Y-123131597D01*
X152422999Y-123547573D01*
X152952427Y-124077001D01*
X153368403Y-124699553D01*
X153654930Y-125391290D01*
X153801000Y-126125633D01*
X153801000Y-126874367D01*
X153654930Y-127608710D01*
X153368403Y-128300447D01*
X152952427Y-128922999D01*
X152422999Y-129452427D01*
X151800447Y-129868403D01*
X151108710Y-130154930D01*
X150374367Y-130301000D01*
X149625633Y-130301000D01*
X148891290Y-130154930D01*
X148199553Y-129868403D01*
X147577001Y-129452427D01*
X147047573Y-128922999D01*
X146631597Y-128300447D01*
X146345070Y-127608710D01*
X146199000Y-126874367D01*
X146199000Y-126125633D01*
X146345070Y-125391290D01*
X146631597Y-124699553D01*
X147047573Y-124077001D01*
X147577001Y-123547573D01*
X148199553Y-123131597D01*
X148891290Y-122845070D01*
X149625633Y-122699000D01*
X150374367Y-122699000D01*
X151108710Y-122845070D01*
X151108710Y-122845070D01*
G37*
G36*
X100342485Y-120248996D02*
X100342487Y-120248997D01*
X100342488Y-120248997D01*
X100448887Y-120293069D01*
X100579255Y-120347069D01*
X100792342Y-120489449D01*
X100973551Y-120670658D01*
X101115931Y-120883745D01*
X101214004Y-121120515D01*
X101264000Y-121371861D01*
X101264000Y-121628139D01*
X101224745Y-121825488D01*
X101214003Y-121879488D01*
X101115931Y-122116255D01*
X100973551Y-122329342D01*
X100792342Y-122510551D01*
X100792339Y-122510553D01*
X100579255Y-122652931D01*
X100342488Y-122751003D01*
X100342487Y-122751003D01*
X100342485Y-122751004D01*
X100091139Y-122801000D01*
X99834861Y-122801000D01*
X99583515Y-122751004D01*
X99583513Y-122751003D01*
X99583512Y-122751003D01*
X99346745Y-122652931D01*
X99133661Y-122510553D01*
X99133658Y-122510551D01*
X98952449Y-122329342D01*
X98810069Y-122116255D01*
X98711997Y-121879488D01*
X98701256Y-121825488D01*
X98662000Y-121628139D01*
X98662000Y-121371861D01*
X98711996Y-121120515D01*
X98810069Y-120883745D01*
X98952449Y-120670658D01*
X99133658Y-120489449D01*
X99346745Y-120347069D01*
X99477113Y-120293069D01*
X99583512Y-120248997D01*
X99583513Y-120248997D01*
X99583515Y-120248996D01*
X99834861Y-120199000D01*
X100091139Y-120199000D01*
X100342485Y-120248996D01*
X100342485Y-120248996D01*
G37*
G36*
X55370485Y-120248996D02*
X55370487Y-120248997D01*
X55370488Y-120248997D01*
X55476887Y-120293069D01*
X55607255Y-120347069D01*
X55820342Y-120489449D01*
X56001551Y-120670658D01*
X56143931Y-120883745D01*
X56242004Y-121120515D01*
X56292000Y-121371861D01*
X56292000Y-121628139D01*
X56252745Y-121825488D01*
X56242003Y-121879488D01*
X56143931Y-122116255D01*
X56001551Y-122329342D01*
X55820342Y-122510551D01*
X55820339Y-122510553D01*
X55607255Y-122652931D01*
X55370488Y-122751003D01*
X55370487Y-122751003D01*
X55370485Y-122751004D01*
X55119139Y-122801000D01*
X54862861Y-122801000D01*
X54611515Y-122751004D01*
X54611513Y-122751003D01*
X54611512Y-122751003D01*
X54374745Y-122652931D01*
X54161661Y-122510553D01*
X54161658Y-122510551D01*
X53980449Y-122329342D01*
X53838069Y-122116255D01*
X53739997Y-121879488D01*
X53729256Y-121825488D01*
X53690000Y-121628139D01*
X53690000Y-121371861D01*
X53739996Y-121120515D01*
X53838069Y-120883745D01*
X53980449Y-120670658D01*
X54161658Y-120489449D01*
X54374745Y-120347069D01*
X54505113Y-120293069D01*
X54611512Y-120248997D01*
X54611513Y-120248997D01*
X54611515Y-120248996D01*
X54862861Y-120199000D01*
X55119139Y-120199000D01*
X55370485Y-120248996D01*
X55370485Y-120248996D01*
G37*
G36*
X70370485Y-120248996D02*
X70370487Y-120248997D01*
X70370488Y-120248997D01*
X70476887Y-120293069D01*
X70607255Y-120347069D01*
X70820342Y-120489449D01*
X71001551Y-120670658D01*
X71143931Y-120883745D01*
X71242004Y-121120515D01*
X71292000Y-121371861D01*
X71292000Y-121628139D01*
X71252745Y-121825488D01*
X71242003Y-121879488D01*
X71143931Y-122116255D01*
X71001551Y-122329342D01*
X70820342Y-122510551D01*
X70820339Y-122510553D01*
X70607255Y-122652931D01*
X70370488Y-122751003D01*
X70370487Y-122751003D01*
X70370485Y-122751004D01*
X70119139Y-122801000D01*
X69862861Y-122801000D01*
X69611515Y-122751004D01*
X69611513Y-122751003D01*
X69611512Y-122751003D01*
X69374745Y-122652931D01*
X69161661Y-122510553D01*
X69161658Y-122510551D01*
X68980449Y-122329342D01*
X68838069Y-122116255D01*
X68739997Y-121879488D01*
X68729256Y-121825488D01*
X68690000Y-121628139D01*
X68690000Y-121371861D01*
X68739996Y-121120515D01*
X68838069Y-120883745D01*
X68980449Y-120670658D01*
X69161658Y-120489449D01*
X69374745Y-120347069D01*
X69505113Y-120293069D01*
X69611512Y-120248997D01*
X69611513Y-120248997D01*
X69611515Y-120248996D01*
X69862861Y-120199000D01*
X70119139Y-120199000D01*
X70370485Y-120248996D01*
X70370485Y-120248996D01*
G37*
G36*
X75370485Y-120248996D02*
X75370487Y-120248997D01*
X75370488Y-120248997D01*
X75476887Y-120293069D01*
X75607255Y-120347069D01*
X75820342Y-120489449D01*
X76001551Y-120670658D01*
X76143931Y-120883745D01*
X76242004Y-121120515D01*
X76292000Y-121371861D01*
X76292000Y-121628139D01*
X76252745Y-121825488D01*
X76242003Y-121879488D01*
X76143931Y-122116255D01*
X76001551Y-122329342D01*
X75820342Y-122510551D01*
X75820339Y-122510553D01*
X75607255Y-122652931D01*
X75370488Y-122751003D01*
X75370487Y-122751003D01*
X75370485Y-122751004D01*
X75119139Y-122801000D01*
X74862861Y-122801000D01*
X74611515Y-122751004D01*
X74611513Y-122751003D01*
X74611512Y-122751003D01*
X74374745Y-122652931D01*
X74161661Y-122510553D01*
X74161658Y-122510551D01*
X73980449Y-122329342D01*
X73838069Y-122116255D01*
X73739997Y-121879488D01*
X73729256Y-121825488D01*
X73690000Y-121628139D01*
X73690000Y-121371861D01*
X73739996Y-121120515D01*
X73838069Y-120883745D01*
X73980449Y-120670658D01*
X74161658Y-120489449D01*
X74374745Y-120347069D01*
X74505113Y-120293069D01*
X74611512Y-120248997D01*
X74611513Y-120248997D01*
X74611515Y-120248996D01*
X74862861Y-120199000D01*
X75119139Y-120199000D01*
X75370485Y-120248996D01*
X75370485Y-120248996D01*
G37*
G36*
X80370485Y-120248996D02*
X80370487Y-120248997D01*
X80370488Y-120248997D01*
X80476887Y-120293069D01*
X80607255Y-120347069D01*
X80820342Y-120489449D01*
X81001551Y-120670658D01*
X81143931Y-120883745D01*
X81242004Y-121120515D01*
X81292000Y-121371861D01*
X81292000Y-121628139D01*
X81252745Y-121825488D01*
X81242003Y-121879488D01*
X81143931Y-122116255D01*
X81001551Y-122329342D01*
X80820342Y-122510551D01*
X80820339Y-122510553D01*
X80607255Y-122652931D01*
X80370488Y-122751003D01*
X80370487Y-122751003D01*
X80370485Y-122751004D01*
X80119139Y-122801000D01*
X79862861Y-122801000D01*
X79611515Y-122751004D01*
X79611513Y-122751003D01*
X79611512Y-122751003D01*
X79374745Y-122652931D01*
X79161661Y-122510553D01*
X79161658Y-122510551D01*
X78980449Y-122329342D01*
X78838069Y-122116255D01*
X78739997Y-121879488D01*
X78729256Y-121825488D01*
X78690000Y-121628139D01*
X78690000Y-121371861D01*
X78739996Y-121120515D01*
X78838069Y-120883745D01*
X78980449Y-120670658D01*
X79161658Y-120489449D01*
X79374745Y-120347069D01*
X79505113Y-120293069D01*
X79611512Y-120248997D01*
X79611513Y-120248997D01*
X79611515Y-120248996D01*
X79862861Y-120199000D01*
X80119139Y-120199000D01*
X80370485Y-120248996D01*
X80370485Y-120248996D01*
G37*
G36*
X85342485Y-120248996D02*
X85342487Y-120248997D01*
X85342488Y-120248997D01*
X85448887Y-120293069D01*
X85579255Y-120347069D01*
X85792342Y-120489449D01*
X85973551Y-120670658D01*
X86115931Y-120883745D01*
X86214004Y-121120515D01*
X86264000Y-121371861D01*
X86264000Y-121628139D01*
X86224745Y-121825488D01*
X86214003Y-121879488D01*
X86115931Y-122116255D01*
X85973551Y-122329342D01*
X85792342Y-122510551D01*
X85792339Y-122510553D01*
X85579255Y-122652931D01*
X85342488Y-122751003D01*
X85342487Y-122751003D01*
X85342485Y-122751004D01*
X85091139Y-122801000D01*
X84834861Y-122801000D01*
X84583515Y-122751004D01*
X84583513Y-122751003D01*
X84583512Y-122751003D01*
X84346745Y-122652931D01*
X84133661Y-122510553D01*
X84133658Y-122510551D01*
X83952449Y-122329342D01*
X83810069Y-122116255D01*
X83711997Y-121879488D01*
X83701256Y-121825488D01*
X83662000Y-121628139D01*
X83662000Y-121371861D01*
X83711996Y-121120515D01*
X83810069Y-120883745D01*
X83952449Y-120670658D01*
X84133658Y-120489449D01*
X84346745Y-120347069D01*
X84477113Y-120293069D01*
X84583512Y-120248997D01*
X84583513Y-120248997D01*
X84583515Y-120248996D01*
X84834861Y-120199000D01*
X85091139Y-120199000D01*
X85342485Y-120248996D01*
X85342485Y-120248996D01*
G37*
G36*
X105342485Y-120248996D02*
X105342487Y-120248997D01*
X105342488Y-120248997D01*
X105448887Y-120293069D01*
X105579255Y-120347069D01*
X105792342Y-120489449D01*
X105973551Y-120670658D01*
X106115931Y-120883745D01*
X106214004Y-121120515D01*
X106264000Y-121371861D01*
X106264000Y-121628139D01*
X106224745Y-121825488D01*
X106214003Y-121879488D01*
X106115931Y-122116255D01*
X105973551Y-122329342D01*
X105792342Y-122510551D01*
X105792339Y-122510553D01*
X105579255Y-122652931D01*
X105342488Y-122751003D01*
X105342487Y-122751003D01*
X105342485Y-122751004D01*
X105091139Y-122801000D01*
X104834861Y-122801000D01*
X104583515Y-122751004D01*
X104583513Y-122751003D01*
X104583512Y-122751003D01*
X104346745Y-122652931D01*
X104133661Y-122510553D01*
X104133658Y-122510551D01*
X103952449Y-122329342D01*
X103810069Y-122116255D01*
X103711997Y-121879488D01*
X103701256Y-121825488D01*
X103662000Y-121628139D01*
X103662000Y-121371861D01*
X103711996Y-121120515D01*
X103810069Y-120883745D01*
X103952449Y-120670658D01*
X104133658Y-120489449D01*
X104346745Y-120347069D01*
X104477113Y-120293069D01*
X104583512Y-120248997D01*
X104583513Y-120248997D01*
X104583515Y-120248996D01*
X104834861Y-120199000D01*
X105091139Y-120199000D01*
X105342485Y-120248996D01*
X105342485Y-120248996D01*
G37*
G36*
X115568485Y-120248996D02*
X115568487Y-120248997D01*
X115568488Y-120248997D01*
X115674887Y-120293069D01*
X115805255Y-120347069D01*
X116018342Y-120489449D01*
X116199551Y-120670658D01*
X116341931Y-120883745D01*
X116440004Y-121120515D01*
X116490000Y-121371861D01*
X116490000Y-121628139D01*
X116450745Y-121825488D01*
X116440003Y-121879488D01*
X116341931Y-122116255D01*
X116199551Y-122329342D01*
X116018342Y-122510551D01*
X116018339Y-122510553D01*
X115805255Y-122652931D01*
X115568488Y-122751003D01*
X115568487Y-122751003D01*
X115568485Y-122751004D01*
X115317139Y-122801000D01*
X115060861Y-122801000D01*
X114809515Y-122751004D01*
X114809513Y-122751003D01*
X114809512Y-122751003D01*
X114572745Y-122652931D01*
X114359661Y-122510553D01*
X114359658Y-122510551D01*
X114178449Y-122329342D01*
X114036069Y-122116255D01*
X113937997Y-121879488D01*
X113927256Y-121825488D01*
X113888000Y-121628139D01*
X113888000Y-121371861D01*
X113937996Y-121120515D01*
X114036069Y-120883745D01*
X114178449Y-120670658D01*
X114359658Y-120489449D01*
X114572745Y-120347069D01*
X114703113Y-120293069D01*
X114809512Y-120248997D01*
X114809513Y-120248997D01*
X114809515Y-120248996D01*
X115060861Y-120199000D01*
X115317139Y-120199000D01*
X115568485Y-120248996D01*
X115568485Y-120248996D01*
G37*
G36*
X130568485Y-120248996D02*
X130568487Y-120248997D01*
X130568488Y-120248997D01*
X130674887Y-120293069D01*
X130805255Y-120347069D01*
X131018342Y-120489449D01*
X131199551Y-120670658D01*
X131341931Y-120883745D01*
X131440004Y-121120515D01*
X131490000Y-121371861D01*
X131490000Y-121628139D01*
X131450745Y-121825488D01*
X131440003Y-121879488D01*
X131341931Y-122116255D01*
X131199551Y-122329342D01*
X131018342Y-122510551D01*
X131018339Y-122510553D01*
X130805255Y-122652931D01*
X130568488Y-122751003D01*
X130568487Y-122751003D01*
X130568485Y-122751004D01*
X130317139Y-122801000D01*
X130060861Y-122801000D01*
X129809515Y-122751004D01*
X129809513Y-122751003D01*
X129809512Y-122751003D01*
X129572745Y-122652931D01*
X129359661Y-122510553D01*
X129359658Y-122510551D01*
X129178449Y-122329342D01*
X129036069Y-122116255D01*
X128937997Y-121879488D01*
X128927256Y-121825488D01*
X128888000Y-121628139D01*
X128888000Y-121371861D01*
X128937996Y-121120515D01*
X129036069Y-120883745D01*
X129178449Y-120670658D01*
X129359658Y-120489449D01*
X129572745Y-120347069D01*
X129703113Y-120293069D01*
X129809512Y-120248997D01*
X129809513Y-120248997D01*
X129809515Y-120248996D01*
X130060861Y-120199000D01*
X130317139Y-120199000D01*
X130568485Y-120248996D01*
X130568485Y-120248996D01*
G37*
G36*
X135568485Y-120248996D02*
X135568487Y-120248997D01*
X135568488Y-120248997D01*
X135674887Y-120293069D01*
X135805255Y-120347069D01*
X136018342Y-120489449D01*
X136199551Y-120670658D01*
X136341931Y-120883745D01*
X136440004Y-121120515D01*
X136490000Y-121371861D01*
X136490000Y-121628139D01*
X136450745Y-121825488D01*
X136440003Y-121879488D01*
X136341931Y-122116255D01*
X136199551Y-122329342D01*
X136018342Y-122510551D01*
X136018339Y-122510553D01*
X135805255Y-122652931D01*
X135568488Y-122751003D01*
X135568487Y-122751003D01*
X135568485Y-122751004D01*
X135317139Y-122801000D01*
X135060861Y-122801000D01*
X134809515Y-122751004D01*
X134809513Y-122751003D01*
X134809512Y-122751003D01*
X134572745Y-122652931D01*
X134359661Y-122510553D01*
X134359658Y-122510551D01*
X134178449Y-122329342D01*
X134036069Y-122116255D01*
X133937997Y-121879488D01*
X133927256Y-121825488D01*
X133888000Y-121628139D01*
X133888000Y-121371861D01*
X133937996Y-121120515D01*
X134036069Y-120883745D01*
X134178449Y-120670658D01*
X134359658Y-120489449D01*
X134572745Y-120347069D01*
X134703113Y-120293069D01*
X134809512Y-120248997D01*
X134809513Y-120248997D01*
X134809515Y-120248996D01*
X135060861Y-120199000D01*
X135317139Y-120199000D01*
X135568485Y-120248996D01*
X135568485Y-120248996D01*
G37*
G36*
X140568485Y-120248996D02*
X140568487Y-120248997D01*
X140568488Y-120248997D01*
X140674887Y-120293069D01*
X140805255Y-120347069D01*
X141018342Y-120489449D01*
X141199551Y-120670658D01*
X141341931Y-120883745D01*
X141440004Y-121120515D01*
X141490000Y-121371861D01*
X141490000Y-121628139D01*
X141450745Y-121825488D01*
X141440003Y-121879488D01*
X141341931Y-122116255D01*
X141199551Y-122329342D01*
X141018342Y-122510551D01*
X141018339Y-122510553D01*
X140805255Y-122652931D01*
X140568488Y-122751003D01*
X140568487Y-122751003D01*
X140568485Y-122751004D01*
X140317139Y-122801000D01*
X140060861Y-122801000D01*
X139809515Y-122751004D01*
X139809513Y-122751003D01*
X139809512Y-122751003D01*
X139572745Y-122652931D01*
X139359661Y-122510553D01*
X139359658Y-122510551D01*
X139178449Y-122329342D01*
X139036069Y-122116255D01*
X138937997Y-121879488D01*
X138927256Y-121825488D01*
X138888000Y-121628139D01*
X138888000Y-121371861D01*
X138937996Y-121120515D01*
X139036069Y-120883745D01*
X139178449Y-120670658D01*
X139359658Y-120489449D01*
X139572745Y-120347069D01*
X139703113Y-120293069D01*
X139809512Y-120248997D01*
X139809513Y-120248997D01*
X139809515Y-120248996D01*
X140060861Y-120199000D01*
X140317139Y-120199000D01*
X140568485Y-120248996D01*
X140568485Y-120248996D01*
G37*
G36*
X110342485Y-120248996D02*
X110342487Y-120248997D01*
X110342488Y-120248997D01*
X110448887Y-120293069D01*
X110579255Y-120347069D01*
X110792342Y-120489449D01*
X110973551Y-120670658D01*
X111115931Y-120883745D01*
X111214004Y-121120515D01*
X111264000Y-121371861D01*
X111264000Y-121628139D01*
X111224745Y-121825488D01*
X111214003Y-121879488D01*
X111115931Y-122116255D01*
X110973551Y-122329342D01*
X110792342Y-122510551D01*
X110792339Y-122510553D01*
X110579255Y-122652931D01*
X110342488Y-122751003D01*
X110342487Y-122751003D01*
X110342485Y-122751004D01*
X110091139Y-122801000D01*
X109834861Y-122801000D01*
X109583515Y-122751004D01*
X109583513Y-122751003D01*
X109583512Y-122751003D01*
X109346745Y-122652931D01*
X109133661Y-122510553D01*
X109133658Y-122510551D01*
X108952449Y-122329342D01*
X108810069Y-122116255D01*
X108711997Y-121879488D01*
X108701256Y-121825488D01*
X108662000Y-121628139D01*
X108662000Y-121371861D01*
X108711996Y-121120515D01*
X108810069Y-120883745D01*
X108952449Y-120670658D01*
X109133658Y-120489449D01*
X109346745Y-120347069D01*
X109477113Y-120293069D01*
X109583512Y-120248997D01*
X109583513Y-120248997D01*
X109583515Y-120248996D01*
X109834861Y-120199000D01*
X110091139Y-120199000D01*
X110342485Y-120248996D01*
X110342485Y-120248996D01*
G37*
G36*
X202039485Y-120194996D02*
X202039487Y-120194997D01*
X202039488Y-120194997D01*
X202276255Y-120293069D01*
X202489342Y-120435449D01*
X202670551Y-120616658D01*
X202670553Y-120616661D01*
X202812931Y-120829745D01*
X202835299Y-120883745D01*
X202911004Y-121066515D01*
X202961000Y-121317861D01*
X202961000Y-121574139D01*
X202911004Y-121825485D01*
X202812931Y-122062255D01*
X202670551Y-122275342D01*
X202489342Y-122456551D01*
X202489339Y-122456553D01*
X202276255Y-122598931D01*
X202039488Y-122697003D01*
X202039487Y-122697003D01*
X202039485Y-122697004D01*
X201788139Y-122747000D01*
X201531861Y-122747000D01*
X201280515Y-122697004D01*
X201280513Y-122697003D01*
X201280512Y-122697003D01*
X201043745Y-122598931D01*
X200830661Y-122456553D01*
X200830658Y-122456551D01*
X200649449Y-122275342D01*
X200507069Y-122062255D01*
X200408996Y-121825485D01*
X200359000Y-121574139D01*
X200359000Y-121317861D01*
X200408996Y-121066515D01*
X200484702Y-120883745D01*
X200507069Y-120829745D01*
X200649447Y-120616661D01*
X200649449Y-120616658D01*
X200830658Y-120435449D01*
X201043745Y-120293069D01*
X201280512Y-120194997D01*
X201280513Y-120194997D01*
X201280515Y-120194996D01*
X201531861Y-120145000D01*
X201788139Y-120145000D01*
X202039485Y-120194996D01*
X202039485Y-120194996D01*
G37*
G36*
X221959485Y-120194996D02*
X221959487Y-120194997D01*
X221959488Y-120194997D01*
X222196255Y-120293069D01*
X222409342Y-120435449D01*
X222590551Y-120616658D01*
X222590553Y-120616661D01*
X222732931Y-120829745D01*
X222755299Y-120883745D01*
X222831004Y-121066515D01*
X222881000Y-121317861D01*
X222881000Y-121574139D01*
X222831004Y-121825485D01*
X222732931Y-122062255D01*
X222590551Y-122275342D01*
X222409342Y-122456551D01*
X222409339Y-122456553D01*
X222196255Y-122598931D01*
X221959488Y-122697003D01*
X221959487Y-122697003D01*
X221959485Y-122697004D01*
X221708139Y-122747000D01*
X221451861Y-122747000D01*
X221200515Y-122697004D01*
X221200513Y-122697003D01*
X221200512Y-122697003D01*
X220963745Y-122598931D01*
X220750661Y-122456553D01*
X220750658Y-122456551D01*
X220569449Y-122275342D01*
X220427069Y-122062255D01*
X220328996Y-121825485D01*
X220279000Y-121574139D01*
X220279000Y-121317861D01*
X220328996Y-121066515D01*
X220404702Y-120883745D01*
X220427069Y-120829745D01*
X220569447Y-120616661D01*
X220569449Y-120616658D01*
X220750658Y-120435449D01*
X220963745Y-120293069D01*
X221200512Y-120194997D01*
X221200513Y-120194997D01*
X221200515Y-120194996D01*
X221451861Y-120145000D01*
X221708139Y-120145000D01*
X221959485Y-120194996D01*
X221959485Y-120194996D01*
G37*
G36*
X231959485Y-120194996D02*
X231959487Y-120194997D01*
X231959488Y-120194997D01*
X232196255Y-120293069D01*
X232409342Y-120435449D01*
X232590551Y-120616658D01*
X232590553Y-120616661D01*
X232732931Y-120829745D01*
X232755299Y-120883745D01*
X232831004Y-121066515D01*
X232881000Y-121317861D01*
X232881000Y-121574139D01*
X232831004Y-121825485D01*
X232732931Y-122062255D01*
X232590551Y-122275342D01*
X232409342Y-122456551D01*
X232409339Y-122456553D01*
X232196255Y-122598931D01*
X231959488Y-122697003D01*
X231959487Y-122697003D01*
X231959485Y-122697004D01*
X231708139Y-122747000D01*
X231451861Y-122747000D01*
X231200515Y-122697004D01*
X231200513Y-122697003D01*
X231200512Y-122697003D01*
X230963745Y-122598931D01*
X230750661Y-122456553D01*
X230750658Y-122456551D01*
X230569449Y-122275342D01*
X230427069Y-122062255D01*
X230328996Y-121825485D01*
X230279000Y-121574139D01*
X230279000Y-121317861D01*
X230328996Y-121066515D01*
X230404702Y-120883745D01*
X230427069Y-120829745D01*
X230569447Y-120616661D01*
X230569449Y-120616658D01*
X230750658Y-120435449D01*
X230963745Y-120293069D01*
X231200512Y-120194997D01*
X231200513Y-120194997D01*
X231200515Y-120194996D01*
X231451861Y-120145000D01*
X231708139Y-120145000D01*
X231959485Y-120194996D01*
X231959485Y-120194996D01*
G37*
G36*
X246959485Y-120194996D02*
X246959487Y-120194997D01*
X246959488Y-120194997D01*
X247196255Y-120293069D01*
X247409342Y-120435449D01*
X247590551Y-120616658D01*
X247590553Y-120616661D01*
X247732931Y-120829745D01*
X247755299Y-120883745D01*
X247831004Y-121066515D01*
X247881000Y-121317861D01*
X247881000Y-121574139D01*
X247831004Y-121825485D01*
X247732931Y-122062255D01*
X247590551Y-122275342D01*
X247409342Y-122456551D01*
X247409339Y-122456553D01*
X247196255Y-122598931D01*
X246959488Y-122697003D01*
X246959487Y-122697003D01*
X246959485Y-122697004D01*
X246708139Y-122747000D01*
X246451861Y-122747000D01*
X246200515Y-122697004D01*
X246200513Y-122697003D01*
X246200512Y-122697003D01*
X245963745Y-122598931D01*
X245750661Y-122456553D01*
X245750658Y-122456551D01*
X245569449Y-122275342D01*
X245427069Y-122062255D01*
X245328996Y-121825485D01*
X245279000Y-121574139D01*
X245279000Y-121317861D01*
X245328996Y-121066515D01*
X245404702Y-120883745D01*
X245427069Y-120829745D01*
X245569447Y-120616661D01*
X245569449Y-120616658D01*
X245750658Y-120435449D01*
X245963745Y-120293069D01*
X246200512Y-120194997D01*
X246200513Y-120194997D01*
X246200515Y-120194996D01*
X246451861Y-120145000D01*
X246708139Y-120145000D01*
X246959485Y-120194996D01*
X246959485Y-120194996D01*
G37*
G36*
X192039485Y-120194996D02*
X192039487Y-120194997D01*
X192039488Y-120194997D01*
X192276255Y-120293069D01*
X192489342Y-120435449D01*
X192670551Y-120616658D01*
X192670553Y-120616661D01*
X192812931Y-120829745D01*
X192835299Y-120883745D01*
X192911004Y-121066515D01*
X192961000Y-121317861D01*
X192961000Y-121574139D01*
X192911004Y-121825485D01*
X192812931Y-122062255D01*
X192670551Y-122275342D01*
X192489342Y-122456551D01*
X192489339Y-122456553D01*
X192276255Y-122598931D01*
X192039488Y-122697003D01*
X192039487Y-122697003D01*
X192039485Y-122697004D01*
X191788139Y-122747000D01*
X191531861Y-122747000D01*
X191280515Y-122697004D01*
X191280513Y-122697003D01*
X191280512Y-122697003D01*
X191043745Y-122598931D01*
X190830661Y-122456553D01*
X190830658Y-122456551D01*
X190649449Y-122275342D01*
X190507069Y-122062255D01*
X190408996Y-121825485D01*
X190359000Y-121574139D01*
X190359000Y-121317861D01*
X190408996Y-121066515D01*
X190484702Y-120883745D01*
X190507069Y-120829745D01*
X190649447Y-120616661D01*
X190649449Y-120616658D01*
X190830658Y-120435449D01*
X191043745Y-120293069D01*
X191280512Y-120194997D01*
X191280513Y-120194997D01*
X191280515Y-120194996D01*
X191531861Y-120145000D01*
X191788139Y-120145000D01*
X192039485Y-120194996D01*
X192039485Y-120194996D01*
G37*
G36*
X197039485Y-120194996D02*
X197039487Y-120194997D01*
X197039488Y-120194997D01*
X197276255Y-120293069D01*
X197489342Y-120435449D01*
X197670551Y-120616658D01*
X197670553Y-120616661D01*
X197812931Y-120829745D01*
X197835299Y-120883745D01*
X197911004Y-121066515D01*
X197961000Y-121317861D01*
X197961000Y-121574139D01*
X197911004Y-121825485D01*
X197812931Y-122062255D01*
X197670551Y-122275342D01*
X197489342Y-122456551D01*
X197489339Y-122456553D01*
X197276255Y-122598931D01*
X197039488Y-122697003D01*
X197039487Y-122697003D01*
X197039485Y-122697004D01*
X196788139Y-122747000D01*
X196531861Y-122747000D01*
X196280515Y-122697004D01*
X196280513Y-122697003D01*
X196280512Y-122697003D01*
X196043745Y-122598931D01*
X195830661Y-122456553D01*
X195830658Y-122456551D01*
X195649449Y-122275342D01*
X195507069Y-122062255D01*
X195408996Y-121825485D01*
X195359000Y-121574139D01*
X195359000Y-121317861D01*
X195408996Y-121066515D01*
X195484702Y-120883745D01*
X195507069Y-120829745D01*
X195649447Y-120616661D01*
X195649449Y-120616658D01*
X195830658Y-120435449D01*
X196043745Y-120293069D01*
X196280512Y-120194997D01*
X196280513Y-120194997D01*
X196280515Y-120194996D01*
X196531861Y-120145000D01*
X196788139Y-120145000D01*
X197039485Y-120194996D01*
X197039485Y-120194996D01*
G37*
G36*
X226959485Y-120194996D02*
X226959487Y-120194997D01*
X226959488Y-120194997D01*
X227196255Y-120293069D01*
X227409342Y-120435449D01*
X227590551Y-120616658D01*
X227590553Y-120616661D01*
X227732931Y-120829745D01*
X227755299Y-120883745D01*
X227831004Y-121066515D01*
X227881000Y-121317861D01*
X227881000Y-121574139D01*
X227831004Y-121825485D01*
X227732931Y-122062255D01*
X227590551Y-122275342D01*
X227409342Y-122456551D01*
X227409339Y-122456553D01*
X227196255Y-122598931D01*
X226959488Y-122697003D01*
X226959487Y-122697003D01*
X226959485Y-122697004D01*
X226708139Y-122747000D01*
X226451861Y-122747000D01*
X226200515Y-122697004D01*
X226200513Y-122697003D01*
X226200512Y-122697003D01*
X225963745Y-122598931D01*
X225750661Y-122456553D01*
X225750658Y-122456551D01*
X225569449Y-122275342D01*
X225427069Y-122062255D01*
X225328996Y-121825485D01*
X225279000Y-121574139D01*
X225279000Y-121317861D01*
X225328996Y-121066515D01*
X225404702Y-120883745D01*
X225427069Y-120829745D01*
X225569447Y-120616661D01*
X225569449Y-120616658D01*
X225750658Y-120435449D01*
X225963745Y-120293069D01*
X226200512Y-120194997D01*
X226200513Y-120194997D01*
X226200515Y-120194996D01*
X226451861Y-120145000D01*
X226708139Y-120145000D01*
X226959485Y-120194996D01*
X226959485Y-120194996D01*
G37*
G36*
X186859485Y-120194996D02*
X186859487Y-120194997D01*
X186859488Y-120194997D01*
X187096255Y-120293069D01*
X187309342Y-120435449D01*
X187490551Y-120616658D01*
X187490553Y-120616661D01*
X187632931Y-120829745D01*
X187655299Y-120883745D01*
X187731004Y-121066515D01*
X187781000Y-121317861D01*
X187781000Y-121574139D01*
X187731004Y-121825485D01*
X187632931Y-122062255D01*
X187490551Y-122275342D01*
X187309342Y-122456551D01*
X187309339Y-122456553D01*
X187096255Y-122598931D01*
X186859488Y-122697003D01*
X186859487Y-122697003D01*
X186859485Y-122697004D01*
X186608139Y-122747000D01*
X186351861Y-122747000D01*
X186100515Y-122697004D01*
X186100513Y-122697003D01*
X186100512Y-122697003D01*
X185863745Y-122598931D01*
X185650661Y-122456553D01*
X185650658Y-122456551D01*
X185469449Y-122275342D01*
X185327069Y-122062255D01*
X185228996Y-121825485D01*
X185179000Y-121574139D01*
X185179000Y-121317861D01*
X185228996Y-121066515D01*
X185304702Y-120883745D01*
X185327069Y-120829745D01*
X185469447Y-120616661D01*
X185469449Y-120616658D01*
X185650658Y-120435449D01*
X185863745Y-120293069D01*
X186100512Y-120194997D01*
X186100513Y-120194997D01*
X186100515Y-120194996D01*
X186351861Y-120145000D01*
X186608139Y-120145000D01*
X186859485Y-120194996D01*
X186859485Y-120194996D01*
G37*
G36*
X161859485Y-120194996D02*
X161859487Y-120194997D01*
X161859488Y-120194997D01*
X162096255Y-120293069D01*
X162309342Y-120435449D01*
X162490551Y-120616658D01*
X162490553Y-120616661D01*
X162632931Y-120829745D01*
X162655299Y-120883745D01*
X162731004Y-121066515D01*
X162781000Y-121317861D01*
X162781000Y-121574139D01*
X162731004Y-121825485D01*
X162632931Y-122062255D01*
X162490551Y-122275342D01*
X162309342Y-122456551D01*
X162309339Y-122456553D01*
X162096255Y-122598931D01*
X161859488Y-122697003D01*
X161859487Y-122697003D01*
X161859485Y-122697004D01*
X161608139Y-122747000D01*
X161351861Y-122747000D01*
X161100515Y-122697004D01*
X161100513Y-122697003D01*
X161100512Y-122697003D01*
X160863745Y-122598931D01*
X160650661Y-122456553D01*
X160650658Y-122456551D01*
X160469449Y-122275342D01*
X160327069Y-122062255D01*
X160228996Y-121825485D01*
X160179000Y-121574139D01*
X160179000Y-121317861D01*
X160228996Y-121066515D01*
X160304702Y-120883745D01*
X160327069Y-120829745D01*
X160469447Y-120616661D01*
X160469449Y-120616658D01*
X160650658Y-120435449D01*
X160863745Y-120293069D01*
X161100512Y-120194997D01*
X161100513Y-120194997D01*
X161100515Y-120194996D01*
X161351861Y-120145000D01*
X161608139Y-120145000D01*
X161859485Y-120194996D01*
X161859485Y-120194996D01*
G37*
G36*
X166859485Y-120194996D02*
X166859487Y-120194997D01*
X166859488Y-120194997D01*
X167096255Y-120293069D01*
X167309342Y-120435449D01*
X167490551Y-120616658D01*
X167490553Y-120616661D01*
X167632931Y-120829745D01*
X167655299Y-120883745D01*
X167731004Y-121066515D01*
X167781000Y-121317861D01*
X167781000Y-121574139D01*
X167731004Y-121825485D01*
X167632931Y-122062255D01*
X167490551Y-122275342D01*
X167309342Y-122456551D01*
X167309339Y-122456553D01*
X167096255Y-122598931D01*
X166859488Y-122697003D01*
X166859487Y-122697003D01*
X166859485Y-122697004D01*
X166608139Y-122747000D01*
X166351861Y-122747000D01*
X166100515Y-122697004D01*
X166100513Y-122697003D01*
X166100512Y-122697003D01*
X165863745Y-122598931D01*
X165650661Y-122456553D01*
X165650658Y-122456551D01*
X165469449Y-122275342D01*
X165327069Y-122062255D01*
X165228996Y-121825485D01*
X165179000Y-121574139D01*
X165179000Y-121317861D01*
X165228996Y-121066515D01*
X165304702Y-120883745D01*
X165327069Y-120829745D01*
X165469447Y-120616661D01*
X165469449Y-120616658D01*
X165650658Y-120435449D01*
X165863745Y-120293069D01*
X166100512Y-120194997D01*
X166100513Y-120194997D01*
X166100515Y-120194996D01*
X166351861Y-120145000D01*
X166608139Y-120145000D01*
X166859485Y-120194996D01*
X166859485Y-120194996D01*
G37*
G36*
X171859485Y-120194996D02*
X171859487Y-120194997D01*
X171859488Y-120194997D01*
X172096255Y-120293069D01*
X172309342Y-120435449D01*
X172490551Y-120616658D01*
X172490553Y-120616661D01*
X172632931Y-120829745D01*
X172655299Y-120883745D01*
X172731004Y-121066515D01*
X172781000Y-121317861D01*
X172781000Y-121574139D01*
X172731004Y-121825485D01*
X172632931Y-122062255D01*
X172490551Y-122275342D01*
X172309342Y-122456551D01*
X172309339Y-122456553D01*
X172096255Y-122598931D01*
X171859488Y-122697003D01*
X171859487Y-122697003D01*
X171859485Y-122697004D01*
X171608139Y-122747000D01*
X171351861Y-122747000D01*
X171100515Y-122697004D01*
X171100513Y-122697003D01*
X171100512Y-122697003D01*
X170863745Y-122598931D01*
X170650661Y-122456553D01*
X170650658Y-122456551D01*
X170469449Y-122275342D01*
X170327069Y-122062255D01*
X170228996Y-121825485D01*
X170179000Y-121574139D01*
X170179000Y-121317861D01*
X170228996Y-121066515D01*
X170304702Y-120883745D01*
X170327069Y-120829745D01*
X170469447Y-120616661D01*
X170469449Y-120616658D01*
X170650658Y-120435449D01*
X170863745Y-120293069D01*
X171100512Y-120194997D01*
X171100513Y-120194997D01*
X171100515Y-120194996D01*
X171351861Y-120145000D01*
X171608139Y-120145000D01*
X171859485Y-120194996D01*
X171859485Y-120194996D01*
G37*
G36*
X217039485Y-120194996D02*
X217039487Y-120194997D01*
X217039488Y-120194997D01*
X217276255Y-120293069D01*
X217489342Y-120435449D01*
X217670551Y-120616658D01*
X217670553Y-120616661D01*
X217812931Y-120829745D01*
X217835299Y-120883745D01*
X217911004Y-121066515D01*
X217961000Y-121317861D01*
X217961000Y-121574139D01*
X217911004Y-121825485D01*
X217812931Y-122062255D01*
X217670551Y-122275342D01*
X217489342Y-122456551D01*
X217489339Y-122456553D01*
X217276255Y-122598931D01*
X217039488Y-122697003D01*
X217039487Y-122697003D01*
X217039485Y-122697004D01*
X216788139Y-122747000D01*
X216531861Y-122747000D01*
X216280515Y-122697004D01*
X216280513Y-122697003D01*
X216280512Y-122697003D01*
X216043745Y-122598931D01*
X215830661Y-122456553D01*
X215830658Y-122456551D01*
X215649449Y-122275342D01*
X215507069Y-122062255D01*
X215408996Y-121825485D01*
X215359000Y-121574139D01*
X215359000Y-121317861D01*
X215408996Y-121066515D01*
X215484702Y-120883745D01*
X215507069Y-120829745D01*
X215649447Y-120616661D01*
X215649449Y-120616658D01*
X215830658Y-120435449D01*
X216043745Y-120293069D01*
X216280512Y-120194997D01*
X216280513Y-120194997D01*
X216280515Y-120194996D01*
X216531861Y-120145000D01*
X216788139Y-120145000D01*
X217039485Y-120194996D01*
X217039485Y-120194996D01*
G37*
G36*
X55370485Y-112748996D02*
X55370487Y-112748997D01*
X55370488Y-112748997D01*
X55476887Y-112793069D01*
X55607255Y-112847069D01*
X55820342Y-112989449D01*
X56001551Y-113170658D01*
X56143931Y-113383745D01*
X56242004Y-113620515D01*
X56292000Y-113871861D01*
X56292000Y-114128139D01*
X56252745Y-114325488D01*
X56242003Y-114379488D01*
X56143931Y-114616255D01*
X56001551Y-114829342D01*
X55820342Y-115010551D01*
X55820339Y-115010553D01*
X55607255Y-115152931D01*
X55370488Y-115251003D01*
X55370487Y-115251003D01*
X55370485Y-115251004D01*
X55119139Y-115301000D01*
X54862861Y-115301000D01*
X54611515Y-115251004D01*
X54611513Y-115251003D01*
X54611512Y-115251003D01*
X54374745Y-115152931D01*
X54161661Y-115010553D01*
X54161658Y-115010551D01*
X53980449Y-114829342D01*
X53838069Y-114616255D01*
X53739997Y-114379488D01*
X53729256Y-114325488D01*
X53690000Y-114128139D01*
X53690000Y-113871861D01*
X53739996Y-113620515D01*
X53838069Y-113383745D01*
X53980449Y-113170658D01*
X54161658Y-112989449D01*
X54374745Y-112847069D01*
X54505113Y-112793069D01*
X54611512Y-112748997D01*
X54611513Y-112748997D01*
X54611515Y-112748996D01*
X54862861Y-112699000D01*
X55119139Y-112699000D01*
X55370485Y-112748996D01*
X55370485Y-112748996D01*
G37*
G36*
X115568485Y-112748996D02*
X115568487Y-112748997D01*
X115568488Y-112748997D01*
X115674887Y-112793069D01*
X115805255Y-112847069D01*
X116018342Y-112989449D01*
X116199551Y-113170658D01*
X116341931Y-113383745D01*
X116440004Y-113620515D01*
X116490000Y-113871861D01*
X116490000Y-114128139D01*
X116450745Y-114325488D01*
X116440003Y-114379488D01*
X116341931Y-114616255D01*
X116199551Y-114829342D01*
X116018342Y-115010551D01*
X116018339Y-115010553D01*
X115805255Y-115152931D01*
X115568488Y-115251003D01*
X115568487Y-115251003D01*
X115568485Y-115251004D01*
X115317139Y-115301000D01*
X115060861Y-115301000D01*
X114809515Y-115251004D01*
X114809513Y-115251003D01*
X114809512Y-115251003D01*
X114572745Y-115152931D01*
X114359661Y-115010553D01*
X114359658Y-115010551D01*
X114178449Y-114829342D01*
X114036069Y-114616255D01*
X113937997Y-114379488D01*
X113927256Y-114325488D01*
X113888000Y-114128139D01*
X113888000Y-113871861D01*
X113937996Y-113620515D01*
X114036069Y-113383745D01*
X114178449Y-113170658D01*
X114359658Y-112989449D01*
X114572745Y-112847069D01*
X114703113Y-112793069D01*
X114809512Y-112748997D01*
X114809513Y-112748997D01*
X114809515Y-112748996D01*
X115060861Y-112699000D01*
X115317139Y-112699000D01*
X115568485Y-112748996D01*
X115568485Y-112748996D01*
G37*
G36*
X105342485Y-112748996D02*
X105342487Y-112748997D01*
X105342488Y-112748997D01*
X105448887Y-112793069D01*
X105579255Y-112847069D01*
X105792342Y-112989449D01*
X105973551Y-113170658D01*
X106115931Y-113383745D01*
X106214004Y-113620515D01*
X106264000Y-113871861D01*
X106264000Y-114128139D01*
X106224745Y-114325488D01*
X106214003Y-114379488D01*
X106115931Y-114616255D01*
X105973551Y-114829342D01*
X105792342Y-115010551D01*
X105792339Y-115010553D01*
X105579255Y-115152931D01*
X105342488Y-115251003D01*
X105342487Y-115251003D01*
X105342485Y-115251004D01*
X105091139Y-115301000D01*
X104834861Y-115301000D01*
X104583515Y-115251004D01*
X104583513Y-115251003D01*
X104583512Y-115251003D01*
X104346745Y-115152931D01*
X104133661Y-115010553D01*
X104133658Y-115010551D01*
X103952449Y-114829342D01*
X103810069Y-114616255D01*
X103711997Y-114379488D01*
X103701256Y-114325488D01*
X103662000Y-114128139D01*
X103662000Y-113871861D01*
X103711996Y-113620515D01*
X103810069Y-113383745D01*
X103952449Y-113170658D01*
X104133658Y-112989449D01*
X104346745Y-112847069D01*
X104477113Y-112793069D01*
X104583512Y-112748997D01*
X104583513Y-112748997D01*
X104583515Y-112748996D01*
X104834861Y-112699000D01*
X105091139Y-112699000D01*
X105342485Y-112748996D01*
X105342485Y-112748996D01*
G37*
G36*
X100342485Y-112748996D02*
X100342487Y-112748997D01*
X100342488Y-112748997D01*
X100448887Y-112793069D01*
X100579255Y-112847069D01*
X100792342Y-112989449D01*
X100973551Y-113170658D01*
X101115931Y-113383745D01*
X101214004Y-113620515D01*
X101264000Y-113871861D01*
X101264000Y-114128139D01*
X101224745Y-114325488D01*
X101214003Y-114379488D01*
X101115931Y-114616255D01*
X100973551Y-114829342D01*
X100792342Y-115010551D01*
X100792339Y-115010553D01*
X100579255Y-115152931D01*
X100342488Y-115251003D01*
X100342487Y-115251003D01*
X100342485Y-115251004D01*
X100091139Y-115301000D01*
X99834861Y-115301000D01*
X99583515Y-115251004D01*
X99583513Y-115251003D01*
X99583512Y-115251003D01*
X99346745Y-115152931D01*
X99133661Y-115010553D01*
X99133658Y-115010551D01*
X98952449Y-114829342D01*
X98810069Y-114616255D01*
X98711997Y-114379488D01*
X98701256Y-114325488D01*
X98662000Y-114128139D01*
X98662000Y-113871861D01*
X98711996Y-113620515D01*
X98810069Y-113383745D01*
X98952449Y-113170658D01*
X99133658Y-112989449D01*
X99346745Y-112847069D01*
X99477113Y-112793069D01*
X99583512Y-112748997D01*
X99583513Y-112748997D01*
X99583515Y-112748996D01*
X99834861Y-112699000D01*
X100091139Y-112699000D01*
X100342485Y-112748996D01*
X100342485Y-112748996D01*
G37*
G36*
X130568485Y-112748996D02*
X130568487Y-112748997D01*
X130568488Y-112748997D01*
X130674887Y-112793069D01*
X130805255Y-112847069D01*
X131018342Y-112989449D01*
X131199551Y-113170658D01*
X131341931Y-113383745D01*
X131440004Y-113620515D01*
X131490000Y-113871861D01*
X131490000Y-114128139D01*
X131450745Y-114325488D01*
X131440003Y-114379488D01*
X131341931Y-114616255D01*
X131199551Y-114829342D01*
X131018342Y-115010551D01*
X131018339Y-115010553D01*
X130805255Y-115152931D01*
X130568488Y-115251003D01*
X130568487Y-115251003D01*
X130568485Y-115251004D01*
X130317139Y-115301000D01*
X130060861Y-115301000D01*
X129809515Y-115251004D01*
X129809513Y-115251003D01*
X129809512Y-115251003D01*
X129572745Y-115152931D01*
X129359661Y-115010553D01*
X129359658Y-115010551D01*
X129178449Y-114829342D01*
X129036069Y-114616255D01*
X128937997Y-114379488D01*
X128927256Y-114325488D01*
X128888000Y-114128139D01*
X128888000Y-113871861D01*
X128937996Y-113620515D01*
X129036069Y-113383745D01*
X129178449Y-113170658D01*
X129359658Y-112989449D01*
X129572745Y-112847069D01*
X129703113Y-112793069D01*
X129809512Y-112748997D01*
X129809513Y-112748997D01*
X129809515Y-112748996D01*
X130060861Y-112699000D01*
X130317139Y-112699000D01*
X130568485Y-112748996D01*
X130568485Y-112748996D01*
G37*
G36*
X135568485Y-112748996D02*
X135568487Y-112748997D01*
X135568488Y-112748997D01*
X135674887Y-112793069D01*
X135805255Y-112847069D01*
X136018342Y-112989449D01*
X136199551Y-113170658D01*
X136341931Y-113383745D01*
X136440004Y-113620515D01*
X136490000Y-113871861D01*
X136490000Y-114128139D01*
X136450745Y-114325488D01*
X136440003Y-114379488D01*
X136341931Y-114616255D01*
X136199551Y-114829342D01*
X136018342Y-115010551D01*
X136018339Y-115010553D01*
X135805255Y-115152931D01*
X135568488Y-115251003D01*
X135568487Y-115251003D01*
X135568485Y-115251004D01*
X135317139Y-115301000D01*
X135060861Y-115301000D01*
X134809515Y-115251004D01*
X134809513Y-115251003D01*
X134809512Y-115251003D01*
X134572745Y-115152931D01*
X134359661Y-115010553D01*
X134359658Y-115010551D01*
X134178449Y-114829342D01*
X134036069Y-114616255D01*
X133937997Y-114379488D01*
X133927256Y-114325488D01*
X133888000Y-114128139D01*
X133888000Y-113871861D01*
X133937996Y-113620515D01*
X134036069Y-113383745D01*
X134178449Y-113170658D01*
X134359658Y-112989449D01*
X134572745Y-112847069D01*
X134703113Y-112793069D01*
X134809512Y-112748997D01*
X134809513Y-112748997D01*
X134809515Y-112748996D01*
X135060861Y-112699000D01*
X135317139Y-112699000D01*
X135568485Y-112748996D01*
X135568485Y-112748996D01*
G37*
G36*
X110342485Y-112748996D02*
X110342487Y-112748997D01*
X110342488Y-112748997D01*
X110448887Y-112793069D01*
X110579255Y-112847069D01*
X110792342Y-112989449D01*
X110973551Y-113170658D01*
X111115931Y-113383745D01*
X111214004Y-113620515D01*
X111264000Y-113871861D01*
X111264000Y-114128139D01*
X111224745Y-114325488D01*
X111214003Y-114379488D01*
X111115931Y-114616255D01*
X110973551Y-114829342D01*
X110792342Y-115010551D01*
X110792339Y-115010553D01*
X110579255Y-115152931D01*
X110342488Y-115251003D01*
X110342487Y-115251003D01*
X110342485Y-115251004D01*
X110091139Y-115301000D01*
X109834861Y-115301000D01*
X109583515Y-115251004D01*
X109583513Y-115251003D01*
X109583512Y-115251003D01*
X109346745Y-115152931D01*
X109133661Y-115010553D01*
X109133658Y-115010551D01*
X108952449Y-114829342D01*
X108810069Y-114616255D01*
X108711997Y-114379488D01*
X108701256Y-114325488D01*
X108662000Y-114128139D01*
X108662000Y-113871861D01*
X108711996Y-113620515D01*
X108810069Y-113383745D01*
X108952449Y-113170658D01*
X109133658Y-112989449D01*
X109346745Y-112847069D01*
X109477113Y-112793069D01*
X109583512Y-112748997D01*
X109583513Y-112748997D01*
X109583515Y-112748996D01*
X109834861Y-112699000D01*
X110091139Y-112699000D01*
X110342485Y-112748996D01*
X110342485Y-112748996D01*
G37*
G36*
X80370485Y-112748996D02*
X80370487Y-112748997D01*
X80370488Y-112748997D01*
X80476887Y-112793069D01*
X80607255Y-112847069D01*
X80820342Y-112989449D01*
X81001551Y-113170658D01*
X81143931Y-113383745D01*
X81242004Y-113620515D01*
X81292000Y-113871861D01*
X81292000Y-114128139D01*
X81252745Y-114325488D01*
X81242003Y-114379488D01*
X81143931Y-114616255D01*
X81001551Y-114829342D01*
X80820342Y-115010551D01*
X80820339Y-115010553D01*
X80607255Y-115152931D01*
X80370488Y-115251003D01*
X80370487Y-115251003D01*
X80370485Y-115251004D01*
X80119139Y-115301000D01*
X79862861Y-115301000D01*
X79611515Y-115251004D01*
X79611513Y-115251003D01*
X79611512Y-115251003D01*
X79374745Y-115152931D01*
X79161661Y-115010553D01*
X79161658Y-115010551D01*
X78980449Y-114829342D01*
X78838069Y-114616255D01*
X78739997Y-114379488D01*
X78729256Y-114325488D01*
X78690000Y-114128139D01*
X78690000Y-113871861D01*
X78739996Y-113620515D01*
X78838069Y-113383745D01*
X78980449Y-113170658D01*
X79161658Y-112989449D01*
X79374745Y-112847069D01*
X79505113Y-112793069D01*
X79611512Y-112748997D01*
X79611513Y-112748997D01*
X79611515Y-112748996D01*
X79862861Y-112699000D01*
X80119139Y-112699000D01*
X80370485Y-112748996D01*
X80370485Y-112748996D01*
G37*
G36*
X75370485Y-112748996D02*
X75370487Y-112748997D01*
X75370488Y-112748997D01*
X75476887Y-112793069D01*
X75607255Y-112847069D01*
X75820342Y-112989449D01*
X76001551Y-113170658D01*
X76143931Y-113383745D01*
X76242004Y-113620515D01*
X76292000Y-113871861D01*
X76292000Y-114128139D01*
X76252745Y-114325488D01*
X76242003Y-114379488D01*
X76143931Y-114616255D01*
X76001551Y-114829342D01*
X75820342Y-115010551D01*
X75820339Y-115010553D01*
X75607255Y-115152931D01*
X75370488Y-115251003D01*
X75370487Y-115251003D01*
X75370485Y-115251004D01*
X75119139Y-115301000D01*
X74862861Y-115301000D01*
X74611515Y-115251004D01*
X74611513Y-115251003D01*
X74611512Y-115251003D01*
X74374745Y-115152931D01*
X74161661Y-115010553D01*
X74161658Y-115010551D01*
X73980449Y-114829342D01*
X73838069Y-114616255D01*
X73739997Y-114379488D01*
X73729256Y-114325488D01*
X73690000Y-114128139D01*
X73690000Y-113871861D01*
X73739996Y-113620515D01*
X73838069Y-113383745D01*
X73980449Y-113170658D01*
X74161658Y-112989449D01*
X74374745Y-112847069D01*
X74505113Y-112793069D01*
X74611512Y-112748997D01*
X74611513Y-112748997D01*
X74611515Y-112748996D01*
X74862861Y-112699000D01*
X75119139Y-112699000D01*
X75370485Y-112748996D01*
X75370485Y-112748996D01*
G37*
G36*
X70370485Y-112748996D02*
X70370487Y-112748997D01*
X70370488Y-112748997D01*
X70476887Y-112793069D01*
X70607255Y-112847069D01*
X70820342Y-112989449D01*
X71001551Y-113170658D01*
X71143931Y-113383745D01*
X71242004Y-113620515D01*
X71292000Y-113871861D01*
X71292000Y-114128139D01*
X71252745Y-114325488D01*
X71242003Y-114379488D01*
X71143931Y-114616255D01*
X71001551Y-114829342D01*
X70820342Y-115010551D01*
X70820339Y-115010553D01*
X70607255Y-115152931D01*
X70370488Y-115251003D01*
X70370487Y-115251003D01*
X70370485Y-115251004D01*
X70119139Y-115301000D01*
X69862861Y-115301000D01*
X69611515Y-115251004D01*
X69611513Y-115251003D01*
X69611512Y-115251003D01*
X69374745Y-115152931D01*
X69161661Y-115010553D01*
X69161658Y-115010551D01*
X68980449Y-114829342D01*
X68838069Y-114616255D01*
X68739997Y-114379488D01*
X68729256Y-114325488D01*
X68690000Y-114128139D01*
X68690000Y-113871861D01*
X68739996Y-113620515D01*
X68838069Y-113383745D01*
X68980449Y-113170658D01*
X69161658Y-112989449D01*
X69374745Y-112847069D01*
X69505113Y-112793069D01*
X69611512Y-112748997D01*
X69611513Y-112748997D01*
X69611515Y-112748996D01*
X69862861Y-112699000D01*
X70119139Y-112699000D01*
X70370485Y-112748996D01*
X70370485Y-112748996D01*
G37*
G36*
X85342485Y-112748996D02*
X85342487Y-112748997D01*
X85342488Y-112748997D01*
X85448887Y-112793069D01*
X85579255Y-112847069D01*
X85792342Y-112989449D01*
X85973551Y-113170658D01*
X86115931Y-113383745D01*
X86214004Y-113620515D01*
X86264000Y-113871861D01*
X86264000Y-114128139D01*
X86224745Y-114325488D01*
X86214003Y-114379488D01*
X86115931Y-114616255D01*
X85973551Y-114829342D01*
X85792342Y-115010551D01*
X85792339Y-115010553D01*
X85579255Y-115152931D01*
X85342488Y-115251003D01*
X85342487Y-115251003D01*
X85342485Y-115251004D01*
X85091139Y-115301000D01*
X84834861Y-115301000D01*
X84583515Y-115251004D01*
X84583513Y-115251003D01*
X84583512Y-115251003D01*
X84346745Y-115152931D01*
X84133661Y-115010553D01*
X84133658Y-115010551D01*
X83952449Y-114829342D01*
X83810069Y-114616255D01*
X83711997Y-114379488D01*
X83701256Y-114325488D01*
X83662000Y-114128139D01*
X83662000Y-113871861D01*
X83711996Y-113620515D01*
X83810069Y-113383745D01*
X83952449Y-113170658D01*
X84133658Y-112989449D01*
X84346745Y-112847069D01*
X84477113Y-112793069D01*
X84583512Y-112748997D01*
X84583513Y-112748997D01*
X84583515Y-112748996D01*
X84834861Y-112699000D01*
X85091139Y-112699000D01*
X85342485Y-112748996D01*
X85342485Y-112748996D01*
G37*
G36*
X140568485Y-112748996D02*
X140568487Y-112748997D01*
X140568488Y-112748997D01*
X140674887Y-112793069D01*
X140805255Y-112847069D01*
X141018342Y-112989449D01*
X141199551Y-113170658D01*
X141341931Y-113383745D01*
X141440004Y-113620515D01*
X141490000Y-113871861D01*
X141490000Y-114128139D01*
X141450745Y-114325488D01*
X141440003Y-114379488D01*
X141341931Y-114616255D01*
X141199551Y-114829342D01*
X141018342Y-115010551D01*
X141018339Y-115010553D01*
X140805255Y-115152931D01*
X140568488Y-115251003D01*
X140568487Y-115251003D01*
X140568485Y-115251004D01*
X140317139Y-115301000D01*
X140060861Y-115301000D01*
X139809515Y-115251004D01*
X139809513Y-115251003D01*
X139809512Y-115251003D01*
X139572745Y-115152931D01*
X139359661Y-115010553D01*
X139359658Y-115010551D01*
X139178449Y-114829342D01*
X139036069Y-114616255D01*
X138937997Y-114379488D01*
X138927256Y-114325488D01*
X138888000Y-114128139D01*
X138888000Y-113871861D01*
X138937996Y-113620515D01*
X139036069Y-113383745D01*
X139178449Y-113170658D01*
X139359658Y-112989449D01*
X139572745Y-112847069D01*
X139703113Y-112793069D01*
X139809512Y-112748997D01*
X139809513Y-112748997D01*
X139809515Y-112748996D01*
X140060861Y-112699000D01*
X140317139Y-112699000D01*
X140568485Y-112748996D01*
X140568485Y-112748996D01*
G37*
G36*
X217039485Y-112694996D02*
X217039487Y-112694997D01*
X217039488Y-112694997D01*
X217276255Y-112793069D01*
X217489342Y-112935449D01*
X217670551Y-113116658D01*
X217670553Y-113116661D01*
X217812931Y-113329745D01*
X217835299Y-113383745D01*
X217911004Y-113566515D01*
X217961000Y-113817861D01*
X217961000Y-114074139D01*
X217911004Y-114325485D01*
X217812931Y-114562255D01*
X217670551Y-114775342D01*
X217489342Y-114956551D01*
X217489339Y-114956553D01*
X217276255Y-115098931D01*
X217039488Y-115197003D01*
X217039487Y-115197003D01*
X217039485Y-115197004D01*
X216788139Y-115247000D01*
X216531861Y-115247000D01*
X216280515Y-115197004D01*
X216280513Y-115197003D01*
X216280512Y-115197003D01*
X216043745Y-115098931D01*
X215830661Y-114956553D01*
X215830658Y-114956551D01*
X215649449Y-114775342D01*
X215507069Y-114562255D01*
X215408996Y-114325485D01*
X215359000Y-114074139D01*
X215359000Y-113817861D01*
X215408996Y-113566515D01*
X215484702Y-113383745D01*
X215507069Y-113329745D01*
X215649447Y-113116661D01*
X215649449Y-113116658D01*
X215830658Y-112935449D01*
X216043745Y-112793069D01*
X216280512Y-112694997D01*
X216280513Y-112694997D01*
X216280515Y-112694996D01*
X216531861Y-112645000D01*
X216788139Y-112645000D01*
X217039485Y-112694996D01*
X217039485Y-112694996D01*
G37*
G36*
X171859485Y-112694996D02*
X171859487Y-112694997D01*
X171859488Y-112694997D01*
X172096255Y-112793069D01*
X172309342Y-112935449D01*
X172490551Y-113116658D01*
X172490553Y-113116661D01*
X172632931Y-113329745D01*
X172655299Y-113383745D01*
X172731004Y-113566515D01*
X172781000Y-113817861D01*
X172781000Y-114074139D01*
X172731004Y-114325485D01*
X172632931Y-114562255D01*
X172490551Y-114775342D01*
X172309342Y-114956551D01*
X172309339Y-114956553D01*
X172096255Y-115098931D01*
X171859488Y-115197003D01*
X171859487Y-115197003D01*
X171859485Y-115197004D01*
X171608139Y-115247000D01*
X171351861Y-115247000D01*
X171100515Y-115197004D01*
X171100513Y-115197003D01*
X171100512Y-115197003D01*
X170863745Y-115098931D01*
X170650661Y-114956553D01*
X170650658Y-114956551D01*
X170469449Y-114775342D01*
X170327069Y-114562255D01*
X170228996Y-114325485D01*
X170179000Y-114074139D01*
X170179000Y-113817861D01*
X170228996Y-113566515D01*
X170304702Y-113383745D01*
X170327069Y-113329745D01*
X170469447Y-113116661D01*
X170469449Y-113116658D01*
X170650658Y-112935449D01*
X170863745Y-112793069D01*
X171100512Y-112694997D01*
X171100513Y-112694997D01*
X171100515Y-112694996D01*
X171351861Y-112645000D01*
X171608139Y-112645000D01*
X171859485Y-112694996D01*
X171859485Y-112694996D01*
G37*
G36*
X166859485Y-112694996D02*
X166859487Y-112694997D01*
X166859488Y-112694997D01*
X167096255Y-112793069D01*
X167309342Y-112935449D01*
X167490551Y-113116658D01*
X167490553Y-113116661D01*
X167632931Y-113329745D01*
X167655299Y-113383745D01*
X167731004Y-113566515D01*
X167781000Y-113817861D01*
X167781000Y-114074139D01*
X167731004Y-114325485D01*
X167632931Y-114562255D01*
X167490551Y-114775342D01*
X167309342Y-114956551D01*
X167309339Y-114956553D01*
X167096255Y-115098931D01*
X166859488Y-115197003D01*
X166859487Y-115197003D01*
X166859485Y-115197004D01*
X166608139Y-115247000D01*
X166351861Y-115247000D01*
X166100515Y-115197004D01*
X166100513Y-115197003D01*
X166100512Y-115197003D01*
X165863745Y-115098931D01*
X165650661Y-114956553D01*
X165650658Y-114956551D01*
X165469449Y-114775342D01*
X165327069Y-114562255D01*
X165228996Y-114325485D01*
X165179000Y-114074139D01*
X165179000Y-113817861D01*
X165228996Y-113566515D01*
X165304702Y-113383745D01*
X165327069Y-113329745D01*
X165469447Y-113116661D01*
X165469449Y-113116658D01*
X165650658Y-112935449D01*
X165863745Y-112793069D01*
X166100512Y-112694997D01*
X166100513Y-112694997D01*
X166100515Y-112694996D01*
X166351861Y-112645000D01*
X166608139Y-112645000D01*
X166859485Y-112694996D01*
X166859485Y-112694996D01*
G37*
G36*
X161859485Y-112694996D02*
X161859487Y-112694997D01*
X161859488Y-112694997D01*
X162096255Y-112793069D01*
X162309342Y-112935449D01*
X162490551Y-113116658D01*
X162490553Y-113116661D01*
X162632931Y-113329745D01*
X162655299Y-113383745D01*
X162731004Y-113566515D01*
X162781000Y-113817861D01*
X162781000Y-114074139D01*
X162731004Y-114325485D01*
X162632931Y-114562255D01*
X162490551Y-114775342D01*
X162309342Y-114956551D01*
X162309339Y-114956553D01*
X162096255Y-115098931D01*
X161859488Y-115197003D01*
X161859487Y-115197003D01*
X161859485Y-115197004D01*
X161608139Y-115247000D01*
X161351861Y-115247000D01*
X161100515Y-115197004D01*
X161100513Y-115197003D01*
X161100512Y-115197003D01*
X160863745Y-115098931D01*
X160650661Y-114956553D01*
X160650658Y-114956551D01*
X160469449Y-114775342D01*
X160327069Y-114562255D01*
X160228996Y-114325485D01*
X160179000Y-114074139D01*
X160179000Y-113817861D01*
X160228996Y-113566515D01*
X160304702Y-113383745D01*
X160327069Y-113329745D01*
X160469447Y-113116661D01*
X160469449Y-113116658D01*
X160650658Y-112935449D01*
X160863745Y-112793069D01*
X161100512Y-112694997D01*
X161100513Y-112694997D01*
X161100515Y-112694996D01*
X161351861Y-112645000D01*
X161608139Y-112645000D01*
X161859485Y-112694996D01*
X161859485Y-112694996D01*
G37*
G36*
X202039485Y-112694996D02*
X202039487Y-112694997D01*
X202039488Y-112694997D01*
X202276255Y-112793069D01*
X202489342Y-112935449D01*
X202670551Y-113116658D01*
X202670553Y-113116661D01*
X202812931Y-113329745D01*
X202835299Y-113383745D01*
X202911004Y-113566515D01*
X202961000Y-113817861D01*
X202961000Y-114074139D01*
X202911004Y-114325485D01*
X202812931Y-114562255D01*
X202670551Y-114775342D01*
X202489342Y-114956551D01*
X202489339Y-114956553D01*
X202276255Y-115098931D01*
X202039488Y-115197003D01*
X202039487Y-115197003D01*
X202039485Y-115197004D01*
X201788139Y-115247000D01*
X201531861Y-115247000D01*
X201280515Y-115197004D01*
X201280513Y-115197003D01*
X201280512Y-115197003D01*
X201043745Y-115098931D01*
X200830661Y-114956553D01*
X200830658Y-114956551D01*
X200649449Y-114775342D01*
X200507069Y-114562255D01*
X200408996Y-114325485D01*
X200359000Y-114074139D01*
X200359000Y-113817861D01*
X200408996Y-113566515D01*
X200484702Y-113383745D01*
X200507069Y-113329745D01*
X200649447Y-113116661D01*
X200649449Y-113116658D01*
X200830658Y-112935449D01*
X201043745Y-112793069D01*
X201280512Y-112694997D01*
X201280513Y-112694997D01*
X201280515Y-112694996D01*
X201531861Y-112645000D01*
X201788139Y-112645000D01*
X202039485Y-112694996D01*
X202039485Y-112694996D01*
G37*
G36*
X197039485Y-112694996D02*
X197039487Y-112694997D01*
X197039488Y-112694997D01*
X197276255Y-112793069D01*
X197489342Y-112935449D01*
X197670551Y-113116658D01*
X197670553Y-113116661D01*
X197812931Y-113329745D01*
X197835299Y-113383745D01*
X197911004Y-113566515D01*
X197961000Y-113817861D01*
X197961000Y-114074139D01*
X197911004Y-114325485D01*
X197812931Y-114562255D01*
X197670551Y-114775342D01*
X197489342Y-114956551D01*
X197489339Y-114956553D01*
X197276255Y-115098931D01*
X197039488Y-115197003D01*
X197039487Y-115197003D01*
X197039485Y-115197004D01*
X196788139Y-115247000D01*
X196531861Y-115247000D01*
X196280515Y-115197004D01*
X196280513Y-115197003D01*
X196280512Y-115197003D01*
X196043745Y-115098931D01*
X195830661Y-114956553D01*
X195830658Y-114956551D01*
X195649449Y-114775342D01*
X195507069Y-114562255D01*
X195408996Y-114325485D01*
X195359000Y-114074139D01*
X195359000Y-113817861D01*
X195408996Y-113566515D01*
X195484702Y-113383745D01*
X195507069Y-113329745D01*
X195649447Y-113116661D01*
X195649449Y-113116658D01*
X195830658Y-112935449D01*
X196043745Y-112793069D01*
X196280512Y-112694997D01*
X196280513Y-112694997D01*
X196280515Y-112694996D01*
X196531861Y-112645000D01*
X196788139Y-112645000D01*
X197039485Y-112694996D01*
X197039485Y-112694996D01*
G37*
G36*
X192039485Y-112694996D02*
X192039487Y-112694997D01*
X192039488Y-112694997D01*
X192276255Y-112793069D01*
X192489342Y-112935449D01*
X192670551Y-113116658D01*
X192670553Y-113116661D01*
X192812931Y-113329745D01*
X192835299Y-113383745D01*
X192911004Y-113566515D01*
X192961000Y-113817861D01*
X192961000Y-114074139D01*
X192911004Y-114325485D01*
X192812931Y-114562255D01*
X192670551Y-114775342D01*
X192489342Y-114956551D01*
X192489339Y-114956553D01*
X192276255Y-115098931D01*
X192039488Y-115197003D01*
X192039487Y-115197003D01*
X192039485Y-115197004D01*
X191788139Y-115247000D01*
X191531861Y-115247000D01*
X191280515Y-115197004D01*
X191280513Y-115197003D01*
X191280512Y-115197003D01*
X191043745Y-115098931D01*
X190830661Y-114956553D01*
X190830658Y-114956551D01*
X190649449Y-114775342D01*
X190507069Y-114562255D01*
X190408996Y-114325485D01*
X190359000Y-114074139D01*
X190359000Y-113817861D01*
X190408996Y-113566515D01*
X190484702Y-113383745D01*
X190507069Y-113329745D01*
X190649447Y-113116661D01*
X190649449Y-113116658D01*
X190830658Y-112935449D01*
X191043745Y-112793069D01*
X191280512Y-112694997D01*
X191280513Y-112694997D01*
X191280515Y-112694996D01*
X191531861Y-112645000D01*
X191788139Y-112645000D01*
X192039485Y-112694996D01*
X192039485Y-112694996D01*
G37*
G36*
X186859485Y-112694996D02*
X186859487Y-112694997D01*
X186859488Y-112694997D01*
X187096255Y-112793069D01*
X187309342Y-112935449D01*
X187490551Y-113116658D01*
X187490553Y-113116661D01*
X187632931Y-113329745D01*
X187655299Y-113383745D01*
X187731004Y-113566515D01*
X187781000Y-113817861D01*
X187781000Y-114074139D01*
X187731004Y-114325485D01*
X187632931Y-114562255D01*
X187490551Y-114775342D01*
X187309342Y-114956551D01*
X187309339Y-114956553D01*
X187096255Y-115098931D01*
X186859488Y-115197003D01*
X186859487Y-115197003D01*
X186859485Y-115197004D01*
X186608139Y-115247000D01*
X186351861Y-115247000D01*
X186100515Y-115197004D01*
X186100513Y-115197003D01*
X186100512Y-115197003D01*
X185863745Y-115098931D01*
X185650661Y-114956553D01*
X185650658Y-114956551D01*
X185469449Y-114775342D01*
X185327069Y-114562255D01*
X185228996Y-114325485D01*
X185179000Y-114074139D01*
X185179000Y-113817861D01*
X185228996Y-113566515D01*
X185304702Y-113383745D01*
X185327069Y-113329745D01*
X185469447Y-113116661D01*
X185469449Y-113116658D01*
X185650658Y-112935449D01*
X185863745Y-112793069D01*
X186100512Y-112694997D01*
X186100513Y-112694997D01*
X186100515Y-112694996D01*
X186351861Y-112645000D01*
X186608139Y-112645000D01*
X186859485Y-112694996D01*
X186859485Y-112694996D01*
G37*
G36*
X226959485Y-112694996D02*
X226959487Y-112694997D01*
X226959488Y-112694997D01*
X227196255Y-112793069D01*
X227409342Y-112935449D01*
X227590551Y-113116658D01*
X227590553Y-113116661D01*
X227732931Y-113329745D01*
X227755299Y-113383745D01*
X227831004Y-113566515D01*
X227881000Y-113817861D01*
X227881000Y-114074139D01*
X227831004Y-114325485D01*
X227732931Y-114562255D01*
X227590551Y-114775342D01*
X227409342Y-114956551D01*
X227409339Y-114956553D01*
X227196255Y-115098931D01*
X226959488Y-115197003D01*
X226959487Y-115197003D01*
X226959485Y-115197004D01*
X226708139Y-115247000D01*
X226451861Y-115247000D01*
X226200515Y-115197004D01*
X226200513Y-115197003D01*
X226200512Y-115197003D01*
X225963745Y-115098931D01*
X225750661Y-114956553D01*
X225750658Y-114956551D01*
X225569449Y-114775342D01*
X225427069Y-114562255D01*
X225328996Y-114325485D01*
X225279000Y-114074139D01*
X225279000Y-113817861D01*
X225328996Y-113566515D01*
X225404702Y-113383745D01*
X225427069Y-113329745D01*
X225569447Y-113116661D01*
X225569449Y-113116658D01*
X225750658Y-112935449D01*
X225963745Y-112793069D01*
X226200512Y-112694997D01*
X226200513Y-112694997D01*
X226200515Y-112694996D01*
X226451861Y-112645000D01*
X226708139Y-112645000D01*
X226959485Y-112694996D01*
X226959485Y-112694996D01*
G37*
G36*
X221959485Y-112694996D02*
X221959487Y-112694997D01*
X221959488Y-112694997D01*
X222196255Y-112793069D01*
X222409342Y-112935449D01*
X222590551Y-113116658D01*
X222590553Y-113116661D01*
X222732931Y-113329745D01*
X222755299Y-113383745D01*
X222831004Y-113566515D01*
X222881000Y-113817861D01*
X222881000Y-114074139D01*
X222831004Y-114325485D01*
X222732931Y-114562255D01*
X222590551Y-114775342D01*
X222409342Y-114956551D01*
X222409339Y-114956553D01*
X222196255Y-115098931D01*
X221959488Y-115197003D01*
X221959487Y-115197003D01*
X221959485Y-115197004D01*
X221708139Y-115247000D01*
X221451861Y-115247000D01*
X221200515Y-115197004D01*
X221200513Y-115197003D01*
X221200512Y-115197003D01*
X220963745Y-115098931D01*
X220750661Y-114956553D01*
X220750658Y-114956551D01*
X220569449Y-114775342D01*
X220427069Y-114562255D01*
X220328996Y-114325485D01*
X220279000Y-114074139D01*
X220279000Y-113817861D01*
X220328996Y-113566515D01*
X220404702Y-113383745D01*
X220427069Y-113329745D01*
X220569447Y-113116661D01*
X220569449Y-113116658D01*
X220750658Y-112935449D01*
X220963745Y-112793069D01*
X221200512Y-112694997D01*
X221200513Y-112694997D01*
X221200515Y-112694996D01*
X221451861Y-112645000D01*
X221708139Y-112645000D01*
X221959485Y-112694996D01*
X221959485Y-112694996D01*
G37*
G36*
X246959485Y-112694996D02*
X246959487Y-112694997D01*
X246959488Y-112694997D01*
X247196255Y-112793069D01*
X247409342Y-112935449D01*
X247590551Y-113116658D01*
X247590553Y-113116661D01*
X247732931Y-113329745D01*
X247755299Y-113383745D01*
X247831004Y-113566515D01*
X247881000Y-113817861D01*
X247881000Y-114074139D01*
X247831004Y-114325485D01*
X247732931Y-114562255D01*
X247590551Y-114775342D01*
X247409342Y-114956551D01*
X247409339Y-114956553D01*
X247196255Y-115098931D01*
X246959488Y-115197003D01*
X246959487Y-115197003D01*
X246959485Y-115197004D01*
X246708139Y-115247000D01*
X246451861Y-115247000D01*
X246200515Y-115197004D01*
X246200513Y-115197003D01*
X246200512Y-115197003D01*
X245963745Y-115098931D01*
X245750661Y-114956553D01*
X245750658Y-114956551D01*
X245569449Y-114775342D01*
X245427069Y-114562255D01*
X245328996Y-114325485D01*
X245279000Y-114074139D01*
X245279000Y-113817861D01*
X245328996Y-113566515D01*
X245404702Y-113383745D01*
X245427069Y-113329745D01*
X245569447Y-113116661D01*
X245569449Y-113116658D01*
X245750658Y-112935449D01*
X245963745Y-112793069D01*
X246200512Y-112694997D01*
X246200513Y-112694997D01*
X246200515Y-112694996D01*
X246451861Y-112645000D01*
X246708139Y-112645000D01*
X246959485Y-112694996D01*
X246959485Y-112694996D01*
G37*
G36*
X231959485Y-112694996D02*
X231959487Y-112694997D01*
X231959488Y-112694997D01*
X232196255Y-112793069D01*
X232409342Y-112935449D01*
X232590551Y-113116658D01*
X232590553Y-113116661D01*
X232732931Y-113329745D01*
X232755299Y-113383745D01*
X232831004Y-113566515D01*
X232881000Y-113817861D01*
X232881000Y-114074139D01*
X232831004Y-114325485D01*
X232732931Y-114562255D01*
X232590551Y-114775342D01*
X232409342Y-114956551D01*
X232409339Y-114956553D01*
X232196255Y-115098931D01*
X231959488Y-115197003D01*
X231959487Y-115197003D01*
X231959485Y-115197004D01*
X231708139Y-115247000D01*
X231451861Y-115247000D01*
X231200515Y-115197004D01*
X231200513Y-115197003D01*
X231200512Y-115197003D01*
X230963745Y-115098931D01*
X230750661Y-114956553D01*
X230750658Y-114956551D01*
X230569449Y-114775342D01*
X230427069Y-114562255D01*
X230328996Y-114325485D01*
X230279000Y-114074139D01*
X230279000Y-113817861D01*
X230328996Y-113566515D01*
X230404702Y-113383745D01*
X230427069Y-113329745D01*
X230569447Y-113116661D01*
X230569449Y-113116658D01*
X230750658Y-112935449D01*
X230963745Y-112793069D01*
X231200512Y-112694997D01*
X231200513Y-112694997D01*
X231200515Y-112694996D01*
X231451861Y-112645000D01*
X231708139Y-112645000D01*
X231959485Y-112694996D01*
X231959485Y-112694996D01*
G37*
G36*
X245228710Y-100465070D02*
X245920447Y-100751597D01*
X246542999Y-101167573D01*
X247072427Y-101697001D01*
X247488403Y-102319553D01*
X247774930Y-103011290D01*
X247921000Y-103745633D01*
X247921000Y-104494367D01*
X247774930Y-105228710D01*
X247488403Y-105920447D01*
X247072427Y-106542999D01*
X246542999Y-107072427D01*
X245920447Y-107488403D01*
X245228710Y-107774930D01*
X244494367Y-107921000D01*
X243745633Y-107921000D01*
X243011290Y-107774930D01*
X242319553Y-107488403D01*
X241697001Y-107072427D01*
X241167573Y-106542999D01*
X240751597Y-105920447D01*
X240465070Y-105228710D01*
X240319000Y-104494367D01*
X240319000Y-103745633D01*
X240465070Y-103011290D01*
X240751597Y-102319553D01*
X241167573Y-101697001D01*
X241697001Y-101167573D01*
X242319553Y-100751597D01*
X243011290Y-100465070D01*
X243745633Y-100319000D01*
X244494367Y-100319000D01*
X245228710Y-100465070D01*
X245228710Y-100465070D01*
G37*
G36*
X212228710Y-100465070D02*
X212920447Y-100751597D01*
X213542999Y-101167573D01*
X214072427Y-101697001D01*
X214488403Y-102319553D01*
X214774930Y-103011290D01*
X214921000Y-103745633D01*
X214921000Y-104494367D01*
X214774930Y-105228710D01*
X214488403Y-105920447D01*
X214072427Y-106542999D01*
X213542999Y-107072427D01*
X212920447Y-107488403D01*
X212228710Y-107774930D01*
X211494367Y-107921000D01*
X210745633Y-107921000D01*
X210011290Y-107774930D01*
X209319553Y-107488403D01*
X208697001Y-107072427D01*
X208167573Y-106542999D01*
X207751597Y-105920447D01*
X207465070Y-105228710D01*
X207319000Y-104494367D01*
X207319000Y-103745633D01*
X207465070Y-103011290D01*
X207751597Y-102319553D01*
X208167573Y-101697001D01*
X208697001Y-101167573D01*
X209319553Y-100751597D01*
X210011290Y-100465070D01*
X210745633Y-100319000D01*
X211494367Y-100319000D01*
X212228710Y-100465070D01*
X212228710Y-100465070D01*
G37*
G36*
X179228710Y-100465070D02*
X179920447Y-100751597D01*
X180542999Y-101167573D01*
X181072427Y-101697001D01*
X181488403Y-102319553D01*
X181774930Y-103011290D01*
X181921000Y-103745633D01*
X181921000Y-104494367D01*
X181774930Y-105228710D01*
X181488403Y-105920447D01*
X181072427Y-106542999D01*
X180542999Y-107072427D01*
X179920447Y-107488403D01*
X179228710Y-107774930D01*
X178494367Y-107921000D01*
X177745633Y-107921000D01*
X177011290Y-107774930D01*
X176319553Y-107488403D01*
X175697001Y-107072427D01*
X175167573Y-106542999D01*
X174751597Y-105920447D01*
X174465070Y-105228710D01*
X174319000Y-104494367D01*
X174319000Y-103745633D01*
X174465070Y-103011290D01*
X174751597Y-102319553D01*
X175167573Y-101697001D01*
X175697001Y-101167573D01*
X176319553Y-100751597D01*
X177011290Y-100465070D01*
X177745633Y-100319000D01*
X178494367Y-100319000D01*
X179228710Y-100465070D01*
X179228710Y-100465070D01*
G37*
G36*
X146228710Y-100465070D02*
X146920447Y-100751597D01*
X147542999Y-101167573D01*
X148072427Y-101697001D01*
X148488403Y-102319553D01*
X148774930Y-103011290D01*
X148921000Y-103745633D01*
X148921000Y-104494367D01*
X148774930Y-105228710D01*
X148488403Y-105920447D01*
X148072427Y-106542999D01*
X147542999Y-107072427D01*
X146920447Y-107488403D01*
X146228710Y-107774930D01*
X145494367Y-107921000D01*
X144745633Y-107921000D01*
X144011290Y-107774930D01*
X143319553Y-107488403D01*
X142697001Y-107072427D01*
X142167573Y-106542999D01*
X141751597Y-105920447D01*
X141465070Y-105228710D01*
X141319000Y-104494367D01*
X141319000Y-103745633D01*
X141465070Y-103011290D01*
X141751597Y-102319553D01*
X142167573Y-101697001D01*
X142697001Y-101167573D01*
X143319553Y-100751597D01*
X144011290Y-100465070D01*
X144745633Y-100319000D01*
X145494367Y-100319000D01*
X146228710Y-100465070D01*
X146228710Y-100465070D01*
G37*
G36*
X80228710Y-100465070D02*
X80920447Y-100751597D01*
X81542999Y-101167573D01*
X82072427Y-101697001D01*
X82488403Y-102319553D01*
X82774930Y-103011290D01*
X82921000Y-103745633D01*
X82921000Y-104494367D01*
X82774930Y-105228710D01*
X82488403Y-105920447D01*
X82072427Y-106542999D01*
X81542999Y-107072427D01*
X80920447Y-107488403D01*
X80228710Y-107774930D01*
X79494367Y-107921000D01*
X78745633Y-107921000D01*
X78011290Y-107774930D01*
X77319553Y-107488403D01*
X76697001Y-107072427D01*
X76167573Y-106542999D01*
X75751597Y-105920447D01*
X75465070Y-105228710D01*
X75319000Y-104494367D01*
X75319000Y-103745633D01*
X75465070Y-103011290D01*
X75751597Y-102319553D01*
X76167573Y-101697001D01*
X76697001Y-101167573D01*
X77319553Y-100751597D01*
X78011290Y-100465070D01*
X78745633Y-100319000D01*
X79494367Y-100319000D01*
X80228710Y-100465070D01*
X80228710Y-100465070D01*
G37*
G36*
X113228710Y-100465070D02*
X113920447Y-100751597D01*
X114542999Y-101167573D01*
X115072427Y-101697001D01*
X115488403Y-102319553D01*
X115774930Y-103011290D01*
X115921000Y-103745633D01*
X115921000Y-104494367D01*
X115774930Y-105228710D01*
X115488403Y-105920447D01*
X115072427Y-106542999D01*
X114542999Y-107072427D01*
X113920447Y-107488403D01*
X113228710Y-107774930D01*
X112494367Y-107921000D01*
X111745633Y-107921000D01*
X111011290Y-107774930D01*
X110319553Y-107488403D01*
X109697001Y-107072427D01*
X109167573Y-106542999D01*
X108751597Y-105920447D01*
X108465070Y-105228710D01*
X108319000Y-104494367D01*
X108319000Y-103745633D01*
X108465070Y-103011290D01*
X108751597Y-102319553D01*
X109167573Y-101697001D01*
X109697001Y-101167573D01*
X110319553Y-100751597D01*
X111011290Y-100465070D01*
X111745633Y-100319000D01*
X112494367Y-100319000D01*
X113228710Y-100465070D01*
X113228710Y-100465070D01*
G37*
G36*
X94994485Y-104248996D02*
X94994487Y-104248997D01*
X94994488Y-104248997D01*
X95000656Y-104251552D01*
X95231255Y-104347069D01*
X95444342Y-104489449D01*
X95625551Y-104670658D01*
X95767931Y-104883745D01*
X95866004Y-105120515D01*
X95916000Y-105371861D01*
X95916000Y-105628139D01*
X95866004Y-105879485D01*
X95767931Y-106116255D01*
X95625551Y-106329342D01*
X95444342Y-106510551D01*
X95444339Y-106510553D01*
X95231255Y-106652931D01*
X94994488Y-106751003D01*
X94994487Y-106751003D01*
X94994485Y-106751004D01*
X94743139Y-106801000D01*
X94486861Y-106801000D01*
X94235515Y-106751004D01*
X94235513Y-106751003D01*
X94235512Y-106751003D01*
X93998745Y-106652931D01*
X93785661Y-106510553D01*
X93785658Y-106510551D01*
X93604449Y-106329342D01*
X93462069Y-106116255D01*
X93363996Y-105879485D01*
X93314000Y-105628139D01*
X93314000Y-105371861D01*
X93363996Y-105120515D01*
X93462069Y-104883745D01*
X93604449Y-104670658D01*
X93785658Y-104489449D01*
X93998745Y-104347069D01*
X94229344Y-104251552D01*
X94235512Y-104248997D01*
X94235513Y-104248997D01*
X94235515Y-104248996D01*
X94486861Y-104199000D01*
X94743139Y-104199000D01*
X94994485Y-104248996D01*
X94994485Y-104248996D01*
G37*
G36*
X61879485Y-104248996D02*
X61879487Y-104248997D01*
X61879488Y-104248997D01*
X61885656Y-104251552D01*
X62116255Y-104347069D01*
X62329342Y-104489449D01*
X62510551Y-104670658D01*
X62652931Y-104883745D01*
X62751004Y-105120515D01*
X62801000Y-105371861D01*
X62801000Y-105628139D01*
X62751004Y-105879485D01*
X62652931Y-106116255D01*
X62510551Y-106329342D01*
X62329342Y-106510551D01*
X62329339Y-106510553D01*
X62116255Y-106652931D01*
X61879488Y-106751003D01*
X61879487Y-106751003D01*
X61879485Y-106751004D01*
X61628139Y-106801000D01*
X61371861Y-106801000D01*
X61120515Y-106751004D01*
X61120513Y-106751003D01*
X61120512Y-106751003D01*
X60883745Y-106652931D01*
X60670661Y-106510553D01*
X60670658Y-106510551D01*
X60489449Y-106329342D01*
X60347069Y-106116255D01*
X60248996Y-105879485D01*
X60199000Y-105628139D01*
X60199000Y-105371861D01*
X60248996Y-105120515D01*
X60347069Y-104883745D01*
X60489449Y-104670658D01*
X60670658Y-104489449D01*
X60883745Y-104347069D01*
X61114344Y-104251552D01*
X61120512Y-104248997D01*
X61120513Y-104248997D01*
X61120515Y-104248996D01*
X61371861Y-104199000D01*
X61628139Y-104199000D01*
X61879485Y-104248996D01*
X61879485Y-104248996D01*
G37*
G36*
X153026485Y-104248996D02*
X153026487Y-104248997D01*
X153026488Y-104248997D01*
X153032656Y-104251552D01*
X153263255Y-104347069D01*
X153476342Y-104489449D01*
X153657551Y-104670658D01*
X153799931Y-104883745D01*
X153898004Y-105120515D01*
X153948000Y-105371861D01*
X153948000Y-105628139D01*
X153898004Y-105879485D01*
X153799931Y-106116255D01*
X153657551Y-106329342D01*
X153476342Y-106510551D01*
X153476339Y-106510553D01*
X153263255Y-106652931D01*
X153026488Y-106751003D01*
X153026487Y-106751003D01*
X153026485Y-106751004D01*
X152775139Y-106801000D01*
X152518861Y-106801000D01*
X152267515Y-106751004D01*
X152267513Y-106751003D01*
X152267512Y-106751003D01*
X152030745Y-106652931D01*
X151817661Y-106510553D01*
X151817658Y-106510551D01*
X151636449Y-106329342D01*
X151494069Y-106116255D01*
X151395996Y-105879485D01*
X151346000Y-105628139D01*
X151346000Y-105371861D01*
X151395996Y-105120515D01*
X151494069Y-104883745D01*
X151636449Y-104670658D01*
X151817658Y-104489449D01*
X152030745Y-104347069D01*
X152261344Y-104251552D01*
X152267512Y-104248997D01*
X152267513Y-104248997D01*
X152267515Y-104248996D01*
X152518861Y-104199000D01*
X152775139Y-104199000D01*
X153026485Y-104248996D01*
X153026485Y-104248996D01*
G37*
G36*
X160526485Y-104248996D02*
X160526487Y-104248997D01*
X160526488Y-104248997D01*
X160532656Y-104251552D01*
X160763255Y-104347069D01*
X160976342Y-104489449D01*
X161157551Y-104670658D01*
X161299931Y-104883745D01*
X161398004Y-105120515D01*
X161448000Y-105371861D01*
X161448000Y-105628139D01*
X161398004Y-105879485D01*
X161299931Y-106116255D01*
X161157551Y-106329342D01*
X160976342Y-106510551D01*
X160976339Y-106510553D01*
X160763255Y-106652931D01*
X160526488Y-106751003D01*
X160526487Y-106751003D01*
X160526485Y-106751004D01*
X160275139Y-106801000D01*
X160018861Y-106801000D01*
X159767515Y-106751004D01*
X159767513Y-106751003D01*
X159767512Y-106751003D01*
X159530745Y-106652931D01*
X159317661Y-106510553D01*
X159317658Y-106510551D01*
X159136449Y-106329342D01*
X158994069Y-106116255D01*
X158895996Y-105879485D01*
X158846000Y-105628139D01*
X158846000Y-105371861D01*
X158895996Y-105120515D01*
X158994069Y-104883745D01*
X159136449Y-104670658D01*
X159317658Y-104489449D01*
X159530745Y-104347069D01*
X159761344Y-104251552D01*
X159767512Y-104248997D01*
X159767513Y-104248997D01*
X159767515Y-104248996D01*
X160018861Y-104199000D01*
X160275139Y-104199000D01*
X160526485Y-104248996D01*
X160526485Y-104248996D01*
G37*
G36*
X226379485Y-104248996D02*
X226379487Y-104248997D01*
X226379488Y-104248997D01*
X226385656Y-104251552D01*
X226616255Y-104347069D01*
X226829342Y-104489449D01*
X227010551Y-104670658D01*
X227152931Y-104883745D01*
X227251004Y-105120515D01*
X227301000Y-105371861D01*
X227301000Y-105628139D01*
X227251004Y-105879485D01*
X227152931Y-106116255D01*
X227010551Y-106329342D01*
X226829342Y-106510551D01*
X226829339Y-106510553D01*
X226616255Y-106652931D01*
X226379488Y-106751003D01*
X226379487Y-106751003D01*
X226379485Y-106751004D01*
X226128139Y-106801000D01*
X225871861Y-106801000D01*
X225620515Y-106751004D01*
X225620513Y-106751003D01*
X225620512Y-106751003D01*
X225383745Y-106652931D01*
X225170661Y-106510553D01*
X225170658Y-106510551D01*
X224989449Y-106329342D01*
X224847069Y-106116255D01*
X224748996Y-105879485D01*
X224699000Y-105628139D01*
X224699000Y-105371861D01*
X224748996Y-105120515D01*
X224847069Y-104883745D01*
X224989449Y-104670658D01*
X225170658Y-104489449D01*
X225383745Y-104347069D01*
X225614344Y-104251552D01*
X225620512Y-104248997D01*
X225620513Y-104248997D01*
X225620515Y-104248996D01*
X225871861Y-104199000D01*
X226128139Y-104199000D01*
X226379485Y-104248996D01*
X226379485Y-104248996D01*
G37*
G36*
X87494485Y-104248996D02*
X87494487Y-104248997D01*
X87494488Y-104248997D01*
X87500656Y-104251552D01*
X87731255Y-104347069D01*
X87944342Y-104489449D01*
X88125551Y-104670658D01*
X88267931Y-104883745D01*
X88366004Y-105120515D01*
X88416000Y-105371861D01*
X88416000Y-105628139D01*
X88366004Y-105879485D01*
X88267931Y-106116255D01*
X88125551Y-106329342D01*
X87944342Y-106510551D01*
X87944339Y-106510553D01*
X87731255Y-106652931D01*
X87494488Y-106751003D01*
X87494487Y-106751003D01*
X87494485Y-106751004D01*
X87243139Y-106801000D01*
X86986861Y-106801000D01*
X86735515Y-106751004D01*
X86735513Y-106751003D01*
X86735512Y-106751003D01*
X86498745Y-106652931D01*
X86285661Y-106510553D01*
X86285658Y-106510551D01*
X86104449Y-106329342D01*
X85962069Y-106116255D01*
X85863996Y-105879485D01*
X85814000Y-105628139D01*
X85814000Y-105371861D01*
X85863996Y-105120515D01*
X85962069Y-104883745D01*
X86104449Y-104670658D01*
X86285658Y-104489449D01*
X86498745Y-104347069D01*
X86729344Y-104251552D01*
X86735512Y-104248997D01*
X86735513Y-104248997D01*
X86735515Y-104248996D01*
X86986861Y-104199000D01*
X87243139Y-104199000D01*
X87494485Y-104248996D01*
X87494485Y-104248996D01*
G37*
G36*
X218879485Y-104248996D02*
X218879487Y-104248997D01*
X218879488Y-104248997D01*
X218885656Y-104251552D01*
X219116255Y-104347069D01*
X219329342Y-104489449D01*
X219510551Y-104670658D01*
X219652931Y-104883745D01*
X219751004Y-105120515D01*
X219801000Y-105371861D01*
X219801000Y-105628139D01*
X219751004Y-105879485D01*
X219652931Y-106116255D01*
X219510551Y-106329342D01*
X219329342Y-106510551D01*
X219329339Y-106510553D01*
X219116255Y-106652931D01*
X218879488Y-106751003D01*
X218879487Y-106751003D01*
X218879485Y-106751004D01*
X218628139Y-106801000D01*
X218371861Y-106801000D01*
X218120515Y-106751004D01*
X218120513Y-106751003D01*
X218120512Y-106751003D01*
X217883745Y-106652931D01*
X217670661Y-106510553D01*
X217670658Y-106510551D01*
X217489449Y-106329342D01*
X217347069Y-106116255D01*
X217248996Y-105879485D01*
X217199000Y-105628139D01*
X217199000Y-105371861D01*
X217248996Y-105120515D01*
X217347069Y-104883745D01*
X217489449Y-104670658D01*
X217670658Y-104489449D01*
X217883745Y-104347069D01*
X218114344Y-104251552D01*
X218120512Y-104248997D01*
X218120513Y-104248997D01*
X218120515Y-104248996D01*
X218371861Y-104199000D01*
X218628139Y-104199000D01*
X218879485Y-104248996D01*
X218879485Y-104248996D01*
G37*
G36*
X119879485Y-104248996D02*
X119879487Y-104248997D01*
X119879488Y-104248997D01*
X119885656Y-104251552D01*
X120116255Y-104347069D01*
X120329342Y-104489449D01*
X120510551Y-104670658D01*
X120652931Y-104883745D01*
X120751004Y-105120515D01*
X120801000Y-105371861D01*
X120801000Y-105628139D01*
X120751004Y-105879485D01*
X120652931Y-106116255D01*
X120510551Y-106329342D01*
X120329342Y-106510551D01*
X120329339Y-106510553D01*
X120116255Y-106652931D01*
X119879488Y-106751003D01*
X119879487Y-106751003D01*
X119879485Y-106751004D01*
X119628139Y-106801000D01*
X119371861Y-106801000D01*
X119120515Y-106751004D01*
X119120513Y-106751003D01*
X119120512Y-106751003D01*
X118883745Y-106652931D01*
X118670661Y-106510553D01*
X118670658Y-106510551D01*
X118489449Y-106329342D01*
X118347069Y-106116255D01*
X118248996Y-105879485D01*
X118199000Y-105628139D01*
X118199000Y-105371861D01*
X118248996Y-105120515D01*
X118347069Y-104883745D01*
X118489449Y-104670658D01*
X118670658Y-104489449D01*
X118883745Y-104347069D01*
X119114344Y-104251552D01*
X119120512Y-104248997D01*
X119120513Y-104248997D01*
X119120515Y-104248996D01*
X119371861Y-104199000D01*
X119628139Y-104199000D01*
X119879485Y-104248996D01*
X119879485Y-104248996D01*
G37*
G36*
X127379485Y-104248996D02*
X127379487Y-104248997D01*
X127379488Y-104248997D01*
X127385656Y-104251552D01*
X127616255Y-104347069D01*
X127829342Y-104489449D01*
X128010551Y-104670658D01*
X128152931Y-104883745D01*
X128251004Y-105120515D01*
X128301000Y-105371861D01*
X128301000Y-105628139D01*
X128251004Y-105879485D01*
X128152931Y-106116255D01*
X128010551Y-106329342D01*
X127829342Y-106510551D01*
X127829339Y-106510553D01*
X127616255Y-106652931D01*
X127379488Y-106751003D01*
X127379487Y-106751003D01*
X127379485Y-106751004D01*
X127128139Y-106801000D01*
X126871861Y-106801000D01*
X126620515Y-106751004D01*
X126620513Y-106751003D01*
X126620512Y-106751003D01*
X126383745Y-106652931D01*
X126170661Y-106510553D01*
X126170658Y-106510551D01*
X125989449Y-106329342D01*
X125847069Y-106116255D01*
X125748996Y-105879485D01*
X125699000Y-105628139D01*
X125699000Y-105371861D01*
X125748996Y-105120515D01*
X125847069Y-104883745D01*
X125989449Y-104670658D01*
X126170658Y-104489449D01*
X126383745Y-104347069D01*
X126614344Y-104251552D01*
X126620512Y-104248997D01*
X126620513Y-104248997D01*
X126620515Y-104248996D01*
X126871861Y-104199000D01*
X127128139Y-104199000D01*
X127379485Y-104248996D01*
X127379485Y-104248996D01*
G37*
G36*
X185879485Y-104248996D02*
X185879487Y-104248997D01*
X185879488Y-104248997D01*
X185885656Y-104251552D01*
X186116255Y-104347069D01*
X186329342Y-104489449D01*
X186510551Y-104670658D01*
X186652931Y-104883745D01*
X186751004Y-105120515D01*
X186801000Y-105371861D01*
X186801000Y-105628139D01*
X186751004Y-105879485D01*
X186652931Y-106116255D01*
X186510551Y-106329342D01*
X186329342Y-106510551D01*
X186329339Y-106510553D01*
X186116255Y-106652931D01*
X185879488Y-106751003D01*
X185879487Y-106751003D01*
X185879485Y-106751004D01*
X185628139Y-106801000D01*
X185371861Y-106801000D01*
X185120515Y-106751004D01*
X185120513Y-106751003D01*
X185120512Y-106751003D01*
X184883745Y-106652931D01*
X184670661Y-106510553D01*
X184670658Y-106510551D01*
X184489449Y-106329342D01*
X184347069Y-106116255D01*
X184248996Y-105879485D01*
X184199000Y-105628139D01*
X184199000Y-105371861D01*
X184248996Y-105120515D01*
X184347069Y-104883745D01*
X184489449Y-104670658D01*
X184670658Y-104489449D01*
X184883745Y-104347069D01*
X185114344Y-104251552D01*
X185120512Y-104248997D01*
X185120513Y-104248997D01*
X185120515Y-104248996D01*
X185371861Y-104199000D01*
X185628139Y-104199000D01*
X185879485Y-104248996D01*
X185879485Y-104248996D01*
G37*
G36*
X54379485Y-104248996D02*
X54379487Y-104248997D01*
X54379488Y-104248997D01*
X54385656Y-104251552D01*
X54616255Y-104347069D01*
X54829342Y-104489449D01*
X55010551Y-104670658D01*
X55152931Y-104883745D01*
X55251004Y-105120515D01*
X55301000Y-105371861D01*
X55301000Y-105628139D01*
X55251004Y-105879485D01*
X55152931Y-106116255D01*
X55010551Y-106329342D01*
X54829342Y-106510551D01*
X54829339Y-106510553D01*
X54616255Y-106652931D01*
X54379488Y-106751003D01*
X54379487Y-106751003D01*
X54379485Y-106751004D01*
X54128139Y-106801000D01*
X53871861Y-106801000D01*
X53620515Y-106751004D01*
X53620513Y-106751003D01*
X53620512Y-106751003D01*
X53383745Y-106652931D01*
X53170661Y-106510553D01*
X53170658Y-106510551D01*
X52989449Y-106329342D01*
X52847069Y-106116255D01*
X52748996Y-105879485D01*
X52699000Y-105628139D01*
X52699000Y-105371861D01*
X52748996Y-105120515D01*
X52847069Y-104883745D01*
X52989449Y-104670658D01*
X53170658Y-104489449D01*
X53383745Y-104347069D01*
X53614344Y-104251552D01*
X53620512Y-104248997D01*
X53620513Y-104248997D01*
X53620515Y-104248996D01*
X53871861Y-104199000D01*
X54128139Y-104199000D01*
X54379485Y-104248996D01*
X54379485Y-104248996D01*
G37*
G36*
X193379485Y-104248996D02*
X193379487Y-104248997D01*
X193379488Y-104248997D01*
X193385656Y-104251552D01*
X193616255Y-104347069D01*
X193829342Y-104489449D01*
X194010551Y-104670658D01*
X194152931Y-104883745D01*
X194251004Y-105120515D01*
X194301000Y-105371861D01*
X194301000Y-105628139D01*
X194251004Y-105879485D01*
X194152931Y-106116255D01*
X194010551Y-106329342D01*
X193829342Y-106510551D01*
X193829339Y-106510553D01*
X193616255Y-106652931D01*
X193379488Y-106751003D01*
X193379487Y-106751003D01*
X193379485Y-106751004D01*
X193128139Y-106801000D01*
X192871861Y-106801000D01*
X192620515Y-106751004D01*
X192620513Y-106751003D01*
X192620512Y-106751003D01*
X192383745Y-106652931D01*
X192170661Y-106510553D01*
X192170658Y-106510551D01*
X191989449Y-106329342D01*
X191847069Y-106116255D01*
X191748996Y-105879485D01*
X191699000Y-105628139D01*
X191699000Y-105371861D01*
X191748996Y-105120515D01*
X191847069Y-104883745D01*
X191989449Y-104670658D01*
X192170658Y-104489449D01*
X192383745Y-104347069D01*
X192614344Y-104251552D01*
X192620512Y-104248997D01*
X192620513Y-104248997D01*
X192620515Y-104248996D01*
X192871861Y-104199000D01*
X193128139Y-104199000D01*
X193379485Y-104248996D01*
X193379485Y-104248996D01*
G37*
G36*
X104108710Y-91345070D02*
X104800447Y-91631597D01*
X105422999Y-92047573D01*
X105952427Y-92577001D01*
X106368403Y-93199553D01*
X106654930Y-93891290D01*
X106801000Y-94625633D01*
X106801000Y-95374367D01*
X106654930Y-96108710D01*
X106368403Y-96800447D01*
X105952427Y-97422999D01*
X105422999Y-97952427D01*
X104800447Y-98368403D01*
X104108710Y-98654930D01*
X103374367Y-98801000D01*
X102625633Y-98801000D01*
X101891290Y-98654930D01*
X101199553Y-98368403D01*
X100577001Y-97952427D01*
X100047573Y-97422999D01*
X99631597Y-96800447D01*
X99345070Y-96108710D01*
X99199000Y-95374367D01*
X99199000Y-94625633D01*
X99345070Y-93891290D01*
X99631597Y-93199553D01*
X100047573Y-92577001D01*
X100577001Y-92047573D01*
X101199553Y-91631597D01*
X101891290Y-91345070D01*
X102625633Y-91199000D01*
X103374367Y-91199000D01*
X104108710Y-91345070D01*
X104108710Y-91345070D01*
G37*
G36*
X137108710Y-91345070D02*
X137800447Y-91631597D01*
X138422999Y-92047573D01*
X138952427Y-92577001D01*
X139368403Y-93199553D01*
X139654930Y-93891290D01*
X139801000Y-94625633D01*
X139801000Y-95374367D01*
X139654930Y-96108710D01*
X139368403Y-96800447D01*
X138952427Y-97422999D01*
X138422999Y-97952427D01*
X137800447Y-98368403D01*
X137108710Y-98654930D01*
X136374367Y-98801000D01*
X135625633Y-98801000D01*
X134891290Y-98654930D01*
X134199553Y-98368403D01*
X133577001Y-97952427D01*
X133047573Y-97422999D01*
X132631597Y-96800447D01*
X132345070Y-96108710D01*
X132199000Y-95374367D01*
X132199000Y-94625633D01*
X132345070Y-93891290D01*
X132631597Y-93199553D01*
X133047573Y-92577001D01*
X133577001Y-92047573D01*
X134199553Y-91631597D01*
X134891290Y-91345070D01*
X135625633Y-91199000D01*
X136374367Y-91199000D01*
X137108710Y-91345070D01*
X137108710Y-91345070D01*
G37*
G36*
X71108710Y-91345070D02*
X71800447Y-91631597D01*
X72422999Y-92047573D01*
X72952427Y-92577001D01*
X73368403Y-93199553D01*
X73654930Y-93891290D01*
X73801000Y-94625633D01*
X73801000Y-95374367D01*
X73654930Y-96108710D01*
X73368403Y-96800447D01*
X72952427Y-97422999D01*
X72422999Y-97952427D01*
X71800447Y-98368403D01*
X71108710Y-98654930D01*
X70374367Y-98801000D01*
X69625633Y-98801000D01*
X68891290Y-98654930D01*
X68199553Y-98368403D01*
X67577001Y-97952427D01*
X67047573Y-97422999D01*
X66631597Y-96800447D01*
X66345070Y-96108710D01*
X66199000Y-95374367D01*
X66199000Y-94625633D01*
X66345070Y-93891290D01*
X66631597Y-93199553D01*
X67047573Y-92577001D01*
X67577001Y-92047573D01*
X68199553Y-91631597D01*
X68891290Y-91345070D01*
X69625633Y-91199000D01*
X70374367Y-91199000D01*
X71108710Y-91345070D01*
X71108710Y-91345070D01*
G37*
G36*
X203108710Y-91345070D02*
X203800447Y-91631597D01*
X204422999Y-92047573D01*
X204952427Y-92577001D01*
X205368403Y-93199553D01*
X205654930Y-93891290D01*
X205801000Y-94625633D01*
X205801000Y-95374367D01*
X205654930Y-96108710D01*
X205368403Y-96800447D01*
X204952427Y-97422999D01*
X204422999Y-97952427D01*
X203800447Y-98368403D01*
X203108710Y-98654930D01*
X202374367Y-98801000D01*
X201625633Y-98801000D01*
X200891290Y-98654930D01*
X200199553Y-98368403D01*
X199577001Y-97952427D01*
X199047573Y-97422999D01*
X198631597Y-96800447D01*
X198345070Y-96108710D01*
X198199000Y-95374367D01*
X198199000Y-94625633D01*
X198345070Y-93891290D01*
X198631597Y-93199553D01*
X199047573Y-92577001D01*
X199577001Y-92047573D01*
X200199553Y-91631597D01*
X200891290Y-91345070D01*
X201625633Y-91199000D01*
X202374367Y-91199000D01*
X203108710Y-91345070D01*
X203108710Y-91345070D01*
G37*
G36*
X236108710Y-91345070D02*
X236800447Y-91631597D01*
X237422999Y-92047573D01*
X237952427Y-92577001D01*
X238368403Y-93199553D01*
X238654930Y-93891290D01*
X238801000Y-94625633D01*
X238801000Y-95374367D01*
X238654930Y-96108710D01*
X238368403Y-96800447D01*
X237952427Y-97422999D01*
X237422999Y-97952427D01*
X236800447Y-98368403D01*
X236108710Y-98654930D01*
X235374367Y-98801000D01*
X234625633Y-98801000D01*
X233891290Y-98654930D01*
X233199553Y-98368403D01*
X232577001Y-97952427D01*
X232047573Y-97422999D01*
X231631597Y-96800447D01*
X231345070Y-96108710D01*
X231199000Y-95374367D01*
X231199000Y-94625633D01*
X231345070Y-93891290D01*
X231631597Y-93199553D01*
X232047573Y-92577001D01*
X232577001Y-92047573D01*
X233199553Y-91631597D01*
X233891290Y-91345070D01*
X234625633Y-91199000D01*
X235374367Y-91199000D01*
X236108710Y-91345070D01*
X236108710Y-91345070D01*
G37*
G36*
X170108710Y-91345070D02*
X170800447Y-91631597D01*
X171422999Y-92047573D01*
X171952427Y-92577001D01*
X172368403Y-93199553D01*
X172654930Y-93891290D01*
X172801000Y-94625633D01*
X172801000Y-95374367D01*
X172654930Y-96108710D01*
X172368403Y-96800447D01*
X171952427Y-97422999D01*
X171422999Y-97952427D01*
X170800447Y-98368403D01*
X170108710Y-98654930D01*
X169374367Y-98801000D01*
X168625633Y-98801000D01*
X167891290Y-98654930D01*
X167199553Y-98368403D01*
X166577001Y-97952427D01*
X166047573Y-97422999D01*
X165631597Y-96800447D01*
X165345070Y-96108710D01*
X165199000Y-95374367D01*
X165199000Y-94625633D01*
X165345070Y-93891290D01*
X165631597Y-93199553D01*
X166047573Y-92577001D01*
X166577001Y-92047573D01*
X167199553Y-91631597D01*
X167891290Y-91345070D01*
X168625633Y-91199000D01*
X169374367Y-91199000D01*
X170108710Y-91345070D01*
X170108710Y-91345070D01*
G37*
G36*
X94994485Y-89248996D02*
X94994487Y-89248997D01*
X94994488Y-89248997D01*
X95231255Y-89347069D01*
X95444342Y-89489449D01*
X95625551Y-89670658D01*
X95767931Y-89883745D01*
X95866004Y-90120515D01*
X95916000Y-90371861D01*
X95916000Y-90628139D01*
X95866004Y-90879485D01*
X95767931Y-91116255D01*
X95625551Y-91329342D01*
X95444342Y-91510551D01*
X95444339Y-91510553D01*
X95231255Y-91652931D01*
X94994488Y-91751003D01*
X94994487Y-91751003D01*
X94994485Y-91751004D01*
X94743139Y-91801000D01*
X94486861Y-91801000D01*
X94235515Y-91751004D01*
X94235513Y-91751003D01*
X94235512Y-91751003D01*
X93998745Y-91652931D01*
X93785661Y-91510553D01*
X93785658Y-91510551D01*
X93604449Y-91329342D01*
X93462069Y-91116255D01*
X93363996Y-90879485D01*
X93314000Y-90628139D01*
X93314000Y-90371861D01*
X93363996Y-90120515D01*
X93462069Y-89883745D01*
X93604449Y-89670658D01*
X93785658Y-89489449D01*
X93998745Y-89347069D01*
X94235512Y-89248997D01*
X94235513Y-89248997D01*
X94235515Y-89248996D01*
X94486861Y-89199000D01*
X94743139Y-89199000D01*
X94994485Y-89248996D01*
X94994485Y-89248996D01*
G37*
G36*
X226379485Y-89248996D02*
X226379487Y-89248997D01*
X226379488Y-89248997D01*
X226616255Y-89347069D01*
X226829342Y-89489449D01*
X227010551Y-89670658D01*
X227152931Y-89883745D01*
X227251004Y-90120515D01*
X227301000Y-90371861D01*
X227301000Y-90628139D01*
X227251004Y-90879485D01*
X227152931Y-91116255D01*
X227010551Y-91329342D01*
X226829342Y-91510551D01*
X226829339Y-91510553D01*
X226616255Y-91652931D01*
X226379488Y-91751003D01*
X226379487Y-91751003D01*
X226379485Y-91751004D01*
X226128139Y-91801000D01*
X225871861Y-91801000D01*
X225620515Y-91751004D01*
X225620513Y-91751003D01*
X225620512Y-91751003D01*
X225383745Y-91652931D01*
X225170661Y-91510553D01*
X225170658Y-91510551D01*
X224989449Y-91329342D01*
X224847069Y-91116255D01*
X224748996Y-90879485D01*
X224699000Y-90628139D01*
X224699000Y-90371861D01*
X224748996Y-90120515D01*
X224847069Y-89883745D01*
X224989449Y-89670658D01*
X225170658Y-89489449D01*
X225383745Y-89347069D01*
X225620512Y-89248997D01*
X225620513Y-89248997D01*
X225620515Y-89248996D01*
X225871861Y-89199000D01*
X226128139Y-89199000D01*
X226379485Y-89248996D01*
X226379485Y-89248996D01*
G37*
G36*
X218879485Y-89248996D02*
X218879487Y-89248997D01*
X218879488Y-89248997D01*
X219116255Y-89347069D01*
X219329342Y-89489449D01*
X219510551Y-89670658D01*
X219652931Y-89883745D01*
X219751004Y-90120515D01*
X219801000Y-90371861D01*
X219801000Y-90628139D01*
X219751004Y-90879485D01*
X219652931Y-91116255D01*
X219510551Y-91329342D01*
X219329342Y-91510551D01*
X219329339Y-91510553D01*
X219116255Y-91652931D01*
X218879488Y-91751003D01*
X218879487Y-91751003D01*
X218879485Y-91751004D01*
X218628139Y-91801000D01*
X218371861Y-91801000D01*
X218120515Y-91751004D01*
X218120513Y-91751003D01*
X218120512Y-91751003D01*
X217883745Y-91652931D01*
X217670661Y-91510553D01*
X217670658Y-91510551D01*
X217489449Y-91329342D01*
X217347069Y-91116255D01*
X217248996Y-90879485D01*
X217199000Y-90628139D01*
X217199000Y-90371861D01*
X217248996Y-90120515D01*
X217347069Y-89883745D01*
X217489449Y-89670658D01*
X217670658Y-89489449D01*
X217883745Y-89347069D01*
X218120512Y-89248997D01*
X218120513Y-89248997D01*
X218120515Y-89248996D01*
X218371861Y-89199000D01*
X218628139Y-89199000D01*
X218879485Y-89248996D01*
X218879485Y-89248996D01*
G37*
G36*
X54379485Y-89248996D02*
X54379487Y-89248997D01*
X54379488Y-89248997D01*
X54616255Y-89347069D01*
X54829342Y-89489449D01*
X55010551Y-89670658D01*
X55152931Y-89883745D01*
X55251004Y-90120515D01*
X55301000Y-90371861D01*
X55301000Y-90628139D01*
X55251004Y-90879485D01*
X55152931Y-91116255D01*
X55010551Y-91329342D01*
X54829342Y-91510551D01*
X54829339Y-91510553D01*
X54616255Y-91652931D01*
X54379488Y-91751003D01*
X54379487Y-91751003D01*
X54379485Y-91751004D01*
X54128139Y-91801000D01*
X53871861Y-91801000D01*
X53620515Y-91751004D01*
X53620513Y-91751003D01*
X53620512Y-91751003D01*
X53383745Y-91652931D01*
X53170661Y-91510553D01*
X53170658Y-91510551D01*
X52989449Y-91329342D01*
X52847069Y-91116255D01*
X52748996Y-90879485D01*
X52699000Y-90628139D01*
X52699000Y-90371861D01*
X52748996Y-90120515D01*
X52847069Y-89883745D01*
X52989449Y-89670658D01*
X53170658Y-89489449D01*
X53383745Y-89347069D01*
X53620512Y-89248997D01*
X53620513Y-89248997D01*
X53620515Y-89248996D01*
X53871861Y-89199000D01*
X54128139Y-89199000D01*
X54379485Y-89248996D01*
X54379485Y-89248996D01*
G37*
G36*
X127379485Y-89248996D02*
X127379487Y-89248997D01*
X127379488Y-89248997D01*
X127616255Y-89347069D01*
X127829342Y-89489449D01*
X128010551Y-89670658D01*
X128152931Y-89883745D01*
X128251004Y-90120515D01*
X128301000Y-90371861D01*
X128301000Y-90628139D01*
X128251004Y-90879485D01*
X128152931Y-91116255D01*
X128010551Y-91329342D01*
X127829342Y-91510551D01*
X127829339Y-91510553D01*
X127616255Y-91652931D01*
X127379488Y-91751003D01*
X127379487Y-91751003D01*
X127379485Y-91751004D01*
X127128139Y-91801000D01*
X126871861Y-91801000D01*
X126620515Y-91751004D01*
X126620513Y-91751003D01*
X126620512Y-91751003D01*
X126383745Y-91652931D01*
X126170661Y-91510553D01*
X126170658Y-91510551D01*
X125989449Y-91329342D01*
X125847069Y-91116255D01*
X125748996Y-90879485D01*
X125699000Y-90628139D01*
X125699000Y-90371861D01*
X125748996Y-90120515D01*
X125847069Y-89883745D01*
X125989449Y-89670658D01*
X126170658Y-89489449D01*
X126383745Y-89347069D01*
X126620512Y-89248997D01*
X126620513Y-89248997D01*
X126620515Y-89248996D01*
X126871861Y-89199000D01*
X127128139Y-89199000D01*
X127379485Y-89248996D01*
X127379485Y-89248996D01*
G37*
G36*
X193379485Y-89248996D02*
X193379487Y-89248997D01*
X193379488Y-89248997D01*
X193616255Y-89347069D01*
X193829342Y-89489449D01*
X194010551Y-89670658D01*
X194152931Y-89883745D01*
X194251004Y-90120515D01*
X194301000Y-90371861D01*
X194301000Y-90628139D01*
X194251004Y-90879485D01*
X194152931Y-91116255D01*
X194010551Y-91329342D01*
X193829342Y-91510551D01*
X193829339Y-91510553D01*
X193616255Y-91652931D01*
X193379488Y-91751003D01*
X193379487Y-91751003D01*
X193379485Y-91751004D01*
X193128139Y-91801000D01*
X192871861Y-91801000D01*
X192620515Y-91751004D01*
X192620513Y-91751003D01*
X192620512Y-91751003D01*
X192383745Y-91652931D01*
X192170661Y-91510553D01*
X192170658Y-91510551D01*
X191989449Y-91329342D01*
X191847069Y-91116255D01*
X191748996Y-90879485D01*
X191699000Y-90628139D01*
X191699000Y-90371861D01*
X191748996Y-90120515D01*
X191847069Y-89883745D01*
X191989449Y-89670658D01*
X192170658Y-89489449D01*
X192383745Y-89347069D01*
X192620512Y-89248997D01*
X192620513Y-89248997D01*
X192620515Y-89248996D01*
X192871861Y-89199000D01*
X193128139Y-89199000D01*
X193379485Y-89248996D01*
X193379485Y-89248996D01*
G37*
G36*
X61879485Y-89248996D02*
X61879487Y-89248997D01*
X61879488Y-89248997D01*
X62116255Y-89347069D01*
X62329342Y-89489449D01*
X62510551Y-89670658D01*
X62652931Y-89883745D01*
X62751004Y-90120515D01*
X62801000Y-90371861D01*
X62801000Y-90628139D01*
X62751004Y-90879485D01*
X62652931Y-91116255D01*
X62510551Y-91329342D01*
X62329342Y-91510551D01*
X62329339Y-91510553D01*
X62116255Y-91652931D01*
X61879488Y-91751003D01*
X61879487Y-91751003D01*
X61879485Y-91751004D01*
X61628139Y-91801000D01*
X61371861Y-91801000D01*
X61120515Y-91751004D01*
X61120513Y-91751003D01*
X61120512Y-91751003D01*
X60883745Y-91652931D01*
X60670661Y-91510553D01*
X60670658Y-91510551D01*
X60489449Y-91329342D01*
X60347069Y-91116255D01*
X60248996Y-90879485D01*
X60199000Y-90628139D01*
X60199000Y-90371861D01*
X60248996Y-90120515D01*
X60347069Y-89883745D01*
X60489449Y-89670658D01*
X60670658Y-89489449D01*
X60883745Y-89347069D01*
X61120512Y-89248997D01*
X61120513Y-89248997D01*
X61120515Y-89248996D01*
X61371861Y-89199000D01*
X61628139Y-89199000D01*
X61879485Y-89248996D01*
X61879485Y-89248996D01*
G37*
G36*
X119879485Y-89248996D02*
X119879487Y-89248997D01*
X119879488Y-89248997D01*
X120116255Y-89347069D01*
X120329342Y-89489449D01*
X120510551Y-89670658D01*
X120652931Y-89883745D01*
X120751004Y-90120515D01*
X120801000Y-90371861D01*
X120801000Y-90628139D01*
X120751004Y-90879485D01*
X120652931Y-91116255D01*
X120510551Y-91329342D01*
X120329342Y-91510551D01*
X120329339Y-91510553D01*
X120116255Y-91652931D01*
X119879488Y-91751003D01*
X119879487Y-91751003D01*
X119879485Y-91751004D01*
X119628139Y-91801000D01*
X119371861Y-91801000D01*
X119120515Y-91751004D01*
X119120513Y-91751003D01*
X119120512Y-91751003D01*
X118883745Y-91652931D01*
X118670661Y-91510553D01*
X118670658Y-91510551D01*
X118489449Y-91329342D01*
X118347069Y-91116255D01*
X118248996Y-90879485D01*
X118199000Y-90628139D01*
X118199000Y-90371861D01*
X118248996Y-90120515D01*
X118347069Y-89883745D01*
X118489449Y-89670658D01*
X118670658Y-89489449D01*
X118883745Y-89347069D01*
X119120512Y-89248997D01*
X119120513Y-89248997D01*
X119120515Y-89248996D01*
X119371861Y-89199000D01*
X119628139Y-89199000D01*
X119879485Y-89248996D01*
X119879485Y-89248996D01*
G37*
G36*
X185879485Y-89248996D02*
X185879487Y-89248997D01*
X185879488Y-89248997D01*
X186116255Y-89347069D01*
X186329342Y-89489449D01*
X186510551Y-89670658D01*
X186652931Y-89883745D01*
X186751004Y-90120515D01*
X186801000Y-90371861D01*
X186801000Y-90628139D01*
X186751004Y-90879485D01*
X186652931Y-91116255D01*
X186510551Y-91329342D01*
X186329342Y-91510551D01*
X186329339Y-91510553D01*
X186116255Y-91652931D01*
X185879488Y-91751003D01*
X185879487Y-91751003D01*
X185879485Y-91751004D01*
X185628139Y-91801000D01*
X185371861Y-91801000D01*
X185120515Y-91751004D01*
X185120513Y-91751003D01*
X185120512Y-91751003D01*
X184883745Y-91652931D01*
X184670661Y-91510553D01*
X184670658Y-91510551D01*
X184489449Y-91329342D01*
X184347069Y-91116255D01*
X184248996Y-90879485D01*
X184199000Y-90628139D01*
X184199000Y-90371861D01*
X184248996Y-90120515D01*
X184347069Y-89883745D01*
X184489449Y-89670658D01*
X184670658Y-89489449D01*
X184883745Y-89347069D01*
X185120512Y-89248997D01*
X185120513Y-89248997D01*
X185120515Y-89248996D01*
X185371861Y-89199000D01*
X185628139Y-89199000D01*
X185879485Y-89248996D01*
X185879485Y-89248996D01*
G37*
G36*
X87494485Y-89248996D02*
X87494487Y-89248997D01*
X87494488Y-89248997D01*
X87731255Y-89347069D01*
X87944342Y-89489449D01*
X88125551Y-89670658D01*
X88267931Y-89883745D01*
X88366004Y-90120515D01*
X88416000Y-90371861D01*
X88416000Y-90628139D01*
X88366004Y-90879485D01*
X88267931Y-91116255D01*
X88125551Y-91329342D01*
X87944342Y-91510551D01*
X87944339Y-91510553D01*
X87731255Y-91652931D01*
X87494488Y-91751003D01*
X87494487Y-91751003D01*
X87494485Y-91751004D01*
X87243139Y-91801000D01*
X86986861Y-91801000D01*
X86735515Y-91751004D01*
X86735513Y-91751003D01*
X86735512Y-91751003D01*
X86498745Y-91652931D01*
X86285661Y-91510553D01*
X86285658Y-91510551D01*
X86104449Y-91329342D01*
X85962069Y-91116255D01*
X85863996Y-90879485D01*
X85814000Y-90628139D01*
X85814000Y-90371861D01*
X85863996Y-90120515D01*
X85962069Y-89883745D01*
X86104449Y-89670658D01*
X86285658Y-89489449D01*
X86498745Y-89347069D01*
X86735512Y-89248997D01*
X86735513Y-89248997D01*
X86735515Y-89248996D01*
X86986861Y-89199000D01*
X87243139Y-89199000D01*
X87494485Y-89248996D01*
X87494485Y-89248996D01*
G37*
G36*
X160526485Y-89248996D02*
X160526487Y-89248997D01*
X160526488Y-89248997D01*
X160763255Y-89347069D01*
X160976342Y-89489449D01*
X161157551Y-89670658D01*
X161299931Y-89883745D01*
X161398004Y-90120515D01*
X161448000Y-90371861D01*
X161448000Y-90628139D01*
X161398004Y-90879485D01*
X161299931Y-91116255D01*
X161157551Y-91329342D01*
X160976342Y-91510551D01*
X160976339Y-91510553D01*
X160763255Y-91652931D01*
X160526488Y-91751003D01*
X160526487Y-91751003D01*
X160526485Y-91751004D01*
X160275139Y-91801000D01*
X160018861Y-91801000D01*
X159767515Y-91751004D01*
X159767513Y-91751003D01*
X159767512Y-91751003D01*
X159530745Y-91652931D01*
X159317661Y-91510553D01*
X159317658Y-91510551D01*
X159136449Y-91329342D01*
X158994069Y-91116255D01*
X158895996Y-90879485D01*
X158846000Y-90628139D01*
X158846000Y-90371861D01*
X158895996Y-90120515D01*
X158994069Y-89883745D01*
X159136449Y-89670658D01*
X159317658Y-89489449D01*
X159530745Y-89347069D01*
X159767512Y-89248997D01*
X159767513Y-89248997D01*
X159767515Y-89248996D01*
X160018861Y-89199000D01*
X160275139Y-89199000D01*
X160526485Y-89248996D01*
X160526485Y-89248996D01*
G37*
G36*
X153026485Y-89248996D02*
X153026487Y-89248997D01*
X153026488Y-89248997D01*
X153263255Y-89347069D01*
X153476342Y-89489449D01*
X153657551Y-89670658D01*
X153799931Y-89883745D01*
X153898004Y-90120515D01*
X153948000Y-90371861D01*
X153948000Y-90628139D01*
X153898004Y-90879485D01*
X153799931Y-91116255D01*
X153657551Y-91329342D01*
X153476342Y-91510551D01*
X153476339Y-91510553D01*
X153263255Y-91652931D01*
X153026488Y-91751003D01*
X153026487Y-91751003D01*
X153026485Y-91751004D01*
X152775139Y-91801000D01*
X152518861Y-91801000D01*
X152267515Y-91751004D01*
X152267513Y-91751003D01*
X152267512Y-91751003D01*
X152030745Y-91652931D01*
X151817661Y-91510553D01*
X151817658Y-91510551D01*
X151636449Y-91329342D01*
X151494069Y-91116255D01*
X151395996Y-90879485D01*
X151346000Y-90628139D01*
X151346000Y-90371861D01*
X151395996Y-90120515D01*
X151494069Y-89883745D01*
X151636449Y-89670658D01*
X151817658Y-89489449D01*
X152030745Y-89347069D01*
X152267512Y-89248997D01*
X152267513Y-89248997D01*
X152267515Y-89248996D01*
X152518861Y-89199000D01*
X152775139Y-89199000D01*
X153026485Y-89248996D01*
X153026485Y-89248996D01*
G37*
G36*
X54379485Y-84248996D02*
X54379487Y-84248997D01*
X54379488Y-84248997D01*
X54616255Y-84347069D01*
X54829342Y-84489449D01*
X55010551Y-84670658D01*
X55152931Y-84883745D01*
X55251004Y-85120515D01*
X55301000Y-85371861D01*
X55301000Y-85628139D01*
X55251004Y-85879485D01*
X55152931Y-86116255D01*
X55010551Y-86329342D01*
X54829342Y-86510551D01*
X54829339Y-86510553D01*
X54616255Y-86652931D01*
X54379488Y-86751003D01*
X54379487Y-86751003D01*
X54379485Y-86751004D01*
X54128139Y-86801000D01*
X53871861Y-86801000D01*
X53620515Y-86751004D01*
X53620513Y-86751003D01*
X53620512Y-86751003D01*
X53383745Y-86652931D01*
X53170661Y-86510553D01*
X53170658Y-86510551D01*
X52989449Y-86329342D01*
X52847069Y-86116255D01*
X52748996Y-85879485D01*
X52699000Y-85628139D01*
X52699000Y-85371861D01*
X52748996Y-85120515D01*
X52847069Y-84883745D01*
X52989449Y-84670658D01*
X53170658Y-84489449D01*
X53383745Y-84347069D01*
X53620512Y-84248997D01*
X53620513Y-84248997D01*
X53620515Y-84248996D01*
X53871861Y-84199000D01*
X54128139Y-84199000D01*
X54379485Y-84248996D01*
X54379485Y-84248996D01*
G37*
G36*
X226379485Y-84248996D02*
X226379487Y-84248997D01*
X226379488Y-84248997D01*
X226616255Y-84347069D01*
X226829342Y-84489449D01*
X227010551Y-84670658D01*
X227152931Y-84883745D01*
X227251004Y-85120515D01*
X227301000Y-85371861D01*
X227301000Y-85628139D01*
X227251004Y-85879485D01*
X227152931Y-86116255D01*
X227010551Y-86329342D01*
X226829342Y-86510551D01*
X226829339Y-86510553D01*
X226616255Y-86652931D01*
X226379488Y-86751003D01*
X226379487Y-86751003D01*
X226379485Y-86751004D01*
X226128139Y-86801000D01*
X225871861Y-86801000D01*
X225620515Y-86751004D01*
X225620513Y-86751003D01*
X225620512Y-86751003D01*
X225383745Y-86652931D01*
X225170661Y-86510553D01*
X225170658Y-86510551D01*
X224989449Y-86329342D01*
X224847069Y-86116255D01*
X224748996Y-85879485D01*
X224699000Y-85628139D01*
X224699000Y-85371861D01*
X224748996Y-85120515D01*
X224847069Y-84883745D01*
X224989449Y-84670658D01*
X225170658Y-84489449D01*
X225383745Y-84347069D01*
X225620512Y-84248997D01*
X225620513Y-84248997D01*
X225620515Y-84248996D01*
X225871861Y-84199000D01*
X226128139Y-84199000D01*
X226379485Y-84248996D01*
X226379485Y-84248996D01*
G37*
G36*
X193379485Y-84248996D02*
X193379487Y-84248997D01*
X193379488Y-84248997D01*
X193616255Y-84347069D01*
X193829342Y-84489449D01*
X194010551Y-84670658D01*
X194152931Y-84883745D01*
X194251004Y-85120515D01*
X194301000Y-85371861D01*
X194301000Y-85628139D01*
X194251004Y-85879485D01*
X194152931Y-86116255D01*
X194010551Y-86329342D01*
X193829342Y-86510551D01*
X193829339Y-86510553D01*
X193616255Y-86652931D01*
X193379488Y-86751003D01*
X193379487Y-86751003D01*
X193379485Y-86751004D01*
X193128139Y-86801000D01*
X192871861Y-86801000D01*
X192620515Y-86751004D01*
X192620513Y-86751003D01*
X192620512Y-86751003D01*
X192383745Y-86652931D01*
X192170661Y-86510553D01*
X192170658Y-86510551D01*
X191989449Y-86329342D01*
X191847069Y-86116255D01*
X191748996Y-85879485D01*
X191699000Y-85628139D01*
X191699000Y-85371861D01*
X191748996Y-85120515D01*
X191847069Y-84883745D01*
X191989449Y-84670658D01*
X192170658Y-84489449D01*
X192383745Y-84347069D01*
X192620512Y-84248997D01*
X192620513Y-84248997D01*
X192620515Y-84248996D01*
X192871861Y-84199000D01*
X193128139Y-84199000D01*
X193379485Y-84248996D01*
X193379485Y-84248996D01*
G37*
G36*
X61879485Y-84248996D02*
X61879487Y-84248997D01*
X61879488Y-84248997D01*
X62116255Y-84347069D01*
X62329342Y-84489449D01*
X62510551Y-84670658D01*
X62652931Y-84883745D01*
X62751004Y-85120515D01*
X62801000Y-85371861D01*
X62801000Y-85628139D01*
X62751004Y-85879485D01*
X62652931Y-86116255D01*
X62510551Y-86329342D01*
X62329342Y-86510551D01*
X62329339Y-86510553D01*
X62116255Y-86652931D01*
X61879488Y-86751003D01*
X61879487Y-86751003D01*
X61879485Y-86751004D01*
X61628139Y-86801000D01*
X61371861Y-86801000D01*
X61120515Y-86751004D01*
X61120513Y-86751003D01*
X61120512Y-86751003D01*
X60883745Y-86652931D01*
X60670661Y-86510553D01*
X60670658Y-86510551D01*
X60489449Y-86329342D01*
X60347069Y-86116255D01*
X60248996Y-85879485D01*
X60199000Y-85628139D01*
X60199000Y-85371861D01*
X60248996Y-85120515D01*
X60347069Y-84883745D01*
X60489449Y-84670658D01*
X60670658Y-84489449D01*
X60883745Y-84347069D01*
X61120512Y-84248997D01*
X61120513Y-84248997D01*
X61120515Y-84248996D01*
X61371861Y-84199000D01*
X61628139Y-84199000D01*
X61879485Y-84248996D01*
X61879485Y-84248996D01*
G37*
G36*
X185879485Y-84248996D02*
X185879487Y-84248997D01*
X185879488Y-84248997D01*
X186116255Y-84347069D01*
X186329342Y-84489449D01*
X186510551Y-84670658D01*
X186652931Y-84883745D01*
X186751004Y-85120515D01*
X186801000Y-85371861D01*
X186801000Y-85628139D01*
X186751004Y-85879485D01*
X186652931Y-86116255D01*
X186510551Y-86329342D01*
X186329342Y-86510551D01*
X186329339Y-86510553D01*
X186116255Y-86652931D01*
X185879488Y-86751003D01*
X185879487Y-86751003D01*
X185879485Y-86751004D01*
X185628139Y-86801000D01*
X185371861Y-86801000D01*
X185120515Y-86751004D01*
X185120513Y-86751003D01*
X185120512Y-86751003D01*
X184883745Y-86652931D01*
X184670661Y-86510553D01*
X184670658Y-86510551D01*
X184489449Y-86329342D01*
X184347069Y-86116255D01*
X184248996Y-85879485D01*
X184199000Y-85628139D01*
X184199000Y-85371861D01*
X184248996Y-85120515D01*
X184347069Y-84883745D01*
X184489449Y-84670658D01*
X184670658Y-84489449D01*
X184883745Y-84347069D01*
X185120512Y-84248997D01*
X185120513Y-84248997D01*
X185120515Y-84248996D01*
X185371861Y-84199000D01*
X185628139Y-84199000D01*
X185879485Y-84248996D01*
X185879485Y-84248996D01*
G37*
G36*
X160526485Y-84248996D02*
X160526487Y-84248997D01*
X160526488Y-84248997D01*
X160763255Y-84347069D01*
X160976342Y-84489449D01*
X161157551Y-84670658D01*
X161299931Y-84883745D01*
X161398004Y-85120515D01*
X161448000Y-85371861D01*
X161448000Y-85628139D01*
X161398004Y-85879485D01*
X161299931Y-86116255D01*
X161157551Y-86329342D01*
X160976342Y-86510551D01*
X160976339Y-86510553D01*
X160763255Y-86652931D01*
X160526488Y-86751003D01*
X160526487Y-86751003D01*
X160526485Y-86751004D01*
X160275139Y-86801000D01*
X160018861Y-86801000D01*
X159767515Y-86751004D01*
X159767513Y-86751003D01*
X159767512Y-86751003D01*
X159530745Y-86652931D01*
X159317661Y-86510553D01*
X159317658Y-86510551D01*
X159136449Y-86329342D01*
X158994069Y-86116255D01*
X158895996Y-85879485D01*
X158846000Y-85628139D01*
X158846000Y-85371861D01*
X158895996Y-85120515D01*
X158994069Y-84883745D01*
X159136449Y-84670658D01*
X159317658Y-84489449D01*
X159530745Y-84347069D01*
X159767512Y-84248997D01*
X159767513Y-84248997D01*
X159767515Y-84248996D01*
X160018861Y-84199000D01*
X160275139Y-84199000D01*
X160526485Y-84248996D01*
X160526485Y-84248996D01*
G37*
G36*
X153026485Y-84248996D02*
X153026487Y-84248997D01*
X153026488Y-84248997D01*
X153263255Y-84347069D01*
X153476342Y-84489449D01*
X153657551Y-84670658D01*
X153799931Y-84883745D01*
X153898004Y-85120515D01*
X153948000Y-85371861D01*
X153948000Y-85628139D01*
X153898004Y-85879485D01*
X153799931Y-86116255D01*
X153657551Y-86329342D01*
X153476342Y-86510551D01*
X153476339Y-86510553D01*
X153263255Y-86652931D01*
X153026488Y-86751003D01*
X153026487Y-86751003D01*
X153026485Y-86751004D01*
X152775139Y-86801000D01*
X152518861Y-86801000D01*
X152267515Y-86751004D01*
X152267513Y-86751003D01*
X152267512Y-86751003D01*
X152030745Y-86652931D01*
X151817661Y-86510553D01*
X151817658Y-86510551D01*
X151636449Y-86329342D01*
X151494069Y-86116255D01*
X151395996Y-85879485D01*
X151346000Y-85628139D01*
X151346000Y-85371861D01*
X151395996Y-85120515D01*
X151494069Y-84883745D01*
X151636449Y-84670658D01*
X151817658Y-84489449D01*
X152030745Y-84347069D01*
X152267512Y-84248997D01*
X152267513Y-84248997D01*
X152267515Y-84248996D01*
X152518861Y-84199000D01*
X152775139Y-84199000D01*
X153026485Y-84248996D01*
X153026485Y-84248996D01*
G37*
G36*
X127379485Y-84248996D02*
X127379487Y-84248997D01*
X127379488Y-84248997D01*
X127616255Y-84347069D01*
X127829342Y-84489449D01*
X128010551Y-84670658D01*
X128152931Y-84883745D01*
X128251004Y-85120515D01*
X128301000Y-85371861D01*
X128301000Y-85628139D01*
X128251004Y-85879485D01*
X128152931Y-86116255D01*
X128010551Y-86329342D01*
X127829342Y-86510551D01*
X127829339Y-86510553D01*
X127616255Y-86652931D01*
X127379488Y-86751003D01*
X127379487Y-86751003D01*
X127379485Y-86751004D01*
X127128139Y-86801000D01*
X126871861Y-86801000D01*
X126620515Y-86751004D01*
X126620513Y-86751003D01*
X126620512Y-86751003D01*
X126383745Y-86652931D01*
X126170661Y-86510553D01*
X126170658Y-86510551D01*
X125989449Y-86329342D01*
X125847069Y-86116255D01*
X125748996Y-85879485D01*
X125699000Y-85628139D01*
X125699000Y-85371861D01*
X125748996Y-85120515D01*
X125847069Y-84883745D01*
X125989449Y-84670658D01*
X126170658Y-84489449D01*
X126383745Y-84347069D01*
X126620512Y-84248997D01*
X126620513Y-84248997D01*
X126620515Y-84248996D01*
X126871861Y-84199000D01*
X127128139Y-84199000D01*
X127379485Y-84248996D01*
X127379485Y-84248996D01*
G37*
G36*
X119879485Y-84248996D02*
X119879487Y-84248997D01*
X119879488Y-84248997D01*
X120116255Y-84347069D01*
X120329342Y-84489449D01*
X120510551Y-84670658D01*
X120652931Y-84883745D01*
X120751004Y-85120515D01*
X120801000Y-85371861D01*
X120801000Y-85628139D01*
X120751004Y-85879485D01*
X120652931Y-86116255D01*
X120510551Y-86329342D01*
X120329342Y-86510551D01*
X120329339Y-86510553D01*
X120116255Y-86652931D01*
X119879488Y-86751003D01*
X119879487Y-86751003D01*
X119879485Y-86751004D01*
X119628139Y-86801000D01*
X119371861Y-86801000D01*
X119120515Y-86751004D01*
X119120513Y-86751003D01*
X119120512Y-86751003D01*
X118883745Y-86652931D01*
X118670661Y-86510553D01*
X118670658Y-86510551D01*
X118489449Y-86329342D01*
X118347069Y-86116255D01*
X118248996Y-85879485D01*
X118199000Y-85628139D01*
X118199000Y-85371861D01*
X118248996Y-85120515D01*
X118347069Y-84883745D01*
X118489449Y-84670658D01*
X118670658Y-84489449D01*
X118883745Y-84347069D01*
X119120512Y-84248997D01*
X119120513Y-84248997D01*
X119120515Y-84248996D01*
X119371861Y-84199000D01*
X119628139Y-84199000D01*
X119879485Y-84248996D01*
X119879485Y-84248996D01*
G37*
G36*
X218879485Y-84248996D02*
X218879487Y-84248997D01*
X218879488Y-84248997D01*
X219116255Y-84347069D01*
X219329342Y-84489449D01*
X219510551Y-84670658D01*
X219652931Y-84883745D01*
X219751004Y-85120515D01*
X219801000Y-85371861D01*
X219801000Y-85628139D01*
X219751004Y-85879485D01*
X219652931Y-86116255D01*
X219510551Y-86329342D01*
X219329342Y-86510551D01*
X219329339Y-86510553D01*
X219116255Y-86652931D01*
X218879488Y-86751003D01*
X218879487Y-86751003D01*
X218879485Y-86751004D01*
X218628139Y-86801000D01*
X218371861Y-86801000D01*
X218120515Y-86751004D01*
X218120513Y-86751003D01*
X218120512Y-86751003D01*
X217883745Y-86652931D01*
X217670661Y-86510553D01*
X217670658Y-86510551D01*
X217489449Y-86329342D01*
X217347069Y-86116255D01*
X217248996Y-85879485D01*
X217199000Y-85628139D01*
X217199000Y-85371861D01*
X217248996Y-85120515D01*
X217347069Y-84883745D01*
X217489449Y-84670658D01*
X217670658Y-84489449D01*
X217883745Y-84347069D01*
X218120512Y-84248997D01*
X218120513Y-84248997D01*
X218120515Y-84248996D01*
X218371861Y-84199000D01*
X218628139Y-84199000D01*
X218879485Y-84248996D01*
X218879485Y-84248996D01*
G37*
G36*
X94994485Y-84248996D02*
X94994487Y-84248997D01*
X94994488Y-84248997D01*
X95231255Y-84347069D01*
X95444342Y-84489449D01*
X95625551Y-84670658D01*
X95767931Y-84883745D01*
X95866004Y-85120515D01*
X95916000Y-85371861D01*
X95916000Y-85628139D01*
X95866004Y-85879485D01*
X95767931Y-86116255D01*
X95625551Y-86329342D01*
X95444342Y-86510551D01*
X95444339Y-86510553D01*
X95231255Y-86652931D01*
X94994488Y-86751003D01*
X94994487Y-86751003D01*
X94994485Y-86751004D01*
X94743139Y-86801000D01*
X94486861Y-86801000D01*
X94235515Y-86751004D01*
X94235513Y-86751003D01*
X94235512Y-86751003D01*
X93998745Y-86652931D01*
X93785661Y-86510553D01*
X93785658Y-86510551D01*
X93604449Y-86329342D01*
X93462069Y-86116255D01*
X93363996Y-85879485D01*
X93314000Y-85628139D01*
X93314000Y-85371861D01*
X93363996Y-85120515D01*
X93462069Y-84883745D01*
X93604449Y-84670658D01*
X93785658Y-84489449D01*
X93998745Y-84347069D01*
X94235512Y-84248997D01*
X94235513Y-84248997D01*
X94235515Y-84248996D01*
X94486861Y-84199000D01*
X94743139Y-84199000D01*
X94994485Y-84248996D01*
X94994485Y-84248996D01*
G37*
G36*
X87494485Y-84248996D02*
X87494487Y-84248997D01*
X87494488Y-84248997D01*
X87731255Y-84347069D01*
X87944342Y-84489449D01*
X88125551Y-84670658D01*
X88267931Y-84883745D01*
X88366004Y-85120515D01*
X88416000Y-85371861D01*
X88416000Y-85628139D01*
X88366004Y-85879485D01*
X88267931Y-86116255D01*
X88125551Y-86329342D01*
X87944342Y-86510551D01*
X87944339Y-86510553D01*
X87731255Y-86652931D01*
X87494488Y-86751003D01*
X87494487Y-86751003D01*
X87494485Y-86751004D01*
X87243139Y-86801000D01*
X86986861Y-86801000D01*
X86735515Y-86751004D01*
X86735513Y-86751003D01*
X86735512Y-86751003D01*
X86498745Y-86652931D01*
X86285661Y-86510553D01*
X86285658Y-86510551D01*
X86104449Y-86329342D01*
X85962069Y-86116255D01*
X85863996Y-85879485D01*
X85814000Y-85628139D01*
X85814000Y-85371861D01*
X85863996Y-85120515D01*
X85962069Y-84883745D01*
X86104449Y-84670658D01*
X86285658Y-84489449D01*
X86498745Y-84347069D01*
X86735512Y-84248997D01*
X86735513Y-84248997D01*
X86735515Y-84248996D01*
X86986861Y-84199000D01*
X87243139Y-84199000D01*
X87494485Y-84248996D01*
X87494485Y-84248996D01*
G37*
G36*
X94994485Y-79248996D02*
X94994487Y-79248997D01*
X94994488Y-79248997D01*
X95231255Y-79347069D01*
X95444342Y-79489449D01*
X95625551Y-79670658D01*
X95767931Y-79883745D01*
X95866004Y-80120515D01*
X95916000Y-80371861D01*
X95916000Y-80628139D01*
X95866004Y-80879485D01*
X95767931Y-81116255D01*
X95625551Y-81329342D01*
X95444342Y-81510551D01*
X95444339Y-81510553D01*
X95231255Y-81652931D01*
X94994488Y-81751003D01*
X94994487Y-81751003D01*
X94994485Y-81751004D01*
X94743139Y-81801000D01*
X94486861Y-81801000D01*
X94235515Y-81751004D01*
X94235513Y-81751003D01*
X94235512Y-81751003D01*
X93998745Y-81652931D01*
X93785661Y-81510553D01*
X93785658Y-81510551D01*
X93604449Y-81329342D01*
X93462069Y-81116255D01*
X93363996Y-80879485D01*
X93314000Y-80628139D01*
X93314000Y-80371861D01*
X93363996Y-80120515D01*
X93462069Y-79883745D01*
X93604449Y-79670658D01*
X93785658Y-79489449D01*
X93998745Y-79347069D01*
X94235512Y-79248997D01*
X94235513Y-79248997D01*
X94235515Y-79248996D01*
X94486861Y-79199000D01*
X94743139Y-79199000D01*
X94994485Y-79248996D01*
X94994485Y-79248996D01*
G37*
G36*
X193379485Y-79248996D02*
X193379487Y-79248997D01*
X193379488Y-79248997D01*
X193616255Y-79347069D01*
X193829342Y-79489449D01*
X194010551Y-79670658D01*
X194152931Y-79883745D01*
X194251004Y-80120515D01*
X194301000Y-80371861D01*
X194301000Y-80628139D01*
X194251004Y-80879485D01*
X194152931Y-81116255D01*
X194010551Y-81329342D01*
X193829342Y-81510551D01*
X193829339Y-81510553D01*
X193616255Y-81652931D01*
X193379488Y-81751003D01*
X193379487Y-81751003D01*
X193379485Y-81751004D01*
X193128139Y-81801000D01*
X192871861Y-81801000D01*
X192620515Y-81751004D01*
X192620513Y-81751003D01*
X192620512Y-81751003D01*
X192383745Y-81652931D01*
X192170661Y-81510553D01*
X192170658Y-81510551D01*
X191989449Y-81329342D01*
X191847069Y-81116255D01*
X191748996Y-80879485D01*
X191699000Y-80628139D01*
X191699000Y-80371861D01*
X191748996Y-80120515D01*
X191847069Y-79883745D01*
X191989449Y-79670658D01*
X192170658Y-79489449D01*
X192383745Y-79347069D01*
X192620512Y-79248997D01*
X192620513Y-79248997D01*
X192620515Y-79248996D01*
X192871861Y-79199000D01*
X193128139Y-79199000D01*
X193379485Y-79248996D01*
X193379485Y-79248996D01*
G37*
G36*
X153026485Y-79248996D02*
X153026487Y-79248997D01*
X153026488Y-79248997D01*
X153263255Y-79347069D01*
X153476342Y-79489449D01*
X153657551Y-79670658D01*
X153799931Y-79883745D01*
X153898004Y-80120515D01*
X153948000Y-80371861D01*
X153948000Y-80628139D01*
X153898004Y-80879485D01*
X153799931Y-81116255D01*
X153657551Y-81329342D01*
X153476342Y-81510551D01*
X153476339Y-81510553D01*
X153263255Y-81652931D01*
X153026488Y-81751003D01*
X153026487Y-81751003D01*
X153026485Y-81751004D01*
X152775139Y-81801000D01*
X152518861Y-81801000D01*
X152267515Y-81751004D01*
X152267513Y-81751003D01*
X152267512Y-81751003D01*
X152030745Y-81652931D01*
X151817661Y-81510553D01*
X151817658Y-81510551D01*
X151636449Y-81329342D01*
X151494069Y-81116255D01*
X151395996Y-80879485D01*
X151346000Y-80628139D01*
X151346000Y-80371861D01*
X151395996Y-80120515D01*
X151494069Y-79883745D01*
X151636449Y-79670658D01*
X151817658Y-79489449D01*
X152030745Y-79347069D01*
X152267512Y-79248997D01*
X152267513Y-79248997D01*
X152267515Y-79248996D01*
X152518861Y-79199000D01*
X152775139Y-79199000D01*
X153026485Y-79248996D01*
X153026485Y-79248996D01*
G37*
G36*
X218879485Y-79248996D02*
X218879487Y-79248997D01*
X218879488Y-79248997D01*
X219116255Y-79347069D01*
X219329342Y-79489449D01*
X219510551Y-79670658D01*
X219652931Y-79883745D01*
X219751004Y-80120515D01*
X219801000Y-80371861D01*
X219801000Y-80628139D01*
X219751004Y-80879485D01*
X219652931Y-81116255D01*
X219510551Y-81329342D01*
X219329342Y-81510551D01*
X219329339Y-81510553D01*
X219116255Y-81652931D01*
X218879488Y-81751003D01*
X218879487Y-81751003D01*
X218879485Y-81751004D01*
X218628139Y-81801000D01*
X218371861Y-81801000D01*
X218120515Y-81751004D01*
X218120513Y-81751003D01*
X218120512Y-81751003D01*
X217883745Y-81652931D01*
X217670661Y-81510553D01*
X217670658Y-81510551D01*
X217489449Y-81329342D01*
X217347069Y-81116255D01*
X217248996Y-80879485D01*
X217199000Y-80628139D01*
X217199000Y-80371861D01*
X217248996Y-80120515D01*
X217347069Y-79883745D01*
X217489449Y-79670658D01*
X217670658Y-79489449D01*
X217883745Y-79347069D01*
X218120512Y-79248997D01*
X218120513Y-79248997D01*
X218120515Y-79248996D01*
X218371861Y-79199000D01*
X218628139Y-79199000D01*
X218879485Y-79248996D01*
X218879485Y-79248996D01*
G37*
G36*
X54379485Y-79248996D02*
X54379487Y-79248997D01*
X54379488Y-79248997D01*
X54616255Y-79347069D01*
X54829342Y-79489449D01*
X55010551Y-79670658D01*
X55152931Y-79883745D01*
X55251004Y-80120515D01*
X55301000Y-80371861D01*
X55301000Y-80628139D01*
X55251004Y-80879485D01*
X55152931Y-81116255D01*
X55010551Y-81329342D01*
X54829342Y-81510551D01*
X54829339Y-81510553D01*
X54616255Y-81652931D01*
X54379488Y-81751003D01*
X54379487Y-81751003D01*
X54379485Y-81751004D01*
X54128139Y-81801000D01*
X53871861Y-81801000D01*
X53620515Y-81751004D01*
X53620513Y-81751003D01*
X53620512Y-81751003D01*
X53383745Y-81652931D01*
X53170661Y-81510553D01*
X53170658Y-81510551D01*
X52989449Y-81329342D01*
X52847069Y-81116255D01*
X52748996Y-80879485D01*
X52699000Y-80628139D01*
X52699000Y-80371861D01*
X52748996Y-80120515D01*
X52847069Y-79883745D01*
X52989449Y-79670658D01*
X53170658Y-79489449D01*
X53383745Y-79347069D01*
X53620512Y-79248997D01*
X53620513Y-79248997D01*
X53620515Y-79248996D01*
X53871861Y-79199000D01*
X54128139Y-79199000D01*
X54379485Y-79248996D01*
X54379485Y-79248996D01*
G37*
G36*
X61879485Y-79248996D02*
X61879487Y-79248997D01*
X61879488Y-79248997D01*
X62116255Y-79347069D01*
X62329342Y-79489449D01*
X62510551Y-79670658D01*
X62652931Y-79883745D01*
X62751004Y-80120515D01*
X62801000Y-80371861D01*
X62801000Y-80628139D01*
X62751004Y-80879485D01*
X62652931Y-81116255D01*
X62510551Y-81329342D01*
X62329342Y-81510551D01*
X62329339Y-81510553D01*
X62116255Y-81652931D01*
X61879488Y-81751003D01*
X61879487Y-81751003D01*
X61879485Y-81751004D01*
X61628139Y-81801000D01*
X61371861Y-81801000D01*
X61120515Y-81751004D01*
X61120513Y-81751003D01*
X61120512Y-81751003D01*
X60883745Y-81652931D01*
X60670661Y-81510553D01*
X60670658Y-81510551D01*
X60489449Y-81329342D01*
X60347069Y-81116255D01*
X60248996Y-80879485D01*
X60199000Y-80628139D01*
X60199000Y-80371861D01*
X60248996Y-80120515D01*
X60347069Y-79883745D01*
X60489449Y-79670658D01*
X60670658Y-79489449D01*
X60883745Y-79347069D01*
X61120512Y-79248997D01*
X61120513Y-79248997D01*
X61120515Y-79248996D01*
X61371861Y-79199000D01*
X61628139Y-79199000D01*
X61879485Y-79248996D01*
X61879485Y-79248996D01*
G37*
G36*
X87494485Y-79248996D02*
X87494487Y-79248997D01*
X87494488Y-79248997D01*
X87731255Y-79347069D01*
X87944342Y-79489449D01*
X88125551Y-79670658D01*
X88267931Y-79883745D01*
X88366004Y-80120515D01*
X88416000Y-80371861D01*
X88416000Y-80628139D01*
X88366004Y-80879485D01*
X88267931Y-81116255D01*
X88125551Y-81329342D01*
X87944342Y-81510551D01*
X87944339Y-81510553D01*
X87731255Y-81652931D01*
X87494488Y-81751003D01*
X87494487Y-81751003D01*
X87494485Y-81751004D01*
X87243139Y-81801000D01*
X86986861Y-81801000D01*
X86735515Y-81751004D01*
X86735513Y-81751003D01*
X86735512Y-81751003D01*
X86498745Y-81652931D01*
X86285661Y-81510553D01*
X86285658Y-81510551D01*
X86104449Y-81329342D01*
X85962069Y-81116255D01*
X85863996Y-80879485D01*
X85814000Y-80628139D01*
X85814000Y-80371861D01*
X85863996Y-80120515D01*
X85962069Y-79883745D01*
X86104449Y-79670658D01*
X86285658Y-79489449D01*
X86498745Y-79347069D01*
X86735512Y-79248997D01*
X86735513Y-79248997D01*
X86735515Y-79248996D01*
X86986861Y-79199000D01*
X87243139Y-79199000D01*
X87494485Y-79248996D01*
X87494485Y-79248996D01*
G37*
G36*
X119879485Y-79248996D02*
X119879487Y-79248997D01*
X119879488Y-79248997D01*
X120116255Y-79347069D01*
X120329342Y-79489449D01*
X120510551Y-79670658D01*
X120652931Y-79883745D01*
X120751004Y-80120515D01*
X120801000Y-80371861D01*
X120801000Y-80628139D01*
X120751004Y-80879485D01*
X120652931Y-81116255D01*
X120510551Y-81329342D01*
X120329342Y-81510551D01*
X120329339Y-81510553D01*
X120116255Y-81652931D01*
X119879488Y-81751003D01*
X119879487Y-81751003D01*
X119879485Y-81751004D01*
X119628139Y-81801000D01*
X119371861Y-81801000D01*
X119120515Y-81751004D01*
X119120513Y-81751003D01*
X119120512Y-81751003D01*
X118883745Y-81652931D01*
X118670661Y-81510553D01*
X118670658Y-81510551D01*
X118489449Y-81329342D01*
X118347069Y-81116255D01*
X118248996Y-80879485D01*
X118199000Y-80628139D01*
X118199000Y-80371861D01*
X118248996Y-80120515D01*
X118347069Y-79883745D01*
X118489449Y-79670658D01*
X118670658Y-79489449D01*
X118883745Y-79347069D01*
X119120512Y-79248997D01*
X119120513Y-79248997D01*
X119120515Y-79248996D01*
X119371861Y-79199000D01*
X119628139Y-79199000D01*
X119879485Y-79248996D01*
X119879485Y-79248996D01*
G37*
G36*
X160526485Y-79248996D02*
X160526487Y-79248997D01*
X160526488Y-79248997D01*
X160763255Y-79347069D01*
X160976342Y-79489449D01*
X161157551Y-79670658D01*
X161299931Y-79883745D01*
X161398004Y-80120515D01*
X161448000Y-80371861D01*
X161448000Y-80628139D01*
X161398004Y-80879485D01*
X161299931Y-81116255D01*
X161157551Y-81329342D01*
X160976342Y-81510551D01*
X160976339Y-81510553D01*
X160763255Y-81652931D01*
X160526488Y-81751003D01*
X160526487Y-81751003D01*
X160526485Y-81751004D01*
X160275139Y-81801000D01*
X160018861Y-81801000D01*
X159767515Y-81751004D01*
X159767513Y-81751003D01*
X159767512Y-81751003D01*
X159530745Y-81652931D01*
X159317661Y-81510553D01*
X159317658Y-81510551D01*
X159136449Y-81329342D01*
X158994069Y-81116255D01*
X158895996Y-80879485D01*
X158846000Y-80628139D01*
X158846000Y-80371861D01*
X158895996Y-80120515D01*
X158994069Y-79883745D01*
X159136449Y-79670658D01*
X159317658Y-79489449D01*
X159530745Y-79347069D01*
X159767512Y-79248997D01*
X159767513Y-79248997D01*
X159767515Y-79248996D01*
X160018861Y-79199000D01*
X160275139Y-79199000D01*
X160526485Y-79248996D01*
X160526485Y-79248996D01*
G37*
G36*
X185879485Y-79248996D02*
X185879487Y-79248997D01*
X185879488Y-79248997D01*
X186116255Y-79347069D01*
X186329342Y-79489449D01*
X186510551Y-79670658D01*
X186652931Y-79883745D01*
X186751004Y-80120515D01*
X186801000Y-80371861D01*
X186801000Y-80628139D01*
X186751004Y-80879485D01*
X186652931Y-81116255D01*
X186510551Y-81329342D01*
X186329342Y-81510551D01*
X186329339Y-81510553D01*
X186116255Y-81652931D01*
X185879488Y-81751003D01*
X185879487Y-81751003D01*
X185879485Y-81751004D01*
X185628139Y-81801000D01*
X185371861Y-81801000D01*
X185120515Y-81751004D01*
X185120513Y-81751003D01*
X185120512Y-81751003D01*
X184883745Y-81652931D01*
X184670661Y-81510553D01*
X184670658Y-81510551D01*
X184489449Y-81329342D01*
X184347069Y-81116255D01*
X184248996Y-80879485D01*
X184199000Y-80628139D01*
X184199000Y-80371861D01*
X184248996Y-80120515D01*
X184347069Y-79883745D01*
X184489449Y-79670658D01*
X184670658Y-79489449D01*
X184883745Y-79347069D01*
X185120512Y-79248997D01*
X185120513Y-79248997D01*
X185120515Y-79248996D01*
X185371861Y-79199000D01*
X185628139Y-79199000D01*
X185879485Y-79248996D01*
X185879485Y-79248996D01*
G37*
G36*
X226379485Y-79248996D02*
X226379487Y-79248997D01*
X226379488Y-79248997D01*
X226616255Y-79347069D01*
X226829342Y-79489449D01*
X227010551Y-79670658D01*
X227152931Y-79883745D01*
X227251004Y-80120515D01*
X227301000Y-80371861D01*
X227301000Y-80628139D01*
X227251004Y-80879485D01*
X227152931Y-81116255D01*
X227010551Y-81329342D01*
X226829342Y-81510551D01*
X226829339Y-81510553D01*
X226616255Y-81652931D01*
X226379488Y-81751003D01*
X226379487Y-81751003D01*
X226379485Y-81751004D01*
X226128139Y-81801000D01*
X225871861Y-81801000D01*
X225620515Y-81751004D01*
X225620513Y-81751003D01*
X225620512Y-81751003D01*
X225383745Y-81652931D01*
X225170661Y-81510553D01*
X225170658Y-81510551D01*
X224989449Y-81329342D01*
X224847069Y-81116255D01*
X224748996Y-80879485D01*
X224699000Y-80628139D01*
X224699000Y-80371861D01*
X224748996Y-80120515D01*
X224847069Y-79883745D01*
X224989449Y-79670658D01*
X225170658Y-79489449D01*
X225383745Y-79347069D01*
X225620512Y-79248997D01*
X225620513Y-79248997D01*
X225620515Y-79248996D01*
X225871861Y-79199000D01*
X226128139Y-79199000D01*
X226379485Y-79248996D01*
X226379485Y-79248996D01*
G37*
G36*
X127379485Y-79248996D02*
X127379487Y-79248997D01*
X127379488Y-79248997D01*
X127616255Y-79347069D01*
X127829342Y-79489449D01*
X128010551Y-79670658D01*
X128152931Y-79883745D01*
X128251004Y-80120515D01*
X128301000Y-80371861D01*
X128301000Y-80628139D01*
X128251004Y-80879485D01*
X128152931Y-81116255D01*
X128010551Y-81329342D01*
X127829342Y-81510551D01*
X127829339Y-81510553D01*
X127616255Y-81652931D01*
X127379488Y-81751003D01*
X127379487Y-81751003D01*
X127379485Y-81751004D01*
X127128139Y-81801000D01*
X126871861Y-81801000D01*
X126620515Y-81751004D01*
X126620513Y-81751003D01*
X126620512Y-81751003D01*
X126383745Y-81652931D01*
X126170661Y-81510553D01*
X126170658Y-81510551D01*
X125989449Y-81329342D01*
X125847069Y-81116255D01*
X125748996Y-80879485D01*
X125699000Y-80628139D01*
X125699000Y-80371861D01*
X125748996Y-80120515D01*
X125847069Y-79883745D01*
X125989449Y-79670658D01*
X126170658Y-79489449D01*
X126383745Y-79347069D01*
X126620512Y-79248997D01*
X126620513Y-79248997D01*
X126620515Y-79248996D01*
X126871861Y-79199000D01*
X127128139Y-79199000D01*
X127379485Y-79248996D01*
X127379485Y-79248996D01*
G37*
G36*
X184002485Y-73162996D02*
X184002487Y-73162997D01*
X184002488Y-73162997D01*
X184239255Y-73261069D01*
X184452342Y-73403449D01*
X184633551Y-73584658D01*
X184775931Y-73797745D01*
X184874004Y-74034515D01*
X184924000Y-74285861D01*
X184924000Y-74542139D01*
X184874004Y-74793485D01*
X184775931Y-75030255D01*
X184633551Y-75243342D01*
X184452342Y-75424551D01*
X184452339Y-75424553D01*
X184239255Y-75566931D01*
X184002488Y-75665003D01*
X184002487Y-75665003D01*
X184002485Y-75665004D01*
X183751139Y-75715000D01*
X183494861Y-75715000D01*
X183243515Y-75665004D01*
X183243513Y-75665003D01*
X183243512Y-75665003D01*
X183006745Y-75566931D01*
X182793661Y-75424553D01*
X182793658Y-75424551D01*
X182612449Y-75243342D01*
X182470069Y-75030255D01*
X182371996Y-74793485D01*
X182322000Y-74542139D01*
X182322000Y-74285861D01*
X182371996Y-74034515D01*
X182470069Y-73797745D01*
X182612449Y-73584658D01*
X182793658Y-73403449D01*
X183006745Y-73261069D01*
X183243512Y-73162997D01*
X183243513Y-73162997D01*
X183243515Y-73162996D01*
X183494861Y-73113000D01*
X183751139Y-73113000D01*
X184002485Y-73162996D01*
X184002485Y-73162996D01*
G37*
G36*
X159002485Y-73162996D02*
X159002487Y-73162997D01*
X159002488Y-73162997D01*
X159239255Y-73261069D01*
X159452342Y-73403449D01*
X159633551Y-73584658D01*
X159775931Y-73797745D01*
X159874004Y-74034515D01*
X159924000Y-74285861D01*
X159924000Y-74542139D01*
X159874004Y-74793485D01*
X159775931Y-75030255D01*
X159633551Y-75243342D01*
X159452342Y-75424551D01*
X159452339Y-75424553D01*
X159239255Y-75566931D01*
X159002488Y-75665003D01*
X159002487Y-75665003D01*
X159002485Y-75665004D01*
X158751139Y-75715000D01*
X158494861Y-75715000D01*
X158243515Y-75665004D01*
X158243513Y-75665003D01*
X158243512Y-75665003D01*
X158006745Y-75566931D01*
X157793661Y-75424553D01*
X157793658Y-75424551D01*
X157612449Y-75243342D01*
X157470069Y-75030255D01*
X157371996Y-74793485D01*
X157322000Y-74542139D01*
X157322000Y-74285861D01*
X157371996Y-74034515D01*
X157470069Y-73797745D01*
X157612449Y-73584658D01*
X157793658Y-73403449D01*
X158006745Y-73261069D01*
X158243512Y-73162997D01*
X158243513Y-73162997D01*
X158243515Y-73162996D01*
X158494861Y-73113000D01*
X158751139Y-73113000D01*
X159002485Y-73162996D01*
X159002485Y-73162996D01*
G37*
G36*
X174002485Y-73162996D02*
X174002487Y-73162997D01*
X174002488Y-73162997D01*
X174239255Y-73261069D01*
X174452342Y-73403449D01*
X174633551Y-73584658D01*
X174775931Y-73797745D01*
X174874004Y-74034515D01*
X174924000Y-74285861D01*
X174924000Y-74542139D01*
X174874004Y-74793485D01*
X174775931Y-75030255D01*
X174633551Y-75243342D01*
X174452342Y-75424551D01*
X174452339Y-75424553D01*
X174239255Y-75566931D01*
X174002488Y-75665003D01*
X174002487Y-75665003D01*
X174002485Y-75665004D01*
X173751139Y-75715000D01*
X173494861Y-75715000D01*
X173243515Y-75665004D01*
X173243513Y-75665003D01*
X173243512Y-75665003D01*
X173006745Y-75566931D01*
X172793661Y-75424553D01*
X172793658Y-75424551D01*
X172612449Y-75243342D01*
X172470069Y-75030255D01*
X172371996Y-74793485D01*
X172322000Y-74542139D01*
X172322000Y-74285861D01*
X172371996Y-74034515D01*
X172470069Y-73797745D01*
X172612449Y-73584658D01*
X172793658Y-73403449D01*
X173006745Y-73261069D01*
X173243512Y-73162997D01*
X173243513Y-73162997D01*
X173243515Y-73162996D01*
X173494861Y-73113000D01*
X173751139Y-73113000D01*
X174002485Y-73162996D01*
X174002485Y-73162996D01*
G37*
G36*
X189482485Y-73162996D02*
X189482487Y-73162997D01*
X189482488Y-73162997D01*
X189719255Y-73261069D01*
X189932342Y-73403449D01*
X190113551Y-73584658D01*
X190255931Y-73797745D01*
X190354004Y-74034515D01*
X190404000Y-74285861D01*
X190404000Y-74542139D01*
X190354004Y-74793485D01*
X190255931Y-75030255D01*
X190113551Y-75243342D01*
X189932342Y-75424551D01*
X189932339Y-75424553D01*
X189719255Y-75566931D01*
X189482488Y-75665003D01*
X189482487Y-75665003D01*
X189482485Y-75665004D01*
X189231139Y-75715000D01*
X188974861Y-75715000D01*
X188723515Y-75665004D01*
X188723513Y-75665003D01*
X188723512Y-75665003D01*
X188486745Y-75566931D01*
X188273661Y-75424553D01*
X188273658Y-75424551D01*
X188092449Y-75243342D01*
X187950069Y-75030255D01*
X187851996Y-74793485D01*
X187802000Y-74542139D01*
X187802000Y-74285861D01*
X187851996Y-74034515D01*
X187950069Y-73797745D01*
X188092449Y-73584658D01*
X188273658Y-73403449D01*
X188486745Y-73261069D01*
X188723512Y-73162997D01*
X188723513Y-73162997D01*
X188723515Y-73162996D01*
X188974861Y-73113000D01*
X189231139Y-73113000D01*
X189482485Y-73162996D01*
X189482485Y-73162996D01*
G37*
G36*
X209482485Y-73162996D02*
X209482487Y-73162997D01*
X209482488Y-73162997D01*
X209719255Y-73261069D01*
X209932342Y-73403449D01*
X210113551Y-73584658D01*
X210255931Y-73797745D01*
X210354004Y-74034515D01*
X210404000Y-74285861D01*
X210404000Y-74542139D01*
X210354004Y-74793485D01*
X210255931Y-75030255D01*
X210113551Y-75243342D01*
X209932342Y-75424551D01*
X209932339Y-75424553D01*
X209719255Y-75566931D01*
X209482488Y-75665003D01*
X209482487Y-75665003D01*
X209482485Y-75665004D01*
X209231139Y-75715000D01*
X208974861Y-75715000D01*
X208723515Y-75665004D01*
X208723513Y-75665003D01*
X208723512Y-75665003D01*
X208486745Y-75566931D01*
X208273661Y-75424553D01*
X208273658Y-75424551D01*
X208092449Y-75243342D01*
X207950069Y-75030255D01*
X207851996Y-74793485D01*
X207802000Y-74542139D01*
X207802000Y-74285861D01*
X207851996Y-74034515D01*
X207950069Y-73797745D01*
X208092449Y-73584658D01*
X208273658Y-73403449D01*
X208486745Y-73261069D01*
X208723512Y-73162997D01*
X208723513Y-73162997D01*
X208723515Y-73162996D01*
X208974861Y-73113000D01*
X209231139Y-73113000D01*
X209482485Y-73162996D01*
X209482485Y-73162996D01*
G37*
G36*
X214482485Y-73162996D02*
X214482487Y-73162997D01*
X214482488Y-73162997D01*
X214719255Y-73261069D01*
X214932342Y-73403449D01*
X215113551Y-73584658D01*
X215255931Y-73797745D01*
X215354004Y-74034515D01*
X215404000Y-74285861D01*
X215404000Y-74542139D01*
X215354004Y-74793485D01*
X215255931Y-75030255D01*
X215113551Y-75243342D01*
X214932342Y-75424551D01*
X214932339Y-75424553D01*
X214719255Y-75566931D01*
X214482488Y-75665003D01*
X214482487Y-75665003D01*
X214482485Y-75665004D01*
X214231139Y-75715000D01*
X213974861Y-75715000D01*
X213723515Y-75665004D01*
X213723513Y-75665003D01*
X213723512Y-75665003D01*
X213486745Y-75566931D01*
X213273661Y-75424553D01*
X213273658Y-75424551D01*
X213092449Y-75243342D01*
X212950069Y-75030255D01*
X212851996Y-74793485D01*
X212802000Y-74542139D01*
X212802000Y-74285861D01*
X212851996Y-74034515D01*
X212950069Y-73797745D01*
X213092449Y-73584658D01*
X213273658Y-73403449D01*
X213486745Y-73261069D01*
X213723512Y-73162997D01*
X213723513Y-73162997D01*
X213723515Y-73162996D01*
X213974861Y-73113000D01*
X214231139Y-73113000D01*
X214482485Y-73162996D01*
X214482485Y-73162996D01*
G37*
G36*
X179002485Y-73162996D02*
X179002487Y-73162997D01*
X179002488Y-73162997D01*
X179239255Y-73261069D01*
X179452342Y-73403449D01*
X179633551Y-73584658D01*
X179775931Y-73797745D01*
X179874004Y-74034515D01*
X179924000Y-74285861D01*
X179924000Y-74542139D01*
X179874004Y-74793485D01*
X179775931Y-75030255D01*
X179633551Y-75243342D01*
X179452342Y-75424551D01*
X179452339Y-75424553D01*
X179239255Y-75566931D01*
X179002488Y-75665003D01*
X179002487Y-75665003D01*
X179002485Y-75665004D01*
X178751139Y-75715000D01*
X178494861Y-75715000D01*
X178243515Y-75665004D01*
X178243513Y-75665003D01*
X178243512Y-75665003D01*
X178006745Y-75566931D01*
X177793661Y-75424553D01*
X177793658Y-75424551D01*
X177612449Y-75243342D01*
X177470069Y-75030255D01*
X177371996Y-74793485D01*
X177322000Y-74542139D01*
X177322000Y-74285861D01*
X177371996Y-74034515D01*
X177470069Y-73797745D01*
X177612449Y-73584658D01*
X177793658Y-73403449D01*
X178006745Y-73261069D01*
X178243512Y-73162997D01*
X178243513Y-73162997D01*
X178243515Y-73162996D01*
X178494861Y-73113000D01*
X178751139Y-73113000D01*
X179002485Y-73162996D01*
X179002485Y-73162996D01*
G37*
G36*
X204482485Y-73162996D02*
X204482487Y-73162997D01*
X204482488Y-73162997D01*
X204719255Y-73261069D01*
X204932342Y-73403449D01*
X205113551Y-73584658D01*
X205255931Y-73797745D01*
X205354004Y-74034515D01*
X205404000Y-74285861D01*
X205404000Y-74542139D01*
X205354004Y-74793485D01*
X205255931Y-75030255D01*
X205113551Y-75243342D01*
X204932342Y-75424551D01*
X204932339Y-75424553D01*
X204719255Y-75566931D01*
X204482488Y-75665003D01*
X204482487Y-75665003D01*
X204482485Y-75665004D01*
X204231139Y-75715000D01*
X203974861Y-75715000D01*
X203723515Y-75665004D01*
X203723513Y-75665003D01*
X203723512Y-75665003D01*
X203486745Y-75566931D01*
X203273661Y-75424553D01*
X203273658Y-75424551D01*
X203092449Y-75243342D01*
X202950069Y-75030255D01*
X202851996Y-74793485D01*
X202802000Y-74542139D01*
X202802000Y-74285861D01*
X202851996Y-74034515D01*
X202950069Y-73797745D01*
X203092449Y-73584658D01*
X203273658Y-73403449D01*
X203486745Y-73261069D01*
X203723512Y-73162997D01*
X203723513Y-73162997D01*
X203723515Y-73162996D01*
X203974861Y-73113000D01*
X204231139Y-73113000D01*
X204482485Y-73162996D01*
X204482485Y-73162996D01*
G37*
G36*
X85342485Y-73035996D02*
X85342487Y-73035997D01*
X85342488Y-73035997D01*
X85528390Y-73113000D01*
X85579255Y-73134069D01*
X85792342Y-73276449D01*
X85973551Y-73457658D01*
X86115931Y-73670745D01*
X86214004Y-73907515D01*
X86264000Y-74158861D01*
X86264000Y-74415139D01*
X86214004Y-74666485D01*
X86115931Y-74903255D01*
X85973551Y-75116342D01*
X85792342Y-75297551D01*
X85792339Y-75297553D01*
X85579255Y-75439931D01*
X85342488Y-75538003D01*
X85342487Y-75538003D01*
X85342485Y-75538004D01*
X85091139Y-75588000D01*
X84834861Y-75588000D01*
X84583515Y-75538004D01*
X84583513Y-75538003D01*
X84583512Y-75538003D01*
X84346745Y-75439931D01*
X84133661Y-75297553D01*
X84133658Y-75297551D01*
X83952449Y-75116342D01*
X83810069Y-74903255D01*
X83711996Y-74666485D01*
X83662000Y-74415139D01*
X83662000Y-74158861D01*
X83711996Y-73907515D01*
X83810069Y-73670745D01*
X83952449Y-73457658D01*
X84133658Y-73276449D01*
X84346745Y-73134069D01*
X84397610Y-73113000D01*
X84583512Y-73035997D01*
X84583513Y-73035997D01*
X84583515Y-73035996D01*
X84834861Y-72986000D01*
X85091139Y-72986000D01*
X85342485Y-73035996D01*
X85342485Y-73035996D01*
G37*
G36*
X235851485Y-73035996D02*
X235851487Y-73035997D01*
X235851488Y-73035997D01*
X236037390Y-73113000D01*
X236088255Y-73134069D01*
X236301342Y-73276449D01*
X236482551Y-73457658D01*
X236624931Y-73670745D01*
X236723004Y-73907515D01*
X236773000Y-74158861D01*
X236773000Y-74415139D01*
X236723004Y-74666485D01*
X236624931Y-74903255D01*
X236482551Y-75116342D01*
X236301342Y-75297551D01*
X236301339Y-75297553D01*
X236088255Y-75439931D01*
X235851488Y-75538003D01*
X235851487Y-75538003D01*
X235851485Y-75538004D01*
X235600139Y-75588000D01*
X235343861Y-75588000D01*
X235092515Y-75538004D01*
X235092513Y-75538003D01*
X235092512Y-75538003D01*
X234855745Y-75439931D01*
X234642661Y-75297553D01*
X234642658Y-75297551D01*
X234461449Y-75116342D01*
X234319069Y-74903255D01*
X234220996Y-74666485D01*
X234171000Y-74415139D01*
X234171000Y-74158861D01*
X234220996Y-73907515D01*
X234319069Y-73670745D01*
X234461449Y-73457658D01*
X234642658Y-73276449D01*
X234855745Y-73134069D01*
X234906610Y-73113000D01*
X235092512Y-73035997D01*
X235092513Y-73035997D01*
X235092515Y-73035996D01*
X235343861Y-72986000D01*
X235600139Y-72986000D01*
X235851485Y-73035996D01*
X235851485Y-73035996D01*
G37*
G36*
X75370485Y-73035996D02*
X75370487Y-73035997D01*
X75370488Y-73035997D01*
X75556390Y-73113000D01*
X75607255Y-73134069D01*
X75820342Y-73276449D01*
X76001551Y-73457658D01*
X76143931Y-73670745D01*
X76242004Y-73907515D01*
X76292000Y-74158861D01*
X76292000Y-74415139D01*
X76242004Y-74666485D01*
X76143931Y-74903255D01*
X76001551Y-75116342D01*
X75820342Y-75297551D01*
X75820339Y-75297553D01*
X75607255Y-75439931D01*
X75370488Y-75538003D01*
X75370487Y-75538003D01*
X75370485Y-75538004D01*
X75119139Y-75588000D01*
X74862861Y-75588000D01*
X74611515Y-75538004D01*
X74611513Y-75538003D01*
X74611512Y-75538003D01*
X74374745Y-75439931D01*
X74161661Y-75297553D01*
X74161658Y-75297551D01*
X73980449Y-75116342D01*
X73838069Y-74903255D01*
X73739996Y-74666485D01*
X73690000Y-74415139D01*
X73690000Y-74158861D01*
X73739996Y-73907515D01*
X73838069Y-73670745D01*
X73980449Y-73457658D01*
X74161658Y-73276449D01*
X74374745Y-73134069D01*
X74425610Y-73113000D01*
X74611512Y-73035997D01*
X74611513Y-73035997D01*
X74611515Y-73035996D01*
X74862861Y-72986000D01*
X75119139Y-72986000D01*
X75370485Y-73035996D01*
X75370485Y-73035996D01*
G37*
G36*
X110342485Y-73035996D02*
X110342487Y-73035997D01*
X110342488Y-73035997D01*
X110528390Y-73113000D01*
X110579255Y-73134069D01*
X110792342Y-73276449D01*
X110973551Y-73457658D01*
X111115931Y-73670745D01*
X111214004Y-73907515D01*
X111264000Y-74158861D01*
X111264000Y-74415139D01*
X111214004Y-74666485D01*
X111115931Y-74903255D01*
X110973551Y-75116342D01*
X110792342Y-75297551D01*
X110792339Y-75297553D01*
X110579255Y-75439931D01*
X110342488Y-75538003D01*
X110342487Y-75538003D01*
X110342485Y-75538004D01*
X110091139Y-75588000D01*
X109834861Y-75588000D01*
X109583515Y-75538004D01*
X109583513Y-75538003D01*
X109583512Y-75538003D01*
X109346745Y-75439931D01*
X109133661Y-75297553D01*
X109133658Y-75297551D01*
X108952449Y-75116342D01*
X108810069Y-74903255D01*
X108711996Y-74666485D01*
X108662000Y-74415139D01*
X108662000Y-74158861D01*
X108711996Y-73907515D01*
X108810069Y-73670745D01*
X108952449Y-73457658D01*
X109133658Y-73276449D01*
X109346745Y-73134069D01*
X109397610Y-73113000D01*
X109583512Y-73035997D01*
X109583513Y-73035997D01*
X109583515Y-73035996D01*
X109834861Y-72986000D01*
X110091139Y-72986000D01*
X110342485Y-73035996D01*
X110342485Y-73035996D01*
G37*
G36*
X130568485Y-73035996D02*
X130568487Y-73035997D01*
X130568488Y-73035997D01*
X130754390Y-73113000D01*
X130805255Y-73134069D01*
X131018342Y-73276449D01*
X131199551Y-73457658D01*
X131341931Y-73670745D01*
X131440004Y-73907515D01*
X131490000Y-74158861D01*
X131490000Y-74415139D01*
X131440004Y-74666485D01*
X131341931Y-74903255D01*
X131199551Y-75116342D01*
X131018342Y-75297551D01*
X131018339Y-75297553D01*
X130805255Y-75439931D01*
X130568488Y-75538003D01*
X130568487Y-75538003D01*
X130568485Y-75538004D01*
X130317139Y-75588000D01*
X130060861Y-75588000D01*
X129809515Y-75538004D01*
X129809513Y-75538003D01*
X129809512Y-75538003D01*
X129572745Y-75439931D01*
X129359661Y-75297553D01*
X129359658Y-75297551D01*
X129178449Y-75116342D01*
X129036069Y-74903255D01*
X128937996Y-74666485D01*
X128888000Y-74415139D01*
X128888000Y-74158861D01*
X128937996Y-73907515D01*
X129036069Y-73670745D01*
X129178449Y-73457658D01*
X129359658Y-73276449D01*
X129572745Y-73134069D01*
X129623610Y-73113000D01*
X129809512Y-73035997D01*
X129809513Y-73035997D01*
X129809515Y-73035996D01*
X130060861Y-72986000D01*
X130317139Y-72986000D01*
X130568485Y-73035996D01*
X130568485Y-73035996D01*
G37*
G36*
X135568485Y-73035996D02*
X135568487Y-73035997D01*
X135568488Y-73035997D01*
X135754390Y-73113000D01*
X135805255Y-73134069D01*
X136018342Y-73276449D01*
X136199551Y-73457658D01*
X136341931Y-73670745D01*
X136440004Y-73907515D01*
X136490000Y-74158861D01*
X136490000Y-74415139D01*
X136440004Y-74666485D01*
X136341931Y-74903255D01*
X136199551Y-75116342D01*
X136018342Y-75297551D01*
X136018339Y-75297553D01*
X135805255Y-75439931D01*
X135568488Y-75538003D01*
X135568487Y-75538003D01*
X135568485Y-75538004D01*
X135317139Y-75588000D01*
X135060861Y-75588000D01*
X134809515Y-75538004D01*
X134809513Y-75538003D01*
X134809512Y-75538003D01*
X134572745Y-75439931D01*
X134359661Y-75297553D01*
X134359658Y-75297551D01*
X134178449Y-75116342D01*
X134036069Y-74903255D01*
X133937996Y-74666485D01*
X133888000Y-74415139D01*
X133888000Y-74158861D01*
X133937996Y-73907515D01*
X134036069Y-73670745D01*
X134178449Y-73457658D01*
X134359658Y-73276449D01*
X134572745Y-73134069D01*
X134623610Y-73113000D01*
X134809512Y-73035997D01*
X134809513Y-73035997D01*
X134809515Y-73035996D01*
X135060861Y-72986000D01*
X135317139Y-72986000D01*
X135568485Y-73035996D01*
X135568485Y-73035996D01*
G37*
G36*
X105342485Y-73035996D02*
X105342487Y-73035997D01*
X105342488Y-73035997D01*
X105528390Y-73113000D01*
X105579255Y-73134069D01*
X105792342Y-73276449D01*
X105973551Y-73457658D01*
X106115931Y-73670745D01*
X106214004Y-73907515D01*
X106264000Y-74158861D01*
X106264000Y-74415139D01*
X106214004Y-74666485D01*
X106115931Y-74903255D01*
X105973551Y-75116342D01*
X105792342Y-75297551D01*
X105792339Y-75297553D01*
X105579255Y-75439931D01*
X105342488Y-75538003D01*
X105342487Y-75538003D01*
X105342485Y-75538004D01*
X105091139Y-75588000D01*
X104834861Y-75588000D01*
X104583515Y-75538004D01*
X104583513Y-75538003D01*
X104583512Y-75538003D01*
X104346745Y-75439931D01*
X104133661Y-75297553D01*
X104133658Y-75297551D01*
X103952449Y-75116342D01*
X103810069Y-74903255D01*
X103711996Y-74666485D01*
X103662000Y-74415139D01*
X103662000Y-74158861D01*
X103711996Y-73907515D01*
X103810069Y-73670745D01*
X103952449Y-73457658D01*
X104133658Y-73276449D01*
X104346745Y-73134069D01*
X104397610Y-73113000D01*
X104583512Y-73035997D01*
X104583513Y-73035997D01*
X104583515Y-73035996D01*
X104834861Y-72986000D01*
X105091139Y-72986000D01*
X105342485Y-73035996D01*
X105342485Y-73035996D01*
G37*
G36*
X100342485Y-73035996D02*
X100342487Y-73035997D01*
X100342488Y-73035997D01*
X100528390Y-73113000D01*
X100579255Y-73134069D01*
X100792342Y-73276449D01*
X100973551Y-73457658D01*
X101115931Y-73670745D01*
X101214004Y-73907515D01*
X101264000Y-74158861D01*
X101264000Y-74415139D01*
X101214004Y-74666485D01*
X101115931Y-74903255D01*
X100973551Y-75116342D01*
X100792342Y-75297551D01*
X100792339Y-75297553D01*
X100579255Y-75439931D01*
X100342488Y-75538003D01*
X100342487Y-75538003D01*
X100342485Y-75538004D01*
X100091139Y-75588000D01*
X99834861Y-75588000D01*
X99583515Y-75538004D01*
X99583513Y-75538003D01*
X99583512Y-75538003D01*
X99346745Y-75439931D01*
X99133661Y-75297553D01*
X99133658Y-75297551D01*
X98952449Y-75116342D01*
X98810069Y-74903255D01*
X98711996Y-74666485D01*
X98662000Y-74415139D01*
X98662000Y-74158861D01*
X98711996Y-73907515D01*
X98810069Y-73670745D01*
X98952449Y-73457658D01*
X99133658Y-73276449D01*
X99346745Y-73134069D01*
X99397610Y-73113000D01*
X99583512Y-73035997D01*
X99583513Y-73035997D01*
X99583515Y-73035996D01*
X99834861Y-72986000D01*
X100091139Y-72986000D01*
X100342485Y-73035996D01*
X100342485Y-73035996D01*
G37*
G36*
X240851485Y-73035996D02*
X240851487Y-73035997D01*
X240851488Y-73035997D01*
X241037390Y-73113000D01*
X241088255Y-73134069D01*
X241301342Y-73276449D01*
X241482551Y-73457658D01*
X241624931Y-73670745D01*
X241723004Y-73907515D01*
X241773000Y-74158861D01*
X241773000Y-74415139D01*
X241723004Y-74666485D01*
X241624931Y-74903255D01*
X241482551Y-75116342D01*
X241301342Y-75297551D01*
X241301339Y-75297553D01*
X241088255Y-75439931D01*
X240851488Y-75538003D01*
X240851487Y-75538003D01*
X240851485Y-75538004D01*
X240600139Y-75588000D01*
X240343861Y-75588000D01*
X240092515Y-75538004D01*
X240092513Y-75538003D01*
X240092512Y-75538003D01*
X239855745Y-75439931D01*
X239642661Y-75297553D01*
X239642658Y-75297551D01*
X239461449Y-75116342D01*
X239319069Y-74903255D01*
X239220996Y-74666485D01*
X239171000Y-74415139D01*
X239171000Y-74158861D01*
X239220996Y-73907515D01*
X239319069Y-73670745D01*
X239461449Y-73457658D01*
X239642658Y-73276449D01*
X239855745Y-73134069D01*
X239906610Y-73113000D01*
X240092512Y-73035997D01*
X240092513Y-73035997D01*
X240092515Y-73035996D01*
X240343861Y-72986000D01*
X240600139Y-72986000D01*
X240851485Y-73035996D01*
X240851485Y-73035996D01*
G37*
G36*
X140568485Y-73035996D02*
X140568487Y-73035997D01*
X140568488Y-73035997D01*
X140754390Y-73113000D01*
X140805255Y-73134069D01*
X141018342Y-73276449D01*
X141199551Y-73457658D01*
X141341931Y-73670745D01*
X141440004Y-73907515D01*
X141490000Y-74158861D01*
X141490000Y-74415139D01*
X141440004Y-74666485D01*
X141341931Y-74903255D01*
X141199551Y-75116342D01*
X141018342Y-75297551D01*
X141018339Y-75297553D01*
X140805255Y-75439931D01*
X140568488Y-75538003D01*
X140568487Y-75538003D01*
X140568485Y-75538004D01*
X140317139Y-75588000D01*
X140060861Y-75588000D01*
X139809515Y-75538004D01*
X139809513Y-75538003D01*
X139809512Y-75538003D01*
X139572745Y-75439931D01*
X139359661Y-75297553D01*
X139359658Y-75297551D01*
X139178449Y-75116342D01*
X139036069Y-74903255D01*
X138937996Y-74666485D01*
X138888000Y-74415139D01*
X138888000Y-74158861D01*
X138937996Y-73907515D01*
X139036069Y-73670745D01*
X139178449Y-73457658D01*
X139359658Y-73276449D01*
X139572745Y-73134069D01*
X139623610Y-73113000D01*
X139809512Y-73035997D01*
X139809513Y-73035997D01*
X139809515Y-73035996D01*
X140060861Y-72986000D01*
X140317139Y-72986000D01*
X140568485Y-73035996D01*
X140568485Y-73035996D01*
G37*
G36*
X220851485Y-73035996D02*
X220851487Y-73035997D01*
X220851488Y-73035997D01*
X221037390Y-73113000D01*
X221088255Y-73134069D01*
X221301342Y-73276449D01*
X221482551Y-73457658D01*
X221624931Y-73670745D01*
X221723004Y-73907515D01*
X221773000Y-74158861D01*
X221773000Y-74415139D01*
X221723004Y-74666485D01*
X221624931Y-74903255D01*
X221482551Y-75116342D01*
X221301342Y-75297551D01*
X221301339Y-75297553D01*
X221088255Y-75439931D01*
X220851488Y-75538003D01*
X220851487Y-75538003D01*
X220851485Y-75538004D01*
X220600139Y-75588000D01*
X220343861Y-75588000D01*
X220092515Y-75538004D01*
X220092513Y-75538003D01*
X220092512Y-75538003D01*
X219855745Y-75439931D01*
X219642661Y-75297553D01*
X219642658Y-75297551D01*
X219461449Y-75116342D01*
X219319069Y-74903255D01*
X219220996Y-74666485D01*
X219171000Y-74415139D01*
X219171000Y-74158861D01*
X219220996Y-73907515D01*
X219319069Y-73670745D01*
X219461449Y-73457658D01*
X219642658Y-73276449D01*
X219855745Y-73134069D01*
X219906610Y-73113000D01*
X220092512Y-73035997D01*
X220092513Y-73035997D01*
X220092515Y-73035996D01*
X220343861Y-72986000D01*
X220600139Y-72986000D01*
X220851485Y-73035996D01*
X220851485Y-73035996D01*
G37*
G36*
X80370485Y-73035996D02*
X80370487Y-73035997D01*
X80370488Y-73035997D01*
X80556390Y-73113000D01*
X80607255Y-73134069D01*
X80820342Y-73276449D01*
X81001551Y-73457658D01*
X81143931Y-73670745D01*
X81242004Y-73907515D01*
X81292000Y-74158861D01*
X81292000Y-74415139D01*
X81242004Y-74666485D01*
X81143931Y-74903255D01*
X81001551Y-75116342D01*
X80820342Y-75297551D01*
X80820339Y-75297553D01*
X80607255Y-75439931D01*
X80370488Y-75538003D01*
X80370487Y-75538003D01*
X80370485Y-75538004D01*
X80119139Y-75588000D01*
X79862861Y-75588000D01*
X79611515Y-75538004D01*
X79611513Y-75538003D01*
X79611512Y-75538003D01*
X79374745Y-75439931D01*
X79161661Y-75297553D01*
X79161658Y-75297551D01*
X78980449Y-75116342D01*
X78838069Y-74903255D01*
X78739996Y-74666485D01*
X78690000Y-74415139D01*
X78690000Y-74158861D01*
X78739996Y-73907515D01*
X78838069Y-73670745D01*
X78980449Y-73457658D01*
X79161658Y-73276449D01*
X79374745Y-73134069D01*
X79425610Y-73113000D01*
X79611512Y-73035997D01*
X79611513Y-73035997D01*
X79611515Y-73035996D01*
X79862861Y-72986000D01*
X80119139Y-72986000D01*
X80370485Y-73035996D01*
X80370485Y-73035996D01*
G37*
G36*
X55370485Y-73035996D02*
X55370487Y-73035997D01*
X55370488Y-73035997D01*
X55556390Y-73113000D01*
X55607255Y-73134069D01*
X55820342Y-73276449D01*
X56001551Y-73457658D01*
X56143931Y-73670745D01*
X56242004Y-73907515D01*
X56292000Y-74158861D01*
X56292000Y-74415139D01*
X56242004Y-74666485D01*
X56143931Y-74903255D01*
X56001551Y-75116342D01*
X55820342Y-75297551D01*
X55820339Y-75297553D01*
X55607255Y-75439931D01*
X55370488Y-75538003D01*
X55370487Y-75538003D01*
X55370485Y-75538004D01*
X55119139Y-75588000D01*
X54862861Y-75588000D01*
X54611515Y-75538004D01*
X54611513Y-75538003D01*
X54611512Y-75538003D01*
X54374745Y-75439931D01*
X54161661Y-75297553D01*
X54161658Y-75297551D01*
X53980449Y-75116342D01*
X53838069Y-74903255D01*
X53739996Y-74666485D01*
X53690000Y-74415139D01*
X53690000Y-74158861D01*
X53739996Y-73907515D01*
X53838069Y-73670745D01*
X53980449Y-73457658D01*
X54161658Y-73276449D01*
X54374745Y-73134069D01*
X54425610Y-73113000D01*
X54611512Y-73035997D01*
X54611513Y-73035997D01*
X54611515Y-73035996D01*
X54862861Y-72986000D01*
X55119139Y-72986000D01*
X55370485Y-73035996D01*
X55370485Y-73035996D01*
G37*
G36*
X70370485Y-73035996D02*
X70370487Y-73035997D01*
X70370488Y-73035997D01*
X70556390Y-73113000D01*
X70607255Y-73134069D01*
X70820342Y-73276449D01*
X71001551Y-73457658D01*
X71143931Y-73670745D01*
X71242004Y-73907515D01*
X71292000Y-74158861D01*
X71292000Y-74415139D01*
X71242004Y-74666485D01*
X71143931Y-74903255D01*
X71001551Y-75116342D01*
X70820342Y-75297551D01*
X70820339Y-75297553D01*
X70607255Y-75439931D01*
X70370488Y-75538003D01*
X70370487Y-75538003D01*
X70370485Y-75538004D01*
X70119139Y-75588000D01*
X69862861Y-75588000D01*
X69611515Y-75538004D01*
X69611513Y-75538003D01*
X69611512Y-75538003D01*
X69374745Y-75439931D01*
X69161661Y-75297553D01*
X69161658Y-75297551D01*
X68980449Y-75116342D01*
X68838069Y-74903255D01*
X68739996Y-74666485D01*
X68690000Y-74415139D01*
X68690000Y-74158861D01*
X68739996Y-73907515D01*
X68838069Y-73670745D01*
X68980449Y-73457658D01*
X69161658Y-73276449D01*
X69374745Y-73134069D01*
X69425610Y-73113000D01*
X69611512Y-73035997D01*
X69611513Y-73035997D01*
X69611515Y-73035996D01*
X69862861Y-72986000D01*
X70119139Y-72986000D01*
X70370485Y-73035996D01*
X70370485Y-73035996D01*
G37*
G36*
X245851485Y-73035996D02*
X245851487Y-73035997D01*
X245851488Y-73035997D01*
X246037390Y-73113000D01*
X246088255Y-73134069D01*
X246301342Y-73276449D01*
X246482551Y-73457658D01*
X246624931Y-73670745D01*
X246723004Y-73907515D01*
X246773000Y-74158861D01*
X246773000Y-74415139D01*
X246723004Y-74666485D01*
X246624931Y-74903255D01*
X246482551Y-75116342D01*
X246301342Y-75297551D01*
X246301339Y-75297553D01*
X246088255Y-75439931D01*
X245851488Y-75538003D01*
X245851487Y-75538003D01*
X245851485Y-75538004D01*
X245600139Y-75588000D01*
X245343861Y-75588000D01*
X245092515Y-75538004D01*
X245092513Y-75538003D01*
X245092512Y-75538003D01*
X244855745Y-75439931D01*
X244642661Y-75297553D01*
X244642658Y-75297551D01*
X244461449Y-75116342D01*
X244319069Y-74903255D01*
X244220996Y-74666485D01*
X244171000Y-74415139D01*
X244171000Y-74158861D01*
X244220996Y-73907515D01*
X244319069Y-73670745D01*
X244461449Y-73457658D01*
X244642658Y-73276449D01*
X244855745Y-73134069D01*
X244906610Y-73113000D01*
X245092512Y-73035997D01*
X245092513Y-73035997D01*
X245092515Y-73035996D01*
X245343861Y-72986000D01*
X245600139Y-72986000D01*
X245851485Y-73035996D01*
X245851485Y-73035996D01*
G37*
G36*
X115568485Y-73035996D02*
X115568487Y-73035997D01*
X115568488Y-73035997D01*
X115754390Y-73113000D01*
X115805255Y-73134069D01*
X116018342Y-73276449D01*
X116199551Y-73457658D01*
X116341931Y-73670745D01*
X116440004Y-73907515D01*
X116490000Y-74158861D01*
X116490000Y-74415139D01*
X116440004Y-74666485D01*
X116341931Y-74903255D01*
X116199551Y-75116342D01*
X116018342Y-75297551D01*
X116018339Y-75297553D01*
X115805255Y-75439931D01*
X115568488Y-75538003D01*
X115568487Y-75538003D01*
X115568485Y-75538004D01*
X115317139Y-75588000D01*
X115060861Y-75588000D01*
X114809515Y-75538004D01*
X114809513Y-75538003D01*
X114809512Y-75538003D01*
X114572745Y-75439931D01*
X114359661Y-75297553D01*
X114359658Y-75297551D01*
X114178449Y-75116342D01*
X114036069Y-74903255D01*
X113937996Y-74666485D01*
X113888000Y-74415139D01*
X113888000Y-74158861D01*
X113937996Y-73907515D01*
X114036069Y-73670745D01*
X114178449Y-73457658D01*
X114359658Y-73276449D01*
X114572745Y-73134069D01*
X114623610Y-73113000D01*
X114809512Y-73035997D01*
X114809513Y-73035997D01*
X114809515Y-73035996D01*
X115060861Y-72986000D01*
X115317139Y-72986000D01*
X115568485Y-73035996D01*
X115568485Y-73035996D01*
G37*
G36*
X159002485Y-65662996D02*
X159002487Y-65662997D01*
X159002488Y-65662997D01*
X159239255Y-65761069D01*
X159452342Y-65903449D01*
X159633551Y-66084658D01*
X159775931Y-66297745D01*
X159874004Y-66534515D01*
X159924000Y-66785861D01*
X159924000Y-67042139D01*
X159874004Y-67293485D01*
X159775931Y-67530255D01*
X159633551Y-67743342D01*
X159452342Y-67924551D01*
X159452339Y-67924553D01*
X159239255Y-68066931D01*
X159002488Y-68165003D01*
X159002487Y-68165003D01*
X159002485Y-68165004D01*
X158751139Y-68215000D01*
X158494861Y-68215000D01*
X158243515Y-68165004D01*
X158243513Y-68165003D01*
X158243512Y-68165003D01*
X158006745Y-68066931D01*
X157793661Y-67924553D01*
X157793658Y-67924551D01*
X157612449Y-67743342D01*
X157470069Y-67530255D01*
X157371996Y-67293485D01*
X157322000Y-67042139D01*
X157322000Y-66785861D01*
X157371996Y-66534515D01*
X157470069Y-66297745D01*
X157612449Y-66084658D01*
X157793658Y-65903449D01*
X158006745Y-65761069D01*
X158243512Y-65662997D01*
X158243513Y-65662997D01*
X158243515Y-65662996D01*
X158494861Y-65613000D01*
X158751139Y-65613000D01*
X159002485Y-65662996D01*
X159002485Y-65662996D01*
G37*
G36*
X174002485Y-65662996D02*
X174002487Y-65662997D01*
X174002488Y-65662997D01*
X174239255Y-65761069D01*
X174452342Y-65903449D01*
X174633551Y-66084658D01*
X174775931Y-66297745D01*
X174874004Y-66534515D01*
X174924000Y-66785861D01*
X174924000Y-67042139D01*
X174874004Y-67293485D01*
X174775931Y-67530255D01*
X174633551Y-67743342D01*
X174452342Y-67924551D01*
X174452339Y-67924553D01*
X174239255Y-68066931D01*
X174002488Y-68165003D01*
X174002487Y-68165003D01*
X174002485Y-68165004D01*
X173751139Y-68215000D01*
X173494861Y-68215000D01*
X173243515Y-68165004D01*
X173243513Y-68165003D01*
X173243512Y-68165003D01*
X173006745Y-68066931D01*
X172793661Y-67924553D01*
X172793658Y-67924551D01*
X172612449Y-67743342D01*
X172470069Y-67530255D01*
X172371996Y-67293485D01*
X172322000Y-67042139D01*
X172322000Y-66785861D01*
X172371996Y-66534515D01*
X172470069Y-66297745D01*
X172612449Y-66084658D01*
X172793658Y-65903449D01*
X173006745Y-65761069D01*
X173243512Y-65662997D01*
X173243513Y-65662997D01*
X173243515Y-65662996D01*
X173494861Y-65613000D01*
X173751139Y-65613000D01*
X174002485Y-65662996D01*
X174002485Y-65662996D01*
G37*
G36*
X179002485Y-65662996D02*
X179002487Y-65662997D01*
X179002488Y-65662997D01*
X179239255Y-65761069D01*
X179452342Y-65903449D01*
X179633551Y-66084658D01*
X179775931Y-66297745D01*
X179874004Y-66534515D01*
X179924000Y-66785861D01*
X179924000Y-67042139D01*
X179874004Y-67293485D01*
X179775931Y-67530255D01*
X179633551Y-67743342D01*
X179452342Y-67924551D01*
X179452339Y-67924553D01*
X179239255Y-68066931D01*
X179002488Y-68165003D01*
X179002487Y-68165003D01*
X179002485Y-68165004D01*
X178751139Y-68215000D01*
X178494861Y-68215000D01*
X178243515Y-68165004D01*
X178243513Y-68165003D01*
X178243512Y-68165003D01*
X178006745Y-68066931D01*
X177793661Y-67924553D01*
X177793658Y-67924551D01*
X177612449Y-67743342D01*
X177470069Y-67530255D01*
X177371996Y-67293485D01*
X177322000Y-67042139D01*
X177322000Y-66785861D01*
X177371996Y-66534515D01*
X177470069Y-66297745D01*
X177612449Y-66084658D01*
X177793658Y-65903449D01*
X178006745Y-65761069D01*
X178243512Y-65662997D01*
X178243513Y-65662997D01*
X178243515Y-65662996D01*
X178494861Y-65613000D01*
X178751139Y-65613000D01*
X179002485Y-65662996D01*
X179002485Y-65662996D01*
G37*
G36*
X189482485Y-65662996D02*
X189482487Y-65662997D01*
X189482488Y-65662997D01*
X189719255Y-65761069D01*
X189932342Y-65903449D01*
X190113551Y-66084658D01*
X190255931Y-66297745D01*
X190354004Y-66534515D01*
X190404000Y-66785861D01*
X190404000Y-67042139D01*
X190354004Y-67293485D01*
X190255931Y-67530255D01*
X190113551Y-67743342D01*
X189932342Y-67924551D01*
X189932339Y-67924553D01*
X189719255Y-68066931D01*
X189482488Y-68165003D01*
X189482487Y-68165003D01*
X189482485Y-68165004D01*
X189231139Y-68215000D01*
X188974861Y-68215000D01*
X188723515Y-68165004D01*
X188723513Y-68165003D01*
X188723512Y-68165003D01*
X188486745Y-68066931D01*
X188273661Y-67924553D01*
X188273658Y-67924551D01*
X188092449Y-67743342D01*
X187950069Y-67530255D01*
X187851996Y-67293485D01*
X187802000Y-67042139D01*
X187802000Y-66785861D01*
X187851996Y-66534515D01*
X187950069Y-66297745D01*
X188092449Y-66084658D01*
X188273658Y-65903449D01*
X188486745Y-65761069D01*
X188723512Y-65662997D01*
X188723513Y-65662997D01*
X188723515Y-65662996D01*
X188974861Y-65613000D01*
X189231139Y-65613000D01*
X189482485Y-65662996D01*
X189482485Y-65662996D01*
G37*
G36*
X204482485Y-65662996D02*
X204482487Y-65662997D01*
X204482488Y-65662997D01*
X204719255Y-65761069D01*
X204932342Y-65903449D01*
X205113551Y-66084658D01*
X205255931Y-66297745D01*
X205354004Y-66534515D01*
X205404000Y-66785861D01*
X205404000Y-67042139D01*
X205354004Y-67293485D01*
X205255931Y-67530255D01*
X205113551Y-67743342D01*
X204932342Y-67924551D01*
X204932339Y-67924553D01*
X204719255Y-68066931D01*
X204482488Y-68165003D01*
X204482487Y-68165003D01*
X204482485Y-68165004D01*
X204231139Y-68215000D01*
X203974861Y-68215000D01*
X203723515Y-68165004D01*
X203723513Y-68165003D01*
X203723512Y-68165003D01*
X203486745Y-68066931D01*
X203273661Y-67924553D01*
X203273658Y-67924551D01*
X203092449Y-67743342D01*
X202950069Y-67530255D01*
X202851996Y-67293485D01*
X202802000Y-67042139D01*
X202802000Y-66785861D01*
X202851996Y-66534515D01*
X202950069Y-66297745D01*
X203092449Y-66084658D01*
X203273658Y-65903449D01*
X203486745Y-65761069D01*
X203723512Y-65662997D01*
X203723513Y-65662997D01*
X203723515Y-65662996D01*
X203974861Y-65613000D01*
X204231139Y-65613000D01*
X204482485Y-65662996D01*
X204482485Y-65662996D01*
G37*
G36*
X209482485Y-65662996D02*
X209482487Y-65662997D01*
X209482488Y-65662997D01*
X209719255Y-65761069D01*
X209932342Y-65903449D01*
X210113551Y-66084658D01*
X210255931Y-66297745D01*
X210354004Y-66534515D01*
X210404000Y-66785861D01*
X210404000Y-67042139D01*
X210354004Y-67293485D01*
X210255931Y-67530255D01*
X210113551Y-67743342D01*
X209932342Y-67924551D01*
X209932339Y-67924553D01*
X209719255Y-68066931D01*
X209482488Y-68165003D01*
X209482487Y-68165003D01*
X209482485Y-68165004D01*
X209231139Y-68215000D01*
X208974861Y-68215000D01*
X208723515Y-68165004D01*
X208723513Y-68165003D01*
X208723512Y-68165003D01*
X208486745Y-68066931D01*
X208273661Y-67924553D01*
X208273658Y-67924551D01*
X208092449Y-67743342D01*
X207950069Y-67530255D01*
X207851996Y-67293485D01*
X207802000Y-67042139D01*
X207802000Y-66785861D01*
X207851996Y-66534515D01*
X207950069Y-66297745D01*
X208092449Y-66084658D01*
X208273658Y-65903449D01*
X208486745Y-65761069D01*
X208723512Y-65662997D01*
X208723513Y-65662997D01*
X208723515Y-65662996D01*
X208974861Y-65613000D01*
X209231139Y-65613000D01*
X209482485Y-65662996D01*
X209482485Y-65662996D01*
G37*
G36*
X214482485Y-65662996D02*
X214482487Y-65662997D01*
X214482488Y-65662997D01*
X214719255Y-65761069D01*
X214932342Y-65903449D01*
X215113551Y-66084658D01*
X215255931Y-66297745D01*
X215354004Y-66534515D01*
X215404000Y-66785861D01*
X215404000Y-67042139D01*
X215354004Y-67293485D01*
X215255931Y-67530255D01*
X215113551Y-67743342D01*
X214932342Y-67924551D01*
X214932339Y-67924553D01*
X214719255Y-68066931D01*
X214482488Y-68165003D01*
X214482487Y-68165003D01*
X214482485Y-68165004D01*
X214231139Y-68215000D01*
X213974861Y-68215000D01*
X213723515Y-68165004D01*
X213723513Y-68165003D01*
X213723512Y-68165003D01*
X213486745Y-68066931D01*
X213273661Y-67924553D01*
X213273658Y-67924551D01*
X213092449Y-67743342D01*
X212950069Y-67530255D01*
X212851996Y-67293485D01*
X212802000Y-67042139D01*
X212802000Y-66785861D01*
X212851996Y-66534515D01*
X212950069Y-66297745D01*
X213092449Y-66084658D01*
X213273658Y-65903449D01*
X213486745Y-65761069D01*
X213723512Y-65662997D01*
X213723513Y-65662997D01*
X213723515Y-65662996D01*
X213974861Y-65613000D01*
X214231139Y-65613000D01*
X214482485Y-65662996D01*
X214482485Y-65662996D01*
G37*
G36*
X184002485Y-65662996D02*
X184002487Y-65662997D01*
X184002488Y-65662997D01*
X184239255Y-65761069D01*
X184452342Y-65903449D01*
X184633551Y-66084658D01*
X184775931Y-66297745D01*
X184874004Y-66534515D01*
X184924000Y-66785861D01*
X184924000Y-67042139D01*
X184874004Y-67293485D01*
X184775931Y-67530255D01*
X184633551Y-67743342D01*
X184452342Y-67924551D01*
X184452339Y-67924553D01*
X184239255Y-68066931D01*
X184002488Y-68165003D01*
X184002487Y-68165003D01*
X184002485Y-68165004D01*
X183751139Y-68215000D01*
X183494861Y-68215000D01*
X183243515Y-68165004D01*
X183243513Y-68165003D01*
X183243512Y-68165003D01*
X183006745Y-68066931D01*
X182793661Y-67924553D01*
X182793658Y-67924551D01*
X182612449Y-67743342D01*
X182470069Y-67530255D01*
X182371996Y-67293485D01*
X182322000Y-67042139D01*
X182322000Y-66785861D01*
X182371996Y-66534515D01*
X182470069Y-66297745D01*
X182612449Y-66084658D01*
X182793658Y-65903449D01*
X183006745Y-65761069D01*
X183243512Y-65662997D01*
X183243513Y-65662997D01*
X183243515Y-65662996D01*
X183494861Y-65613000D01*
X183751139Y-65613000D01*
X184002485Y-65662996D01*
X184002485Y-65662996D01*
G37*
G36*
X115568485Y-65535996D02*
X115568487Y-65535997D01*
X115568488Y-65535997D01*
X115754390Y-65613000D01*
X115805255Y-65634069D01*
X116018342Y-65776449D01*
X116199551Y-65957658D01*
X116341931Y-66170745D01*
X116440004Y-66407515D01*
X116490000Y-66658861D01*
X116490000Y-66915139D01*
X116440004Y-67166485D01*
X116341931Y-67403255D01*
X116199551Y-67616342D01*
X116018342Y-67797551D01*
X116018339Y-67797553D01*
X115805255Y-67939931D01*
X115568488Y-68038003D01*
X115568487Y-68038003D01*
X115568485Y-68038004D01*
X115317139Y-68088000D01*
X115060861Y-68088000D01*
X114809515Y-68038004D01*
X114809513Y-68038003D01*
X114809512Y-68038003D01*
X114572745Y-67939931D01*
X114359661Y-67797553D01*
X114359658Y-67797551D01*
X114178449Y-67616342D01*
X114036069Y-67403255D01*
X113937996Y-67166485D01*
X113888000Y-66915139D01*
X113888000Y-66658861D01*
X113937996Y-66407515D01*
X114036069Y-66170745D01*
X114178449Y-65957658D01*
X114359658Y-65776449D01*
X114572745Y-65634069D01*
X114623610Y-65613000D01*
X114809512Y-65535997D01*
X114809513Y-65535997D01*
X114809515Y-65535996D01*
X115060861Y-65486000D01*
X115317139Y-65486000D01*
X115568485Y-65535996D01*
X115568485Y-65535996D01*
G37*
G36*
X55370485Y-65535996D02*
X55370487Y-65535997D01*
X55370488Y-65535997D01*
X55556390Y-65613000D01*
X55607255Y-65634069D01*
X55820342Y-65776449D01*
X56001551Y-65957658D01*
X56143931Y-66170745D01*
X56242004Y-66407515D01*
X56292000Y-66658861D01*
X56292000Y-66915139D01*
X56242004Y-67166485D01*
X56143931Y-67403255D01*
X56001551Y-67616342D01*
X55820342Y-67797551D01*
X55820339Y-67797553D01*
X55607255Y-67939931D01*
X55370488Y-68038003D01*
X55370487Y-68038003D01*
X55370485Y-68038004D01*
X55119139Y-68088000D01*
X54862861Y-68088000D01*
X54611515Y-68038004D01*
X54611513Y-68038003D01*
X54611512Y-68038003D01*
X54374745Y-67939931D01*
X54161661Y-67797553D01*
X54161658Y-67797551D01*
X53980449Y-67616342D01*
X53838069Y-67403255D01*
X53739996Y-67166485D01*
X53690000Y-66915139D01*
X53690000Y-66658861D01*
X53739996Y-66407515D01*
X53838069Y-66170745D01*
X53980449Y-65957658D01*
X54161658Y-65776449D01*
X54374745Y-65634069D01*
X54425610Y-65613000D01*
X54611512Y-65535997D01*
X54611513Y-65535997D01*
X54611515Y-65535996D01*
X54862861Y-65486000D01*
X55119139Y-65486000D01*
X55370485Y-65535996D01*
X55370485Y-65535996D01*
G37*
G36*
X70370485Y-65535996D02*
X70370487Y-65535997D01*
X70370488Y-65535997D01*
X70556390Y-65613000D01*
X70607255Y-65634069D01*
X70820342Y-65776449D01*
X71001551Y-65957658D01*
X71143931Y-66170745D01*
X71242004Y-66407515D01*
X71292000Y-66658861D01*
X71292000Y-66915139D01*
X71242004Y-67166485D01*
X71143931Y-67403255D01*
X71001551Y-67616342D01*
X70820342Y-67797551D01*
X70820339Y-67797553D01*
X70607255Y-67939931D01*
X70370488Y-68038003D01*
X70370487Y-68038003D01*
X70370485Y-68038004D01*
X70119139Y-68088000D01*
X69862861Y-68088000D01*
X69611515Y-68038004D01*
X69611513Y-68038003D01*
X69611512Y-68038003D01*
X69374745Y-67939931D01*
X69161661Y-67797553D01*
X69161658Y-67797551D01*
X68980449Y-67616342D01*
X68838069Y-67403255D01*
X68739996Y-67166485D01*
X68690000Y-66915139D01*
X68690000Y-66658861D01*
X68739996Y-66407515D01*
X68838069Y-66170745D01*
X68980449Y-65957658D01*
X69161658Y-65776449D01*
X69374745Y-65634069D01*
X69425610Y-65613000D01*
X69611512Y-65535997D01*
X69611513Y-65535997D01*
X69611515Y-65535996D01*
X69862861Y-65486000D01*
X70119139Y-65486000D01*
X70370485Y-65535996D01*
X70370485Y-65535996D01*
G37*
G36*
X75370485Y-65535996D02*
X75370487Y-65535997D01*
X75370488Y-65535997D01*
X75556390Y-65613000D01*
X75607255Y-65634069D01*
X75820342Y-65776449D01*
X76001551Y-65957658D01*
X76143931Y-66170745D01*
X76242004Y-66407515D01*
X76292000Y-66658861D01*
X76292000Y-66915139D01*
X76242004Y-67166485D01*
X76143931Y-67403255D01*
X76001551Y-67616342D01*
X75820342Y-67797551D01*
X75820339Y-67797553D01*
X75607255Y-67939931D01*
X75370488Y-68038003D01*
X75370487Y-68038003D01*
X75370485Y-68038004D01*
X75119139Y-68088000D01*
X74862861Y-68088000D01*
X74611515Y-68038004D01*
X74611513Y-68038003D01*
X74611512Y-68038003D01*
X74374745Y-67939931D01*
X74161661Y-67797553D01*
X74161658Y-67797551D01*
X73980449Y-67616342D01*
X73838069Y-67403255D01*
X73739996Y-67166485D01*
X73690000Y-66915139D01*
X73690000Y-66658861D01*
X73739996Y-66407515D01*
X73838069Y-66170745D01*
X73980449Y-65957658D01*
X74161658Y-65776449D01*
X74374745Y-65634069D01*
X74425610Y-65613000D01*
X74611512Y-65535997D01*
X74611513Y-65535997D01*
X74611515Y-65535996D01*
X74862861Y-65486000D01*
X75119139Y-65486000D01*
X75370485Y-65535996D01*
X75370485Y-65535996D01*
G37*
G36*
X80370485Y-65535996D02*
X80370487Y-65535997D01*
X80370488Y-65535997D01*
X80556390Y-65613000D01*
X80607255Y-65634069D01*
X80820342Y-65776449D01*
X81001551Y-65957658D01*
X81143931Y-66170745D01*
X81242004Y-66407515D01*
X81292000Y-66658861D01*
X81292000Y-66915139D01*
X81242004Y-67166485D01*
X81143931Y-67403255D01*
X81001551Y-67616342D01*
X80820342Y-67797551D01*
X80820339Y-67797553D01*
X80607255Y-67939931D01*
X80370488Y-68038003D01*
X80370487Y-68038003D01*
X80370485Y-68038004D01*
X80119139Y-68088000D01*
X79862861Y-68088000D01*
X79611515Y-68038004D01*
X79611513Y-68038003D01*
X79611512Y-68038003D01*
X79374745Y-67939931D01*
X79161661Y-67797553D01*
X79161658Y-67797551D01*
X78980449Y-67616342D01*
X78838069Y-67403255D01*
X78739996Y-67166485D01*
X78690000Y-66915139D01*
X78690000Y-66658861D01*
X78739996Y-66407515D01*
X78838069Y-66170745D01*
X78980449Y-65957658D01*
X79161658Y-65776449D01*
X79374745Y-65634069D01*
X79425610Y-65613000D01*
X79611512Y-65535997D01*
X79611513Y-65535997D01*
X79611515Y-65535996D01*
X79862861Y-65486000D01*
X80119139Y-65486000D01*
X80370485Y-65535996D01*
X80370485Y-65535996D01*
G37*
G36*
X85342485Y-65535996D02*
X85342487Y-65535997D01*
X85342488Y-65535997D01*
X85528390Y-65613000D01*
X85579255Y-65634069D01*
X85792342Y-65776449D01*
X85973551Y-65957658D01*
X86115931Y-66170745D01*
X86214004Y-66407515D01*
X86264000Y-66658861D01*
X86264000Y-66915139D01*
X86214004Y-67166485D01*
X86115931Y-67403255D01*
X85973551Y-67616342D01*
X85792342Y-67797551D01*
X85792339Y-67797553D01*
X85579255Y-67939931D01*
X85342488Y-68038003D01*
X85342487Y-68038003D01*
X85342485Y-68038004D01*
X85091139Y-68088000D01*
X84834861Y-68088000D01*
X84583515Y-68038004D01*
X84583513Y-68038003D01*
X84583512Y-68038003D01*
X84346745Y-67939931D01*
X84133661Y-67797553D01*
X84133658Y-67797551D01*
X83952449Y-67616342D01*
X83810069Y-67403255D01*
X83711996Y-67166485D01*
X83662000Y-66915139D01*
X83662000Y-66658861D01*
X83711996Y-66407515D01*
X83810069Y-66170745D01*
X83952449Y-65957658D01*
X84133658Y-65776449D01*
X84346745Y-65634069D01*
X84397610Y-65613000D01*
X84583512Y-65535997D01*
X84583513Y-65535997D01*
X84583515Y-65535996D01*
X84834861Y-65486000D01*
X85091139Y-65486000D01*
X85342485Y-65535996D01*
X85342485Y-65535996D01*
G37*
G36*
X100342485Y-65535996D02*
X100342487Y-65535997D01*
X100342488Y-65535997D01*
X100528390Y-65613000D01*
X100579255Y-65634069D01*
X100792342Y-65776449D01*
X100973551Y-65957658D01*
X101115931Y-66170745D01*
X101214004Y-66407515D01*
X101264000Y-66658861D01*
X101264000Y-66915139D01*
X101214004Y-67166485D01*
X101115931Y-67403255D01*
X100973551Y-67616342D01*
X100792342Y-67797551D01*
X100792339Y-67797553D01*
X100579255Y-67939931D01*
X100342488Y-68038003D01*
X100342487Y-68038003D01*
X100342485Y-68038004D01*
X100091139Y-68088000D01*
X99834861Y-68088000D01*
X99583515Y-68038004D01*
X99583513Y-68038003D01*
X99583512Y-68038003D01*
X99346745Y-67939931D01*
X99133661Y-67797553D01*
X99133658Y-67797551D01*
X98952449Y-67616342D01*
X98810069Y-67403255D01*
X98711996Y-67166485D01*
X98662000Y-66915139D01*
X98662000Y-66658861D01*
X98711996Y-66407515D01*
X98810069Y-66170745D01*
X98952449Y-65957658D01*
X99133658Y-65776449D01*
X99346745Y-65634069D01*
X99397610Y-65613000D01*
X99583512Y-65535997D01*
X99583513Y-65535997D01*
X99583515Y-65535996D01*
X99834861Y-65486000D01*
X100091139Y-65486000D01*
X100342485Y-65535996D01*
X100342485Y-65535996D01*
G37*
G36*
X105342485Y-65535996D02*
X105342487Y-65535997D01*
X105342488Y-65535997D01*
X105528390Y-65613000D01*
X105579255Y-65634069D01*
X105792342Y-65776449D01*
X105973551Y-65957658D01*
X106115931Y-66170745D01*
X106214004Y-66407515D01*
X106264000Y-66658861D01*
X106264000Y-66915139D01*
X106214004Y-67166485D01*
X106115931Y-67403255D01*
X105973551Y-67616342D01*
X105792342Y-67797551D01*
X105792339Y-67797553D01*
X105579255Y-67939931D01*
X105342488Y-68038003D01*
X105342487Y-68038003D01*
X105342485Y-68038004D01*
X105091139Y-68088000D01*
X104834861Y-68088000D01*
X104583515Y-68038004D01*
X104583513Y-68038003D01*
X104583512Y-68038003D01*
X104346745Y-67939931D01*
X104133661Y-67797553D01*
X104133658Y-67797551D01*
X103952449Y-67616342D01*
X103810069Y-67403255D01*
X103711996Y-67166485D01*
X103662000Y-66915139D01*
X103662000Y-66658861D01*
X103711996Y-66407515D01*
X103810069Y-66170745D01*
X103952449Y-65957658D01*
X104133658Y-65776449D01*
X104346745Y-65634069D01*
X104397610Y-65613000D01*
X104583512Y-65535997D01*
X104583513Y-65535997D01*
X104583515Y-65535996D01*
X104834861Y-65486000D01*
X105091139Y-65486000D01*
X105342485Y-65535996D01*
X105342485Y-65535996D01*
G37*
G36*
X110342485Y-65535996D02*
X110342487Y-65535997D01*
X110342488Y-65535997D01*
X110528390Y-65613000D01*
X110579255Y-65634069D01*
X110792342Y-65776449D01*
X110973551Y-65957658D01*
X111115931Y-66170745D01*
X111214004Y-66407515D01*
X111264000Y-66658861D01*
X111264000Y-66915139D01*
X111214004Y-67166485D01*
X111115931Y-67403255D01*
X110973551Y-67616342D01*
X110792342Y-67797551D01*
X110792339Y-67797553D01*
X110579255Y-67939931D01*
X110342488Y-68038003D01*
X110342487Y-68038003D01*
X110342485Y-68038004D01*
X110091139Y-68088000D01*
X109834861Y-68088000D01*
X109583515Y-68038004D01*
X109583513Y-68038003D01*
X109583512Y-68038003D01*
X109346745Y-67939931D01*
X109133661Y-67797553D01*
X109133658Y-67797551D01*
X108952449Y-67616342D01*
X108810069Y-67403255D01*
X108711996Y-67166485D01*
X108662000Y-66915139D01*
X108662000Y-66658861D01*
X108711996Y-66407515D01*
X108810069Y-66170745D01*
X108952449Y-65957658D01*
X109133658Y-65776449D01*
X109346745Y-65634069D01*
X109397610Y-65613000D01*
X109583512Y-65535997D01*
X109583513Y-65535997D01*
X109583515Y-65535996D01*
X109834861Y-65486000D01*
X110091139Y-65486000D01*
X110342485Y-65535996D01*
X110342485Y-65535996D01*
G37*
G36*
X130568485Y-65535996D02*
X130568487Y-65535997D01*
X130568488Y-65535997D01*
X130754390Y-65613000D01*
X130805255Y-65634069D01*
X131018342Y-65776449D01*
X131199551Y-65957658D01*
X131341931Y-66170745D01*
X131440004Y-66407515D01*
X131490000Y-66658861D01*
X131490000Y-66915139D01*
X131440004Y-67166485D01*
X131341931Y-67403255D01*
X131199551Y-67616342D01*
X131018342Y-67797551D01*
X131018339Y-67797553D01*
X130805255Y-67939931D01*
X130568488Y-68038003D01*
X130568487Y-68038003D01*
X130568485Y-68038004D01*
X130317139Y-68088000D01*
X130060861Y-68088000D01*
X129809515Y-68038004D01*
X129809513Y-68038003D01*
X129809512Y-68038003D01*
X129572745Y-67939931D01*
X129359661Y-67797553D01*
X129359658Y-67797551D01*
X129178449Y-67616342D01*
X129036069Y-67403255D01*
X128937996Y-67166485D01*
X128888000Y-66915139D01*
X128888000Y-66658861D01*
X128937996Y-66407515D01*
X129036069Y-66170745D01*
X129178449Y-65957658D01*
X129359658Y-65776449D01*
X129572745Y-65634069D01*
X129623610Y-65613000D01*
X129809512Y-65535997D01*
X129809513Y-65535997D01*
X129809515Y-65535996D01*
X130060861Y-65486000D01*
X130317139Y-65486000D01*
X130568485Y-65535996D01*
X130568485Y-65535996D01*
G37*
G36*
X135568485Y-65535996D02*
X135568487Y-65535997D01*
X135568488Y-65535997D01*
X135754390Y-65613000D01*
X135805255Y-65634069D01*
X136018342Y-65776449D01*
X136199551Y-65957658D01*
X136341931Y-66170745D01*
X136440004Y-66407515D01*
X136490000Y-66658861D01*
X136490000Y-66915139D01*
X136440004Y-67166485D01*
X136341931Y-67403255D01*
X136199551Y-67616342D01*
X136018342Y-67797551D01*
X136018339Y-67797553D01*
X135805255Y-67939931D01*
X135568488Y-68038003D01*
X135568487Y-68038003D01*
X135568485Y-68038004D01*
X135317139Y-68088000D01*
X135060861Y-68088000D01*
X134809515Y-68038004D01*
X134809513Y-68038003D01*
X134809512Y-68038003D01*
X134572745Y-67939931D01*
X134359661Y-67797553D01*
X134359658Y-67797551D01*
X134178449Y-67616342D01*
X134036069Y-67403255D01*
X133937996Y-67166485D01*
X133888000Y-66915139D01*
X133888000Y-66658861D01*
X133937996Y-66407515D01*
X134036069Y-66170745D01*
X134178449Y-65957658D01*
X134359658Y-65776449D01*
X134572745Y-65634069D01*
X134623610Y-65613000D01*
X134809512Y-65535997D01*
X134809513Y-65535997D01*
X134809515Y-65535996D01*
X135060861Y-65486000D01*
X135317139Y-65486000D01*
X135568485Y-65535996D01*
X135568485Y-65535996D01*
G37*
G36*
X140568485Y-65535996D02*
X140568487Y-65535997D01*
X140568488Y-65535997D01*
X140754390Y-65613000D01*
X140805255Y-65634069D01*
X141018342Y-65776449D01*
X141199551Y-65957658D01*
X141341931Y-66170745D01*
X141440004Y-66407515D01*
X141490000Y-66658861D01*
X141490000Y-66915139D01*
X141440004Y-67166485D01*
X141341931Y-67403255D01*
X141199551Y-67616342D01*
X141018342Y-67797551D01*
X141018339Y-67797553D01*
X140805255Y-67939931D01*
X140568488Y-68038003D01*
X140568487Y-68038003D01*
X140568485Y-68038004D01*
X140317139Y-68088000D01*
X140060861Y-68088000D01*
X139809515Y-68038004D01*
X139809513Y-68038003D01*
X139809512Y-68038003D01*
X139572745Y-67939931D01*
X139359661Y-67797553D01*
X139359658Y-67797551D01*
X139178449Y-67616342D01*
X139036069Y-67403255D01*
X138937996Y-67166485D01*
X138888000Y-66915139D01*
X138888000Y-66658861D01*
X138937996Y-66407515D01*
X139036069Y-66170745D01*
X139178449Y-65957658D01*
X139359658Y-65776449D01*
X139572745Y-65634069D01*
X139623610Y-65613000D01*
X139809512Y-65535997D01*
X139809513Y-65535997D01*
X139809515Y-65535996D01*
X140060861Y-65486000D01*
X140317139Y-65486000D01*
X140568485Y-65535996D01*
X140568485Y-65535996D01*
G37*
G36*
X220851485Y-65535996D02*
X220851487Y-65535997D01*
X220851488Y-65535997D01*
X221037390Y-65613000D01*
X221088255Y-65634069D01*
X221301342Y-65776449D01*
X221482551Y-65957658D01*
X221624931Y-66170745D01*
X221723004Y-66407515D01*
X221773000Y-66658861D01*
X221773000Y-66915139D01*
X221723004Y-67166485D01*
X221624931Y-67403255D01*
X221482551Y-67616342D01*
X221301342Y-67797551D01*
X221301339Y-67797553D01*
X221088255Y-67939931D01*
X220851488Y-68038003D01*
X220851487Y-68038003D01*
X220851485Y-68038004D01*
X220600139Y-68088000D01*
X220343861Y-68088000D01*
X220092515Y-68038004D01*
X220092513Y-68038003D01*
X220092512Y-68038003D01*
X219855745Y-67939931D01*
X219642661Y-67797553D01*
X219642658Y-67797551D01*
X219461449Y-67616342D01*
X219319069Y-67403255D01*
X219220996Y-67166485D01*
X219171000Y-66915139D01*
X219171000Y-66658861D01*
X219220996Y-66407515D01*
X219319069Y-66170745D01*
X219461449Y-65957658D01*
X219642658Y-65776449D01*
X219855745Y-65634069D01*
X219906610Y-65613000D01*
X220092512Y-65535997D01*
X220092513Y-65535997D01*
X220092515Y-65535996D01*
X220343861Y-65486000D01*
X220600139Y-65486000D01*
X220851485Y-65535996D01*
X220851485Y-65535996D01*
G37*
G36*
X235851485Y-65535996D02*
X235851487Y-65535997D01*
X235851488Y-65535997D01*
X236037390Y-65613000D01*
X236088255Y-65634069D01*
X236301342Y-65776449D01*
X236482551Y-65957658D01*
X236624931Y-66170745D01*
X236723004Y-66407515D01*
X236773000Y-66658861D01*
X236773000Y-66915139D01*
X236723004Y-67166485D01*
X236624931Y-67403255D01*
X236482551Y-67616342D01*
X236301342Y-67797551D01*
X236301339Y-67797553D01*
X236088255Y-67939931D01*
X235851488Y-68038003D01*
X235851487Y-68038003D01*
X235851485Y-68038004D01*
X235600139Y-68088000D01*
X235343861Y-68088000D01*
X235092515Y-68038004D01*
X235092513Y-68038003D01*
X235092512Y-68038003D01*
X234855745Y-67939931D01*
X234642661Y-67797553D01*
X234642658Y-67797551D01*
X234461449Y-67616342D01*
X234319069Y-67403255D01*
X234220996Y-67166485D01*
X234171000Y-66915139D01*
X234171000Y-66658861D01*
X234220996Y-66407515D01*
X234319069Y-66170745D01*
X234461449Y-65957658D01*
X234642658Y-65776449D01*
X234855745Y-65634069D01*
X234906610Y-65613000D01*
X235092512Y-65535997D01*
X235092513Y-65535997D01*
X235092515Y-65535996D01*
X235343861Y-65486000D01*
X235600139Y-65486000D01*
X235851485Y-65535996D01*
X235851485Y-65535996D01*
G37*
G36*
X240851485Y-65535996D02*
X240851487Y-65535997D01*
X240851488Y-65535997D01*
X241037390Y-65613000D01*
X241088255Y-65634069D01*
X241301342Y-65776449D01*
X241482551Y-65957658D01*
X241624931Y-66170745D01*
X241723004Y-66407515D01*
X241773000Y-66658861D01*
X241773000Y-66915139D01*
X241723004Y-67166485D01*
X241624931Y-67403255D01*
X241482551Y-67616342D01*
X241301342Y-67797551D01*
X241301339Y-67797553D01*
X241088255Y-67939931D01*
X240851488Y-68038003D01*
X240851487Y-68038003D01*
X240851485Y-68038004D01*
X240600139Y-68088000D01*
X240343861Y-68088000D01*
X240092515Y-68038004D01*
X240092513Y-68038003D01*
X240092512Y-68038003D01*
X239855745Y-67939931D01*
X239642661Y-67797553D01*
X239642658Y-67797551D01*
X239461449Y-67616342D01*
X239319069Y-67403255D01*
X239220996Y-67166485D01*
X239171000Y-66915139D01*
X239171000Y-66658861D01*
X239220996Y-66407515D01*
X239319069Y-66170745D01*
X239461449Y-65957658D01*
X239642658Y-65776449D01*
X239855745Y-65634069D01*
X239906610Y-65613000D01*
X240092512Y-65535997D01*
X240092513Y-65535997D01*
X240092515Y-65535996D01*
X240343861Y-65486000D01*
X240600139Y-65486000D01*
X240851485Y-65535996D01*
X240851485Y-65535996D01*
G37*
G36*
X245851485Y-65535996D02*
X245851487Y-65535997D01*
X245851488Y-65535997D01*
X246037390Y-65613000D01*
X246088255Y-65634069D01*
X246301342Y-65776449D01*
X246482551Y-65957658D01*
X246624931Y-66170745D01*
X246723004Y-66407515D01*
X246773000Y-66658861D01*
X246773000Y-66915139D01*
X246723004Y-67166485D01*
X246624931Y-67403255D01*
X246482551Y-67616342D01*
X246301342Y-67797551D01*
X246301339Y-67797553D01*
X246088255Y-67939931D01*
X245851488Y-68038003D01*
X245851487Y-68038003D01*
X245851485Y-68038004D01*
X245600139Y-68088000D01*
X245343861Y-68088000D01*
X245092515Y-68038004D01*
X245092513Y-68038003D01*
X245092512Y-68038003D01*
X244855745Y-67939931D01*
X244642661Y-67797553D01*
X244642658Y-67797551D01*
X244461449Y-67616342D01*
X244319069Y-67403255D01*
X244220996Y-67166485D01*
X244171000Y-66915139D01*
X244171000Y-66658861D01*
X244220996Y-66407515D01*
X244319069Y-66170745D01*
X244461449Y-65957658D01*
X244642658Y-65776449D01*
X244855745Y-65634069D01*
X244906610Y-65613000D01*
X245092512Y-65535997D01*
X245092513Y-65535997D01*
X245092515Y-65535996D01*
X245343861Y-65486000D01*
X245600139Y-65486000D01*
X245851485Y-65535996D01*
X245851485Y-65535996D01*
G37*
G36*
X151108710Y-59845070D02*
X151800447Y-60131597D01*
X152422999Y-60547573D01*
X152952427Y-61077001D01*
X153368403Y-61699553D01*
X153654930Y-62391290D01*
X153801000Y-63125633D01*
X153801000Y-63874367D01*
X153654930Y-64608710D01*
X153368403Y-65300447D01*
X152952427Y-65922999D01*
X152422999Y-66452427D01*
X151800447Y-66868403D01*
X151108710Y-67154930D01*
X150374367Y-67301000D01*
X149625633Y-67301000D01*
X148891290Y-67154930D01*
X148199553Y-66868403D01*
X147577001Y-66452427D01*
X147047573Y-65922999D01*
X146631597Y-65300447D01*
X146345070Y-64608710D01*
X146199000Y-63874367D01*
X146199000Y-63125633D01*
X146345070Y-62391290D01*
X146631597Y-61699553D01*
X147047573Y-61077001D01*
X147577001Y-60547573D01*
X148199553Y-60131597D01*
X148891290Y-59845070D01*
X149625633Y-59699000D01*
X150374367Y-59699000D01*
X151108710Y-59845070D01*
X151108710Y-59845070D01*
G37*
G36*
X160228710Y-50725070D02*
X160920447Y-51011597D01*
X161542999Y-51427573D01*
X162072427Y-51957001D01*
X162488403Y-52579553D01*
X162774930Y-53271290D01*
X162921000Y-54005633D01*
X162921000Y-54754367D01*
X162774930Y-55488710D01*
X162488403Y-56180447D01*
X162072427Y-56802999D01*
X161542999Y-57332427D01*
X160920447Y-57748403D01*
X160228710Y-58034930D01*
X159494367Y-58181000D01*
X158745633Y-58181000D01*
X158011290Y-58034930D01*
X157319553Y-57748403D01*
X156697001Y-57332427D01*
X156167573Y-56802999D01*
X155751597Y-56180447D01*
X155465070Y-55488710D01*
X155319000Y-54754367D01*
X155319000Y-54005633D01*
X155465070Y-53271290D01*
X155751597Y-52579553D01*
X156167573Y-51957001D01*
X156697001Y-51427573D01*
X157319553Y-51011597D01*
X158011290Y-50725070D01*
X158745633Y-50579000D01*
X159494367Y-50579000D01*
X160228710Y-50725070D01*
X160228710Y-50725070D01*
G37*
M02*
