G04 Layer: BottomSilkscreenLayer*
G04 EasyEDA Pro v2.1.32.5533625a, 2023-09-11 21:51:51*
G04 Gerber Generator version 0.3*
G04 Scale: 100 percent, Rotated: No, Reflected: No *
G04 Dimensions in millimeters  *
G04 leading zeros omitted , absolute positions ,3 integer and 6 decimal *
G04 #@! TF.GenerationSoftware,KiCad,Pcbnew,(5.1.10)-1*
G04 #@! TF.CreationDate,2023-09-11T23:26:28+08:00*
G04 #@! TF.ProjectId,AntennaSwitch_6x2_RelayBoard,416e7465-6e6e-4615-9377-697463685f36,rev?*
G04 #@! TF.SameCoordinates,Original*
G04 #@! TF.FileFunction,Soldermask,Top*
G04 #@! TF.FilePolarity,Negative*
%FSLAX46Y46*%
G04 Gerber Fmt 4.6, Leading zero omitted, Abs format (unit mm)*
G04 Created by KiCad (PCBNEW (5.1.10)-1) date 2023-09-11 23:26:28*
%MOMM*%
%LPD*%
G01*
G04 APERTURE LIST*
%ADD10C,0.150000*%
%ADD11C,2.602000*%
%ADD12O,2.102000X2.702000*%
%ADD13C,0.902000*%
%ADD14C,7.602000*%
G04 APERTURE END LIST*
D10*
X154712000Y-126373000D02*
X154966000Y-126373000D01*
X154712000Y-126373000D02*
X154966000Y-126373000D01*
D11*
X78420000Y-68554000D03*
X73420000Y-68554000D03*
X68420000Y-68554000D03*
X78420000Y-76054000D03*
X73420000Y-76054000D03*
X68420000Y-76054000D03*
X53420000Y-68554000D03*
X53420000Y-76054000D03*
X108340000Y-68554000D03*
X103340000Y-68554000D03*
X98340000Y-68554000D03*
X108340000Y-76054000D03*
X103340000Y-76054000D03*
X98340000Y-76054000D03*
X83340000Y-68554000D03*
X83340000Y-76054000D03*
X138520000Y-68554000D03*
X133520000Y-68554000D03*
X128520000Y-68554000D03*
X138520000Y-76054000D03*
X133520000Y-76054000D03*
X128520000Y-76054000D03*
X113520000Y-68554000D03*
X113520000Y-76054000D03*
X159811000Y-76000000D03*
X164811000Y-76000000D03*
X169811000Y-76000000D03*
X159811000Y-68500000D03*
X164811000Y-68500000D03*
X169811000Y-68500000D03*
X184811000Y-76000000D03*
X184811000Y-68500000D03*
X190037000Y-76000001D03*
X195037000Y-76000001D03*
X200037000Y-76000001D03*
X190037000Y-68500001D03*
X195037000Y-68500001D03*
X200037000Y-68500001D03*
X215037000Y-76000001D03*
X215037000Y-68500001D03*
X220009000Y-76000000D03*
X225009000Y-76000000D03*
X230009000Y-76000000D03*
X220009000Y-68500000D03*
X225009000Y-68500000D03*
X230009000Y-68500000D03*
X245009000Y-76000000D03*
X245009000Y-68500000D03*
X81500000Y-109500000D03*
X81500000Y-104500000D03*
X81500000Y-99500000D03*
X74000000Y-109500000D03*
X74000000Y-104500000D03*
X74000000Y-99500000D03*
X81500000Y-84500000D03*
X74000000Y-84500000D03*
X114500000Y-109500000D03*
X114500000Y-104500000D03*
X114500000Y-99500000D03*
X107000000Y-109500000D03*
X107000000Y-104500000D03*
X107000000Y-99500000D03*
X114500000Y-84500000D03*
X107000000Y-84500000D03*
X147353000Y-109500000D03*
X147353000Y-104500000D03*
X147353000Y-99500000D03*
X139853000Y-109500000D03*
X139853000Y-104500000D03*
X139853000Y-99500000D03*
X147353000Y-84500000D03*
X139853000Y-84500000D03*
X180500000Y-109500000D03*
X180500000Y-104500000D03*
X180500000Y-99500000D03*
X173000000Y-109500000D03*
X173000000Y-104500000D03*
X173000000Y-99500000D03*
X180500000Y-84500000D03*
X173000000Y-84500000D03*
X212885000Y-109500000D03*
X212885000Y-104500000D03*
X212885000Y-99500000D03*
X205385000Y-109500000D03*
X205385000Y-104500000D03*
X205385000Y-99500000D03*
X212885000Y-84500000D03*
X205385000Y-84500000D03*
X246000000Y-109500001D03*
X246000000Y-104500001D03*
X246000000Y-99500001D03*
X238500000Y-109500001D03*
X238500000Y-104500001D03*
X238500000Y-99500001D03*
X246000000Y-84500001D03*
X238500000Y-84500001D03*
X54528000Y-123213000D03*
X59528000Y-123213000D03*
X64528000Y-123213000D03*
X54528000Y-115713000D03*
X59528000Y-115713000D03*
X64528000Y-115713000D03*
X79528000Y-123213000D03*
X79528000Y-115713000D03*
X85897000Y-123086000D03*
X90897000Y-123086000D03*
X95897000Y-123086000D03*
X85897000Y-115586000D03*
X90897000Y-115586000D03*
X95897000Y-115586000D03*
X110897000Y-123086000D03*
X110897000Y-115586000D03*
X116377000Y-123086000D03*
X121377000Y-123086000D03*
X126377000Y-123086000D03*
X116377000Y-115586000D03*
X121377000Y-115586000D03*
X126377000Y-115586000D03*
X141377000Y-123086000D03*
X141377000Y-115586000D03*
X159811000Y-123213001D03*
X164811000Y-123213001D03*
X169811000Y-123213001D03*
X159811000Y-115713001D03*
X164811000Y-115713001D03*
X169811000Y-115713001D03*
X184811000Y-123213001D03*
X184811000Y-115713001D03*
X190037000Y-123213000D03*
X195037000Y-123213000D03*
X200037000Y-123213000D03*
X190037000Y-115713000D03*
X195037000Y-115713000D03*
X200037000Y-115713000D03*
X215037000Y-123213000D03*
X215037000Y-115713000D03*
X220009000Y-123213001D03*
X225009000Y-123213001D03*
X230009000Y-123213001D03*
X220009000Y-115713001D03*
X225009000Y-115713001D03*
X230009000Y-115713001D03*
X245009000Y-123213001D03*
X245009000Y-115713001D03*
G36*
G01*
X132776000Y-52683000D02*
X132776000Y-55283000D01*
G75*
G02*
X132725000Y-55334000I-51000J0D01*
G01*
X130725000Y-55334000D01*
G75*
G02*
X130674000Y-55283000I0J51000D01*
G01*
X130674000Y-52683000D01*
G75*
G02*
X130725000Y-52632000I51000J0D01*
G01*
X132725000Y-52632000D01*
G75*
G02*
X132776000Y-52683000I0J-51000D01*
G01*
G37*
D12*
X129185000Y-53983000D03*
X126645000Y-53983000D03*
X124105000Y-53983000D03*
X121565000Y-53983000D03*
X119025000Y-53983000D03*
X116485000Y-53983000D03*
X113945000Y-53983000D03*
G36*
G01*
X187386001Y-52683000D02*
X187386001Y-55283000D01*
G75*
G02*
X187335001Y-55334000I-51000J0D01*
G01*
X185335001Y-55334000D01*
G75*
G02*
X185284001Y-55283000I0J51000D01*
G01*
X185284001Y-52683000D01*
G75*
G02*
X185335001Y-52632000I51000J0D01*
G01*
X187335001Y-52632000D01*
G75*
G02*
X187386001Y-52683000I0J-51000D01*
G01*
G37*
X183795001Y-53983000D03*
X181255001Y-53983000D03*
X178715001Y-53983000D03*
X176175001Y-53983000D03*
X173635001Y-53983000D03*
X171095001Y-53983000D03*
X168555001Y-53983000D03*
D13*
X161501570Y-53005000D03*
X161501570Y-55755000D03*
X159120000Y-57130000D03*
X156738430Y-55755000D03*
X156738430Y-53005000D03*
X159120000Y-51630000D03*
D14*
X159120000Y-54380000D03*
X150000000Y-63500000D03*
D13*
X54505000Y-83498430D03*
X57255000Y-83498430D03*
X58630000Y-85880000D03*
X57255000Y-88261570D03*
X54505000Y-88261570D03*
X53130000Y-85880000D03*
D14*
X55880000Y-85880000D03*
X65000000Y-95000000D03*
D13*
X87505000Y-83498430D03*
X90255000Y-83498430D03*
X91630000Y-85880000D03*
X90255000Y-88261570D03*
X87505000Y-88261570D03*
X86130000Y-85880000D03*
D14*
X88880000Y-85880000D03*
X98000000Y-95000000D03*
D13*
X120505000Y-83498430D03*
X123255000Y-83498430D03*
X124630000Y-85880000D03*
X123255000Y-88261570D03*
X120505000Y-88261570D03*
X119130000Y-85880000D03*
D14*
X121880000Y-85880000D03*
X131000000Y-95000000D03*
D13*
X153505000Y-83498430D03*
X156255000Y-83498430D03*
X157630000Y-85880000D03*
X156255000Y-88261570D03*
X153505000Y-88261570D03*
X152130000Y-85880000D03*
D14*
X154880000Y-85880000D03*
X164000000Y-95000000D03*
D13*
X186505000Y-83498430D03*
X189255000Y-83498430D03*
X190630000Y-85880000D03*
X189255000Y-88261570D03*
X186505000Y-88261570D03*
X185130000Y-85880000D03*
D14*
X187880000Y-85880000D03*
X197000000Y-95000000D03*
D13*
X219505000Y-83498430D03*
X222255000Y-83498430D03*
X223630000Y-85880000D03*
X222255000Y-88261570D03*
X219505000Y-88261570D03*
X218130000Y-85880000D03*
D14*
X220880000Y-85880000D03*
X230000000Y-95000000D03*
D13*
X138498430Y-136995000D03*
X138498430Y-134245000D03*
X140880000Y-132870000D03*
X143261570Y-134245000D03*
X143261570Y-136995000D03*
X140880000Y-138370000D03*
D14*
X140880000Y-135620000D03*
X150000000Y-126500000D03*
M02*
